<svg width="454" height="583" viewBox="0 0 454 583" fill="none" xmlns="http://www.w3.org/2000/svg">
<path fill-rule="evenodd" clip-rule="evenodd" d="M59.6977 0C26.8741 0 0 26.6467 0 59.1925V457.397C0 489.943 26.8741 516.589 59.6977 516.589H66.7946V569.573C66.7425 573.117 68.1253 576.532 70.6301 579.068C73.161 581.577 76.579 583 80.1537 583C83.7284 583 87.1464 581.577 89.6773 579.068C92.1821 576.532 93.5649 573.117 93.5127 569.573V516.589H427.486V569.573C427.434 573.117 428.817 576.532 431.321 579.068C433.852 581.577 437.27 583 440.845 583C444.42 583 447.838 581.577 450.368 579.068C452.873 576.532 454.256 573.117 454.204 569.573V516.589H461.301C494.124 516.589 520.999 489.943 520.999 457.397V249.673C521.051 246.128 519.668 242.713 517.163 240.178C514.632 237.669 511.214 236.246 507.639 236.246C504.065 236.246 500.647 237.669 498.116 240.178C495.611 242.713 494.228 246.128 494.28 249.673V457.397C494.28 475.739 479.799 490.098 461.301 490.098H59.698C41.1992 490.098 26.7181 475.739 26.7181 457.397V59.1925C26.7181 40.8503 41.1992 26.4918 59.698 26.4918H461.301C479.799 26.4918 494.28 40.8503 494.28 59.1925C494.228 62.7369 495.611 66.1519 498.116 68.6872C500.647 71.1967 504.065 72.6196 507.639 72.6196C511.214 72.6196 514.632 71.1967 517.163 68.6872C519.668 66.1519 521.051 62.7369 520.999 59.1925C520.999 26.6467 494.124 0 461.301 0H59.6977ZM260.495 112.589C179.506 112.589 113.547 177.991 113.547 258.294C113.547 338.597 179.506 403.999 260.495 403.999C336.995 403.999 400.062 345.686 406.815 271.54H454.198C457.772 271.591 461.217 270.22 463.774 267.737C466.304 265.227 467.739 261.838 467.739 258.294C467.739 254.749 466.304 251.36 463.774 248.851C461.217 246.367 457.772 244.996 454.198 245.048H406.815C400.057 170.904 336.995 112.589 260.495 112.589V112.589ZM260.495 139.081C322.515 139.081 373.264 185.339 379.89 245.048H360.687C360.269 245.022 359.852 245.022 359.434 245.048C355.886 245.204 352.547 246.756 350.172 249.369C347.772 251.956 346.545 255.397 346.702 258.915C346.858 262.433 348.424 265.745 351.059 268.099C353.668 270.479 357.139 271.695 360.687 271.54H379.89C373.263 331.25 322.515 377.507 260.495 377.507C193.935 377.507 140.265 324.29 140.265 258.294C140.265 192.298 193.935 139.081 260.495 139.081L260.495 139.081Z" fill="#EFF0F2"/>
</svg>
