<svg width="360" height="553" viewBox="0 0 360 553" fill="none" xmlns="http://www.w3.org/2000/svg">
<path fill-rule="evenodd" clip-rule="evenodd" d="M264 6C262.404 6.12308 261.347 6.51698 260.762 6.98474L19.0292 183.45C16.9158 184.927 15.9715 187.93 16.691 190.54C17.4104 193.15 19.7711 195.144 22.2667 195.07H62.5556V434.558H22.2667C19.254 434.558 16.5111 437.562 16.5111 440.86V484.977H10.7556C7.74287 484.977 5 487.98 5 491.279V541.698C5 544.997 7.74287 548 10.7556 548H517.244C520.257 548 523 544.997 523 541.698V491.279C523 487.98 520.257 484.977 517.244 484.977H511.489V440.86C511.489 437.562 508.746 434.558 505.733 434.558H465.444V195.07H505.733C508.229 195.144 510.59 193.15 511.309 190.54C512.028 187.93 511.084 184.927 508.971 183.45L267.238 6.98474C265.956 6 265.034 6.02464 264 6ZM264.001 19.7852L486.85 182.461H41.1514L264.001 19.7852ZM263.999 81.6304C248.172 81.6304 235.222 95.8106 235.222 113.142C235.222 130.473 248.172 144.654 263.999 144.654C279.827 144.654 292.777 130.473 292.777 113.142C292.777 95.8106 279.827 81.6304 263.999 81.6304ZM264 94.2339C273.6 94.2339 281.267 102.629 281.267 113.141C281.267 123.653 273.6 132.048 264 132.048C254.4 132.048 246.733 123.653 246.733 113.141C246.733 102.629 254.4 94.2339 264 94.2339ZM74.0674 195.071H108.601V434.559H74.0674V195.071ZM120.112 195.071H177.668V434.559H120.112V195.071ZM189.177 195.071H223.71V434.559H189.177V195.071ZM235.222 195.071H292.777V434.559H235.222V195.071ZM304.289 195.071H338.822V434.559H304.289V195.071ZM350.334 195.071H407.89V434.559H350.334V195.071ZM419.399 195.071H453.932V434.559H419.399V195.071ZM28.0225 447.163H499.978V484.977H28.0225V447.163ZM16.5112 497.582H511.489V535.395H16.5112V497.582Z" fill="#EFF0F2"/>
<path d="M264 6L264.119 1.00142L263.867 0.995412L263.616 1.0148L264 6ZM260.762 6.98474L263.711 11.0232L263.8 10.9579L263.887 10.8887L260.762 6.98474ZM19.0292 183.45L21.8936 187.548L21.9357 187.519L21.9772 187.488L19.0292 183.45ZM22.2667 195.07V190.07H22.1927L22.1187 190.072L22.2667 195.07ZM62.5556 195.07H67.5556V190.07H62.5556V195.07ZM62.5556 434.558V439.558H67.5556V434.558H62.5556ZM16.5111 484.977V489.977H21.5111V484.977H16.5111ZM511.489 484.977H506.489V489.977H511.489V484.977ZM465.444 434.558H460.444V439.558H465.444V434.558ZM465.444 195.07V190.07H460.444V195.07H465.444ZM505.733 195.07L505.881 190.072L505.807 190.07H505.733V195.07ZM508.971 183.45L506.023 187.488L506.064 187.519L506.106 187.548L508.971 183.45ZM267.238 6.98474L264.191 10.9494L264.24 10.9869L264.289 11.0232L267.238 6.98474ZM264.001 19.7852L266.949 15.7467L264.001 13.5947L261.053 15.7467L264.001 19.7852ZM486.85 182.461V187.461H502.18L489.798 178.422L486.85 182.461ZM41.1514 182.461L38.2034 178.422L25.8216 187.461H41.1514V182.461ZM74.0674 195.071V190.071H69.0674V195.071H74.0674ZM108.601 195.071H113.601V190.071H108.601V195.071ZM108.601 434.559V439.559H113.601V434.559H108.601ZM74.0674 434.559H69.0674V439.559H74.0674V434.559ZM120.112 195.071V190.071H115.112V195.071H120.112ZM177.668 195.071H182.668V190.071H177.668V195.071ZM177.668 434.559V439.559H182.668V434.559H177.668ZM120.112 434.559H115.112V439.559H120.112V434.559ZM189.177 195.071V190.071H184.177V195.071H189.177ZM223.71 195.071H228.71V190.071H223.71V195.071ZM223.71 434.559V439.559H228.71V434.559H223.71ZM189.177 434.559H184.177V439.559H189.177V434.559ZM235.222 195.071V190.071H230.222V195.071H235.222ZM292.777 195.071H297.777V190.071H292.777V195.071ZM292.777 434.559V439.559H297.777V434.559H292.777ZM235.222 434.559H230.222V439.559H235.222V434.559ZM304.289 195.071V190.071H299.289V195.071H304.289ZM338.822 195.071H343.822V190.071H338.822V195.071ZM338.822 434.559V439.559H343.822V434.559H338.822ZM304.289 434.559H299.289V439.559H304.289V434.559ZM350.334 195.071V190.071H345.334V195.071H350.334ZM407.89 195.071H412.89V190.071H407.89V195.071ZM407.89 434.559V439.559H412.89V434.559H407.89ZM350.334 434.559H345.334V439.559H350.334V434.559ZM419.399 195.071V190.071H414.399V195.071H419.399ZM453.932 195.071H458.932V190.071H453.932V195.071ZM453.932 434.559V439.559H458.932V434.559H453.932ZM419.399 434.559H414.399V439.559H419.399V434.559ZM28.0225 447.163V442.163H23.0225V447.163H28.0225ZM499.978 447.163H504.978V442.163H499.978V447.163ZM499.978 484.977V489.977H504.978V484.977H499.978ZM28.0225 484.977H23.0225V489.977H28.0225V484.977ZM16.5112 497.582V492.582H11.5112V497.582H16.5112ZM511.489 497.582H516.489V492.582H511.489V497.582ZM511.489 535.395V540.395H516.489V535.395H511.489ZM16.5112 535.395H11.5112V540.395H16.5112V535.395ZM263.616 1.0148C261.52 1.17639 259.325 1.73158 257.638 3.08082L263.887 10.8887C263.73 11.0142 263.609 11.0815 263.553 11.1097C263.496 11.1387 263.483 11.1388 263.53 11.1238C263.63 11.0919 263.899 11.0226 264.384 10.9852L263.616 1.0148ZM257.814 2.9463L16.0811 179.411L21.9772 187.488L263.711 11.0232L257.814 2.9463ZM16.1648 179.352C12.1106 182.185 10.6585 187.472 11.8708 191.869L21.5111 189.211C21.4256 188.901 21.4286 188.498 21.5526 188.117C21.6775 187.733 21.8531 187.576 21.8936 187.548L16.1648 179.352ZM11.8708 191.869C13.082 196.262 17.1901 200.222 22.4146 200.068L22.1187 190.072C22.2669 190.068 22.2017 190.124 21.9879 189.949C21.7746 189.773 21.5908 189.5 21.5111 189.211L11.8708 191.869ZM22.2667 200.07H62.5556V190.07H22.2667V200.07ZM57.5556 195.07V434.558H67.5556V195.07H57.5556ZM62.5556 429.558H22.2667V439.558H62.5556V429.558ZM22.2667 429.558C19.0794 429.558 16.3729 431.123 14.5671 433.1C12.7492 435.091 11.5111 437.842 11.5111 440.86H21.5111C21.5111 440.58 21.6445 440.18 21.9512 439.844C22.2699 439.495 22.4412 439.558 22.2667 439.558V429.558ZM11.5111 440.86V484.977H21.5111V440.86H11.5111ZM16.5111 479.977H10.7556V489.977H16.5111V479.977ZM10.7556 479.977C7.5683 479.977 4.86181 481.542 3.05596 483.519C1.23809 485.51 0 488.26 0 491.279H10C10 490.999 10.1333 490.598 10.4401 490.263C10.7588 489.914 10.9301 489.977 10.7556 489.977V479.977ZM0 491.279V541.698H10V491.279H0ZM0 541.698C0 544.717 1.23809 547.467 3.05596 549.458C4.86181 551.435 7.5683 553 10.7556 553V543C10.9301 543 10.7588 543.063 10.4401 542.714C10.1333 542.378 10 541.978 10 541.698H0ZM10.7556 553H517.244V543H10.7556V553ZM517.244 553C520.432 553 523.138 551.435 524.944 549.458C526.762 547.467 528 544.717 528 541.698H518C518 541.978 517.867 542.378 517.56 542.714C517.241 543.063 517.07 543 517.244 543V553ZM528 541.698V491.279H518V541.698H528ZM528 491.279C528 488.26 526.762 485.51 524.944 483.519C523.138 481.542 520.432 479.977 517.244 479.977V489.977C517.07 489.977 517.241 489.914 517.56 490.263C517.867 490.598 518 490.999 518 491.279H528ZM517.244 479.977H511.489V489.977H517.244V479.977ZM516.489 484.977V440.86H506.489V484.977H516.489ZM516.489 440.86C516.489 437.842 515.251 435.091 513.433 433.1C511.627 431.123 508.921 429.558 505.733 429.558V439.558C505.559 439.558 505.73 439.495 506.049 439.844C506.356 440.18 506.489 440.58 506.489 440.86H516.489ZM505.733 429.558H465.444V439.558H505.733V429.558ZM470.444 434.558V195.07H460.444V434.558H470.444ZM465.444 200.07H505.733V190.07H465.444V200.07ZM505.585 200.068C510.81 200.222 514.918 196.262 516.129 191.869L506.489 189.211C506.409 189.5 506.225 189.773 506.012 189.949C505.798 190.124 505.733 190.068 505.881 190.072L505.585 200.068ZM516.129 191.869C517.341 187.472 515.889 182.185 511.835 179.352L506.106 187.548C506.147 187.576 506.322 187.733 506.447 188.117C506.571 188.498 506.574 188.901 506.489 189.211L516.129 191.869ZM511.919 179.411L270.186 2.9463L264.289 11.0232L506.023 187.488L511.919 179.411ZM270.284 3.02004C269.124 2.12854 267.926 1.55493 266.651 1.26045C265.525 1.00065 264.457 1.00948 264.119 1.00142L263.881 10.9986C263.951 11.0003 264.026 11.0018 264.082 11.0031C264.143 11.0044 264.194 11.0056 264.241 11.007C264.336 11.0097 264.394 11.0124 264.434 11.015C264.509 11.0199 264.48 11.0222 264.401 11.0042C264.363 10.9952 264.319 10.983 264.274 10.9672C264.229 10.9515 264.191 10.9354 264.162 10.9214C264.102 10.8926 264.11 10.8875 264.191 10.9494L270.284 3.02004ZM261.053 23.8236L483.902 186.499L489.798 178.422L266.949 15.7467L261.053 23.8236ZM486.85 177.461H41.1514V187.461H486.85V177.461ZM44.0994 186.499L266.949 23.8236L261.053 15.7467L38.2034 178.422L44.0994 186.499ZM263.999 76.6304C244.993 76.6304 230.222 93.4859 230.222 113.142H240.222C240.222 98.1353 251.351 86.6304 263.999 86.6304V76.6304ZM230.222 113.142C230.222 132.798 244.993 149.654 263.999 149.654V139.654C251.351 139.654 240.222 128.149 240.222 113.142H230.222ZM263.999 149.654C283.006 149.654 297.777 132.798 297.777 113.142H287.777C287.777 128.149 276.648 139.654 263.999 139.654V149.654ZM297.777 113.142C297.777 93.4859 283.006 76.6304 263.999 76.6304V86.6304C276.648 86.6304 287.777 98.1353 287.777 113.142H297.777ZM264 99.2339C270.422 99.2339 276.267 104.953 276.267 113.141H286.267C286.267 100.304 276.779 89.2339 264 89.2339V99.2339ZM276.267 113.141C276.267 121.328 270.422 127.048 264 127.048V137.048C276.779 137.048 286.267 125.978 286.267 113.141H276.267ZM264 127.048C257.579 127.048 251.733 121.328 251.733 113.141H241.733C241.733 125.978 251.221 137.048 264 137.048V127.048ZM251.733 113.141C251.733 104.953 257.579 99.2339 264 99.2339V89.2339C251.221 89.2339 241.733 100.304 241.733 113.141H251.733ZM74.0674 200.071H108.601V190.071H74.0674V200.071ZM103.601 195.071V434.559H113.601V195.071H103.601ZM108.601 429.559H74.0674V439.559H108.601V429.559ZM79.0674 434.559V195.071H69.0674V434.559H79.0674ZM120.112 200.071H177.668V190.071H120.112V200.071ZM172.668 195.071V434.559H182.668V195.071H172.668ZM177.668 429.559H120.112V439.559H177.668V429.559ZM125.112 434.559V195.071H115.112V434.559H125.112ZM189.177 200.071H223.71V190.071H189.177V200.071ZM218.71 195.071V434.559H228.71V195.071H218.71ZM223.71 429.559H189.177V439.559H223.71V429.559ZM194.177 434.559V195.071H184.177V434.559H194.177ZM235.222 200.071H292.777V190.071H235.222V200.071ZM287.777 195.071V434.559H297.777V195.071H287.777ZM292.777 429.559H235.222V439.559H292.777V429.559ZM240.222 434.559V195.071H230.222V434.559H240.222ZM304.289 200.071H338.822V190.071H304.289V200.071ZM333.822 195.071V434.559H343.822V195.071H333.822ZM338.822 429.559H304.289V439.559H338.822V429.559ZM309.289 434.559V195.071H299.289V434.559H309.289ZM350.334 200.071H407.89V190.071H350.334V200.071ZM402.89 195.071V434.559H412.89V195.071H402.89ZM407.89 429.559H350.334V439.559H407.89V429.559ZM355.334 434.559V195.071H345.334V434.559H355.334ZM419.399 200.071H453.932V190.071H419.399V200.071ZM448.932 195.071V434.559H458.932V195.071H448.932ZM453.932 429.559H419.399V439.559H453.932V429.559ZM424.399 434.559V195.071H414.399V434.559H424.399ZM28.0225 452.163H499.978V442.163H28.0225V452.163ZM494.978 447.163V484.977H504.978V447.163H494.978ZM499.978 479.977H28.0225V489.977H499.978V479.977ZM33.0225 484.977V447.163H23.0225V484.977H33.0225ZM16.5112 502.582H511.489V492.582H16.5112V502.582ZM506.489 497.582V535.395H516.489V497.582H506.489ZM511.489 530.395H16.5112V540.395H511.489V530.395ZM21.5112 535.395V497.582H11.5112V535.395H21.5112Z" fill="#EFF0F2"/>
</svg>
