<?xml version="1.0" encoding="utf-8"?>
<!-- Generator: Adobe Illustrator 25.2.1, SVG Export Plug-In . SVG Version: 6.00 Build 0)  -->
<!DOCTYPE svg PUBLIC "-//W3C//DTD SVG 1.1//EN" "http://www.w3.org/Graphics/SVG/1.1/DTD/svg11.dtd" [
	<!ENTITY ns_extend "http://ns.adobe.com/Extensibility/1.0/">
	<!ENTITY ns_ai "http://ns.adobe.com/AdobeIllustrator/10.0/">
	<!ENTITY ns_graphs "http://ns.adobe.com/Graphs/1.0/">
	<!ENTITY ns_vars "http://ns.adobe.com/Variables/1.0/">
	<!ENTITY ns_imrep "http://ns.adobe.com/ImageReplacement/1.0/">
	<!ENTITY ns_sfw "http://ns.adobe.com/SaveForWeb/1.0/">
	<!ENTITY ns_custom "http://ns.adobe.com/GenericCustomNamespace/1.0/">
	<!ENTITY ns_adobe_xpath "http://ns.adobe.com/XPath/1.0/">
]>
<svg version="1.1" id="Calque_1" xmlns:x="&ns_extend;" xmlns:i="&ns_ai;" xmlns:graph="&ns_graphs;"
	 xmlns="http://www.w3.org/2000/svg" xmlns:xlink="http://www.w3.org/1999/xlink" x="0px" y="0px" viewBox="0 0 200 200"
	 style="enable-background:new 0 0 200 200;" xml:space="preserve">
<style type="text/css">
	.apis0{fill-rule:evenodd;clip-rule:evenodd;}
	.apis1{fill-rule:evenodd;clip-rule:evenodd;fill:#BCB9BA;}
	.apis2{fill-rule:evenodd;clip-rule:evenodd;fill:#F5F5F5;}
	.apis3{fill-rule:evenodd;clip-rule:evenodd;fill:#E5E4E4;}
	.apis4{fill:#BCB9BA;}
	.apis5{fill:#BBB9BA;}
	.apis6{fill:#BBB8B9;}
	.apis7{fill:#BAB8B9;}
	.apis8{fill:#B9B7B8;}
	.apis9{fill:#B9B7B7;}
	.apis10{fill:#B8B6B7;}
	.apis11{fill:#B8B5B6;}
	.apis12{fill:#B7B5B6;}
	.apis13{fill:#B7B4B5;}
	.apis14{fill:#B6B4B5;}
	.apis15{fill:#B6B3B4;}
	.apis16{fill:#B5B3B4;}
	.apis17{fill:#B4B2B3;}
	.apis18{fill:#B3B1B2;}
	.apis19{fill:#B3B1B1;}
	.apis20{fill:#B2B0B1;}
	.apis21{fill:#B2AFB0;}
	.apis22{fill:#B1AFB0;}
	.apis23{fill:#B1AEAF;}
	.apis24{fill:#B0AEAF;}
	.apis25{fill:#AFADAE;}
	.apis26{fill:#AEACAD;}
	.apis27{fill:#ADABAC;}
	.apis28{fill:#ADABAB;}
	.apis29{fill:#ACAAAB;}
	.apis30{fill:#ACAAAA;}
	.apis31{fill:#ABA9AA;}
	.apis32{fill:#AAA8A9;}
	.apis33{fill:#A9A7A8;}
	.apis34{fill:#A8A6A7;}
	.apis35{fill:#A7A5A6;}
	.apis36{fill:#A7A5A5;}
	.apis37{fill:#A6A4A5;}
	.apis38{fill:#A5A4A4;}
	.apis39{fill:#A5A3A4;}
	.apis40{fill:#A4A2A3;}
	.apis41{fill:#A3A1A2;}
	.apis42{fill:#A2A0A1;}
	.apis43{fill:#A19FA0;}
	.apis44{fill:#A09F9F;}
	.apis45{fill:#A09E9F;}
	.apis46{fill:#9F9E9E;}
	.apis47{fill:#9F9D9E;}
	.apis48{fill:#9E9D9D;}
	.apis49{fill:#9E9C9D;}
	.apis50{fill:#9D9B9C;}
	.apis51{fill:#9C9A9B;}
	.apis52{fill:#9B9A9B;}
	.apis53{fill:#9B999A;}
	.apis54{fill:#9A9999;}
	.apis55{fill:#9A9899;}
	.apis56{fill:#999898;}
	.apis57{fill:#999798;}
	.apis58{fill:#989797;}
	.apis59{fill:#989697;}
	.apis60{fill:#979596;}
	.apis61{fill:#969596;}
	.apis62{fill:#969495;}
	.apis63{fill:#959495;}
	.apis64{fill:#959394;}
	.apis65{fill:#949393;}
	.apis66{fill:#949293;}
	.apis67{fill:#939292;}
	.apis68{fill:#939192;}
	.apis69{fill:#929191;}
	.apis70{fill:#919091;}
	.apis71{fill:#919090;}
	.apis72{fill:#908F90;}
	.apis73{fill:#908E8F;}
	.apis74{fill:#8F8E8F;}
	.apis75{fill:#8F8D8E;}
	.apis76{fill:#8E8D8D;}
	.apis77{fill:#8E8C8D;}
	.apis78{fill:#8D8C8C;}
	.apis79{fill:#8C8B8C;}
	.apis80{fill:#8C8B8B;}
	.apis81{fill:#8B8A8B;}
	.apis82{fill:#8B8A8A;}
	.apis83{fill:#8A898A;}
	.apis84{fill:#8A8889;}
	.apis85{fill:#898888;}
	.apis86{fill:#898788;}
	.apis87{fill:#888787;}
	.apis88{fill:#878687;}
	.apis89{fill:#878686;}
	.apis90{fill:#868586;}
	.apis91{fill:#868585;}
	.apis92{fill:#858485;}
	.apis93{fill:#858484;}
	.apis94{fill:#848384;}
	.apis95{fill:#848383;}
	.apis96{fill:#838282;}
	.apis97{fill:#828182;}
	.apis98{fill:#828181;}
	.apis99{fill:#818081;}
	.apis100{fill:#818080;}
	.apis101{fill:#807F80;}
	.apis102{fill:#807F7F;}
	.apis103{fill:#7F7E7F;}
	.apis104{fill:#7F7E7E;}
	.apis105{fill:#7E7D7E;}
	.apis106{fill:#7D7D7D;}
	.apis107{fill:#7D7C7C;}
	.apis108{fill:#7C7B7C;}
	.apis109{fill:#7C7B7B;}
	.apis110{fill:#7B7A7B;}
	.apis111{fill:#7B7A7A;}
	.apis112{fill:#7A797A;}
	.apis113{fill:#7A7979;}
	.apis114{fill:#797879;}
	.apis115{fill:#787878;}
	.apis116{fill:#787778;}
	.apis117{fill:#777777;}
	.apis118{fill:#777676;}
	.apis119{fill:#767676;}
	.apis120{fill:#767575;}
	.apis121{fill:#757475;}
	.apis122{fill:#757474;}
	.apis123{fill:#747374;}
	.apis124{fill:#737373;}
	.apis125{fill:#737273;}
	.apis126{fill:#727272;}
	.apis127{fill:#727172;}
	.apis128{fill:#717171;}
	.apis129{fill:#717070;}
	.apis130{fill:#707070;}
	.apis131{fill:#706F6F;}
	.apis132{fill:#6F6E6F;}
	.apis133{fill:#6E6E6E;}
	.apis134{fill:#6E6D6E;}
	.apis135{fill:#6D6D6D;}
	.apis136{fill:#6D6C6D;}
	.apis137{fill:#6C6C6C;}
	.apis138{fill:#6C6B6C;}
	.apis139{fill:#6B6B6B;}
	.apis140{fill:#6B6A6A;}
	.apis141{fill:#6A6A6A;}
	.apis142{fill:#696969;}
	.apis143{fill:#686868;}
	.apis144{fill:#686768;}
	.apis145{fill:#676767;}
	.apis146{fill:#676667;}
	.apis147{fill:#666666;}
	.apis148{fill:#666566;}
	.apis149{fill:#656565;}
	.apis150{fill:#646464;}
	.apis151{fill:#636363;}
	.apis152{fill:#626262;}
	.apis153{fill:#626162;}
	.apis154{fill:#616161;}
	.apis155{fill:#616061;}
	.apis156{fill:#606060;}
	.apis157{fill:#5F5F60;}
	.apis158{fill:#5F5F5F;}
	.apis159{fill:#5E5E5E;}
	.apis160{fill:#5D5D5D;}
	.apis161{fill:#5C5C5C;}
	.apis162{fill:#5B5B5B;}
	.apis163{fill:#5A5A5B;}
	.apis164{fill:#5A5A5A;}
	.apis165{fill:#59595A;}
	.apis166{fill:#595959;}
	.apis167{fill:#585858;}
	.apis168{fill:#575757;}
	.apis169{fill:#565656;}
	.apis170{fill:#555656;}
	.apis171{fill:#555555;}
	.apis172{fill:#545455;}
	.apis173{fill:#545454;}
	.apis174{fill:#535353;}
	.apis175{fill:#525252;}
	.apis176{fill:#515151;}
	.apis177{fill:#505151;}
	.apis178{fill:#505050;}
	.apis179{fill:#4F5050;}
	.apis180{fill:#4F4F4F;}
	.apis181{fill:#4E4F4F;}
	.apis182{fill:#4E4E4E;}
	.apis183{fill:#4D4D4D;}
	.apis184{fill:#4C4C4C;}
	.apis185{fill:var(--vitamui-primary);}
	.apis186{fill:url(#APIS_ID_1_);}
	.apis187{fill:url(#APIS_ID_2_);}
	.apis188{fill:var(--vitamui-primary-300);}
	.apis189{fill:url(#APIS_ID_3_);}
	.apis190{fill:url(#APIS_ID_4_);}
	.apis191{fill:url(#APIS_ID_5_);}
	.apis192{fill:url(#APIS_ID_6_);}
	.apis193{fill:url(#APIS_ID_7_);}
	.apis194{fill:url(#APIS_ID_8_);}
	.apis195{fill:#FFFFFF;}
	.apis196{fill:#353535;}
	.apis197{fill-rule:evenodd;clip-rule:evenodd;fill:#353535;}
	.apis198{fill-rule:evenodd;clip-rule:evenodd;fill:#4C4C4C;}
	.apis199{fill-rule:evenodd;clip-rule:evenodd;fill:url(#APIS_ID_9_);}
	.apis200{fill:url(#APIS_ID_10_);}
	.apis201{fill:url(#APIS_ID_11_);}
	.apis202{fill:url(#APIS_ID_12_);}
	.apis203{fill:url(#APIS_ID_13_);}
	.apis204{fill:url(#APIS_ID_14_);}
</style>
<metadata>
	<sfw  xmlns="&ns_sfw;">
		<slices></slices>
		<sliceSourceBounds  bottomLeftOrigin="true" height="129.8" width="165.1" x="17.4" y="19.2"></sliceSourceBounds>
	</sfw>
</metadata>
<g>
	<g>
		<path class="apis0" d="M100,141.6c45.6,0,82.6,8.5,82.6,19s-37,20.2-82.6,20.2s-82.6-9.7-82.6-20.2C17.3,150.1,54.3,141.6,100,141.6
			z"/>
		<path class="apis1" d="M100,142c43.6,0,78.9,8.4,78.9,18.8c0,10.4-35.3,18.8-78.9,18.8s-78.9-8.4-78.9-18.8
			C21.1,150.2,56.4,142,100,142z"/>
		<path class="apis2" d="M100,139.8c43.6,0,78.9,8.4,78.9,18.8c0,10.4-35.3,18.8-78.9,18.8s-78.9-8.4-78.9-18.8
			C21.1,148,56.4,139.8,100,139.8z"/>
		<path class="apis1" d="M100,138.6c43.6,0,78.9,8.4,78.9,18.8c0,10.4-35.3,18.8-78.9,18.8s-78.9-8.4-78.9-18.8
			C21.1,146.9,56.4,138.6,100,138.6z"/>
		<path class="apis3" d="M99.9,138.6c22.9,0,43.4,2.3,57.8,6c-30.2-1.8-112.6,2.6-132.9,18.5c-2.5-1.8-3.8-3.8-3.8-5.7
			C20.9,146.9,56.4,138.6,99.9,138.6z"/>
		<path class="apis2" d="M21.1,157.2c0-10.4,35.3-18.8,78.9-18.8s78.9,8.4,78.9,18.8c0,0.4,0,0.6-0.1,1c-2.2-9.8-36.6-17.7-78.8-17.7
			s-76.6,7.9-78.8,17.7C21.1,157.9,21.1,157.6,21.1,157.2z"/>
	</g>
</g>
<g>
	<g>
		<path class="apis4" d="M167.5,159.8c-7.5,2.6-45.8,14.9-77.3,8.4c-31.6-6.5-55-14-47.5-16.6s47-8.6,78.6-2.1
			C152.8,156,175,157.2,167.5,159.8z"/>
		<path class="apis5" d="M167.2,159.8c-7.5,2.6-45.6,14.8-77.1,8.4s-54.8-13.9-47.4-16.6c7.5-2.6,46.9-8.5,78.3-2.1
			C152.5,156,174.6,157.2,167.2,159.8z"/>
		<path class="apis6" d="M166.8,159.9c-7.4,2.6-45.5,14.7-76.8,8.3c-31.4-6.4-54.7-13.9-47.2-16.5c7.4-2.6,46.7-8.5,78.1-2
			S174.3,157.3,166.8,159.9z"/>
		<path class="apis7" d="M166.5,159.9c-7.4,2.6-45.3,14.7-76.6,8.2s-54.5-13.9-47.1-16.5c7.4-2.6,46.5-8.4,77.8-2
			S173.9,157.3,166.5,159.9z"/>
		<path class="apis8" d="M166.2,160c-7.4,2.6-45.1,14.6-76.3,8.2c-31.2-6.4-54.3-13.8-46.9-16.4c7.4-2.6,46.4-8.4,77.5-2
			S173.6,157.4,166.2,160z"/>
		<path class="apis9" d="M165.8,160c-7.4,2.6-45,14.5-76.1,8.1c-31.1-6.4-54.2-13.8-46.8-16.4s46.2-8.3,77.3-1.9
			C151.3,156.2,173.2,157.4,165.8,160z"/>
		<path class="apis10" d="M165.5,160c-7.3,2.6-44.8,14.4-75.8,8c-31-6.4-54-13.8-46.7-16.3s46-8.3,77-1.9
			C151,156.2,172.8,157.5,165.5,160z"/>
		<path class="apis11" d="M165.2,160.1c-7.3,2.6-44.7,14.3-75.6,8c-30.9-6.4-53.8-13.7-46.5-16.3s45.9-8.2,76.8-1.9
			S172.5,157.5,165.2,160.1z"/>
		<path class="apis12" d="M164.8,160.1c-7.3,2.6-44.5,14.2-75.3,7.9s-53.6-13.7-46.4-16.2s45.7-8.2,76.5-1.8S172.1,157.6,164.8,160.1z
			"/>
		<path class="apis13" d="M164.5,160.1c-7.2,2.5-44.3,14.2-75,7.8c-30.7-6.3-53.5-13.6-46.2-16.2c7.2-2.5,45.5-8.1,76.2-1.8
			C150.2,156.3,171.7,157.6,164.5,160.1z"/>
		<path class="apis14" d="M164.2,160.2c-7.2,2.5-44.2,14.1-74.8,7.8s-53.3-13.6-46.1-16.1c7.2-2.5,45.4-8.1,76-1.8
			C149.9,156.4,171.4,157.7,164.2,160.2z"/>
		<path class="apis15" d="M163.8,160.2c-7.2,2.5-44,14-74.5,7.7c-30.5-6.3-53.1-13.6-45.9-16.1c7.2-2.5,45.2-8,75.7-1.7
			S171,157.7,163.8,160.2z"/>
		<path class="apis16" d="M163.5,160.3c-7.2,2.5-43.9,13.9-74.3,7.6s-53-13.5-45.8-16c7.2-2.5,45-8,75.4-1.7
			C149.3,156.5,170.7,157.7,163.5,160.3z"/>
		<path class="apis17" d="M163.2,160.3c-7.1,2.5-43.7,13.8-74,7.6s-52.8-13.5-45.7-16s44.9-7.9,75.2-1.6S170.3,157.8,163.2,160.3z"/>
		<path class="apis17" d="M162.8,160.3c-7.1,2.5-43.5,13.7-73.8,7.5s-52.6-13.4-45.5-15.9s44.7-7.9,74.9-1.6S169.9,157.8,162.8,160.3z
			"/>
		<path class="apis18" d="M162.5,160.4c-7.1,2.5-43.4,13.6-73.5,7.4s-52.4-13.4-45.4-15.9s44.5-7.8,74.7-1.6
			C148.4,156.6,169.6,157.9,162.5,160.4z"/>
		<path class="apis19" d="M162.2,160.4c-7.1,2.5-43.2,13.6-73.3,7.3c-30-6.2-52.3-13.4-45.2-15.8c7.1-2.5,44.4-7.8,74.4-1.5
			C148.1,156.6,169.2,157.9,162.2,160.4z"/>
		<path class="apis20" d="M161.8,160.4c-7,2.4-43.1,13.5-73,7.3S36.7,154.4,43.8,152s44.2-7.7,74.1-1.5S168.9,158,161.8,160.4z"/>
		<path class="apis21" d="M161.5,160.5c-7,2.4-42.9,13.4-72.7,7.2c-29.8-6.2-51.9-13.3-44.9-15.7s44-7.7,73.9-1.5
			S168.5,158,161.5,160.5z"/>
		<path class="apis22" d="M161.2,160.5c-7,2.4-42.7,13.3-72.5,7.1S36.9,154.4,43.9,152s43.9-7.6,73.6-1.4
			C147.2,156.7,168.1,158.1,161.2,160.5z"/>
		<path class="apis23" d="M160.8,160.6c-6.9,2.4-42.6,13.2-72.2,7.1C59,161.5,37,154.4,43.9,152s43.7-7.6,73.3-1.4
			S167.8,158.1,160.8,160.6z"/>
		<path class="apis24" d="M160.5,160.6c-6.9,2.4-42.4,13.1-72,7C59,161.5,37.1,154.5,44,152c6.9-2.4,43.5-7.5,73.1-1.4
			C146.6,156.8,167.4,158.2,160.5,160.6z"/>
		<path class="apis25" d="M160.2,160.6c-6.9,2.4-42.3,13.1-71.7,6.9c-29.4-6.1-51.2-13.1-44.4-15.5c6.9-2.4,43.4-7.4,72.8-1.3
			C146.4,156.9,167,158.2,160.2,160.6z"/>
		<path class="apis25" d="M159.8,160.7c-6.9,2.4-42.1,13-71.5,6.9s-51.1-13.1-44.2-15.5c6.9-2.4,43.2-7.4,72.6-1.3
			S166.7,158.3,159.8,160.7z"/>
		<path class="apis26" d="M159.5,160.7c-6.8,2.4-41.9,12.9-71.2,6.8s-50.9-13-44.1-15.4c6.8-2.4,43-7.3,72.3-1.3
			S166.3,158.3,159.5,160.7z"/>
		<path class="apis26" d="M159.1,160.7c-6.8,2.4-41.8,12.8-70.9,6.7c-29.2-6.1-50.7-13-43.9-15.4s42.9-7.3,72-1.2
			C145.5,157,166,158.4,159.1,160.7z"/>
		<path class="apis27" d="M158.8,160.8c-6.8,2.3-41.6,12.7-70.7,6.7s-50.6-13-43.8-15.3s42.7-7.2,71.8-1.2
			C145.2,157,165.6,158.4,158.8,160.8z"/>
		<path class="apis28" d="M158.5,160.8c-6.8,2.3-41.5,12.6-70.4,6.6c-29-6-50.4-12.9-43.6-15.3s42.5-7.2,71.5-1.2
			S165.2,158.5,158.5,160.8z"/>
		<path class="apis29" d="M158.1,160.9c-6.7,2.3-41.3,12.6-70.2,6.5s-50.2-12.9-43.5-15.2s42.4-7.1,71.2-1.1
			C144.6,157.1,164.9,158.5,158.1,160.9z"/>
		<path class="apis30" d="M157.8,160.9c-6.7,2.3-41.1,12.5-69.9,6.5s-50-12.8-43.3-15.1s42.2-7.1,71-1.1S164.5,158.6,157.8,160.9z"/>
		<path class="apis31" d="M157.5,160.9c-6.7,2.3-41,12.4-69.7,6.4s-49.9-12.8-43.2-15.1c6.7-2.3,42-7,70.7-1S164.1,158.6,157.5,160.9z
			"/>
		<path class="apis32" d="M157.1,161c-6.6,2.3-40.8,12.3-69.4,6.3c-28.6-6-49.7-12.8-43.1-15c6.6-2.3,41.9-7,70.5-1
			C143.7,157.2,163.8,158.7,157.1,161z"/>
		<path class="apis32" d="M156.8,161c-6.6,2.3-40.7,12.2-69.2,6.3c-28.5-6-49.5-12.7-42.9-15s41.7-6.9,70.2-1
			C143.4,157.3,163.4,158.7,156.8,161z"/>
		<path class="apis33" d="M156.5,161c-6.6,2.3-40.5,12.1-68.9,6.2s-49.4-12.7-42.8-14.9s41.5-6.9,69.9-0.9S163.1,158.8,156.5,161z"/>
		<path class="apis33" d="M156.1,161.1c-6.6,2.3-40.3,12.1-68.6,6.1c-28.3-5.9-49.2-12.6-42.6-14.9c6.6-2.3,41.4-6.8,69.7-0.9
			S162.7,158.8,156.1,161.1z"/>
		<path class="apis34" d="M155.8,161.1c-6.5,2.2-40.2,12-68.4,6.1s-49-12.6-42.5-14.8c6.5-2.2,41.2-6.8,69.4-0.9
			C142.5,157.4,162.3,158.9,155.8,161.1z"/>
		<path class="apis34" d="M155.5,161.1c-6.5,2.2-40,11.9-68.1,6c-28.1-5.9-48.8-12.6-42.3-14.8c6.5-2.2,41-6.7,69.2-0.8
			S162,158.9,155.5,161.1z"/>
		<path class="apis35" d="M155.1,161.2c-6.5,2.2-39.9,11.8-67.9,5.9c-28-5.9-48.7-12.5-42.2-14.7c6.5-2.2,40.9-6.7,68.9-0.8
			C142,157.5,161.6,159,155.1,161.2z"/>
		<path class="apis36" d="M154.8,161.2c-6.5,2.2-39.7,11.7-67.6,5.9c-27.9-5.9-48.5-12.5-42-14.7s40.7-6.6,68.6-0.8
			C141.7,157.5,161.2,159,154.8,161.2z"/>
		<path class="apis37" d="M154.5,161.3c-6.4,2.2-39.5,11.6-67.4,5.8s-48.3-12.4-41.9-14.6s40.5-6.6,68.4-0.7S160.9,159.1,154.5,161.3z
			"/>
		<path class="apis38" d="M154.1,161.3c-6.4,2.2-39.4,11.6-67.1,5.7s-48.2-12.4-41.8-14.6s40.4-6.5,68.1-0.7S160.5,159.1,154.1,161.3z
			"/>
		<path class="apis39" d="M153.8,161.3c-6.4,2.2-39.2,11.5-66.9,5.7c-27.6-5.8-48-12.4-41.6-14.5s40.2-6.5,67.8-0.7
			C140.8,157.6,160.2,159.2,153.8,161.3z"/>
		<path class="apis40" d="M153.5,161.4c-6.3,2.2-39.1,11.4-66.6,5.6S39,154.7,45.4,152.5c6.3-2.2,40-6.4,67.6-0.6
			C140.5,157.7,159.8,159.2,153.5,161.4z"/>
		<path class="apis40" d="M153.1,161.4c-6.3,2.2-38.9,11.3-66.3,5.5c-27.4-5.8-47.6-12.3-41.3-14.4c6.3-2.2,39.9-6.4,67.3-0.6
			S159.4,159.3,153.1,161.4z"/>
		<path class="apis41" d="M152.8,161.4c-6.3,2.1-38.7,11.2-66.1,5.5s-47.5-12.2-41.2-14.4c6.3-2.1,39.7-6.3,67.1-0.5
			C139.9,157.7,159.1,159.3,152.8,161.4z"/>
		<path class="apis41" d="M152.5,161.5c-6.3,2.1-38.6,11.1-65.8,5.4s-47.3-12.2-41-14.3c6.3-2.1,39.6-6.2,66.8-0.5
			S158.7,159.4,152.5,161.5z"/>
		<path class="apis42" d="M152.1,161.5c-6.2,2.1-38.4,11.1-65.6,5.3c-27.1-5.7-47.1-12.2-40.9-14.3s39.4-6.2,66.5-0.5
			S158.4,159.4,152.1,161.5z"/>
		<path class="apis42" d="M151.8,161.6c-6.2,2.1-38.3,11-65.3,5.3c-27.1-5.7-47-12.1-40.7-14.2s39.2-6.1,66.3-0.4
			C139,157.9,158,159.4,151.8,161.6z"/>
		<path class="apis43" d="M151.4,161.6c-6.2,2.1-38.1,10.9-65.1,5.2c-27-5.7-46.8-12.1-40.6-14.2s39.1-6.1,66-0.4
			C138.7,157.9,157.6,159.5,151.4,161.6z"/>
		<path class="apis44" d="M151.1,161.6c-6.2,2.1-37.9,10.8-64.8,5.1s-46.6-12-40.5-14.1c6.2-2.1,38.9-6,65.7-0.4
			S157.3,159.5,151.1,161.6z"/>
		<path class="apis45" d="M150.8,161.7c-6.1,2.1-37.8,10.7-64.6,5.1c-26.8-5.7-46.4-12-40.3-14.1s38.7-6,65.5-0.3
			S156.9,159.6,150.8,161.7z"/>
		<path class="apis46" d="M150.4,161.7c-6.1,2.1-37.6,10.6-64.3,5s-46.3-12-40.2-14s38.6-5.9,65.2-0.3
			C137.9,158,156.5,159.6,150.4,161.7z"/>
		<path class="apis47" d="M150.1,161.7c-6.1,2.1-37.5,10.6-64,4.9c-26.6-5.6-46.1-11.9-40-14s38.4-5.9,65-0.3
			C137.6,158.1,156.2,159.7,150.1,161.7z"/>
		<path class="apis48" d="M149.8,161.8c-6,2-37.3,10.5-63.8,4.9s-45.9-11.9-39.9-13.9s38.2-5.8,64.7-0.2
			C137.3,158.1,155.8,159.7,149.8,161.8z"/>
		<path class="apis49" d="M149.4,161.8c-6,2-37.1,10.4-63.5,4.8s-45.8-11.8-39.7-13.9c6-2,38.1-5.8,64.4-0.2S155.5,159.8,149.4,161.8z
			"/>
		<path class="apis50" d="M149.1,161.9c-6,2-37,10.3-63.3,4.7s-45.6-11.8-39.6-13.8c6-2,37.9-5.7,64.2-0.2S155.1,159.8,149.1,161.9z"
			/>
		<path class="apis50" d="M148.8,161.9c-6,2-36.8,10.2-63,4.7s-45.4-11.8-39.5-13.8c6-2,37.7-5.7,63.9-0.1
			C136.4,158.2,154.7,159.9,148.8,161.9z"/>
		<path class="apis51" d="M148.4,161.9c-5.9,2-36.7,10.1-62.8,4.6c-26.1-5.5-45.2-11.7-39.3-13.7c5.9-2,37.6-5.6,63.6-0.1
			C136.1,158.3,154.4,159.9,148.4,161.9z"/>
		<path class="apis52" d="M148.1,162c-5.9,2-36.5,10.1-62.5,4.5s-45.1-11.7-39.2-13.7s37.4-5.6,63.4-0.1S154,160,148.1,162z"/>
		<path class="apis53" d="M147.8,162c-5.9,2-36.3,10-62.2,4.5c-25.9-5.5-44.9-11.6-39-13.6s37.2-5.5,63.1,0S153.6,160,147.8,162z"/>
		<path class="apis54" d="M147.4,162c-5.9,2-36.2,9.9-62,4.4s-44.7-11.6-38.9-13.6s37.1-5.5,62.9,0S153.3,160.1,147.4,162z"/>
		<path class="apis55" d="M147.1,162.1c-5.8,2-36,9.8-61.7,4.3c-25.7-5.5-44.6-11.6-38.7-13.5s36.9-5.4,62.6,0.1
			S152.9,160.1,147.1,162.1z"/>
		<path class="apis56" d="M146.8,162.1c-5.8,1.9-35.9,9.7-61.5,4.3c-25.6-5.5-44.4-11.5-38.6-13.5c5.8-1.9,36.7-5.4,62.3,0.1
			C134.6,158.5,152.6,160.2,146.8,162.1z"/>
		<path class="apis57" d="M146.4,162.2c-5.8,1.9-35.7,9.6-61.2,4.2c-25.5-5.4-44.2-11.5-38.4-13.4c5.8-1.9,36.6-5.3,62.1,0.1
			C134.3,158.5,152.2,160.2,146.4,162.2z"/>
		<path class="apis58" d="M146.1,162.2c-5.8,1.9-35.5,9.6-61,4.1c-25.4-5.4-44-11.4-38.3-13.4c5.8-1.9,36.4-5.3,61.8,0.2
			S151.8,160.3,146.1,162.2z"/>
		<path class="apis59" d="M145.8,162.2c-5.7,1.9-35.4,9.5-60.7,4.1S41.2,154.9,46.9,153s36.2-5.2,61.6,0.2S151.5,160.3,145.8,162.2z"
			/>
		<path class="apis60" d="M145.4,162.3c-5.7,1.9-35.2,9.4-60.5,4c-25.2-5.4-43.7-11.4-38-13.3c5.7-1.9,36.1-5.2,61.3,0.2
			C133.5,158.6,151.1,160.4,145.4,162.3z"/>
		<path class="apis61" d="M145.1,162.3c-5.7,1.9-35.1,9.3-60.2,3.9S41.4,154.9,47,153c5.7-1.9,35.9-5.1,61,0.3
			C133.2,158.7,150.8,160.4,145.1,162.3z"/>
		<path class="apis62" d="M144.8,162.3c-5.6,1.9-34.9,9.2-59.9,3.9c-25-5.4-43.4-11.3-37.7-13.2c5.6-1.9,35.7-5,60.8,0.3
			C132.9,158.7,150.4,160.5,144.8,162.3z"/>
		<path class="apis63" d="M144.4,162.4c-5.6,1.9-34.7,9.1-59.7,3.8s-43.2-11.2-37.6-13.1c5.6-1.9,35.6-5,60.5,0.3
			C132.6,158.8,150,160.5,144.4,162.4z"/>
		<path class="apis64" d="M144.1,162.4c-5.6,1.8-34.6,9.1-59.4,3.7s-43-11.2-37.4-13.1s35.4-4.9,60.2,0.4S149.7,160.6,144.1,162.4z"/>
		<path class="apis65" d="M143.7,162.5c-5.6,1.8-34.4,9-59.2,3.7s-42.8-11.2-37.3-13s35.2-4.9,60,0.4S149.3,160.6,143.7,162.5z"/>
		<path class="apis66" d="M143.4,162.5c-5.5,1.8-34.3,8.9-58.9,3.6c-24.7-5.3-42.7-11.1-37.1-13s35.1-4.8,59.7,0.4
			C131.7,158.9,148.9,160.7,143.4,162.5z"/>
		<path class="apis67" d="M143.1,162.5c-5.5,1.8-34.1,8.8-58.7,3.5c-24.6-5.3-42.5-11.1-37-12.9s34.9-4.8,59.5,0.5
			C131.4,158.9,148.6,160.7,143.1,162.5z"/>
		<path class="apis68" d="M142.7,162.6c-5.5,1.8-33.9,8.7-58.4,3.5S42,155,47.5,153.2c5.5-1.8,34.7-4.7,59.2,0.5
			S148.2,160.8,142.7,162.6z"/>
		<path class="apis69" d="M142.4,162.6c-5.5,1.8-33.8,8.6-58.2,3.4c-24.4-5.2-42.2-11-36.7-12.8c5.5-1.8,34.6-4.7,58.9,0.6
			S147.9,160.8,142.4,162.6z"/>
		<path class="apis70" d="M142.1,162.6c-5.4,1.8-33.6,8.6-57.9,3.3s-42-11-36.6-12.7c5.4-1.8,34.4-4.6,58.7,0.6
			S147.5,160.9,142.1,162.6z"/>
		<path class="apis71" d="M141.7,162.7c-5.4,1.8-33.5,8.5-57.6,3.3c-24.2-5.2-41.8-10.9-36.4-12.7c5.4-1.8,34.2-4.6,58.4,0.6
			S147.1,160.9,141.7,162.7z"/>
		<path class="apis72" d="M141.4,162.7c-5.4,1.8-33.3,8.4-57.4,3.2c-24.1-5.2-41.6-10.9-36.3-12.6s34.1-4.5,58.1,0.7
			C130,159.1,146.8,161,141.4,162.7z"/>
		<path class="apis73" d="M141.1,162.8c-5.3,1.7-33.1,8.3-57.1,3.1c-24-5.2-41.5-10.8-36.1-12.6s33.9-4.5,57.9,0.7
			C129.7,159.2,146.4,161,141.1,162.8z"/>
		<path class="apis74" d="M140.7,162.8c-5.3,1.7-33,8.2-56.9,3.1s-41.3-10.8-36-12.5s33.7-4.4,57.6,0.7S146,161.1,140.7,162.8z"/>
		<path class="apis75" d="M140.4,162.8c-5.3,1.7-32.8,8.1-56.6,3s-41.1-10.8-35.8-12.5s33.6-4.4,57.4,0.8S145.7,161.1,140.4,162.8z"/>
		<path class="apis76" d="M140.1,162.9c-5.3,1.7-32.7,8.1-56.4,2.9c-23.7-5.1-41-10.7-35.7-12.4s33.4-4.3,57.1,0.8
			C128.8,159.3,145.3,161.1,140.1,162.9z"/>
		<path class="apis77" d="M139.7,162.9c-5.2,1.7-32.5,8-56.1,2.9c-23.6-5.1-40.8-10.7-35.6-12.4s33.2-4.3,56.8,0.8
			C128.5,159.3,145,161.2,139.7,162.9z"/>
		<path class="apis78" d="M139.4,162.9c-5.2,1.7-32.3,7.9-55.8,2.8c-23.5-5.1-40.6-10.6-35.4-12.3s33.1-4.2,56.6,0.9
			C128.2,159.4,144.6,161.2,139.4,162.9z"/>
		<path class="apis79" d="M139.1,163c-5.2,1.7-32.2,7.8-55.6,2.7S43,155.1,48.2,153.4s32.9-4.2,56.3,0.9
			C127.9,159.4,144.2,161.3,139.1,163z"/>
		<path class="apis80" d="M138.7,163c-5.2,1.7-32,7.7-55.3,2.7s-40.3-10.6-35.1-12.2s32.7-4.1,56,0.9S143.9,161.3,138.7,163z"/>
		<path class="apis81" d="M138.4,163c-5.1,1.7-31.9,7.6-55.1,2.6s-40.1-10.5-35-12.2c5.1-1.7,32.6-4.1,55.8,1S143.5,161.4,138.4,163z"
			/>
		<path class="apis82" d="M138.1,163.1c-5.1,1.6-31.7,7.6-54.8,2.5c-23.1-5-39.9-10.5-34.8-12.1c5.1-1.6,32.4-4,55.5,1
			C127,159.5,143.2,161.4,138.1,163.1z"/>
		<path class="apis83" d="M137.7,163.1c-5.1,1.6-31.5,7.5-54.6,2.5c-23-5-39.8-10.5-34.7-12.1c5.1-1.6,32.2-4,55.3,1.1
			C126.7,159.6,142.8,161.5,137.7,163.1z"/>
		<path class="apis84" d="M137.4,163.2c-5,1.6-31.4,7.4-54.3,2.4s-39.6-10.4-34.5-12c5-1.6,32.1-3.9,55,1.1S142.4,161.5,137.4,163.2z"
			/>
		<path class="apis85" d="M137,163.2c-5,1.6-31.2,7.3-54.1,2.3s-39.4-10.4-34.4-12s31.9-3.8,54.7,1.1S142.1,161.6,137,163.2z"/>
		<path class="apis86" d="M136.7,163.2c-5,1.6-31.1,7.2-53.8,2.3s-39.3-10.3-34.3-11.9s31.7-3.8,54.5,1.2S141.7,161.6,136.7,163.2z"/>
		<path class="apis87" d="M136.4,163.3c-5,1.6-30.9,7.1-53.5,2.2c-22.6-4.9-39.1-10.3-34.1-11.9s31.6-3.7,54.2,1.2
			S141.3,161.7,136.4,163.3z"/>
		<path class="apis88" d="M136,163.3c-4.9,1.6-30.7,7.1-53.3,2.1c-22.5-4.9-38.9-10.3-34-11.8s31.4-3.7,54,1.2
			C125.3,159.8,141,161.7,136,163.3z"/>
		<path class="apis89" d="M135.7,163.3c-4.9,1.6-30.6,7-53,2.1c-22.4-4.9-38.7-10.2-33.8-11.8c4.9-1.6,31.2-3.6,53.7,1.3
			C125,159.8,140.6,161.8,135.7,163.3z"/>
		<path class="apis90" d="M135.4,163.4c-4.9,1.6-30.4,6.9-52.8,2S44,155.2,48.9,153.7c4.9-1.6,31.1-3.6,53.4,1.3
			S140.3,161.8,135.4,163.4z"/>
		<path class="apis91" d="M135,163.4c-4.9,1.5-30.3,6.8-52.5,1.9S44.1,155.2,49,153.7c4.9-1.5,30.9-3.5,53.2,1.3
			S139.9,161.9,135,163.4z"/>
		<path class="apis92" d="M134.7,163.5c-4.8,1.5-30.1,6.7-52.3,1.9c-22.2-4.9-38.2-10.1-33.4-11.6s30.7-3.5,52.9,1.4
			C124.1,159.9,139.5,161.9,134.7,163.5z"/>
		<path class="apis93" d="M134.4,163.5c-4.8,1.5-29.9,6.6-52,1.8c-22.1-4.8-38.1-10.1-33.3-11.6c4.8-1.5,30.6-3.4,52.6,1.4
			S139.2,162,134.4,163.5z"/>
		<path class="apis94" d="M134,163.5c-4.8,1.5-29.8,6.6-51.8,1.7c-22-4.8-37.9-10-33.1-11.5c4.8-1.5,30.4-3.4,52.4,1.4
			C123.5,160,138.8,162,134,163.5z"/>
		<path class="apis95" d="M133.7,163.6c-4.7,1.5-29.6,6.5-51.5,1.7s-37.7-10-33-11.5c4.7-1.5,30.2-3.3,52.1,1.5
			S138.4,162.1,133.7,163.6z"/>
		<path class="apis96" d="M133.4,163.6c-4.7,1.5-29.5,6.4-51.2,1.6c-21.8-4.8-37.5-9.9-32.8-11.4c4.7-1.5,30.1-3.3,51.9,1.5
			S138.1,162.1,133.4,163.6z"/>
		<path class="apis97" d="M133,163.6c-4.7,1.5-29.3,6.3-51,1.5s-37.4-9.9-32.7-11.4s29.9-3.2,51.6,1.5
			C122.6,160.1,137.7,162.2,133,163.6z"/>
		<path class="apis98" d="M132.7,163.7c-4.7,1.5-29.1,6.2-50.7,1.5c-21.6-4.8-37.2-9.9-32.5-11.3s29.7-3.2,51.3,1.6
			C122.3,160.2,137.4,162.2,132.7,163.7z"/>
		<path class="apis99" d="M132.4,163.7c-4.6,1.5-29,6.1-50.5,1.4c-21.5-4.7-37-9.8-32.4-11.3s29.6-3.1,51.1,1.6S137,162.3,132.4,163.7
			z"/>
		<path class="apis100" d="M132,163.8c-4.6,1.4-28.8,6.1-50.2,1.3s-36.9-9.8-32.2-11.2s29.4-3.1,50.8,1.7S136.6,162.3,132,163.8z"/>
		<path class="apis101" d="M131.7,163.8c-4.6,1.4-28.7,6-50,1.3s-36.7-9.7-32.1-11.2c4.6-1.4,29.2-3,50.5,1.7
			C121.5,160.3,136.3,162.4,131.7,163.8z"/>
		<path class="apis102" d="M131.4,163.8c-4.6,1.4-28.5,5.9-49.7,1.2s-36.5-9.7-32-11.1c4.6-1.4,29.1-3,50.3,1.7
			S135.9,162.4,131.4,163.8z"/>
		<path class="apis103" d="M131,163.9c-4.5,1.4-28.3,5.8-49.5,1.1c-21.1-4.7-36.3-9.7-31.8-11.1c4.5-1.4,28.9-2.9,50,1.8
			C120.9,160.4,135.6,162.5,131,163.9z"/>
		<path class="apis104" d="M130.7,163.9c-4.5,1.4-28.2,5.7-49.2,1.1s-36.2-9.6-31.7-11c4.5-1.4,28.8-2.9,49.8,1.8
			C120.6,160.4,135.2,162.5,130.7,163.9z"/>
		<path class="apis105" d="M130.4,163.9c-4.5,1.4-28,5.6-48.9,1c-20.9-4.6-36-9.6-31.5-11s28.6-2.8,49.5,1.8S134.8,162.6,130.4,163.9z
			"/>
		<path class="apis106" d="M130,164c-4.4,1.4-27.9,5.5-48.7,0.9S45.5,155.4,50,154s28.4-2.8,49.2,1.9S134.5,162.6,130,164z"/>
		<path class="apis107" d="M129.7,164c-4.4,1.4-27.7,5.5-48.4,0.9c-20.7-4.6-35.7-9.5-31.2-10.9s28.3-2.7,49,1.9
			C119.7,160.5,134.1,162.7,129.7,164z"/>
		<path class="apis108" d="M129.3,164.1c-4.4,1.4-27.5,5.4-48.2,0.8c-20.6-4.6-35.5-9.5-31.1-10.8s28.1-2.7,48.7,1.9
			C119.4,160.6,133.7,162.7,129.3,164.1z"/>
		<path class="apis109" d="M129,164.1c-4.4,1.3-27.4,5.3-47.9,0.7c-20.5-4.6-35.3-9.4-30.9-10.8s27.9-2.6,48.4,2
			S133.4,162.8,129,164.1z"/>
		<path class="apis110" d="M128.7,164.1c-4.3,1.3-27.2,5.2-47.7,0.7c-20.4-4.6-35.1-9.4-30.8-10.7s27.8-2.5,48.2,2
			C118.8,160.6,133,162.8,128.7,164.1z"/>
		<path class="apis111" d="M128.3,164.2c-4.3,1.3-27.1,5.1-47.4,0.6s-35-9.3-30.7-10.7s27.6-2.5,47.9,2S132.7,162.8,128.3,164.2z"/>
		<path class="apis112" d="M128,164.2c-4.3,1.3-26.9,5-47.1,0.5c-20.2-4.5-34.8-9.3-30.5-10.6s27.4-2.4,47.7,2.1
			S132.3,162.9,128,164.2z"/>
		<path class="apis113" d="M127.7,164.2c-4.3,1.3-26.7,5-46.9,0.5s-34.6-9.3-30.4-10.6c4.3-1.3,27.3-2.4,47.4,2.1
			C118,160.8,131.9,162.9,127.7,164.2z"/>
		<path class="apis114" d="M127.3,164.3c-4.2,1.3-26.6,4.9-46.6,0.4c-20-4.5-34.5-9.2-30.2-10.5c4.2-1.3,27.1-2.3,47.1,2.2
			C117.7,160.8,131.6,163,127.3,164.3z"/>
		<path class="apis115" d="M127,164.3c-4.2,1.3-26.4,4.8-46.4,0.3s-34.3-9.2-30.1-10.5c4.2-1.3,26.9-2.3,46.9,2.2S131.2,163,127,164.3
			z"/>
		<path class="apis116" d="M126.7,164.4c-4.2,1.3-26.3,4.7-46.1,0.3s-34.1-9.1-29.9-10.4c4.2-1.3,26.8-2.2,46.6,2.2
			S130.8,163.1,126.7,164.4z"/>
		<path class="apis117" d="M126.3,164.4c-4.1,1.3-26.1,4.6-45.9,0.2s-33.9-9.1-29.8-10.3s26.6-2.2,46.4,2.3
			C116.8,160.9,130.5,163.1,126.3,164.4z"/>
		<path class="apis118" d="M126,164.4c-4.1,1.2-25.9,4.5-45.6,0.1s-33.8-9.1-29.6-10.3s26.4-2.1,46.1,2.3S130.1,163.2,126,164.4z"/>
		<path class="apis119" d="M125.7,164.5c-4.1,1.2-25.8,4.5-45.4,0.1c-19.6-4.4-33.6-9-29.5-10.2s26.3-2.1,45.8,2.3
			C116.2,161,129.8,163.2,125.7,164.5z"/>
		<path class="apis120" d="M125.3,164.5c-4.1,1.2-25.6,4.4-45.1,0s-33.4-9-29.4-10.2s26.1-2,45.6,2.4
			C115.9,161.1,129.4,163.3,125.3,164.5z"/>
		<path class="apis121" d="M125,164.5c-4,1.2-25.5,4.3-44.8-0.1c-19.4-4.4-33.3-8.9-29.2-10.1c4-1.2,25.9-2,45.3,2.4
			S129,163.3,125,164.5z"/>
		<path class="apis122" d="M124.7,164.6c-4,1.2-25.3,4.2-44.6-0.1S47,155.5,51,154.3c4-1.2,25.8-1.9,45,2.4S128.7,163.4,124.7,164.6z"
			/>
		<path class="apis123" d="M124.3,164.6c-4,1.2-25.1,4.1-44.3-0.2c-19.2-4.3-32.9-8.9-28.9-10c4-1.2,25.6-1.9,44.8,2.5
			C115,161.2,128.3,163.4,124.3,164.6z"/>
		<path class="apis124" d="M124,164.7c-4,1.2-25,4-44.1-0.3c-19.1-4.3-32.7-8.8-28.8-10c4-1.2,25.4-1.8,44.5,2.5
			C114.7,161.2,128,163.5,124,164.7z"/>
		<path class="apis125" d="M123.7,164.7c-3.9,1.2-24.8,4-43.8-0.3c-19-4.3-32.6-8.8-28.6-9.9c3.9-1.2,25.3-1.8,44.3,2.5
			S127.6,163.5,123.7,164.7z"/>
		<path class="apis126" d="M123.3,164.7c-3.9,1.1-24.7,3.9-43.6-0.4s-32.4-8.7-28.5-9.9c3.9-1.1,25.1-1.7,44,2.6
			C114.2,161.3,127.2,163.6,123.3,164.7z"/>
		<path class="apis127" d="M123,164.8c-3.9,1.1-24.5,3.8-43.3-0.5s-32.2-8.7-28.3-9.8c3.9-1.1,24.9-1.7,43.7,2.6
			S126.9,163.6,123,164.8z"/>
		<path class="apis128" d="M122.7,164.8c-3.9,1.1-24.4,3.7-43.1-0.5c-18.7-4.3-32.1-8.7-28.2-9.8c3.9-1.1,24.8-1.6,43.5,2.7
			S126.5,163.7,122.7,164.8z"/>
		<path class="apis129" d="M122.3,164.8c-3.8,1.1-24.2,3.6-42.8-0.6c-18.6-4.2-31.9-8.6-28.1-9.7s24.6-1.6,43.2,2.7
			C113.3,161.4,126.1,163.7,122.3,164.8z"/>
		<path class="apis130" d="M122,164.9c-3.8,1.1-24,3.5-42.5-0.7c-18.5-4.2-31.7-8.6-27.9-9.7c3.8-1.1,24.4-1.5,42.9,2.7
			C113,161.5,125.8,163.8,122,164.9z"/>
		<path class="apis131" d="M121.6,164.9c-3.8,1.1-23.9,3.5-42.3-0.7s-31.5-8.5-27.8-9.6s24.3-1.5,42.7,2.8S125.4,163.8,121.6,164.9z"
			/>
		<path class="apis132" d="M121.3,165c-3.7,1.1-23.7,3.4-42-0.8s-31.4-8.5-27.6-9.6s24.1-1.4,42.4,2.8S125.1,163.9,121.3,165z"/>
		<path class="apis133" d="M121,165c-3.7,1.1-23.6,3.3-41.8-0.9c-18.2-4.2-31.2-8.5-27.5-9.5c3.7-1.1,23.9-1.3,42.2,2.8
			C112.1,161.6,124.7,163.9,121,165z"/>
		<path class="apis134" d="M120.6,165c-3.7,1.1-23.4,3.2-41.5-0.9c-18.1-4.2-31-8.4-27.3-9.5c3.7-1.1,23.8-1.3,41.9,2.9
			S124.3,164,120.6,165z"/>
		<path class="apis135" d="M120.3,165.1c-3.7,1-23.2,3.1-41.3-1c-18-4.1-30.9-8.4-27.2-9.4c3.7-1,23.6-1.2,41.6,2.9
			C111.5,161.7,124,164,120.3,165.1z"/>
		<path class="apis136" d="M120,165.1c-3.6,1-23.1,3-41-1.1s-30.7-8.3-27.1-9.4c3.6-1,23.4-1.2,41.4,2.9
			C111.2,161.7,123.6,164.1,120,165.1z"/>
		<path class="apis137" d="M119.6,165.1c-3.6,1-22.9,3-40.8-1.1s-30.5-8.3-26.9-9.3c3.6-1,23.3-1.1,41.1,3S123.2,164.1,119.6,165.1z"
			/>
		<path class="apis138" d="M119.3,165.2c-3.6,1-22.8,2.9-40.5-1.2s-30.3-8.3-26.8-9.3c3.6-1,23.1-1.1,40.8,3S122.9,164.2,119.3,165.2z
			"/>
		<path class="apis139" d="M119,165.2c-3.6,1-22.6,2.8-40.2-1.3c-17.6-4.1-30.2-8.2-26.6-9.2s22.9-1,40.6,3
			C110.3,161.8,122.5,164.2,119,165.2z"/>
		<path class="apis140" d="M118.6,165.2c-3.5,1-22.4,2.7-40-1.4c-17.6-4.1-30-8.2-26.5-9.2s22.8-1,40.3,3.1S122.2,164.3,118.6,165.2z"
			/>
		<path class="apis141" d="M118.3,165.3c-3.5,1-22.3,2.6-39.7-1.4s-29.8-8.1-26.3-9.1s22.6-0.9,40.1,3.1S121.8,164.3,118.3,165.3z"/>
		<path class="apis142" d="M118,165.3c-3.5,1-22.1,2.5-39.5-1.5s-29.7-8.1-26.2-9.1c3.5-1,22.4-0.9,39.8,3.1S121.4,164.4,118,165.3z"
			/>
		<path class="apis142" d="M117.6,165.4c-3.4,1-22,2.5-39.2-1.6s-29.5-8.1-26-9c3.4-1,22.3-0.8,39.5,3.2S121.1,164.4,117.6,165.4z"/>
		<path class="apis143" d="M117.3,165.4c-3.4,0.9-21.8,2.4-39-1.6c-17.2-4-29.3-8-25.9-9s22.1-0.8,39.3,3.2
			C108.9,162,120.7,164.5,117.3,165.4z"/>
		<path class="apis144" d="M117,165.4c-3.4,0.9-21.6,2.3-38.7-1.7s-29.1-8-25.8-8.9s21.9-0.7,39,3.3
			C108.6,162.1,120.4,164.5,117,165.4z"/>
		<path class="apis145" d="M116.6,165.5c-3.4,0.9-21.5,2.2-38.4-1.8c-17-4-29-7.9-25.6-8.9c3.4-0.9,21.8-0.7,38.7,3.3
			S120,164.5,116.6,165.5z"/>
		<path class="apis146" d="M116.3,165.5c-3.3,0.9-21.3,2.1-38.2-1.8s-28.8-7.9-25.5-8.8c3.3-0.9,21.6-0.6,38.5,3.3
			S119.6,164.6,116.3,165.5z"/>
		<path class="apis147" d="M116,165.5c-3.3,0.9-21.2,2-37.9-1.9s-28.6-7.9-25.3-8.8c3.3-0.9,21.4-0.6,38.2,3.4
			C107.7,162.2,119.3,164.6,116,165.5z"/>
		<path class="apis148" d="M115.6,165.6c-3.3,0.9-21,2-37.7-2c-16.7-3.9-28.5-7.8-25.2-8.7c3.3-0.9,21.3-0.5,38,3.4
			C107.4,162.2,118.9,164.7,115.6,165.6z"/>
		<path class="apis149" d="M115.3,165.6c-3.3,0.9-20.8,1.9-37.4-2c-16.6-3.9-28.3-7.8-25-8.7c3.3-0.9,21.1-0.5,37.7,3.4
			C107.1,162.3,118.5,164.7,115.3,165.6z"/>
		<path class="apis150" d="M115,165.7c-3.2,0.9-20.7,1.8-37.2-2.1c-16.5-3.9-28.1-7.7-24.9-8.6c3.2-0.9,20.9-0.4,37.4,3.5
			C106.8,162.3,118.2,164.8,115,165.7z"/>
		<path class="apis150" d="M114.6,165.7c-3.2,0.9-20.5,1.7-36.9-2.2S49.8,155.8,53,155s20.8-0.4,37.2,3.5S117.8,164.8,114.6,165.7z"/>
		<path class="apis151" d="M114.3,165.7c-3.2,0.8-20.4,1.6-36.7-2.2c-16.3-3.8-27.8-7.7-24.6-8.5s20.6-0.3,36.9,3.5
			S117.5,164.9,114.3,165.7z"/>
		<path class="apis151" d="M113.9,165.8c-3.1,0.8-20.2,1.5-36.4-2.3s-27.6-7.6-24.5-8.5c3.1-0.8,20.4-0.3,36.7,3.6
			C106,162.4,117.1,164.9,113.9,165.8z"/>
		<path class="apis152" d="M113.6,165.8c-3.1,0.8-20,1.5-36.1-2.4c-16.1-3.8-27.4-7.6-24.3-8.4c3.1-0.8,20.3-0.2,36.4,3.6
			C105.7,162.5,116.7,165,113.6,165.8z"/>
		<path class="apis153" d="M113.3,165.8c-3.1,0.8-19.9,1.4-35.9-2.4s-27.3-7.5-24.2-8.4c3.1-0.8,20.1-0.1,36.1,3.6
			S116.4,165,113.3,165.8z"/>
		<path class="apis154" d="M112.9,165.9c-3.1,0.8-19.7,1.3-35.6-2.5s-27.1-7.5-24-8.3c3.1-0.8,19.9-0.1,35.9,3.7
			S116,165.1,112.9,165.9z"/>
		<path class="apis155" d="M112.6,165.9c-3,0.8-19.6,1.2-35.4-2.6s-26.9-7.5-23.9-8.3c3-0.8,19.8,0,35.6,3.7S115.6,165.1,112.6,165.9z
			"/>
		<path class="apis156" d="M112.3,166c-3,0.8-19.4,1.1-35.1-2.6s-26.7-7.4-23.7-8.2c3-0.8,19.6,0,35.3,3.8S115.3,165.2,112.3,166z"/>
		<path class="apis157" d="M111.9,166c-3,0.8-19.2,1-34.9-2.7c-15.6-3.7-26.6-7.4-23.6-8.2c3-0.8,19.4,0.1,35.1,3.8
			C104.2,162.7,114.9,165.2,111.9,166z"/>
		<path class="apis158" d="M111.6,166c-3,0.8-19.1,1-34.6-2.8s-26.4-7.3-23.4-8.1c3-0.8,19.3,0.1,34.8,3.8
			C103.9,162.7,114.6,165.3,111.6,166z"/>
		<path class="apis159" d="M111.3,166.1c-2.9,0.7-18.9,0.9-34.4-2.8c-15.4-3.7-26.2-7.3-23.3-8.1c2.9-0.7,19.1,0.2,34.6,3.9
			S114.2,165.3,111.3,166.1z"/>
		<path class="apis159" d="M110.9,166.1c-2.9,0.7-18.8,0.8-34.1-2.9s-26.1-7.3-23.2-8c2.9-0.7,18.9,0.2,34.3,3.9
			S113.8,165.4,110.9,166.1z"/>
		<path class="apis160" d="M110.6,166.1c-2.9,0.7-18.6,0.7-33.8-3c-15.2-3.7-25.9-7.2-23-7.9s18.8,0.3,34,3.9
			C103,162.8,113.5,165.4,110.6,166.1z"/>
		<path class="apis160" d="M110.3,166.2c-2.8,0.7-18.4,0.6-33.6-3c-15.2-3.6-25.7-7.2-22.9-7.9s18.6,0.3,33.8,4
			C102.7,162.9,113.1,165.5,110.3,166.2z"/>
		<path class="apis161" d="M109.9,166.2c-2.8,0.7-18.3,0.5-33.3-3.1c-15.1-3.6-25.5-7.2-22.7-7.8c2.8-0.7,18.5,0.4,33.5,4
			C102.4,162.9,112.8,165.5,109.9,166.2z"/>
		<path class="apis161" d="M109.6,166.3c-2.8,0.7-18.1,0.5-33.1-3.2c-15-3.6-25.4-7.1-22.6-7.8c2.8-0.7,18.3,0.4,33.2,4
			C102.1,162.9,112.4,165.6,109.6,166.3z"/>
		<path class="apis162" d="M109.3,166.3c-2.8,0.7-18,0.4-32.8-3.2S51.2,156,54,155.3c2.8-0.7,18.1,0.5,33,4.1S112,165.6,109.3,166.3z"
			/>
		<path class="apis163" d="M108.9,166.3c-2.7,0.7-17.8,0.3-32.6-3.3c-14.8-3.6-25-7-22.3-7.7c2.7-0.7,18,0.5,32.7,4.1
			S111.7,165.7,108.9,166.3z"/>
		<path class="apis164" d="M108.6,166.4c-2.7,0.7-17.6,0.2-32.3-3.4s-24.9-7-22.1-7.6c2.7-0.7,17.8,0.6,32.5,4.1
			C101.3,163.1,111.3,165.7,108.6,166.4z"/>
		<path class="apis165" d="M108.3,166.4c-2.7,0.6-17.5,0.1-32-3.4c-14.6-3.5-24.7-7-22-7.6c2.7-0.6,17.6,0.6,32.2,4.2
			C101,163.1,110.9,165.8,108.3,166.4z"/>
		<path class="apis166" d="M107.9,166.4c-2.7,0.6-17.3,0-31.8-3.5s-24.5-6.9-21.9-7.5s17.5,0.7,31.9,4.2S110.6,165.8,107.9,166.4z"/>
		<path class="apis167" d="M107.6,166.5c-2.6,0.6-17.2,0-31.5-3.6s-24.3-6.9-21.7-7.5s17.3,0.7,31.7,4.2S110.2,165.9,107.6,166.5z"/>
		<path class="apis167" d="M107.3,166.5c-2.6,0.6-17-0.1-31.3-3.6s-24.2-6.8-21.6-7.4c2.6-0.6,17.1,0.8,31.4,4.3
			S109.9,165.9,107.3,166.5z"/>
		<path class="apis168" d="M106.9,166.6c-2.6,0.6-16.8-0.2-31-3.7c-14.2-3.5-24-6.8-21.4-7.4c2.6-0.6,17,0.8,31.1,4.3
			S109.5,166,106.9,166.6z"/>
		<path class="apis168" d="M106.6,166.6c-2.5,0.6-16.7-0.3-30.8-3.8c-14.1-3.5-23.8-6.8-21.3-7.3s16.8,0.9,30.9,4.4
			C99.5,163.3,109.1,166,106.6,166.6z"/>
		<path class="apis169" d="M106.2,166.6c-2.5,0.6-16.5-0.4-30.5-3.8s-23.7-6.7-21.1-7.3s16.6,0.9,30.6,4.4
			C99.2,163.4,108.8,166.1,106.2,166.6z"/>
		<path class="apis170" d="M105.9,166.7c-2.5,0.6-16.4-0.5-30.3-3.9c-13.9-3.4-23.5-6.7-21-7.2c2.5-0.6,16.5,1,30.4,4.4
			S108.4,166.1,105.9,166.7z"/>
		<path class="apis171" d="M105.6,166.7c-2.5,0.5-16.2-0.5-30-4s-23.3-6.6-20.9-7.2c2.5-0.5,16.3,1,30.1,4.5S108,166.2,105.6,166.7z"
			/>
		<path class="apis172" d="M105.2,166.7c-2.4,0.5-16-0.6-29.7-4c-13.7-3.4-23.1-6.6-20.7-7.1c2.4-0.5,16.1,1.1,29.8,4.5
			C98.3,163.5,107.7,166.2,105.2,166.7z"/>
		<path class="apis173" d="M104.9,166.8c-2.4,0.5-15.9-0.7-29.5-4.1c-13.6-3.4-23-6.6-20.6-7.1c2.4-0.5,16,1.2,29.6,4.5
			C98.1,163.5,107.3,166.2,104.9,166.8z"/>
		<path class="apis174" d="M104.6,166.8c-2.4,0.5-15.7-0.8-29.2-4.2c-13.5-3.4-22.8-6.5-20.4-7s15.8,1.2,29.3,4.6
			C97.8,163.6,107,166.3,104.6,166.8z"/>
		<path class="apis174" d="M104.2,166.9c-2.4,0.5-15.6-0.9-29-4.2s-22.6-6.5-20.3-7c2.4-0.5,15.6,1.3,29.1,4.6
			C97.5,163.6,106.6,166.3,104.2,166.9z"/>
		<path class="apis175" d="M103.9,166.9c-2.3,0.5-15.4-1-28.7-4.3s-22.5-6.4-20.1-6.9c2.3-0.5,15.5,1.3,28.8,4.6
			S106.2,166.4,103.9,166.9z"/>
		<path class="apis175" d="M103.6,166.9c-2.3,0.5-15.2-1-28.5-4.4c-13.2-3.3-22.3-6.4-20-6.9s15.3,1.4,28.5,4.7
			S105.9,166.4,103.6,166.9z"/>
		<path class="apis176" d="M103.2,167c-2.3,0.5-15.1-1.1-28.2-4.4c-13.1-3.3-22.1-6.4-19.8-6.8s15.1,1.4,28.3,4.7
			C96.6,163.7,105.5,166.5,103.2,167z"/>
		<path class="apis177" d="M102.9,167c-2.3,0.5-14.9-1.2-28-4.5c-13-3.3-21.9-6.3-19.7-6.8c2.3-0.5,15,1.5,28,4.7
			S105.2,166.5,102.9,167z"/>
		<path class="apis178" d="M102.6,167c-2.2,0.4-14.8-1.3-27.7-4.6s-21.8-6.3-19.6-6.7c2.2-0.4,14.8,1.5,27.7,4.8
			S104.8,166.6,102.6,167z"/>
		<path class="apis179" d="M102.2,167.1c-2.2,0.4-14.6-1.4-27.4-4.6s-21.6-6.2-19.4-6.7c2.2-0.4,14.6,1.6,27.5,4.8
			C95.7,163.8,104.4,166.6,102.2,167.1z"/>
		<path class="apis180" d="M101.9,167.1c-2.2,0.4-14.4-1.5-27.2-4.7s-21.4-6.2-19.3-6.6c2.2-0.4,14.5,1.6,27.2,4.9
			S104.1,166.7,101.9,167.1z"/>
		<path class="apis181" d="M101.6,167.1c-2.1,0.4-14.3-1.5-26.9-4.8c-12.7-3.2-21.3-6.2-19.1-6.6c2.1-0.4,14.3,1.7,27,4.9
			C95.1,163.9,103.7,166.7,101.6,167.1z"/>
		<path class="apis182" d="M101.2,167.2c-2.1,0.4-14.1-1.6-26.7-4.8c-12.6-3.2-21.1-6.1-19-6.5c2.1-0.4,14.1,1.7,26.7,4.9
			C94.8,164,103.3,166.8,101.2,167.2z"/>
		<path class="apis183" d="M100.9,167.2c-2.1,0.4-14-1.7-26.4-4.9s-20.9-6.1-18.8-6.5c2.1-0.4,14,1.8,26.4,5S103,166.8,100.9,167.2z"
			/>
		<path class="apis183" d="M100.6,167.3c-2.1,0.4-13.8-1.8-26.2-5s-20.7-6-18.7-6.4c2.1-0.4,13.8,1.8,26.2,5S102.6,166.9,100.6,167.3z
			"/>
		
			<ellipse transform="matrix(0.2388 -0.9711 0.9711 0.2388 -97.5519 198.7552)" class="apis184" cx="78" cy="161.6" rx="1.5" ry="23.2"/>
	</g>
	<g>
		<path class="apis185" d="M143.9,140.8"/>
	</g>
	<g>
		<line class="apis3" x1="142.1" y1="154.5" x2="141.4" y2="154.8"/>
	</g>
	<g>
		
			<linearGradient id="APIS_ID_1_" gradientUnits="userSpaceOnUse" x1="-217.1151" y1="77.7872" x2="-148.2351" y2="37.8198" gradientTransform="matrix(0.9942 0.1408 -0.459 0.8885 333.6355 80.0388)">
			<stop  offset="0" style="stop-color:var(--vitamui-primary-900)"/>
			<stop  offset="1" style="stop-color:var(--vitamui-primary)"/>
		</linearGradient>
		<path class="apis186" d="M88.9,166.2L48,154.8c-4.7-1.2-6.8-6.6-4.4-11.1l40.5-73.5c2.2-4.1,7.2-7.3,12.2-7.6l50.1-4.5
			c8.2,0.5,11,6.2,8.3,11.3L107.2,159c-2.6,4.9-8,7.5-14.2,7.7C92.4,166.7,89.4,166.3,88.9,166.2z"/>
		
			<linearGradient id="APIS_ID_2_" gradientUnits="userSpaceOnUse" x1="-227.7159" y1="137.2031" x2="-186.7959" y2="-5.4636" gradientTransform="matrix(0.9942 0.1408 -0.459 0.8885 333.6355 80.0388)">
			<stop  offset="0" style="stop-color:var(--vitamui-primary-900)"/>
			<stop  offset="3.934753e-02" style="stop-color:var(--vitamui-primary-800)"/>
			<stop  offset="0.1654" style="stop-color:var(--vitamui-primary-700)"/>
			<stop  offset="0.2899" style="stop-color:var(--vitamui-primary-600)"/>
			<stop  offset="0.4107" style="stop-color:var(--vitamui-primary)"/>
			<stop  offset="0.5264" style="stop-color:var(--vitamui-primary)"/>
			<stop  offset="0.6312" style="stop-color:var(--vitamui-primary)"/>
			<stop  offset="0.6963" style="stop-color:var(--vitamui-primary)"/>
			<stop  offset="0.7969" style="stop-color:var(--vitamui-primary-400)"/>
			<stop  offset="0.92" style="stop-color:var(--vitamui-primary-300)"/>
			<stop  offset="1" style="stop-color:var(--vitamui-primary-300)"/>
		</linearGradient>
		<path class="apis187" d="M90.6,164.1l-42.5-11.2c-4.7-1.3-6.4-5.5-4.1-10l38.3-74.1c2.1-4.1,7.1-7.2,12-7.5l50.9-3.3
			c6.9-0.5,10.7,4.6,7.8,10.3l-46.6,88.6C103.5,162.2,96.2,165.6,90.6,164.1z"/>
		<path class="apis188" d="M151.4,68.6l-44.3,85.8C107.1,154.4,122.1,118.5,151.4,68.6z"/>
	</g>
	<linearGradient id="APIS_ID_3_" gradientUnits="userSpaceOnUse" x1="121.799" y1="151.3537" x2="110.8183" y2="129.3923">
		<stop  offset="0.1449" style="stop-color:#E5E4E4"/>
		<stop  offset="0.4735" style="stop-color:#9B9A9B"/>
		<stop  offset="0.7896" style="stop-color:#BCB9BA"/>
	</linearGradient>
	<path class="apis189" d="M91.9,64.7l56.7-3.2l-48.8,97.7c0,0-52.2-11.9-51.6-11.8C48.8,147.6,91.9,64.7,91.9,64.7z"/>
	<linearGradient id="APIS_ID_4_" gradientUnits="userSpaceOnUse" x1="124.2836" y1="138.8206" x2="115.4377" y2="127.1644">
		<stop  offset="0.1449" style="stop-color:#E5E4E4"/>
		<stop  offset="0.7896" style="stop-color:#9B9A9B"/>
	</linearGradient>
	<path class="apis190" d="M47.6,146.9c-0.4-0.1,16,3.9,30.4,7.2c11.2,2.6,20-4.3,20-4.3s4-1.5,9.9-8.4L148,60.9L47.6,146.9z"/>
	<path class="apis52" d="M47.6,146.6c-0.4-0.1,16,3.9,30.4,7.2c11.2,2.6,16.8-8.1,16.8-8.1s7.1,2.4,13.1-4.6L148,60.6L47.6,146.6z"/>
	<linearGradient id="APIS_ID_5_" gradientUnits="userSpaceOnUse" x1="90.934" y1="81.3289" x2="129.9703" y2="208.4138">
		<stop  offset="0" style="stop-color:#F5F5F5"/>
		<stop  offset="0.7896" style="stop-color:#9B9A9B"/>
	</linearGradient>
	<path class="apis191" d="M107.9,140.8L148,60.6l-56.7,3.2c0,0-43.1,82.9-43.7,82.8c-0.4-0.1,16,3.6,30.4,6.9
		c11.2,2.6,16.8-8.1,16.8-8.1S102,147.8,107.9,140.8z"/>
	<polygon class="apis185" points="133.2,58.8 104.9,60.8 103.6,63.1 131.8,61.5 	"/>
	<path class="apis52" d="M100.9,68.8l26.6-0.8c0.6,0,1.1-0.3,1.3-0.8l2.9-5.7l-28.2,1.6l-3,5.1C100.4,68.5,100.6,68.8,100.9,68.8z"/>
	<g>
		
			<linearGradient id="APIS_ID_6_" gradientUnits="userSpaceOnUse" x1="252.4503" y1="111.0374" x2="255.6544" y2="99.8664" gradientTransform="matrix(0.976 -0.2181 0.2473 1.0909 -153.2714 -3.1273)">
			<stop  offset="0" style="stop-color:#000000"/>
			<stop  offset="8.721441e-02" style="stop-color:#1D1D1D"/>
			<stop  offset="0.249" style="stop-color:#4D4C4C"/>
			<stop  offset="0.4103" style="stop-color:#757374"/>
			<stop  offset="0.5679" style="stop-color:#949293"/>
			<stop  offset="0.721" style="stop-color:#AAA8A9"/>
			<stop  offset="0.8674" style="stop-color:#B7B5B6"/>
			<stop  offset="1" style="stop-color:#BCB9BA"/>
		</linearGradient>
		<path class="apis192" d="M128.6,54.4c0.6,2.7-2.5,5.6-6.8,6.7c-4.4,1-8.4-0.3-8.9-3c-0.6-2.7,2.5-5.6,6.8-6.7
			C124.1,50.3,128.1,51.7,128.6,54.4z"/>
		
			<linearGradient id="APIS_ID_7_" gradientUnits="userSpaceOnUse" x1="123.2213" y1="94.7301" x2="136.4189" y2="108.1677" gradientTransform="matrix(1.0365 1.189833e-02 1.189833e-02 1.0867 -16.1454 -57.881)">
			<stop  offset="0" style="stop-color:#000000"/>
			<stop  offset="8.721441e-02" style="stop-color:#1D1D1D"/>
			<stop  offset="0.249" style="stop-color:#4D4C4C"/>
			<stop  offset="0.4103" style="stop-color:#757374"/>
			<stop  offset="0.5679" style="stop-color:#949293"/>
			<stop  offset="0.721" style="stop-color:#AAA8A9"/>
			<stop  offset="0.8674" style="stop-color:#B7B5B6"/>
			<stop  offset="1" style="stop-color:#BCB9BA"/>
		</linearGradient>
		<path class="apis193" d="M127.1,53.7c0.4,1.9-2,4.2-5.5,5c-3.5,0.8-6.7-0.2-7.1-2.1c-0.4-1.9,2-4.2,5.5-5
			C123.5,50.8,126.7,51.8,127.1,53.7z"/>
		<linearGradient id="APIS_ID_8_" gradientUnits="userSpaceOnUse" x1="125.044" y1="60.3211" x2="115.0489" y2="48.1775">
			<stop  offset="0" style="stop-color:#000000"/>
			<stop  offset="8.721441e-02" style="stop-color:#1D1D1D"/>
			<stop  offset="0.249" style="stop-color:#4D4C4C"/>
			<stop  offset="0.4103" style="stop-color:#757374"/>
			<stop  offset="0.5679" style="stop-color:#949293"/>
			<stop  offset="0.721" style="stop-color:#AAA8A9"/>
			<stop  offset="0.8674" style="stop-color:#B7B5B6"/>
			<stop  offset="1" style="stop-color:#BCB9BA"/>
		</linearGradient>
		<path class="apis194" d="M125.7,54.1c0.3,1.5-1.6,3.2-4.3,3.8s-5.1-0.1-5.5-1.6c-0.3-1.5,1.6-3.2,4.3-3.8S125.3,52.6,125.7,54.1z"/>
		
			<ellipse transform="matrix(0.9756 -0.2196 0.2196 0.9756 -9.1637 27.8764)" class="apis195" cx="120.8" cy="55.2" rx="4.3" ry="2.3"/>
		<path class="apis196" d="M113.5,59.1c1.7,1.5,5.1,2,8.7,1.1c2.1-0.5,3.9-1.3,5.2-2.3L113.5,59.1z"/>
		<polygon class="apis197" points="132.1,58.1 133.2,58.8 132.2,58.9 		"/>
		<path class="apis198" d="M96.6,62.4"/>
		<linearGradient id="APIS_ID_9_" gradientUnits="userSpaceOnUse" x1="116.6883" y1="69.9914" x2="114.4503" y2="39.6177">
			<stop  offset="0" style="stop-color:#000000"/>
			<stop  offset="8.721441e-02" style="stop-color:#1D1D1D"/>
			<stop  offset="0.249" style="stop-color:#4D4C4C"/>
			<stop  offset="0.4103" style="stop-color:#757374"/>
			<stop  offset="0.5679" style="stop-color:#949293"/>
			<stop  offset="0.721" style="stop-color:#AAA8A9"/>
			<stop  offset="0.8674" style="stop-color:#B7B5B6"/>
			<stop  offset="1" style="stop-color:#BCB9BA"/>
		</linearGradient>
		<path class="apis199" d="M127.3,67.2l-26.8,0.8c-0.3,0-0.5-0.4-0.4-0.6l4-6.9c0.2-0.3,0.4-0.4,0.7-0.4l27-2c0.4,0,0.6,0.4,0.5,0.7
			l-4,7.9C128.1,66.9,127.7,67.2,127.3,67.2z"/>
		<rect x="111.7" y="58.9" class="apis195" width="0.5" height="0"/>
	</g>
	<g>
		<g>
			<path class="apis184" d="M136.6,75l-34.3,0.4c-0.3,0-0.4-0.2-0.2-0.5h0c0.2-0.3,0.5-0.5,0.8-0.5l34.4-0.6c0.4,0,0.5,0.3,0.3,0.6
				l0,0C137.4,74.7,137,75,136.6,75z"/>
			<path class="apis184" d="M134.7,78.6l-34.1,0.1c-0.3,0-0.4-0.2-0.2-0.5l0,0c0.2-0.3,0.5-0.5,0.8-0.5l34.2-0.2
				c0.4,0,0.5,0.3,0.3,0.6l0,0C135.5,78.3,135.1,78.6,134.7,78.6z"/>
			<path class="apis184" d="M132.8,82.1L99,81.8c-0.3,0-0.4-0.2-0.2-0.5l0,0c0.2-0.3,0.5-0.5,0.8-0.5l33.9,0.2c0.4,0,0.5,0.3,0.3,0.6
				v0C133.6,81.8,133.2,82.1,132.8,82.1z"/>
			<path class="apis195" d="M87.5,81.7l4.9,0c0.5,0,1.2-0.4,1.5-1l2.7-5.2c0.3-0.6,0.1-1-0.5-1l-5,0.1c-0.5,0-1.2,0.5-1.5,1L87,80.7
				C86.8,81.2,86.9,81.7,87.5,81.7z"/>
			
				<linearGradient id="APIS_ID_10_" gradientUnits="userSpaceOnUse" x1="-316.849" y1="-139.3715" x2="-305.7765" y2="-141.5083" gradientTransform="matrix(1 0 -0.4077 0.7784 344.9058 187.5013)">
				<stop  offset="0" style="stop-color:var(--vitamui-primary-900)"/>
				<stop  offset="3.934753e-02" style="stop-color:var(--vitamui-primary-800)"/>
				<stop  offset="0.1654" style="stop-color:var(--vitamui-primary-700)"/>
				<stop  offset="0.2899" style="stop-color:var(--vitamui-primary-600)"/>
				<stop  offset="0.4107" style="stop-color:var(--vitamui-primary)"/>
				<stop  offset="0.5264" style="stop-color:var(--vitamui-primary)"/>
				<stop  offset="0.6312" style="stop-color:var(--vitamui-primary)"/>
				<stop  offset="0.6963" style="stop-color:var(--vitamui-primary)"/>
				<stop  offset="0.7969" style="stop-color:var(--vitamui-primary-400)"/>
				<stop  offset="0.92" style="stop-color:var(--vitamui-primary-300)"/>
				<stop  offset="1" style="stop-color:var(--vitamui-primary-300)"/>
			</linearGradient>
			<path class="apis200" d="M95.6,75.5c0-0.4-0.5-0.7-1.1-0.3c-2,1.1-3.9,2.3-5.8,3.7c-0.2-0.4-0.4-0.8-0.6-1.1
				c-0.2-0.3-0.7-0.4-1.3,0c-0.5,0.4-0.9,1-0.7,1.3c0.3,0.6,0.7,1.2,1,1.8c0.2,0.3,0.7,0.4,1.3,0c1-0.8,2-1.5,3.1-2.2
				c0.5-0.3,1.1-0.7,1.6-1c0.1-0.1,0.3-0.2,0.4-0.2c0,0,0,0,0.1,0c0.1,0,0.1-0.1,0.2-0.1c0.3-0.2,0.6-0.3,0.8-0.5
				C95.1,76.6,95.6,76,95.6,75.5z"/>
		</g>
		<g>
			<path class="apis184" d="M127.3,92.2l-33.1-1.3c-0.3,0-0.4-0.3-0.2-0.5l0,0c0.1-0.3,0.5-0.5,0.8-0.5l33.2,1.2
				c0.3,0,0.5,0.3,0.3,0.6l0,0C128.1,92,127.7,92.3,127.3,92.2z"/>
			<path class="apis184" d="M125.5,95.7L92.6,94c-0.3,0-0.4-0.3-0.2-0.5l0,0c0.1-0.3,0.5-0.5,0.8-0.5l32.9,1.6c0.3,0,0.5,0.3,0.3,0.6
				l0,0C126.2,95.5,125.8,95.7,125.5,95.7z"/>
			<path class="apis184" d="M123.6,99.2l-32.6-2c-0.3,0-0.4-0.3-0.2-0.5l0,0c0.1-0.3,0.5-0.5,0.8-0.5l32.7,1.9c0.3,0,0.5,0.3,0.3,0.6
				l0,0C124.4,99,123.9,99.2,123.6,99.2z"/>
			<path class="apis195" d="M79.9,96.4l4.7,0.3c0.5,0,1.2-0.4,1.5-0.9l2.7-5.1c0.3-0.6,0.1-1-0.4-1l-4.8-0.2c-0.5,0-1.1,0.4-1.4,0.9
				l-2.6,5C79.2,95.9,79.4,96.4,79.9,96.4z"/>
			
				<linearGradient id="APIS_ID_11_" gradientUnits="userSpaceOnUse" x1="-316.631" y1="-120.2603" x2="-305.7767" y2="-122.355" gradientTransform="matrix(1 0 -0.4077 0.7784 344.9058 187.5013)">
				<stop  offset="0" style="stop-color:var(--vitamui-primary-900)"/>
				<stop  offset="3.934753e-02" style="stop-color:var(--vitamui-primary-800)"/>
				<stop  offset="0.1654" style="stop-color:var(--vitamui-primary-700)"/>
				<stop  offset="0.2899" style="stop-color:var(--vitamui-primary-600)"/>
				<stop  offset="0.4107" style="stop-color:var(--vitamui-primary)"/>
				<stop  offset="0.5264" style="stop-color:var(--vitamui-primary)"/>
				<stop  offset="0.6312" style="stop-color:var(--vitamui-primary)"/>
				<stop  offset="0.6963" style="stop-color:var(--vitamui-primary)"/>
				<stop  offset="0.7969" style="stop-color:var(--vitamui-primary-400)"/>
				<stop  offset="0.92" style="stop-color:var(--vitamui-primary-300)"/>
				<stop  offset="1" style="stop-color:var(--vitamui-primary-300)"/>
			</linearGradient>
			<path class="apis201" d="M87.8,90.6c0-0.4-0.5-0.7-1.1-0.4c-1.9,1-3.8,2.1-5.6,3.4c-0.2-0.4-0.4-0.8-0.6-1.2
				c-0.2-0.3-0.7-0.4-1.2-0.1c-0.5,0.3-0.9,1-0.7,1.3c0.3,0.6,0.6,1.3,0.9,1.9c0.2,0.3,0.7,0.5,1.2,0.1c1-0.7,2-1.4,3-2.1
				c0.5-0.3,1-0.6,1.6-0.9c0.1-0.1,0.3-0.1,0.4-0.2c0,0,0,0,0.1,0c0.1,0,0.1-0.1,0.2-0.1c0.3-0.1,0.5-0.3,0.8-0.4
				C87.3,91.7,87.8,91.1,87.8,90.6z"/>
		</g>
		<g>
			<path class="apis184" d="M118.2,109.2l-31.9-3.1c-0.3,0-0.4-0.3-0.2-0.6l0,0c0.1-0.3,0.5-0.5,0.8-0.5l32,2.9c0.3,0,0.5,0.3,0.3,0.6
				l0,0C119,109,118.6,109.2,118.2,109.2z"/>
			<path class="apis184" d="M116.4,112.6l-31.7-3.4c-0.3,0-0.4-0.3-0.2-0.6l0,0c0.1-0.3,0.5-0.5,0.8-0.5l31.8,3.3
				c0.3,0,0.5,0.3,0.3,0.6l0,0C117.1,112.4,116.7,112.6,116.4,112.6z"/>
			<path class="apis184" d="M114.5,116l-31.4-3.7c-0.3,0-0.4-0.3-0.2-0.6l0,0c0.1-0.3,0.5-0.5,0.7-0.5l31.5,3.6c0.3,0,0.5,0.3,0.3,0.6
				l0,0C115.3,115.8,114.9,116,114.5,116z"/>
			<path class="apis195" d="M72.4,110.9l4.6,0.5c0.5,0.1,1.1-0.3,1.4-0.9l2.6-5c0.3-0.5,0.1-1-0.4-1.1l-4.6-0.4
				c-0.5,0-1.1,0.4-1.4,0.9l-2.5,4.9C71.7,110.4,71.9,110.9,72.4,110.9z"/>
			
				<linearGradient id="APIS_ID_12_" gradientUnits="userSpaceOnUse" x1="-316.4173" y1="-101.4369" x2="-305.7759" y2="-103.4905" gradientTransform="matrix(1 0 -0.4077 0.7784 344.9058 187.5013)">
				<stop  offset="0" style="stop-color:var(--vitamui-primary-900)"/>
				<stop  offset="3.934753e-02" style="stop-color:var(--vitamui-primary-800)"/>
				<stop  offset="0.1654" style="stop-color:var(--vitamui-primary-700)"/>
				<stop  offset="0.2899" style="stop-color:var(--vitamui-primary-600)"/>
				<stop  offset="0.4107" style="stop-color:var(--vitamui-primary)"/>
				<stop  offset="0.5264" style="stop-color:var(--vitamui-primary)"/>
				<stop  offset="0.6312" style="stop-color:var(--vitamui-primary)"/>
				<stop  offset="0.6963" style="stop-color:var(--vitamui-primary)"/>
				<stop  offset="0.7969" style="stop-color:var(--vitamui-primary-400)"/>
				<stop  offset="0.92" style="stop-color:var(--vitamui-primary-300)"/>
				<stop  offset="1" style="stop-color:var(--vitamui-primary-300)"/>
			</linearGradient>
			<path class="apis202" d="M80.1,105.5c0-0.4-0.5-0.7-1-0.5c-1.9,0.9-3.7,1.9-5.5,3.2c-0.2-0.4-0.4-0.8-0.6-1.2
				c-0.2-0.4-0.7-0.5-1.2-0.1c-0.5,0.3-0.8,0.9-0.7,1.3c0.3,0.7,0.6,1.3,0.9,2c0.2,0.3,0.7,0.5,1.2,0.1c1-0.7,1.9-1.3,2.9-1.9
				c0.5-0.3,1-0.6,1.5-0.9c0.1-0.1,0.3-0.1,0.4-0.2c0,0,0,0,0.1,0c0.1,0,0.1-0.1,0.2-0.1c0.3-0.1,0.5-0.3,0.8-0.4
				C79.6,106.5,80.1,106,80.1,105.5z"/>
		</g>
		<g>
			<path class="apis184" d="M109.3,125.8l-30.8-4.7c-0.3,0-0.4-0.3-0.2-0.6l0,0c0.1-0.3,0.5-0.5,0.7-0.4l30.8,4.6
				c0.3,0,0.5,0.3,0.3,0.6l0,0C110,125.6,109.6,125.8,109.3,125.8z"/>
			<path class="apis184" d="M107.4,129.1l-30.5-5.1c-0.3,0-0.4-0.3-0.2-0.6l0,0c0.1-0.3,0.5-0.5,0.7-0.4l30.6,5
				c0.3,0.1,0.4,0.3,0.3,0.7l0,0C108.2,129,107.8,129.2,107.4,129.1z"/>
			<path class="apis184" d="M105.6,132.5l-30.3-5.4c-0.3,0-0.3-0.3-0.2-0.6l0,0c0.1-0.3,0.5-0.5,0.7-0.4l30.4,5.3
				c0.3,0.1,0.4,0.4,0.3,0.7h0C106.4,132.3,106,132.5,105.6,132.5z"/>
			<path class="apis195" d="M65,125.2l4.4,0.8c0.5,0.1,1.1-0.3,1.4-0.8l2.6-5c0.3-0.5,0.1-1-0.4-1.1l-4.5-0.7
				c-0.5-0.1-1.1,0.3-1.3,0.8l-2.5,4.9C64.4,124.7,64.5,125.2,65,125.2z"/>
			
				<linearGradient id="APIS_ID_13_" gradientUnits="userSpaceOnUse" x1="-316.2079" y1="-82.8948" x2="-305.7743" y2="-84.9083" gradientTransform="matrix(1 0 -0.4077 0.7784 344.9058 187.5013)">
				<stop  offset="0" style="stop-color:var(--vitamui-primary-900)"/>
				<stop  offset="3.934753e-02" style="stop-color:var(--vitamui-primary-800)"/>
				<stop  offset="0.1654" style="stop-color:var(--vitamui-primary-700)"/>
				<stop  offset="0.2899" style="stop-color:var(--vitamui-primary-600)"/>
				<stop  offset="0.4107" style="stop-color:var(--vitamui-primary)"/>
				<stop  offset="0.5264" style="stop-color:var(--vitamui-primary)"/>
				<stop  offset="0.6312" style="stop-color:var(--vitamui-primary)"/>
				<stop  offset="0.6963" style="stop-color:var(--vitamui-primary)"/>
				<stop  offset="0.7969" style="stop-color:var(--vitamui-primary-400)"/>
				<stop  offset="0.92" style="stop-color:var(--vitamui-primary-300)"/>
				<stop  offset="1" style="stop-color:var(--vitamui-primary-300)"/>
			</linearGradient>
			<path class="apis203" d="M72.5,120.1c0-0.4-0.4-0.8-1-0.5c-1.8,0.8-3.6,1.8-5.3,2.9c-0.2-0.4-0.4-0.8-0.5-1.3
				c-0.2-0.4-0.6-0.5-1.1-0.2c-0.5,0.3-0.8,0.9-0.7,1.3c0.3,0.7,0.6,1.3,0.8,2c0.1,0.4,0.7,0.6,1.2,0.2c0.9-0.6,1.9-1.3,2.9-1.8
				c0.5-0.3,1-0.5,1.5-0.8c0.1-0.1,0.3-0.1,0.4-0.2c0,0,0,0,0.1,0c0.1,0,0.1-0.1,0.2-0.1c0.3-0.1,0.5-0.2,0.8-0.3
				C72,121.1,72.5,120.6,72.5,120.1z"/>
		</g>
		<g>
			<path class="apis184" d="M100.4,142.1l-29.6-6.3c-0.3-0.1-0.3-0.3-0.2-0.6l0,0c0.1-0.3,0.5-0.5,0.7-0.4L101,141
				c0.3,0.1,0.4,0.4,0.3,0.7l0,0C101.1,142,100.8,142.2,100.4,142.1z"/>
			<path class="apis184" d="M98.7,145.4l-29.4-6.7c-0.2-0.1-0.3-0.3-0.2-0.6l0,0c0.1-0.3,0.5-0.4,0.7-0.4l29.5,6.6
				c0.3,0.1,0.4,0.4,0.3,0.7l0,0C99.4,145.3,99,145.5,98.7,145.4z"/>
			<path class="apis184" d="M93.2,147.8l-25.5-6.1c-0.2-0.1-0.3-0.3-0.2-0.6l0,0c0.1-0.3,0.5-0.4,0.7-0.4l25.7,6"/>
			<path class="apis195" d="M57.7,139.3l4.2,1c0.5,0.1,1.1-0.2,1.3-0.8l2.5-4.9c0.3-0.5,0.1-1-0.4-1.1l-4.3-0.9
				c-0.5-0.1-1,0.2-1.3,0.8l-2.5,4.8C57.1,138.7,57.3,139.2,57.7,139.3z"/>
			
				<linearGradient id="APIS_ID_14_" gradientUnits="userSpaceOnUse" x1="-316.0027" y1="-64.6277" x2="-305.7719" y2="-66.6021" gradientTransform="matrix(1 0 -0.4077 0.7784 344.9058 187.5013)">
				<stop  offset="0" style="stop-color:var(--vitamui-primary-900)"/>
				<stop  offset="3.934753e-02" style="stop-color:var(--vitamui-primary-800)"/>
				<stop  offset="0.1654" style="stop-color:var(--vitamui-primary-700)"/>
				<stop  offset="0.2899" style="stop-color:var(--vitamui-primary-600)"/>
				<stop  offset="0.4107" style="stop-color:var(--vitamui-primary)"/>
				<stop  offset="0.5264" style="stop-color:var(--vitamui-primary)"/>
				<stop  offset="0.6312" style="stop-color:var(--vitamui-primary)"/>
				<stop  offset="0.6963" style="stop-color:var(--vitamui-primary)"/>
				<stop  offset="0.7969" style="stop-color:var(--vitamui-primary-400)"/>
				<stop  offset="0.92" style="stop-color:var(--vitamui-primary-300)"/>
				<stop  offset="1" style="stop-color:var(--vitamui-primary-300)"/>
			</linearGradient>
			<path class="apis204" d="M65,134.5c0-0.4-0.4-0.8-1-0.6c-1.8,0.7-3.5,1.6-5.2,2.7c-0.2-0.4-0.3-0.9-0.5-1.3
				c-0.1-0.4-0.6-0.6-1.1-0.2c-0.4,0.3-0.8,0.9-0.7,1.3c0.3,0.7,0.5,1.4,0.8,2.1c0.1,0.4,0.6,0.6,1.1,0.3c0.9-0.6,1.8-1.2,2.8-1.7
				c0.5-0.3,1-0.5,1.4-0.7c0.1-0.1,0.2-0.1,0.4-0.2c0,0,0,0,0.1,0c0.1,0,0.1,0,0.2-0.1c0.2-0.1,0.5-0.2,0.7-0.3
				C64.6,135.5,65,135,65,134.5z"/>
		</g>
	</g>
</g>
</svg>
