<?xml version="1.0" encoding="utf-8"?>
<!-- Generator: Adobe Illustrator 27.2.0, SVG Export Plug-In . SVG Version: 6.00 Build 0)  -->
<!DOCTYPE svg PUBLIC "-//W3C//DTD SVG 1.1//EN" "http://www.w3.org/Graphics/SVG/1.1/DTD/svg11.dtd" [
	<!ENTITY ns_extend "http://ns.adobe.com/Extensibility/1.0/">
	<!ENTITY ns_ai "http://ns.adobe.com/AdobeIllustrator/10.0/">
	<!ENTITY ns_graphs "http://ns.adobe.com/Graphs/1.0/">
	<!ENTITY ns_vars "http://ns.adobe.com/Variables/1.0/">
	<!ENTITY ns_imrep "http://ns.adobe.com/ImageReplacement/1.0/">
	<!ENTITY ns_sfw "http://ns.adobe.com/SaveForWeb/1.0/">
	<!ENTITY ns_custom "http://ns.adobe.com/GenericCustomNamespace/1.0/">
	<!ENTITY ns_adobe_xpath "http://ns.adobe.com/XPath/1.0/">
]>
<svg version="1.1" id="Calque_1" xmlns:x="&ns_extend;" xmlns:i="&ns_ai;" xmlns:graph="&ns_graphs;"
	 xmlns="http://www.w3.org/2000/svg" xmlns:xlink="http://www.w3.org/1999/xlink" x="0px" y="0px" viewBox="0 0 200 200"
	 style="enable-background:new 0 0 200 200;" xml:space="preserve">
<style type="text/css">
	.Ombre_x0020_portée{fill:none;}
	.Lueur_x0020_externe_x0020_5 pt{fill:none;}
	.Néon_x0020_bleu{fill:none;stroke:#8AACDA;stroke-width:7;stroke-linecap:round;stroke-linejoin:round;}
	.Ton_x0020_clair_x0020_chrome{fill:url(#SVGID_1_);stroke:#FFFFFF;stroke-width:0.3629;stroke-miterlimit:1;}
	.Swing_GS{fill:#FFDD00;}
	.Alysse_GS{fill:#A6D0E4;}
	.as-st0{fill:#EAEAEC;}
	.as-st1{fill:#D8D8D8;}
	.as-st2{fill:none;stroke:#75757C;stroke-width:0.4;stroke-miterlimit:10;}
	.as-st3{fill:#75757C;}
	.as-st4{fill:#6DA3BC;}
	.as-st5{fill:#93BDD3;}
	.as-st6{fill:#F0F2F7;}
	.as-st7{fill:#FFFFFF;}
	.as-st8{fill:#232736;}
	.as-st9{fill:#A6AAB3;}
	.as-st10{fill:#787C8E;}
	.as-st11{fill:#4A4E67;}
	.as-st12{fill-rule:evenodd;clip-rule:evenodd;fill:#D8D8D8;}
	.as-st13{fill-rule:evenodd;clip-rule:evenodd;fill:none;stroke:#009EE2;stroke-width:1.7796;stroke-miterlimit:10;}
</style>
<metadata>
	<sfw  xmlns="&ns_sfw;">
		<slices></slices>
		<sliceSourceBounds  bottomLeftOrigin="true" height="109.8" width="109.9" x="45.7" y="-146"></sliceSourceBounds>
	</sfw>
</metadata>
<linearGradient id="SVGID_1_" gradientUnits="userSpaceOnUse" x1="0" y1="0" x2="6.123234e-17" y2="-1">
	<stop  offset="0" style="stop-color:#656565"/>
	<stop  offset="0.618" style="stop-color:#1B1B1B"/>
	<stop  offset="0.6292" style="stop-color:#545454"/>
	<stop  offset="0.9831" style="stop-color:#3E3E3E"/>
</linearGradient>
<g>
	<g>
		<path class="as-st0" d="M57,67.6h87.3c6.2,0,11.3,4.5,11.3,10.1v18.8L45.7,96.8v-19C45.7,72.1,50.7,67.6,57,67.6z"/>
		<path class="as-st1" d="M57,70.8h87.3c6.2,0,11.3,5.1,11.3,11.3v21H45.7v-21C45.7,75.9,50.7,70.8,57,70.8z"/>
		<path class="as-st2" d="M59.5,73.8h82.2c5.7,0,10.3,4.6,10.3,10.3v19.9H49.2V84C49.2,78.4,53.8,73.8,59.5,73.8z"/>
		<path class="as-st3" d="M144.2,121.8H61.4c-6.2,0-11.3-5.1-11.3-11.3l-4.5-7.6h109.9l-4.5,7.6C151.1,116.8,150.5,121.8,144.2,121.8z"
			/>
		<g>
			<g>
				<circle class="as-st4" cx="59.7" cy="86.9" r="2.9"/>
			</g>
			<g>
				<circle class="as-st5" cx="59.7" cy="86.4" r="2"/>
			</g>
			<g>
				<circle class="as-st6" cx="68" cy="86.9" r="2.9"/>
			</g>
			<g>
				<circle class="as-st7" cx="68" cy="86.4" r="2"/>
			</g>
		</g>
		<rect x="68.7" y="99.7" class="as-st8" width="63.9" height="22.2"/>
		<rect x="68.7" y="46.5" class="as-st3" width="61.5" height="25.1"/>
		<rect x="68.7" y="46.5" class="as-st9" width="61.5" height="25.1"/>
		<rect x="68.7" y="65.3" class="as-st10" width="61.5" height="6.4"/>
		
			<rect x="76.2" y="36.2" transform="matrix(-1 -1.224647e-16 1.224647e-16 -1 197.5322 107.8176)" class="as-st7" width="45.2" height="35.4"/>
		
			<rect x="76.2" y="65.3" transform="matrix(-1 -1.224647e-16 1.224647e-16 -1 197.5322 136.8964)" class="as-st6" width="45.2" height="6.4"/>
		<g>
			<path class="as-st3" d="M139.8,94.2v-3.7h-3.7v-2.7h3.7v-3.7h2.5v3.7h3.7v2.7h-3.7v3.7H139.8z"/>
		</g>
		<g>
			<path class="as-st6" d="M139.8,93.3v-3.7h-3.7v-2.7h3.7v-3.7h2.5v3.7h3.7v2.7h-3.7v3.7H139.8z"/>
		</g>
		<rect x="61.4" y="121.8" class="as-st3" width="81.9" height="2.8"/>
		<rect x="61.4" y="120.4" class="as-st8" width="81.9" height="1.4"/>
		<g>
			<rect x="75.8" y="112.1" class="as-st3" width="49.6" height="33.9"/>
			<rect x="78" y="104.9" class="as-st7" width="45.2" height="38.4"/>
		</g>
		<rect x="78" y="104.9" class="as-st6" width="45.2" height="10.1"/>
		<polygon class="as-st6" points="45.7,103 46.6,104.5 68.7,104.5 68.7,103 		"/>
		<polygon class="as-st6" points="155.5,103 154.6,104.5 132.5,104.5 132.5,103 		"/>
		<rect x="68.7" y="99.7" class="as-st3" width="63.9" height="3.3"/>
		<polygon class="as-st6" points="111,46.5 121.3,46.5 111,36.2 		"/>
	</g>
	<rect x="68.7" y="71.6" class="as-st11" width="61.5" height="2.1"/>
	<rect x="68.7" y="46.5" class="as-st12" width="7.5" height="1"/>
	<rect x="121.3" y="46.5" class="as-st12" width="8.8" height="1"/>
	<g>
		<line class="as-st13" x1="82.8" y1="109.5" x2="119.5" y2="109.5"/>
		<line class="as-st13" x1="89.7" y1="117.6" x2="119.5" y2="117.6"/>
		<line class="as-st13" x1="104.6" y1="124.1" x2="119.5" y2="124.1"/>
		<line class="as-st13" x1="82.8" y1="124.1" x2="97.7" y2="124.1"/>
		<line class="as-st13" x1="82.8" y1="130.6" x2="119.5" y2="130.6"/>
		<line class="as-st13" x1="103.8" y1="136.2" x2="119.5" y2="136.2"/>
		<line class="as-st13" x1="93.9" y1="136.2" x2="101.8" y2="136.2"/>
	</g>
</g>
</svg>
