<?xml version="1.0" encoding="utf-8"?>
<!-- Generator: Adobe Illustrator 27.2.0, SVG Export Plug-In . SVG Version: 6.00 Build 0)  -->
<!DOCTYPE svg PUBLIC "-//W3C//DTD SVG 1.1//EN" "http://www.w3.org/Graphics/SVG/1.1/DTD/svg11.dtd" [
	<!ENTITY ns_extend "http://ns.adobe.com/Extensibility/1.0/">
	<!ENTITY ns_ai "http://ns.adobe.com/AdobeIllustrator/10.0/">
	<!ENTITY ns_graphs "http://ns.adobe.com/Graphs/1.0/">
	<!ENTITY ns_vars "http://ns.adobe.com/Variables/1.0/">
	<!ENTITY ns_imrep "http://ns.adobe.com/ImageReplacement/1.0/">
	<!ENTITY ns_sfw "http://ns.adobe.com/SaveForWeb/1.0/">
	<!ENTITY ns_custom "http://ns.adobe.com/GenericCustomNamespace/1.0/">
	<!ENTITY ns_adobe_xpath "http://ns.adobe.com/XPath/1.0/">
]>
<svg version="1.1" id="Calque_1" xmlns:x="&ns_extend;" xmlns:i="&ns_ai;" xmlns:graph="&ns_graphs;"
	 xmlns="http://www.w3.org/2000/svg" xmlns:xlink="http://www.w3.org/1999/xlink" x="0px" y="0px" viewBox="0 0 200 200"
	 style="enable-background:new 0 0 200 200;" xml:space="preserve">
<style type="text/css">
	.Ombre_x0020_portée{fill:none;}
	.Lueur_x0020_externe_x0020_5 pt{fill:none;}
	.Néon_x0020_bleu{fill:none;stroke:#8AACDA;stroke-width:7;stroke-linecap:round;stroke-linejoin:round;}
	.Ton_x0020_clair_x0020_chrome{fill:url(#SVGID_1_);stroke:#FFFFFF;stroke-width:0.3629;stroke-miterlimit:1;}
	.Swing_GS{fill:#FFDD00;}
	.Alysse_GS{fill:#A6D0E4;}
	.ar-st0{fill:#2B4A99;}
	.ar-st1{fill:#253F83;}
	.ar-st2{fill:#5A6BAF;}
	.ar-st3{fill:#F5D2A7;}
	.ar-st4{fill:#C09A6C;}
	.ar-st5{fill:#E3BE8E;}
	.ar-st6{fill:#FFFFFF;}
	.ar-st7{opacity:0.7;fill:#FFFFFF;}
	.ar-st8{fill:none;stroke:#9B9A9B;stroke-width:0.2065;stroke-miterlimit:10;}
	.ar-st9{fill-rule:evenodd;clip-rule:evenodd;fill:#2B4A99;}
</style>
<metadata>
	<sfw  xmlns="&ns_sfw;">
		<slices></slices>
		<sliceSourceBounds  bottomLeftOrigin="true" height="147.3" width="119.7" x="40.1" y="-168.8"></sliceSourceBounds>
	</sfw>
</metadata>
<linearGradient id="SVGID_1_" gradientUnits="userSpaceOnUse" x1="0" y1="0" x2="6.123234e-17" y2="-1">
	<stop  offset="0" style="stop-color:#656565"/>
	<stop  offset="0.618" style="stop-color:#1B1B1B"/>
	<stop  offset="0.6292" style="stop-color:#545454"/>
	<stop  offset="0.9831" style="stop-color:#3E3E3E"/>
</linearGradient>
<g>
	<g>
		<g>
			<polygon class="ar-st0" points="102.4,104.2 100.1,103 100.1,22.8 102.4,24.1 			"/>
			<polygon class="ar-st1" points="102.4,104.2 104.7,103 104.7,22.8 102.4,24.1 			"/>
			<g>
				<path class="ar-st2" d="M103.7,22.2l-0.3-0.2l-0.9-0.5l-2.4,1.4l0.9,0.5l0.3,0.2l1,0.6l2.4-1.4l0,0L103.7,22.2z"/>
			</g>
		</g>
		<g>
			<path class="ar-st0" d="M103.9,94.4l-31.9,18.3v2.3l16,9.2l5.1,3l34.6,20.2l31.9-18.3v-2.3L103.9,94.4z"/>
		</g>
		<g>
			<path class="ar-st2" d="M103.9,94.4l-31.9,18.3l16,9.2l5.1,3l34.6,20.2l31.9-18.3L103.9,94.4z"/>
		</g>
		<g>
			<g>
				<g>
					<path class="ar-st3" d="M115.3,73.8l-3.1-1.8l-9.8-5.7L77.1,80.9l9.8,5.7l3.2,1.8l10.8,6.2L126.1,80l0,0L115.3,73.8z"/>
				</g>
				<polygon class="ar-st4" points="100.9,94.6 100.9,127 90,120.8 86.9,119 77.1,113.4 77.1,80.9 				"/>
				<g>
					<path class="ar-st5" d="M100.9,94.6l0,32.4l25.2-14.4V80L100.9,94.6z"/>
				</g>
			</g>
			<polygon class="ar-st6" points="86.7,86.4 111.5,71.6 114.9,73.5 90,88.3 			"/>
			<polygon class="ar-st7" points="90,102.3 86.7,100.4 86.7,86.4 90,88.3 			"/>
			<polyline class="ar-st8" points="88.4,101.3 88.4,87.4 113.4,72.7 			"/>
			<path class="ar-st9" d="M110.2,98.6c0.1,0,0.1-0.1,0.2-0.1c0.1,0,0.1,0,0.2,0l8,4.9l3.1-5.8l-3.1-1.9l-2.7,5l-1.1-0.7l3.4-6.3
				c0-0.1,0.1-0.2,0.2-0.3c0.1-0.1,0.1-0.1,0.2-0.2c0.1,0,0.1-0.1,0.2-0.1c0.1,0,0.1,0,0.2,0l4.5,2.8c0.1,0.1,0.2,0.2,0.2,0.4
				c0,0.2-0.1,0.4-0.2,0.6l-4.5,8.5c0,0.1-0.1,0.2-0.2,0.2c-0.1,0.1-0.1,0.1-0.2,0.2c-0.1,0-0.1,0.1-0.2,0.1c-0.1,0-0.1,0-0.2,0
				l-8-4.9l-3.1,5.8l3.1,1.9l2.7-5l1.1,0.7l-3.4,6.3c0,0.1-0.1,0.2-0.2,0.3c-0.1,0.1-0.1,0.1-0.2,0.2c-0.1,0-0.1,0.1-0.2,0.1
				c-0.1,0-0.1,0-0.2,0l-4.5-2.8c-0.1-0.1-0.2-0.2-0.2-0.4c0-0.2,0.1-0.4,0.2-0.6l4.5-8.5c0-0.1,0.1-0.2,0.2-0.3
				C110,98.7,110.1,98.7,110.2,98.6z"/>
		</g>
		<g>
			<g>
				<g>
					<path class="ar-st3" d="M142.3,89l-3.1-1.8l-9.8-5.7l-25.2,14.6l9.8,5.7l3.2,1.8l10.8,6.2l25.2-14.6l0,0L142.3,89z"/>
				</g>
				<polygon class="ar-st4" points="127.9,109.8 127.9,142.2 117,136 113.9,134.2 104.1,128.7 104.1,96.1 				"/>
				<g>
					<path class="ar-st5" d="M127.9,109.8l0,32.4l25.2-14.4V95.3L127.9,109.8z"/>
				</g>
			</g>
			<polygon class="ar-st6" points="113.7,101.6 138.5,86.8 141.9,88.7 117,103.6 			"/>
			<polygon class="ar-st7" points="117,117.5 113.7,115.6 113.7,101.6 117,103.6 			"/>
			<polyline class="ar-st8" points="115.4,116.6 115.4,102.6 140.4,87.9 			"/>
			<path class="ar-st9" d="M137.2,113.9c0.1,0,0.1-0.1,0.2-0.1c0.1,0,0.1,0,0.2,0l8,4.9l3.1-5.8l-3.1-1.9l-2.7,5l-1.1-0.7l3.4-6.3
				c0-0.1,0.1-0.2,0.2-0.3c0.1-0.1,0.1-0.1,0.2-0.2c0.1,0,0.1-0.1,0.2-0.1c0.1,0,0.1,0,0.2,0l4.5,2.8c0.1,0.1,0.2,0.2,0.2,0.4
				c0,0.2-0.1,0.4-0.2,0.6l-4.5,8.5c0,0.1-0.1,0.2-0.2,0.2c-0.1,0.1-0.1,0.1-0.2,0.2s-0.1,0.1-0.2,0.1c-0.1,0-0.1,0-0.2,0l-8-4.9
				l-3.1,5.8l3.1,1.9l2.7-5l1.1,0.7l-3.4,6.3c0,0.1-0.1,0.2-0.2,0.3c-0.1,0.1-0.1,0.1-0.2,0.2c-0.1,0-0.1,0.1-0.2,0.1
				c-0.1,0-0.1,0-0.2,0l-4.5-2.8c-0.1-0.1-0.2-0.2-0.2-0.4s0.1-0.4,0.2-0.6l4.5-8.5c0-0.1,0.1-0.2,0.2-0.3
				C137,114,137.1,113.9,137.2,113.9z"/>
		</g>
		<g>
			<path class="ar-st0" d="M103.9,54.6L71.9,73v2.3l16,9.2l5.1,3l34.6,20.2l31.9-18.3V87L103.9,54.6z"/>
		</g>
		<g>
			<path class="ar-st2" d="M103.9,54.6L71.9,73l16,9.2l5.1,3l34.6,20.2L159.5,87L103.9,54.6z"/>
		</g>
		<g>
			<polygon class="ar-st0" points="157.5,134.5 155.3,133.2 155.3,53.1 157.5,54.4 			"/>
			<polygon class="ar-st1" points="157.5,134.5 159.8,133.2 159.8,53 157.5,54.4 			"/>
			<g>
				<path class="ar-st2" d="M158.8,52.5l-0.3-0.2l-0.9-0.5l-2.4,1.4l0.9,0.5l0.3,0.2l1,0.6l2.4-1.4l0,0L158.8,52.5z"/>
			</g>
		</g>
	</g>
	<g>
		<g>
			<polygon class="ar-st0" points="72.9,121.4 70.7,120.1 70.7,40 72.9,41.3 			"/>
			<polygon class="ar-st1" points="72.9,121.4 75.2,120.1 75.2,39.9 72.9,41.3 			"/>
			<g>
				<path class="ar-st2" d="M74.2,39.3l-0.3-0.2L73,38.6L70.6,40l0.9,0.5l0.3,0.2l1,0.6l2.4-1.4l0,0L74.2,39.3z"/>
			</g>
		</g>
		<g>
			<path class="ar-st0" d="M74.4,111.5l-31.9,18.3v2.3l16,9.2l5.1,3l34.6,20.2l31.9-18.3v-2.3L74.4,111.5z"/>
		</g>
		<g>
			<path class="ar-st2" d="M74.4,111.5l-31.9,18.3l16,9.2l5.1,3l34.6,20.2l31.9-18.3L74.4,111.5z"/>
		</g>
		<g>
			<g>
				<g>
					<path class="ar-st3" d="M85.8,90.9l-3.1-1.8l-9.8-5.7L47.7,98l9.8,5.7l3.2,1.8l10.8,6.2l25.2-14.6l0,0L85.8,90.9z"/>
				</g>
				<polygon class="ar-st4" points="71.5,111.7 71.4,144.1 60.5,137.9 57.4,136.1 47.7,130.6 47.7,98 				"/>
				<g>
					<path class="ar-st5" d="M71.4,111.7l0,32.4l25.2-14.4V97.2L71.4,111.7z"/>
				</g>
			</g>
			<polygon class="ar-st6" points="57.3,103.5 82,88.7 85.4,90.6 60.6,105.5 			"/>
			<polygon class="ar-st7" points="60.6,119.4 57.3,117.5 57.3,103.5 60.6,105.5 			"/>
			<polyline class="ar-st8" points="58.9,118.5 58.9,104.5 83.9,89.8 			"/>
			<path class="ar-st9" d="M80.7,115.8c0.1,0,0.1-0.1,0.2-0.1c0.1,0,0.1,0,0.2,0l8,4.9l3.1-5.8l-3.1-1.9l-2.7,5l-1.1-0.7l3.4-6.3
				c0-0.1,0.1-0.2,0.2-0.3c0.1-0.1,0.1-0.1,0.2-0.2c0.1,0,0.1-0.1,0.2-0.1c0.1,0,0.1,0,0.2,0l4.5,2.8c0.1,0.1,0.2,0.2,0.2,0.4
				c0,0.2-0.1,0.4-0.2,0.6l-4.5,8.5c0,0.1-0.1,0.2-0.2,0.2c-0.1,0.1-0.1,0.1-0.2,0.2c-0.1,0-0.1,0.1-0.2,0.1c-0.1,0-0.1,0-0.2,0
				l-8-4.9l-3.1,5.8l3.1,1.9l2.7-5l1.1,0.7l-3.4,6.3c0,0.1-0.1,0.2-0.2,0.3c-0.1,0.1-0.1,0.1-0.2,0.2c-0.1,0-0.1,0.1-0.2,0.1
				c-0.1,0-0.1,0-0.2,0l-4.5-2.8c-0.1-0.1-0.2-0.2-0.2-0.4s0.1-0.4,0.2-0.6l4.5-8.5c0-0.1,0.1-0.2,0.2-0.3
				C80.6,115.9,80.7,115.8,80.7,115.8z"/>
		</g>
		<g>
			<g>
				<g>
					<path class="ar-st3" d="M112.9,106.1l-3.1-1.8l-9.8-5.7l-25.2,14.6l9.8,5.7l3.2,1.8l10.8,6.2l25.2-14.6l0,0L112.9,106.1z"/>
				</g>
				<polygon class="ar-st4" points="98.5,127 98.4,159.4 87.6,153.2 84.4,151.4 74.7,145.8 74.7,113.2 				"/>
				<g>
					<path class="ar-st5" d="M98.4,127l0,32.4l25.2-14.4v-32.5L98.4,127z"/>
				</g>
			</g>
			<polygon class="ar-st6" points="84.3,118.8 109,103.9 112.4,105.9 87.6,120.7 			"/>
			<polygon class="ar-st7" points="87.6,134.7 84.3,132.7 84.3,118.8 87.6,120.7 			"/>
			<polyline class="ar-st8" points="85.9,133.7 85.9,119.7 110.9,105 			"/>
			<path class="ar-st9" d="M107.7,131c0.1,0,0.1-0.1,0.2-0.1c0.1,0,0.1,0,0.2,0l8,4.9l3.1-5.8l-3.1-1.9l-2.7,5l-1.1-0.7l3.4-6.3
				c0-0.1,0.1-0.2,0.2-0.3c0.1-0.1,0.1-0.1,0.2-0.2c0.1,0,0.1-0.1,0.2-0.1c0.1,0,0.1,0,0.2,0l4.5,2.8c0.1,0.1,0.2,0.2,0.2,0.4
				c0,0.2-0.1,0.4-0.2,0.6l-4.5,8.5c0,0.1-0.1,0.2-0.2,0.2c-0.1,0.1-0.1,0.1-0.2,0.2c-0.1,0-0.1,0.1-0.2,0.1c-0.1,0-0.1,0-0.2,0
				l-8-4.9l-3.1,5.8l3.1,1.9l2.7-5l1.1,0.7l-3.4,6.3c0,0.1-0.1,0.2-0.2,0.3c-0.1,0.1-0.1,0.1-0.2,0.2c-0.1,0-0.1,0.1-0.2,0.1
				c-0.1,0-0.1,0-0.2,0l-4.5-2.8c-0.1-0.1-0.2-0.2-0.2-0.4s0.1-0.4,0.2-0.6l4.5-8.5c0-0.1,0.1-0.2,0.2-0.3
				C107.6,131.1,107.7,131.1,107.7,131z"/>
		</g>
		<g>
			<path class="ar-st0" d="M74.4,71.8L42.5,90.1v2.3l16,9.2l5.1,3l34.6,20.2l31.9-18.3v-2.3L74.4,71.8z"/>
		</g>
		<g>
			<path class="ar-st2" d="M74.4,71.8L42.5,90.1l16,9.2l5.1,3l34.6,20.2l31.9-18.3L74.4,71.8z"/>
		</g>
		<g>
			<polygon class="ar-st0" points="98.5,168.8 95.8,167.3 95.8,87.3 98.5,88.8 			"/>
			<polygon class="ar-st1" points="98.5,168.8 101.1,167.3 101.1,87.2 98.5,88.8 			"/>
			<g>
				<path class="ar-st2" d="M100,86.5l-0.4-0.2l-1.1-0.6l-2.8,1.6l1.1,0.6l0.4,0.2l1.2,0.7l2.8-1.6l0,0L100,86.5z"/>
			</g>
		</g>
		<g>
			<polygon class="ar-st0" points="128.1,151.7 125.8,150.4 125.8,70.3 128.1,71.6 			"/>
			<polygon class="ar-st1" points="128.1,151.7 130.3,150.4 130.3,70.2 128.1,71.6 			"/>
			<g>
				<path class="ar-st2" d="M129.4,69.6l-0.3-0.2l-0.9-0.5l-2.4,1.4l0.9,0.5L127,71l1,0.6l2.4-1.4l0,0L129.4,69.6z"/>
			</g>
		</g>
		<g>
			<polygon class="ar-st0" points="42.5,138.8 40.2,137.5 40.2,57.4 42.5,58.7 			"/>
			<polygon class="ar-st1" points="42.5,138.8 44.7,137.5 44.7,57.3 42.5,58.7 			"/>
			<g>
				<path class="ar-st2" d="M43.8,56.8l-0.3-0.2L42.5,56l-2.4,1.4l0.9,0.5l0.3,0.2l1,0.6l2.4-1.4l0,0L43.8,56.8z"/>
			</g>
		</g>
	</g>
</g>
</svg>
