<?xml version="1.0" encoding="utf-8"?>
<!-- Generator: Adobe Illustrator 25.2.1, SVG Export Plug-In . SVG Version: 6.00 Build 0)  -->
<!DOCTYPE svg PUBLIC "-//W3C//DTD SVG 1.1//EN" "http://www.w3.org/Graphics/SVG/1.1/DTD/svg11.dtd" [
	<!ENTITY ns_extend "http://ns.adobe.com/Extensibility/1.0/">
	<!ENTITY ns_ai "http://ns.adobe.com/AdobeIllustrator/10.0/">
	<!ENTITY ns_graphs "http://ns.adobe.com/Graphs/1.0/">
	<!ENTITY ns_vars "http://ns.adobe.com/Variables/1.0/">
	<!ENTITY ns_imrep "http://ns.adobe.com/ImageReplacement/1.0/">
	<!ENTITY ns_sfw "http://ns.adobe.com/SaveForWeb/1.0/">
	<!ENTITY ns_custom "http://ns.adobe.com/GenericCustomNamespace/1.0/">
	<!ENTITY ns_adobe_xpath "http://ns.adobe.com/XPath/1.0/">
]>
<svg version="1.1" id="Calque_1" xmlns:x="&ns_extend;" xmlns:i="&ns_ai;" xmlns:graph="&ns_graphs;"
	 xmlns="http://www.w3.org/2000/svg" xmlns:xlink="http://www.w3.org/1999/xlink" x="0px" y="0px" viewBox="0 0 200 200"
	 style="enable-background:new 0 0 200 200;" xml:space="preserve">
<style type="text/css">
	.parch0{fill-rule:evenodd;clip-rule:evenodd;}
	.parch1{fill-rule:evenodd;clip-rule:evenodd;fill:#BCB9BA;}
	.parch2{fill-rule:evenodd;clip-rule:evenodd;fill:#F5F5F5;}
	.parch3{fill-rule:evenodd;clip-rule:evenodd;fill:#E5E4E4;}
	.parch4{fill:#BCB9BA;}
	.parch5{fill:#BBB9BA;}
	.parch6{fill:#BBB8B9;}
	.parch7{fill:#BAB8B9;}
	.parch8{fill:#B9B7B8;}
	.parch9{fill:#B9B7B7;}
	.parch10{fill:#B8B6B7;}
	.parch11{fill:#B8B5B6;}
	.parch12{fill:#B7B5B6;}
	.parch13{fill:#B7B4B5;}
	.parch14{fill:#B6B4B5;}
	.parch15{fill:#B6B3B4;}
	.parch16{fill:#B5B3B4;}
	.parch17{fill:#B4B2B3;}
	.parch18{fill:#B3B1B2;}
	.parch19{fill:#B3B1B1;}
	.parch20{fill:#B2B0B1;}
	.parch21{fill:#B2AFB0;}
	.parch22{fill:#B1AFB0;}
	.parch23{fill:#B1AEAF;}
	.parch24{fill:#B0AEAF;}
	.parch25{fill:#AFADAE;}
	.parch26{fill:#AEACAD;}
	.parch27{fill:#ADABAC;}
	.parch28{fill:#ADABAB;}
	.parch29{fill:#ACAAAB;}
	.parch30{fill:#ACAAAA;}
	.parch31{fill:#ABA9AA;}
	.parch32{fill:#AAA8A9;}
	.parch33{fill:#A9A7A8;}
	.parch34{fill:#A8A6A7;}
	.parch35{fill:#A7A5A6;}
	.parch36{fill:#A7A5A5;}
	.parch37{fill:#A6A4A5;}
	.parch38{fill:#A5A4A4;}
	.parch39{fill:#A5A3A4;}
	.parch40{fill:#A4A2A3;}
	.parch41{fill:#A3A1A2;}
	.parch42{fill:#A2A0A1;}
	.parch43{fill:#A19FA0;}
	.parch44{fill:#A09F9F;}
	.parch45{fill:#A09E9F;}
	.parch46{fill:#9F9E9E;}
	.parch47{fill:#9F9D9E;}
	.parch48{fill:#9E9D9D;}
	.parch49{fill:#9E9C9D;}
	.parch50{fill:#9D9B9C;}
	.parch51{fill:#9C9A9B;}
	.parch52{fill:#9B9A9B;}
	.parch53{fill:#9B999A;}
	.parch54{fill:#9A9999;}
	.parch55{fill:#9A9899;}
	.parch56{fill:#999898;}
	.parch57{fill:#999798;}
	.parch58{fill:#989797;}
	.parch59{fill:#989697;}
	.parch60{fill:#979596;}
	.parch61{fill:#969596;}
	.parch62{fill:#969495;}
	.parch63{fill:#959495;}
	.parch64{fill:#959394;}
	.parch65{fill:#949393;}
	.parch66{fill:#949293;}
	.parch67{fill:#939292;}
	.parch68{fill:#939192;}
	.parch69{fill:#929191;}
	.parch70{fill:#919091;}
	.parch71{fill:#919090;}
	.parch72{fill:#908F90;}
	.parch73{fill:#908E8F;}
	.parch74{fill:#8F8E8F;}
	.parch75{fill:#8F8D8E;}
	.parch76{fill:#8E8D8D;}
	.parch77{fill:#8E8C8D;}
	.parch78{fill:#8D8C8C;}
	.parch79{fill:#8C8B8C;}
	.parch80{fill:#8C8B8B;}
	.parch81{fill:#8B8A8B;}
	.parch82{fill:#8B8A8A;}
	.parch83{fill:#8A898A;}
	.parch84{fill:#8A8889;}
	.parch85{fill:#898888;}
	.parch86{fill:#898788;}
	.parch87{fill:#888787;}
	.parch88{fill:#878687;}
	.parch89{fill:#878686;}
	.parch90{fill:#868586;}
	.parch91{fill:#868585;}
	.parch92{fill:#858485;}
	.parch93{fill:#858484;}
	.parch94{fill:#848384;}
	.parch95{fill:#848383;}
	.parch96{fill:#838282;}
	.parch97{fill:#828182;}
	.parch98{fill:#828181;}
	.parch99{fill:#818081;}
	.parch100{fill:#818080;}
	.parch101{fill:#807F80;}
	.parch102{fill:#807F7F;}
	.parch103{fill:#7F7E7F;}
	.parch104{fill:#7F7E7E;}
	.parch105{fill:#7E7D7E;}
	.parch106{fill:#7D7D7D;}
	.parch107{fill:#7D7C7C;}
	.parch108{fill:#7C7B7C;}
	.parch109{fill:#7C7B7B;}
	.parch110{fill:#7B7A7B;}
	.parch111{fill:#7B7A7A;}
	.parch112{fill:#7A797A;}
	.parch113{fill:#7A7979;}
	.parch114{fill:#797879;}
	.parch115{fill:#787878;}
	.parch116{fill:#787778;}
	.parch117{fill:#777777;}
	.parch118{fill:#777676;}
	.parch119{fill:#767676;}
	.parch120{fill:#767575;}
	.parch121{fill:#757475;}
	.parch122{fill:#757474;}
	.parch123{fill:#747374;}
	.parch124{fill:#737373;}
	.parch125{fill:#737273;}
	.parch126{fill:#727272;}
	.parch127{fill:#727172;}
	.parch128{fill:#717171;}
	.parch129{fill:#717070;}
	.parch130{fill:#707070;}
	.parch131{fill:#706F6F;}
	.parch132{fill:#6F6E6F;}
	.parch133{fill:#6E6E6E;}
	.parch134{fill:#6E6D6E;}
	.parch135{fill:#6D6D6D;}
	.parch136{fill:#6D6C6D;}
	.parch137{fill:#6C6C6C;}
	.parch138{fill:#6C6B6C;}
	.parch139{fill:#6B6B6B;}
	.parch140{fill:#6B6A6A;}
	.parch141{fill:#6A6A6A;}
	.parch142{fill:#696969;}
	.parch143{fill:#686868;}
	.parch144{fill:#686768;}
	.parch145{fill:#676767;}
	.parch146{fill:#676667;}
	.parch147{fill:#666666;}
	.parch148{fill:#666566;}
	.parch149{fill:#656565;}
	.parch150{fill:#646464;}
	.parch151{fill:#636363;}
	.parch152{fill:#626262;}
	.parch153{fill:#626162;}
	.parch154{fill:#616161;}
	.parch155{fill:#616061;}
	.parch156{fill:#606060;}
	.parch157{fill:#5F5F60;}
	.parch158{fill:#5F5F5F;}
	.parch159{fill:#5E5E5E;}
	.parch160{fill:#5D5D5D;}
	.parch161{fill:#5C5C5C;}
	.parch162{fill:#5B5B5B;}
	.parch163{fill:#5A5A5B;}
	.parch164{fill:#5A5A5A;}
	.parch165{fill:#59595A;}
	.parch166{fill:#595959;}
	.parch167{fill:#585858;}
	.parch168{fill:#575757;}
	.parch169{fill:#565656;}
	.parch170{fill:#555656;}
	.parch171{fill:#555555;}
	.parch172{fill:#545455;}
	.parch173{fill:#545454;}
	.parch174{fill:#535353;}
	.parch175{fill:#525252;}
	.parch176{fill:#515151;}
	.parch177{fill:#505151;}
	.parch178{fill:#505050;}
	.parch179{fill:#4F5050;}
	.parch180{fill:#4F4F4F;}
	.parch181{fill:#4E4F4F;}
	.parch182{fill:#4E4E4E;}
	.parch183{fill:#4D4D4D;}
	.parch184{fill:#4C4C4C;}
	.parch185{fill-rule:evenodd;clip-rule:evenodd;fill:url(#PARCH_ID_1_);}
	.parch186{fill-rule:evenodd;clip-rule:evenodd;fill:url(#PARCH_ID_2_);}
	.parch187{fill-rule:evenodd;clip-rule:evenodd;fill:url(#PARCH_ID_3_);}
	.parch188{fill-rule:evenodd;clip-rule:evenodd;fill:url(#PARCH_ID_4_);}
	.parch189{fill-rule:evenodd;clip-rule:evenodd;fill:var(--vitamui-primary-900);}
	.parch190{fill-rule:evenodd;clip-rule:evenodd;fill:var(--vitamui-primary);}
	.parch191{fill-rule:evenodd;clip-rule:evenodd;fill:var(--vitamui-primary);}
	.parch192{fill-rule:evenodd;clip-rule:evenodd;fill:var(--vitamui-primary-400);}
	.parch193{fill:url(#PARCH_ID_5_);}
	.parch194{fill:url(#PARCH_ID_6_);}
	.parch195{fill:var(--vitamui-primary-900);}
	.parch196{fill:url(#PARCH_ID_7_);}
	.parch197{fill:url(#PARCH_ID_8_);}
	.parch198{fill-rule:evenodd;clip-rule:evenodd;fill:url(#PARCH_ID_9_);}
	.parch199{fill-rule:evenodd;clip-rule:evenodd;fill:url(#PARCH_ID_10_);}
	.parch200{fill-rule:evenodd;clip-rule:evenodd;fill:url(#PARCH_ID_11_);}
	.parch201{opacity:0.75;fill:url(#PARCH_ID_12_);enable-background:new    ;}
	.parch202{fill:url(#PARCH_ID_13_);}
	.parch203{fill:url(#PARCH_ID_14_);}
	.parch204{fill:url(#PARCH_ID_15_);}
	.parch205{fill:url(#PARCH_ID_16_);}
	.parch206{fill:url(#PARCH_ID_17_);}
	.parch207{fill:#FFFFFF;}
	.parch208{fill:url(#PARCH_ID_18_);}
	.parch209{fill:url(#PARCH_ID_19_);}
	.parch210{fill:url(#PARCH_ID_20_);}
	.parch211{fill:url(#PARCH_ID_21_);}
	.parch212{fill-rule:evenodd;clip-rule:evenodd;fill:url(#PARCH_ID_22_);}
	.parch213{fill-rule:evenodd;clip-rule:evenodd;fill:#FFFFFF;}
	.parch214{fill-rule:evenodd;clip-rule:evenodd;fill:url(#PARCH_ID_23_);}
	.parch215{fill:url(#PARCH_ID_24_);}
	.parch216{fill-rule:evenodd;clip-rule:evenodd;fill:url(#PARCH_ID_25_);}
	.parch217{fill-rule:evenodd;clip-rule:evenodd;fill:url(#PARCH_ID_26_);}
	.parch218{fill-rule:evenodd;clip-rule:evenodd;fill:url(#PARCH_ID_27_);}
	.parch219{fill-rule:evenodd;clip-rule:evenodd;fill:url(#PARCH_ID_28_);}
	.parch220{fill-rule:evenodd;clip-rule:evenodd;fill:url(#PARCH_ID_29_);}
</style>
<metadata>
	<sfw  xmlns="&ns_sfw;">
		<slices></slices>
		<sliceSourceBounds  bottomLeftOrigin="true" height="162.1" width="165.1" x="17.9" y="19.3"></sliceSourceBounds>
	</sfw>
</metadata>
<g>
	<g>
		<g>
			<path class="parch0" d="M100.5,141.5c45.6,0,82.6,8.5,82.6,19s-37,20.2-82.6,20.2s-82.6-9.7-82.6-20.2
				C17.8,150.1,54.8,141.5,100.5,141.5z"/>
			<path class="parch1" d="M100.5,141.9c43.6,0,78.9,8.4,78.9,18.8c0,10.4-35.3,18.8-78.9,18.8s-78.9-8.4-78.9-18.8
				C21.5,150.2,56.9,141.9,100.5,141.9z"/>
			<path class="parch2" d="M100.5,139.7c43.6,0,78.9,8.4,78.9,18.8c0,10.4-35.3,18.8-78.9,18.8s-78.9-8.4-78.9-18.8
				C21.5,148,56.9,139.7,100.5,139.7z"/>
			<path class="parch1" d="M100.5,138.5c43.6,0,78.9,8.4,78.9,18.8c0,10.4-35.3,18.8-78.9,18.8s-78.9-8.4-78.9-18.8
				C21.5,146.8,56.9,138.5,100.5,138.5z"/>
			<path class="parch3" d="M100.3,138.5c22.9,0,43.4,2.3,57.8,6C128,142.7,45.6,147.1,25.3,163c-2.5-1.8-3.8-3.8-3.8-5.7
				C21.4,146.8,56.9,138.5,100.3,138.5z"/>
			<path class="parch2" d="M21.5,157.2c0-10.4,35.3-18.8,78.9-18.8s78.9,8.4,78.9,18.8c0,0.4,0,0.6-0.1,1c-2.2-9.8-36.6-17.7-78.8-17.7
				s-76.6,7.9-78.8,17.7C21.5,157.8,21.5,157.6,21.5,157.2z"/>
		</g>
		<g>
			<ellipse class="parch4" cx="100.5" cy="157.8" rx="50.7" ry="9.4"/>
			<ellipse class="parch5" cx="100.5" cy="157.8" rx="50.5" ry="9.4"/>
			<ellipse class="parch6" cx="100.5" cy="157.8" rx="50.3" ry="9.4"/>
			<ellipse class="parch7" cx="100.5" cy="157.8" rx="50.2" ry="9.3"/>
			<ellipse class="parch8" cx="100.5" cy="157.8" rx="50" ry="9.3"/>
			<ellipse class="parch9" cx="100.5" cy="157.8" rx="49.8" ry="9.3"/>
			<ellipse class="parch10" cx="100.5" cy="157.8" rx="49.6" ry="9.2"/>
			<ellipse class="parch11" cx="100.5" cy="157.8" rx="49.4" ry="9.2"/>
			<ellipse class="parch12" cx="100.5" cy="157.8" rx="49.3" ry="9.2"/>
			<ellipse class="parch13" cx="100.5" cy="157.8" rx="49.1" ry="9.1"/>
			<ellipse class="parch14" cx="100.5" cy="157.8" rx="48.9" ry="9.1"/>
			<ellipse class="parch15" cx="100.5" cy="157.8" rx="48.7" ry="9.1"/>
			<ellipse class="parch16" cx="100.5" cy="157.8" rx="48.6" ry="9"/>
			<ellipse class="parch17" cx="100.5" cy="157.8" rx="48.4" ry="9"/>
			<ellipse class="parch17" cx="100.5" cy="157.8" rx="48.2" ry="9"/>
			<ellipse class="parch18" cx="100.5" cy="157.8" rx="48" ry="8.9"/>
			<ellipse class="parch19" cx="100.5" cy="157.8" rx="47.8" ry="8.9"/>
			<ellipse class="parch20" cx="100.5" cy="157.8" rx="47.7" ry="8.9"/>
			<ellipse class="parch21" cx="100.5" cy="157.8" rx="47.5" ry="8.8"/>
			<ellipse class="parch22" cx="100.5" cy="157.8" rx="47.3" ry="8.8"/>
			<ellipse class="parch23" cx="100.5" cy="157.8" rx="47.1" ry="8.8"/>
			<ellipse class="parch24" cx="100.5" cy="157.8" rx="47" ry="8.7"/>
			<ellipse class="parch25" cx="100.5" cy="157.8" rx="46.8" ry="8.7"/>
			<ellipse class="parch25" cx="100.5" cy="157.8" rx="46.6" ry="8.7"/>
			<ellipse class="parch26" cx="100.5" cy="157.8" rx="46.4" ry="8.6"/>
			<ellipse class="parch26" cx="100.5" cy="157.8" rx="46.2" ry="8.6"/>
			<ellipse class="parch27" cx="100.5" cy="157.8" rx="46.1" ry="8.6"/>
			<ellipse class="parch28" cx="100.5" cy="157.8" rx="45.9" ry="8.5"/>
			<ellipse class="parch29" cx="100.5" cy="157.8" rx="45.7" ry="8.5"/>
			<ellipse class="parch30" cx="100.5" cy="157.8" rx="45.5" ry="8.5"/>
			<ellipse class="parch31" cx="100.5" cy="157.8" rx="45.4" ry="8.5"/>
			<ellipse class="parch32" cx="100.5" cy="157.8" rx="45.2" ry="8.4"/>
			<ellipse class="parch32" cx="100.5" cy="157.8" rx="45" ry="8.4"/>
			<ellipse class="parch33" cx="100.5" cy="157.8" rx="44.8" ry="8.4"/>
			<ellipse class="parch33" cx="100.5" cy="157.8" rx="44.6" ry="8.3"/>
			<ellipse class="parch34" cx="100.5" cy="157.8" rx="44.5" ry="8.3"/>
			<ellipse class="parch34" cx="100.5" cy="157.8" rx="44.3" ry="8.3"/>
			<ellipse class="parch35" cx="100.5" cy="157.8" rx="44.1" ry="8.2"/>
			<ellipse class="parch36" cx="100.5" cy="157.8" rx="43.9" ry="8.2"/>
			<ellipse class="parch37" cx="100.5" cy="157.8" rx="43.8" ry="8.2"/>
			<ellipse class="parch38" cx="100.5" cy="157.8" rx="43.6" ry="8.1"/>
			<ellipse class="parch39" cx="100.5" cy="157.8" rx="43.4" ry="8.1"/>
			<ellipse class="parch40" cx="100.5" cy="157.8" rx="43.2" ry="8.1"/>
			<ellipse class="parch40" cx="100.5" cy="157.8" rx="43" ry="8"/>
			<ellipse class="parch41" cx="100.5" cy="157.8" rx="42.9" ry="8"/>
			<ellipse class="parch41" cx="100.5" cy="157.8" rx="42.7" ry="8"/>
			<ellipse class="parch42" cx="100.5" cy="157.8" rx="42.5" ry="7.9"/>
			<ellipse class="parch42" cx="100.5" cy="157.8" rx="42.3" ry="7.9"/>
			<ellipse class="parch43" cx="100.5" cy="157.8" rx="42.2" ry="7.9"/>
			<ellipse class="parch44" cx="100.5" cy="157.8" rx="42" ry="7.8"/>
			<ellipse class="parch45" cx="100.5" cy="157.8" rx="41.8" ry="7.8"/>
			<ellipse class="parch46" cx="100.5" cy="157.8" rx="41.6" ry="7.8"/>
			<ellipse class="parch47" cx="100.5" cy="157.8" rx="41.4" ry="7.7"/>
			<ellipse class="parch48" cx="100.5" cy="157.8" rx="41.3" ry="7.7"/>
			<ellipse class="parch49" cx="100.5" cy="157.8" rx="41.1" ry="7.7"/>
			<ellipse class="parch50" cx="100.5" cy="157.8" rx="40.9" ry="7.6"/>
			<ellipse class="parch50" cx="100.5" cy="157.8" rx="40.7" ry="7.6"/>
			<ellipse class="parch51" cx="100.5" cy="157.8" rx="40.6" ry="7.6"/>
			<ellipse class="parch52" cx="100.5" cy="157.8" rx="40.4" ry="7.5"/>
			<ellipse class="parch53" cx="100.5" cy="157.8" rx="40.2" ry="7.5"/>
			<ellipse class="parch54" cx="100.5" cy="157.8" rx="40" ry="7.5"/>
			<ellipse class="parch55" cx="100.5" cy="157.8" rx="39.8" ry="7.4"/>
			<ellipse class="parch56" cx="100.5" cy="157.8" rx="39.7" ry="7.4"/>
			<ellipse class="parch57" cx="100.5" cy="157.8" rx="39.5" ry="7.4"/>
			<ellipse class="parch58" cx="100.5" cy="157.8" rx="39.3" ry="7.3"/>
			<ellipse class="parch59" cx="100.5" cy="157.8" rx="39.1" ry="7.3"/>
			<ellipse class="parch60" cx="100.5" cy="157.8" rx="38.9" ry="7.3"/>
			<ellipse class="parch61" cx="100.5" cy="157.8" rx="38.8" ry="7.2"/>
			<ellipse class="parch62" cx="100.5" cy="157.8" rx="38.6" ry="7.2"/>
			<ellipse class="parch63" cx="100.5" cy="157.8" rx="38.4" ry="7.2"/>
			<ellipse class="parch64" cx="100.5" cy="157.8" rx="38.2" ry="7.1"/>
			<ellipse class="parch65" cx="100.5" cy="157.8" rx="38.1" ry="7.1"/>
			<ellipse class="parch66" cx="100.5" cy="157.8" rx="37.9" ry="7.1"/>
			<ellipse class="parch67" cx="100.5" cy="157.8" rx="37.7" ry="7"/>
			<ellipse class="parch68" cx="100.5" cy="157.8" rx="37.5" ry="7"/>
			<ellipse class="parch69" cx="100.5" cy="157.8" rx="37.3" ry="7"/>
			<ellipse class="parch70" cx="100.5" cy="157.8" rx="37.2" ry="6.9"/>
			<ellipse class="parch71" cx="100.5" cy="157.8" rx="37" ry="6.9"/>
			<ellipse class="parch72" cx="100.5" cy="157.8" rx="36.8" ry="6.9"/>
			<ellipse class="parch73" cx="100.5" cy="157.8" rx="36.6" ry="6.8"/>
			<ellipse class="parch74" cx="100.5" cy="157.8" rx="36.5" ry="6.8"/>
			<ellipse class="parch75" cx="100.5" cy="157.8" rx="36.3" ry="6.8"/>
			<ellipse class="parch76" cx="100.5" cy="157.8" rx="36.1" ry="6.7"/>
			<ellipse class="parch77" cx="100.5" cy="157.8" rx="35.9" ry="6.7"/>
			<ellipse class="parch78" cx="100.5" cy="157.8" rx="35.7" ry="6.7"/>
			<ellipse class="parch79" cx="100.5" cy="157.8" rx="35.6" ry="6.6"/>
			<ellipse class="parch80" cx="100.5" cy="157.8" rx="35.4" ry="6.6"/>
			<ellipse class="parch81" cx="100.5" cy="157.8" rx="35.2" ry="6.6"/>
			<ellipse class="parch82" cx="100.5" cy="157.8" rx="35" ry="6.5"/>
			<ellipse class="parch83" cx="100.5" cy="157.8" rx="34.9" ry="6.5"/>
			<ellipse class="parch84" cx="100.5" cy="157.8" rx="34.7" ry="6.5"/>
			<ellipse class="parch85" cx="100.5" cy="157.8" rx="34.5" ry="6.4"/>
			<ellipse class="parch86" cx="100.5" cy="157.8" rx="34.3" ry="6.4"/>
			<ellipse class="parch87" cx="100.5" cy="157.8" rx="34.1" ry="6.4"/>
			<ellipse class="parch88" cx="100.5" cy="157.8" rx="34" ry="6.3"/>
			<ellipse class="parch89" cx="100.5" cy="157.8" rx="33.8" ry="6.3"/>
			<ellipse class="parch90" cx="100.5" cy="157.8" rx="33.6" ry="6.3"/>
			<ellipse class="parch91" cx="100.5" cy="157.8" rx="33.4" ry="6.2"/>
			<ellipse class="parch92" cx="100.5" cy="157.8" rx="33.3" ry="6.2"/>
			<ellipse class="parch93" cx="100.5" cy="157.8" rx="33.1" ry="6.2"/>
			<ellipse class="parch94" cx="100.5" cy="157.8" rx="32.9" ry="6.1"/>
			<ellipse class="parch95" cx="100.5" cy="157.8" rx="32.7" ry="6.1"/>
			<ellipse class="parch96" cx="100.5" cy="157.8" rx="32.5" ry="6.1"/>
			<ellipse class="parch97" cx="100.5" cy="157.8" rx="32.4" ry="6"/>
			<ellipse class="parch98" cx="100.5" cy="157.8" rx="32.2" ry="6"/>
			<ellipse class="parch99" cx="100.5" cy="157.8" rx="32" ry="6"/>
			<ellipse class="parch100" cx="100.5" cy="157.8" rx="31.8" ry="5.9"/>
			<ellipse class="parch101" cx="100.5" cy="157.8" rx="31.7" ry="5.9"/>
			<ellipse class="parch102" cx="100.5" cy="157.8" rx="31.5" ry="5.9"/>
			<ellipse class="parch103" cx="100.5" cy="157.8" rx="31.3" ry="5.8"/>
			<ellipse class="parch104" cx="100.5" cy="157.8" rx="31.1" ry="5.8"/>
			<ellipse class="parch105" cx="100.5" cy="157.8" rx="30.9" ry="5.8"/>
			<ellipse class="parch106" cx="100.5" cy="157.8" rx="30.8" ry="5.7"/>
			<ellipse class="parch107" cx="100.5" cy="157.8" rx="30.6" ry="5.7"/>
			<ellipse class="parch108" cx="100.5" cy="157.8" rx="30.4" ry="5.7"/>
			<ellipse class="parch109" cx="100.5" cy="157.8" rx="30.2" ry="5.6"/>
			<ellipse class="parch110" cx="100.5" cy="157.8" rx="30.1" ry="5.6"/>
			<ellipse class="parch111" cx="100.5" cy="157.8" rx="29.9" ry="5.6"/>
			<ellipse class="parch112" cx="100.5" cy="157.8" rx="29.7" ry="5.5"/>
			<ellipse class="parch113" cx="100.5" cy="157.8" rx="29.5" ry="5.5"/>
			<ellipse class="parch114" cx="100.5" cy="157.8" rx="29.3" ry="5.5"/>
			<ellipse class="parch115" cx="100.5" cy="157.8" rx="29.2" ry="5.4"/>
			<ellipse class="parch116" cx="100.5" cy="157.8" rx="29" ry="5.4"/>
			<ellipse class="parch117" cx="100.5" cy="157.8" rx="28.8" ry="5.4"/>
			<ellipse class="parch118" cx="100.5" cy="157.8" rx="28.6" ry="5.3"/>
			<ellipse class="parch119" cx="100.5" cy="157.8" rx="28.4" ry="5.3"/>
			<ellipse class="parch120" cx="100.5" cy="157.8" rx="28.3" ry="5.3"/>
			<ellipse class="parch121" cx="100.5" cy="157.8" rx="28.1" ry="5.2"/>
			<ellipse class="parch122" cx="100.5" cy="157.8" rx="27.9" ry="5.2"/>
			<ellipse class="parch123" cx="100.5" cy="157.8" rx="27.7" ry="5.2"/>
			<ellipse class="parch124" cx="100.5" cy="157.8" rx="27.6" ry="5.1"/>
			<ellipse class="parch125" cx="100.5" cy="157.8" rx="27.4" ry="5.1"/>
			<ellipse class="parch126" cx="100.5" cy="157.8" rx="27.2" ry="5.1"/>
			<ellipse class="parch127" cx="100.5" cy="157.8" rx="27" ry="5"/>
			<ellipse class="parch128" cx="100.5" cy="157.8" rx="26.8" ry="5"/>
			<ellipse class="parch129" cx="100.5" cy="157.8" rx="26.7" ry="5"/>
			<ellipse class="parch130" cx="100.5" cy="157.8" rx="26.5" ry="4.9"/>
			<ellipse class="parch131" cx="100.5" cy="157.8" rx="26.3" ry="4.9"/>
			<ellipse class="parch132" cx="100.5" cy="157.8" rx="26.1" ry="4.9"/>
			<ellipse class="parch133" cx="100.5" cy="157.8" rx="26" ry="4.8"/>
			<ellipse class="parch134" cx="100.5" cy="157.8" rx="25.8" ry="4.8"/>
			<ellipse class="parch135" cx="100.5" cy="157.8" rx="25.6" ry="4.8"/>
			<ellipse class="parch136" cx="100.5" cy="157.8" rx="25.4" ry="4.7"/>
			<ellipse class="parch137" cx="100.5" cy="157.8" rx="25.2" ry="4.7"/>
			<ellipse class="parch138" cx="100.5" cy="157.8" rx="25.1" ry="4.7"/>
			<ellipse class="parch139" cx="100.5" cy="157.8" rx="24.9" ry="4.6"/>
			<ellipse class="parch140" cx="100.5" cy="157.8" rx="24.7" ry="4.6"/>
			<ellipse class="parch141" cx="100.5" cy="157.8" rx="24.5" ry="4.6"/>
			<ellipse class="parch142" cx="100.5" cy="157.8" rx="24.4" ry="4.5"/>
			<ellipse class="parch142" cx="100.5" cy="157.8" rx="24.2" ry="4.5"/>
			<ellipse class="parch143" cx="100.5" cy="157.8" rx="24" ry="4.5"/>
			<ellipse class="parch144" cx="100.5" cy="157.8" rx="23.8" ry="4.4"/>
			<ellipse class="parch145" cx="100.5" cy="157.8" rx="23.6" ry="4.4"/>
			<ellipse class="parch146" cx="100.5" cy="157.8" rx="23.5" ry="4.4"/>
			<ellipse class="parch147" cx="100.5" cy="157.8" rx="23.3" ry="4.3"/>
			<ellipse class="parch148" cx="100.5" cy="157.8" rx="23.1" ry="4.3"/>
			<ellipse class="parch149" cx="100.5" cy="157.8" rx="22.9" ry="4.3"/>
			<ellipse class="parch150" cx="100.5" cy="157.8" rx="22.8" ry="4.2"/>
			<ellipse class="parch150" cx="100.5" cy="157.8" rx="22.6" ry="4.2"/>
			<ellipse class="parch151" cx="100.5" cy="157.8" rx="22.4" ry="4.2"/>
			<ellipse class="parch151" cx="100.5" cy="157.8" rx="22.2" ry="4.1"/>
			<ellipse class="parch152" cx="100.5" cy="157.8" rx="22" ry="4.1"/>
			<ellipse class="parch153" cx="100.5" cy="157.8" rx="21.9" ry="4.1"/>
			<ellipse class="parch154" cx="100.5" cy="157.8" rx="21.7" ry="4"/>
			<ellipse class="parch155" cx="100.5" cy="157.8" rx="21.5" ry="4"/>
			<ellipse class="parch156" cx="100.5" cy="157.8" rx="21.3" ry="4"/>
			<ellipse class="parch157" cx="100.5" cy="157.8" rx="21.2" ry="3.9"/>
			<ellipse class="parch158" cx="100.5" cy="157.8" rx="21" ry="3.9"/>
			<ellipse class="parch159" cx="100.5" cy="157.8" rx="20.8" ry="3.9"/>
			<ellipse class="parch159" cx="100.5" cy="157.8" rx="20.6" ry="3.8"/>
			<ellipse class="parch160" cx="100.5" cy="157.8" rx="20.4" ry="3.8"/>
			<ellipse class="parch160" cx="100.5" cy="157.8" rx="20.3" ry="3.8"/>
			<ellipse class="parch161" cx="100.5" cy="157.8" rx="20.1" ry="3.7"/>
			<ellipse class="parch161" cx="100.5" cy="157.8" rx="19.9" ry="3.7"/>
			<ellipse class="parch162" cx="100.5" cy="157.8" rx="19.7" ry="3.7"/>
			<ellipse class="parch163" cx="100.5" cy="157.8" rx="19.6" ry="3.6"/>
			<ellipse class="parch164" cx="100.5" cy="157.8" rx="19.4" ry="3.6"/>
			<ellipse class="parch165" cx="100.5" cy="157.8" rx="19.2" ry="3.6"/>
			<ellipse class="parch166" cx="100.5" cy="157.8" rx="19" ry="3.5"/>
			<ellipse class="parch167" cx="100.5" cy="157.8" rx="18.8" ry="3.5"/>
			<ellipse class="parch167" cx="100.5" cy="157.8" rx="18.7" ry="3.5"/>
			<ellipse class="parch168" cx="100.5" cy="157.8" rx="18.5" ry="3.4"/>
			<ellipse class="parch168" cx="100.5" cy="157.8" rx="18.3" ry="3.4"/>
			<ellipse class="parch169" cx="100.5" cy="157.8" rx="18.1" ry="3.4"/>
			<ellipse class="parch170" cx="100.5" cy="157.8" rx="17.9" ry="3.3"/>
			<ellipse class="parch171" cx="100.5" cy="157.8" rx="17.8" ry="3.3"/>
			<ellipse class="parch172" cx="100.5" cy="157.8" rx="17.6" ry="3.3"/>
			<ellipse class="parch173" cx="100.5" cy="157.8" rx="17.4" ry="3.2"/>
			<ellipse class="parch174" cx="100.5" cy="157.8" rx="17.2" ry="3.2"/>
			<ellipse class="parch174" cx="100.5" cy="157.8" rx="17.1" ry="3.2"/>
			<ellipse class="parch175" cx="100.5" cy="157.8" rx="16.9" ry="3.1"/>
			<ellipse class="parch175" cx="100.5" cy="157.8" rx="16.7" ry="3.1"/>
			<ellipse class="parch176" cx="100.5" cy="157.8" rx="16.5" ry="3.1"/>
			<ellipse class="parch177" cx="100.5" cy="157.8" rx="16.3" ry="3"/>
			<ellipse class="parch178" cx="100.5" cy="157.8" rx="16.2" ry="3"/>
			<ellipse class="parch179" cx="100.5" cy="157.8" rx="16" ry="3"/>
			<ellipse class="parch180" cx="100.5" cy="157.8" rx="15.8" ry="2.9"/>
			<ellipse class="parch181" cx="100.5" cy="157.8" rx="15.6" ry="2.9"/>
			<ellipse class="parch182" cx="100.5" cy="157.8" rx="15.5" ry="2.9"/>
			<ellipse class="parch183" cx="100.5" cy="157.8" rx="15.3" ry="2.8"/>
			<ellipse class="parch183" cx="100.5" cy="157.8" rx="15.1" ry="2.8"/>
			<ellipse class="parch184" cx="100.5" cy="157.8" rx="14.9" ry="2.8"/>
		</g>
		<linearGradient id="PARCH_ID_1_" gradientUnits="userSpaceOnUse" x1="100.5652" y1="174.2345" x2="100.5652" y2="167.9311">
			<stop  offset="0" style="stop-color:#4C4C4C"/>
			<stop  offset="1" style="stop-color:#000000"/>
		</linearGradient>
		<path class="parch185" d="M75.7,170.3l-0.2,4.6h50.1l-0.8-5.1c-0.3-1.6-1.6-2.9-3.3-2.9H79C77.2,167.1,75.7,168.6,75.7,170.3z"/>
		<linearGradient id="PARCH_ID_2_" gradientUnits="userSpaceOnUse" x1="100.5652" y1="173.8415" x2="100.5652" y2="177.8829">
			<stop  offset="0" style="stop-color:#4C4C4C"/>
			<stop  offset="1" style="stop-color:#000000"/>
		</linearGradient>
		<polygon class="parch186" points="75.5,175 76,179.2 99.5,180.3 125,179.2 125.6,175 		"/>
		<linearGradient id="PARCH_ID_3_" gradientUnits="userSpaceOnUse" x1="87.5299" y1="173.7923" x2="87.5299" y2="162.6229">
			<stop  offset="0" style="stop-color:#4C4C4C"/>
			<stop  offset="1" style="stop-color:#000000"/>
		</linearGradient>
		<path class="parch187" d="M75.7,170.4l-0.2,4.6h18.2l5.8-8H79.2C77.3,167,75.7,168.6,75.7,170.4z"/>
		
			<linearGradient id="PARCH_ID_4_" gradientUnits="userSpaceOnUse" x1="84.5459" y1="-563.0828" x2="84.5459" y2="-567.9333" gradientTransform="matrix(1 0 0 -1 0 -388.0631)">
			<stop  offset="0" style="stop-color:#4C4C4C"/>
			<stop  offset="1" style="stop-color:#000000"/>
		</linearGradient>
		<polygon class="parch188" points="75.5,175 76,179.2 84.8,179.7 91.8,175.9 93.6,175 		"/>
		<path class="parch0" d="M117.9,168.8c2,0,3.6,0.5,3.6,1.1c0,0.6-1.7,1.1-3.6,1.1c-1.9,0-3.6-0.5-3.6-1.1
			C114.3,169.3,115.9,168.8,117.9,168.8z"/>
		<path class="parch189" d="M117.9,168.8c1.9,0,3.3,0.5,3.3,0.9s-1.4,0.9-3.3,0.9c-1.7,0-3.3-0.5-3.3-0.9S116.2,168.8,117.9,168.8z"/>
		<path class="parch190" d="M117.9,169.2c1.4,0,2.7,0.3,2.7,0.8s-1.3,0.8-2.7,0.8c-1.4,0-2.7-0.3-2.7-0.8
			C115.4,169.5,116.5,169.2,117.9,169.2z"/>
		<path class="parch191" d="M117.9,169.3c0.9,0,1.7,0.3,1.7,0.6c0,0.3-0.8,0.6-1.7,0.6c-0.9,0-1.7-0.3-1.7-0.6
			C116.2,169.6,117,169.3,117.9,169.3z"/>
		<path class="parch192" d="M117.9,169.3c0.9,0,1.6,0.2,1.6,0.5s-0.6,0.5-1.6,0.5c-0.9,0-1.6-0.2-1.6-0.5
			C116.3,169.5,117.1,169.3,117.9,169.3z"/>
		<path class="parch0" d="M108.2,168.8c2,0,3.6,0.5,3.6,1.1c0,0.6-1.7,1.1-3.6,1.1s-3.6-0.5-3.6-1.1
			C104.6,169.3,106.1,168.8,108.2,168.8z"/>
		<path class="parch189" d="M108.2,168.8c1.7,0,3.3,0.5,3.3,0.9s-1.4,0.9-3.3,0.9c-1.7,0-3.3-0.5-3.3-0.9
			C105,169.3,106.5,168.8,108.2,168.8z"/>
		<path class="parch190" d="M108.2,169.2c1.4,0,2.7,0.3,2.7,0.8s-1.3,0.8-2.7,0.8s-2.7-0.3-2.7-0.8
			C105.7,169.5,106.8,169.2,108.2,169.2z"/>
		<path class="parch191" d="M108.2,169.3c0.9,0,1.7,0.3,1.7,0.6c0,0.3-0.8,0.6-1.7,0.6s-1.7-0.3-1.7-0.6
			C106.5,169.6,107.2,169.3,108.2,169.3z"/>
		<path class="parch192" d="M108.2,169.3c0.9,0,1.6,0.2,1.6,0.5s-0.6,0.5-1.6,0.5s-1.6-0.2-1.6-0.5
			C106.6,169.5,107.4,169.3,108.2,169.3z"/>
		<path class="parch0" d="M82,178.4c2,0,3.6-0.6,3.6-1.4s-1.7-1.4-3.6-1.4c-2,0-3.6,0.6-3.6,1.4S79.9,178.4,82,178.4z"/>
		<path class="parch189" d="M82,178.3c1.9,0,3.3-0.5,3.3-1.3c0-0.6-1.4-1.3-3.3-1.3c-1.7,0-3.3,0.5-3.3,1.3
			C78.7,177.6,80.1,178.3,82,178.3z"/>
		<path class="parch190" d="M82,177.9c1.4,0,2.7-0.5,2.7-0.9s-1.3-0.9-2.7-0.9s-2.7,0.5-2.7,0.9S80.5,177.9,82,177.9z"/>
		<path class="parch192" d="M82,177.6c0.9,0,1.6-0.3,1.6-0.6s-0.6-0.6-1.6-0.6c-0.9,0-1.6,0.3-1.6,0.6C80.4,177.5,81.2,177.6,82,177.6z
			"/>
	</g>
	<g>
		<linearGradient id="PARCH_ID_5_" gradientUnits="userSpaceOnUse" x1="101.1142" y1="191.4765" x2="101.1142" y2="92.1195">
			<stop  offset="0" style="stop-color:var(--vitamui-primary-900)"/>
			<stop  offset="1" style="stop-color:var(--vitamui-primary)"/>
		</linearGradient>
		<path class="parch193" d="M160.2,100.7c-2.3-3.1-6.5-4.3-9.9-5.9c-7-2.8-14-6-20.9-9.8v0c-1.1-0.6-2.2-1.2-3.3-1.8
			c-4.6-2.6-9.9-8.8-11.4-12.1h-13.6H87.5c-1.5,3.3-6.8,9.5-11.4,12.1c-0.8,0.5-1.6,0.9-2.5,1.4l-2,1.1c-6.5,3.5-13.1,6.5-19.7,9.1
			c-3.4,1.6-7.6,2.8-9.9,5.9c-1.8,4-3.2,10.4-3.9,18.4c2.8,10.2,9.9,19.2,19.8,26c0,0,0,0,0,0l1.8-32l0-0.3l1,12.5l0,0.2l0-0.2
			l0,0.5l2.7,22.7c4.6,2.5,9.7,4.6,15.2,6.1c7,1.9,14.5,3,22.3,3c7.8,0,15.3-1.1,22.3-3c5.5-1.5,10.6-3.6,15.2-6.1l2.6-21.8l0-1.4
			l1-12.5l0,0.3l1.8,32.1c0,0,0,0,0,0c10-6.7,17.1-15.8,19.9-26C163.3,111.1,162,104.7,160.2,100.7z"/>
		<linearGradient id="PARCH_ID_6_" gradientUnits="userSpaceOnUse" x1="101.1142" y1="60.3428" x2="101.1142" y2="125.3508">
			<stop  offset="0" style="stop-color:var(--vitamui-primary-900)"/>
			<stop  offset="1" style="stop-color:var(--vitamui-primary)"/>
		</linearGradient>
		<path class="parch194" d="M93.8,106.1c4.9,0.7,9.8,0.7,14.7,0c10-2.1,15.3-12.1,20.9-21.1c-1.1-0.6-2.2-1.2-3.3-1.8
			c-4.6-2.6-9.9-8.8-11.4-12.1h-13.6H87.5c-1.5,3.3-6.8,9.5-11.4,12.1c-1.1,0.6-2.2,1.2-3.3,1.8C78.4,94,83.7,104,93.8,106.1z
			 M88.1,71.9h3c6.8,2.7,13.4,2.5,20.1,0h2.9c0.9,2.1,3.3,5.3,6.1,8.1C118.5,90,112.3,92,101,101.5c-11.8-9.8-17.2-11.8-18.8-21.6
			C84.9,77.1,87.2,73.9,88.1,71.9z"/>
		<g>
			<path class="parch195" d="M60.9,125.4l0-0.2l-1-12.2l-1.8,32c1.1,0.7,2.3,1.5,3.4,2.2l-0.6-21.5L60.9,125.4z"/>
			<path class="parch195" d="M144.1,145.1l-1.8-32.1l-1,12.2l0,1.4l0.2-1.4l-0.6,22C142,146.5,143.1,145.8,144.1,145.1z"/>
		</g>
		<linearGradient id="PARCH_ID_7_" gradientUnits="userSpaceOnUse" x1="99.981" y1="109.7076" x2="101.9044" y2="59.0907">
			<stop  offset="0" style="stop-color:var(--vitamui-primary-900)"/>
			<stop  offset="1" style="stop-color:var(--vitamui-primary)"/>
		</linearGradient>
		<path class="parch196" d="M101,101.5c-11.8-9.8-17.2-11.8-18.8-21.6c2.7-2.7,5.1-5.9,6-8h3c6.8,2.7,13.4,2.5,20.1,0h2.9
			c0.9,2.1,3.3,5.3,6.1,8.1C118.5,90,112.3,92,101,101.5z"/>
		<linearGradient id="PARCH_ID_8_" gradientUnits="userSpaceOnUse" x1="101.1142" y1="78.4083" x2="101.1142" y2="93.3961">
			<stop  offset="0" style="stop-color:#4C4C4C"/>
			<stop  offset="0.7896" style="stop-color:#9B9A9B"/>
		</linearGradient>
		<path class="parch197" d="M118.7,80.1c-2.6-2.5-4.8-5.4-5.6-7.2h-2.7c-6.1,2.2-12.3,2.4-18.6,0h-2.8c-0.8,1.9-3,4.7-5.6,7.2
			c1.5,8.9,6.6,10.6,17.5,19.5C111.5,91,117.2,89.2,118.7,80.1z"/>
		<g>
			<linearGradient id="PARCH_ID_9_" gradientUnits="userSpaceOnUse" x1="74.617" y1="23.2491" x2="130.5688" y2="81.0522">
				<stop  offset="0" style="stop-color:#F5F5F5"/>
				<stop  offset="0.7896" style="stop-color:#9B9A9B"/>
			</linearGradient>
			<path class="parch198" d="M125.9,38.4c0-0.4,0-0.7-0.1-1.1c-0.9-10.4-11.6-18.7-24.6-18.7c-12.7,0-23.2,7.8-24.6,17.9
				c-0.1,0.6-0.2,1.2-0.2,1.9c-0.2,11.1-2.1,23.5,2.5,30.4c5.2,7.7,8.7,15.3,17.2,17c3.3,0.5,6.7,0.5,10,0c8.5-1.8,12-9.3,17.2-17
				C128,61.9,126,49.6,125.9,38.4z"/>
			<g>
				
					<linearGradient id="PARCH_ID_10_" gradientUnits="userSpaceOnUse" x1="-20758.3438" y1="-3491.1619" x2="-20753.0566" y2="-3476.5186" gradientTransform="matrix(-1 0 0 -1 -20656 -3452.8472)">
					<stop  offset="0" style="stop-color:#FFFFFF;stop-opacity:0"/>
					<stop  offset="1" style="stop-color:#FFFFFF"/>
				</linearGradient>
				<ellipse class="parch199" cx="101.1" cy="34.9" rx="19.9" ry="12"/>
				<linearGradient id="PARCH_ID_11_" gradientUnits="userSpaceOnUse" x1="100.3133" y1="47.6138" x2="133.8432" y2="56.4591">
					<stop  offset="0" style="stop-color:#FFFFFF;stop-opacity:0"/>
					<stop  offset="1" style="stop-color:#FFFFFF"/>
				</linearGradient>
				<path class="parch200" d="M117.5,28.1c6.9,5,3.3,19.7-6.7,31c-8.6,9.7-18.8,13.1-23.7,8.8c-4.8-4.2-3.6-15,3.3-25.4
					C98.2,30.6,110.8,23.3,117.5,28.1z"/>
			</g>
		</g>
		<linearGradient id="PARCH_ID_12_" gradientUnits="userSpaceOnUse" x1="101.1692" y1="119.1311" x2="102.0104" y2="86.0334">
			<stop  offset="0" style="stop-color:#FFFFFF;stop-opacity:0"/>
			<stop  offset="1" style="stop-color:#FFFFFF"/>
		</linearGradient>
		<path class="parch201" d="M105.1,113c-20.3-0.9-38.5,2.8-37.6,8.2c0.9,5.2,19.3,8.9,38.4,8.5c16.6-0.4,28.7-3.8,28.8-7.8
			C134.9,117.7,122.6,113.8,105.1,113z"/>
	</g>
	<linearGradient id="PARCH_ID_13_" gradientUnits="userSpaceOnUse" x1="124.8678" y1="11.5773" x2="-24.0111" y2="236.4287">
		<stop  offset="0" style="stop-color:var(--vitamui-primary-900)"/>
		<stop  offset="1" style="stop-color:var(--vitamui-primary)"/>
	</linearGradient>
	<path class="parch202" d="M64.3,111.1c8.6,0.3,16.8-2.5,23.4-7.4c-2.8-1.7-5.1-4.1-7.2-6.9c-5.2,3.5-11.4,5.6-17.9,5.5
		c-5.9-0.1-11.2-1.9-15.5-4.9c0,0,0,0,0,0c-0.8,0.2-1.5,0.5-2.2,0.8c-1.1,0.7-2.1,1.5-2.9,2.5c-0.1,0.2-0.2,0.5-0.3,0.8
		c3.1,3.1,6.9,5.6,11.1,7.3L44,131.3c2.2,3.3,4.9,6.3,8.1,9.1l7.4-18.7l0.5-8.6l0-0.3l0.5,6.4l3.2-8C63.8,111,64.1,111.1,64.3,111.1
		z"/>
	<linearGradient id="PARCH_ID_14_" gradientUnits="userSpaceOnUse" x1="68.3158" y1="128.2939" x2="130.4447" y2="27.2618">
		<stop  offset="0" style="stop-color:var(--vitamui-primary-900)"/>
		<stop  offset="1" style="stop-color:var(--vitamui-primary)"/>
	</linearGradient>
	<path class="parch203" d="M95,96.7c-3.1-2.4-5.6-4.4-7.5-6.3c-2,2.4-4.3,4.6-6.9,6.4c2.1,2.8,4.5,5.2,7.2,6.9
		C90.4,101.6,92.9,99.3,95,96.7z"/>
	<path class="parch195" d="M88.2,89.4c-0.3,0.3-0.5,0.7-0.8,1c1.9,1.9,4.4,3.9,7.5,6.3c0.3-0.4,0.6-0.7,0.9-1.1
		C92.7,93.1,90.2,91.3,88.2,89.4z"/>
	<linearGradient id="PARCH_ID_15_" gradientUnits="userSpaceOnUse" x1="104.8907" y1="72.8052" x2="-165.7035" y2="481.4829">
		<stop  offset="0" style="stop-color:#4C4C4C"/>
		<stop  offset="0.7896" style="stop-color:#9B9A9B"/>
	</linearGradient>
	<path class="parch204" d="M91.4,84c-0.9,1.8-2,3.6-3.2,5.2c1.9,1.9,4.4,3.8,7.6,6.2c2.1-2.8,3.8-6,5.1-9.3c-1.6,0-3.2-0.1-4.8-0.3
		C94.4,85.5,92.8,84.8,91.4,84z"/>
	<linearGradient id="PARCH_ID_16_" gradientUnits="userSpaceOnUse" x1="102.749" y1="92.7016" x2="89.0071" y2="51.6694">
		<stop  offset="0" style="stop-color:#4C4C4C"/>
		<stop  offset="0.7896" style="stop-color:#9B9A9B"/>
	</linearGradient>
	<path class="parch205" d="M103.2,74.4c-1.4-24-17.8-32.9-17.8-32.9l9.2,32.2c-0.1,0-0.1,0-0.2,0c-0.4,3.7-1.4,7.2-3,10.4
		c1.4,0.8,2.9,1.4,4.7,1.8c1.6,0.2,3.2,0.3,4.8,0.3c1.1-3,1.9-6.1,2.2-9.4C103.2,76,103.2,75.2,103.2,74.4z"/>
	<g>
		<g>
			<linearGradient id="PARCH_ID_17_" gradientUnits="userSpaceOnUse" x1="21.8149" y1="3.0784" x2="123.9308" y2="108.5731">
				<stop  offset="0" style="stop-color:#F5F5F5"/>
				<stop  offset="0.7896" style="stop-color:#9B9A9B"/>
			</linearGradient>
			<path class="parch206" d="M89.5,63c0-0.2,0-0.5,0-0.7c0-0.1,0-0.3,0-0.4c0-0.1,0-0.3,0-0.4c0-0.6-0.1-1.2-0.2-1.7
				c0-0.1,0-0.3-0.1-0.4c0-0.3-0.1-0.7-0.2-1c0-0.2,0-0.3-0.1-0.5c-0.3-1.8-0.9-3.6-1.6-5.2c-0.8-1.9-1.8-3.7-2.9-5.4
				c-4.7-3.9-10.7-6.3-17.6-6.3c-1.1,0-2.2,0-3.2,0.1c-3.9,0.4-7.6,1.5-11,3.1c0.6,4.3,1.6,8.1,3.7,11.1c2.4,3.6,4.5,7.1,6.8,10.3
				c0,0,0,0,0,0c0.3,0.4,0.6,0.8,0.9,1.2v0c0.3,0.5,0.7,0.9,1,1.4c3.8,5,8.2,8.9,14.8,10.3c1.8,0.2,3.6,0.4,5.3,0.4
				c2.3-3.9,3.7-8.3,4.2-12.9c0-0.4,0.1-0.7,0.1-1.1c0-0.2,0-0.4,0-0.6c0-0.4,0-0.7,0-1.1C89.5,63.1,89.5,63.1,89.5,63z"/>
			<path class="parch207" d="M49.3,76.7c1.1-0.6,2.2-1.2,3.4-1.9c3.6-2,7.5-5.7,10.6-9.2c-2.2-3.2-4.4-6.8-6.8-10.3
				c-2-3-3.1-6.8-3.7-11.1c-10,4.9-17.4,14.8-18.5,26.3c-0.1,1.3-0.1,2.6-0.1,3.8c0.1,1,0.2,2,0.4,3c-0.1-0.4-0.2-0.7-0.2-1.1
				c0.3,2.6,0.9,5.1,1.8,7.4c3.5-1.7,7-3.4,10.5-5.3L49.3,76.7z"/>
			<linearGradient id="PARCH_ID_18_" gradientUnits="userSpaceOnUse" x1="48.2036" y1="222.1951" x2="48.2036" y2="86.9496">
				<stop  offset="0" style="stop-color:var(--vitamui-primary-900)"/>
				<stop  offset="1" style="stop-color:var(--vitamui-primary)"/>
			</linearGradient>
			<path class="parch208" d="M41.2,90.7c0.3,0.2,0.6,0.4,0.9,0.6c0.2,0.1,0.4,0.3,0.6,0.4c0.4,0.3,0.9,0.5,1.3,0.7
				c0.3,0.1,0.6,0.3,0.8,0.4c0.2,0.1,0.5,0.2,0.7,0.3c0.3,0.1,0.6,0.3,1,0.4c0.1,0,0.2,0.1,0.4,0.1c0.7,0.3,1.4,0.5,2.2,0.7
				c0.1,0,0.2,0.1,0.4,0.1c2.3,0.6,4.7,1,7.2,1c1.2,0,2.4-0.1,3.6-0.2c-4.5-5.3-8.2-11.8-12.1-18c0.4-0.2,0.7-0.4,1.1-0.6l-2.8,1.5
				c-3.5,1.9-7,3.6-10.5,5.3c0.8,2,1.8,3.9,3.1,5.7C39.8,89.7,40.5,90.2,41.2,90.7z"/>
			<linearGradient id="PARCH_ID_19_" gradientUnits="userSpaceOnUse" x1="61.38" y1="43.6947" x2="61.38" y2="132.1842">
				<stop  offset="0" style="stop-color:var(--vitamui-primary-900)"/>
				<stop  offset="1" style="stop-color:var(--vitamui-primary)"/>
			</linearGradient>
			<path class="parch209" d="M74.5,90.1c-7.9-6.3-12.1-10.4-13.6-19.9c1.1-1.1,2.2-2.3,3.2-3.5c-0.3-0.4-0.6-0.8-0.9-1.2
				c-3.1,3.6-7,7.2-10.6,9.2c-1.1,0.6-2.2,1.2-3.4,1.9l0,0c-0.4,0.2-0.7,0.4-1.1,0.6c3.9,6.2,7.6,12.7,12.1,18
				c4.9-0.5,9.5-2.2,13.6-4.8C74.1,90.4,74.3,90.2,74.5,90.1z"/>
			<linearGradient id="PARCH_ID_20_" gradientUnits="userSpaceOnUse" x1="67.3509" y1="110.2129" x2="69.9691" y2="41.3128">
				<stop  offset="0" style="stop-color:var(--vitamui-primary-900)"/>
				<stop  offset="1" style="stop-color:var(--vitamui-primary)"/>
			</linearGradient>
			<path class="parch210" d="M62.7,70.6c0.8-0.8,1.6-1.6,2.4-2.4c-0.3-0.4-0.7-0.9-1-1.4c-1,1.2-2.1,2.4-3.2,3.5
				c1.5,9.4,5.7,13.6,13.6,19.9c0.5-0.4,1.1-0.7,1.6-1.1C68.3,83,64.2,79.3,62.7,70.6z"/>
			<linearGradient id="PARCH_ID_21_" gradientUnits="userSpaceOnUse" x1="73.9892" y1="68.2857" x2="73.9892" y2="88.6871">
				<stop  offset="0" style="stop-color:#4C4C4C"/>
				<stop  offset="0.7896" style="stop-color:#9B9A9B"/>
			</linearGradient>
			<path class="parch211" d="M85.2,78.8c-1.8-0.1-3.6-0.2-5.3-0.4c-6.6-1.4-11-5.2-14.8-10.3c-0.8,0.8-1.5,1.7-2.4,2.4
				C64.2,79.3,68.3,83,76.1,89C79.8,86.3,82.9,82.8,85.2,78.8z"/>
		</g>
		<g>
			
				<linearGradient id="PARCH_ID_22_" gradientUnits="userSpaceOnUse" x1="246.5242" y1="60.6357" x2="308.481" y2="124.6424" gradientTransform="matrix(0.9981 6.100544e-02 -6.100256e-02 0.9981 -223.4489 -57.5538)">
				<stop  offset="0" style="stop-color:#E5E4E4"/>
				<stop  offset="0.7896" style="stop-color:#4C4C4C"/>
			</linearGradient>
			<path class="parch212" d="M58.5,103.6c19.6,0.7,37-14.7,38.8-34.3c1.8-19.6-12.6-36-32.2-36.6c-19.6-0.7-37,14.7-38.8,34.3
				C24.5,86.5,38.9,102.9,58.5,103.6z M35,70.3c1.5-16.1,15.8-29,31.9-28.8C83,41.7,94.8,54.9,93.3,70.9
				c-1.5,16.1-15.8,29-31.9,28.8C45.3,99.5,33.5,86.4,35,70.3z"/>
			<path class="parch213" d="M52.3,36.3c0.3,0.3-8.4,3.2-13.3,8.5c-4.9,5.4-7.7,11.9-8,11.6c-0.3-0.3,1.9-6.8,6.9-12.1
				C42.8,39,52,36,52.3,36.3z"/>
			<g>
				<g>
					<path class="parch213" d="M73.1,40.1c-9.3-2.7-19.8-0.6-27.8,6.7c-8.4,7.7-11.9,19.3-10.1,30c-2.7-10.9,0.4-23.1,9.1-31.1
						C52.6,38.3,63.6,36.5,73.1,40.1z"/>
				</g>
			</g>
			<g>
				<g>
					
						<linearGradient id="PARCH_ID_23_" gradientUnits="userSpaceOnUse" x1="204.5612" y1="120.5701" x2="267.0016" y2="185.0765" gradientTransform="matrix(0.9467 -0.3221 0.3221 0.9467 -208.6366 0.4112)">
						<stop  offset="0" style="stop-color:#F5F5F5"/>
						<stop  offset="0.7896" style="stop-color:#9B9A9B"/>
					</linearGradient>
					<path class="parch214" d="M65.2,32.7c-19.6-0.7-37,14.7-38.8,34.3c-1.8,19.6,12.6,36,32.2,36.6c19.6,0.7,37-14.7,38.8-34.3
						C99.1,49.8,84.8,33.4,65.2,32.7z M88.7,66c-1.5,16.1-15.8,29-31.9,28.8c-16.1-0.2-27.9-13.4-26.4-29.4
						c1.5-16.1,15.8-29,31.9-28.8C78.4,36.7,90.2,49.9,88.7,66z"/>
				</g>
				<g>
					<linearGradient id="PARCH_ID_24_" gradientUnits="userSpaceOnUse" x1="-33.2615" y1="10.6725" x2="75.0371" y2="76.1097">
						<stop  offset="0" style="stop-color:#F5F5F5"/>
						<stop  offset="0.21" style="stop-color:#9B9A9B"/>
						<stop  offset="0.46" style="stop-color:#F5F5F5"/>
						<stop  offset="0.74" style="stop-color:#BCB9BA"/>
						<stop  offset="1" style="stop-color:#F5F5F5"/>
					</linearGradient>
					<path class="parch215" d="M65.2,32.7c-19.6-0.7-37,14.7-38.8,34.3c-1.8,19.6,12.6,36,32.2,36.6c19.6,0.7,37-14.7,38.8-34.3
						C99.1,49.8,84.8,33.4,65.2,32.7z M88.7,66c-1.5,16.1-15.8,29-31.9,28.8c-16.1-0.2-27.9-13.4-26.4-29.4
						c1.5-16.1,15.8-29,31.9-28.8C78.4,36.7,90.2,49.9,88.7,66z"/>
				</g>
			</g>
			<linearGradient id="PARCH_ID_25_" gradientUnits="userSpaceOnUse" x1="101.7293" y1="32.1526" x2="27.1309" y2="144.3774">
				<stop  offset="0" style="stop-color:#F5F5F5"/>
				<stop  offset="0.21" style="stop-color:#9B9A9B"/>
				<stop  offset="0.46" style="stop-color:#F5F5F5"/>
				<stop  offset="0.74" style="stop-color:#BCB9BA"/>
				<stop  offset="1" style="stop-color:#F5F5F5"/>
			</linearGradient>
			<path class="parch216" d="M58.5,103.6c19.6,0.7,37-14.7,38.8-34.3c0.6-6.1-0.4-11.8-2.6-16.9c2.2,8.2-6.4,5.4-6.4,5.4l0,0
				c0.5,2.6,0.7,5.3,0.4,8.2c-1.5,16.1-15.8,29-31.9,28.8c-5.9-0.1-11.2-1.9-15.5-4.9c0,0,0,0,0,0c-3.1,0.9-4.9,2.2-5.9,3.6
				C41.2,99.5,49.3,103.3,58.5,103.6z"/>
			<path class="parch213" d="M82.1,42.6c7.8,8.5,10.8,20.2,7,31.6c-4,12-14.8,20.6-27.4,23.4c13.2-1.9,24.8-10.5,29-22.9
				C94.7,62.9,90.9,50.7,82.1,42.6z"/>
			<path class="parch52" d="M86.3,41.6c7.7,8.5,10.8,20.7,7.3,33c-3.8,13-14.1,22.8-26.3,26.6c12.9-2.9,24-12.7,27.9-26.2
				C98.8,62.4,95,49.7,86.3,41.6z"/>
			
				<linearGradient id="PARCH_ID_26_" gradientUnits="userSpaceOnUse" x1="223.988" y1="180.9637" x2="205.7092" y2="187.0938" gradientTransform="matrix(0.9467 -0.3221 0.3221 0.9467 -208.6366 0.4112)">
				<stop  offset="0" style="stop-color:#BCB9BA"/>
				<stop  offset="0.7896" style="stop-color:#9B9A9B"/>
			</linearGradient>
			<path class="parch217" d="M54.4,97.5c0,0,7.4-0.7,13.3,5.3c0,0-7,1.7-12.3,0.4c-0.7-2.7-0.9-5.1-0.9-5.1"/>
			<linearGradient id="PARCH_ID_27_" gradientUnits="userSpaceOnUse" x1="54.2397" y1="107.8618" x2="-16.1702" y2="214.2016">
				<stop  offset="0" style="stop-color:#F5F5F5"/>
				<stop  offset="0.21" style="stop-color:#9B9A9B"/>
				<stop  offset="0.74" style="stop-color:#4C4C4C"/>
				<stop  offset="1" style="stop-color:#4C4C4C"/>
			</linearGradient>
			<path class="parch218" d="M58.6,101.4c0.4-1.1-1.5-2.9-4.2-4c-2.7-1.1-5.3-1.1-5.8,0l0,0l-18.2,46.2c0,0,0,0,0,0c0,0,0,0,0,0l0,0
				l0,0c-0.4,1.1,1.4,3,4.2,4.1s5.4,1.1,5.8-0.1l0,0l0,0c0,0,0,0,0,0c0,0,0,0,0,0L58.6,101.4L58.6,101.4z"/>
			
				<linearGradient id="PARCH_ID_28_" gradientUnits="userSpaceOnUse" x1="195.4526" y1="207.367" x2="217.1912" y2="180.9908" gradientTransform="matrix(0.9467 -0.3221 0.3221 0.9467 -208.6366 0.4112)">
				<stop  offset="0" style="stop-color:#BCB9BA"/>
				<stop  offset="0.7896" style="stop-color:#9B9A9B"/>
			</linearGradient>
			<path class="parch219" d="M58.6,101.4c0.4-1.1-1.5-2.9-4.2-4c-2.7-1.1-6.2,30.6-6.2,30.6L58.6,101.4
				C58.6,101.5,58.6,101.5,58.6,101.4C58.6,101.5,58.6,101.5,58.6,101.4L58.6,101.4L58.6,101.4z"/>
		</g>
	</g>
	
		<linearGradient id="PARCH_ID_29_" gradientUnits="userSpaceOnUse" x1="-20722.0645" y1="-3516.3513" x2="-20716.3438" y2="-3500.5115" gradientTransform="matrix(-1 0 0 -1 -20656 -3452.8472)">
		<stop  offset="0" style="stop-color:#FFFFFF;stop-opacity:0"/>
		<stop  offset="1" style="stop-color:#FFFFFF"/>
	</linearGradient>
	<ellipse class="parch220" cx="64.7" cy="59.8" rx="19.9" ry="13.3"/>
</g>
</svg>
