<?xml version="1.0" encoding="utf-8"?>
<!-- Generator: Adobe Illustrator 25.2.1, SVG Export Plug-In . SVG Version: 6.00 Build 0)  -->
<!DOCTYPE svg PUBLIC "-//W3C//DTD SVG 1.1//EN" "http://www.w3.org/Graphics/SVG/1.1/DTD/svg11.dtd" [
	<!ENTITY ns_extend "http://ns.adobe.com/Extensibility/1.0/">
	<!ENTITY ns_ai "http://ns.adobe.com/AdobeIllustrator/10.0/">
	<!ENTITY ns_graphs "http://ns.adobe.com/Graphs/1.0/">
	<!ENTITY ns_vars "http://ns.adobe.com/Variables/1.0/">
	<!ENTITY ns_imrep "http://ns.adobe.com/ImageReplacement/1.0/">
	<!ENTITY ns_sfw "http://ns.adobe.com/SaveForWeb/1.0/">
	<!ENTITY ns_custom "http://ns.adobe.com/GenericCustomNamespace/1.0/">
	<!ENTITY ns_adobe_xpath "http://ns.adobe.com/XPath/1.0/">
]>
<svg version="1.1" id="Calque_1" xmlns:x="&ns_extend;" xmlns:i="&ns_ai;" xmlns:graph="&ns_graphs;"
	 xmlns="http://www.w3.org/2000/svg" xmlns:xlink="http://www.w3.org/1999/xlink" x="0px" y="0px" viewBox="0 0 200 200"
	 style="enable-background:new 0 0 200 200;" xml:space="preserve">
<style type="text/css">
	.arbi0{fill-rule:evenodd;clip-rule:evenodd;}
	.arbi1{fill-rule:evenodd;clip-rule:evenodd;fill:#BCB9BA;}
	.arbi2{fill-rule:evenodd;clip-rule:evenodd;fill:#F5F5F5;}
	.arbi3{fill-rule:evenodd;clip-rule:evenodd;fill:#E5E4E4;}
	.arbi4{fill:#BCB9BA;}
	.arbi5{fill:#BBB9BA;}
	.arbi6{fill:#BBB8B9;}
	.arbi7{fill:#BAB8B9;}
	.arbi8{fill:#B9B7B8;}
	.arbi9{fill:#B9B7B7;}
	.arbi10{fill:#B8B6B7;}
	.arbi11{fill:#B8B5B6;}
	.arbi12{fill:#B7B5B6;}
	.arbi13{fill:#B7B4B5;}
	.arbi14{fill:#B6B4B5;}
	.arbi15{fill:#B6B3B4;}
	.arbi16{fill:#B5B3B4;}
	.arbi17{fill:#B4B2B3;}
	.arbi18{fill:#B3B1B2;}
	.arbi19{fill:#B3B1B1;}
	.arbi20{fill:#B2B0B1;}
	.arbi21{fill:#B2AFB0;}
	.arbi22{fill:#B1AFB0;}
	.arbi23{fill:#B1AEAF;}
	.arbi24{fill:#B0AEAF;}
	.arbi25{fill:#AFADAE;}
	.arbi26{fill:#AEACAD;}
	.arbi27{fill:#ADABAC;}
	.arbi28{fill:#ADABAB;}
	.arbi29{fill:#ACAAAB;}
	.arbi30{fill:#ACAAAA;}
	.arbi31{fill:#ABA9AA;}
	.arbi32{fill:#AAA8A9;}
	.arbi33{fill:#A9A7A8;}
	.arbi34{fill:#A8A6A7;}
	.arbi35{fill:#A7A5A6;}
	.arbi36{fill:#A7A5A5;}
	.arbi37{fill:#A6A4A5;}
	.arbi38{fill:#A5A4A4;}
	.arbi39{fill:#A5A3A4;}
	.arbi40{fill:#A4A2A3;}
	.arbi41{fill:#A3A1A2;}
	.arbi42{fill:#A2A0A1;}
	.arbi43{fill:#A19FA0;}
	.arbi44{fill:#A09F9F;}
	.arbi45{fill:#A09E9F;}
	.arbi46{fill:#9F9E9E;}
	.arbi47{fill:#9F9D9E;}
	.arbi48{fill:#9E9D9D;}
	.arbi49{fill:#9E9C9D;}
	.arbi50{fill:#9D9B9C;}
	.arbi51{fill:#9C9A9B;}
	.arbi52{fill:#9B9A9B;}
	.arbi53{fill:#9B999A;}
	.arbi54{fill:#9A9999;}
	.arbi55{fill:#9A9899;}
	.arbi56{fill:#999898;}
	.arbi57{fill:#999798;}
	.arbi58{fill:#989797;}
	.arbi59{fill:#989697;}
	.arbi60{fill:#979596;}
	.arbi61{fill:#969596;}
	.arbi62{fill:#969495;}
	.arbi63{fill:#959495;}
	.arbi64{fill:#959394;}
	.arbi65{fill:#949393;}
	.arbi66{fill:#949293;}
	.arbi67{fill:#939292;}
	.arbi68{fill:#939192;}
	.arbi69{fill:#929191;}
	.arbi70{fill:#919091;}
	.arbi71{fill:#919090;}
	.arbi72{fill:#908F90;}
	.arbi73{fill:#908E8F;}
	.arbi74{fill:#8F8E8F;}
	.arbi75{fill:#8F8D8E;}
	.arbi76{fill:#8E8D8D;}
	.arbi77{fill:#8E8C8D;}
	.arbi78{fill:#8D8C8C;}
	.arbi79{fill:#8C8B8C;}
	.arbi80{fill:#8C8B8B;}
	.arbi81{fill:#8B8A8B;}
	.arbi82{fill:#8B8A8A;}
	.arbi83{fill:#8A898A;}
	.arbi84{fill:#8A8889;}
	.arbi85{fill:#898888;}
	.arbi86{fill:#898788;}
	.arbi87{fill:#888787;}
	.arbi88{fill:#878687;}
	.arbi89{fill:#878686;}
	.arbi90{fill:#868586;}
	.arbi91{fill:#868585;}
	.arbi92{fill:#858485;}
	.arbi93{fill:#858484;}
	.arbi94{fill:#848384;}
	.arbi95{fill:#848383;}
	.arbi96{fill:#838282;}
	.arbi97{fill:#828182;}
	.arbi98{fill:#828181;}
	.arbi99{fill:#818081;}
	.arbi100{fill:#818080;}
	.arbi101{fill:#807F80;}
	.arbi102{fill:#807F7F;}
	.arbi103{fill:#7F7E7F;}
	.arbi104{fill:#7F7E7E;}
	.arbi105{fill:#7E7D7E;}
	.arbi106{fill:#7D7D7D;}
	.arbi107{fill:#7D7C7C;}
	.arbi108{fill:#7C7B7C;}
	.arbi109{fill:#7C7B7B;}
	.arbi110{fill:#7B7A7B;}
	.arbi111{fill:#7B7A7A;}
	.arbi112{fill:#7A797A;}
	.arbi113{fill:#7A7979;}
	.arbi114{fill:#797879;}
	.arbi115{fill:#787878;}
	.arbi116{fill:#787778;}
	.arbi117{fill:#777777;}
	.arbi118{fill:#777676;}
	.arbi119{fill:#767676;}
	.arbi120{fill:#767575;}
	.arbi121{fill:#757475;}
	.arbi122{fill:#757474;}
	.arbi123{fill:#747374;}
	.arbi124{fill:#737373;}
	.arbi125{fill:#737273;}
	.arbi126{fill:#727272;}
	.arbi127{fill:#727172;}
	.arbi128{fill:#717171;}
	.arbi129{fill:#717070;}
	.arbi130{fill:#707070;}
	.arbi131{fill:#706F6F;}
	.arbi132{fill:#6F6E6F;}
	.arbi133{fill:#6E6E6E;}
	.arbi134{fill:#6E6D6E;}
	.arbi135{fill:#6D6D6D;}
	.arbi136{fill:#6D6C6D;}
	.arbi137{fill:#6C6C6C;}
	.arbi138{fill:#6C6B6C;}
	.arbi139{fill:#6B6B6B;}
	.arbi140{fill:#6B6A6A;}
	.arbi141{fill:#6A6A6A;}
	.arbi142{fill:#696969;}
	.arbi143{fill:#686868;}
	.arbi144{fill:#686768;}
	.arbi145{fill:#676767;}
	.arbi146{fill:#676667;}
	.arbi147{fill:#666666;}
	.arbi148{fill:#666566;}
	.arbi149{fill:#656565;}
	.arbi150{fill:#646464;}
	.arbi151{fill:#636363;}
	.arbi152{fill:#626262;}
	.arbi153{fill:#626162;}
	.arbi154{fill:#616161;}
	.arbi155{fill:#616061;}
	.arbi156{fill:#606060;}
	.arbi157{fill:#5F5F60;}
	.arbi158{fill:#5F5F5F;}
	.arbi159{fill:#5E5E5E;}
	.arbi160{fill:#5D5D5D;}
	.arbi161{fill:#5C5C5C;}
	.arbi162{fill:#5B5B5B;}
	.arbi163{fill:#5A5A5B;}
	.arbi164{fill:#5A5A5A;}
	.arbi165{fill:#59595A;}
	.arbi166{fill:#595959;}
	.arbi167{fill:#585858;}
	.arbi168{fill:#575757;}
	.arbi169{fill:#565656;}
	.arbi170{fill:#555656;}
	.arbi171{fill:#555555;}
	.arbi172{fill:#545455;}
	.arbi173{fill:#545454;}
	.arbi174{fill:#535353;}
	.arbi175{fill:#525252;}
	.arbi176{fill:#515151;}
	.arbi177{fill:#505151;}
	.arbi178{fill:#505050;}
	.arbi179{fill:#4F5050;}
	.arbi180{fill:#4F4F4F;}
	.arbi181{fill:#4E4F4F;}
	.arbi182{fill:#4E4E4E;}
	.arbi183{fill:#4D4D4D;}
	.arbi184{fill:#4C4C4C;}
	.arbi185{fill:url(#ARBI_ID_1_);}
	.arbi186{fill:url(#ARBI_ID_2_);}
	.arbi187{fill:var(--vitamui-primary-800);}
	.arbi188{fill-rule:evenodd;clip-rule:evenodd;fill:url(#ARBI_ID_3_);}
	.arbi189{fill-rule:evenodd;clip-rule:evenodd;fill:url(#ARBI_ID_4_);}
	.arbi190{fill:url(#ARBI_ID_5_);}
	.arbi191{fill:url(#ARBI_ID_6_);}
	.arbi192{fill:var(--vitamui-primary-300);}
	.arbi193{fill-rule:evenodd;clip-rule:evenodd;fill:url(#ARBI_ID_7_);}
	.arbi194{fill-rule:evenodd;clip-rule:evenodd;fill:url(#ARBI_ID_8_);}
	.arbi195{fill-rule:evenodd;clip-rule:evenodd;fill:url(#ARBI_ID_9_);}
	.arbi196{fill-rule:evenodd;clip-rule:evenodd;fill:url(#ARBI_ID_10_);}
	.arbi197{fill-rule:evenodd;clip-rule:evenodd;fill:url(#ARBI_ID_11_);}
	.arbi198{fill-rule:evenodd;clip-rule:evenodd;fill:url(#ARBI_ID_12_);}
	.arbi199{fill-rule:evenodd;clip-rule:evenodd;fill:url(#ARBI_ID_13_);}
	.arbi200{fill-rule:evenodd;clip-rule:evenodd;fill:url(#ARBI_ID_14_);}
	.arbi201{fill-rule:evenodd;clip-rule:evenodd;fill:url(#ARBI_ID_15_);}
	.arbi202{fill-rule:evenodd;clip-rule:evenodd;fill:url(#ARBI_ID_16_);}
	.arbi203{fill-rule:evenodd;clip-rule:evenodd;fill:url(#ARBI_ID_17_);}
	.arbi204{fill-rule:evenodd;clip-rule:evenodd;fill:url(#ARBI_ID_18_);}
	.arbi205{fill-rule:evenodd;clip-rule:evenodd;fill:url(#ARBI_ID_19_);}
	.arbi206{fill-rule:evenodd;clip-rule:evenodd;fill:url(#ARBI_ID_20_);}
	.arbi207{fill-rule:evenodd;clip-rule:evenodd;fill:url(#ARBI_ID_21_);}
	.arbi208{fill-rule:evenodd;clip-rule:evenodd;fill:url(#ARBI_ID_22_);}
	.arbi209{fill-rule:evenodd;clip-rule:evenodd;fill:url(#ARBI_ID_23_);}
	.arbi210{fill-rule:evenodd;clip-rule:evenodd;fill:url(#ARBI_ID_24_);}
	.arbi211{fill-rule:evenodd;clip-rule:evenodd;fill:url(#ARBI_ID_25_);}
	.arbi212{fill-rule:evenodd;clip-rule:evenodd;fill:url(#ARBI_ID_26_);}
	.arbi213{fill-rule:evenodd;clip-rule:evenodd;fill:url(#ARBI_ID_27_);}
	.arbi214{fill-rule:evenodd;clip-rule:evenodd;fill:url(#ARBI_ID_28_);}
	.arbi215{fill-rule:evenodd;clip-rule:evenodd;fill:url(#ARBI_ID_29_);}
	.arbi216{fill-rule:evenodd;clip-rule:evenodd;fill:url(#ARBI_ID_30_);}
	.arbi217{fill-rule:evenodd;clip-rule:evenodd;fill:url(#ARBI_ID_31_);}
	.arbi218{fill-rule:evenodd;clip-rule:evenodd;fill:url(#ARBI_ID_32_);}
	.arbi219{fill:url(#ARBI_ID_33_);}
	.arbi220{fill:url(#ARBI_ID_34_);}
	.arbi221{fill:url(#ARBI_ID_35_);}
	.arbi222{fill:url(#ARBI_ID_36_);}
</style>
<metadata>
	<sfw  xmlns="&ns_sfw;">
		<slices></slices>
		<sliceSourceBounds  bottomLeftOrigin="true" height="136.7" width="165.1" x="17.4" y="19.3"></sliceSourceBounds>
	</sfw>
</metadata>
<g>
	<g>
		<path class="arbi0" d="M100,141.5c45.6,0,82.6,8.5,82.6,19s-37,20.2-82.6,20.2s-82.6-9.7-82.6-20.2C17.3,150.1,54.3,141.5,100,141.5
			z"/>
		<path class="arbi1" d="M100,141.9c43.6,0,78.9,8.4,78.9,18.8c0,10.4-35.3,18.8-78.9,18.8s-78.9-8.4-78.9-18.8
			C21.1,150.2,56.4,141.9,100,141.9z"/>
		<path class="arbi2" d="M100,139.7c43.6,0,78.9,8.4,78.9,18.8c0,10.4-35.3,18.8-78.9,18.8s-78.9-8.4-78.9-18.8
			C21.1,148,56.4,139.7,100,139.7z"/>
		<path class="arbi1" d="M100,138.5c43.6,0,78.9,8.4,78.9,18.8c0,10.4-35.3,18.8-78.9,18.8s-78.9-8.4-78.9-18.8
			C21.1,146.8,56.4,138.5,100,138.5z"/>
		<path class="arbi3" d="M99.9,138.5c22.9,0,43.4,2.3,57.8,6c-30.2-1.8-112.6,2.6-132.9,18.5c-2.5-1.8-3.8-3.8-3.8-5.7
			C20.9,146.8,56.4,138.5,99.9,138.5z"/>
		<path class="arbi2" d="M21.1,157.2c0-10.4,35.3-18.8,78.9-18.8s78.9,8.4,78.9,18.8c0,0.4,0,0.6-0.1,1c-2.2-9.8-36.6-17.7-78.8-17.7
			s-76.6,7.9-78.8,17.7C21.1,157.8,21.1,157.6,21.1,157.2z"/>
	</g>
</g>
<g>
	<g>
		
			<ellipse transform="matrix(2.689626e-02 -0.9996 0.9996 2.689626e-02 -55.6992 255.1022)" class="arbi4" cx="103.2" cy="156.2" rx="7.9" ry="51.4"/>
		
			<ellipse transform="matrix(2.694130e-02 -0.9996 0.9996 2.694130e-02 -55.7532 255.0637)" class="arbi5" cx="103.1" cy="156.2" rx="7.8" ry="51.3"/>
		
			<ellipse transform="matrix(2.698654e-02 -0.9996 0.9996 2.698654e-02 -55.8072 255.0253)" class="arbi6" cx="103.1" cy="156.2" rx="7.8" ry="51.2"/>
		
			<ellipse transform="matrix(2.703196e-02 -0.9996 0.9996 2.703196e-02 -55.8613 254.9868)" class="arbi7" cx="103.1" cy="156.2" rx="7.8" ry="51.1"/>
		
			<ellipse transform="matrix(2.707757e-02 -0.9996 0.9996 2.707757e-02 -55.9153 254.9483)" class="arbi8" cx="103" cy="156.2" rx="7.7" ry="51"/>
		
			<ellipse transform="matrix(2.712338e-02 -0.9996 0.9996 2.712338e-02 -55.9694 254.9098)" class="arbi9" cx="103" cy="156.2" rx="7.7" ry="50.9"/>
		
			<ellipse transform="matrix(2.716937e-02 -0.9996 0.9996 2.716937e-02 -56.0235 254.8712)" class="arbi10" cx="102.9" cy="156.2" rx="7.7" ry="50.8"/>
		
			<ellipse transform="matrix(2.721557e-02 -0.9996 0.9996 2.721557e-02 -56.0776 254.8326)" class="arbi11" cx="102.9" cy="156.2" rx="7.7" ry="50.7"/>
		
			<ellipse transform="matrix(2.726196e-02 -0.9996 0.9996 2.726196e-02 -56.1318 254.794)" class="arbi12" cx="102.9" cy="156.2" rx="7.6" ry="50.6"/>
		
			<ellipse transform="matrix(2.730855e-02 -0.9996 0.9996 2.730855e-02 -56.1859 254.7553)" class="arbi13" cx="102.8" cy="156.2" rx="7.6" ry="50.4"/>
		
			<ellipse transform="matrix(2.735533e-02 -0.9996 0.9996 2.735533e-02 -56.2401 254.7166)" class="arbi14" cx="102.8" cy="156.3" rx="7.6" ry="50.3"/>
		
			<ellipse transform="matrix(2.740232e-02 -0.9996 0.9996 2.740232e-02 -56.2942 254.6779)" class="arbi15" cx="102.7" cy="156.3" rx="7.5" ry="50.2"/>
		
			<ellipse transform="matrix(2.744951e-02 -0.9996 0.9996 2.744951e-02 -56.3484 254.6391)" class="arbi16" cx="102.7" cy="156.3" rx="7.5" ry="50.1"/>
		
			<ellipse transform="matrix(2.749690e-02 -0.9996 0.9996 2.749690e-02 -56.4026 254.6003)" class="arbi17" cx="102.6" cy="156.3" rx="7.5" ry="50"/>
		
			<ellipse transform="matrix(2.754449e-02 -0.9996 0.9996 2.754449e-02 -56.4569 254.5614)" class="arbi17" cx="102.6" cy="156.3" rx="7.5" ry="49.9"/>
		
			<ellipse transform="matrix(2.759229e-02 -0.9996 0.9996 2.759229e-02 -56.5111 254.5226)" class="arbi18" cx="102.6" cy="156.3" rx="7.4" ry="49.8"/>
		
			<ellipse transform="matrix(2.764030e-02 -0.9996 0.9996 2.764030e-02 -56.5653 254.4837)" class="arbi19" cx="102.5" cy="156.3" rx="7.4" ry="49.7"/>
		
			<ellipse transform="matrix(2.768851e-02 -0.9996 0.9996 2.768851e-02 -56.6196 254.4447)" class="arbi20" cx="102.5" cy="156.3" rx="7.4" ry="49.6"/>
		
			<ellipse transform="matrix(2.773693e-02 -0.9996 0.9996 2.773693e-02 -56.6739 254.4058)" class="arbi21" cx="102.4" cy="156.3" rx="7.3" ry="49.5"/>
		
			<ellipse transform="matrix(2.778556e-02 -0.9996 0.9996 2.778556e-02 -56.7282 254.3668)" class="arbi22" cx="102.4" cy="156.3" rx="7.3" ry="49.3"/>
		
			<ellipse transform="matrix(2.783441e-02 -0.9996 0.9996 2.783441e-02 -56.7825 254.3277)" class="arbi23" cx="102.4" cy="156.4" rx="7.3" ry="49.2"/>
		
			<ellipse transform="matrix(2.788347e-02 -0.9996 0.9996 2.788347e-02 -56.8368 254.2887)" class="arbi24" cx="102.3" cy="156.4" rx="7.3" ry="49.1"/>
		
			<ellipse transform="matrix(2.793274e-02 -0.9996 0.9996 2.793274e-02 -56.8912 254.2495)" class="arbi25" cx="102.3" cy="156.4" rx="7.2" ry="49"/>
		
			<ellipse transform="matrix(2.798223e-02 -0.9996 0.9996 2.798223e-02 -56.9456 254.2104)" class="arbi25" cx="102.2" cy="156.4" rx="7.2" ry="48.9"/>
		
			<ellipse transform="matrix(2.803194e-02 -0.9996 0.9996 2.803194e-02 -57 254.1712)" class="arbi26" cx="102.2" cy="156.4" rx="7.2" ry="48.8"/>
		
			<ellipse transform="matrix(2.808187e-02 -0.9996 0.9996 2.808187e-02 -57.0543 254.132)" class="arbi26" cx="102.2" cy="156.4" rx="7.2" ry="48.7"/>
		
			<ellipse transform="matrix(2.813201e-02 -0.9996 0.9996 2.813201e-02 -57.1088 254.0928)" class="arbi27" cx="102.1" cy="156.4" rx="7.1" ry="48.6"/>
		
			<ellipse transform="matrix(2.818238e-02 -0.9996 0.9996 2.818238e-02 -57.1632 254.0535)" class="arbi28" cx="102.1" cy="156.4" rx="7.1" ry="48.5"/>
		
			<ellipse transform="matrix(2.823298e-02 -0.9996 0.9996 2.823298e-02 -57.2177 254.0141)" class="arbi29" cx="102" cy="156.4" rx="7.1" ry="48.3"/>
		
			<ellipse transform="matrix(2.828380e-02 -0.9996 0.9996 2.828380e-02 -57.2721 253.9748)" class="arbi30" cx="102" cy="156.4" rx="7" ry="48.2"/>
		
			<ellipse transform="matrix(2.833484e-02 -0.9996 0.9996 2.833484e-02 -57.3266 253.9354)" class="arbi31" cx="102" cy="156.5" rx="7" ry="48.1"/>
		
			<ellipse transform="matrix(2.838611e-02 -0.9996 0.9996 2.838611e-02 -57.3811 253.8959)" class="arbi32" cx="101.9" cy="156.5" rx="7" ry="48"/>
		
			<ellipse transform="matrix(2.843762e-02 -0.9996 0.9996 2.843762e-02 -57.4356 253.8565)" class="arbi32" cx="101.9" cy="156.5" rx="7" ry="47.9"/>
		
			<ellipse transform="matrix(2.848935e-02 -0.9996 0.9996 2.848935e-02 -57.4902 253.8169)" class="arbi33" cx="101.8" cy="156.5" rx="6.9" ry="47.8"/>
		
			<ellipse transform="matrix(2.854132e-02 -0.9996 0.9996 2.854132e-02 -57.5447 253.7774)" class="arbi33" cx="101.8" cy="156.5" rx="6.9" ry="47.7"/>
		
			<ellipse transform="matrix(2.859352e-02 -0.9996 0.9996 2.859352e-02 -57.5993 253.7378)" class="arbi34" cx="101.8" cy="156.5" rx="6.9" ry="47.6"/>
		
			<ellipse transform="matrix(2.864596e-02 -0.9996 0.9996 2.864596e-02 -57.6539 253.6982)" class="arbi34" cx="101.7" cy="156.5" rx="6.8" ry="47.5"/>
		
			<ellipse transform="matrix(2.869863e-02 -0.9996 0.9996 2.869863e-02 -57.7085 253.6585)" class="arbi35" cx="101.7" cy="156.5" rx="6.8" ry="47.3"/>
		
			<ellipse transform="matrix(2.875155e-02 -0.9996 0.9996 2.875155e-02 -57.7632 253.6188)" class="arbi36" cx="101.6" cy="156.5" rx="6.8" ry="47.2"/>
		
			<ellipse transform="matrix(2.880470e-02 -0.9996 0.9996 2.880470e-02 -57.8178 253.579)" class="arbi37" cx="101.6" cy="156.5" rx="6.8" ry="47.1"/>
		
			<ellipse transform="matrix(2.885810e-02 -0.9996 0.9996 2.885810e-02 -57.8725 253.5393)" class="arbi38" cx="101.5" cy="156.6" rx="6.7" ry="47"/>
		
			<ellipse transform="matrix(2.891175e-02 -0.9996 0.9996 2.891175e-02 -57.9272 253.4994)" class="arbi39" cx="101.5" cy="156.6" rx="6.7" ry="46.9"/>
		
			<ellipse transform="matrix(2.896563e-02 -0.9996 0.9996 2.896563e-02 -57.9819 253.4596)" class="arbi40" cx="101.5" cy="156.6" rx="6.7" ry="46.8"/>
		
			<ellipse transform="matrix(2.901977e-02 -0.9996 0.9996 2.901977e-02 -58.0366 253.4196)" class="arbi40" cx="101.4" cy="156.6" rx="6.6" ry="46.7"/>
		
			<ellipse transform="matrix(2.907416e-02 -0.9996 0.9996 2.907416e-02 -58.0913 253.3797)" class="arbi41" cx="101.4" cy="156.6" rx="6.6" ry="46.6"/>
		
			<ellipse transform="matrix(2.912880e-02 -0.9996 0.9996 2.912880e-02 -58.1461 253.3397)" class="arbi41" cx="101.3" cy="156.6" rx="6.6" ry="46.5"/>
		
			<ellipse transform="matrix(2.918369e-02 -0.9996 0.9996 2.918369e-02 -58.2009 253.2997)" class="arbi42" cx="101.3" cy="156.6" rx="6.6" ry="46.3"/>
		
			<ellipse transform="matrix(2.923883e-02 -0.9996 0.9996 2.923883e-02 -58.2557 253.2596)" class="arbi42" cx="101.3" cy="156.6" rx="6.5" ry="46.2"/>
		
			<ellipse transform="matrix(2.929424e-02 -0.9996 0.9996 2.929424e-02 -58.3105 253.2195)" class="arbi43" cx="101.2" cy="156.6" rx="6.5" ry="46.1"/>
		
			<ellipse transform="matrix(2.934990e-02 -0.9996 0.9996 2.934990e-02 -58.3654 253.1793)" class="arbi44" cx="101.2" cy="156.6" rx="6.5" ry="46"/>
		
			<ellipse transform="matrix(2.940582e-02 -0.9996 0.9996 2.940582e-02 -58.4202 253.1391)" class="arbi45" cx="101.1" cy="156.7" rx="6.5" ry="45.9"/>
		
			<ellipse transform="matrix(2.946200e-02 -0.9996 0.9996 2.946200e-02 -58.4751 253.0989)" class="arbi46" cx="101.1" cy="156.7" rx="6.4" ry="45.8"/>
		
			<ellipse transform="matrix(2.951845e-02 -0.9996 0.9996 2.951845e-02 -58.53 253.0586)" class="arbi47" cx="101.1" cy="156.7" rx="6.4" ry="45.7"/>
		
			<ellipse transform="matrix(2.957516e-02 -0.9996 0.9996 2.957516e-02 -58.5849 253.0182)" class="arbi48" cx="101" cy="156.7" rx="6.4" ry="45.6"/>
		
			<ellipse transform="matrix(2.963214e-02 -0.9996 0.9996 2.963214e-02 -58.6399 252.9779)" class="arbi49" cx="101" cy="156.7" rx="6.3" ry="45.5"/>
		
			<ellipse transform="matrix(2.968939e-02 -0.9996 0.9996 2.968939e-02 -58.6949 252.9375)" class="arbi50" cx="100.9" cy="156.7" rx="6.3" ry="45.4"/>
		
			<ellipse transform="matrix(2.974692e-02 -0.9996 0.9996 2.974692e-02 -58.7498 252.897)" class="arbi50" cx="100.9" cy="156.7" rx="6.3" ry="45.2"/>
		
			<ellipse transform="matrix(2.980471e-02 -0.9996 0.9996 2.980471e-02 -58.8048 252.8565)" class="arbi51" cx="100.9" cy="156.7" rx="6.3" ry="45.1"/>
		
			<ellipse transform="matrix(2.986279e-02 -0.9996 0.9996 2.986279e-02 -58.8599 252.8159)" class="arbi52" cx="100.8" cy="156.7" rx="6.2" ry="45"/>
		
			<ellipse transform="matrix(2.992113e-02 -0.9996 0.9996 2.992113e-02 -58.9149 252.7753)" class="arbi53" cx="100.8" cy="156.7" rx="6.2" ry="44.9"/>
		
			<ellipse transform="matrix(2.997976e-02 -0.9996 0.9996 2.997976e-02 -58.97 252.7347)" class="arbi54" cx="100.7" cy="156.7" rx="6.2" ry="44.8"/>
		
			<ellipse transform="matrix(3.003868e-02 -0.9995 0.9995 3.003868e-02 -59.0251 252.694)" class="arbi55" cx="100.7" cy="156.8" rx="6.1" ry="44.7"/>
		
			<ellipse transform="matrix(3.009787e-02 -0.9995 0.9995 3.009787e-02 -59.0802 252.6532)" class="arbi56" cx="100.6" cy="156.8" rx="6.1" ry="44.6"/>
		
			<ellipse transform="matrix(3.015735e-02 -0.9995 0.9995 3.015735e-02 -59.1353 252.6124)" class="arbi57" cx="100.6" cy="156.8" rx="6.1" ry="44.5"/>
		
			<ellipse transform="matrix(3.021712e-02 -0.9995 0.9995 3.021712e-02 -59.1905 252.5716)" class="arbi58" cx="100.6" cy="156.8" rx="6.1" ry="44.4"/>
		
			<ellipse transform="matrix(3.027718e-02 -0.9995 0.9995 3.027718e-02 -59.2457 252.5307)" class="arbi59" cx="100.5" cy="156.8" rx="6" ry="44.2"/>
		
			<ellipse transform="matrix(3.033753e-02 -0.9995 0.9995 3.033753e-02 -59.3009 252.4898)" class="arbi60" cx="100.5" cy="156.8" rx="6" ry="44.1"/>
		
			<ellipse transform="matrix(3.039818e-02 -0.9995 0.9995 3.039818e-02 -59.3561 252.4488)" class="arbi61" cx="100.4" cy="156.8" rx="6" ry="44"/>
		
			<ellipse transform="matrix(3.045912e-02 -0.9995 0.9995 3.045912e-02 -59.4114 252.4078)" class="arbi62" cx="100.4" cy="156.8" rx="6" ry="43.9"/>
		
			<ellipse transform="matrix(3.052036e-02 -0.9995 0.9995 3.052036e-02 -59.4666 252.3667)" class="arbi63" cx="100.4" cy="156.8" rx="5.9" ry="43.8"/>
		
			<ellipse transform="matrix(3.058190e-02 -0.9995 0.9995 3.058190e-02 -59.5219 252.3256)" class="arbi64" cx="100.3" cy="156.8" rx="5.9" ry="43.7"/>
		
			<ellipse transform="matrix(3.064375e-02 -0.9995 0.9995 3.064375e-02 -59.5773 252.2844)" class="arbi65" cx="100.3" cy="156.9" rx="5.9" ry="43.6"/>
		
			<ellipse transform="matrix(3.070590e-02 -0.9995 0.9995 3.070590e-02 -59.6326 252.2432)" class="arbi66" cx="100.2" cy="156.9" rx="5.8" ry="43.5"/>
		
			<ellipse transform="matrix(3.076836e-02 -0.9995 0.9995 3.076836e-02 -59.688 252.2019)" class="arbi67" cx="100.2" cy="156.9" rx="5.8" ry="43.4"/>
		
			<ellipse transform="matrix(3.083113e-02 -0.9995 0.9995 3.083113e-02 -59.7434 252.1606)" class="arbi68" cx="100.2" cy="156.9" rx="5.8" ry="43.2"/>
		
			<ellipse transform="matrix(3.089421e-02 -0.9995 0.9995 3.089421e-02 -59.7988 252.1192)" class="arbi69" cx="100.1" cy="156.9" rx="5.8" ry="43.1"/>
		
			<ellipse transform="matrix(3.095761e-02 -0.9995 0.9995 3.095761e-02 -59.8542 252.0777)" class="arbi70" cx="100.1" cy="156.9" rx="5.7" ry="43"/>
		
			<ellipse transform="matrix(3.102132e-02 -0.9995 0.9995 3.102132e-02 -59.9097 252.0363)" class="arbi71" cx="100" cy="156.9" rx="5.7" ry="42.9"/>
		
			<ellipse transform="matrix(3.108536e-02 -0.9995 0.9995 3.108536e-02 -59.9652 251.9947)" class="arbi72" cx="100" cy="156.9" rx="5.7" ry="42.8"/>
		
			<ellipse transform="matrix(3.114971e-02 -0.9995 0.9995 3.114971e-02 -60.0207 251.9531)" class="arbi73" cx="100" cy="156.9" rx="5.6" ry="42.7"/>
		
			<ellipse transform="matrix(3.121439e-02 -0.9995 0.9995 3.121439e-02 -60.0762 251.9115)" class="arbi74" cx="99.9" cy="156.9" rx="5.6" ry="42.6"/>
		
			<ellipse transform="matrix(3.127940e-02 -0.9995 0.9995 3.127940e-02 -60.1318 251.8698)" class="arbi75" cx="99.9" cy="157" rx="5.6" ry="42.5"/>
		
			<ellipse transform="matrix(3.134474e-02 -0.9995 0.9995 3.134474e-02 -60.1874 251.828)" class="arbi76" cx="99.8" cy="157" rx="5.6" ry="42.4"/>
		
			<ellipse transform="matrix(3.141041e-02 -0.9995 0.9995 3.141041e-02 -60.243 251.7862)" class="arbi77" cx="99.8" cy="157" rx="5.5" ry="42.2"/>
		
			<ellipse transform="matrix(3.147642e-02 -0.9995 0.9995 3.147642e-02 -60.2986 251.7444)" class="arbi78" cx="99.7" cy="157" rx="5.5" ry="42.1"/>
		
			<ellipse transform="matrix(3.154276e-02 -0.9995 0.9995 3.154276e-02 -60.3543 251.7024)" class="arbi79" cx="99.7" cy="157" rx="5.5" ry="42"/>
		
			<ellipse transform="matrix(3.160944e-02 -0.9995 0.9995 3.160944e-02 -60.41 251.6605)" class="arbi80" cx="99.7" cy="157" rx="5.4" ry="41.9"/>
		
			<ellipse transform="matrix(3.167647e-02 -0.9995 0.9995 3.167647e-02 -60.4657 251.6184)" class="arbi81" cx="99.6" cy="157" rx="5.4" ry="41.8"/>
		
			<ellipse transform="matrix(3.174384e-02 -0.9995 0.9995 3.174384e-02 -60.5214 251.5763)" class="arbi82" cx="99.6" cy="157" rx="5.4" ry="41.7"/>
		
			<ellipse transform="matrix(3.181156e-02 -0.9995 0.9995 3.181156e-02 -60.5772 251.5342)" class="arbi83" cx="99.5" cy="157" rx="5.4" ry="41.6"/>
		
			<ellipse transform="matrix(3.187963e-02 -0.9995 0.9995 3.187963e-02 -60.633 251.492)" class="arbi84" cx="99.5" cy="157" rx="5.3" ry="41.5"/>
		
			<ellipse transform="matrix(3.194806e-02 -0.9995 0.9995 3.194806e-02 -60.6888 251.4497)" class="arbi85" cx="99.5" cy="157.1" rx="5.3" ry="41.4"/>
		
			<ellipse transform="matrix(3.201684e-02 -0.9995 0.9995 3.201684e-02 -60.7447 251.4074)" class="arbi86" cx="99.4" cy="157.1" rx="5.3" ry="41.2"/>
		
			<ellipse transform="matrix(3.208598e-02 -0.9995 0.9995 3.208598e-02 -60.8006 251.365)" class="arbi87" cx="99.4" cy="157.1" rx="5.3" ry="41.1"/>
		
			<ellipse transform="matrix(3.215548e-02 -0.9995 0.9995 3.215548e-02 -60.8565 251.3226)" class="arbi88" cx="99.3" cy="157.1" rx="5.2" ry="41"/>
		
			<ellipse transform="matrix(3.222535e-02 -0.9995 0.9995 3.222535e-02 -60.9124 251.2801)" class="arbi89" cx="99.3" cy="157.1" rx="5.2" ry="40.9"/>
		
			<ellipse transform="matrix(3.229558e-02 -0.9995 0.9995 3.229558e-02 -60.9684 251.2375)" class="arbi90" cx="99.3" cy="157.1" rx="5.2" ry="40.8"/>
		
			<ellipse transform="matrix(3.236619e-02 -0.9995 0.9995 3.236619e-02 -61.0244 251.1949)" class="arbi91" cx="99.2" cy="157.1" rx="5.1" ry="40.7"/>
		
			<ellipse transform="matrix(3.243717e-02 -0.9995 0.9995 3.243717e-02 -61.0804 251.1522)" class="arbi92" cx="99.2" cy="157.1" rx="5.1" ry="40.6"/>
		
			<ellipse transform="matrix(3.250853e-02 -0.9995 0.9995 3.250853e-02 -61.1364 251.1095)" class="arbi93" cx="99.1" cy="157.1" rx="5.1" ry="40.5"/>
		
			<ellipse transform="matrix(3.258027e-02 -0.9995 0.9995 3.258027e-02 -61.1925 251.0667)" class="arbi94" cx="99.1" cy="157.1" rx="5.1" ry="40.4"/>
		
			<ellipse transform="matrix(3.265239e-02 -0.9995 0.9995 3.265239e-02 -61.2486 251.0238)" class="arbi95" cx="99.1" cy="157.2" rx="5" ry="40.3"/>
		
			<ellipse transform="matrix(3.272490e-02 -0.9995 0.9995 3.272490e-02 -61.3047 250.9809)" class="arbi96" cx="99" cy="157.2" rx="5" ry="40.1"/>
		
			<ellipse transform="matrix(3.279779e-02 -0.9995 0.9995 3.279779e-02 -61.3609 250.9379)" class="arbi97" cx="99" cy="157.2" rx="5" ry="40"/>
		
			<ellipse transform="matrix(3.287109e-02 -0.9995 0.9995 3.287109e-02 -61.4171 250.8948)" class="arbi98" cx="98.9" cy="157.2" rx="4.9" ry="39.9"/>
		
			<ellipse transform="matrix(3.294477e-02 -0.9995 0.9995 3.294477e-02 -61.4733 250.8517)" class="arbi99" cx="98.9" cy="157.2" rx="4.9" ry="39.8"/>
		
			<ellipse transform="matrix(3.301886e-02 -0.9995 0.9995 3.301886e-02 -61.5296 250.8085)" class="arbi100" cx="98.9" cy="157.2" rx="4.9" ry="39.7"/>
		
			<ellipse transform="matrix(3.309335e-02 -0.9995 0.9995 3.309335e-02 -61.5859 250.7652)" class="arbi101" cx="98.8" cy="157.2" rx="4.9" ry="39.6"/>
		
			<ellipse transform="matrix(3.316824e-02 -0.9994 0.9994 3.316824e-02 -61.6422 250.7219)" class="arbi102" cx="98.8" cy="157.2" rx="4.8" ry="39.5"/>
		
			<ellipse transform="matrix(3.324354e-02 -0.9994 0.9994 3.324354e-02 -61.6985 250.6785)" class="arbi103" cx="98.7" cy="157.2" rx="4.8" ry="39.4"/>
		
			<ellipse transform="matrix(3.331926e-02 -0.9994 0.9994 3.331926e-02 -61.7549 250.635)" class="arbi104" cx="98.7" cy="157.2" rx="4.8" ry="39.3"/>
		
			<ellipse transform="matrix(3.339539e-02 -0.9994 0.9994 3.339539e-02 -61.8113 250.5915)" class="arbi105" cx="98.6" cy="157.3" rx="4.7" ry="39.1"/>
		
			<ellipse transform="matrix(3.347195e-02 -0.9994 0.9994 3.347195e-02 -61.8678 250.5479)" class="arbi106" cx="98.6" cy="157.3" rx="4.7" ry="39"/>
		
			<ellipse transform="matrix(3.354892e-02 -0.9994 0.9994 3.354892e-02 -61.9243 250.5042)" class="arbi107" cx="98.6" cy="157.3" rx="4.7" ry="38.9"/>
		
			<ellipse transform="matrix(3.362633e-02 -0.9994 0.9994 3.362633e-02 -61.9808 250.4605)" class="arbi108" cx="98.5" cy="157.3" rx="4.7" ry="38.8"/>
		
			<ellipse transform="matrix(3.370416e-02 -0.9994 0.9994 3.370416e-02 -62.0373 250.4167)" class="arbi109" cx="98.5" cy="157.3" rx="4.6" ry="38.7"/>
		
			<ellipse transform="matrix(3.378243e-02 -0.9994 0.9994 3.378243e-02 -62.0939 250.3728)" class="arbi110" cx="98.4" cy="157.3" rx="4.6" ry="38.6"/>
		
			<ellipse transform="matrix(3.386113e-02 -0.9994 0.9994 3.386113e-02 -62.1505 250.3288)" class="arbi111" cx="98.4" cy="157.3" rx="4.6" ry="38.5"/>
		
			<ellipse transform="matrix(3.394028e-02 -0.9994 0.9994 3.394028e-02 -62.2071 250.2848)" class="arbi112" cx="98.4" cy="157.3" rx="4.6" ry="38.4"/>
		
			<ellipse transform="matrix(3.401987e-02 -0.9994 0.9994 3.401987e-02 -62.2638 250.2407)" class="arbi113" cx="98.3" cy="157.3" rx="4.5" ry="38.3"/>
		
			<ellipse transform="matrix(3.409991e-02 -0.9994 0.9994 3.409991e-02 -62.3205 250.1965)" class="arbi114" cx="98.3" cy="157.3" rx="4.5" ry="38.1"/>
		
			<ellipse transform="matrix(3.418041e-02 -0.9994 0.9994 3.418041e-02 -62.3773 250.1522)" class="arbi115" cx="98.2" cy="157.3" rx="4.5" ry="38"/>
		
			<ellipse transform="matrix(3.426136e-02 -0.9994 0.9994 3.426136e-02 -62.434 250.1079)" class="arbi116" cx="98.2" cy="157.4" rx="4.4" ry="37.9"/>
		
			<ellipse transform="matrix(3.434277e-02 -0.9994 0.9994 3.434277e-02 -62.4909 250.0635)" class="arbi117" cx="98.2" cy="157.4" rx="4.4" ry="37.8"/>
		
			<ellipse transform="matrix(3.442465e-02 -0.9994 0.9994 3.442465e-02 -62.5477 250.019)" class="arbi118" cx="98.1" cy="157.4" rx="4.4" ry="37.7"/>
		
			<ellipse transform="matrix(3.450700e-02 -0.9994 0.9994 3.450700e-02 -62.6046 249.9745)" class="arbi119" cx="98.1" cy="157.4" rx="4.4" ry="37.6"/>
		
			<ellipse transform="matrix(3.458982e-02 -0.9994 0.9994 3.458982e-02 -62.6615 249.9298)" class="arbi120" cx="98" cy="157.4" rx="4.3" ry="37.5"/>
		
			<ellipse transform="matrix(3.467311e-02 -0.9994 0.9994 3.467311e-02 -62.7185 249.8851)" class="arbi121" cx="98" cy="157.4" rx="4.3" ry="37.4"/>
		
			<ellipse transform="matrix(3.475690e-02 -0.9994 0.9994 3.475690e-02 -62.7755 249.8403)" class="arbi122" cx="98" cy="157.4" rx="4.3" ry="37.3"/>
		
			<ellipse transform="matrix(3.484116e-02 -0.9994 0.9994 3.484116e-02 -62.8325 249.7954)" class="arbi123" cx="97.9" cy="157.4" rx="4.2" ry="37.1"/>
		
			<ellipse transform="matrix(3.492592e-02 -0.9994 0.9994 3.492592e-02 -62.8896 249.7505)" class="arbi124" cx="97.9" cy="157.4" rx="4.2" ry="37"/>
		
			<ellipse transform="matrix(3.501116e-02 -0.9994 0.9994 3.501116e-02 -62.9467 249.7054)" class="arbi125" cx="97.8" cy="157.4" rx="4.2" ry="36.9"/>
		
			<ellipse transform="matrix(3.509692e-02 -0.9994 0.9994 3.509692e-02 -63.0038 249.6603)" class="arbi126" cx="97.8" cy="157.5" rx="4.2" ry="36.8"/>
		
			<ellipse transform="matrix(3.518317e-02 -0.9994 0.9994 3.518317e-02 -63.061 249.6151)" class="arbi127" cx="97.7" cy="157.5" rx="4.1" ry="36.7"/>
		
			<ellipse transform="matrix(3.526993e-02 -0.9994 0.9994 3.526993e-02 -63.1182 249.5698)" class="arbi128" cx="97.7" cy="157.5" rx="4.1" ry="36.6"/>
		
			<ellipse transform="matrix(3.535720e-02 -0.9994 0.9994 3.535720e-02 -63.1755 249.5245)" class="arbi129" cx="97.7" cy="157.5" rx="4.1" ry="36.5"/>
		
			<ellipse transform="matrix(3.544500e-02 -0.9994 0.9994 3.544500e-02 -63.2328 249.479)" class="arbi130" cx="97.6" cy="157.5" rx="4.1" ry="36.4"/>
		
			<ellipse transform="matrix(3.553331e-02 -0.9994 0.9994 3.553331e-02 -63.2901 249.4335)" class="arbi131" cx="97.6" cy="157.5" rx="4" ry="36.3"/>
		
			<ellipse transform="matrix(3.562215e-02 -0.9994 0.9994 3.562215e-02 -63.3475 249.3878)" class="arbi132" cx="97.5" cy="157.5" rx="4" ry="36.2"/>
		
			<ellipse transform="matrix(3.571152e-02 -0.9994 0.9994 3.571152e-02 -63.4049 249.3421)" class="arbi133" cx="97.5" cy="157.5" rx="4" ry="36"/>
		
			<ellipse transform="matrix(3.580143e-02 -0.9994 0.9994 3.580143e-02 -63.4624 249.2963)" class="arbi134" cx="97.5" cy="157.5" rx="3.9" ry="35.9"/>
		
			<ellipse transform="matrix(3.589188e-02 -0.9994 0.9994 3.589188e-02 -63.5199 249.2504)" class="arbi135" cx="97.4" cy="157.5" rx="3.9" ry="35.8"/>
		
			<ellipse transform="matrix(3.598288e-02 -0.9994 0.9994 3.598288e-02 -63.5774 249.2044)" class="arbi136" cx="97.4" cy="157.6" rx="3.9" ry="35.7"/>
		
			<ellipse transform="matrix(3.607443e-02 -0.9993 0.9993 3.607443e-02 -63.635 249.1583)" class="arbi137" cx="97.3" cy="157.6" rx="3.9" ry="35.6"/>
		
			<ellipse transform="matrix(3.616653e-02 -0.9993 0.9993 3.616653e-02 -63.6926 249.1122)" class="arbi138" cx="97.3" cy="157.6" rx="3.8" ry="35.5"/>
		
			<ellipse transform="matrix(3.625920e-02 -0.9993 0.9993 3.625920e-02 -63.7503 249.0659)" class="arbi139" cx="97.3" cy="157.6" rx="3.8" ry="35.4"/>
		
			<ellipse transform="matrix(3.635243e-02 -0.9993 0.9993 3.635243e-02 -63.808 249.0195)" class="arbi140" cx="97.2" cy="157.6" rx="3.8" ry="35.3"/>
		
			<ellipse transform="matrix(3.644624e-02 -0.9993 0.9993 3.644624e-02 -63.8658 248.9731)" class="arbi141" cx="97.2" cy="157.6" rx="3.7" ry="35.2"/>
		
			<ellipse transform="matrix(3.654062e-02 -0.9993 0.9993 3.654062e-02 -63.9236 248.9265)" class="arbi142" cx="97.1" cy="157.6" rx="3.7" ry="35"/>
		
			<ellipse transform="matrix(3.663559e-02 -0.9993 0.9993 3.663559e-02 -63.9814 248.8799)" class="arbi142" cx="97.1" cy="157.6" rx="3.7" ry="34.9"/>
		
			<ellipse transform="matrix(3.673115e-02 -0.9993 0.9993 3.673115e-02 -64.0393 248.8332)" class="arbi143" cx="97.1" cy="157.6" rx="3.7" ry="34.8"/>
		
			<ellipse transform="matrix(3.682730e-02 -0.9993 0.9993 3.682730e-02 -64.0972 248.7863)" class="arbi144" cx="97" cy="157.6" rx="3.6" ry="34.7"/>
		
			<ellipse transform="matrix(3.692406e-02 -0.9993 0.9993 3.692406e-02 -64.1552 248.7394)" class="arbi145" cx="97" cy="157.7" rx="3.6" ry="34.6"/>
		
			<ellipse transform="matrix(3.702141e-02 -0.9993 0.9993 3.702141e-02 -64.2132 248.6923)" class="arbi146" cx="96.9" cy="157.7" rx="3.6" ry="34.5"/>
		
			<ellipse transform="matrix(3.711938e-02 -0.9993 0.9993 3.711938e-02 -64.2713 248.6452)" class="arbi147" cx="96.9" cy="157.7" rx="3.5" ry="34.4"/>
		
			<ellipse transform="matrix(3.721797e-02 -0.9993 0.9993 3.721797e-02 -64.3294 248.5979)" class="arbi148" cx="96.8" cy="157.7" rx="3.5" ry="34.3"/>
		
			<ellipse transform="matrix(3.731719e-02 -0.9993 0.9993 3.731719e-02 -64.3876 248.5506)" class="arbi149" cx="96.8" cy="157.7" rx="3.5" ry="34.2"/>
		
			<ellipse transform="matrix(3.741703e-02 -0.9993 0.9993 3.741703e-02 -64.4458 248.5032)" class="arbi150" cx="96.8" cy="157.7" rx="3.5" ry="34"/>
		
			<ellipse transform="matrix(3.751751e-02 -0.9993 0.9993 3.751751e-02 -64.504 248.4556)" class="arbi150" cx="96.7" cy="157.7" rx="3.4" ry="33.9"/>
		
			<ellipse transform="matrix(3.761863e-02 -0.9993 0.9993 3.761863e-02 -64.5624 248.4079)" class="arbi151" cx="96.7" cy="157.7" rx="3.4" ry="33.8"/>
		
			<ellipse transform="matrix(3.772040e-02 -0.9993 0.9993 3.772040e-02 -64.6207 248.3602)" class="arbi151" cx="96.6" cy="157.7" rx="3.4" ry="33.7"/>
		
			<ellipse transform="matrix(3.782282e-02 -0.9993 0.9993 3.782282e-02 -64.6791 248.3123)" class="arbi152" cx="96.6" cy="157.7" rx="3.4" ry="33.6"/>
		
			<ellipse transform="matrix(3.792591e-02 -0.9993 0.9993 3.792591e-02 -64.7376 248.2643)" class="arbi153" cx="96.6" cy="157.8" rx="3.3" ry="33.5"/>
		
			<ellipse transform="matrix(3.802966e-02 -0.9993 0.9993 3.802966e-02 -64.7961 248.2162)" class="arbi154" cx="96.5" cy="157.8" rx="3.3" ry="33.4"/>
		
			<ellipse transform="matrix(3.813409e-02 -0.9993 0.9993 3.813409e-02 -64.8546 248.168)" class="arbi155" cx="96.5" cy="157.8" rx="3.3" ry="33.3"/>
		
			<ellipse transform="matrix(3.823921e-02 -0.9993 0.9993 3.823921e-02 -64.9132 248.1197)" class="arbi156" cx="96.4" cy="157.8" rx="3.2" ry="33.2"/>
		
			<ellipse transform="matrix(3.834501e-02 -0.9993 0.9993 3.834501e-02 -64.9719 248.0712)" class="arbi157" cx="96.4" cy="157.8" rx="3.2" ry="33"/>
		
			<ellipse transform="matrix(3.845150e-02 -0.9993 0.9993 3.845150e-02 -65.0306 248.0227)" class="arbi158" cx="96.4" cy="157.8" rx="3.2" ry="32.9"/>
		
			<ellipse transform="matrix(3.855870e-02 -0.9993 0.9993 3.855870e-02 -65.0894 247.974)" class="arbi159" cx="96.3" cy="157.8" rx="3.2" ry="32.8"/>
		
			<ellipse transform="matrix(3.866661e-02 -0.9993 0.9993 3.866661e-02 -65.1482 247.9252)" class="arbi159" cx="96.3" cy="157.8" rx="3.1" ry="32.7"/>
		
			<ellipse transform="matrix(3.877523e-02 -0.9992 0.9992 3.877523e-02 -65.2071 247.8763)" class="arbi160" cx="96.2" cy="157.8" rx="3.1" ry="32.6"/>
		
			<ellipse transform="matrix(3.888458e-02 -0.9992 0.9992 3.888458e-02 -65.266 247.8273)" class="arbi160" cx="96.2" cy="157.8" rx="3.1" ry="32.5"/>
		
			<ellipse transform="matrix(3.899466e-02 -0.9992 0.9992 3.899466e-02 -65.325 247.7782)" class="arbi161" cx="96.2" cy="157.9" rx="3" ry="32.4"/>
		
			<ellipse transform="matrix(3.910548e-02 -0.9992 0.9992 3.910548e-02 -65.384 247.7289)" class="arbi161" cx="96.1" cy="157.9" rx="3" ry="32.3"/>
		
			<ellipse transform="matrix(3.921705e-02 -0.9992 0.9992 3.921705e-02 -65.4431 247.6795)" class="arbi162" cx="96.1" cy="157.9" rx="3" ry="32.2"/>
		
			<ellipse transform="matrix(3.932937e-02 -0.9992 0.9992 3.932937e-02 -65.5022 247.63)" class="arbi163" cx="96" cy="157.9" rx="3" ry="32"/>
		
			<ellipse transform="matrix(3.944245e-02 -0.9992 0.9992 3.944245e-02 -65.5614 247.5803)" class="arbi164" cx="96" cy="157.9" rx="2.9" ry="31.9"/>
		
			<ellipse transform="matrix(3.955631e-02 -0.9992 0.9992 3.955631e-02 -65.6207 247.5305)" class="arbi165" cx="96" cy="157.9" rx="2.9" ry="31.8"/>
		
			<ellipse transform="matrix(3.967094e-02 -0.9992 0.9992 3.967094e-02 -65.68 247.4807)" class="arbi166" cx="95.9" cy="157.9" rx="2.9" ry="31.7"/>
		
			<ellipse transform="matrix(3.978636e-02 -0.9992 0.9992 3.978636e-02 -65.7394 247.4306)" class="arbi167" cx="95.9" cy="157.9" rx="2.8" ry="31.6"/>
		
			<ellipse transform="matrix(3.990258e-02 -0.9992 0.9992 3.990258e-02 -65.7989 247.3805)" class="arbi167" cx="95.8" cy="157.9" rx="2.8" ry="31.5"/>
		
			<ellipse transform="matrix(4.001960e-02 -0.9992 0.9992 4.001960e-02 -65.8584 247.3302)" class="arbi168" cx="95.8" cy="157.9" rx="2.8" ry="31.4"/>
		
			<ellipse transform="matrix(4.013743e-02 -0.9992 0.9992 4.013743e-02 -65.9179 247.2797)" class="arbi168" cx="95.7" cy="157.9" rx="2.8" ry="31.3"/>
		
			<ellipse transform="matrix(4.025609e-02 -0.9992 0.9992 4.025609e-02 -65.9775 247.2292)" class="arbi169" cx="95.7" cy="158" rx="2.7" ry="31.2"/>
		
			<ellipse transform="matrix(4.037557e-02 -0.9992 0.9992 4.037557e-02 -66.0372 247.1785)" class="arbi170" cx="95.7" cy="158" rx="2.7" ry="31.1"/>
		
			<ellipse transform="matrix(4.049589e-02 -0.9992 0.9992 4.049589e-02 -66.097 247.1276)" class="arbi171" cx="95.6" cy="158" rx="2.7" ry="30.9"/>
		
			<ellipse transform="matrix(4.061706e-02 -0.9992 0.9992 4.061706e-02 -66.1568 247.0766)" class="arbi172" cx="95.6" cy="158" rx="2.7" ry="30.8"/>
		
			<ellipse transform="matrix(4.073909e-02 -0.9992 0.9992 4.073909e-02 -66.2167 247.0255)" class="arbi173" cx="95.5" cy="158" rx="2.6" ry="30.7"/>
		
			<ellipse transform="matrix(4.086199e-02 -0.9992 0.9992 4.086199e-02 -66.2766 246.9742)" class="arbi174" cx="95.5" cy="158" rx="2.6" ry="30.6"/>
		
			<ellipse transform="matrix(4.098576e-02 -0.9992 0.9992 4.098576e-02 -66.3366 246.9228)" class="arbi174" cx="95.5" cy="158" rx="2.6" ry="30.5"/>
		
			<ellipse transform="matrix(4.111042e-02 -0.9992 0.9992 4.111042e-02 -66.3967 246.8713)" class="arbi175" cx="95.4" cy="158" rx="2.5" ry="30.4"/>
		
			<ellipse transform="matrix(4.123597e-02 -0.9991 0.9991 4.123597e-02 -66.4568 246.8195)" class="arbi175" cx="95.4" cy="158" rx="2.5" ry="30.3"/>
		
			<ellipse transform="matrix(4.136243e-02 -0.9991 0.9991 4.136243e-02 -66.517 246.7677)" class="arbi176" cx="95.3" cy="158" rx="2.5" ry="30.2"/>
		
			<ellipse transform="matrix(4.148980e-02 -0.9991 0.9991 4.148980e-02 -66.5773 246.7157)" class="arbi177" cx="95.3" cy="158.1" rx="2.5" ry="30.1"/>
		
			<ellipse transform="matrix(4.161811e-02 -0.9991 0.9991 4.161811e-02 -66.6376 246.6635)" class="arbi178" cx="95.3" cy="158.1" rx="2.4" ry="29.9"/>
		
			<ellipse transform="matrix(4.174734e-02 -0.9991 0.9991 4.174734e-02 -66.6981 246.6112)" class="arbi179" cx="95.2" cy="158.1" rx="2.4" ry="29.8"/>
		
			<ellipse transform="matrix(4.187753e-02 -0.9991 0.9991 4.187753e-02 -66.7585 246.5587)" class="arbi180" cx="95.2" cy="158.1" rx="2.4" ry="29.7"/>
		
			<ellipse transform="matrix(4.200867e-02 -0.9991 0.9991 4.200867e-02 -66.8191 246.5061)" class="arbi181" cx="95.1" cy="158.1" rx="2.3" ry="29.6"/>
		
			<ellipse transform="matrix(4.214079e-02 -0.9991 0.9991 4.214079e-02 -66.8797 246.4533)" class="arbi182" cx="95.1" cy="158.1" rx="2.3" ry="29.5"/>
		
			<ellipse transform="matrix(4.227388e-02 -0.9991 0.9991 4.227388e-02 -66.9404 246.4003)" class="arbi183" cx="95.1" cy="158.1" rx="2.3" ry="29.4"/>
		
			<ellipse transform="matrix(4.240796e-02 -0.9991 0.9991 4.240796e-02 -67.0012 246.3472)" class="arbi183" cx="95" cy="158.1" rx="2.3" ry="29.3"/>
		
			<ellipse transform="matrix(4.254305e-02 -0.9991 0.9991 4.254305e-02 -67.062 246.2939)" class="arbi184" cx="95" cy="158.1" rx="2.2" ry="29.2"/>
	</g>
	<g>
		<g>
			<g>
				<linearGradient id="ARBI_ID_1_" gradientUnits="userSpaceOnUse" x1="94.4552" y1="115.3396" x2="150.9173" y2="82.5776">
					<stop  offset="0" style="stop-color:var(--vitamui-primary-800)"/>
					<stop  offset="1" style="stop-color:var(--vitamui-primary)"/>
				</linearGradient>
				<path class="arbi185" d="M118.4,158.1l-34.2-4.2c-3.9-0.4-6.9-4.1-6.9-8.5V71.5c0-4.1,2.5-7.6,6.1-8.6l35.1-10.7
					c6.2-0.6,10.6,4.3,10.6,9.4v87.5c0,4.7-2.9,7.9-7.4,8.9C121.3,158.1,118.8,158.2,118.4,158.1z"/>
				<linearGradient id="ARBI_ID_2_" gradientUnits="userSpaceOnUse" x1="156.4071" y1="168.3077" x2="90.9311" y2="90.9868">
					<stop  offset="0" style="stop-color:var(--vitamui-primary-800)"/>
					<stop  offset="1" style="stop-color:var(--vitamui-primary)"/>
				</linearGradient>
				<path class="arbi186" d="M118.6,158.1l-36.5-4.1c-4-0.5-7-4.1-7-8.6V71c0-4.1,2.5-7.7,6.1-8.6l36.5-9.9c4.9-1.3,9.6,2.8,9.6,8.5
					v88.2C127.3,154.4,123.2,158.6,118.6,158.1z"/>
				<path class="arbi187" d="M127.3,61v84.9C127.3,145.9,124.7,110.9,127.3,61z"/>
			</g>
			<g>
				
					<linearGradient id="ARBI_ID_3_" gradientUnits="userSpaceOnUse" x1="477.5625" y1="19.6143" x2="576.3483" y2="121.6687" gradientTransform="matrix(-1 0 0 1 663.9603 0)">
					<stop  offset="0" style="stop-color:#F5F5F5"/>
					<stop  offset="0.7896" style="stop-color:#9B9A9B"/>
				</linearGradient>
				<polygon class="arbi188" points="125,159 125.1,49 72.5,61.4 72.5,151 				"/>
				<polygon class="arbi3" points="125.7,158.6 125,159 125.1,49 125.6,49.4 				"/>
			</g>
			
				<linearGradient id="ARBI_ID_4_" gradientUnits="userSpaceOnUse" x1="515.3666" y1="55.3863" x2="616.1735" y2="159.5286" gradientTransform="matrix(-1 0 0 1 663.9603 0)">
				<stop  offset="0" style="stop-color:#F5F5F5"/>
				<stop  offset="0.7896" style="stop-color:#9B9A9B"/>
			</linearGradient>
			<polygon class="arbi189" points="122.2,160.1 122.4,47.9 68.7,60.5 68.7,152 			"/>
			<linearGradient id="ARBI_ID_5_" gradientUnits="userSpaceOnUse" x1="79.7322" y1="116.448" x2="142.4417" y2="80.061">
				<stop  offset="0" style="stop-color:var(--vitamui-primary-800)"/>
				<stop  offset="1" style="stop-color:var(--vitamui-primary)"/>
			</linearGradient>
			<path class="arbi190" d="M107.2,161.5l-40.4-5.5c-4.6-0.6-8.1-4.5-8.1-9.1V69.6c0-4.3,2.9-8,7.1-9l41.4-11.3
				c7.4-0.6,12.7,4.6,12.7,10v92.9c0,5-3.5,8.3-8.9,9.2C110.6,161.6,107.7,161.6,107.2,161.5z"/>
			<linearGradient id="ARBI_ID_6_" gradientUnits="userSpaceOnUse" x1="69.065" y1="173.26" x2="107.2585" y2="40.0989">
				<stop  offset="0" style="stop-color:var(--vitamui-primary-800)"/>
				<stop  offset="3.934753e-02" style="stop-color:var(--vitamui-primary-800)"/>
				<stop  offset="0.1654" style="stop-color:var(--vitamui-primary-700)"/>
				<stop  offset="0.2899" style="stop-color:var(--vitamui-primary-700)"/>
				<stop  offset="0.4107" style="stop-color:var(--vitamui-primary-600)"/>
				<stop  offset="0.5264" style="stop-color:var(--vitamui-primary)"/>
				<stop  offset="0.6312" style="stop-color:var(--vitamui-primary)"/>
				<stop  offset="0.6963" style="stop-color:var(--vitamui-primary-400)"/>
				<stop  offset="0.7969" style="stop-color:var(--vitamui-primary)"/>
				<stop  offset="0.92" style="stop-color:var(--vitamui-primary-400)"/>
				<stop  offset="1" style="stop-color:var(--vitamui-primary-300)"/>
			</linearGradient>
			<path class="arbi191" d="M107.4,161.5l-43-5.4c-4.6-0.6-8.1-4.5-8.1-9.2V69c0-4.3,2.9-8,7.1-9l43-10.3c5.8-1.4,11.4,3,11.4,9v93.6
				C117.8,157.8,112.9,162.2,107.4,161.5z"/>
			<path class="arbi192" d="M117.8,58.7v90.1C117.8,148.8,114.7,111.6,117.8,58.7z"/>
			<polygon class="arbi3" points="122.9,159.7 122.2,160.1 122.4,47.9 122.9,48.3 			"/>
		</g>
		<g>
			<linearGradient id="ARBI_ID_7_" gradientUnits="userSpaceOnUse" x1="63.2852" y1="70.1692" x2="136.2699" y2="145.5688">
				<stop  offset="0" style="stop-color:#F5F5F5"/>
				<stop  offset="0.7896" style="stop-color:#9B9A9B"/>
			</linearGradient>
			<polygon class="arbi193" points="100,160.6 95.1,159.9 95.1,52.4 100,51.2 			"/>
			<polygon points="96.7,160.1 91.9,159.5 91.9,53.1 96.7,52 			"/>
			<linearGradient id="ARBI_ID_8_" gradientUnits="userSpaceOnUse" x1="92.2361" y1="54.7329" x2="98.2088" y2="60.9033">
				<stop  offset="0" style="stop-color:#F5F5F5"/>
				<stop  offset="0.7896" style="stop-color:#9B9A9B"/>
			</linearGradient>
			<polygon class="arbi194" points="93.6,61.5 96.5,60.9 96.5,53.8 93.6,54.5 			"/>
			<linearGradient id="ARBI_ID_9_" gradientUnits="userSpaceOnUse" x1="92.205" y1="64.4353" x2="98.2431" y2="70.6733">
				<stop  offset="0" style="stop-color:#F5F5F5"/>
				<stop  offset="0.7896" style="stop-color:#9B9A9B"/>
			</linearGradient>
			<polygon class="arbi195" points="93.6,71.2 96.5,70.7 96.5,63.6 93.6,64.2 			"/>
			<linearGradient id="ARBI_ID_10_" gradientUnits="userSpaceOnUse" x1="92.1739" y1="74.1378" x2="98.2774" y2="80.4433">
				<stop  offset="0" style="stop-color:#F5F5F5"/>
				<stop  offset="0.7896" style="stop-color:#9B9A9B"/>
			</linearGradient>
			<polygon class="arbi196" points="93.6,80.9 96.5,80.4 96.5,73.4 93.6,73.9 			"/>
			<linearGradient id="ARBI_ID_11_" gradientUnits="userSpaceOnUse" x1="92.1428" y1="83.8402" x2="98.3117" y2="90.2133">
				<stop  offset="0" style="stop-color:#F5F5F5"/>
				<stop  offset="0.7896" style="stop-color:#9B9A9B"/>
			</linearGradient>
			<polygon class="arbi197" points="93.6,90.5 96.5,90.2 96.5,83.2 93.6,83.6 			"/>
			<linearGradient id="ARBI_ID_12_" gradientUnits="userSpaceOnUse" x1="92.1117" y1="93.5427" x2="98.346" y2="99.9833">
				<stop  offset="0" style="stop-color:#F5F5F5"/>
				<stop  offset="0.7896" style="stop-color:#9B9A9B"/>
			</linearGradient>
			<polygon class="arbi198" points="93.6,100.2 96.5,100 96.5,92.9 93.6,93.2 			"/>
			<linearGradient id="ARBI_ID_13_" gradientUnits="userSpaceOnUse" x1="92.0806" y1="103.2452" x2="98.3803" y2="109.7534">
				<stop  offset="0" style="stop-color:#F5F5F5"/>
				<stop  offset="0.7896" style="stop-color:#9B9A9B"/>
			</linearGradient>
			<polygon class="arbi199" points="93.6,109.9 96.5,109.8 96.5,102.7 93.6,102.9 			"/>
			<polygon points="97.6,160.2 102.5,160.9 102.5,50.6 97.6,51.8 			"/>
			
				<linearGradient id="ARBI_ID_14_" gradientUnits="userSpaceOnUse" x1="508.2298" y1="53.3199" x2="515.1914" y2="60.5119" gradientTransform="matrix(-1 0 0 1 610.7714 0)">
				<stop  offset="0" style="stop-color:#F5F5F5"/>
				<stop  offset="0.7896" style="stop-color:#9B9A9B"/>
			</linearGradient>
			<polygon class="arbi200" points="100.7,60 97.7,60.6 97.7,53.5 100.7,52.8 			"/>
			
				<linearGradient id="ARBI_ID_15_" gradientUnits="userSpaceOnUse" x1="508.2618" y1="63.229" x2="515.1561" y2="70.3515" gradientTransform="matrix(-1 0 0 1 610.7714 0)">
				<stop  offset="0" style="stop-color:#F5F5F5"/>
				<stop  offset="0.7896" style="stop-color:#9B9A9B"/>
			</linearGradient>
			<polygon class="arbi201" points="100.7,69.9 97.7,70.5 97.7,63.4 100.7,62.7 			"/>
			
				<linearGradient id="ARBI_ID_16_" gradientUnits="userSpaceOnUse" x1="508.2938" y1="73.1382" x2="515.1208" y2="80.1911" gradientTransform="matrix(-1 0 0 1 610.7714 0)">
				<stop  offset="0" style="stop-color:#F5F5F5"/>
				<stop  offset="0.7896" style="stop-color:#9B9A9B"/>
			</linearGradient>
			<polygon class="arbi202" points="100.7,79.8 97.7,80.3 97.7,73.2 100.7,72.7 			"/>
			
				<linearGradient id="ARBI_ID_17_" gradientUnits="userSpaceOnUse" x1="508.3258" y1="83.0474" x2="515.0855" y2="90.0307" gradientTransform="matrix(-1 0 0 1 610.7714 0)">
				<stop  offset="0" style="stop-color:#F5F5F5"/>
				<stop  offset="0.7896" style="stop-color:#9B9A9B"/>
			</linearGradient>
			<polygon class="arbi203" points="100.7,89.8 97.7,90.1 97.7,83 100.7,82.6 			"/>
			
				<linearGradient id="ARBI_ID_18_" gradientUnits="userSpaceOnUse" x1="508.3578" y1="92.9565" x2="515.0502" y2="99.8704" gradientTransform="matrix(-1 0 0 1 610.7714 0)">
				<stop  offset="0" style="stop-color:#F5F5F5"/>
				<stop  offset="0.7896" style="stop-color:#9B9A9B"/>
			</linearGradient>
			<polygon class="arbi204" points="100.7,99.7 97.7,99.9 97.7,92.8 100.7,92.5 			"/>
			
				<linearGradient id="ARBI_ID_19_" gradientUnits="userSpaceOnUse" x1="508.3898" y1="102.8657" x2="515.0149" y2="109.71" gradientTransform="matrix(-1 0 0 1 610.7714 0)">
				<stop  offset="0" style="stop-color:#F5F5F5"/>
				<stop  offset="0.7896" style="stop-color:#9B9A9B"/>
			</linearGradient>
			<polygon class="arbi205" points="100.7,109.6 97.7,109.7 97.7,102.7 100.7,102.5 			"/>
			<linearGradient id="ARBI_ID_20_" gradientUnits="userSpaceOnUse" x1="92.0493" y1="113.0055" x2="98.4148" y2="119.5817">
				<stop  offset="0" style="stop-color:#F5F5F5"/>
				<stop  offset="0.7896" style="stop-color:#9B9A9B"/>
			</linearGradient>
			<polygon class="arbi206" points="93.6,119.7 96.5,119.6 96.5,112.6 93.6,112.7 			"/>
			<linearGradient id="ARBI_ID_21_" gradientUnits="userSpaceOnUse" x1="92.0182" y1="122.708" x2="98.4491" y2="129.3517">
				<stop  offset="0" style="stop-color:#F5F5F5"/>
				<stop  offset="0.7896" style="stop-color:#9B9A9B"/>
			</linearGradient>
			<polygon class="arbi207" points="93.6,129.3 96.5,129.4 96.5,122.4 93.6,122.3 			"/>
			<linearGradient id="ARBI_ID_22_" gradientUnits="userSpaceOnUse" x1="91.9871" y1="132.4104" x2="98.4834" y2="139.1217">
				<stop  offset="0" style="stop-color:#F5F5F5"/>
				<stop  offset="0.7896" style="stop-color:#9B9A9B"/>
			</linearGradient>
			<polygon class="arbi208" points="93.6,139 96.5,139.2 96.5,132.1 93.6,132 			"/>
			<linearGradient id="ARBI_ID_23_" gradientUnits="userSpaceOnUse" x1="91.956" y1="142.1129" x2="98.5177" y2="148.8917">
				<stop  offset="0" style="stop-color:#F5F5F5"/>
				<stop  offset="0.7896" style="stop-color:#9B9A9B"/>
			</linearGradient>
			<polygon class="arbi209" points="93.6,148.7 96.5,149 96.5,141.9 93.6,141.7 			"/>
			<linearGradient id="ARBI_ID_24_" gradientUnits="userSpaceOnUse" x1="91.9249" y1="151.8153" x2="98.552" y2="158.6618">
				<stop  offset="0" style="stop-color:#F5F5F5"/>
				<stop  offset="0.7896" style="stop-color:#9B9A9B"/>
			</linearGradient>
			<polygon class="arbi210" points="93.6,158.4 96.5,158.8 96.5,151.7 93.6,151.4 			"/>
			
				<linearGradient id="ARBI_ID_25_" gradientUnits="userSpaceOnUse" x1="508.422" y1="112.834" x2="514.9794" y2="119.6083" gradientTransform="matrix(-1 0 0 1 610.7714 0)">
				<stop  offset="0" style="stop-color:#F5F5F5"/>
				<stop  offset="0.7896" style="stop-color:#9B9A9B"/>
			</linearGradient>
			<polygon class="arbi211" points="100.7,119.6 97.7,119.6 97.7,112.5 100.7,112.4 			"/>
			
				<linearGradient id="ARBI_ID_26_" gradientUnits="userSpaceOnUse" x1="508.454" y1="122.7432" x2="514.9441" y2="129.448" gradientTransform="matrix(-1 0 0 1 610.7714 0)">
				<stop  offset="0" style="stop-color:#F5F5F5"/>
				<stop  offset="0.7896" style="stop-color:#9B9A9B"/>
			</linearGradient>
			<polygon class="arbi212" points="100.7,129.5 97.7,129.5 97.7,122.4 100.7,122.4 			"/>
			
				<linearGradient id="ARBI_ID_27_" gradientUnits="userSpaceOnUse" x1="508.4861" y1="132.6523" x2="514.9088" y2="139.2876" gradientTransform="matrix(-1 0 0 1 610.7714 0)">
				<stop  offset="0" style="stop-color:#F5F5F5"/>
				<stop  offset="0.7896" style="stop-color:#9B9A9B"/>
			</linearGradient>
			<polygon class="arbi213" points="100.7,139.5 97.7,139.3 97.7,132.2 100.7,132.3 			"/>
			
				<linearGradient id="ARBI_ID_28_" gradientUnits="userSpaceOnUse" x1="508.518" y1="142.5615" x2="514.8735" y2="149.1272" gradientTransform="matrix(-1 0 0 1 610.7714 0)">
				<stop  offset="0" style="stop-color:#F5F5F5"/>
				<stop  offset="0.7896" style="stop-color:#9B9A9B"/>
			</linearGradient>
			<polygon class="arbi214" points="100.7,149.4 97.7,149.1 97.7,142 100.7,142.2 			"/>
			
				<linearGradient id="ARBI_ID_29_" gradientUnits="userSpaceOnUse" x1="508.55" y1="152.4706" x2="514.8381" y2="158.9668" gradientTransform="matrix(-1 0 0 1 610.7714 0)">
				<stop  offset="0" style="stop-color:#F5F5F5"/>
				<stop  offset="0.7896" style="stop-color:#9B9A9B"/>
			</linearGradient>
			<polygon class="arbi215" points="100.7,159.3 97.7,158.9 97.7,151.8 100.7,152.2 			"/>
		</g>
	</g>
	<g>
		<g>
			
				<linearGradient id="ARBI_ID_30_" gradientUnits="userSpaceOnUse" x1="476.6073" y1="130.1486" x2="548.7708" y2="204.6999" gradientTransform="matrix(-0.9856 -0.1692 -0.1692 0.9856 650.9017 -5.702)">
				<stop  offset="0" style="stop-color:#F5F5F5"/>
				<stop  offset="0.7896" style="stop-color:#9B9A9B"/>
			</linearGradient>
			<polygon class="arbi216" points="96.7,135.3 110.7,54.6 72.8,57.4 61.5,123.3 			"/>
			<polygon class="arbi3" points="97.2,135.2 96.7,135.3 110.7,54.6 111,54.9 			"/>
		</g>
		
			<linearGradient id="ARBI_ID_31_" gradientUnits="userSpaceOnUse" x1="138.8627" y1="167.1059" x2="64.8246" y2="288.3797" gradientTransform="matrix(0.9856 0.1692 -0.1692 0.9856 -3.4855 -118.029)">
			<stop  offset="0" style="stop-color:#F5F5F5"/>
			<stop  offset="0.7896" style="stop-color:#9B9A9B"/>
		</linearGradient>
		<polygon class="arbi217" points="94.7,135.8 108.9,53.4 70.3,56.3 58.7,123.5 		"/>
		<polygon class="arbi3" points="95.2,135.7 94.7,135.8 108.9,53.4 109.2,53.8 		"/>
	</g>
	<g>
		<g>
			<path class="arbi184" d="M103.9,60.2l-29.5,1.8c-0.2,0-0.4-0.2-0.3-0.6l0,0c0.1-0.3,0.3-0.6,0.6-0.6l29.6-2c0.3,0,0.5,0.3,0.4,0.6
				l0,0C104.5,59.8,104.2,60.1,103.9,60.2z"/>
			<path class="arbi184" d="M102.9,64.2l-29.3,1.2c-0.2,0-0.4-0.2-0.3-0.6v0c0.1-0.3,0.3-0.6,0.5-0.6l29.4-1.4c0.3,0,0.5,0.3,0.4,0.7
				l0,0C103.6,63.9,103.3,64.2,102.9,64.2z"/>
			<path class="arbi184" d="M102,68.3l-29.2,0.6c-0.2,0-0.4-0.2-0.3-0.6l0,0c0.1-0.3,0.3-0.6,0.5-0.6l29.2-0.8c0.3,0,0.5,0.3,0.4,0.7
				v0C102.7,68,102.4,68.3,102,68.3z"/>
		</g>
		<g>
			<path class="arbi184" d="M99.4,80l-28.6-1.1c-0.2,0-0.4-0.3-0.3-0.6l0,0c0.1-0.3,0.3-0.6,0.5-0.6l28.7,1c0.3,0,0.5,0.3,0.4,0.7v0
				C100,79.7,99.7,80,99.4,80z"/>
			<path class="arbi184" d="M98.5,84L70,82.3c-0.2,0-0.4-0.3-0.3-0.6l0,0c0.1-0.3,0.3-0.6,0.5-0.5l28.5,1.5c0.3,0,0.5,0.3,0.4,0.7l0,0
				C99.1,83.7,98.8,84,98.5,84z"/>
			<path class="arbi184" d="M97.6,88l-28.3-2.3c-0.2,0-0.4-0.3-0.3-0.6l0,0c0.1-0.3,0.3-0.6,0.5-0.5l28.4,2.1c0.3,0,0.5,0.3,0.4,0.7
				l0,0C98.2,87.7,97.9,88,97.6,88z"/>
		</g>
		<g>
			<path class="arbi184" d="M95,99.5l-27.8-4c-0.2,0-0.4-0.3-0.3-0.6l0,0c0.1-0.3,0.3-0.5,0.5-0.5l27.8,3.8c0.3,0,0.5,0.4,0.4,0.7l0,0
				C95.7,99.3,95.3,99.5,95,99.5z"/>
			<path class="arbi184" d="M94.2,103.4l-27.6-4.5c-0.2,0-0.3-0.3-0.3-0.6l0,0c0.1-0.3,0.3-0.5,0.5-0.5l27.7,4.4
				c0.3,0,0.5,0.4,0.4,0.7l0,0C94.8,103.2,94.5,103.5,94.2,103.4z"/>
			<path class="arbi184" d="M93.3,107.4l-27.5-5.1c-0.2,0-0.3-0.3-0.3-0.6l0,0c0.1-0.3,0.3-0.5,0.5-0.5l27.5,4.9
				c0.3,0.1,0.5,0.4,0.4,0.8l0,0C93.9,107.2,93.6,107.4,93.3,107.4z"/>
		</g>
		<g>
			<path class="arbi184" d="M90.7,118.6l-27-6.7c-0.2-0.1-0.3-0.3-0.3-0.7l0,0c0.1-0.3,0.3-0.5,0.5-0.5l27,6.5
				c0.3,0.1,0.5,0.4,0.4,0.8l0,0C91.3,118.5,91,118.7,90.7,118.6z"/>
			<path class="arbi184" d="M89.9,122.5l-26.8-7.3c-0.2-0.1-0.3-0.4-0.3-0.7l0,0c0.1-0.3,0.3-0.5,0.5-0.4l26.9,7.1
				c0.3,0.1,0.5,0.4,0.4,0.8l0,0C90.5,122.4,90.2,122.6,89.9,122.5z"/>
			<path class="arbi184" d="M89,126.4l-26.6-7.8c-0.2-0.1-0.3-0.4-0.3-0.7l0,0c0.1-0.3,0.3-0.5,0.5-0.4l26.7,7.6
				c0.3,0.1,0.5,0.4,0.4,0.8l0,0C89.6,126.2,89.3,126.5,89,126.4z"/>
		</g>
	</g>
	<linearGradient id="ARBI_ID_32_" gradientUnits="userSpaceOnUse" x1="61.8659" y1="54.3733" x2="61.8659" y2="54.3733">
		<stop  offset="0" style="stop-color:#F5F5F5"/>
		<stop  offset="0.7896" style="stop-color:#9B9A9B"/>
	</linearGradient>
	<path class="arbi218" d="M61.9,54.4"/>
	<path class="arbi1" d="M87.3,55c-0.2,1.1-0.4,2.3-0.6,3.4c-0.6,3.3-1.1,6.5-1.7,9.7c0,0.1,0,0.3-0.1,0.4c-0.1,0.4-0.4,0.6-0.7,0.6
		c-0.3,0-0.5-0.3-0.4-0.7c0-0.2,0.1-0.4,0.1-0.6c0.7-4.2,1.5-8.4,2.2-12.7"/>
	<g>
		<g>
			<linearGradient id="ARBI_ID_33_" gradientUnits="userSpaceOnUse" x1="77.2191" y1="45.5436" x2="96.1092" y2="65.0587">
				<stop  offset="0" style="stop-color:#BCB9BA"/>
				<stop  offset="0.7896" style="stop-color:#4C4C4C"/>
			</linearGradient>
			<path class="arbi219" d="M83.6,44C83.6,44,83.6,44,83.6,44c-2.4,0.2-4.7,3-5.3,6.5c-0.3,1.8-0.6,3.5-0.8,5.2l0.5,0l0.6,0
				c0.3-1.7,0.6-3.5,0.9-5.2c0.4-2.3,1.8-4.3,3.5-4.7c0.2,0,0.3-0.1,0.4-0.1c2.2-0.3,3.8,2.2,3.2,5.4c-0.2,1.4-0.5,2.7-0.7,4.1
				l0.6,0l0.6,0c0.2-1.3,0.4-2.5,0.7-3.8c0.1-0.4,0.2-0.9,0.2-1.4C88.1,46.2,86.3,43.8,83.6,44z"/>
			<linearGradient id="ARBI_ID_34_" gradientUnits="userSpaceOnUse" x1="79.2041" y1="48.6172" x2="90.9604" y2="60.7624">
				<stop  offset="0" style="stop-color:#BCB9BA"/>
				<stop  offset="0.7896" style="stop-color:#4C4C4C"/>
			</linearGradient>
			<path class="arbi220" d="M84.3,47.6c-0.4-0.2-0.8-0.3-1.1-0.2c-1.1,0.2-2.2,1.5-2.5,3.3c-0.3,1.6-0.5,3.3-0.8,4.9l0.6,0l0.6,0
				c0.3-1.6,0.5-3.3,0.8-4.9c0.1-0.6,0.4-1,0.8-1.3c0.1-0.1,0.2-0.1,0.3-0.2c0.3-0.1,0.6-0.1,0.9,0.2c0.4,0.4,0.5,1,0.4,1.7
				c-0.3,1.5-0.5,2.9-0.8,4.4l0.6,0l0.6,0c0.2-1.4,0.5-2.9,0.7-4.3C85.6,49.4,85.2,48.1,84.3,47.6z"/>
		</g>
		<g>
			<linearGradient id="ARBI_ID_35_" gradientUnits="userSpaceOnUse" x1="73.9424" y1="47.7838" x2="91.9898" y2="57.0497">
				<stop  offset="0" style="stop-color:#BCB9BA"/>
				<stop  offset="0.21" style="stop-color:#9B9A9B"/>
				<stop  offset="0.46" style="stop-color:#F5F5F5"/>
				<stop  offset="0.74" style="stop-color:#BCB9BA"/>
				<stop  offset="1" style="stop-color:#F5F5F5"/>
			</linearGradient>
			<path class="arbi221" d="M83.7,47.6c-0.2-0.1-0.4-0.2-0.6-0.2c0,0-0.1,0-0.1,0c-1.3-0.2-2.7,1.2-3,3.3c-0.3,1.7-0.5,3.3-0.8,4.9
				l0.2,0l0.4,0c0,0,0,0,0,0l0.6,0c0.3-1.7,0.5-3.3,0.8-5c0.1-0.6,0.4-1,0.8-1.3c0.3-0.2,0.6-0.3,0.9-0.2c0.1,0,0.2,0.1,0.3,0.2
				c0.4,0.4,0.5,1,0.4,1.7c-0.3,1.5-0.5,2.9-0.8,4.4l0.6,0l0.6,0c0.3-1.5,0.5-2.9,0.8-4.4C85,49.4,84.6,48.1,83.7,47.6z"/>
			<linearGradient id="ARBI_ID_36_" gradientUnits="userSpaceOnUse" x1="61.6259" y1="45.4665" x2="106.3326" y2="68.4199">
				<stop  offset="0" style="stop-color:#BCB9BA"/>
				<stop  offset="0.21" style="stop-color:#9B9A9B"/>
				<stop  offset="0.46" style="stop-color:#F5F5F5"/>
				<stop  offset="0.74" style="stop-color:#BCB9BA"/>
				<stop  offset="1" style="stop-color:#F5F5F5"/>
			</linearGradient>
			<path class="arbi222" d="M83.6,44.1c-0.2,0-0.4,0-0.6,0c-2.4,0.2-4.7,3-5.3,6.5c-0.3,1.8-0.6,3.5-0.8,5.3l0.6,0l0.5,0
				c0.3-1.7,0.6-3.5,0.9-5.2c0.4-2.3,1.8-4.3,3.5-4.7c0.4-0.1,0.7-0.1,1-0.1c1.9,0.2,3.1,2.5,2.6,5.4c-0.2,1.4-0.5,2.7-0.7,4.1l0,0
				c-0.8,4.4-1.5,8.8-2.3,13.1c0,0.2-0.1,0.4-0.1,0.6c0,0.4,0.1,0.7,0.4,0.7c0.1,0,0.2,0,0.4-0.1c0.1-0.1,0.2-0.2,0.3-0.5
				c0-0.1,0.1-0.3,0.1-0.4c0.6-3.2,1.1-6.4,1.7-9.7c0.2-1.2,0.4-2.5,0.7-3.8l0,0c0.2-1.3,0.5-2.5,0.7-3.8c0.1-0.4,0.2-0.9,0.2-1.4
				C87.5,46.5,85.9,44.2,83.6,44.1z"/>
		</g>
	</g>
</g>
</svg>
