<?xml version="1.0" encoding="utf-8"?>
<!-- Generator: Adobe Illustrator 25.2.0, SVG Export Plug-In . SVG Version: 6.00 Build 0)  -->
<!DOCTYPE svg PUBLIC "-//W3C//DTD SVG 1.1//EN" "http://www.w3.org/Graphics/SVG/1.1/DTD/svg11.dtd" [
	<!ENTITY ns_extend "http://ns.adobe.com/Extensibility/1.0/">
	<!ENTITY ns_ai "http://ns.adobe.com/AdobeIllustrator/10.0/">
	<!ENTITY ns_graphs "http://ns.adobe.com/Graphs/1.0/">
	<!ENTITY ns_vars "http://ns.adobe.com/Variables/1.0/">
	<!ENTITY ns_imrep "http://ns.adobe.com/ImageReplacement/1.0/">
	<!ENTITY ns_sfw "http://ns.adobe.com/SaveForWeb/1.0/">
	<!ENTITY ns_custom "http://ns.adobe.com/GenericCustomNamespace/1.0/">
	<!ENTITY ns_adobe_xpath "http://ns.adobe.com/XPath/1.0/">
]>
<svg version="1.1" id="Calque_1" xmlns:x="&ns_extend;" xmlns:i="&ns_ai;" xmlns:graph="&ns_graphs;"
	 xmlns="http://www.w3.org/2000/svg" xmlns:xlink="http://www.w3.org/1999/xlink" x="0px" y="0px" viewBox="0 0 200 200"
	 style="enable-background:new 0 0 200 200;" xml:space="preserve">
<style type="text/css">
	.arch0{fill-rule:evenodd;clip-rule:evenodd;}
	.arch1{fill-rule:evenodd;clip-rule:evenodd;fill:#BCB9BA;}
	.arch2{fill-rule:evenodd;clip-rule:evenodd;fill:#F5F4F5;}
	.arch3{fill-rule:evenodd;clip-rule:evenodd;fill:#E5E3E3;}
	.arch4{fill:#BCB9BA;}
	.arch5{fill:#BBB8B9;}
	.arch6{fill:#BAB8B9;}
	.arch7{fill:#BAB7B8;}
	.arch8{fill:#B9B7B8;}
	.arch9{fill:#B9B6B7;}
	.arch10{fill:#B8B6B7;}
	.arch11{fill:#B8B5B6;}
	.arch12{fill:#B7B5B6;}
	.arch13{fill:#B7B4B5;}
	.arch14{fill:#B6B4B4;}
	.arch15{fill:#B5B3B4;}
	.arch16{fill:#B5B3B3;}
	.arch17{fill:#B4B2B3;}
	.arch18{fill:#B4B1B2;}
	.arch19{fill:#B3B1B2;}
	.arch20{fill:#B3B0B1;}
	.arch21{fill:#B2B0B1;}
	.arch22{fill:#B2AFB0;}
	.arch23{fill:#B1AFB0;}
	.arch24{fill:#B0AEAF;}
	.arch25{fill:#B0AEAE;}
	.arch26{fill:#AFADAE;}
	.arch27{fill:#AFADAD;}
	.arch28{fill:#AEACAD;}
	.arch29{fill:#AEACAC;}
	.arch30{fill:#ADABAC;}
	.arch31{fill:#ADAAAB;}
	.arch32{fill:#ACAAAB;}
	.arch33{fill:#ACA9AA;}
	.arch34{fill:#ABA9AA;}
	.arch35{fill:#AAA8A9;}
	.arch36{fill:#A9A7A8;}
	.arch37{fill:#A9A7A7;}
	.arch38{fill:#A8A6A7;}
	.arch39{fill:#A8A6A6;}
	.arch40{fill:#A7A5A6;}
	.arch41{fill:#A7A4A5;}
	.arch42{fill:#A6A4A5;}
	.arch43{fill:#A5A3A4;}
	.arch44{fill:#A4A2A3;}
	.arch45{fill:#A3A1A2;}
	.arch46{fill:#A3A1A1;}
	.arch47{fill:#A2A0A1;}
	.arch48{fill:#A2A0A0;}
	.arch49{fill:#A19FA0;}
	.arch50{fill:#A09F9F;}
	.arch51{fill:#A09E9F;}
	.arch52{fill:#9F9D9E;}
	.arch53{fill:#9E9C9D;}
	.arch54{fill:#9D9B9C;}
	.arch55{fill:#9D9B9B;}
	.arch56{fill:#9C9A9B;}
	.arch57{fill:#9C9A9A;}
	.arch58{fill:#9B999A;}
	.arch59{fill:#9A9999;}
	.arch60{fill:#9A9899;}
	.arch61{fill:#999898;}
	.arch62{fill:#999798;}
	.arch63{fill:#989697;}
	.arch64{fill:#979596;}
	.arch65{fill:#979595;}
	.arch66{fill:#969495;}
	.arch67{fill:#959494;}
	.arch68{fill:#959394;}
	.arch69{fill:#949393;}
	.arch70{fill:#949293;}
	.arch71{fill:#939292;}
	.arch72{fill:#939192;}
	.arch73{fill:#929191;}
	.arch74{fill:#929091;}
	.arch75{fill:#918F90;}
	.arch76{fill:#918F8F;}
	.arch77{fill:#908E8F;}
	.arch78{fill:#8F8E8E;}
	.arch79{fill:#8F8D8E;}
	.arch80{fill:#8E8D8D;}
	.arch81{fill:#8E8C8D;}
	.arch82{fill:#8D8C8C;}
	.arch83{fill:#8D8B8C;}
	.arch84{fill:#8C8B8B;}
	.arch85{fill:#8C8A8B;}
	.arch86{fill:#8B8A8A;}
	.arch87{fill:#8A898A;}
	.arch88{fill:#8A8889;}
	.arch89{fill:#898888;}
	.arch90{fill:#898788;}
	.arch91{fill:#888787;}
	.arch92{fill:#888687;}
	.arch93{fill:#878686;}
	.arch94{fill:#878586;}
	.arch95{fill:#868585;}
	.arch96{fill:#858485;}
	.arch97{fill:#858484;}
	.arch98{fill:#848384;}
	.arch99{fill:#848283;}
	.arch100{fill:#838282;}
	.arch101{fill:#838182;}
	.arch102{fill:#828181;}
	.arch103{fill:#828081;}
	.arch104{fill:#818080;}
	.arch105{fill:#817F80;}
	.arch106{fill:#807F7F;}
	.arch107{fill:#7F7E7F;}
	.arch108{fill:#7F7E7E;}
	.arch109{fill:#7E7D7E;}
	.arch110{fill:#7E7D7D;}
	.arch111{fill:#7D7C7C;}
	.arch112{fill:#7D7B7C;}
	.arch113{fill:#7C7B7B;}
	.arch114{fill:#7C7A7B;}
	.arch115{fill:#7B7A7A;}
	.arch116{fill:#7A797A;}
	.arch117{fill:#7A7979;}
	.arch118{fill:#797879;}
	.arch119{fill:#797878;}
	.arch120{fill:#787778;}
	.arch121{fill:#787777;}
	.arch122{fill:#777676;}
	.arch123{fill:#767575;}
	.arch124{fill:#767475;}
	.arch125{fill:#757474;}
	.arch126{fill:#747374;}
	.arch127{fill:#747373;}
	.arch128{fill:#737273;}
	.arch129{fill:#737272;}
	.arch130{fill:#727172;}
	.arch131{fill:#727171;}
	.arch132{fill:#717070;}
	.arch133{fill:#706F6F;}
	.arch134{fill:#6F6F6F;}
	.arch135{fill:#6F6E6E;}
	.arch136{fill:#6E6D6E;}
	.arch137{fill:#6E6D6D;}
	.arch138{fill:#6D6C6D;}
	.arch139{fill:#6D6C6C;}
	.arch140{fill:#6C6B6C;}
	.arch141{fill:#6C6B6B;}
	.arch142{fill:#6B6A6B;}
	.arch143{fill:#6A6A6A;}
	.arch144{fill:#6A6969;}
	.arch145{fill:#696969;}
	.arch146{fill:#696868;}
	.arch147{fill:#686868;}
	.arch148{fill:#686767;}
	.arch149{fill:#676667;}
	.arch150{fill:#676666;}
	.arch151{fill:#666566;}
	.arch152{fill:#666565;}
	.arch153{fill:#656465;}
	.arch154{fill:#646464;}
	.arch155{fill:#646363;}
	.arch156{fill:#636363;}
	.arch157{fill:#636262;}
	.arch158{fill:#626262;}
	.arch159{fill:#626161;}
	.arch160{fill:#616161;}
	.arch161{fill:#616060;}
	.arch162{fill:#605F60;}
	.arch163{fill:#5F5F5F;}
	.arch164{fill:#5F5E5F;}
	.arch165{fill:#5E5E5E;}
	.arch166{fill:#5E5D5D;}
	.arch167{fill:#5D5D5D;}
	.arch168{fill:#5D5C5C;}
	.arch169{fill:#5C5C5C;}
	.arch170{fill:#5C5B5B;}
	.arch171{fill:#5B5B5B;}
	.arch172{fill:#5A5A5A;}
	.arch173{fill:#5A595A;}
	.arch174{fill:#595959;}
	.arch175{fill:#595859;}
	.arch176{fill:#585858;}
	.arch177{fill:#585757;}
	.arch178{fill:#575757;}
	.arch179{fill:#575656;}
	.arch180{fill:#565656;}
	.arch181{fill:#565555;}
	.arch182{fill:#555555;}
	.arch183{fill:#545454;}
	.arch184{fill:#535353;}
	.arch185{fill:#535253;}
	.arch186{fill:#525252;}
	.arch187{fill:#525152;}
	.arch188{fill:#515151;}
	.arch189{fill:#515050;}
	.arch190{fill:#505050;}
	.arch191{fill:#4F4F4F;}
	.arch192{fill:#4E4E4E;}
	.arch193{fill:#4D4D4D;}
	.arch194{fill:url(#ARCH_ID_1_);}
	.arch195{fill:url(#ARCH_ID_2_);}
	.arch196{fill:var(--vitamui-primary);}
	.arch197{fill-rule:evenodd;clip-rule:evenodd;fill:url(#ARCH_ID_3_);}
	.arch198{fill-rule:evenodd;clip-rule:evenodd;fill:url(#ARCH_ID_4_);}
	.arch199{fill:url(#ARCH_ID_5_);}
	.arch200{fill:url(#ARCH_ID_6_);}
	.arch201{fill:url(#ARCH_ID_7_);}
	.arch202{fill:url(#ARCH_ID_8_);}
	.arch203{fill:var(--vitamui-primary-300);}
	.arch204{fill-rule:evenodd;clip-rule:evenodd;fill:url(#ARCH_ID_9_);}
	.arch205{fill-rule:evenodd;clip-rule:evenodd;fill:url(#ARCH_ID_10_);}
	.arch206{fill-rule:evenodd;clip-rule:evenodd;fill:#2A2C2B;}
	.arch207{fill-rule:evenodd;clip-rule:evenodd;fill:#4D4D4D;}
	.arch208{fill-rule:evenodd;clip-rule:evenodd;fill:url(#ARCH_ID_11_);}
	.arch209{fill-rule:evenodd;clip-rule:evenodd;fill:url(#ARCH_ID_12_);}
	.arch210{fill-rule:evenodd;clip-rule:evenodd;fill:#FFFFFF;}
	.arch211{fill-rule:evenodd;clip-rule:evenodd;fill:url(#ARCH_ID_13_);}
	.arch212{fill:#E5E3E3;}
	.arch213{fill-rule:evenodd;clip-rule:evenodd;fill:url(#ARCH_ID_14_);}
	.arch214{fill:#9B9A9B;}
	.arch215{fill-rule:evenodd;clip-rule:evenodd;fill:url(#ARCH_ID_15_);}
	.arch216{fill-rule:evenodd;clip-rule:evenodd;fill:url(#ARCH_ID_16_);}
	.arch217{fill-rule:evenodd;clip-rule:evenodd;fill:url(#ARCH_ID_17_);}
</style>
<metadata>
	<sfw  xmlns="&ns_sfw;">
		<slices></slices>
		<sliceSourceBounds  bottomLeftOrigin="true" height="132.7" width="165.1" x="19" y="45.5"></sliceSourceBounds>
	</sfw>
</metadata>
<g>
	<g>
		<g>
			<path class="arch0" d="M101.5,115.2c45.6,0,82.6,8.5,82.6,19s-37,20.2-82.6,20.2S19,144.8,19,134.3
				C18.8,123.8,55.8,115.2,101.5,115.2z"/>
			<path class="arch1" d="M101.5,115.6c43.6,0,78.9,8.4,78.9,18.8c0,10.4-35.3,18.8-78.9,18.8s-78.9-8.4-78.9-18.8
				C22.6,123.9,57.9,115.6,101.5,115.6z"/>
			<path class="arch2" d="M101.5,113.4c43.6,0,78.9,8.4,78.9,18.8S145.1,151,101.5,151s-78.9-8.4-78.9-18.8
				C22.6,121.7,57.9,113.4,101.5,113.4z"/>
			<path class="arch1" d="M101.5,112.3c43.6,0,78.9,8.4,78.9,18.8s-35.3,18.8-78.9,18.8s-78.9-8.4-78.9-18.8
				C22.6,120.6,57.9,112.3,101.5,112.3z"/>
			<path class="arch3" d="M101.4,112.3c22.9,0,43.4,2.3,57.8,6c-30.2-1.8-112.6,2.6-132.9,18.5c-2.5-1.8-3.8-3.8-3.8-5.7
				C22.4,120.6,57.9,112.3,101.4,112.3z"/>
			<path class="arch2" d="M22.6,130.9c0-10.4,35.3-18.8,78.9-18.8s78.9,8.4,78.9,18.8c0,0.4,0,0.6-0.1,1c-2.2-9.8-36.6-17.7-78.8-17.7
				s-76.6,7.9-78.8,17.7C22.6,131.6,22.6,131.3,22.6,130.9z"/>
		</g>
	</g>
	<g>
		<g>
			
				<ellipse transform="matrix(2.689626e-02 -0.9996 0.9996 2.689626e-02 -21.321 238.8211)" class="arch4" cx="112" cy="130.4" rx="7.9" ry="51.4"/>
			
				<ellipse transform="matrix(2.694130e-02 -0.9996 0.9996 2.694130e-02 -21.3755 238.7839)" class="arch5" cx="112" cy="130.4" rx="7.8" ry="51.3"/>
			
				<ellipse transform="matrix(2.698654e-02 -0.9996 0.9996 2.698654e-02 -21.4299 238.7466)" class="arch6" cx="111.9" cy="130.4" rx="7.8" ry="51.2"/>
			
				<ellipse transform="matrix(2.703196e-02 -0.9996 0.9996 2.703196e-02 -21.4844 238.7093)" class="arch7" cx="111.9" cy="130.4" rx="7.8" ry="51.1"/>
			
				<ellipse transform="matrix(2.707757e-02 -0.9996 0.9996 2.707757e-02 -21.5389 238.6719)" class="arch8" cx="111.8" cy="130.4" rx="7.7" ry="51"/>
			
				<ellipse transform="matrix(2.712338e-02 -0.9996 0.9996 2.712338e-02 -21.5935 238.6346)" class="arch9" cx="111.8" cy="130.4" rx="7.7" ry="50.9"/>
			
				<ellipse transform="matrix(2.716937e-02 -0.9996 0.9996 2.716937e-02 -21.648 238.5972)" class="arch10" cx="111.8" cy="130.4" rx="7.7" ry="50.8"/>
			
				<ellipse transform="matrix(2.721557e-02 -0.9996 0.9996 2.721557e-02 -21.7025 238.5597)" class="arch11" cx="111.7" cy="130.4" rx="7.7" ry="50.7"/>
			
				<ellipse transform="matrix(2.726196e-02 -0.9996 0.9996 2.726196e-02 -21.7571 238.5223)" class="arch12" cx="111.7" cy="130.4" rx="7.6" ry="50.6"/>
			
				<ellipse transform="matrix(2.730855e-02 -0.9996 0.9996 2.730855e-02 -21.8117 238.4848)" class="arch13" cx="111.6" cy="130.5" rx="7.6" ry="50.4"/>
			
				<ellipse transform="matrix(2.735533e-02 -0.9996 0.9996 2.735533e-02 -21.8663 238.4473)" class="arch14" cx="111.6" cy="130.5" rx="7.6" ry="50.3"/>
			
				<ellipse transform="matrix(2.740232e-02 -0.9996 0.9996 2.740232e-02 -21.9209 238.4098)" class="arch15" cx="111.6" cy="130.5" rx="7.5" ry="50.2"/>
			
				<ellipse transform="matrix(2.744951e-02 -0.9996 0.9996 2.744951e-02 -21.9756 238.3722)" class="arch16" cx="111.5" cy="130.5" rx="7.5" ry="50.1"/>
			
				<ellipse transform="matrix(2.749690e-02 -0.9996 0.9996 2.749690e-02 -22.0302 238.3346)" class="arch17" cx="111.5" cy="130.5" rx="7.5" ry="50"/>
			
				<ellipse transform="matrix(2.754449e-02 -0.9996 0.9996 2.754449e-02 -22.0849 238.297)" class="arch18" cx="111.4" cy="130.5" rx="7.5" ry="49.9"/>
			
				<ellipse transform="matrix(2.759229e-02 -0.9996 0.9996 2.759229e-02 -22.1396 238.2594)" class="arch19" cx="111.4" cy="130.5" rx="7.4" ry="49.8"/>
			
				<ellipse transform="matrix(2.764030e-02 -0.9996 0.9996 2.764030e-02 -22.1943 238.2217)" class="arch20" cx="111.4" cy="130.5" rx="7.4" ry="49.7"/>
			
				<ellipse transform="matrix(2.768851e-02 -0.9996 0.9996 2.768851e-02 -22.249 238.184)" class="arch21" cx="111.3" cy="130.5" rx="7.4" ry="49.6"/>
			
				<ellipse transform="matrix(2.773693e-02 -0.9996 0.9996 2.773693e-02 -22.3038 238.1462)" class="arch22" cx="111.3" cy="130.5" rx="7.3" ry="49.5"/>
			
				<ellipse transform="matrix(2.778556e-02 -0.9996 0.9996 2.778556e-02 -22.3585 238.1085)" class="arch23" cx="111.2" cy="130.5" rx="7.3" ry="49.3"/>
			
				<ellipse transform="matrix(2.783441e-02 -0.9996 0.9996 2.783441e-02 -22.4133 238.0707)" class="arch24" cx="111.2" cy="130.6" rx="7.3" ry="49.2"/>
			
				<ellipse transform="matrix(2.788347e-02 -0.9996 0.9996 2.788347e-02 -22.4681 238.0329)" class="arch25" cx="111.1" cy="130.6" rx="7.3" ry="49.1"/>
			
				<ellipse transform="matrix(2.793274e-02 -0.9996 0.9996 2.793274e-02 -22.5229 237.995)" class="arch26" cx="111.1" cy="130.6" rx="7.2" ry="49"/>
			
				<ellipse transform="matrix(2.798223e-02 -0.9996 0.9996 2.798223e-02 -22.5778 237.9571)" class="arch27" cx="111.1" cy="130.6" rx="7.2" ry="48.9"/>
			
				<ellipse transform="matrix(2.803194e-02 -0.9996 0.9996 2.803194e-02 -22.6326 237.9192)" class="arch28" cx="111" cy="130.6" rx="7.2" ry="48.8"/>
			
				<ellipse transform="matrix(2.808187e-02 -0.9996 0.9996 2.808187e-02 -22.6875 237.8813)" class="arch29" cx="111" cy="130.6" rx="7.2" ry="48.7"/>
			
				<ellipse transform="matrix(2.813201e-02 -0.9996 0.9996 2.813201e-02 -22.7424 237.8433)" class="arch30" cx="110.9" cy="130.6" rx="7.1" ry="48.6"/>
			
				<ellipse transform="matrix(2.818238e-02 -0.9996 0.9996 2.818238e-02 -22.7973 237.8053)" class="arch31" cx="110.9" cy="130.6" rx="7.1" ry="48.5"/>
			
				<ellipse transform="matrix(2.823298e-02 -0.9996 0.9996 2.823298e-02 -22.8523 237.7673)" class="arch32" cx="110.9" cy="130.6" rx="7.1" ry="48.3"/>
			
				<ellipse transform="matrix(2.828380e-02 -0.9996 0.9996 2.828380e-02 -22.9072 237.7292)" class="arch33" cx="110.8" cy="130.6" rx="7" ry="48.2"/>
			
				<ellipse transform="matrix(2.833484e-02 -0.9996 0.9996 2.833484e-02 -22.9622 237.6911)" class="arch34" cx="110.8" cy="130.7" rx="7" ry="48.1"/>
			
				<ellipse transform="matrix(2.838611e-02 -0.9996 0.9996 2.838611e-02 -23.0172 237.653)" class="arch35" cx="110.7" cy="130.7" rx="7" ry="48"/>
			
				<ellipse transform="matrix(2.843762e-02 -0.9996 0.9996 2.843762e-02 -23.0722 237.6148)" class="arch35" cx="110.7" cy="130.7" rx="7" ry="47.9"/>
			
				<ellipse transform="matrix(2.848935e-02 -0.9996 0.9996 2.848935e-02 -23.1272 237.5766)" class="arch36" cx="110.7" cy="130.7" rx="6.9" ry="47.8"/>
			
				<ellipse transform="matrix(2.854132e-02 -0.9996 0.9996 2.854132e-02 -23.1823 237.5384)" class="arch37" cx="110.6" cy="130.7" rx="6.9" ry="47.7"/>
			
				<ellipse transform="matrix(2.859352e-02 -0.9996 0.9996 2.859352e-02 -23.2374 237.5001)" class="arch38" cx="110.6" cy="130.7" rx="6.9" ry="47.6"/>
			
				<ellipse transform="matrix(2.864596e-02 -0.9996 0.9996 2.864596e-02 -23.2925 237.4619)" class="arch39" cx="110.5" cy="130.7" rx="6.8" ry="47.5"/>
			
				<ellipse transform="matrix(2.869863e-02 -0.9996 0.9996 2.869863e-02 -23.3476 237.4235)" class="arch40" cx="110.5" cy="130.7" rx="6.8" ry="47.3"/>
			
				<ellipse transform="matrix(2.875155e-02 -0.9996 0.9996 2.875155e-02 -23.4027 237.3852)" class="arch41" cx="110.5" cy="130.7" rx="6.8" ry="47.2"/>
			
				<ellipse transform="matrix(2.880470e-02 -0.9996 0.9996 2.880470e-02 -23.4579 237.3468)" class="arch42" cx="110.4" cy="130.7" rx="6.8" ry="47.1"/>
			
				<ellipse transform="matrix(2.885810e-02 -0.9996 0.9996 2.885810e-02 -23.5131 237.3083)" class="arch43" cx="110.4" cy="130.8" rx="6.7" ry="47"/>
			
				<ellipse transform="matrix(2.891175e-02 -0.9996 0.9996 2.891175e-02 -23.5683 237.2699)" class="arch43" cx="110.3" cy="130.8" rx="6.7" ry="46.9"/>
			
				<ellipse transform="matrix(2.896563e-02 -0.9996 0.9996 2.896563e-02 -23.6235 237.2314)" class="arch44" cx="110.3" cy="130.8" rx="6.7" ry="46.8"/>
			
				<ellipse transform="matrix(2.901977e-02 -0.9996 0.9996 2.901977e-02 -23.6787 237.1929)" class="arch44" cx="110.3" cy="130.8" rx="6.6" ry="46.7"/>
			
				<ellipse transform="matrix(2.907416e-02 -0.9996 0.9996 2.907416e-02 -23.734 237.1543)" class="arch45" cx="110.2" cy="130.8" rx="6.6" ry="46.6"/>
			
				<ellipse transform="matrix(2.912880e-02 -0.9996 0.9996 2.912880e-02 -23.7893 237.1157)" class="arch46" cx="110.2" cy="130.8" rx="6.6" ry="46.5"/>
			
				<ellipse transform="matrix(2.918369e-02 -0.9996 0.9996 2.918369e-02 -23.8446 237.0771)" class="arch47" cx="110.1" cy="130.8" rx="6.6" ry="46.3"/>
			
				<ellipse transform="matrix(2.923883e-02 -0.9996 0.9996 2.923883e-02 -23.8999 237.0384)" class="arch48" cx="110.1" cy="130.8" rx="6.5" ry="46.2"/>
			
				<ellipse transform="matrix(2.929424e-02 -0.9996 0.9996 2.929424e-02 -23.9553 236.9997)" class="arch49" cx="110" cy="130.8" rx="6.5" ry="46.1"/>
			
				<ellipse transform="matrix(2.934990e-02 -0.9996 0.9996 2.934990e-02 -24.0107 236.961)" class="arch50" cx="110" cy="130.8" rx="6.5" ry="46"/>
			
				<ellipse transform="matrix(2.940582e-02 -0.9996 0.9996 2.940582e-02 -24.0661 236.9222)" class="arch51" cx="110" cy="130.9" rx="6.5" ry="45.9"/>
			
				<ellipse transform="matrix(2.946200e-02 -0.9996 0.9996 2.946200e-02 -24.1215 236.8834)" class="arch52" cx="109.9" cy="130.9" rx="6.4" ry="45.8"/>
			
				<ellipse transform="matrix(2.951845e-02 -0.9996 0.9996 2.951845e-02 -24.1769 236.8445)" class="arch52" cx="109.9" cy="130.9" rx="6.4" ry="45.7"/>
			
				<ellipse transform="matrix(2.957516e-02 -0.9996 0.9996 2.957516e-02 -24.2324 236.8057)" class="arch53" cx="109.8" cy="130.9" rx="6.4" ry="45.6"/>
			
				<ellipse transform="matrix(2.963214e-02 -0.9996 0.9996 2.963214e-02 -24.2879 236.7667)" class="arch53" cx="109.8" cy="130.9" rx="6.3" ry="45.5"/>
			
				<ellipse transform="matrix(2.968939e-02 -0.9996 0.9996 2.968939e-02 -24.3434 236.7278)" class="arch54" cx="109.8" cy="130.9" rx="6.3" ry="45.4"/>
			
				<ellipse transform="matrix(2.974692e-02 -0.9996 0.9996 2.974692e-02 -24.3989 236.6888)" class="arch55" cx="109.7" cy="130.9" rx="6.3" ry="45.2"/>
			
				<ellipse transform="matrix(2.980471e-02 -0.9996 0.9996 2.980471e-02 -24.4545 236.6497)" class="arch56" cx="109.7" cy="130.9" rx="6.3" ry="45.1"/>
			
				<ellipse transform="matrix(2.986279e-02 -0.9996 0.9996 2.986279e-02 -24.5101 236.6107)" class="arch57" cx="109.6" cy="130.9" rx="6.2" ry="45"/>
			
				<ellipse transform="matrix(2.992113e-02 -0.9996 0.9996 2.992113e-02 -24.5657 236.5716)" class="arch58" cx="109.6" cy="130.9" rx="6.2" ry="44.9"/>
			
				<ellipse transform="matrix(2.997976e-02 -0.9996 0.9996 2.997976e-02 -24.6213 236.5324)" class="arch59" cx="109.6" cy="131" rx="6.2" ry="44.8"/>
			
				<ellipse transform="matrix(3.003868e-02 -0.9995 0.9995 3.003868e-02 -24.677 236.4932)" class="arch60" cx="109.5" cy="131" rx="6.1" ry="44.7"/>
			
				<ellipse transform="matrix(3.009787e-02 -0.9995 0.9995 3.009787e-02 -24.7327 236.454)" class="arch61" cx="109.5" cy="131" rx="6.1" ry="44.6"/>
			
				<ellipse transform="matrix(3.015735e-02 -0.9995 0.9995 3.015735e-02 -24.7884 236.4147)" class="arch62" cx="109.4" cy="131" rx="6.1" ry="44.5"/>
			
				<ellipse transform="matrix(3.021712e-02 -0.9995 0.9995 3.021712e-02 -24.8441 236.3754)" class="arch63" cx="109.4" cy="131" rx="6.1" ry="44.4"/>
			
				<ellipse transform="matrix(3.027718e-02 -0.9995 0.9995 3.027718e-02 -24.8999 236.3361)" class="arch63" cx="109.4" cy="131" rx="6" ry="44.2"/>
			
				<ellipse transform="matrix(3.033753e-02 -0.9995 0.9995 3.033753e-02 -24.9557 236.2967)" class="arch64" cx="109.3" cy="131" rx="6" ry="44.1"/>
			
				<ellipse transform="matrix(3.039818e-02 -0.9995 0.9995 3.039818e-02 -25.0115 236.2572)" class="arch65" cx="109.3" cy="131" rx="6" ry="44"/>
			
				<ellipse transform="matrix(3.045912e-02 -0.9995 0.9995 3.045912e-02 -25.0673 236.2178)" class="arch66" cx="109.2" cy="131" rx="6" ry="43.9"/>
			
				<ellipse transform="matrix(3.052036e-02 -0.9995 0.9995 3.052036e-02 -25.1232 236.1782)" class="arch67" cx="109.2" cy="131" rx="5.9" ry="43.8"/>
			
				<ellipse transform="matrix(3.058190e-02 -0.9995 0.9995 3.058190e-02 -25.1791 236.1387)" class="arch68" cx="109.1" cy="131" rx="5.9" ry="43.7"/>
			
				<ellipse transform="matrix(3.064375e-02 -0.9995 0.9995 3.064375e-02 -25.235 236.0991)" class="arch69" cx="109.1" cy="131.1" rx="5.9" ry="43.6"/>
			
				<ellipse transform="matrix(3.070590e-02 -0.9995 0.9995 3.070590e-02 -25.2909 236.0594)" class="arch70" cx="109.1" cy="131.1" rx="5.8" ry="43.5"/>
			
				<ellipse transform="matrix(3.076836e-02 -0.9995 0.9995 3.076836e-02 -25.3469 236.0198)" class="arch71" cx="109" cy="131.1" rx="5.8" ry="43.4"/>
			
				<ellipse transform="matrix(3.083113e-02 -0.9995 0.9995 3.083113e-02 -25.4029 235.98)" class="arch72" cx="109" cy="131.1" rx="5.8" ry="43.2"/>
			
				<ellipse transform="matrix(3.089421e-02 -0.9995 0.9995 3.089421e-02 -25.4589 235.9403)" class="arch73" cx="108.9" cy="131.1" rx="5.8" ry="43.1"/>
			
				<ellipse transform="matrix(3.095761e-02 -0.9995 0.9995 3.095761e-02 -25.515 235.9005)" class="arch74" cx="108.9" cy="131.1" rx="5.7" ry="43"/>
			
				<ellipse transform="matrix(3.102132e-02 -0.9995 0.9995 3.102132e-02 -25.571 235.8606)" class="arch75" cx="108.9" cy="131.1" rx="5.7" ry="42.9"/>
			
				<ellipse transform="matrix(3.108536e-02 -0.9995 0.9995 3.108536e-02 -25.6271 235.8207)" class="arch76" cx="108.8" cy="131.1" rx="5.7" ry="42.8"/>
			
				<ellipse transform="matrix(3.114971e-02 -0.9995 0.9995 3.114971e-02 -25.6833 235.7807)" class="arch77" cx="108.8" cy="131.1" rx="5.6" ry="42.7"/>
			
				<ellipse transform="matrix(3.121439e-02 -0.9995 0.9995 3.121439e-02 -25.7394 235.7407)" class="arch78" cx="108.7" cy="131.1" rx="5.6" ry="42.6"/>
			
				<ellipse transform="matrix(3.127940e-02 -0.9995 0.9995 3.127940e-02 -25.7956 235.7007)" class="arch79" cx="108.7" cy="131.2" rx="5.6" ry="42.5"/>
			
				<ellipse transform="matrix(3.134474e-02 -0.9995 0.9995 3.134474e-02 -25.8518 235.6606)" class="arch80" cx="108.7" cy="131.2" rx="5.6" ry="42.4"/>
			
				<ellipse transform="matrix(3.141041e-02 -0.9995 0.9995 3.141041e-02 -25.9081 235.6205)" class="arch81" cx="108.6" cy="131.2" rx="5.5" ry="42.2"/>
			
				<ellipse transform="matrix(3.147642e-02 -0.9995 0.9995 3.147642e-02 -25.9644 235.5803)" class="arch82" cx="108.6" cy="131.2" rx="5.5" ry="42.1"/>
			
				<ellipse transform="matrix(3.154276e-02 -0.9995 0.9995 3.154276e-02 -26.0207 235.5401)" class="arch83" cx="108.5" cy="131.2" rx="5.5" ry="42"/>
			
				<ellipse transform="matrix(3.160944e-02 -0.9995 0.9995 3.160944e-02 -26.077 235.4998)" class="arch84" cx="108.5" cy="131.2" rx="5.4" ry="41.9"/>
			
				<ellipse transform="matrix(3.167647e-02 -0.9995 0.9995 3.167647e-02 -26.1334 235.4595)" class="arch85" cx="108.5" cy="131.2" rx="5.4" ry="41.8"/>
			
				<ellipse transform="matrix(3.174384e-02 -0.9995 0.9995 3.174384e-02 -26.1898 235.4191)" class="arch86" cx="108.4" cy="131.2" rx="5.4" ry="41.7"/>
			
				<ellipse transform="matrix(3.181156e-02 -0.9995 0.9995 3.181156e-02 -26.2462 235.3787)" class="arch87" cx="108.4" cy="131.2" rx="5.4" ry="41.6"/>
			
				<ellipse transform="matrix(3.187963e-02 -0.9995 0.9995 3.187963e-02 -26.3026 235.3382)" class="arch88" cx="108.3" cy="131.2" rx="5.3" ry="41.5"/>
			
				<ellipse transform="matrix(3.194806e-02 -0.9995 0.9995 3.194806e-02 -26.3591 235.2977)" class="arch89" cx="108.3" cy="131.3" rx="5.3" ry="41.4"/>
			
				<ellipse transform="matrix(3.201684e-02 -0.9995 0.9995 3.201684e-02 -26.4156 235.2571)" class="arch90" cx="108.2" cy="131.3" rx="5.3" ry="41.2"/>
			
				<ellipse transform="matrix(3.208598e-02 -0.9995 0.9995 3.208598e-02 -26.4722 235.2165)" class="arch91" cx="108.2" cy="131.3" rx="5.3" ry="41.1"/>
			
				<ellipse transform="matrix(3.215548e-02 -0.9995 0.9995 3.215548e-02 -26.5288 235.1759)" class="arch92" cx="108.2" cy="131.3" rx="5.2" ry="41"/>
			
				<ellipse transform="matrix(3.222535e-02 -0.9995 0.9995 3.222535e-02 -26.5854 235.1351)" class="arch93" cx="108.1" cy="131.3" rx="5.2" ry="40.9"/>
			
				<ellipse transform="matrix(3.229558e-02 -0.9995 0.9995 3.229558e-02 -26.642 235.0944)" class="arch94" cx="108.1" cy="131.3" rx="5.2" ry="40.8"/>
			
				<ellipse transform="matrix(3.236619e-02 -0.9995 0.9995 3.236619e-02 -26.6987 235.0536)" class="arch95" cx="108" cy="131.3" rx="5.1" ry="40.7"/>
			
				<ellipse transform="matrix(3.243717e-02 -0.9995 0.9995 3.243717e-02 -26.7554 235.0127)" class="arch96" cx="108" cy="131.3" rx="5.1" ry="40.6"/>
			
				<ellipse transform="matrix(3.250853e-02 -0.9995 0.9995 3.250853e-02 -26.8121 234.9718)" class="arch97" cx="108" cy="131.3" rx="5.1" ry="40.5"/>
			
				<ellipse transform="matrix(3.258027e-02 -0.9995 0.9995 3.258027e-02 -26.8689 234.9308)" class="arch98" cx="107.9" cy="131.3" rx="5.1" ry="40.4"/>
			
				<ellipse transform="matrix(3.265239e-02 -0.9995 0.9995 3.265239e-02 -26.9257 234.8898)" class="arch99" cx="107.9" cy="131.4" rx="5" ry="40.3"/>
			
				<ellipse transform="matrix(3.272490e-02 -0.9995 0.9995 3.272490e-02 -26.9825 234.8487)" class="arch100" cx="107.8" cy="131.4" rx="5" ry="40.1"/>
			
				<ellipse transform="matrix(3.279779e-02 -0.9995 0.9995 3.279779e-02 -27.0394 234.8075)" class="arch101" cx="107.8" cy="131.4" rx="5" ry="40"/>
			
				<ellipse transform="matrix(3.287109e-02 -0.9995 0.9995 3.287109e-02 -27.0963 234.7663)" class="arch102" cx="107.8" cy="131.4" rx="4.9" ry="39.9"/>
			
				<ellipse transform="matrix(3.294477e-02 -0.9995 0.9995 3.294477e-02 -27.1532 234.7251)" class="arch103" cx="107.7" cy="131.4" rx="4.9" ry="39.8"/>
			
				<ellipse transform="matrix(3.301886e-02 -0.9995 0.9995 3.301886e-02 -27.2102 234.6838)" class="arch104" cx="107.7" cy="131.4" rx="4.9" ry="39.7"/>
			
				<ellipse transform="matrix(3.309335e-02 -0.9995 0.9995 3.309335e-02 -27.2672 234.6424)" class="arch105" cx="107.6" cy="131.4" rx="4.9" ry="39.6"/>
			
				<ellipse transform="matrix(3.316824e-02 -0.9994 0.9994 3.316824e-02 -27.3243 234.601)" class="arch106" cx="107.6" cy="131.4" rx="4.8" ry="39.5"/>
			
				<ellipse transform="matrix(3.324354e-02 -0.9994 0.9994 3.324354e-02 -27.3814 234.5595)" class="arch107" cx="107.6" cy="131.4" rx="4.8" ry="39.4"/>
			
				<ellipse transform="matrix(3.331926e-02 -0.9994 0.9994 3.331926e-02 -27.4385 234.518)" class="arch108" cx="107.5" cy="131.4" rx="4.8" ry="39.3"/>
			
				<ellipse transform="matrix(3.339539e-02 -0.9994 0.9994 3.339539e-02 -27.4956 234.4764)" class="arch109" cx="107.5" cy="131.5" rx="4.7" ry="39.1"/>
			
				<ellipse transform="matrix(3.347195e-02 -0.9994 0.9994 3.347195e-02 -27.5528 234.4347)" class="arch110" cx="107.4" cy="131.5" rx="4.7" ry="39"/>
			
				<ellipse transform="matrix(3.354892e-02 -0.9994 0.9994 3.354892e-02 -27.61 234.393)" class="arch111" cx="107.4" cy="131.5" rx="4.7" ry="38.9"/>
			
				<ellipse transform="matrix(3.362633e-02 -0.9994 0.9994 3.362633e-02 -27.6673 234.3513)" class="arch112" cx="107.4" cy="131.5" rx="4.7" ry="38.8"/>
			
				<ellipse transform="matrix(3.370416e-02 -0.9994 0.9994 3.370416e-02 -27.7246 234.3094)" class="arch113" cx="107.3" cy="131.5" rx="4.6" ry="38.7"/>
			
				<ellipse transform="matrix(3.378243e-02 -0.9994 0.9994 3.378243e-02 -27.7819 234.2675)" class="arch114" cx="107.3" cy="131.5" rx="4.6" ry="38.6"/>
			
				<ellipse transform="matrix(3.386113e-02 -0.9994 0.9994 3.386113e-02 -27.8393 234.2256)" class="arch115" cx="107.2" cy="131.5" rx="4.6" ry="38.5"/>
			
				<ellipse transform="matrix(3.394028e-02 -0.9994 0.9994 3.394028e-02 -27.8967 234.1836)" class="arch116" cx="107.2" cy="131.5" rx="4.6" ry="38.4"/>
			
				<ellipse transform="matrix(3.401987e-02 -0.9994 0.9994 3.401987e-02 -27.9541 234.1415)" class="arch117" cx="107.1" cy="131.5" rx="4.5" ry="38.3"/>
			
				<ellipse transform="matrix(3.409991e-02 -0.9994 0.9994 3.409991e-02 -28.0116 234.0994)" class="arch118" cx="107.1" cy="131.5" rx="4.5" ry="38.1"/>
			
				<ellipse transform="matrix(3.418041e-02 -0.9994 0.9994 3.418041e-02 -28.0692 234.0572)" class="arch119" cx="107.1" cy="131.6" rx="4.5" ry="38"/>
			
				<ellipse transform="matrix(3.426136e-02 -0.9994 0.9994 3.426136e-02 -28.1267 234.0149)" class="arch120" cx="107" cy="131.6" rx="4.4" ry="37.9"/>
			
				<ellipse transform="matrix(3.434277e-02 -0.9994 0.9994 3.434277e-02 -28.1843 233.9726)" class="arch121" cx="107" cy="131.6" rx="4.4" ry="37.8"/>
			
				<ellipse transform="matrix(3.442465e-02 -0.9994 0.9994 3.442465e-02 -28.242 233.9302)" class="arch122" cx="106.9" cy="131.6" rx="4.4" ry="37.7"/>
			
				<ellipse transform="matrix(3.450700e-02 -0.9994 0.9994 3.450700e-02 -28.2997 233.8877)" class="arch122" cx="106.9" cy="131.6" rx="4.4" ry="37.6"/>
			
				<ellipse transform="matrix(3.458982e-02 -0.9994 0.9994 3.458982e-02 -28.3574 233.8452)" class="arch123" cx="106.9" cy="131.6" rx="4.3" ry="37.5"/>
			
				<ellipse transform="matrix(3.467311e-02 -0.9994 0.9994 3.467311e-02 -28.4152 233.8026)" class="arch124" cx="106.8" cy="131.6" rx="4.3" ry="37.4"/>
			
				<ellipse transform="matrix(3.475690e-02 -0.9994 0.9994 3.475690e-02 -28.473 233.7599)" class="arch125" cx="106.8" cy="131.6" rx="4.3" ry="37.3"/>
			
				<ellipse transform="matrix(3.484116e-02 -0.9994 0.9994 3.484116e-02 -28.5308 233.7172)" class="arch126" cx="106.7" cy="131.6" rx="4.2" ry="37.1"/>
			
				<ellipse transform="matrix(3.492592e-02 -0.9994 0.9994 3.492592e-02 -28.5887 233.6744)" class="arch127" cx="106.7" cy="131.6" rx="4.2" ry="37"/>
			
				<ellipse transform="matrix(3.501116e-02 -0.9994 0.9994 3.501116e-02 -28.6467 233.6315)" class="arch128" cx="106.7" cy="131.6" rx="4.2" ry="36.9"/>
			
				<ellipse transform="matrix(3.509692e-02 -0.9994 0.9994 3.509692e-02 -28.7046 233.5886)" class="arch129" cx="106.6" cy="131.7" rx="4.2" ry="36.8"/>
			
				<ellipse transform="matrix(3.518317e-02 -0.9994 0.9994 3.518317e-02 -28.7627 233.5456)" class="arch130" cx="106.6" cy="131.7" rx="4.1" ry="36.7"/>
			
				<ellipse transform="matrix(3.526993e-02 -0.9994 0.9994 3.526993e-02 -28.8207 233.5025)" class="arch131" cx="106.5" cy="131.7" rx="4.1" ry="36.6"/>
			
				<ellipse transform="matrix(3.535720e-02 -0.9994 0.9994 3.535720e-02 -28.8788 233.4594)" class="arch132" cx="106.5" cy="131.7" rx="4.1" ry="36.5"/>
			
				<ellipse transform="matrix(3.544500e-02 -0.9994 0.9994 3.544500e-02 -28.937 233.4162)" class="arch132" cx="106.5" cy="131.7" rx="4.1" ry="36.4"/>
			
				<ellipse transform="matrix(3.553331e-02 -0.9994 0.9994 3.553331e-02 -28.9952 233.3729)" class="arch133" cx="106.4" cy="131.7" rx="4" ry="36.3"/>
			
				<ellipse transform="matrix(3.562215e-02 -0.9994 0.9994 3.562215e-02 -29.0534 233.3295)" class="arch134" cx="106.4" cy="131.7" rx="4" ry="36.2"/>
			
				<ellipse transform="matrix(3.571152e-02 -0.9994 0.9994 3.571152e-02 -29.1117 233.2861)" class="arch135" cx="106.3" cy="131.7" rx="4" ry="36"/>
			
				<ellipse transform="matrix(3.580143e-02 -0.9994 0.9994 3.580143e-02 -29.1701 233.2425)" class="arch136" cx="106.3" cy="131.7" rx="3.9" ry="35.9"/>
			
				<ellipse transform="matrix(3.589188e-02 -0.9994 0.9994 3.589188e-02 -29.2284 233.199)" class="arch137" cx="106.2" cy="131.7" rx="3.9" ry="35.8"/>
			
				<ellipse transform="matrix(3.598288e-02 -0.9994 0.9994 3.598288e-02 -29.2869 233.1553)" class="arch138" cx="106.2" cy="131.8" rx="3.9" ry="35.7"/>
			
				<ellipse transform="matrix(3.607443e-02 -0.9993 0.9993 3.607443e-02 -29.3453 233.1115)" class="arch139" cx="106.2" cy="131.8" rx="3.9" ry="35.6"/>
			
				<ellipse transform="matrix(3.616653e-02 -0.9993 0.9993 3.616653e-02 -29.4039 233.0677)" class="arch140" cx="106.1" cy="131.8" rx="3.8" ry="35.5"/>
			
				<ellipse transform="matrix(3.625920e-02 -0.9993 0.9993 3.625920e-02 -29.4624 233.0238)" class="arch141" cx="106.1" cy="131.8" rx="3.8" ry="35.4"/>
			
				<ellipse transform="matrix(3.635243e-02 -0.9993 0.9993 3.635243e-02 -29.5211 232.9798)" class="arch142" cx="106" cy="131.8" rx="3.8" ry="35.3"/>
			
				<ellipse transform="matrix(3.644624e-02 -0.9993 0.9993 3.644624e-02 -29.5797 232.9358)" class="arch143" cx="106" cy="131.8" rx="3.7" ry="35.2"/>
			
				<ellipse transform="matrix(3.654062e-02 -0.9993 0.9993 3.654062e-02 -29.6385 232.8916)" class="arch144" cx="106" cy="131.8" rx="3.7" ry="35"/>
			
				<ellipse transform="matrix(3.663559e-02 -0.9993 0.9993 3.663559e-02 -29.6972 232.8474)" class="arch145" cx="105.9" cy="131.8" rx="3.7" ry="34.9"/>
			
				<ellipse transform="matrix(3.673115e-02 -0.9993 0.9993 3.673115e-02 -29.756 232.8031)" class="arch146" cx="105.9" cy="131.8" rx="3.7" ry="34.8"/>
			
				<ellipse transform="matrix(3.682730e-02 -0.9993 0.9993 3.682730e-02 -29.8149 232.7587)" class="arch147" cx="105.8" cy="131.8" rx="3.6" ry="34.7"/>
			
				<ellipse transform="matrix(3.692406e-02 -0.9993 0.9993 3.692406e-02 -29.8738 232.7142)" class="arch148" cx="105.8" cy="131.9" rx="3.6" ry="34.6"/>
			
				<ellipse transform="matrix(3.702141e-02 -0.9993 0.9993 3.702141e-02 -29.9328 232.6697)" class="arch149" cx="105.8" cy="131.9" rx="3.6" ry="34.5"/>
			
				<ellipse transform="matrix(3.711938e-02 -0.9993 0.9993 3.711938e-02 -29.9918 232.625)" class="arch150" cx="105.7" cy="131.9" rx="3.5" ry="34.4"/>
			
				<ellipse transform="matrix(3.721797e-02 -0.9993 0.9993 3.721797e-02 -30.0509 232.5803)" class="arch151" cx="105.7" cy="131.9" rx="3.5" ry="34.3"/>
			
				<ellipse transform="matrix(3.731719e-02 -0.9993 0.9993 3.731719e-02 -30.1101 232.5355)" class="arch152" cx="105.6" cy="131.9" rx="3.5" ry="34.2"/>
			
				<ellipse transform="matrix(3.741703e-02 -0.9993 0.9993 3.741703e-02 -30.1692 232.4906)" class="arch153" cx="105.6" cy="131.9" rx="3.5" ry="34"/>
			
				<ellipse transform="matrix(3.751751e-02 -0.9993 0.9993 3.751751e-02 -30.2285 232.4456)" class="arch154" cx="105.6" cy="131.9" rx="3.4" ry="33.9"/>
			
				<ellipse transform="matrix(3.761863e-02 -0.9993 0.9993 3.761863e-02 -30.2878 232.4005)" class="arch155" cx="105.5" cy="131.9" rx="3.4" ry="33.8"/>
			
				<ellipse transform="matrix(3.772040e-02 -0.9993 0.9993 3.772040e-02 -30.3471 232.3553)" class="arch156" cx="105.5" cy="131.9" rx="3.4" ry="33.7"/>
			
				<ellipse transform="matrix(3.782282e-02 -0.9993 0.9993 3.782282e-02 -30.4065 232.31)" class="arch157" cx="105.4" cy="131.9" rx="3.4" ry="33.6"/>
			
				<ellipse transform="matrix(3.792591e-02 -0.9993 0.9993 3.792591e-02 -30.466 232.2647)" class="arch158" cx="105.4" cy="132" rx="3.3" ry="33.5"/>
			
				<ellipse transform="matrix(3.802966e-02 -0.9993 0.9993 3.802966e-02 -30.5255 232.2192)" class="arch159" cx="105.3" cy="132" rx="3.3" ry="33.4"/>
			
				<ellipse transform="matrix(3.813409e-02 -0.9993 0.9993 3.813409e-02 -30.5851 232.1736)" class="arch160" cx="105.3" cy="132" rx="3.3" ry="33.3"/>
			
				<ellipse transform="matrix(3.823921e-02 -0.9993 0.9993 3.823921e-02 -30.6448 232.128)" class="arch161" cx="105.3" cy="132" rx="3.2" ry="33.2"/>
			
				<ellipse transform="matrix(3.834501e-02 -0.9993 0.9993 3.834501e-02 -30.7045 232.0823)" class="arch162" cx="105.2" cy="132" rx="3.2" ry="33"/>
			
				<ellipse transform="matrix(3.845150e-02 -0.9993 0.9993 3.845150e-02 -30.7642 232.0364)" class="arch163" cx="105.2" cy="132" rx="3.2" ry="32.9"/>
			
				<ellipse transform="matrix(3.855870e-02 -0.9993 0.9993 3.855870e-02 -30.824 231.9905)" class="arch164" cx="105.1" cy="132" rx="3.2" ry="32.8"/>
			
				<ellipse transform="matrix(3.866661e-02 -0.9993 0.9993 3.866661e-02 -30.8839 231.9444)" class="arch165" cx="105.1" cy="132" rx="3.1" ry="32.7"/>
			
				<ellipse transform="matrix(3.877523e-02 -0.9992 0.9992 3.877523e-02 -30.9438 231.8983)" class="arch166" cx="105.1" cy="132" rx="3.1" ry="32.6"/>
			
				<ellipse transform="matrix(3.888458e-02 -0.9992 0.9992 3.888458e-02 -31.0038 231.8521)" class="arch167" cx="105" cy="132" rx="3.1" ry="32.5"/>
			
				<ellipse transform="matrix(3.899466e-02 -0.9992 0.9992 3.899466e-02 -31.0639 231.8057)" class="arch168" cx="105" cy="132.1" rx="3" ry="32.4"/>
			
				<ellipse transform="matrix(3.910548e-02 -0.9992 0.9992 3.910548e-02 -31.124 231.7593)" class="arch169" cx="104.9" cy="132.1" rx="3" ry="32.3"/>
			
				<ellipse transform="matrix(3.921705e-02 -0.9992 0.9992 3.921705e-02 -31.1842 231.7127)" class="arch170" cx="104.9" cy="132.1" rx="3" ry="32.2"/>
			
				<ellipse transform="matrix(3.932937e-02 -0.9992 0.9992 3.932937e-02 -31.2445 231.6661)" class="arch171" cx="104.9" cy="132.1" rx="3" ry="32"/>
			
				<ellipse transform="matrix(3.944245e-02 -0.9992 0.9992 3.944245e-02 -31.3048 231.6193)" class="arch172" cx="104.8" cy="132.1" rx="2.9" ry="31.9"/>
			
				<ellipse transform="matrix(3.955631e-02 -0.9992 0.9992 3.955631e-02 -31.3652 231.5724)" class="arch173" cx="104.8" cy="132.1" rx="2.9" ry="31.8"/>
			
				<ellipse transform="matrix(3.967094e-02 -0.9992 0.9992 3.967094e-02 -31.4256 231.5254)" class="arch174" cx="104.7" cy="132.1" rx="2.9" ry="31.7"/>
			
				<ellipse transform="matrix(3.978636e-02 -0.9992 0.9992 3.978636e-02 -31.4861 231.4783)" class="arch175" cx="104.7" cy="132.1" rx="2.8" ry="31.6"/>
			
				<ellipse transform="matrix(3.990258e-02 -0.9992 0.9992 3.990258e-02 -31.5467 231.4311)" class="arch176" cx="104.7" cy="132.1" rx="2.8" ry="31.5"/>
			
				<ellipse transform="matrix(4.001960e-02 -0.9992 0.9992 4.001960e-02 -31.6074 231.3838)" class="arch177" cx="104.6" cy="132.1" rx="2.8" ry="31.4"/>
			
				<ellipse transform="matrix(4.013743e-02 -0.9992 0.9992 4.013743e-02 -31.6681 231.3364)" class="arch178" cx="104.6" cy="132.2" rx="2.8" ry="31.3"/>
			
				<ellipse transform="matrix(4.025609e-02 -0.9992 0.9992 4.025609e-02 -31.7289 231.2888)" class="arch179" cx="104.5" cy="132.2" rx="2.7" ry="31.2"/>
			
				<ellipse transform="matrix(4.037557e-02 -0.9992 0.9992 4.037557e-02 -31.7898 231.2412)" class="arch180" cx="104.5" cy="132.2" rx="2.7" ry="31.1"/>
			
				<ellipse transform="matrix(4.049589e-02 -0.9992 0.9992 4.049589e-02 -31.8507 231.1934)" class="arch181" cx="104.5" cy="132.2" rx="2.7" ry="30.9"/>
			
				<ellipse transform="matrix(4.061706e-02 -0.9992 0.9992 4.061706e-02 -31.9117 231.1455)" class="arch182" cx="104.4" cy="132.2" rx="2.7" ry="30.8"/>
			
				<ellipse transform="matrix(4.073909e-02 -0.9992 0.9992 4.073909e-02 -31.9728 231.0975)" class="arch183" cx="104.4" cy="132.2" rx="2.6" ry="30.7"/>
			
				<ellipse transform="matrix(4.086199e-02 -0.9992 0.9992 4.086199e-02 -32.0339 231.0493)" class="arch183" cx="104.3" cy="132.2" rx="2.6" ry="30.6"/>
			
				<ellipse transform="matrix(4.098576e-02 -0.9992 0.9992 4.098576e-02 -32.0952 231.0011)" class="arch184" cx="104.3" cy="132.2" rx="2.6" ry="30.5"/>
			
				<ellipse transform="matrix(4.111042e-02 -0.9992 0.9992 4.111042e-02 -32.1565 230.9527)" class="arch185" cx="104.2" cy="132.2" rx="2.5" ry="30.4"/>
			
				<ellipse transform="matrix(4.123597e-02 -0.9991 0.9991 4.123597e-02 -32.2179 230.9041)" class="arch186" cx="104.2" cy="132.2" rx="2.5" ry="30.3"/>
			
				<ellipse transform="matrix(4.136243e-02 -0.9991 0.9991 4.136243e-02 -32.2793 230.8555)" class="arch187" cx="104.2" cy="132.2" rx="2.5" ry="30.2"/>
			
				<ellipse transform="matrix(4.148980e-02 -0.9991 0.9991 4.148980e-02 -32.3409 230.8067)" class="arch188" cx="104.1" cy="132.3" rx="2.5" ry="30.1"/>
			
				<ellipse transform="matrix(4.161811e-02 -0.9991 0.9991 4.161811e-02 -32.4025 230.7578)" class="arch189" cx="104.1" cy="132.3" rx="2.4" ry="29.9"/>
			
				<ellipse transform="matrix(4.174734e-02 -0.9991 0.9991 4.174734e-02 -32.4642 230.7088)" class="arch190" cx="104" cy="132.3" rx="2.4" ry="29.8"/>
			
				<ellipse transform="matrix(4.187753e-02 -0.9991 0.9991 4.187753e-02 -32.5259 230.6596)" class="arch191" cx="104" cy="132.3" rx="2.4" ry="29.7"/>
			
				<ellipse transform="matrix(4.200867e-02 -0.9991 0.9991 4.200867e-02 -32.5878 230.6103)" class="arch191" cx="104" cy="132.3" rx="2.3" ry="29.6"/>
			
				<ellipse transform="matrix(4.214079e-02 -0.9991 0.9991 4.214079e-02 -32.6497 230.5609)" class="arch192" cx="103.9" cy="132.3" rx="2.3" ry="29.5"/>
			
				<ellipse transform="matrix(4.227388e-02 -0.9991 0.9991 4.227388e-02 -32.7118 230.5113)" class="arch192" cx="103.9" cy="132.3" rx="2.3" ry="29.4"/>
			
				<ellipse transform="matrix(4.240796e-02 -0.9991 0.9991 4.240796e-02 -32.7739 230.4616)" class="arch193" cx="103.8" cy="132.3" rx="2.3" ry="29.3"/>
			
				<ellipse transform="matrix(4.254305e-02 -0.9991 0.9991 4.254305e-02 -32.836 230.4117)" class="arch193" cx="103.8" cy="132.3" rx="2.2" ry="29.2"/>
		</g>
		<g>
			<linearGradient id="ARCH_ID_1_" gradientUnits="userSpaceOnUse" x1="101.6775" y1="89.1893" x2="158.1396" y2="56.4273">
				<stop  offset="0" style="stop-color:var(--vitamui-primary-900)"/>
				<stop  offset="1" style="stop-color:var(--vitamui-primary)"/>
			</linearGradient>
			<path class="arch194" d="M125.6,132l-34.2-4.2c-3.9-0.4-6.9-4.1-6.9-8.5V45.4c0-4.1,2.5-7.6,6.1-8.6l35.1-10.7
				c6.2-0.6,10.6,4.3,10.6,9.4V123c0,4.7-2.9,7.9-7.4,8.9C128.5,132,126.1,132,125.6,132z"/>
			<linearGradient id="ARCH_ID_2_" gradientUnits="userSpaceOnUse" x1="163.6294" y1="142.1574" x2="98.1534" y2="64.8365">
				<stop  offset="0" style="stop-color:var(--vitamui-primary-900)"/>
				<stop  offset="1" style="stop-color:var(--vitamui-primary)"/>
			</linearGradient>
			<path class="arch195" d="M125.8,131.9l-36.5-4.1c-4-0.5-7-4.1-7-8.6V44.8c0-4.1,2.5-7.7,6.1-8.6l36.5-9.9c4.9-1.3,9.6,2.8,9.6,8.5
				V123C134.5,128.2,130.4,132.4,125.8,131.9z"/>
			<path class="arch196" d="M134.5,34.8v84.9C134.5,119.7,131.9,84.8,134.5,34.8z"/>
		</g>
		<g>
			
				<linearGradient id="ARCH_ID_3_" gradientUnits="userSpaceOnUse" x1="470.3402" y1="-6.5361" x2="569.126" y2="95.5184" gradientTransform="matrix(-1 0 0 1 663.9603 0)">
				<stop  offset="0" style="stop-color:#F5F4F5"/>
				<stop  offset="0.7896" style="stop-color:#9B9A9B"/>
			</linearGradient>
			<polygon class="arch197" points="132.2,132.8 132.3,22.9 79.7,35.2 79.7,124.9 			"/>
			<polygon class="arch3" points="132.9,132.5 132.2,132.8 132.3,22.9 132.8,23.3 			"/>
		</g>
		
			<linearGradient id="ARCH_ID_4_" gradientUnits="userSpaceOnUse" x1="508.1443" y1="29.236" x2="608.9512" y2="133.3783" gradientTransform="matrix(-1 0 0 1 663.9603 0)">
			<stop  offset="0" style="stop-color:#F5F4F5"/>
			<stop  offset="0.7896" style="stop-color:#9B9A9B"/>
		</linearGradient>
		<polygon class="arch198" points="129.4,133.9 129.6,21.8 75.9,34.4 75.9,125.8 		"/>
		<linearGradient id="ARCH_ID_5_" gradientUnits="userSpaceOnUse" x1="86.9544" y1="90.2977" x2="149.664" y2="53.9107">
			<stop  offset="0" style="stop-color:var(--vitamui-primary-900)"/>
			<stop  offset="1" style="stop-color:var(--vitamui-primary)"/>
		</linearGradient>
		<path class="arch199" d="M114.4,135.4L74,129.9c-4.6-0.6-8.1-4.5-8.1-9.1V43.5c0-4.3,2.9-8,7.1-9l41.4-11.3
			c7.4-0.6,12.7,4.6,12.7,10v92.9c0,5-3.5,8.3-8.9,9.2C117.8,135.5,114.9,135.4,114.4,135.4z"/>
		<linearGradient id="ARCH_ID_6_" gradientUnits="userSpaceOnUse" x1="76.2873" y1="147.1096" x2="114.4808" y2="13.9486">
			<stop  offset="0" style="stop-color:var(--vitamui-primary-900)"/>
			<stop  offset="3.122725e-02" style="stop-color:var(--vitamui-primary-800)"/>
			<stop  offset="0.159" style="stop-color:var(--vitamui-primary-700)"/>
			<stop  offset="0.2852" style="stop-color:var(--vitamui-primary-600)"/>
			<stop  offset="0.4077" style="stop-color:var(--vitamui-primary)"/>
			<stop  offset="0.525" style="stop-color:var(--vitamui-primary)"/>
			<stop  offset="0.6312" style="stop-color:var(--vitamui-primary)"/>
			<stop  offset="0.6953" style="stop-color:var(--vitamui-primary)"/>
			<stop  offset="0.7945" style="stop-color:var(--vitamui-primary-400)"/>
			<stop  offset="0.9156" style="stop-color:var(--vitamui-primary-300)"/>
			<stop  offset="1" style="stop-color:var(--vitamui-primary-300)"/>
		</linearGradient>
		<path class="arch200" d="M114.6,135.3l-43-5.4c-4.6-0.6-8.1-4.5-8.1-9.2V42.9c0-4.3,2.9-8,7.1-9l43-10.3c5.8-1.4,11.4,3,11.4,9v93.6
			C125,131.7,120.1,136,114.6,135.3z"/>
		<linearGradient id="ARCH_ID_7_" gradientUnits="userSpaceOnUse" x1="68.7415" y1="95.8957" x2="90.6165" y2="48.0072">
			<stop  offset="0" style="stop-color:var(--vitamui-primary-900)"/>
			<stop  offset="1" style="stop-color:var(--vitamui-primary)"/>
		</linearGradient>
		<path class="arch201" d="M77.1,104.6c0.1,0,0.3,0,0.4,0c0,0,0,0,0.1,0c1.5,0.1,3.1-0.2,4.1-0.4c0.1,0,0.2,0,0.2-0.1
			c0.2-0.1,0.4-0.1,0.6-0.2c9.4-2.9,17-15.4,18-30.6c0.1-1,0.1-2,0.1-3c0-0.2,0-0.3,0-0.5c0-0.4,0-0.8,0-1.2c0-0.2,0-0.4,0-0.6
			c0-0.4,0-0.7-0.1-1.1c0-0.3,0-0.5-0.1-0.8c0-0.5-0.1-0.9-0.1-1.4c0-0.4-0.1-0.8-0.1-1.2c0-0.2-0.1-0.5-0.1-0.7
			c-0.1-0.3-0.1-0.7-0.2-1c0-0.2-0.1-0.4-0.1-0.7c-0.1-0.4-0.2-0.7-0.2-1.1c0-0.2-0.1-0.4-0.1-0.5c-0.1-0.5-0.2-1-0.4-1.5
			c0,0,0-0.1,0-0.1c0,0,0,0,0,0c-2.9-10.3-9.5-17.6-17.5-18c0,0,0,0,0,0s0,0,0,0c-7.1-0.4-13.7,4.7-18,12.9v41.9
			c0.1,0.2,0.3,0.5,0.4,0.7c0,0,0,0,0,0c0,0,0,0,0,0c0.2,0.2,0.3,0.5,0.5,0.7c0.1,0.1,0.1,0.2,0.2,0.3c0.1,0.2,0.3,0.4,0.4,0.6
			c0.1,0.1,0.2,0.3,0.3,0.4c0.1,0.2,0.2,0.3,0.4,0.5c0.1,0.2,0.3,0.3,0.4,0.5c0.1,0.1,0.2,0.2,0.3,0.4c0.2,0.2,0.3,0.4,0.5,0.5
			c0.1,0.1,0.2,0.2,0.3,0.3c0.2,0.2,0.4,0.4,0.6,0.6c0.1,0.1,0.1,0.1,0.2,0.2c0.2,0.2,0.4,0.4,0.7,0.6c0.1,0,0.1,0.1,0.2,0.1
			c0.3,0.2,0.5,0.4,0.8,0.6c0,0,0.1,0,0.1,0.1c0.4,0.3,0.8,0.6,1.2,0.8l-5.6,22c1.3,2.3,3.3,4.1,5.6,5l1-4L77.1,104.6z M70,94.4
			c-0.1,0-0.1-0.1-0.2-0.1c-0.4-0.3-0.8-0.6-1.2-1c0,0-0.1-0.1-0.1-0.1c-0.1-0.1-0.3-0.3-0.4-0.4c-0.6-0.6-1.1-1.2-1.7-1.9
			c-1.5-3.3-2.5-7.3-2.8-11.6c0,0.3,0.1,0.6,0.1,0.9c-0.1-0.6-0.1-1.2-0.2-1.8c-0.1-1.4-0.1-2.8,0-4.2c0.9-14.7,9.3-26.4,18.9-26.3
			c3.9,0.1,7.4,2.2,10.1,5.7c1.5,3.2,2.4,7,2.8,11.2c0,0.1,0,0.2,0,0.4c0,0.7,0.1,1.4,0.1,2.2c0,0.1,0,0.3,0,0.4
			c0,0.8,0,1.7-0.1,2.5c-0.1,1.1-0.2,2.3-0.4,3.4c-0.2,1.6-0.5,3.1-0.9,4.5c-0.2,0.8-0.5,1.6-0.7,2.4c-0.5,1.6-1.2,3.1-1.9,4.5
			c-3.5,7-9.1,11.6-15,11.5C74.2,96.5,72,95.7,70,94.4z"/>
		<linearGradient id="ARCH_ID_8_" gradientUnits="userSpaceOnUse" x1="124.1043" y1="79.5575" x2="101.005" y2="79.5575">
			<stop  offset="0" style="stop-color:var(--vitamui-primary-900)"/>
			<stop  offset="1" style="stop-color:var(--vitamui-primary)"/>
		</linearGradient>
		<path class="arch202" d="M120.9,84.4v1.1c0,0.3-0.2,0.5-0.5,0.5h-13.9c-0.3,0-0.5-0.2-0.5-0.5V74.2c0-0.3,0.2-0.5,0.5-0.5l13.9-0.6
			c0.1,0,0.3,0,0.4,0.1c0.1,0.1,0.2,0.2,0.2,0.4v1l-1,0v-0.5L107,74.7V85h12.9v-0.6L120.9,84.4z"/>
		<path class="arch203" d="M125,32.5v90.1C125,122.7,121.9,85.5,125,32.5z"/>
		<polygon class="arch3" points="130.1,133.6 129.4,133.9 129.6,21.8 130.1,22.2 		"/>
		<linearGradient id="ARCH_ID_9_" gradientUnits="userSpaceOnUse" x1="134.5798" y1="55.0716" x2="79.7775" y2="92.3091">
			<stop  offset="0" style="stop-color:#BCB9BA"/>
			<stop  offset="1" style="stop-color:#4D4D4D"/>
		</linearGradient>
		<polygon class="arch204" points="131.2,84.4 62.8,84.4 62.8,76.8 131.2,74.2 		"/>
		<linearGradient id="ARCH_ID_10_" gradientUnits="userSpaceOnUse" x1="113.5357" y1="63.0745" x2="141.2881" y2="85.7332">
			<stop  offset="0" style="stop-color:#BCB9BA"/>
			<stop  offset="0.7896" style="stop-color:#4D4D4D"/>
		</linearGradient>
		<polygon class="arch205" points="130.1,84.4 137,84.4 137,74.4 130.1,74.2 		"/>
		<polygon class="arch0" points="63.5,84.4 127.1,84.4 127.1,85.6 63.5,85.3 		"/>
		<rect x="132.9" y="84.4" class="arch0" width="3.4" height="1.1"/>
		<rect x="127.1" y="84.4" class="arch206" width="5.7" height="1.1"/>
		<g>
			<polygon class="arch207" points="105.5,75.2 105.5,84.4 106.5,84.4 106.5,75.1 			"/>
		</g>
		<linearGradient id="ARCH_ID_11_" gradientUnits="userSpaceOnUse" x1="98.5285" y1="71.8163" x2="132.3595" y2="91.2511">
			<stop  offset="0" style="stop-color:#F5F4F5"/>
			<stop  offset="0.7896" style="stop-color:#9B9A9B"/>
		</linearGradient>
		<path class="arch208" d="M119.5,84.4v1.1c0,0.3-0.2,0.5-0.5,0.5H105c-0.3,0-0.5-0.2-0.5-0.5V74.2c0-0.3,0.2-0.5,0.5-0.5l13.9-0.6
			c0.1,0,0.3,0,0.4,0.1c0.1,0.1,0.2,0.2,0.2,0.4v1l-1,0v-0.5l-12.9,0.5V85h12.9v-0.6L119.5,84.4z"/>
		<path class="arch207" d="M93.5,80.3c0,0.1,0,0.2,0,0.3c0,0.5,0.1,1.1,0.1,1.6c0,0.1,0,0.2,0,0.3c0,0.6,0,1.3-0.1,1.9H98
			c0-0.1,0-0.2,0-0.3c0-0.3,0-0.6,0-0.9c0-0.2,0-0.3,0-0.5c0-0.3,0-0.6-0.1-0.8c0-0.2,0-0.4-0.1-0.6c0-0.4-0.1-0.7-0.1-1.1
			c0-0.3-0.1-0.6-0.1-0.9c0-0.2-0.1-0.4-0.1-0.5c0-0.3-0.1-0.5-0.2-0.8c0-0.2-0.1-0.3-0.1-0.5c-0.1-0.3-0.1-0.6-0.2-0.9
			c0-0.1-0.1-0.3-0.1-0.4c-0.1-0.2-0.1-0.5-0.2-0.7l-4,0.2C93.1,77.2,93.4,78.7,93.5,80.3z"/>
		<path class="arch206" d="M62.8,76.8v7.7l2.4,0c0.5-2.9,1.5-5.5,2.7-7.9L62.8,76.8z"/>
		<g>
			
				<linearGradient id="ARCH_ID_12_" gradientUnits="userSpaceOnUse" x1="273.537" y1="75.3648" x2="329.9585" y2="133.6532" gradientTransform="matrix(0.9981 6.100544e-02 -6.100256e-02 0.9981 -223.4489 -57.5538)">
				<stop  offset="0" style="stop-color:#E5E3E3"/>
				<stop  offset="0.7896" style="stop-color:#4D4D4D"/>
			</linearGradient>
			<path class="arch209" d="M67,95.9c17.8,0.6,33.7-13.4,35.3-31.2C104,46.9,90.9,32,73.1,31.4c-17.8-0.6-33.7,13.4-35.3,31.2
				C36.1,80.4,49.2,95.3,67,95.9z M45.6,65.6C47,51,60,39.3,74.6,39.4c14.7,0.2,25.4,12.2,24.1,26.8c-1.4,14.6-14.4,26.4-29,26.2
				C55,92.3,44.2,80.3,45.6,65.6z"/>
			<path class="arch210" d="M61.4,34.7c0.3,0.3-7.6,2.9-12.1,7.8c-4.5,4.9-7,10.8-7.3,10.6c-0.3-0.3,1.8-6.2,6.3-11.1
				C52.7,37.1,61.1,34.4,61.4,34.7z"/>
			<g>
				<g>
					<path class="arch210" d="M80.3,38.2c-8.5-2.5-18-0.5-25.3,6.1c-7.7,7-10.8,17.6-9.2,27.3c-2.5-9.9,0.4-21,8.3-28.3
						C61.6,36.5,71.7,34.8,80.3,38.2z"/>
				</g>
			</g>
			<g>
				<g>
					
						<linearGradient id="ARCH_ID_13_" gradientUnits="userSpaceOnUse" x1="216.4457" y1="121.7157" x2="273.3076" y2="180.4592" gradientTransform="matrix(0.9467 -0.3221 0.3221 0.9467 -208.6366 0.4112)">
						<stop  offset="0" style="stop-color:#F5F4F5"/>
						<stop  offset="0.7896" style="stop-color:#9B9A9B"/>
					</linearGradient>
					<path class="arch211" d="M73.1,31.4c-17.8-0.6-33.7,13.4-35.3,31.2c-1.7,17.8,11.5,32.8,29.3,33.3c17.8,0.6,33.7-13.4,35.3-31.2
						C104,46.9,90.9,32,73.1,31.4z M94.5,61.7c-1.4,14.6-14.4,26.4-29,26.2c-14.7-0.2-25.4-12.2-24.1-26.8
						c1.4-14.6,14.4-26.4,29-26.2C85.1,35.1,95.9,47.1,94.5,61.7z"/>
				</g>
				<g>
					<path class="arch212" d="M73.1,31.4c-17.8-0.6-33.7,13.4-35.3,31.2c-1.7,17.8,11.5,32.8,29.3,33.3c17.8,0.6,33.7-13.4,35.3-31.2
						C104,46.9,90.9,32,73.1,31.4z M94.5,61.7c-1.4,14.6-14.4,26.4-29,26.2c-14.7-0.2-25.4-12.2-24.1-26.8
						c1.4-14.6,14.4-26.4,29-26.2C85.1,35.1,95.9,47.1,94.5,61.7z"/>
				</g>
			</g>
			
				<linearGradient id="ARCH_ID_14_" gradientUnits="userSpaceOnUse" x1="228.9292" y1="175.8122" x2="265.8709" y2="148.6402" gradientTransform="matrix(0.9467 -0.3221 0.3221 0.9467 -208.6366 0.4112)">
				<stop  offset="0" style="stop-color:#F5F4F5"/>
				<stop  offset="0.7896" style="stop-color:#BCB9BA"/>
			</linearGradient>
			<path class="arch213" d="M67.1,95.9c17.8,0.6,33.7-13.4,35.3-31.2c0.5-5.5-0.4-10.8-2.4-15.4c2,7.5-5.8,4.9-5.8,4.9l0,0
				c0.5,2.4,0.6,4.9,0.4,7.4c-1.4,14.6-14.4,26.4-29,26.2c-5.4-0.1-10.2-1.7-14.1-4.5c0,0,0,0,0,0c-2.8,0.8-4.4,2-5.4,3.3
				C51.3,92.2,58.6,95.7,67.1,95.9z"/>
			<path class="arch210" d="M88.5,40.4c7.1,7.7,9.9,18.4,6.4,28.8C91.2,80.1,81.5,88,70,90.5c12-1.7,22.6-9.5,26.4-20.8
				C100,58.9,96.6,47.8,88.5,40.4z"/>
			<path class="arch214" d="M92.3,39.5c7,7.7,9.9,18.9,6.6,30.1c-3.4,11.9-12.8,20.8-24,24.2c11.7-2.6,21.9-11.6,25.4-23.8
				C103.7,58.4,100.2,46.8,92.3,39.5z"/>
			
				<linearGradient id="ARCH_ID_15_" gradientUnits="userSpaceOnUse" x1="234.1369" y1="176.7138" x2="217.491" y2="182.2962" gradientTransform="matrix(0.9467 -0.3221 0.3221 0.9467 -208.6366 0.4112)">
				<stop  offset="0" style="stop-color:#BCB9BA"/>
				<stop  offset="0.7896" style="stop-color:#9B9A9B"/>
			</linearGradient>
			<path class="arch215" d="M63.3,90.4c0,0,6.7-0.6,12.1,4.8c0,0-6.4,1.6-11.2,0.4c-0.6-2.5-0.8-4.7-0.8-4.7"/>
			<linearGradient id="ARCH_ID_16_" gradientUnits="userSpaceOnUse" x1="52.8188" y1="89.4152" x2="56.2135" y2="145.6175">
				<stop  offset="0" style="stop-color:#F5F4F5"/>
				<stop  offset="0.7896" style="stop-color:#9B9A9B"/>
			</linearGradient>
			<path class="arch216" d="M67.1,94c0.3-1-1.4-2.7-3.9-3.6c-2.5-1-4.8-1-5.3,0l0,0l-16.6,42.1c0,0,0,0,0,0c0,0,0,0,0,0l0,0l0,0
				c-0.4,1,1.3,2.7,3.8,3.7c2.5,1,4.9,1,5.3-0.1l0,0l0,0c0,0,0,0,0,0c0,0,0,0,0,0L67.1,94L67.1,94z"/>
			
				<linearGradient id="ARCH_ID_17_" gradientUnits="userSpaceOnUse" x1="208.1508" y1="200.7583" x2="227.9473" y2="176.7385" gradientTransform="matrix(0.9467 -0.3221 0.3221 0.9467 -208.6366 0.4112)">
				<stop  offset="0" style="stop-color:#BCB9BA"/>
				<stop  offset="0.7896" style="stop-color:#9B9A9B"/>
			</linearGradient>
			<path class="arch217" d="M67.1,94c0.3-1-1.4-2.7-3.9-3.6c-2.5-1-5.7,27.9-5.7,27.9L67.1,94C67.1,94,67.1,94,67.1,94
				C67.1,94,67.1,94,67.1,94L67.1,94L67.1,94z"/>
		</g>
	</g>
</g>
</svg>
