<?xml version="1.0" encoding="utf-8"?>
<!-- Generator: Adobe Illustrator 25.2.1, SVG Export Plug-In . SVG Version: 6.00 Build 0)  -->
<!DOCTYPE svg PUBLIC "-//W3C//DTD SVG 1.1//EN" "http://www.w3.org/Graphics/SVG/1.1/DTD/svg11.dtd" [
	<!ENTITY ns_extend "http://ns.adobe.com/Extensibility/1.0/">
	<!ENTITY ns_ai "http://ns.adobe.com/AdobeIllustrator/10.0/">
	<!ENTITY ns_graphs "http://ns.adobe.com/Graphs/1.0/">
	<!ENTITY ns_vars "http://ns.adobe.com/Variables/1.0/">
	<!ENTITY ns_imrep "http://ns.adobe.com/ImageReplacement/1.0/">
	<!ENTITY ns_sfw "http://ns.adobe.com/SaveForWeb/1.0/">
	<!ENTITY ns_custom "http://ns.adobe.com/GenericCustomNamespace/1.0/">
	<!ENTITY ns_adobe_xpath "http://ns.adobe.com/XPath/1.0/">
]>
<svg version="1.1" id="Calque_1"
     xmlns="http://www.w3.org/2000/svg" x="0px" y="0px" viewBox="0 0 200 200"
     style="enable-background:new 0 0 200 200;" xml:space="preserve">
<style type="text/css">
	.artyp0{fill-rule:evenodd;clip-rule:evenodd;}
	.artyp1{fill-rule:evenodd;clip-rule:evenodd;fill:#BCB9BA;}
	.artyp2{fill-rule:evenodd;clip-rule:evenodd;fill:#F5F5F5;}
	.artyp3{fill-rule:evenodd;clip-rule:evenodd;fill:#E5E4E4;}
	.artyp4{fill-rule:evenodd;clip-rule:evenodd;fill:url(#ARTYP_ID_1_);}
	.artyp5{fill-rule:evenodd;clip-rule:evenodd;fill:var(--vitamui-primary-900);}
	.artyp6{fill-rule:evenodd;clip-rule:evenodd;fill:url(#ARTYP_ID_2_);}
	.artyp7{fill-rule:evenodd;clip-rule:evenodd;fill:url(#ARTYP_ID_3_);}
	.artyp8{fill-rule:evenodd;clip-rule:evenodd;fill:none;stroke:#4C4C4C;stroke-width:0.3517;stroke-miterlimit:10;}
	.artyp9{fill-rule:evenodd;clip-rule:evenodd;fill:url(#ARTYP_ID_4_);}
	.artyp10{fill-rule:evenodd;clip-rule:evenodd;fill:url(#ARTYP_ID_5_);}
	.artyp11{fill-rule:evenodd;clip-rule:evenodd;fill:url(#ARTYP_ID_6_);}
	.artyp12{fill-rule:evenodd;clip-rule:evenodd;fill:#353535;}
	.artyp13{fill:#E5E4E4;}
	.artyp14{fill-rule:evenodd;clip-rule:evenodd;fill:url(#ARTYP_ID_7_);}
	.artyp15{fill-rule:evenodd;clip-rule:evenodd;fill:url(#ARTYP_ID_8_);}
	.artyp16{fill-rule:evenodd;clip-rule:evenodd;fill:url(#ARTYP_ID_9_);}
	.artyp17{fill-rule:evenodd;clip-rule:evenodd;fill:#4C4C4C;}
	.artyp18{fill-rule:evenodd;clip-rule:evenodd;fill:url(#ARTYP_ID_10_);}
	.artyp19{fill:var(--vitamui-primary-200);}
	.artyp20{fill:#FFFFFF;}
</style>
<metadata>
	<sfw  xmlns="&ns_sfw;">
		<slices></slices>
		<sliceSourceBounds  bottomLeftOrigin="true" height="118.4" width="165.1" x="17.4" y="19.3"></sliceSourceBounds>
	</sfw>
</metadata>
<g>
	<g>
		<path class="artyp0" d="M100,141.5c45.6,0,82.6,8.5,82.6,19s-37,20.2-82.6,20.2s-82.6-9.7-82.6-20.2C17.3,150.1,54.3,141.5,100,141.5
			z"/>
		<path class="artyp1" d="M100,141.9c43.6,0,78.9,8.4,78.9,18.8c0,10.4-35.3,18.8-78.9,18.8s-78.9-8.4-78.9-18.8
			C21.1,150.2,56.4,141.9,100,141.9z"/>
		<path class="artyp2" d="M100,139.7c43.6,0,78.9,8.4,78.9,18.8c0,10.4-35.3,18.8-78.9,18.8s-78.9-8.4-78.9-18.8
			C21.1,148,56.4,139.7,100,139.7z"/>
		<path class="artyp1" d="M100,138.5c43.6,0,78.9,8.4,78.9,18.8c0,10.4-35.3,18.8-78.9,18.8s-78.9-8.4-78.9-18.8
			C21.1,146.8,56.4,138.5,100,138.5z"/>
		<path class="artyp3" d="M99.9,138.5c22.9,0,43.4,2.3,57.8,6c-30.2-1.8-112.6,2.6-132.9,18.5c-2.5-1.8-3.8-3.8-3.8-5.7
			C20.9,146.8,56.4,138.5,99.9,138.5z"/>
		<path class="artyp2" d="M21.1,157.2c0-10.4,35.3-18.8,78.9-18.8s78.9,8.4,78.9,18.8c0,0.4,0,0.6-0.1,1c-2.2-9.8-36.6-17.7-78.8-17.7
			s-76.6,7.9-78.8,17.7C21.1,157.8,21.1,157.6,21.1,157.2z"/>
	</g>
</g>
<g>
	<linearGradient id="ARTYP_ID_1_" gradientUnits="userSpaceOnUse" x1="101.2755" y1="144.9396" x2="101.2755" y2="132.2457">
		<stop  offset="0" style="stop-color:#4C4C4C"/>
		<stop  offset="1" style="stop-color:#000000"/>
	</linearGradient>
	<rect x="94.2" y="131" class="artyp4" width="14.2" height="21.2"/>
	<path class="artyp5" d="M95.6,148.1l-24.1,7.8c-1.7,0.5-1.3,3.3,0.4,3.3l6.8,1.4h44.6l7.6-1.4c1.7,0,2.1-2.8,0.4-3.3l-23.7-7.8H95.6z"
		/>
	<linearGradient id="ARTYP_ID_2_" gradientUnits="userSpaceOnUse" x1="95.077" y1="167.8353" x2="106.2074" y2="149.5701">
		<stop  offset="0" style="stop-color:#4C4C4C"/>
		<stop  offset="1" style="stop-color:#000000"/>
	</linearGradient>
	<path class="artyp6" d="M95.6,149l-24,7.2c-1.7,0.4-1.3,2.7,0.4,2.7l6.6,1.2h44.9l7.3-1.2c1.7,0,2.1-2.3,0.4-2.7l-23.7-7.2H95.6z"/>
	<path class="artyp0" d="M154.8,135.1H47.8c-1.3,0-2.4-1.1-2.4-2.4V64.8c0-1.3,1.1-2.4,2.4-2.4h107.1c1.3,0,2.4,1.1,2.4,2.4v67.9
		C157.2,134,156.2,135.1,154.8,135.1z"/>
	<linearGradient id="ARTYP_ID_3_" gradientUnits="userSpaceOnUse" x1="54.2402" y1="52.8453" x2="150.0016" y2="146.0624">
		<stop  offset="0" style="stop-color:#4C4C4C"/>
		<stop  offset="1" style="stop-color:#000000"/>
	</linearGradient>
	<path class="artyp7" d="M152.2,132.7H50.3c-1.2,0-2.2-1-2.2-2.2V66.8c0-1.2,1-2.2,2.2-2.2h101.9c1.2,0,2.2,1,2.2,2.2v63.6
		C154.4,131.6,153.4,132.7,152.2,132.7z"/>
	<path class="artyp8" d="M48,130.4V66.8c0-1.2,1-2.2,2.2-2.2h101.9"/>
	<g>
		<g>
			<linearGradient id="ARTYP_ID_4_" gradientUnits="userSpaceOnUse" x1="149.2712" y1="131.289" x2="151.7249" y2="134.1629">
				<stop  offset="0" style="stop-color:#F5F5F5"/>
				<stop  offset="0.21" style="stop-color:#9B9A9B"/>
				<stop  offset="0.46" style="stop-color:#F5F5F5"/>
				<stop  offset="0.74" style="stop-color:#BCB9BA"/>
				<stop  offset="1" style="stop-color:#F5F5F5"/>
			</linearGradient>
			<circle class="artyp9" cx="150" cy="132.2" r="0.9"/>
			<linearGradient id="ARTYP_ID_5_" gradientUnits="userSpaceOnUse" x1="150.0143" y1="130.8348" x2="150.0143" y2="132.7774">
				<stop  offset="0" style="stop-color:#BCB9BA"/>
				<stop  offset="0.7896" style="stop-color:#4C4C4C"/>
			</linearGradient>
			<circle class="artyp10" cx="150" cy="132.2" r="0.8"/>
			<circle class="artyp0" cx="150" cy="132.2" r="0.8"/>
			<linearGradient id="ARTYP_ID_6_" gradientUnits="userSpaceOnUse" x1="150.0143" y1="130.7386" x2="150.0143" y2="136.1011">
				<stop  offset="6.600599e-02" style="stop-color:#BCB9BA"/>
				<stop  offset="0.6694" style="stop-color:#4C4C4C"/>
			</linearGradient>
			<circle class="artyp11" cx="150" cy="132.2" r="0.8"/>
			<circle class="artyp12" cx="150" cy="132.2" r="0.8"/>
			<g>
				<path class="artyp13" d="M150,131.3c0.3,0,0.5,0.1,0.6,0.3C150.5,131.4,150.3,131.3,150,131.3c-0.3,0-0.5,0.1-0.6,0.3
					C149.5,131.4,149.8,131.3,150,131.3z"/>
			</g>
		</g>
	</g>
	<g>
		<g>
			<linearGradient id="ARTYP_ID_7_" gradientUnits="userSpaceOnUse" x1="145.5804" y1="131.289" x2="148.0342" y2="134.1629">
				<stop  offset="0" style="stop-color:#F5F5F5"/>
				<stop  offset="0.21" style="stop-color:#9B9A9B"/>
				<stop  offset="0.46" style="stop-color:#F5F5F5"/>
				<stop  offset="0.74" style="stop-color:#BCB9BA"/>
				<stop  offset="1" style="stop-color:#F5F5F5"/>
			</linearGradient>
			<circle class="artyp14" cx="146.3" cy="132.2" r="0.9"/>
			<linearGradient id="ARTYP_ID_8_" gradientUnits="userSpaceOnUse" x1="146.3235" y1="130.8348" x2="146.3235" y2="132.7774">
				<stop  offset="0" style="stop-color:#BCB9BA"/>
				<stop  offset="0.7896" style="stop-color:#4C4C4C"/>
			</linearGradient>
			<circle class="artyp15" cx="146.3" cy="132.2" r="0.8"/>
			<circle class="artyp0" cx="146.3" cy="132.2" r="0.8"/>
			<linearGradient id="ARTYP_ID_9_" gradientUnits="userSpaceOnUse" x1="146.3235" y1="130.7386" x2="146.3235" y2="136.1011">
				<stop  offset="6.600599e-02" style="stop-color:#BCB9BA"/>
				<stop  offset="0.6694" style="stop-color:#4C4C4C"/>
			</linearGradient>
			<circle class="artyp16" cx="146.3" cy="132.2" r="0.8"/>
			<circle class="artyp17" cx="146.3" cy="132.2" r="0.8"/>
			<g>
				<path class="artyp13" d="M146.3,131.3c0.3,0,0.5,0.1,0.6,0.3C146.8,131.4,146.6,131.3,146.3,131.3c-0.3,0-0.5,0.1-0.6,0.3
					C145.8,131.4,146.1,131.3,146.3,131.3z"/>
			</g>
		</g>
	</g>
</g>
<linearGradient id="ARTYP_ID_10_" gradientUnits="userSpaceOnUse" x1="103.2659" y1="159.8751" x2="107.7005" y2="152.5977">
	<stop  offset="0" style="stop-color:#4C4C4C"/>
	<stop  offset="1" style="stop-color:#000000"/>
</linearGradient>
<polygon class="artyp18" points="95.6,149 100.1,160.1 117.4,160.1 107.5,149 "/>
<g>
	<g>
		<path class="artyp19" d="M137.5,85.6h-29.9c-0.7,0-1.2-0.5-1.2-1.2c0-0.7,0.5-1.2,1.2-1.2h29.9c0.7,0,1.2,0.5,1.2,1.2
			C138.7,85,138.2,85.6,137.5,85.6L137.5,85.6z"/>
	</g>
	<g>
		<path class="artyp19" d="M132,91.9h-24.4c-0.7,0-1.2-0.5-1.2-1.2c0-0.7,0.5-1.2,1.2-1.2H132c0.7,0,1.2,0.5,1.2,1.2
			C133.2,91.4,132.6,91.9,132,91.9L132,91.9z"/>
	</g>
	<g>
		<path class="artyp19" d="M137.5,98.2h-29.9c-0.7,0-1.2-0.5-1.2-1.2c0-0.7,0.5-1.2,1.2-1.2h29.9c0.7,0,1.2,0.5,1.2,1.2
			C138.7,97.7,138.2,98.2,137.5,98.2L137.5,98.2z"/>
	</g>
	<g>
		<path class="artyp19" d="M133.8,104.6h-26.2c-0.7,0-1.2-0.5-1.2-1.2c0-0.7,0.5-1.2,1.2-1.2h26.2c0.7,0,1.2,0.5,1.2,1.2
			C135,104,134.4,104.6,133.8,104.6L133.8,104.6z"/>
	</g>
	<g>
		<path class="artyp19" d="M122.9,110.9h-15.3c-0.7,0-1.2-0.5-1.2-1.2s0.5-1.2,1.2-1.2h15.3c0.7,0,1.2,0.5,1.2,1.2
			S123.6,110.9,122.9,110.9L122.9,110.9z"/>
	</g>
</g>
<g>
	<g>
		<rect x="58.1" y="78.4" class="artyp20" width="8.9" height="26"/>
		<rect x="79.5" y="78.4" class="artyp20" width="8.9" height="26"/>
		<rect x="71.3" y="78.4" class="artyp20" width="2" height="26"/>
	</g>
	<g>
		<rect x="91" y="78.4" class="artyp20" width="4.4" height="26"/>
	</g>
	<g>
		<path class="artyp20" d="M61.7,110.8c0.9,0,1.6,0.3,2.1,1c0.5,0.7,0.8,1.6,0.8,2.8c0,1.2-0.3,2.1-0.8,2.8c-0.5,0.7-1.2,1-2.1,1
			c-0.9,0-1.6-0.3-2.1-1s-0.8-1.6-0.8-2.8s0.3-2.1,0.8-2.8S60.8,110.8,61.7,110.8z M61.7,112.1c-0.4,0-0.7,0.2-1,0.7
			s-0.4,1.1-0.4,1.9c0,0.8,0.1,1.4,0.4,1.9s0.6,0.7,1,0.7s0.7-0.2,1-0.7s0.4-1.1,0.4-1.9c0-0.8-0.1-1.4-0.4-1.9
			S62.1,112.1,61.7,112.1z"/>
		<path class="artyp20" d="M68.1,117.1h2.1v0c0-0.2,0.1-0.3,0.2-0.4s0.3-0.1,0.5-0.1c0.2,0,0.3,0,0.4,0.1s0.1,0.2,0.1,0.4v0.1l0,0.9
			c0,0.2,0,0.3-0.1,0.3c0,0-0.1,0.1-0.3,0.1h-4.2c-0.2,0-0.4,0-0.5-0.1S66,118,66,117.8c0-0.1,0-0.3,0.1-0.4s0.2-0.3,0.4-0.5
			l2.4-2.3c0.3-0.2,0.5-0.5,0.6-0.8s0.2-0.5,0.2-0.8c0-0.4-0.1-0.6-0.3-0.8s-0.4-0.3-0.8-0.3c-0.2,0-0.4,0-0.5,0.1s-0.3,0.1-0.4,0.3
			c0,0.1-0.1,0.1-0.2,0.3c-0.2,0.3-0.4,0.5-0.6,0.5c-0.2,0-0.3-0.1-0.4-0.2s-0.1-0.3-0.1-0.6c0-0.3,0-0.5,0.1-0.6s0.2-0.3,0.4-0.4
			c0.3-0.2,0.6-0.4,1-0.5s0.7-0.1,1.1-0.1c0.7,0,1.3,0.2,1.8,0.6c0.4,0.4,0.6,0.9,0.6,1.6c0,0.4-0.1,0.9-0.3,1.3s-0.6,0.8-1,1.2
			L68.1,117.1z"/>
		<path class="artyp20" d="M77,117.1h0.9c0.3,0,0.5,0,0.6,0.1s0.2,0.3,0.2,0.5c0,0.2-0.1,0.4-0.2,0.5s-0.3,0.1-0.6,0.1h-3.5
			c-0.3,0-0.5,0-0.6-0.1s-0.2-0.3-0.2-0.5c0-0.2,0.1-0.4,0.2-0.5s0.3-0.1,0.6-0.1h1.1v-4.9l-0.7,0.2c-0.1,0-0.2,0-0.3,0.1
			s-0.1,0-0.1,0c-0.2,0-0.3-0.1-0.4-0.2S74,112,74,111.8c0-0.1,0-0.3,0.1-0.3s0.2-0.2,0.5-0.2l1.5-0.4c0.1,0,0.2-0.1,0.3-0.1
			s0.1,0,0.2,0c0.2,0,0.3,0,0.3,0.1s0.1,0.2,0.1,0.4V117.1z"/>
		<path class="artyp20" d="M82.2,112.3v1.4c0.3-0.1,0.5-0.1,0.7-0.2s0.4-0.1,0.6-0.1c0.7,0,1.3,0.2,1.7,0.7s0.7,1.1,0.7,1.8
			c0,0.9-0.3,1.5-0.8,1.9s-1.3,0.7-2.3,0.7c-0.7,0-1.3-0.1-1.7-0.2s-0.6-0.4-0.6-0.7c0-0.2,0.1-0.3,0.2-0.5s0.3-0.2,0.5-0.2
			c0.1,0,0.4,0.1,0.7,0.2s0.7,0.2,1,0.2c0.4,0,0.8-0.1,1-0.3s0.4-0.6,0.4-1c0-0.4-0.1-0.7-0.3-1s-0.5-0.4-0.9-0.4
			c-0.2,0-0.5,0.1-0.9,0.2s-0.6,0.2-0.7,0.2c-0.2,0-0.4-0.1-0.5-0.2s-0.1-0.3-0.1-0.6v-2.8c0-0.2,0-0.3,0.1-0.4s0.2-0.1,0.3-0.1H85
			c0.2,0,0.4,0,0.5,0.1s0.1,0.3,0.1,0.5c0,0.2,0,0.4-0.1,0.5s-0.3,0.1-0.5,0.1H82.2z"/>
		<path class="artyp20" d="M91.8,114.6c0.4,0.2,0.8,0.4,1,0.7s0.4,0.7,0.4,1.1c0,0.6-0.2,1.2-0.8,1.6s-1.2,0.6-2,0.6
			c-0.8,0-1.4-0.2-1.9-0.6s-0.8-0.9-0.8-1.6c0-0.4,0.1-0.8,0.4-1.1s0.6-0.6,1-0.7c-0.4-0.2-0.8-0.4-1-0.7s-0.3-0.6-0.3-1
			c0-0.6,0.2-1.1,0.7-1.5s1.1-0.6,1.9-0.6s1.4,0.2,1.9,0.6s0.7,0.9,0.7,1.5c0,0.4-0.1,0.7-0.3,1S92.3,114.4,91.8,114.6z M90.5,115.2
			c-0.4,0-0.6,0.1-0.9,0.3s-0.3,0.5-0.3,0.8c0,0.3,0.1,0.6,0.3,0.8s0.5,0.3,0.9,0.3c0.4,0,0.7-0.1,0.9-0.3s0.3-0.5,0.3-0.8
			c0-0.3-0.1-0.6-0.3-0.8S90.9,115.2,90.5,115.2z M90.5,111.9c-0.3,0-0.6,0.1-0.8,0.3s-0.3,0.4-0.3,0.7s0.1,0.5,0.3,0.7
			s0.5,0.3,0.8,0.3c0.3,0,0.6-0.1,0.8-0.3s0.3-0.4,0.3-0.7c0-0.3-0.1-0.5-0.3-0.7S90.8,111.9,90.5,111.9z"/>
	</g>
</g>
</svg>
