<?xml version="1.0" encoding="utf-8"?>
<!-- Generator: Adobe Illustrator 25.2.1, SVG Export Plug-In . SVG Version: 6.00 Build 0)  -->
<!DOCTYPE svg PUBLIC "-//W3C//DTD SVG 1.1//EN" "http://www.w3.org/Graphics/SVG/1.1/DTD/svg11.dtd" [
	<!ENTITY ns_extend "http://ns.adobe.com/Extensibility/1.0/">
	<!ENTITY ns_ai "http://ns.adobe.com/AdobeIllustrator/10.0/">
	<!ENTITY ns_graphs "http://ns.adobe.com/Graphs/1.0/">
	<!ENTITY ns_vars "http://ns.adobe.com/Variables/1.0/">
	<!ENTITY ns_imrep "http://ns.adobe.com/ImageReplacement/1.0/">
	<!ENTITY ns_sfw "http://ns.adobe.com/SaveForWeb/1.0/">
	<!ENTITY ns_custom "http://ns.adobe.com/GenericCustomNamespace/1.0/">
	<!ENTITY ns_adobe_xpath "http://ns.adobe.com/XPath/1.0/">
]>
<svg version="1.1" id="Calque_1" xmlns:x="&ns_extend;" xmlns:i="&ns_ai;" xmlns:graph="&ns_graphs;"
	 xmlns="http://www.w3.org/2000/svg" xmlns:xlink="http://www.w3.org/1999/xlink" x="0px" y="0px" viewBox="0 0 200 200"
	 style="enable-background:new 0 0 200 200;" xml:space="preserve">
<style type="text/css">
	.cust0{fill-rule:evenodd;clip-rule:evenodd;}
	.cust1{fill-rule:evenodd;clip-rule:evenodd;fill:#BCB9BA;}
	.cust2{fill-rule:evenodd;clip-rule:evenodd;fill:#F5F5F5;}
	.cust3{fill-rule:evenodd;clip-rule:evenodd;fill:#E5E4E4;}
	.cust4{fill-rule:evenodd;clip-rule:evenodd;fill:url(#CUST_ID_1_);}
	.cust5{fill-rule:evenodd;clip-rule:evenodd;fill:#353535;}
	.cust6{fill-rule:evenodd;clip-rule:evenodd;fill:#4C4C4C;}
	.cust7{fill:var(--vitamui-secondary-600);}
	.cust8{fill:var(--vitamui-secondary);}
	.cust9{fill:var(--vitamui-secondary-400);}
	.cust10{fill-rule:evenodd;clip-rule:evenodd;fill:url(#CUST_ID_2_);}
	.cust11{fill-rule:evenodd;clip-rule:evenodd;fill:url(#CUST_ID_3_);}
	.cust12{fill-rule:evenodd;clip-rule:evenodd;fill:url(#CUST_ID_4_);}
	.cust13{fill-rule:evenodd;clip-rule:evenodd;fill:url(#CUST_ID_5_);}
	.cust14{fill-rule:evenodd;clip-rule:evenodd;fill:url(#CUST_ID_6_);}
	.cust15{fill:#9B9A9B;}
	.cust16{fill-rule:evenodd;clip-rule:evenodd;fill:url(#CUST_ID_7_);}
	.cust17{fill-rule:evenodd;clip-rule:evenodd;fill:url(#CUST_ID_8_);}
	.cust18{fill-rule:evenodd;clip-rule:evenodd;fill:url(#CUST_ID_9_);}
	.cust19{fill-rule:evenodd;clip-rule:evenodd;fill:url(#CUST_ID_10_);}
	.cust20{fill-rule:evenodd;clip-rule:evenodd;fill:url(#CUST_ID_11_);}
	.cust21{fill-rule:evenodd;clip-rule:evenodd;fill:#9B9A9B;}
	.cust22{fill-rule:evenodd;clip-rule:evenodd;fill:url(#CUST_ID_12_);}
	.cust23{fill-rule:evenodd;clip-rule:evenodd;fill:url(#CUST_ID_13_);}
	.cust24{fill-rule:evenodd;clip-rule:evenodd;fill:url(#CUST_ID_14_);}
	.cust25{fill-rule:evenodd;clip-rule:evenodd;fill:url(#CUST_ID_15_);}
	.cust26{fill-rule:evenodd;clip-rule:evenodd;fill:url(#CUST_ID_16_);}
	.cust27{fill-rule:evenodd;clip-rule:evenodd;fill:url(#CUST_ID_17_);}
	.cust28{fill:#4C4C4C;}
	.cust29{fill:url(#CUST_ID_18_);}
	.cust30{fill:url(#CUST_ID_19_);}
	.cust31{fill:url(#CUST_ID_20_);}
	.cust32{fill:url(#CUST_ID_21_);}
	.cust33{fill:url(#CUST_ID_22_);}
	.cust34{fill:url(#CUST_ID_23_);}
	.cust35{fill:url(#CUST_ID_24_);}
	.cust36{fill:url(#CUST_ID_25_);}
	.cust37{fill:url(#CUST_ID_26_);}
	.cust38{fill:url(#CUST_ID_27_);}
	.cust39{fill-rule:evenodd;clip-rule:evenodd;fill:url(#CUST_ID_28_);}
	.cust40{fill-rule:evenodd;clip-rule:evenodd;fill:url(#CUST_ID_29_);}
	.cust41{fill-rule:evenodd;clip-rule:evenodd;fill:url(#CUST_ID_30_);}
	.cust42{fill:#FFFFFF;}
	.cust43{fill:var(--vitamui-primary-900);}
	.cust44{fill:var(--vitamui-primary-800);}
	.cust45{fill:var(--vitamui-primary-700);}
	.cust46{fill:var(--vitamui-primary-400);}
	.cust47{fill:var(--vitamui-primary-200);}
	.cust48{fill:var(--vitamui-primary-300);}
	.cust49{fill:var(--vitamui-primary);}
	.cust50{fill:var(--vitamui-primary);}
	.cust51{fill:var(--vitamui-primary-600);}
	.cust52{fill:#353535;}
	.cust53{fill:#A1A1A1;}
</style>
<metadata>
	<sfw  xmlns="&ns_sfw;">
		<slices></slices>
		<sliceSourceBounds  bottomLeftOrigin="true" height="150.2" width="165.1" x="17.5" y="19.3"></sliceSourceBounds>
	</sfw>
</metadata>
<g>
	<g>
		<g>
			<path class="cust0" d="M100.1,141.5c45.6,0,82.6,8.5,82.6,19s-37,20.2-82.6,20.2s-82.6-9.7-82.6-20.2
				C17.4,150.1,54.4,141.5,100.1,141.5z"/>
			<path class="cust1" d="M100.1,141.9c43.6,0,78.9,8.4,78.9,18.8c0,10.4-35.3,18.8-78.9,18.8s-78.9-8.4-78.9-18.8
				C21.2,150.2,56.5,141.9,100.1,141.9z"/>
			<path class="cust2" d="M100.1,139.7c43.6,0,78.9,8.4,78.9,18.8c0,10.4-35.3,18.8-78.9,18.8s-78.9-8.4-78.9-18.8
				C21.2,148,56.5,139.7,100.1,139.7z"/>
			<path class="cust1" d="M100.1,138.5c43.6,0,78.9,8.4,78.9,18.8c0,10.4-35.3,18.8-78.9,18.8s-78.9-8.4-78.9-18.8
				C21.2,146.8,56.5,138.5,100.1,138.5z"/>
			<path class="cust3" d="M100,138.5c22.9,0,43.4,2.3,57.8,6c-30.2-1.8-112.6,2.6-132.9,18.5c-2.5-1.8-3.8-3.8-3.8-5.7
				C21,146.8,56.5,138.5,100,138.5z"/>
			<path class="cust2" d="M21.2,157.2c0-10.4,35.3-18.8,78.9-18.8s78.9,8.4,78.9,18.8c0,0.4,0,0.6-0.1,1c-2.2-9.8-36.6-17.7-78.8-17.7
				s-76.6,7.9-78.8,17.7C21.2,157.8,21.2,157.6,21.2,157.2z"/>
		</g>
	</g>
	<g>
		<g>
			
				<linearGradient id="CUST_ID_1_" gradientUnits="userSpaceOnUse" x1="-9900.8896" y1="7349.0898" x2="-9819.4131" y2="7246.438" gradientTransform="matrix(-1 0 0 1 -9760.3652 -7143.3135)">
				<stop  offset="0" style="stop-color:#F5F5F5"/>
				<stop  offset="0.21" style="stop-color:#9B9A9B"/>
				<stop  offset="0.46" style="stop-color:#F5F5F5"/>
				<stop  offset="0.74" style="stop-color:#BCB9BA"/>
				<stop  offset="1" style="stop-color:#F5F5F5"/>
			</linearGradient>
			<rect x="47.1" y="147.4" class="cust4" width="105.3" height="14"/>
			<polygon class="cust5" points="59,128.2 47.2,147.4 152.6,147.4 140.8,128.2 			"/>
			<rect x="47.6" y="161.4" class="cust6" width="104.4" height="1.4"/>
			<rect x="47.8" y="80.7" class="cust6" width="104.4" height="1.4"/>
			<g>
				<g>
					<polygon class="cust7" points="60.3,156.3 60.3,154.5 64.1,154.5 64.1,154.1 60.2,154.1 60.2,156.7 64.1,156.7 64.1,156.3 					
						"/>
					<polygon class="cust8" points="60.6,155.9 60.6,155 64.1,155 64.1,154.5 60.3,154.5 60.3,156.3 64.1,156.3 64.1,155.9 					"/>
					<rect x="60.6" y="155" class="cust9" width="3.5" height="0.9"/>
				</g>
				<g>
					<polygon class="cust7" points="69.6,154.5 69.6,156.2 65.8,156.2 65.8,156.7 69.9,156.7 69.9,154.1 65.8,154.1 65.8,154.5 					
						"/>
					<polygon class="cust8" points="69.4,154.9 69.4,155.8 65.8,155.8 65.8,156.2 69.6,156.2 69.6,154.5 65.8,154.5 65.8,154.9 					
						"/>
					<rect x="65.8" y="154.9" class="cust9" width="3.5" height="0.9"/>
				</g>
			</g>
			<g>
				<g>
					<polygon class="cust7" points="72.5,156.3 72.5,154.5 76.3,154.5 76.3,154.1 72.4,154.1 72.4,156.7 76.3,156.7 76.3,156.3 					
						"/>
					<polygon class="cust8" points="72.8,155.9 72.8,155 76.3,155 76.3,154.5 72.5,154.5 72.5,156.3 76.3,156.3 76.3,155.9 					"/>
					<rect x="72.8" y="155" class="cust9" width="3.5" height="0.9"/>
				</g>
				<g>
					<polygon class="cust7" points="81.8,154.5 81.8,156.2 78,156.2 78,156.7 82,156.7 82,154.1 78,154.1 78,154.5 					"/>
					<polygon class="cust8" points="81.6,154.9 81.6,155.8 78,155.8 78,156.2 81.8,156.2 81.8,154.5 78,154.5 78,154.9 					"/>
					<rect x="78" y="154.9" class="cust9" width="3.5" height="0.9"/>
				</g>
			</g>
			<path class="cust0" d="M135.4,90.7c0-1.8,0-3.6,0-5.4c-4.6-2.4-7.6-2.4-12.2,0c0,1.8,0,3.7,0,5.5c-2.5-0.9-4.6-1-7.1-0.1
				c0-1.8,0-3.6,0-5.4c-4.6-2.4-7.6-2.4-12.2,0c0,1.8,0,3.7,0,5.5c-2.5-0.9-4.6-1-7.1-0.1c0-1.8,0-3.6,0-5.4
				c-4.6-2.4-7.6-2.4-12.2,0c0,1.8,0,3.7,0,5.5c-2.5-0.9-4.6-1-7.1-0.1c0-1.8,0-3.6,0-5.4c-4.6-2.4-7.6-2.4-12.2,0
				c0,1.8,0,3.7,0,5.5c-3.4-1.2-6.1-0.9-9.8,1c0,16.3,0,32.6,0,48.8c4.6,2.4,7.6,2.4,12.2,0c0-1.8,0-3.7,0-5.5
				c2.5,0.9,4.6,1,7.1,0.1c0,1.8,0,3.6,0,5.4c4.6,2.4,7.6,2.4,12.2,0c0-1.8,0-3.7,0-5.5c2.5,0.9,4.6,1,7.1,0.1c0,1.8,0,3.6,0,5.4
				c4.6,2.4,7.6,2.4,12.2,0c0-1.8,0-3.7,0-5.5c2.5,0.9,4.6,1,7.1,0.1c0,1.8,0,3.6,0,5.4c4.6,2.4,7.6,2.4,12.2,0c0-1.8,0-3.7,0-5.5
				c2.5,0.9,4.6,1,7.1,0.1c0,1.8,0,3.6,0,5.4c4.6,2.4,7.6,2.4,12.2,0c0-16.3,0-32.6,0-48.8C141.2,90,138.5,89.6,135.4,90.7z"/>
			<g>
				
					<linearGradient id="CUST_ID_2_" gradientUnits="userSpaceOnUse" x1="-9896.3799" y1="7400.6567" x2="-9879.0986" y2="7400.6567" gradientTransform="matrix(-1 0 0 1 -9824.0322 -7285.293)">
					<stop  offset="0" style="stop-color:#F5F5F5"/>
					<stop  offset="0.21" style="stop-color:#9B9A9B"/>
					<stop  offset="0.46" style="stop-color:#F5F5F5"/>
					<stop  offset="0.74" style="stop-color:#BCB9BA"/>
					<stop  offset="1" style="stop-color:#F5F5F5"/>
				</linearGradient>
				<path class="cust10" d="M55.4,90.9c4.6-2.4,7.6-2.4,12.2,0c0,16.3,0,32.6,0,48.8c-4.6,2.4-7.6,2.4-12.2,0
					C55.4,123.5,55.4,107.2,55.4,90.9z"/>
			</g>
			<g>
				
					<linearGradient id="CUST_ID_3_" gradientUnits="userSpaceOnUse" x1="-9915.6934" y1="7400.6567" x2="-9898.4131" y2="7400.6567" gradientTransform="matrix(-1 0 0 1 -9824.0322 -7285.293)">
					<stop  offset="0" style="stop-color:#F5F5F5"/>
					<stop  offset="0.21" style="stop-color:#9B9A9B"/>
					<stop  offset="0.46" style="stop-color:#F5F5F5"/>
					<stop  offset="0.74" style="stop-color:#BCB9BA"/>
					<stop  offset="1" style="stop-color:#F5F5F5"/>
				</linearGradient>
				<path class="cust11" d="M74.7,90.9c4.6-2.4,7.6-2.4,12.2,0c0,16.3,0,32.6,0,48.8c-4.6,2.4-7.6,2.4-12.2,0
					C74.7,123.5,74.7,107.2,74.7,90.9z"/>
			</g>
			<g>
				
					<linearGradient id="CUST_ID_4_" gradientUnits="userSpaceOnUse" x1="-9935.0078" y1="7400.6567" x2="-9917.7266" y2="7400.6567" gradientTransform="matrix(-1 0 0 1 -9824.0322 -7285.293)">
					<stop  offset="0" style="stop-color:#F5F5F5"/>
					<stop  offset="0.21" style="stop-color:#9B9A9B"/>
					<stop  offset="0.46" style="stop-color:#F5F5F5"/>
					<stop  offset="0.74" style="stop-color:#BCB9BA"/>
					<stop  offset="1" style="stop-color:#F5F5F5"/>
				</linearGradient>
				<path class="cust12" d="M94,90.9c4.6-2.4,7.6-2.4,12.2,0c0,16.3,0,32.6,0,48.8c-4.6,2.4-7.6,2.4-12.2,0C94,123.5,94,107.2,94,90.9
					z"/>
			</g>
			<g>
				
					<linearGradient id="CUST_ID_5_" gradientUnits="userSpaceOnUse" x1="-9954.3213" y1="7400.6567" x2="-9937.04" y2="7400.6567" gradientTransform="matrix(-1 0 0 1 -9824.0322 -7285.293)">
					<stop  offset="0" style="stop-color:#F5F5F5"/>
					<stop  offset="0.21" style="stop-color:#9B9A9B"/>
					<stop  offset="0.46" style="stop-color:#F5F5F5"/>
					<stop  offset="0.74" style="stop-color:#BCB9BA"/>
					<stop  offset="1" style="stop-color:#F5F5F5"/>
				</linearGradient>
				<path class="cust13" d="M113.3,90.9c4.6-2.4,7.6-2.4,12.2,0c0,16.3,0,32.6,0,48.8c-4.6,2.4-7.6,2.4-12.2,0
					C113.3,123.5,113.3,107.2,113.3,90.9z"/>
			</g>
			<g>
				
					<linearGradient id="CUST_ID_6_" gradientUnits="userSpaceOnUse" x1="-9973.6348" y1="7400.6567" x2="-9956.3545" y2="7400.6567" gradientTransform="matrix(-1 0 0 1 -9824.0322 -7285.293)">
					<stop  offset="0" style="stop-color:#F5F5F5"/>
					<stop  offset="0.21" style="stop-color:#9B9A9B"/>
					<stop  offset="0.46" style="stop-color:#F5F5F5"/>
					<stop  offset="0.74" style="stop-color:#BCB9BA"/>
					<stop  offset="1" style="stop-color:#F5F5F5"/>
				</linearGradient>
				<path class="cust14" d="M132.6,90.9c4.6-2.4,7.6-2.4,12.2,0c0,16.3,0,32.6,0,48.8c-4.6,2.4-7.6,2.4-12.2,0
					C132.6,123.5,132.6,107.2,132.6,90.9z"/>
			</g>
			<path class="cust15" d="M132.6,89.9c0,2,0,3.9,0,5.8h12.2c0-2,0-3.9,0-5.8C140.2,87.5,137.3,87.5,132.6,89.9z"/>
			<path class="cust15" d="M113.3,89.9c0,2,0,3.9,0,5.8h12.2c0-2,0-3.9,0-5.8C120.9,87.5,117.9,87.5,113.3,89.9z"/>
			<path class="cust15" d="M94,89.9c0,2,0,3.9,0,5.8h12.2c0-2,0-3.9,0-5.8C101.6,87.5,98.6,87.5,94,89.9z"/>
			<path class="cust15" d="M74.7,89.9c0,2,0,3.9,0,5.8h12.2c0-2,0-3.9,0-5.8C82.3,87.5,79.3,87.5,74.7,89.9z"/>
			<path class="cust15" d="M56,89.9c0,2,0,3.9,0,5.8h12.2c0-2,0-3.9,0-5.8C63.7,87.5,60.6,87.5,56,89.9z"/>
			
				<linearGradient id="CUST_ID_7_" gradientUnits="userSpaceOnUse" x1="-9899.1387" y1="7279.4609" x2="-9821.249" y2="7181.3286" gradientTransform="matrix(-1 0 0 1 -9760.3652 -7143.3135)">
				<stop  offset="0" style="stop-color:#F5F5F5"/>
				<stop  offset="0.21" style="stop-color:#9B9A9B"/>
				<stop  offset="0.46" style="stop-color:#F5F5F5"/>
				<stop  offset="0.74" style="stop-color:#BCB9BA"/>
				<stop  offset="1" style="stop-color:#F5F5F5"/>
			</linearGradient>
			<rect x="47.1" y="82.1" class="cust16" width="105.3" height="9.7"/>
			<polygon class="cust0" points="59.5,66.4 47.8,80.7 152.2,80.7 140.7,66.4 			"/>
			
				<linearGradient id="CUST_ID_8_" gradientUnits="userSpaceOnUse" x1="42.8531" y1="141.7943" x2="157.3469" y2="141.7943" gradientTransform="matrix(1 0 0 -1 0 199.3857)">
				<stop  offset="0" style="stop-color:#F5F5F5"/>
				<stop  offset="0.21" style="stop-color:#9B9A9B"/>
				<stop  offset="0.46" style="stop-color:#F5F5F5"/>
				<stop  offset="0.74" style="stop-color:#BCB9BA"/>
				<stop  offset="1" style="stop-color:#F5F5F5"/>
			</linearGradient>
			<polygon class="cust17" points="100.1,35.5 42.9,73.1 42.9,79.6 157.3,79.6 157.2,73.1 			"/>
			<polygon class="cust6" points="100.1,39.3 48.8,73 151.3,73 			"/>
			
				<linearGradient id="CUST_ID_9_" gradientUnits="userSpaceOnUse" x1="64.0374" y1="166.4288" x2="122.4061" y2="101.5747" gradientTransform="matrix(1 0 0 -1 0 199.3857)">
				<stop  offset="0" style="stop-color:#F5F5F5"/>
				<stop  offset="0.21" style="stop-color:#9B9A9B"/>
				<stop  offset="0.46" style="stop-color:#F5F5F5"/>
				<stop  offset="0.74" style="stop-color:#BCB9BA"/>
				<stop  offset="1" style="stop-color:#F5F5F5"/>
			</linearGradient>
			<polygon class="cust18" points="100.1,43.4 54.5,73 145.5,73 			"/>
			
				<linearGradient id="CUST_ID_10_" gradientUnits="userSpaceOnUse" x1="64.5426" y1="160.0557" x2="277.5484" y2="118.5803" gradientTransform="matrix(1 0 0 -1 0 199.3857)">
				<stop  offset="0" style="stop-color:#F5F5F5"/>
				<stop  offset="0.21" style="stop-color:#9B9A9B"/>
				<stop  offset="0.46" style="stop-color:#F5F5F5"/>
				<stop  offset="0.74" style="stop-color:#BCB9BA"/>
				<stop  offset="1" style="stop-color:#F5F5F5"/>
			</linearGradient>
			<polygon class="cust19" points="157.2,73.1 145.3,61.7 100.1,30.5 100.1,35.5 			"/>
			
				<linearGradient id="CUST_ID_11_" gradientUnits="userSpaceOnUse" x1="41.7678" y1="170.634" x2="117.4982" y2="111.8455" gradientTransform="matrix(1 0 0 -1 0 199.3857)">
				<stop  offset="0" style="stop-color:#F5F5F5"/>
				<stop  offset="0.21" style="stop-color:#9B9A9B"/>
				<stop  offset="0.46" style="stop-color:#F5F5F5"/>
				<stop  offset="0.74" style="stop-color:#BCB9BA"/>
				<stop  offset="1" style="stop-color:#F5F5F5"/>
			</linearGradient>
			<polygon class="cust20" points="42.9,73.1 54.9,61.7 100.1,30.5 100.1,35.5 			"/>
			<g>
				<g>
					<path class="cust21" d="M52.5,153.4c1.2,0,2.1,0.9,2.1,2.1c0,1.2-0.9,2.1-2.1,2.1c-1.2,0-2.1-0.9-2.1-2.1
						C50.4,154.4,51.3,153.4,52.5,153.4z"/>
					<path class="cust0" d="M52.5,153.3c1.2,0,2.1,0.9,2.1,2.1s-0.9,2.1-2.1,2.1c-1.2,0-2.1-0.9-2.1-2.1S51.3,153.3,52.5,153.3z"/>
					<path class="cust21" d="M52.5,153.7c0.9,0,1.7,0.8,1.7,1.7s-0.8,1.7-1.7,1.7s-1.7-0.8-1.7-1.7S51.5,153.7,52.5,153.7z"/>
					<path class="cust5" d="M52.5,153.8c0.9,0,1.6,0.7,1.6,1.6s-0.7,1.2-1.6,1.2s-1.6-0.4-1.6-1.2C50.9,154.5,51.6,153.8,52.5,153.8z"
						/>
					
						<linearGradient id="CUST_ID_12_" gradientUnits="userSpaceOnUse" x1="52.5238" y1="45.579" x2="52.5238" y2="43.0698" gradientTransform="matrix(1 0 0 -1 0 199.3857)">
						<stop  offset="0" style="stop-color:#FFFFFF"/>
						<stop  offset="1" style="stop-color:#9B9A9B"/>
					</linearGradient>
					<path class="cust22" d="M52.5,153.8c0.8,0,1.4,0.7,1.4,1.4s-0.7,1.1-1.4,1.1s-1.4-0.3-1.4-1.1S51.7,153.8,52.5,153.8z"/>
					<path class="cust3" d="M53.2,156.6l-0.7-0.7l-0.7,0.7c-0.1,0.1-0.3,0.1-0.3,0l-0.1-0.1c-0.1-0.1-0.1-0.3,0-0.3l0.7-0.7l-0.7-0.7
						c-0.1-0.1-0.1-0.3,0-0.3l0.1-0.1c0.1-0.1,0.3-0.1,0.3,0l0.7,0.7l0.7-0.7c0.1-0.1,0.3-0.1,0.3,0l0.1,0.1c0.1,0.1,0.1,0.3,0,0.3
						l-0.7,0.7l0.7,0.7c0.1,0.1,0.1,0.3,0,0.3l-0.1,0.1C53.3,156.7,53.2,156.7,53.2,156.6z"/>
					<path class="cust0" d="M53.2,156.5l-0.7-0.7l-0.7,0.7c-0.1,0.1-0.3,0.1-0.3,0l-0.1-0.1c-0.1-0.1-0.1-0.3,0-0.3l0.7-0.7l-0.7-0.7
						c-0.1-0.1-0.1-0.3,0-0.3l0.1-0.1c0.1-0.1,0.3-0.1,0.3,0l0.7,0.7l0.7-0.7c0.1-0.1,0.3-0.1,0.3,0l0.1,0.1c0.1,0.1,0.1,0.3,0,0.3
						l-0.7,0.7l0.7,0.7c0.1,0.1,0.1,0.3,0,0.3l-0.1,0.1C53.3,156.6,53.2,156.6,53.2,156.5z"/>
				</g>
				<g>
					<path class="cust21" d="M147,153.4c1.2,0,2.1,0.9,2.1,2.1c0,1.2-0.9,2.1-2.1,2.1s-2.1-0.9-2.1-2.1
						C144.9,154.4,145.8,153.4,147,153.4z"/>
					<path class="cust0" d="M147,153.3c1.2,0,2.1,0.9,2.1,2.1s-0.9,2.1-2.1,2.1s-2.1-0.9-2.1-2.1S145.8,153.3,147,153.3z"/>
					<path class="cust21" d="M147,153.7c0.9,0,1.7,0.8,1.7,1.7s-0.8,1.7-1.7,1.7c-0.9,0-1.7-0.8-1.7-1.7S146,153.7,147,153.7z"/>
					<path class="cust5" d="M147,153.8c0.9,0,1.6,0.7,1.6,1.6s-0.7,1.2-1.6,1.2c-0.9,0-1.6-0.4-1.6-1.2
						C145.4,154.5,146.1,153.8,147,153.8z"/>
					
						<linearGradient id="CUST_ID_13_" gradientUnits="userSpaceOnUse" x1="147.0097" y1="45.579" x2="147.0097" y2="43.0698" gradientTransform="matrix(1 0 0 -1 0 199.3857)">
						<stop  offset="0" style="stop-color:#FFFFFF"/>
						<stop  offset="1" style="stop-color:#9B9A9B"/>
					</linearGradient>
					<path class="cust23" d="M147,153.8c0.8,0,1.4,0.7,1.4,1.4s-0.7,1.1-1.4,1.1s-1.4-0.3-1.4-1.1S146.2,153.8,147,153.8z"/>
					<path class="cust3" d="M147.7,156.6l-0.7-0.7l-0.7,0.7c-0.1,0.1-0.3,0.1-0.3,0l-0.1-0.1c-0.1-0.1-0.1-0.3,0-0.3l0.7-0.7l-0.7-0.7
						c-0.1-0.1-0.1-0.3,0-0.3l0.1-0.1c0.1-0.1,0.3-0.1,0.3,0l0.7,0.7l0.7-0.7c0.1-0.1,0.3-0.1,0.3,0l0.1,0.1c0.1,0.1,0.1,0.3,0,0.3
						l-0.7,0.7l0.7,0.7c0.1,0.1,0.1,0.3,0,0.3l-0.1,0.1C147.8,156.7,147.7,156.7,147.7,156.6z"/>
					<path class="cust0" d="M147.7,156.5l-0.7-0.7l-0.7,0.7c-0.1,0.1-0.3,0.1-0.3,0l-0.1-0.1c-0.1-0.1-0.1-0.3,0-0.3l0.7-0.7l-0.7-0.7
						c-0.1-0.1-0.1-0.3,0-0.3l0.1-0.1c0.1-0.1,0.3-0.1,0.3,0l0.7,0.7l0.7-0.7c0.1-0.1,0.3-0.1,0.3,0l0.1,0.1c0.1,0.1,0.1,0.3,0,0.3
						l-0.7,0.7l0.7,0.7c0.1,0.1,0.1,0.3,0,0.3l-0.1,0.1C147.8,156.6,147.7,156.6,147.7,156.5z"/>
				</g>
			</g>
			<g>
				<g>
					<path class="cust21" d="M52.5,85.1c1.2,0,2.1,0.9,2.1,2.1c0,1.2-0.9,2.1-2.1,2.1c-1.2,0-2.1-0.9-2.1-2.1
						C50.4,86,51.3,85.1,52.5,85.1z"/>
					<path class="cust0" d="M52.5,85c1.2,0,2.1,0.9,2.1,2.1c0,1.2-0.9,2.1-2.1,2.1c-1.2,0-2.1-0.9-2.1-2.1C50.4,85.9,51.3,85,52.5,85z
						"/>
					<path class="cust21" d="M52.5,85.4c0.9,0,1.7,0.8,1.7,1.7c0,0.9-0.8,1.7-1.7,1.7s-1.7-0.8-1.7-1.7C50.8,86.1,51.5,85.4,52.5,85.4
						z"/>
					<path class="cust5" d="M52.5,85.5c0.9,0,1.6,0.7,1.6,1.6c0,0.9-0.7,1.2-1.6,1.2s-1.6-0.4-1.6-1.2C50.9,86.1,51.6,85.5,52.5,85.5z
						"/>
					
						<linearGradient id="CUST_ID_14_" gradientUnits="userSpaceOnUse" x1="52.5238" y1="113.9207" x2="52.5238" y2="111.4116" gradientTransform="matrix(1 0 0 -1 0 199.3857)">
						<stop  offset="0" style="stop-color:#FFFFFF"/>
						<stop  offset="1" style="stop-color:#9B9A9B"/>
					</linearGradient>
					<path class="cust24" d="M52.5,85.5c0.8,0,1.4,0.7,1.4,1.4c0,0.8-0.7,1.1-1.4,1.1s-1.4-0.3-1.4-1.1C51.1,86.1,51.7,85.5,52.5,85.5
						z"/>
					<path class="cust3" d="M53.2,88.3l-0.7-0.7l-0.7,0.7c-0.1,0.1-0.3,0.1-0.3,0l-0.1-0.1c-0.1-0.1-0.1-0.3,0-0.3l0.7-0.7l-0.7-0.7
						c-0.1-0.1-0.1-0.3,0-0.3l0.1-0.1c0.1-0.1,0.3-0.1,0.3,0l0.7,0.7l0.7-0.7c0.1-0.1,0.3-0.1,0.3,0l0.1,0.1c0.1,0.1,0.1,0.3,0,0.3
						l-0.7,0.7l0.7,0.7c0.1,0.1,0.1,0.3,0,0.3l-0.1,0.1C53.3,88.4,53.2,88.4,53.2,88.3z"/>
					<path class="cust0" d="M53.2,88.1l-0.7-0.7l-0.7,0.7c-0.1,0.1-0.3,0.1-0.3,0L51.5,88c-0.1-0.1-0.1-0.3,0-0.3l0.7-0.7l-0.7-0.7
						c-0.1-0.1-0.1-0.3,0-0.3l0.1-0.1c0.1-0.1,0.3-0.1,0.3,0l0.7,0.7l0.7-0.7c0.1-0.1,0.3-0.1,0.3,0l0.1,0.1c0.1,0.1,0.1,0.3,0,0.3
						l-0.7,0.7l0.7,0.7c0.1,0.1,0.1,0.3,0,0.3l-0.1,0.1C53.3,88.3,53.2,88.3,53.2,88.1z"/>
				</g>
				<g>
					<path class="cust21" d="M147,85.1c1.2,0,2.1,0.9,2.1,2.1c0,1.2-0.9,2.1-2.1,2.1s-2.1-0.9-2.1-2.1C144.9,86,145.8,85.1,147,85.1z"
						/>
					<path class="cust0" d="M147,85c1.2,0,2.1,0.9,2.1,2.1c0,1.2-0.9,2.1-2.1,2.1s-2.1-0.9-2.1-2.1C144.9,85.9,145.8,85,147,85z"/>
					<path class="cust21" d="M147,85.4c0.9,0,1.7,0.8,1.7,1.7c0,0.9-0.8,1.7-1.7,1.7c-0.9,0-1.7-0.8-1.7-1.7
						C145.3,86.1,146,85.4,147,85.4z"/>
					<path class="cust5" d="M147,85.5c0.9,0,1.6,0.7,1.6,1.6c0,0.9-0.7,1.2-1.6,1.2c-0.9,0-1.6-0.4-1.6-1.2
						C145.4,86.1,146.1,85.5,147,85.5z"/>
					
						<linearGradient id="CUST_ID_15_" gradientUnits="userSpaceOnUse" x1="147.0097" y1="113.9207" x2="147.0097" y2="111.4116" gradientTransform="matrix(1 0 0 -1 0 199.3857)">
						<stop  offset="0" style="stop-color:#FFFFFF"/>
						<stop  offset="1" style="stop-color:#9B9A9B"/>
					</linearGradient>
					<path class="cust25" d="M147,85.5c0.8,0,1.4,0.7,1.4,1.4c0,0.8-0.7,1.1-1.4,1.1s-1.4-0.3-1.4-1.1C145.6,86.1,146.2,85.5,147,85.5
						z"/>
					<path class="cust3" d="M147.7,88.3l-0.7-0.7l-0.7,0.7c-0.1,0.1-0.3,0.1-0.3,0l-0.1-0.1c-0.1-0.1-0.1-0.3,0-0.3l0.7-0.7l-0.7-0.7
						c-0.1-0.1-0.1-0.3,0-0.3l0.1-0.1c0.1-0.1,0.3-0.1,0.3,0l0.7,0.7l0.7-0.7c0.1-0.1,0.3-0.1,0.3,0l0.1,0.1c0.1,0.1,0.1,0.3,0,0.3
						l-0.7,0.7l0.7,0.7c0.1,0.1,0.1,0.3,0,0.3l-0.1,0.1C147.8,88.4,147.7,88.4,147.7,88.3z"/>
					<path class="cust0" d="M147.7,88.1l-0.7-0.7l-0.7,0.7c-0.1,0.1-0.3,0.1-0.3,0L146,88c-0.1-0.1-0.1-0.3,0-0.3l0.7-0.7l-0.7-0.7
						c-0.1-0.1-0.1-0.3,0-0.3l0.1-0.1c0.1-0.1,0.3-0.1,0.3,0l0.7,0.7l0.7-0.7c0.1-0.1,0.3-0.1,0.3,0l0.1,0.1c0.1,0.1,0.1,0.3,0,0.3
						l-0.7,0.7l0.7,0.7c0.1,0.1,0.1,0.3,0,0.3l-0.1,0.1C147.8,88.3,147.7,88.3,147.7,88.1z"/>
				</g>
				<g>
					<path class="cust21" d="M100,49.3c1.2,0,2.1,0.9,2.1,2.1s-0.9,2.1-2.1,2.1s-2.1-0.9-2.1-2.1S98.9,49.3,100,49.3z"/>
					<path class="cust0" d="M100,49.1c1.2,0,2.1,0.9,2.1,2.1s-0.9,2.1-2.1,2.1s-2.1-0.9-2.1-2.1S98.9,49.1,100,49.1z"/>
					<path class="cust21" d="M100,49.5c0.9,0,1.7,0.8,1.7,1.7c0,0.9-0.8,1.7-1.7,1.7c-0.9,0-1.7-0.8-1.7-1.7
						C98.3,50.3,99,49.5,100,49.5z"/>
					<path class="cust5" d="M100,49.6c0.9,0,1.6,0.7,1.6,1.6c0,0.9-0.7,1.2-1.6,1.2c-0.9,0-1.6-0.4-1.6-1.2
						C98.5,50.3,99.1,49.6,100,49.6z"/>
					
						<linearGradient id="CUST_ID_16_" gradientUnits="userSpaceOnUse" x1="100.0343" y1="149.7657" x2="100.0343" y2="147.2565" gradientTransform="matrix(1 0 0 -1 0 199.3857)">
						<stop  offset="0" style="stop-color:#FFFFFF"/>
						<stop  offset="1" style="stop-color:#9B9A9B"/>
					</linearGradient>
					<path class="cust26" d="M100,49.6c0.8,0,1.4,0.7,1.4,1.4s-0.7,1.1-1.4,1.1s-1.4-0.3-1.4-1.1S99.2,49.6,100,49.6z"/>
					<path class="cust3" d="M100.7,52.4l-0.7-0.7l-0.7,0.7c-0.1,0.1-0.3,0.1-0.3,0L99,52.3c-0.1-0.1-0.1-0.3,0-0.3l0.7-0.7L99,50.7
						c-0.1-0.1-0.1-0.3,0-0.3l0.1-0.1c0.1-0.1,0.3-0.1,0.3,0L100,51l0.7-0.7c0.1-0.1,0.3-0.1,0.3,0l0.1,0.1c0.1,0.1,0.1,0.3,0,0.3
						l-0.7,0.7l0.7,0.7c0.1,0.1,0.1,0.3,0,0.3l-0.1,0.1C100.8,52.5,100.7,52.5,100.7,52.4z"/>
					<path class="cust0" d="M100.7,52.3l-0.7-0.7l-0.7,0.7c-0.1,0.1-0.3,0.1-0.3,0L99,52.1c-0.1-0.1-0.1-0.3,0-0.3l0.7-0.7L99,50.6
						c-0.1-0.1-0.1-0.3,0-0.3l0.1-0.1c0.1-0.1,0.3-0.1,0.3,0l0.7,0.7l0.7-0.7c0.1-0.1,0.3-0.1,0.3,0l0.1,0.1c0.1,0.1,0.1,0.3,0,0.3
						l-0.7,0.7l0.7,0.7c0.1,0.1,0.1,0.3,0,0.3l-0.1,0.1C100.8,52.4,100.7,52.4,100.7,52.3z"/>
				</g>
			</g>
			<rect x="48.8" y="72.8" class="cust15" width="102.5" height="0.3"/>
			<linearGradient id="CUST_ID_17_" gradientUnits="userSpaceOnUse" x1="99.7667" y1="169.4693" x2="99.7667" y2="164.1428">
				<stop  offset="0" style="stop-color:#BCB9BA"/>
				<stop  offset="1" style="stop-color:#4C4C4C"/>
			</linearGradient>
			<rect x="47.6" y="163.4" class="cust27" width="104.4" height="6.3"/>
		</g>
		<path class="cust28" d="M113.3,107.5v-1.1l1.1,0.7l11.1,1.7v12.4l-4.6-3.6C120.9,117.6,115.1,113.8,113.3,107.5"/>
		<path class="cust28" d="M132.5,127.1c0,0,4.3,3.9,12.2,4.4c0-8.7,0-6.5,0-6.5l-12.1-4.6L132.5,127.1z"/>
		<path class="cust28" d="M149.1,96.9l-12.1-4c-2.8-1-6,0.1-8.3,2.7c-0.1,0.1-0.1,0.1-0.2,0.2c-0.1,0.1-0.2,0.2-0.2,0.3
			c0,0,0,0-0.1,0.1c0,0,0,0,0,0c-0.7,1-1.3,2.2-1.7,3.5c-0.3,1.1-0.6,2.2-0.6,3.5c0,0.1,0,0.3,0,0.4c0,0.2,0,0.5,0,0.7
			c0,0.4,0,0.8,0,1.3c0.7,0.2,1.5,0.3,2.4,0.3c0.7,0,1.3-0.1,1.9-0.2c0.4-0.1,0.8-0.2,1.1-0.3c0-0.3,0.1-0.6,0.1-0.9
			c0-0.4,0.1-0.7,0.2-1c0.1-0.3,0.1-0.6,0.2-0.9c0.3-1,0.7-1.9,1.2-2.5c0.6-0.7,1.2-1.2,2-1.4c0.5-0.1,1.1-0.1,1.7,0.2
			c4.4,1,10,5.1,10.3,8.3l4.9-1.2l0-1.9l0.1-3.6l0.1-2.6L149.1,96.9z"/>
		<g>
			<linearGradient id="CUST_ID_18_" gradientUnits="userSpaceOnUse" x1="127.0916" y1="94.2251" x2="150.7682" y2="94.2251">
				<stop  offset="0" style="stop-color:#F5F5F5"/>
				<stop  offset="0.21" style="stop-color:#9B9A9B"/>
				<stop  offset="0.46" style="stop-color:#F5F5F5"/>
				<stop  offset="0.74" style="stop-color:#BCB9BA"/>
				<stop  offset="1" style="stop-color:#F5F5F5"/>
			</linearGradient>
			<path class="cust29" d="M147.8,94.7l-12.1-4c-3-1-6.4,0.2-8.7,3.2c0.5-0.6,9-2.6,23.6,4.3l0.1-2.6L147.8,94.7z"/>
			<linearGradient id="CUST_ID_19_" gradientUnits="userSpaceOnUse" x1="146.6975" y1="138.0317" x2="111.8389" y2="75.3936">
				<stop  offset="0" style="stop-color:#F5F5F5"/>
				<stop  offset="0.21" style="stop-color:#9B9A9B"/>
				<stop  offset="0.46" style="stop-color:#F5F5F5"/>
				<stop  offset="0.74" style="stop-color:#BCB9BA"/>
				<stop  offset="1" style="stop-color:#F5F5F5"/>
			</linearGradient>
			<path class="cust30" d="M127.5,115.3c1.6,3.3,3.9,5.9,6.4,7.2l8,2.8l3.6,1.3l0-2.2C131.3,120.6,127.9,115.9,127.5,115.3z"/>
			<path class="cust15" d="M136.7,95.6c-1.4-0.5-2.5-0.4-3.3,0c-1.4,0.6-1.8,2-1.8,2l0.1,0.1c0.6-0.7,1.2-1.2,2-1.4
				c0.5-0.1,1.1-0.1,1.7,0.2c4.4,1,10,5.1,10.3,8.3l4.9-1.2l0-1.9C148.1,100.4,139.3,96.5,136.7,95.6z"/>
			<path class="cust15" d="M135.9,118c-0.9-0.4-1.7-1-2.4-2c-0.7-0.9-1.3-1.9-1.8-3.1h0c0,0-0.2,1.6,0.9,3.5c0.2,0.3,0.3,0.5,0.4,0.6
				c0,0,0,0.1,0,0.1c1.1,1.5,2.9,3,6.3,4.1c2.7,0.9,4.8,1.4,6.4,1.6l0-1.1L135.9,118z"/>
			<linearGradient id="CUST_ID_20_" gradientUnits="userSpaceOnUse" x1="107.404" y1="106.018" x2="172.6497" y2="122.0853">
				<stop  offset="0" style="stop-color:#F5F5F5"/>
				<stop  offset="0.21" style="stop-color:#9B9A9B"/>
				<stop  offset="0.46" style="stop-color:#F5F5F5"/>
				<stop  offset="0.74" style="stop-color:#BCB9BA"/>
				<stop  offset="1" style="stop-color:#F5F5F5"/>
			</linearGradient>
			<path class="cust31" d="M133.5,109.6c0,0.7-1,1.3-2.4,1.7c-0.3,0.1-0.5,0.1-0.8,0.2c-0.8,0.1-1.7,0.2-2.7,0.2c-0.5,0-1,0-1.4-0.1
				c-1.6-0.1-2.9-0.5-3.7-1l0,0l-7.9-5v1.6l7.9,5l0,0c0.9,0.5,2.5,0.9,4.3,1c0.3,0,0.6,0,0.9,0c1.2,0,2.3-0.1,3.3-0.3
				c0.3-0.1,0.6-0.1,0.8-0.2c1.2-0.4,1.9-0.9,1.9-1.5c0,0,0-0.1,0-0.1L133.5,109.6z"/>
			<linearGradient id="CUST_ID_21_" gradientUnits="userSpaceOnUse" x1="183.4887" y1="132.5483" x2="-11.7123" y2="52.1275">
				<stop  offset="0" style="stop-color:#F5F5F5"/>
				<stop  offset="0.21" style="stop-color:#9B9A9B"/>
				<stop  offset="0.46" style="stop-color:#F5F5F5"/>
				<stop  offset="0.74" style="stop-color:#BCB9BA"/>
				<stop  offset="1" style="stop-color:#F5F5F5"/>
			</linearGradient>
			<path class="cust32" d="M132.3,108.4L132.3,108.4l-2.2-1.2c0,0.4,0.1,0.8,0.2,1.2c0.8,0.3,1.3,0.6,1.3,1.1c0,0.2-0.1,0.4-0.3,0.5
				c-0.1,0.1-0.3,0.2-0.6,0.3c-0.2,0.1-0.5,0.2-0.8,0.3c-0.7,0.2-1.5,0.3-2.4,0.3c-0.6,0-1.2,0-1.7-0.1c-1-0.2-1.7-0.4-2.1-0.8
				c-0.2-0.2-0.3-0.4-0.3-0.5c0-0.5,0.7-0.9,1.8-1.2c-0.2-0.8-0.3-1.6-0.4-2.4c-1.2-0.2-2.2-0.5-2.9-0.9l-7.5,0.7l7.9,5l0,0
				c0.8,0.5,2.1,0.9,3.7,1c0.5,0,0.9,0.1,1.4,0.1c1,0,1.9-0.1,2.7-0.2c0.3-0.1,0.6-0.1,0.8-0.2c1.5-0.4,2.4-1,2.4-1.7
				C133.5,109.2,133,108.8,132.3,108.4z"/>
			<path class="cust28" d="M130.3,108.4c0.1,0.4,0.2,0.8,0.3,1.2c0.3,0.1,0.6,0.3,0.8,0.4c0.2-0.2,0.3-0.4,0.3-0.5
				C131.7,109,131.1,108.6,130.3,108.4z"/>
			<path class="cust28" d="M123.4,109.4c0,0.2,0.1,0.4,0.3,0.5c0.3-0.3,1-0.5,1.7-0.7c-0.1-0.3-0.2-0.7-0.2-1
				C124.1,108.5,123.4,108.9,123.4,109.4z"/>
			<linearGradient id="CUST_ID_22_" gradientUnits="userSpaceOnUse" x1="128.4271" y1="102.1931" x2="131.2582" y2="113.0458">
				<stop  offset="0" style="stop-color:#F5F5F5"/>
				<stop  offset="0.21" style="stop-color:#9B9A9B"/>
				<stop  offset="0.46" style="stop-color:#F5F5F5"/>
				<stop  offset="0.74" style="stop-color:#BCB9BA"/>
				<stop  offset="1" style="stop-color:#F5F5F5"/>
			</linearGradient>
			<path class="cust33" d="M130.6,109.6c-0.1-0.4-0.2-0.8-0.3-1.2c-0.1-0.4-0.1-0.8-0.2-1.2c-0.1-0.5-0.1-1-0.1-1.6
				c-0.3,0.1-0.7,0.1-1,0.2c0,0.3,0,0.5,0.1,0.8c0.1,0.5,0.2,1,0.3,1.5c0.1,0.4,0.2,0.8,0.2,1.1c0.1,0.5,0.2,0.9,0.4,1.3
				c0.3-0.1,0.6-0.2,0.8-0.3C130.7,110.1,130.6,109.8,130.6,109.6z"/>
			<linearGradient id="CUST_ID_23_" gradientUnits="userSpaceOnUse" x1="107.697" y1="98.8205" x2="177.045" y2="116.011">
				<stop  offset="0" style="stop-color:#F5F5F5"/>
				<stop  offset="0.21" style="stop-color:#9B9A9B"/>
				<stop  offset="0.46" style="stop-color:#F5F5F5"/>
				<stop  offset="0.74" style="stop-color:#BCB9BA"/>
				<stop  offset="1" style="stop-color:#F5F5F5"/>
			</linearGradient>
			<path class="cust34" d="M133,102.3c0,0.8-1.2,1.4-3,1.8c-0.3,0.1-0.7,0.1-1.1,0.2c-0.6,0.1-1.2,0.1-1.9,0.1c-0.8,0-1.7-0.1-2.4-0.2
				c-1.2-0.2-2.2-0.5-2.8-0.9l0,0l-7.9-5v1.6l7.9,5l0,0c0,0,0,0,0.1,0c0.7,0.4,1.7,0.7,2.9,0.9c0.7,0.1,1.4,0.2,2.2,0.2
				c0.3,0,0.6,0,0.8,0c0,0,0,0,0,0c0.4,0,0.8-0.1,1.2-0.1c0.4,0,0.7-0.1,1-0.2c1.8-0.4,3-1,3-1.8c0,0,0-0.1,0-0.1L133,102.3z"/>
			<linearGradient id="CUST_ID_24_" gradientUnits="userSpaceOnUse" x1="121.0804" y1="88.9178" x2="126.2571" y2="113.7757">
				<stop  offset="0" style="stop-color:#F5F5F5"/>
				<stop  offset="0.21" style="stop-color:#9B9A9B"/>
				<stop  offset="0.46" style="stop-color:#F5F5F5"/>
				<stop  offset="0.74" style="stop-color:#BCB9BA"/>
				<stop  offset="1" style="stop-color:#F5F5F5"/>
			</linearGradient>
			<path class="cust35" d="M131.8,101.1L131.8,101.1l-1.3-0.7c-0.1,0.3-0.2,0.6-0.2,0.9c0.5,0.2,0.9,0.5,0.9,0.9
				c0,0.2-0.1,0.4-0.3,0.5c-0.2,0.2-0.5,0.3-0.8,0.5c-0.3,0.1-0.7,0.2-1.1,0.3c-0.6,0.1-1.2,0.2-1.9,0.2c-0.9,0-1.7-0.1-2.4-0.3
				c-0.6-0.2-1.1-0.4-1.4-0.6c-0.2-0.2-0.3-0.4-0.3-0.5c0-0.5,0.7-0.9,1.8-1.2c0.1-1.3,0.3-2.4,0.6-3.5l-0.3-0.2l-11.1,1.1l7.9,5
				l0,0c0.6,0.4,1.6,0.7,2.8,0.9c0.7,0.1,1.5,0.2,2.4,0.2c0.7,0,1.3,0,1.9-0.1c0.4,0,0.7-0.1,1.1-0.2c1.8-0.4,3-1,3-1.8
				C133,101.8,132.5,101.4,131.8,101.1z"/>
			<path class="cust28" d="M122.9,102.1c0,0.2,0.1,0.4,0.3,0.5c0.3-0.3,0.8-0.5,1.4-0.6c0-0.2,0-0.5,0-0.7c0-0.1,0-0.3,0-0.4
				C123.6,101.2,122.9,101.6,122.9,102.1z"/>
			<path class="cust28" d="M130.3,101.2c-0.1,0.3-0.1,0.7-0.2,1c0.3,0.1,0.6,0.3,0.8,0.4c0.2-0.2,0.3-0.4,0.3-0.5
				C131.2,101.7,130.8,101.4,130.3,101.2z"/>
			<linearGradient id="CUST_ID_25_" gradientUnits="userSpaceOnUse" x1="124.8061" y1="93.743" x2="142.6315" y2="109.859">
				<stop  offset="0" style="stop-color:#F5F5F5"/>
				<stop  offset="0.21" style="stop-color:#9B9A9B"/>
				<stop  offset="0.46" style="stop-color:#F5F5F5"/>
				<stop  offset="0.74" style="stop-color:#BCB9BA"/>
				<stop  offset="1" style="stop-color:#F5F5F5"/>
			</linearGradient>
			<path class="cust36" d="M133.5,95.6c0,0-2.5,0.6-3.8,3.9l-0.2,0.5l0,0c-0.1,0.3-0.2,0.5-0.3,0.8c-0.1,0.3-0.2,0.7-0.2,1
				c-0.1,0.5-0.1,0.9-0.1,1.5c0.4-0.1,0.8-0.2,1.1-0.3c0-0.3,0.1-0.6,0.1-0.9c0-0.4,0.1-0.7,0.2-1c0.1-0.3,0.1-0.6,0.2-0.9l0,0l0,0
				l0,0c0.3-1,0.7-1.9,1.2-2.5l0,0C131.7,97.8,132.1,96.3,133.5,95.6z"/>
			<linearGradient id="CUST_ID_26_" gradientUnits="userSpaceOnUse" x1="130.6856" y1="106.3586" x2="141.0532" y2="128.6108">
				<stop  offset="0" style="stop-color:#F5F5F5"/>
				<stop  offset="0.21" style="stop-color:#9B9A9B"/>
				<stop  offset="0.46" style="stop-color:#F5F5F5"/>
				<stop  offset="0.74" style="stop-color:#BCB9BA"/>
				<stop  offset="1" style="stop-color:#F5F5F5"/>
			</linearGradient>
			<path class="cust37" d="M133,117.1C133,117.1,133,117.1,133,117.1c-0.1-0.2-0.2-0.4-0.4-0.7c-1.1-1.9-0.9-3.5-0.9-3.5h0
				c0-0.1,0-0.1-0.1-0.2c-0.2,0.1-0.5,0.2-0.8,0.2c-0.9,0.2-2.1,0.3-3.3,0.3c-0.3,0-0.6,0-0.9,0c0.3,0.7,0.6,1.4,0.9,2
				c0.4,0.6,3.7,5.3,18.1,9.1l0-1.6c-1.6-0.2-3.7-0.7-6.4-1.6C135.9,120.1,134.1,118.6,133,117.1z"/>
			<linearGradient id="CUST_ID_27_" gradientUnits="userSpaceOnUse" x1="135.5275" y1="119.2075" x2="141.8493" y2="65.7708">
				<stop  offset="0" style="stop-color:#F5F5F5"/>
				<stop  offset="0.21" style="stop-color:#9B9A9B"/>
				<stop  offset="0.46" style="stop-color:#F5F5F5"/>
				<stop  offset="0.74" style="stop-color:#BCB9BA"/>
				<stop  offset="1" style="stop-color:#F5F5F5"/>
			</linearGradient>
			<path class="cust38" d="M127.1,93.8C127.1,93.8,127,93.9,127.1,93.8C127,93.9,127,93.9,127.1,93.8c-0.8,1.1-1.4,2.2-1.8,3.6
				c-0.3,1.1-0.6,2.2-0.6,3.5c0,0.1,0,0.3,0,0.4c0,0.2,0,0.5,0,0.7c0,0.4,0,0.8,0,1.3c0.7,0.2,1.5,0.3,2.4,0.3
				c0.7,0,1.3-0.1,1.9-0.2c0-0.5,0.1-1.1,0.1-1.5c0.1-0.4,0.1-0.7,0.2-1c0.1-0.4,0.2-0.7,0.3-1.1c0,0,0,0,0,0
				c1.3-3.3,3.9-4.2,3.9-4.2c0.8-0.4,1.8-0.5,3.3,0c2.6,0.9,11.3,4.7,13.9,6.1l0.1-3.6C131.8,87.2,129,91.6,127.1,93.8z"/>
			<path class="cust15" d="M129.9,110.6c-0.1-0.4-0.2-0.9-0.4-1.3c-0.1-0.4-0.2-0.7-0.2-1.1c-0.1-0.5-0.2-1-0.3-1.5
				c0-0.3,0-0.5-0.1-0.8c-0.4,0-0.8,0.1-1.2,0.1l0,0l0,0c-0.3,0-0.5,0-0.8,0c-0.8,0-1.5-0.1-2.2-0.2c0.1,0.8,0.2,1.6,0.4,2.4
				c0.1,0.3,0.1,0.6,0.2,0.8l0,0l0,0.1c0,0,0,0,0,0.1c0,0,0,0,0,0.1l0.1,0.3l0,0c0.1,0.4,0.2,0.7,0.3,1.1c0.5,0.1,1.1,0.1,1.7,0.1
				C128.4,110.9,129.3,110.8,129.9,110.6z"/>
			<linearGradient id="CUST_ID_28_" gradientUnits="userSpaceOnUse" x1="167.4285" y1="147.7195" x2="115.6819" y2="46.5855">
				<stop  offset="0" style="stop-color:#F5F5F5"/>
				<stop  offset="0.21" style="stop-color:#9B9A9B"/>
				<stop  offset="0.46" style="stop-color:#F5F5F5"/>
				<stop  offset="0.74" style="stop-color:#BCB9BA"/>
				<stop  offset="1" style="stop-color:#F5F5F5"/>
			</linearGradient>
			<polygon class="cust39" points="164.1,138.4 140.1,128.9 140.1,95.5 163,104.3 			"/>
			<polygon class="cust3" points="162.8,104.5 162.8,137.9 164.7,138.7 170.2,136 170.9,134.2 170.9,100.7 169.8,98.6 164.1,101.5 			
				"/>
			<linearGradient id="CUST_ID_29_" gradientUnits="userSpaceOnUse" x1="173.5544" y1="135.8136" x2="151.8491" y2="87.6058">
				<stop  offset="0" style="stop-color:#F5F5F5"/>
				<stop  offset="0.21" style="stop-color:#9B9A9B"/>
				<stop  offset="0.46" style="stop-color:#F5F5F5"/>
				<stop  offset="0.74" style="stop-color:#BCB9BA"/>
				<stop  offset="1" style="stop-color:#F5F5F5"/>
			</linearGradient>
			<polygon class="cust40" points="146.9,89.8 141.1,92.7 164.1,101.5 169.8,98.6 			"/>
			<linearGradient id="CUST_ID_30_" gradientUnits="userSpaceOnUse" x1="144.0615" y1="81.0226" x2="155.1501" y2="104.8512">
				<stop  offset="0" style="stop-color:#F5F5F5"/>
				<stop  offset="0.21" style="stop-color:#9B9A9B"/>
				<stop  offset="0.46" style="stop-color:#F5F5F5"/>
				<stop  offset="0.74" style="stop-color:#BCB9BA"/>
				<stop  offset="1" style="stop-color:#F5F5F5"/>
			</linearGradient>
			<polygon class="cust41" points="141.4,92.6 140.1,95.5 163,104.3 164.3,101.4 			"/>
			<polygon class="cust1" points="164.1,104.7 164.1,136.3 165.1,136.8 169.6,134.7 170.2,133.2 170.2,101.6 169.3,100.1 165,102.5 
							"/>
			<polygon class="cust21" points="169.3,100.2 170.2,101.7 170.2,133.2 169.6,134.6 165.1,136.8 164.1,136.3 164.1,135.8 
				164.9,135.9 168.9,134.1 169.5,132.7 169.3,102.1 168.6,100.5 			"/>
			<path class="cust2" d="M166.8,111.7c1.1,0,1.9,2,1.9,4.6c0,2.5-0.9,4.6-1.9,4.6c-1.1,0-1.9-2-1.9-4.6
				C164.9,113.7,165.8,111.7,166.8,111.7z"/>
			<path class="cust3" d="M166.8,120.3c-1,0-1.7-1.8-1.7-4.1c0-2.3,0.8-4.1,1.7-4.1c1,0,1.7,1.8,1.7,4.1
				C168.6,118.5,167.8,120.3,166.8,120.3z"/>
			<path class="cust42" d="M137.1,93.2c0,0-6.8-2.3-9.5,1.4C129.4,94.3,129.8,92.1,137.1,93.2z"/>
			<g>
				<g>
					<g>
						<polygon class="cust43" points="155,134.9 154.8,134.8 154.8,134.8 158.6,136.3 158.6,136.3 155,134.9 						"/>
						<polygon class="cust44" points="152,133.4 158.6,131.1 158.6,128.6 152,130.9 						"/>
						<polygon class="cust44" points="152,123.3 158.6,121.1 158.6,118.6 152,120.8 						"/>
						<polygon class="cust44" points="152,118.3 158.6,116.1 158.6,113.6 152,115.8 						"/>
						<polygon class="cust44" points="152,113.3 158.6,111 158.6,108.5 152,110.8 						"/>
						<polygon class="cust44" points="152,108.3 158.6,106 158.6,103.5 152,105.8 						"/>
						<polygon class="cust44" points="152,128.4 158.6,126.1 158.6,123.6 152,125.9 						"/>
						<polygon class="cust43" points="152,133.7 154.8,134.8 154.8,134.8 						"/>
						<polygon class="cust44" points="155,134.9 158.6,136.3 158.6,133.6 						"/>
						<polygon class="cust44" points="152.4,100.5 152,100.3 152,103.2 156,101.9 						"/>
						
							<rect x="152" y="100.3" transform="matrix(0.3162 -0.9487 0.9487 0.3162 8.7769 212.8327)" class="cust43" width="0" height="0"/>
						<polygon class="cust43" points="152,100.3 152,100.3 152.4,100.5 						"/>
						<polygon class="cust43" points="152,100.3 152,100.3 152,100.3 						"/>
						<polygon class="cust45" points="156,101.9 156,101.9 152.8,100.6 						"/>
						<polygon class="cust45" points="158.6,102.9 158.7,102.9 158.7,102.9 						"/>
						<polygon class="cust45" points="158.4,99.3 158.4,99.3 159.9,99.9 159.7,99.8 159.7,99.8 						"/>
						<polygon class="cust45" points="153.3,97.3 153.4,97.3 153.4,97.3 153.4,97.3 153.4,97.3 153.3,97.4 153.3,97.4 						"/>
						<rect x="160" y="99.9" class="cust45" width="0" height="0"/>
						<polygon class="cust45" points="153.3,97.4 152.6,99 153.3,97.4 						"/>
						<polygon class="cust46" points="156,101.9 159.2,101.6 158.7,102.9 158.7,102.9 160,99.9 158.4,99.3 152.3,99.8 152,100.3 
							152.3,100.4 						"/>
						
							<rect x="158.7" y="102.9" transform="matrix(0.4472 -0.8944 0.8944 0.4472 -4.3136 198.7749)" class="cust45" width="0" height="0"/>
						<polygon class="cust45" points="152.3,100.4 152.8,100.6 156,101.9 156,101.9 						"/>
						
							<rect x="153.3" y="97.4" transform="matrix(0.4472 -0.8944 0.8944 0.4472 -2.3313 190.9687)" class="cust45" width="0" height="0"/>
						<polygon class="cust45" points="160,99.9 159.9,99.9 158.4,99.3 158.4,99.3 160,99.9 160,99.9 160,99.9 						"/>
						<polygon class="cust45" points="152.4,100.5 156,101.9 156,101.9 155.9,101.9 156,101.9 152.8,100.6 						"/>
						<polygon class="cust45" points="152.3,100.4 152,100.3 152,100.3 						"/>
						<polygon class="cust45" points="152.3,100.4 152,100.3 152,100.3 152.4,100.5 152.8,100.6 						"/>
						<polygon class="cust47" points="160,99.9 160.1,99.8 159.7,99.8 						"/>
						<polygon class="cust48" points="165.2,96.9 161.3,95.4 157.5,95 158.6,94.3 155.7,96 165.1,96.9 						"/>
						<polygon class="cust48" points="153.4,97.3 155.8,98.3 161.8,98.9 160.8,99.5 165.2,96.9 163.6,97.9 154,97 153.4,97.3 
							153.4,97.3 						"/>
						<polygon class="cust47" points="159.7,99.8 159.9,99.9 160,99.9 160,99.9 159.7,99.8 						"/>
						
							<rect x="153.4" y="97.3" transform="matrix(0.9923 -0.124 0.124 0.9923 -10.8859 19.7774)" class="cust47" width="0" height="0.1"/>
						<polygon class="cust47" points="160,99.9 159.9,99.9 160,99.9 						"/>
						<polygon class="cust49" points="155,134.9 155,134.9 154.8,134.8 						"/>
						<polygon class="cust50" points="152,133.7 154.8,134.8 155,134.9 158.6,133.6 158.6,131.1 152,133.4 						"/>
						<polygon class="cust50" points="152,120.8 158.6,118.6 158.6,116.1 152,118.3 						"/>
						<polygon class="cust50" points="152,103.2 152,105.8 158.6,103.5 158.6,102.9 156,101.9 						"/>
						<polygon class="cust50" points="152,125.9 158.6,123.6 158.6,121.1 152,123.3 						"/>
						<polygon class="cust50" points="152,115.8 158.6,113.6 158.6,111 152,113.3 						"/>
						<polygon class="cust50" points="152,110.8 158.6,108.5 158.6,106 152,108.3 						"/>
						<polygon class="cust50" points="152,130.9 158.6,128.6 158.6,126.1 152,128.4 						"/>
						<polygon class="cust49" points="156,101.9 158.6,102.9 156,101.9 						"/>
						
							<rect x="153.8" y="96.5" transform="matrix(0.8701 -0.4929 0.4929 0.8701 -27.4286 88.8639)" class="cust51" width="2" height="0"/>
						<polygon class="cust51" points="161.3,95.4 158.6,94.3 161.3,95.4 						"/>
						<polygon class="cust51" points="160.1,99.8 160.8,99.5 160.1,99.8 						"/>
						
							<rect x="159" y="98.9" transform="matrix(0.3683 -0.9297 0.9297 0.3683 7.9103 210.7419)" class="cust51" width="0" height="1.4"/>
						<polygon class="cust28" points="165.2,96.9 165.1,96.9 155.7,96 154,97 163.6,97.9 						"/>
						<polygon class="cust28" points="161.3,95.4 158.6,94.3 157.5,95 						"/>
						<polygon class="cust28" points="155.8,98.3 158.4,99.3 158.4,99.3 159.7,99.8 160.1,99.8 160.8,99.5 161.8,98.9 						"/>
						<rect x="159" y="98.9" class="cust51" width="0" height="1.4"/>
						<polygon class="cust51" points="157.1,98.8 158.4,99.3 158.4,99.3 						"/>
						<rect x="157.1" y="97.4" class="cust51" width="0" height="2.8"/>
						<polygon class="cust51" points="155.8,98.3 157.1,98.8 158.4,99.3 158.4,99.3 155.8,98.3 						"/>
					</g>
					<polygon class="cust52" points="156,101.9 156,101.9 155.9,101.9 156,101.9 158.6,102.9 158.7,102.9 158.7,102.9 159.2,101.6 
						156,101.9 					"/>
					<polygon class="cust52" points="158.4,99.3 158.4,99.3 157.1,98.8 155.8,98.3 155.8,98.3 155.8,98.3 153.4,97.3 153.4,97.3 
						153.4,97.3 153.3,97.3 153.3,97.4 153.3,97.4 152.6,99 152.3,99.8 152.3,99.8 158.4,99.3 					"/>
				</g>
			</g>
			<path class="cust53" d="M131.2,102.1c0,0.2-0.1,0.4-0.3,0.5l0,0l0,0c-0.2,0.2-0.5,0.3-0.8,0.5c0,0.3,0,0.7-0.1,1c1.8-0.4,3-1,3-1.8
				l0,0c0-0.5-0.4-0.9-1.2-1.2l0,0l0,0l0,0l-1.3-0.7c-0.1,0.3-0.2,0.6-0.2,0.9C130.8,101.4,131.2,101.7,131.2,102.1z"/>
			<path class="cust53" d="M130.3,108.4c0.8,0.3,1.3,0.6,1.3,1.1c0,0.2-0.1,0.4-0.3,0.5l0,0l0,0c-0.1,0.1-0.3,0.2-0.6,0.3
				c0.1,0.3,0.2,0.7,0.3,1c1.5-0.4,2.4-1,2.4-1.7l0,0c0-0.5-0.4-0.9-1.2-1.2l0,0l0,0l0,0l-2.2-1.2
				C130.2,107.6,130.3,108,130.3,108.4z"/>
			<polygon class="cust28" points="167.1,118.9 166.5,119.4 166.5,113.4 167.1,113.1 			"/>
		</g>
	</g>
</g>
</svg>
