<?xml version="1.0" encoding="utf-8"?>
<!-- Generator: Adobe Illustrator 25.1.0, SVG Export Plug-In . SVG Version: 6.00 Build 0)  -->
<!DOCTYPE svg PUBLIC "-//W3C//DTD SVG 1.1//EN" "http://www.w3.org/Graphics/SVG/1.1/DTD/svg11.dtd" [
	<!ENTITY ns_extend "http://ns.adobe.com/Extensibility/1.0/">
	<!ENTITY ns_ai "http://ns.adobe.com/AdobeIllustrator/10.0/">
	<!ENTITY ns_graphs "http://ns.adobe.com/Graphs/1.0/">
	<!ENTITY ns_vars "http://ns.adobe.com/Variables/1.0/">
	<!ENTITY ns_imrep "http://ns.adobe.com/ImageReplacement/1.0/">
	<!ENTITY ns_sfw "http://ns.adobe.com/SaveForWeb/1.0/">
	<!ENTITY ns_custom "http://ns.adobe.com/GenericCustomNamespace/1.0/">
	<!ENTITY ns_adobe_xpath "http://ns.adobe.com/XPath/1.0/">
]>
<svg version="1.1" id="Calque_1" xmlns:x="&ns_extend;" xmlns:i="&ns_ai;" xmlns:graph="&ns_graphs;"
	 xmlns="http://www.w3.org/2000/svg" xmlns:xlink="http://www.w3.org/1999/xlink" x="0px" y="0px" viewBox="0 0 200 200"
	 style="enable-background:new 0 0 200 200;" xml:space="preserve">
<metadata>
	<sfw  xmlns="&ns_sfw;">
		<slices></slices>
		<sliceSourceBounds  bottomLeftOrigin="true" height="150.2" width="165.1" x="17.6" y="19.6"></sliceSourceBounds>
	</sfw>
</metadata>
<g>
	<g>
		<g>
			<path style="fill-rule:evenodd;clip-rule:evenodd;" d="M100.2,141.2c45.6,0,82.6,8.5,82.6,19s-37,20.2-82.6,20.2
				s-82.6-9.7-82.6-20.2C17.5,149.8,54.5,141.2,100.2,141.2z"/>
			<path style="fill-rule:evenodd;clip-rule:evenodd;fill:#BCB9BA;" d="M100.2,141.6c43.6,0,78.9,8.4,78.9,18.8
				c0,10.4-35.3,18.8-78.9,18.8s-78.9-8.4-78.9-18.8C21.2,149.9,56.6,141.6,100.2,141.6z"/>
			<path style="fill-rule:evenodd;clip-rule:evenodd;fill:#F5F5F5;" d="M100.2,139.4c43.6,0,78.9,8.4,78.9,18.8
				c0,10.4-35.3,18.8-78.9,18.8s-78.9-8.4-78.9-18.8C21.2,147.7,56.6,139.4,100.2,139.4z"/>
			<path style="fill-rule:evenodd;clip-rule:evenodd;fill:#BCB9BA;" d="M100.2,138.2c43.6,0,78.9,8.4,78.9,18.8
				c0,10.4-35.3,18.8-78.9,18.8s-78.9-8.4-78.9-18.8C21.2,146.5,56.6,138.2,100.2,138.2z"/>
			<path style="fill-rule:evenodd;clip-rule:evenodd;fill:#E5E4E4;" d="M100,138.2c22.9,0,43.4,2.3,57.8,6
				c-30.2-1.8-112.6,2.6-132.9,18.5c-2.5-1.8-3.8-3.8-3.8-5.7C21.1,146.5,56.6,138.2,100,138.2z"/>
			<path style="fill-rule:evenodd;clip-rule:evenodd;fill:#F5F5F5;" d="M21.2,156.9c0-10.4,35.3-18.8,78.9-18.8s78.9,8.4,78.9,18.8
				c0,0.4,0,0.6-0.1,1c-2.2-9.8-36.6-17.7-78.8-17.7s-76.6,7.9-78.8,17.7C21.2,157.5,21.2,157.3,21.2,156.9z"/>
		</g>
	</g>
	<g>
		<g>
			
				<linearGradient id="CSTM_ID_1_" gradientUnits="userSpaceOnUse" x1="-9900.9531" y1="7348.7769" x2="-9819.4756" y2="7246.1255" gradientTransform="matrix(-1 0 0 1 -9760.3652 -7143.3135)">
				<stop  offset="0" style="stop-color:#F5F5F5"/>
				<stop  offset="0.21" style="stop-color:#9B9A9B"/>
				<stop  offset="0.46" style="stop-color:#F5F5F5"/>
				<stop  offset="0.74" style="stop-color:#BCB9BA"/>
				<stop  offset="1" style="stop-color:#F5F5F5"/>
			</linearGradient>
			<rect x="47.2" y="147.1" style="fill-rule:evenodd;clip-rule:evenodd;fill:url(#CSTM_ID_1_);" width="105.3" height="14"/>
			<polygon style="fill-rule:evenodd;clip-rule:evenodd;fill:#353535;" points="59.1,127.9 47.2,147.1 152.7,147.1 140.9,127.9 			
				"/>
			<rect x="47.6" y="161.1" style="fill-rule:evenodd;clip-rule:evenodd;fill:#4C4C4C;" width="104.4" height="1.4"/>
			<rect x="47.9" y="80.4" style="fill-rule:evenodd;clip-rule:evenodd;fill:#4C4C4C;" width="104.4" height="1.4"/>
			<g>
				<g>
					<polygon style="fill:var(--vitamui-secondary);" points="60.4,156 60.4,154.2 64.2,154.2 64.2,153.8 60.2,153.8 60.2,156.4 64.2,156.4 64.2,156 
											"/>
					<polygon style="fill:var(--vitamui-secondary-400);" points="60.6,155.6 60.6,154.7 64.2,154.7 64.2,154.2 60.4,154.2 60.4,156 64.2,156 64.2,155.6 
											"/>
					<rect x="60.6" y="154.7" style="fill:var(--vitamui-secondary-300);" width="3.5" height="0.9"/>
				</g>
				<g>
					<polygon style="fill:var(--vitamui-secondary);" points="69.7,154.2 69.7,155.9 65.9,155.9 65.9,156.4 70,156.4 70,153.8 65.9,153.8 65.9,154.2 
											"/>
					<polygon style="fill:var(--vitamui-secondary-400);" points="69.4,154.6 69.4,155.5 65.9,155.5 65.9,155.9 69.7,155.9 69.7,154.2 65.9,154.2 
						65.9,154.6 					"/>
					<rect x="65.9" y="154.6" style="fill:var(--vitamui-secondary-300);" width="3.5" height="0.9"/>
				</g>
			</g>
			<g>
				<g>
					<polygon style="fill:var(--vitamui-secondary);" points="72.6,156 72.6,154.2 76.4,154.2 76.4,153.8 72.5,153.8 72.5,156.4 76.4,156.4 76.4,156 
											"/>
					<polygon style="fill:var(--vitamui-secondary-400);" points="72.9,155.6 72.9,154.7 76.4,154.7 76.4,154.2 72.6,154.2 72.6,156 76.4,156 76.4,155.6 
											"/>
					<rect x="72.9" y="154.7" style="fill:var(--vitamui-secondary-300);" width="3.5" height="0.9"/>
				</g>
				<g>
					<polygon style="fill:var(--vitamui-secondary);" points="81.9,154.2 81.9,155.9 78.1,155.9 78.1,156.4 82,156.4 82,153.8 78.1,153.8 78.1,154.2 
											"/>
					<polygon style="fill:var(--vitamui-secondary-400);" points="81.6,154.6 81.6,155.5 78.1,155.5 78.1,155.9 81.9,155.9 81.9,154.2 78.1,154.2 
						78.1,154.6 					"/>
					<rect x="78.1" y="154.6" style="fill:var(--vitamui-secondary-300);" width="3.5" height="0.9"/>
				</g>
			</g>
			<path style="fill-rule:evenodd;clip-rule:evenodd;" d="M135.4,90.4c0-1.8,0-3.6,0-5.4c-4.6-2.4-7.6-2.4-12.2,0c0,1.8,0,3.7,0,5.5
				c-2.5-0.9-4.6-1-7.1-0.1c0-1.8,0-3.6,0-5.4c-4.6-2.4-7.6-2.4-12.2,0c0,1.8,0,3.7,0,5.5c-2.5-0.9-4.6-1-7.1-0.1c0-1.8,0-3.6,0-5.4
				c-4.6-2.4-7.6-2.4-12.2,0c0,1.8,0,3.7,0,5.5c-2.5-0.9-4.6-1-7.1-0.1c0-1.8,0-3.6,0-5.4c-4.6-2.4-7.6-2.4-12.2,0
				c0,1.8,0,3.7,0,5.5c-3.4-1.2-6.1-0.9-9.8,1c0,16.3,0,32.6,0,48.8c4.6,2.4,7.6,2.4,12.2,0c0-1.8,0-3.7,0-5.5
				c2.5,0.9,4.6,1,7.1,0.1c0,1.8,0,3.6,0,5.4c4.6,2.4,7.6,2.4,12.2,0c0-1.8,0-3.7,0-5.5c2.5,0.9,4.6,1,7.1,0.1c0,1.8,0,3.6,0,5.4
				c4.6,2.4,7.6,2.4,12.2,0c0-1.8,0-3.7,0-5.5c2.5,0.9,4.6,1,7.1,0.1c0,1.8,0,3.6,0,5.4c4.6,2.4,7.6,2.4,12.2,0c0-1.8,0-3.7,0-5.5
				c2.5,0.9,4.6,1,7.1,0.1c0,1.8,0,3.6,0,5.4c4.6,2.4,7.6,2.4,12.2,0c0-16.3,0-32.6,0-48.8C141.3,89.7,138.6,89.3,135.4,90.4z"/>
			<g>
				
					<linearGradient id="CSTM_ID_2_" gradientUnits="userSpaceOnUse" x1="-9896.4424" y1="7400.3442" x2="-9879.1621" y2="7400.3442" gradientTransform="matrix(-1 0 0 1 -9824.0322 -7285.293)">
					<stop  offset="0" style="stop-color:#F5F5F5"/>
					<stop  offset="0.21" style="stop-color:#9B9A9B"/>
					<stop  offset="0.46" style="stop-color:#F5F5F5"/>
					<stop  offset="0.74" style="stop-color:#BCB9BA"/>
					<stop  offset="1" style="stop-color:#F5F5F5"/>
				</linearGradient>
				<path style="fill-rule:evenodd;clip-rule:evenodd;fill:url(#CSTM_ID_2_);" d="M55.5,90.6c4.6-2.4,7.6-2.4,12.2,0
					c0,16.3,0,32.6,0,48.8c-4.6,2.4-7.6,2.4-12.2,0C55.5,123.2,55.5,106.9,55.5,90.6z"/>
			</g>
			<g>
				
					<linearGradient id="CSTM_ID_3_" gradientUnits="userSpaceOnUse" x1="-9915.7568" y1="7400.3442" x2="-9898.4756" y2="7400.3442" gradientTransform="matrix(-1 0 0 1 -9824.0322 -7285.293)">
					<stop  offset="0" style="stop-color:#F5F5F5"/>
					<stop  offset="0.21" style="stop-color:#9B9A9B"/>
					<stop  offset="0.46" style="stop-color:#F5F5F5"/>
					<stop  offset="0.74" style="stop-color:#BCB9BA"/>
					<stop  offset="1" style="stop-color:#F5F5F5"/>
				</linearGradient>
				<path style="fill-rule:evenodd;clip-rule:evenodd;fill:url(#CSTM_ID_3_);" d="M74.8,90.6c4.6-2.4,7.6-2.4,12.2,0
					c0,16.3,0,32.6,0,48.8c-4.6,2.4-7.6,2.4-12.2,0C74.8,123.2,74.8,106.9,74.8,90.6z"/>
			</g>
			<g>
				
					<linearGradient id="CSTM_ID_4_" gradientUnits="userSpaceOnUse" x1="-9935.0703" y1="7400.3442" x2="-9917.79" y2="7400.3442" gradientTransform="matrix(-1 0 0 1 -9824.0322 -7285.293)">
					<stop  offset="0" style="stop-color:#F5F5F5"/>
					<stop  offset="0.21" style="stop-color:#9B9A9B"/>
					<stop  offset="0.46" style="stop-color:#F5F5F5"/>
					<stop  offset="0.74" style="stop-color:#BCB9BA"/>
					<stop  offset="1" style="stop-color:#F5F5F5"/>
				</linearGradient>
				<path style="fill-rule:evenodd;clip-rule:evenodd;fill:url(#CSTM_ID_4_);" d="M94.1,90.6c4.6-2.4,7.6-2.4,12.2,0
					c0,16.3,0,32.6,0,48.8c-4.6,2.4-7.6,2.4-12.2,0C94.1,123.2,94.1,106.9,94.1,90.6z"/>
			</g>
			<g>
				
					<linearGradient id="CSTM_ID_5_" gradientUnits="userSpaceOnUse" x1="-9954.3838" y1="7400.3442" x2="-9937.1035" y2="7400.3442" gradientTransform="matrix(-1 0 0 1 -9824.0322 -7285.293)">
					<stop  offset="0" style="stop-color:#F5F5F5"/>
					<stop  offset="0.21" style="stop-color:#9B9A9B"/>
					<stop  offset="0.46" style="stop-color:#F5F5F5"/>
					<stop  offset="0.74" style="stop-color:#BCB9BA"/>
					<stop  offset="1" style="stop-color:#F5F5F5"/>
				</linearGradient>
				<path style="fill-rule:evenodd;clip-rule:evenodd;fill:url(#CSTM_ID_5_);" d="M113.4,90.6c4.6-2.4,7.6-2.4,12.2,0
					c0,16.3,0,32.6,0,48.8c-4.6,2.4-7.6,2.4-12.2,0C113.4,123.2,113.4,106.9,113.4,90.6z"/>
			</g>
			<g>
				
					<linearGradient id="CSTM_ID_6_" gradientUnits="userSpaceOnUse" x1="-9973.6982" y1="7400.3442" x2="-9956.417" y2="7400.3442" gradientTransform="matrix(-1 0 0 1 -9824.0322 -7285.293)">
					<stop  offset="0" style="stop-color:#F5F5F5"/>
					<stop  offset="0.21" style="stop-color:#9B9A9B"/>
					<stop  offset="0.46" style="stop-color:#F5F5F5"/>
					<stop  offset="0.74" style="stop-color:#BCB9BA"/>
					<stop  offset="1" style="stop-color:#F5F5F5"/>
				</linearGradient>
				<path style="fill-rule:evenodd;clip-rule:evenodd;fill:url(#CSTM_ID_6_);" d="M132.7,90.6c4.6-2.4,7.6-2.4,12.2,0
					c0,16.3,0,32.6,0,48.8c-4.6,2.4-7.6,2.4-12.2,0C132.7,123.2,132.7,106.9,132.7,90.6z"/>
			</g>
			<path style="fill:#9B9A9B;" d="M132.7,89.6c0,2,0,3.9,0,5.8h12.2c0-2,0-3.9,0-5.8C140.3,87.2,137.4,87.2,132.7,89.6z"/>
			<path style="fill:#9B9A9B;" d="M113.4,89.6c0,2,0,3.9,0,5.8h12.2c0-2,0-3.9,0-5.8C121,87.2,118,87.2,113.4,89.6z"/>
			<path style="fill:#9B9A9B;" d="M94.1,89.6c0,2,0,3.9,0,5.8h12.2c0-2,0-3.9,0-5.8C101.7,87.2,98.7,87.2,94.1,89.6z"/>
			<path style="fill:#9B9A9B;" d="M74.8,89.6c0,2,0,3.9,0,5.8H87c0-2,0-3.9,0-5.8C82.4,87.2,79.4,87.2,74.8,89.6z"/>
			<path style="fill:#9B9A9B;" d="M56.1,89.6c0,2,0,3.9,0,5.8h12.2c0-2,0-3.9,0-5.8C63.7,87.2,60.7,87.2,56.1,89.6z"/>
			
				<linearGradient id="CSTM_ID_7_" gradientUnits="userSpaceOnUse" x1="-9899.2021" y1="7279.1484" x2="-9821.3125" y2="7181.0161" gradientTransform="matrix(-1 0 0 1 -9760.3652 -7143.3135)">
				<stop  offset="0" style="stop-color:#F5F5F5"/>
				<stop  offset="0.21" style="stop-color:#9B9A9B"/>
				<stop  offset="0.46" style="stop-color:#F5F5F5"/>
				<stop  offset="0.74" style="stop-color:#BCB9BA"/>
				<stop  offset="1" style="stop-color:#F5F5F5"/>
			</linearGradient>
			<rect x="47.2" y="81.8" style="fill-rule:evenodd;clip-rule:evenodd;fill:url(#CSTM_ID_7_);" width="105.3" height="9.7"/>
			<polygon style="fill-rule:evenodd;clip-rule:evenodd;" points="59.6,66.1 47.9,80.4 152.3,80.4 140.7,66.1 			"/>
			
				<linearGradient id="CSTM_ID_8_" gradientUnits="userSpaceOnUse" x1="42.916" y1="142.1069" x2="157.4097" y2="142.1069" gradientTransform="matrix(1 0 0 -1 0 199.3857)">
				<stop  offset="0" style="stop-color:#F5F5F5"/>
				<stop  offset="0.21" style="stop-color:#9B9A9B"/>
				<stop  offset="0.46" style="stop-color:#F5F5F5"/>
				<stop  offset="0.74" style="stop-color:#BCB9BA"/>
				<stop  offset="1" style="stop-color:#F5F5F5"/>
			</linearGradient>
			<polygon style="fill-rule:evenodd;clip-rule:evenodd;fill:url(#CSTM_ID_8_);" points="100.2,35.2 42.9,72.8 42.9,79.3 157.4,79.3 
				157.3,72.8 			"/>
			<polygon style="fill-rule:evenodd;clip-rule:evenodd;fill:#4C4C4C;" points="100.2,39 48.8,72.6 151.4,72.6 			"/>
			
				<linearGradient id="CSTM_ID_9_" gradientUnits="userSpaceOnUse" x1="64.1002" y1="166.7415" x2="122.4689" y2="101.8873" gradientTransform="matrix(1 0 0 -1 0 199.3857)">
				<stop  offset="0" style="stop-color:#F5F5F5"/>
				<stop  offset="0.21" style="stop-color:#9B9A9B"/>
				<stop  offset="0.46" style="stop-color:#F5F5F5"/>
				<stop  offset="0.74" style="stop-color:#BCB9BA"/>
				<stop  offset="1" style="stop-color:#F5F5F5"/>
			</linearGradient>
			<polygon style="fill-rule:evenodd;clip-rule:evenodd;fill:url(#CSTM_ID_9_);" points="100.2,43.1 54.6,72.6 145.6,72.6 			"/>
			
				<linearGradient id="CSTM_ID_10_" gradientUnits="userSpaceOnUse" x1="64.6055" y1="160.3683" x2="277.6112" y2="118.893" gradientTransform="matrix(1 0 0 -1 0 199.3857)">
				<stop  offset="0" style="stop-color:#F5F5F5"/>
				<stop  offset="0.21" style="stop-color:#9B9A9B"/>
				<stop  offset="0.46" style="stop-color:#F5F5F5"/>
				<stop  offset="0.74" style="stop-color:#BCB9BA"/>
				<stop  offset="1" style="stop-color:#F5F5F5"/>
			</linearGradient>
			<polygon style="fill-rule:evenodd;clip-rule:evenodd;fill:url(#CSTM_ID_10_);" points="157.3,72.8 145.3,61.3 100.2,30.2 
				100.2,35.2 			"/>
			
				<linearGradient id="CSTM_ID_11_" gradientUnits="userSpaceOnUse" x1="41.8307" y1="170.9466" x2="117.5611" y2="112.1581" gradientTransform="matrix(1 0 0 -1 0 199.3857)">
				<stop  offset="0" style="stop-color:#F5F5F5"/>
				<stop  offset="0.21" style="stop-color:#9B9A9B"/>
				<stop  offset="0.46" style="stop-color:#F5F5F5"/>
				<stop  offset="0.74" style="stop-color:#BCB9BA"/>
				<stop  offset="1" style="stop-color:#F5F5F5"/>
			</linearGradient>
			<polygon style="fill-rule:evenodd;clip-rule:evenodd;fill:url(#CSTM_ID_11_);" points="42.9,72.8 55,61.3 100.2,30.2 100.2,35.2 
							"/>
			<g>
				<g>
					<path style="fill-rule:evenodd;clip-rule:evenodd;fill:#9B9A9B;" d="M52.6,153.1c1.2,0,2.1,0.9,2.1,2.1c0,1.2-0.9,2.1-2.1,2.1
						c-1.2,0-2.1-0.9-2.1-2.1C50.5,154,51.4,153.1,52.6,153.1z"/>
					<path style="fill-rule:evenodd;clip-rule:evenodd;" d="M52.6,153c1.2,0,2.1,0.9,2.1,2.1s-0.9,2.1-2.1,2.1
						c-1.2,0-2.1-0.9-2.1-2.1S51.4,153,52.6,153z"/>
					<path style="fill-rule:evenodd;clip-rule:evenodd;fill:#9B9A9B;" d="M52.6,153.4c0.9,0,1.7,0.8,1.7,1.7s-0.8,1.7-1.7,1.7
						s-1.7-0.8-1.7-1.7S51.5,153.4,52.6,153.4z"/>
					<path style="fill-rule:evenodd;clip-rule:evenodd;fill:#353535;" d="M52.6,153.5c0.9,0,1.6,0.7,1.6,1.6s-0.7,1.2-1.6,1.2
						s-1.6-0.4-1.6-1.2C51,154.2,51.7,153.5,52.6,153.5z"/>
					
						<linearGradient id="CSTM_ID_12_" gradientUnits="userSpaceOnUse" x1="52.5866" y1="45.8916" x2="52.5866" y2="43.3825" gradientTransform="matrix(1 0 0 -1 0 199.3857)">
						<stop  offset="0" style="stop-color:#FFFFFF"/>
						<stop  offset="1" style="stop-color:#9B9A9B"/>
					</linearGradient>
					<path style="fill-rule:evenodd;clip-rule:evenodd;fill:url(#CSTM_ID_12_);" d="M52.6,153.5c0.8,0,1.4,0.7,1.4,1.4
						s-0.7,1.1-1.4,1.1s-1.4-0.3-1.4-1.1S51.8,153.5,52.6,153.5z"/>
					<path style="fill-rule:evenodd;clip-rule:evenodd;fill:#E5E4E4;" d="M53.2,156.3l-0.7-0.7l-0.7,0.7c-0.1,0.1-0.3,0.1-0.3,0
						l-0.1-0.1c-0.1-0.1-0.1-0.3,0-0.3l0.7-0.7l-0.7-0.7c-0.1-0.1-0.1-0.3,0-0.3l0.1-0.1c0.1-0.1,0.3-0.1,0.3,0l0.7,0.7l0.7-0.7
						c0.1-0.1,0.3-0.1,0.3,0l0.1,0.1c0.1,0.1,0.1,0.3,0,0.3l-0.7,0.7l0.7,0.7c0.1,0.1,0.1,0.3,0,0.3l-0.1,0.1
						C53.4,156.4,53.2,156.4,53.2,156.3z"/>
					<path style="fill-rule:evenodd;clip-rule:evenodd;" d="M53.2,156.1l-0.7-0.7l-0.7,0.7c-0.1,0.1-0.3,0.1-0.3,0l-0.1-0.1
						c-0.1-0.1-0.1-0.3,0-0.3l0.7-0.7l-0.7-0.7c-0.1-0.1-0.1-0.3,0-0.3l0.1-0.1c0.1-0.1,0.3-0.1,0.3,0l0.7,0.7l0.7-0.7
						c0.1-0.1,0.3-0.1,0.3,0l0.1,0.1c0.1,0.1,0.1,0.3,0,0.3l-0.7,0.7l0.7,0.7c0.1,0.1,0.1,0.3,0,0.3l-0.1,0.1
						C53.4,156.3,53.2,156.3,53.2,156.1z"/>
				</g>
				<g>
					<path style="fill-rule:evenodd;clip-rule:evenodd;fill:#9B9A9B;" d="M147.1,153.1c1.2,0,2.1,0.9,2.1,2.1c0,1.2-0.9,2.1-2.1,2.1
						s-2.1-0.9-2.1-2.1C145,154,145.9,153.1,147.1,153.1z"/>
					<path style="fill-rule:evenodd;clip-rule:evenodd;" d="M147.1,153c1.2,0,2.1,0.9,2.1,2.1s-0.9,2.1-2.1,2.1s-2.1-0.9-2.1-2.1
						S145.9,153,147.1,153z"/>
					<path style="fill-rule:evenodd;clip-rule:evenodd;fill:#9B9A9B;" d="M147.1,153.4c0.9,0,1.7,0.8,1.7,1.7s-0.8,1.7-1.7,1.7
						c-0.9,0-1.7-0.8-1.7-1.7S146,153.4,147.1,153.4z"/>
					<path style="fill-rule:evenodd;clip-rule:evenodd;fill:#353535;" d="M147.1,153.5c0.9,0,1.6,0.7,1.6,1.6s-0.7,1.2-1.6,1.2
						c-0.9,0-1.6-0.4-1.6-1.2C145.5,154.2,146.2,153.5,147.1,153.5z"/>
					
						<linearGradient id="CSTM_ID_13_" gradientUnits="userSpaceOnUse" x1="147.0726" y1="45.8916" x2="147.0726" y2="43.3825" gradientTransform="matrix(1 0 0 -1 0 199.3857)">
						<stop  offset="0" style="stop-color:#FFFFFF"/>
						<stop  offset="1" style="stop-color:#9B9A9B"/>
					</linearGradient>
					<path style="fill-rule:evenodd;clip-rule:evenodd;fill:url(#CSTM_ID_13_);" d="M147.1,153.5c0.8,0,1.4,0.7,1.4,1.4
						s-0.7,1.1-1.4,1.1s-1.4-0.3-1.4-1.1S146.3,153.5,147.1,153.5z"/>
					<path style="fill-rule:evenodd;clip-rule:evenodd;fill:#E5E4E4;" d="M147.7,156.3l-0.7-0.7l-0.7,0.7c-0.1,0.1-0.3,0.1-0.3,0
						l-0.1-0.1c-0.1-0.1-0.1-0.3,0-0.3l0.7-0.7l-0.7-0.7c-0.1-0.1-0.1-0.3,0-0.3l0.1-0.1c0.1-0.1,0.3-0.1,0.3,0l0.7,0.7l0.7-0.7
						c0.1-0.1,0.3-0.1,0.3,0l0.1,0.1c0.1,0.1,0.1,0.3,0,0.3l-0.7,0.7l0.7,0.7c0.1,0.1,0.1,0.3,0,0.3l-0.1,0.1
						C147.9,156.4,147.7,156.4,147.7,156.3z"/>
					<path style="fill-rule:evenodd;clip-rule:evenodd;" d="M147.7,156.1l-0.7-0.7l-0.7,0.7c-0.1,0.1-0.3,0.1-0.3,0L146,156
						c-0.1-0.1-0.1-0.3,0-0.3l0.7-0.7l-0.7-0.7c-0.1-0.1-0.1-0.3,0-0.3l0.1-0.1c0.1-0.1,0.3-0.1,0.3,0l0.7,0.7l0.7-0.7
						c0.1-0.1,0.3-0.1,0.3,0l0.1,0.1c0.1,0.1,0.1,0.3,0,0.3l-0.7,0.7l0.7,0.7c0.1,0.1,0.1,0.3,0,0.3l-0.1,0.1
						C147.9,156.3,147.7,156.3,147.7,156.1z"/>
				</g>
			</g>
			<g>
				<g>
					<path style="fill-rule:evenodd;clip-rule:evenodd;fill:#9B9A9B;" d="M52.6,84.8c1.2,0,2.1,0.9,2.1,2.1c0,1.2-0.9,2.1-2.1,2.1
						c-1.2,0-2.1-0.9-2.1-2.1C50.5,85.7,51.4,84.8,52.6,84.8z"/>
					<path style="fill-rule:evenodd;clip-rule:evenodd;" d="M52.6,84.7c1.2,0,2.1,0.9,2.1,2.1c0,1.2-0.9,2.1-2.1,2.1
						c-1.2,0-2.1-0.9-2.1-2.1C50.5,85.6,51.4,84.7,52.6,84.7z"/>
					<path style="fill-rule:evenodd;clip-rule:evenodd;fill:#9B9A9B;" d="M52.6,85c0.9,0,1.7,0.8,1.7,1.7s-0.8,1.7-1.7,1.7
						s-1.7-0.8-1.7-1.7S51.5,85,52.6,85z"/>
					<path style="fill-rule:evenodd;clip-rule:evenodd;fill:#353535;" d="M52.6,85.2c0.9,0,1.6,0.7,1.6,1.6s-0.7,1.2-1.6,1.2
						S51,87.5,51,86.8C51,85.8,51.7,85.2,52.6,85.2z"/>
					
						<linearGradient id="CSTM_ID_14_" gradientUnits="userSpaceOnUse" x1="52.5866" y1="114.2334" x2="52.5866" y2="111.7242" gradientTransform="matrix(1 0 0 -1 0 199.3857)">
						<stop  offset="0" style="stop-color:#FFFFFF"/>
						<stop  offset="1" style="stop-color:#9B9A9B"/>
					</linearGradient>
					<path style="fill-rule:evenodd;clip-rule:evenodd;fill:url(#CSTM_ID_14_);" d="M52.6,85.2c0.8,0,1.4,0.7,1.4,1.4
						c0,0.8-0.7,1.1-1.4,1.1s-1.4-0.3-1.4-1.1C51.1,85.8,51.8,85.2,52.6,85.2z"/>
					<path style="fill-rule:evenodd;clip-rule:evenodd;fill:#E5E4E4;" d="M53.2,87.9l-0.7-0.7l-0.7,0.7c-0.1,0.1-0.3,0.1-0.3,0
						l-0.1-0.1c-0.1-0.1-0.1-0.3,0-0.3l0.7-0.7l-0.7-0.7c-0.1-0.1-0.1-0.3,0-0.3l0.1-0.1c0.1-0.1,0.3-0.1,0.3,0l0.7,0.7l0.7-0.7
						c0.1-0.1,0.3-0.1,0.3,0l0.1,0.1c0.1,0.1,0.1,0.3,0,0.3L53,86.9l0.7,0.7c0.1,0.1,0.1,0.3,0,0.3l-0.1,0.1
						C53.4,88.1,53.2,88.1,53.2,87.9z"/>
					<path style="fill-rule:evenodd;clip-rule:evenodd;" d="M53.2,87.8l-0.7-0.7l-0.7,0.7c-0.1,0.1-0.3,0.1-0.3,0l-0.1-0.1
						c-0.1-0.1-0.1-0.3,0-0.3l0.7-0.7l-0.7-0.7c-0.1-0.1-0.1-0.3,0-0.3l0.1-0.1c0.1-0.1,0.3-0.1,0.3,0l0.7,0.7l0.7-0.7
						c0.1-0.1,0.3-0.1,0.3,0l0.1,0.1c0.1,0.1,0.1,0.3,0,0.3L53,86.8l0.7,0.7c0.1,0.1,0.1,0.3,0,0.3l-0.1,0.1
						C53.4,87.9,53.2,87.9,53.2,87.8z"/>
				</g>
				<g>
					<path style="fill-rule:evenodd;clip-rule:evenodd;fill:#9B9A9B;" d="M147.1,84.8c1.2,0,2.1,0.9,2.1,2.1c0,1.2-0.9,2.1-2.1,2.1
						s-2.1-0.9-2.1-2.1C145,85.7,145.9,84.8,147.1,84.8z"/>
					<path style="fill-rule:evenodd;clip-rule:evenodd;" d="M147.1,84.7c1.2,0,2.1,0.9,2.1,2.1c0,1.2-0.9,2.1-2.1,2.1
						s-2.1-0.9-2.1-2.1C145,85.6,145.9,84.7,147.1,84.7z"/>
					<path style="fill-rule:evenodd;clip-rule:evenodd;fill:#9B9A9B;" d="M147.1,85c0.9,0,1.7,0.8,1.7,1.7s-0.8,1.7-1.7,1.7
						c-0.9,0-1.7-0.8-1.7-1.7S146,85,147.1,85z"/>
					<path style="fill-rule:evenodd;clip-rule:evenodd;fill:#353535;" d="M147.1,85.2c0.9,0,1.6,0.7,1.6,1.6s-0.7,1.2-1.6,1.2
						c-0.9,0-1.6-0.4-1.6-1.2C145.5,85.8,146.2,85.2,147.1,85.2z"/>
					
						<linearGradient id="CSTM_ID_15_" gradientUnits="userSpaceOnUse" x1="147.0726" y1="114.2334" x2="147.0726" y2="111.7242" gradientTransform="matrix(1 0 0 -1 0 199.3857)">
						<stop  offset="0" style="stop-color:#FFFFFF"/>
						<stop  offset="1" style="stop-color:#9B9A9B"/>
					</linearGradient>
					<path style="fill-rule:evenodd;clip-rule:evenodd;fill:url(#CSTM_ID_15_);" d="M147.1,85.2c0.8,0,1.4,0.7,1.4,1.4
						c0,0.8-0.7,1.1-1.4,1.1s-1.4-0.3-1.4-1.1C145.6,85.8,146.3,85.2,147.1,85.2z"/>
					<path style="fill-rule:evenodd;clip-rule:evenodd;fill:#E5E4E4;" d="M147.7,87.9l-0.7-0.7l-0.7,0.7c-0.1,0.1-0.3,0.1-0.3,0
						l-0.1-0.1c-0.1-0.1-0.1-0.3,0-0.3l0.7-0.7l-0.7-0.7c-0.1-0.1-0.1-0.3,0-0.3l0.1-0.1c0.1-0.1,0.3-0.1,0.3,0l0.7,0.7l0.7-0.7
						c0.1-0.1,0.3-0.1,0.3,0l0.1,0.1c0.1,0.1,0.1,0.3,0,0.3l-0.7,0.7l0.7,0.7c0.1,0.1,0.1,0.3,0,0.3l-0.1,0.1
						C147.9,88.1,147.7,88.1,147.7,87.9z"/>
					<path style="fill-rule:evenodd;clip-rule:evenodd;" d="M147.7,87.8l-0.7-0.7l-0.7,0.7c-0.1,0.1-0.3,0.1-0.3,0l-0.1-0.1
						c-0.1-0.1-0.1-0.3,0-0.3l0.7-0.7l-0.7-0.7c-0.1-0.1-0.1-0.3,0-0.3l0.1-0.1c0.1-0.1,0.3-0.1,0.3,0l0.7,0.7l0.7-0.7
						c0.1-0.1,0.3-0.1,0.3,0l0.1,0.1c0.1,0.1,0.1,0.3,0,0.3l-0.7,0.7l0.7,0.7c0.1,0.1,0.1,0.3,0,0.3l-0.1,0.1
						C147.9,87.9,147.7,87.9,147.7,87.8z"/>
				</g>
				<g>
					<path style="fill-rule:evenodd;clip-rule:evenodd;fill:#9B9A9B;" d="M100.1,48.9c1.2,0,2.1,0.9,2.1,2.1s-0.9,2.1-2.1,2.1
						S98,52.2,98,51S98.9,48.9,100.1,48.9z"/>
					<path style="fill-rule:evenodd;clip-rule:evenodd;" d="M100.1,48.8c1.2,0,2.1,0.9,2.1,2.1s-0.9,2.1-2.1,2.1S98,52.1,98,50.9
						S98.9,48.8,100.1,48.8z"/>
					<path style="fill-rule:evenodd;clip-rule:evenodd;fill:#9B9A9B;" d="M100.1,49.2c0.9,0,1.7,0.8,1.7,1.7s-0.8,1.7-1.7,1.7
						c-0.9,0-1.7-0.8-1.7-1.7S99,49.2,100.1,49.2z"/>
					<path style="fill-rule:evenodd;clip-rule:evenodd;fill:#353535;" d="M100.1,49.3c0.9,0,1.6,0.7,1.6,1.6s-0.7,1.2-1.6,1.2
						c-0.9,0-1.6-0.4-1.6-1.2C98.5,50,99.2,49.3,100.1,49.3z"/>
					
						<linearGradient id="CSTM_ID_16_" gradientUnits="userSpaceOnUse" x1="100.0972" y1="150.0783" x2="100.0972" y2="147.5692" gradientTransform="matrix(1 0 0 -1 0 199.3857)">
						<stop  offset="0" style="stop-color:#FFFFFF"/>
						<stop  offset="1" style="stop-color:#9B9A9B"/>
					</linearGradient>
					<path style="fill-rule:evenodd;clip-rule:evenodd;fill:url(#CSTM_ID_16_);" d="M100.1,49.3c0.8,0,1.4,0.7,1.4,1.4
						c0,0.8-0.7,1.1-1.4,1.1s-1.4-0.3-1.4-1.1C98.7,50,99.3,49.3,100.1,49.3z"/>
					<path style="fill-rule:evenodd;clip-rule:evenodd;fill:#E5E4E4;" d="M100.8,52.1l-0.7-0.7l-0.7,0.7c-0.1,0.1-0.3,0.1-0.3,0
						L99,52c-0.1-0.1-0.1-0.3,0-0.3l0.7-0.7L99,50.4c-0.1-0.1-0.1-0.3,0-0.3l0.1-0.1c0.1-0.1,0.3-0.1,0.3,0l0.7,0.7l0.7-0.7
						c0.1-0.1,0.3-0.1,0.3,0l0.1,0.1c0.1,0.1,0.1,0.3,0,0.3l-0.7,0.7l0.7,0.7c0.1,0.1,0.1,0.3,0,0.3l-0.1,0.1
						C100.9,52.2,100.8,52.2,100.8,52.1z"/>
					<path style="fill-rule:evenodd;clip-rule:evenodd;" d="M100.8,52l-0.7-0.7L99.4,52c-0.1,0.1-0.3,0.1-0.3,0L99,51.8
						c-0.1-0.1-0.1-0.3,0-0.3l0.7-0.7L99,50.3c-0.1-0.1-0.1-0.3,0-0.3l0.1-0.1c0.1-0.1,0.3-0.1,0.3,0l0.7,0.7l0.7-0.7
						c0.1-0.1,0.3-0.1,0.3,0l0.1,0.1c0.1,0.1,0.1,0.3,0,0.3l-0.7,0.7l0.7,0.7c0.1,0.1,0.1,0.3,0,0.3L101,52
						C100.9,52.1,100.8,52.1,100.8,52z"/>
				</g>
			</g>
			<rect x="48.8" y="72.5" style="fill:#9B9A9B;" width="102.5" height="0.3"/>
			<linearGradient id="CSTM_ID_17_" gradientUnits="userSpaceOnUse" x1="99.8296" y1="169.1567" x2="99.8296" y2="163.8302">
				<stop  offset="0" style="stop-color:#BCB9BA"/>
				<stop  offset="1" style="stop-color:#4C4C4C"/>
			</linearGradient>
			<rect x="47.6" y="163.1" style="fill-rule:evenodd;clip-rule:evenodd;fill:url(#CSTM_ID_17_);" width="104.4" height="6.3"/>
		</g>
		<path style="fill:#4C4C4C;" d="M113.4,107.2v-1.1l1.1,0.7l11.1,1.7v12.4l-4.6-3.6C121,117.3,115.2,113.5,113.4,107.2"/>
		<path style="fill:#4C4C4C;" d="M132.6,126.8c0,0,4.3,3.9,12.2,4.4c0-8.7,0-6.5,0-6.5l-12.1-4.6L132.6,126.8z"/>
		<path style="fill:#4C4C4C;" d="M149.1,96.6l-12.1-4c-2.8-1-6,0.1-8.3,2.7c-0.1,0.1-0.1,0.1-0.2,0.2c-0.1,0.1-0.2,0.2-0.2,0.3
			c0,0,0,0-0.1,0.1c0,0,0,0,0,0c-0.7,1-1.3,2.2-1.7,3.5c-0.3,1.1-0.6,2.2-0.6,3.5c0,0.1,0,0.3,0,0.4c0,0.2,0,0.5,0,0.7
			c0,0.4,0,0.8,0,1.3c0.7,0.2,1.5,0.3,2.4,0.3c0.7,0,1.3-0.1,1.9-0.2c0.4-0.1,0.8-0.2,1.1-0.3c0-0.3,0.1-0.6,0.1-0.9
			c0-0.4,0.1-0.7,0.2-1c0.1-0.3,0.1-0.6,0.2-0.9c0.3-1,0.7-1.9,1.2-2.5c0.6-0.7,1.2-1.2,2-1.4c0.5-0.1,1.1-0.1,1.7,0.2
			c4.4,1,10,5.1,10.3,8.3l4.9-1.2l0-1.9l0.1-3.6l0.1-2.6L149.1,96.6z"/>
		<g>
			<linearGradient id="CSTM_ID_18_" gradientUnits="userSpaceOnUse" x1="127.1544" y1="93.9125" x2="150.831" y2="93.9125">
				<stop  offset="0" style="stop-color:#F5F5F5"/>
				<stop  offset="0.21" style="stop-color:#9B9A9B"/>
				<stop  offset="0.46" style="stop-color:#F5F5F5"/>
				<stop  offset="0.74" style="stop-color:#BCB9BA"/>
				<stop  offset="1" style="stop-color:#F5F5F5"/>
			</linearGradient>
			<path style="fill:url(#CSTM_ID_18_);" d="M147.9,94.4l-12.1-4c-3-1-6.4,0.2-8.7,3.2c0.5-0.6,9-2.6,23.6,4.3l0.1-2.6L147.9,94.4z"/>
			<linearGradient id="CSTM_ID_19_" gradientUnits="userSpaceOnUse" x1="146.7603" y1="137.7191" x2="111.9017" y2="75.081">
				<stop  offset="0" style="stop-color:#F5F5F5"/>
				<stop  offset="0.21" style="stop-color:#9B9A9B"/>
				<stop  offset="0.46" style="stop-color:#F5F5F5"/>
				<stop  offset="0.74" style="stop-color:#BCB9BA"/>
				<stop  offset="1" style="stop-color:#F5F5F5"/>
			</linearGradient>
			<path style="fill:url(#CSTM_ID_19_);" d="M127.6,115c1.6,3.3,3.9,5.9,6.4,7.2l8,2.8l3.6,1.3l0-2.2C131.3,120.3,128,115.6,127.6,115
				z"/>
			<path style="fill:#9B9A9B;" d="M136.8,95.3c-1.4-0.5-2.5-0.4-3.3,0c-1.4,0.6-1.8,2-1.8,2l0.1,0.1c0.6-0.7,1.2-1.2,2-1.4
				c0.5-0.1,1.1-0.1,1.7,0.2c4.4,1,10,5.1,10.3,8.3l4.9-1.2l0-1.9C148.1,100,139.4,96.2,136.8,95.3z"/>
			<path style="fill:#9B9A9B;" d="M136,117.7c-0.9-0.4-1.7-1-2.4-2c-0.7-0.9-1.3-1.9-1.8-3.1h0c0,0-0.2,1.6,0.9,3.5
				c0.2,0.3,0.3,0.5,0.4,0.6c0,0,0,0.1,0,0.1c1.1,1.5,2.9,3,6.3,4.1c2.7,0.9,4.8,1.4,6.4,1.6l0-1.1L136,117.7z"/>
			<linearGradient id="CSTM_ID_20_" gradientUnits="userSpaceOnUse" x1="107.4669" y1="105.7054" x2="172.7126" y2="121.7726">
				<stop  offset="0" style="stop-color:#F5F5F5"/>
				<stop  offset="0.21" style="stop-color:#9B9A9B"/>
				<stop  offset="0.46" style="stop-color:#F5F5F5"/>
				<stop  offset="0.74" style="stop-color:#BCB9BA"/>
				<stop  offset="1" style="stop-color:#F5F5F5"/>
			</linearGradient>
			<path style="fill:url(#CSTM_ID_20_);" d="M133.5,109.3c0,0.7-1,1.3-2.4,1.7c-0.3,0.1-0.5,0.1-0.8,0.2c-0.8,0.1-1.7,0.2-2.7,0.2
				c-0.5,0-1,0-1.4-0.1c-1.6-0.1-2.9-0.5-3.7-1l0,0l-7.9-5v1.6l7.9,5l0,0c0.9,0.5,2.5,0.9,4.3,1c0.3,0,0.6,0,0.9,0
				c1.2,0,2.3-0.1,3.3-0.3c0.3-0.1,0.6-0.1,0.8-0.2c1.2-0.4,1.9-0.9,1.9-1.5c0,0,0-0.1,0-0.1L133.5,109.3z"/>
			<linearGradient id="CSTM_ID_21_" gradientUnits="userSpaceOnUse" x1="183.5516" y1="132.2357" x2="-11.6495" y2="51.8148">
				<stop  offset="0" style="stop-color:#F5F5F5"/>
				<stop  offset="0.21" style="stop-color:#9B9A9B"/>
				<stop  offset="0.46" style="stop-color:#F5F5F5"/>
				<stop  offset="0.74" style="stop-color:#BCB9BA"/>
				<stop  offset="1" style="stop-color:#F5F5F5"/>
			</linearGradient>
			<path style="fill:url(#CSTM_ID_21_);" d="M132.4,108.1L132.4,108.1l-2.2-1.2c0,0.4,0.1,0.8,0.2,1.2c0.8,0.3,1.3,0.6,1.3,1.1
				c0,0.2-0.1,0.4-0.3,0.5c-0.1,0.1-0.3,0.2-0.6,0.3c-0.2,0.1-0.5,0.2-0.8,0.3c-0.7,0.2-1.5,0.3-2.4,0.3c-0.6,0-1.2,0-1.7-0.1
				c-1-0.2-1.7-0.4-2.1-0.8c-0.2-0.2-0.3-0.4-0.3-0.5c0-0.5,0.7-0.9,1.8-1.2c-0.2-0.8-0.3-1.6-0.4-2.4c-1.2-0.2-2.2-0.5-2.9-0.9
				l-7.5,0.7l7.9,5l0,0c0.8,0.5,2.1,0.9,3.7,1c0.5,0,0.9,0.1,1.4,0.1c1,0,1.9-0.1,2.7-0.2c0.3-0.1,0.6-0.1,0.8-0.2
				c1.5-0.4,2.4-1,2.4-1.7C133.5,108.9,133.1,108.5,132.4,108.1z"/>
			<path style="fill:#4C4C4C;" d="M130.4,108.1c0.1,0.4,0.2,0.8,0.3,1.2c0.3,0.1,0.6,0.3,0.8,0.4c0.2-0.2,0.3-0.4,0.3-0.5
				C131.7,108.7,131.2,108.3,130.4,108.1z"/>
			<path style="fill:#4C4C4C;" d="M123.4,109.1c0,0.2,0.1,0.4,0.3,0.5c0.3-0.3,1-0.5,1.7-0.7c-0.1-0.3-0.2-0.7-0.2-1
				C124.1,108.2,123.4,108.6,123.4,109.1z"/>
			<linearGradient id="CSTM_ID_22_" gradientUnits="userSpaceOnUse" x1="128.4899" y1="101.8805" x2="131.321" y2="112.7331">
				<stop  offset="0" style="stop-color:#F5F5F5"/>
				<stop  offset="0.21" style="stop-color:#9B9A9B"/>
				<stop  offset="0.46" style="stop-color:#F5F5F5"/>
				<stop  offset="0.74" style="stop-color:#BCB9BA"/>
				<stop  offset="1" style="stop-color:#F5F5F5"/>
			</linearGradient>
			<path style="fill:url(#CSTM_ID_22_);" d="M130.6,109.2c-0.1-0.4-0.2-0.8-0.3-1.2c-0.1-0.4-0.1-0.8-0.2-1.2c-0.1-0.5-0.1-1-0.1-1.6
				c-0.3,0.1-0.7,0.1-1,0.2c0,0.3,0,0.5,0.1,0.8c0.1,0.5,0.2,1,0.3,1.5c0.1,0.4,0.2,0.8,0.2,1.1c0.1,0.5,0.2,0.9,0.4,1.3
				c0.3-0.1,0.6-0.2,0.8-0.3C130.8,109.8,130.7,109.5,130.6,109.2z"/>
			<linearGradient id="CSTM_ID_23_" gradientUnits="userSpaceOnUse" x1="107.7599" y1="98.5079" x2="177.1079" y2="115.6984">
				<stop  offset="0" style="stop-color:#F5F5F5"/>
				<stop  offset="0.21" style="stop-color:#9B9A9B"/>
				<stop  offset="0.46" style="stop-color:#F5F5F5"/>
				<stop  offset="0.74" style="stop-color:#BCB9BA"/>
				<stop  offset="1" style="stop-color:#F5F5F5"/>
			</linearGradient>
			<path style="fill:url(#CSTM_ID_23_);" d="M133.1,102c0,0.8-1.2,1.4-3,1.8c-0.3,0.1-0.7,0.1-1.1,0.2c-0.6,0.1-1.2,0.1-1.9,0.1
				c-0.8,0-1.7-0.1-2.4-0.2c-1.2-0.2-2.2-0.5-2.8-0.9l0,0l-7.9-5v1.6l7.9,5l0,0c0,0,0,0,0.1,0c0.7,0.4,1.7,0.7,2.9,0.9
				c0.7,0.1,1.4,0.2,2.2,0.2c0.3,0,0.6,0,0.8,0c0,0,0,0,0,0c0.4,0,0.8-0.1,1.2-0.1c0.4,0,0.7-0.1,1-0.2c1.8-0.4,3-1,3-1.8
				c0,0,0-0.1,0-0.1L133.1,102z"/>
			<linearGradient id="CSTM_ID_24_" gradientUnits="userSpaceOnUse" x1="121.1432" y1="88.6052" x2="126.3199" y2="113.463">
				<stop  offset="0" style="stop-color:#F5F5F5"/>
				<stop  offset="0.21" style="stop-color:#9B9A9B"/>
				<stop  offset="0.46" style="stop-color:#F5F5F5"/>
				<stop  offset="0.74" style="stop-color:#BCB9BA"/>
				<stop  offset="1" style="stop-color:#F5F5F5"/>
			</linearGradient>
			<path style="fill:url(#CSTM_ID_24_);" d="M131.9,100.8L131.9,100.8l-1.3-0.7c-0.1,0.3-0.2,0.6-0.2,0.9c0.5,0.2,0.9,0.5,0.9,0.9
				c0,0.2-0.1,0.4-0.3,0.5c-0.2,0.2-0.5,0.3-0.8,0.5c-0.3,0.1-0.7,0.2-1.1,0.3c-0.6,0.1-1.2,0.2-1.9,0.2c-0.9,0-1.7-0.1-2.4-0.3
				c-0.6-0.2-1.1-0.4-1.4-0.6c-0.2-0.2-0.3-0.4-0.3-0.5c0-0.5,0.7-0.9,1.8-1.2c0.1-1.3,0.3-2.4,0.6-3.5l-0.3-0.2L114,98l7.9,5l0,0
				c0.6,0.4,1.6,0.7,2.8,0.9c0.7,0.1,1.5,0.2,2.4,0.2c0.7,0,1.3,0,1.9-0.1c0.4,0,0.7-0.1,1.1-0.2c1.8-0.4,3-1,3-1.8
				C133.1,101.5,132.6,101.1,131.9,100.8z"/>
			<path style="fill:#4C4C4C;" d="M122.9,101.8c0,0.2,0.1,0.4,0.3,0.5c0.3-0.3,0.8-0.5,1.4-0.6c0-0.2,0-0.5,0-0.7c0-0.1,0-0.3,0-0.4
				C123.6,100.8,122.9,101.3,122.9,101.8z"/>
			<path style="fill:#4C4C4C;" d="M130.4,100.9c-0.1,0.3-0.1,0.7-0.2,1c0.3,0.1,0.6,0.3,0.8,0.4c0.2-0.2,0.3-0.4,0.3-0.5
				C131.2,101.4,130.9,101.1,130.4,100.9z"/>
			<linearGradient id="CSTM_ID_25_" gradientUnits="userSpaceOnUse" x1="124.8689" y1="93.4303" x2="142.6943" y2="109.5464">
				<stop  offset="0" style="stop-color:#F5F5F5"/>
				<stop  offset="0.21" style="stop-color:#9B9A9B"/>
				<stop  offset="0.46" style="stop-color:#F5F5F5"/>
				<stop  offset="0.74" style="stop-color:#BCB9BA"/>
				<stop  offset="1" style="stop-color:#F5F5F5"/>
			</linearGradient>
			<path style="fill:url(#CSTM_ID_25_);" d="M133.5,95.3c0,0-2.5,0.6-3.8,3.9l-0.2,0.5l0,0c-0.1,0.3-0.2,0.5-0.3,0.8
				c-0.1,0.3-0.2,0.7-0.2,1c-0.1,0.5-0.1,0.9-0.1,1.5c0.4-0.1,0.8-0.2,1.1-0.3c0-0.3,0.1-0.6,0.1-0.9c0-0.4,0.1-0.7,0.2-1
				c0.1-0.3,0.1-0.6,0.2-0.9l0,0l0,0l0,0c0.3-1,0.7-1.9,1.2-2.5l0,0C131.8,97.5,132.2,96,133.5,95.3z"/>
			<linearGradient id="CSTM_ID_26_" gradientUnits="userSpaceOnUse" x1="130.7485" y1="106.0459" x2="141.116" y2="128.2982">
				<stop  offset="0" style="stop-color:#F5F5F5"/>
				<stop  offset="0.21" style="stop-color:#9B9A9B"/>
				<stop  offset="0.46" style="stop-color:#F5F5F5"/>
				<stop  offset="0.74" style="stop-color:#BCB9BA"/>
				<stop  offset="1" style="stop-color:#F5F5F5"/>
			</linearGradient>
			<path style="fill:url(#CSTM_ID_26_);" d="M133.1,116.8C133.1,116.8,133,116.8,133.1,116.8c-0.1-0.2-0.2-0.4-0.4-0.7
				c-1.1-1.9-0.9-3.5-0.9-3.5h0c0-0.1,0-0.1-0.1-0.2c-0.2,0.1-0.5,0.2-0.8,0.2c-0.9,0.2-2.1,0.3-3.3,0.3c-0.3,0-0.6,0-0.9,0
				c0.3,0.7,0.6,1.4,0.9,2c0.4,0.6,3.7,5.3,18.1,9.1l0-1.6c-1.6-0.2-3.7-0.7-6.4-1.6C136,119.8,134.1,118.3,133.1,116.8z"/>
			<linearGradient id="CSTM_ID_27_" gradientUnits="userSpaceOnUse" x1="135.5903" y1="118.8949" x2="141.9121" y2="65.4581">
				<stop  offset="0" style="stop-color:#F5F5F5"/>
				<stop  offset="0.21" style="stop-color:#9B9A9B"/>
				<stop  offset="0.46" style="stop-color:#F5F5F5"/>
				<stop  offset="0.74" style="stop-color:#BCB9BA"/>
				<stop  offset="1" style="stop-color:#F5F5F5"/>
			</linearGradient>
			<path style="fill:url(#CSTM_ID_27_);" d="M127.2,93.5C127.1,93.5,127.1,93.6,127.2,93.5C127.1,93.6,127.1,93.6,127.2,93.5
				c-0.8,1.1-1.4,2.2-1.8,3.6c-0.3,1.1-0.6,2.2-0.6,3.5c0,0.1,0,0.3,0,0.4c0,0.2,0,0.5,0,0.7c0,0.4,0,0.8,0,1.3
				c0.7,0.2,1.5,0.3,2.4,0.3c0.7,0,1.3-0.1,1.9-0.2c0-0.5,0.1-1.1,0.1-1.5c0.1-0.4,0.1-0.7,0.2-1c0.1-0.4,0.2-0.7,0.3-1.1
				c0,0,0,0,0,0c1.3-3.3,3.9-4.2,3.9-4.2c0.8-0.4,1.8-0.5,3.3,0c2.6,0.9,11.3,4.7,13.9,6.1l0.1-3.6
				C131.9,86.9,129.1,91.3,127.2,93.5z"/>
			<path style="fill:#9B9A9B;" d="M130,110.3c-0.1-0.4-0.2-0.9-0.4-1.3c-0.1-0.4-0.2-0.7-0.2-1.1c-0.1-0.5-0.2-1-0.3-1.5
				c0-0.3,0-0.5-0.1-0.8c-0.4,0-0.8,0.1-1.2,0.1l0,0l0,0c-0.3,0-0.5,0-0.8,0c-0.8,0-1.5-0.1-2.2-0.2c0.1,0.8,0.2,1.6,0.4,2.4
				c0.1,0.3,0.1,0.6,0.2,0.8l0,0l0,0.1c0,0,0,0,0,0.1c0,0,0,0,0,0.1l0.1,0.3l0,0c0.1,0.4,0.2,0.7,0.3,1.1c0.5,0.1,1.1,0.1,1.7,0.1
				C128.5,110.6,129.3,110.5,130,110.3z"/>
			<linearGradient id="CSTM_ID_28_" gradientUnits="userSpaceOnUse" x1="167.4914" y1="147.4069" x2="115.7447" y2="46.2729">
				<stop  offset="0" style="stop-color:#F5F5F5"/>
				<stop  offset="0.21" style="stop-color:#9B9A9B"/>
				<stop  offset="0.46" style="stop-color:#F5F5F5"/>
				<stop  offset="0.74" style="stop-color:#BCB9BA"/>
				<stop  offset="1" style="stop-color:#F5F5F5"/>
			</linearGradient>
			<polygon style="fill-rule:evenodd;clip-rule:evenodd;fill:url(#CSTM_ID_28_);" points="164.1,138.1 140.1,128.6 140.1,95.2 
				163,104 			"/>
			<polygon style="fill-rule:evenodd;clip-rule:evenodd;fill:#E5E4E4;" points="162.8,104.2 162.8,137.6 164.8,138.4 170.2,135.6 
				171,133.8 171,100.4 169.9,98.3 164.1,101.2 			"/>
			<linearGradient id="CSTM_ID_29_" gradientUnits="userSpaceOnUse" x1="173.6172" y1="135.5009" x2="151.912" y2="87.2932">
				<stop  offset="0" style="stop-color:#F5F5F5"/>
				<stop  offset="0.21" style="stop-color:#9B9A9B"/>
				<stop  offset="0.46" style="stop-color:#F5F5F5"/>
				<stop  offset="0.74" style="stop-color:#BCB9BA"/>
				<stop  offset="1" style="stop-color:#F5F5F5"/>
			</linearGradient>
			<polygon style="fill-rule:evenodd;clip-rule:evenodd;fill:url(#CSTM_ID_29_);" points="147,89.5 141.2,92.4 164.1,101.2 
				169.9,98.3 			"/>
			<linearGradient id="CSTM_ID_30_" gradientUnits="userSpaceOnUse" x1="144.1243" y1="80.71" x2="155.2129" y2="104.5386">
				<stop  offset="0" style="stop-color:#F5F5F5"/>
				<stop  offset="0.21" style="stop-color:#9B9A9B"/>
				<stop  offset="0.46" style="stop-color:#F5F5F5"/>
				<stop  offset="0.74" style="stop-color:#BCB9BA"/>
				<stop  offset="1" style="stop-color:#F5F5F5"/>
			</linearGradient>
			<polygon style="fill-rule:evenodd;clip-rule:evenodd;fill:url(#CSTM_ID_30_);" points="141.4,92.2 140.1,95.2 163,104 164.3,101 
							"/>
			<polygon style="fill-rule:evenodd;clip-rule:evenodd;fill:#BCB9BA;" points="164.1,104.4 164.1,136 165.1,136.5 169.7,134.3 
				170.3,132.9 170.3,101.3 169.3,99.8 165,102.2 			"/>
			<polygon style="fill-rule:evenodd;clip-rule:evenodd;fill:#9B9A9B;" points="169.3,99.9 170.3,101.4 170.3,132.9 169.7,134.3 
				165.2,136.5 164.2,136 164.1,135.5 165,135.6 169,133.8 169.5,132.4 169.4,101.8 168.7,100.1 			"/>
			<path style="fill-rule:evenodd;clip-rule:evenodd;fill:#F5F5F5;" d="M166.9,111.4c1.1,0,1.9,2,1.9,4.6c0,2.5-0.9,4.6-1.9,4.6
				c-1.1,0-1.9-2-1.9-4.6C165,113.4,165.8,111.4,166.9,111.4z"/>
			<path style="fill-rule:evenodd;clip-rule:evenodd;fill:#E5E4E4;" d="M166.9,120c-1,0-1.7-1.8-1.7-4.1c0-2.3,0.8-4.1,1.7-4.1
				c1,0,1.7,1.8,1.7,4.1C168.6,118.2,167.8,120,166.9,120z"/>
			<path style="fill:#FFFFFF;" d="M137.1,92.9c0,0-6.8-2.3-9.5,1.4C129.4,94,129.9,91.8,137.1,92.9z"/>
			<g>
				<g>
					<g>
						<polygon style="fill:#170F1E;" points="155.1,134.6 154.8,134.5 154.8,134.5 158.7,136 158.7,136 155.1,134.6 						"/>
						<polygon style="fill:#130005;" points="152.1,133.1 158.7,130.8 158.7,128.3 152.1,130.6 						"/>
						<polygon style="fill:#130005;" points="152.1,123 158.7,120.8 158.7,118.3 152.1,120.5 						"/>
						<polygon style="fill:#130005;" points="152.1,118 158.7,115.7 158.7,113.2 152.1,115.5 						"/>
						<polygon style="fill:#130005;" points="152.1,113 158.7,110.7 158.7,108.2 152.1,110.5 						"/>
						<polygon style="fill:#130005;" points="152.1,108 158.7,105.7 158.7,103.2 152.1,105.5 						"/>
						<polygon style="fill:#130005;" points="152.1,128 158.7,125.8 158.7,123.3 152.1,125.5 						"/>
						<polygon style="fill:#170F1E;" points="152.1,133.4 154.8,134.5 154.8,134.5 						"/>
						<polygon style="fill:#130005;" points="155.1,134.6 158.7,136 158.7,133.3 						"/>
						<polygon style="fill:#130005;" points="152.4,100.1 152.1,100 152.1,102.9 156,101.6 						"/>
						
							<rect x="152.1" y="100" transform="matrix(0.3162 -0.9487 0.9487 0.3162 9.1165 212.6785)" style="fill:#170F1E;" width="0" height="0"/>
						<polygon style="fill:#170F1E;" points="152.1,100 152.1,100 152.4,100.1 						"/>
						<polygon style="fill:#170F1E;" points="152.1,100 152.1,100 152.1,100 						"/>
						<polygon style="fill:var(--vitamui-primary-600);" points="156,101.6 156.1,101.6 152.8,100.3 						"/>
						<polygon style="fill:var(--vitamui-primary-600);" points="158.7,102.6 158.7,102.6 158.7,102.6 						"/>
						<polygon style="fill:var(--vitamui-primary-600);" points="158.5,99 158.4,99 160,99.6 159.7,99.5 159.7,99.5 						"/>
						<polygon style="fill:var(--vitamui-primary-600);" points="153.4,97 153.5,97 153.4,97 153.4,97 153.4,97 153.4,97.1 153.4,97.1 						"/>
						<rect x="160" y="99.6" style="fill:var(--vitamui-primary-600);" width="0" height="0"/>
						<polygon style="fill:var(--vitamui-primary-600);" points="153.4,97.1 152.7,98.6 153.4,97.1 						"/>
						<polygon style="fill:var(--vitamui-primary-800);" points="156.1,101.6 159.3,101.3 158.7,102.6 158.7,102.6 160,99.6 158.4,99 152.3,99.5 
							152.1,100 152.4,100.1 						"/>
						
							<rect x="158.7" y="102.6" transform="matrix(0.4472 -0.8944 0.8944 0.4472 -3.9993 198.6583)" style="fill:var(--vitamui-primary-600);" width="0" height="0"/>
						<polygon style="fill:var(--vitamui-primary-600);" points="152.4,100.1 152.8,100.3 156.1,101.6 156.1,101.6 						"/>
						
							<rect x="153.4" y="97.1" transform="matrix(0.4472 -0.8944 0.8944 0.4472 -2.017 190.8521)" style="fill:var(--vitamui-primary-600);" width="0" height="0"/>
						<polygon style="fill:var(--vitamui-primary-600);" points="160,99.6 160,99.6 158.4,99 158.4,99 160,99.6 160,99.6 160,99.6 						"/>
						<polygon style="fill:var(--vitamui-primary-600);" points="152.4,100.1 156,101.6 156,101.6 156,101.6 156,101.6 152.8,100.3 						"/>
						<polygon style="fill:var(--vitamui-primary-600);" points="152.4,100.1 152.1,100 152.1,100 						"/>
						<polygon style="fill:var(--vitamui-primary-600);" points="152.4,100.1 152.1,100 152.1,100 152.4,100.1 152.8,100.3 						"/>
						<polygon style="fill:var(--vitamui-primary-300);" points="160,99.6 160.1,99.5 159.7,99.5 						"/>
						<polygon style="fillvar(--vitamui-primary-400);" points="165.3,96.6 161.3,95 157.5,94.7 158.7,94 155.8,95.7 165.2,96.6 						"/>
						<polygon style="fillvar(--vitamui-primary-400);" points="153.5,97 155.9,98 161.9,98.5 160.8,99.1 165.3,96.6 163.6,97.6 154,96.6 153.4,97 
							153.5,97 						"/>
						<polygon style="fill:var(--vitamui-primary-300);" points="159.7,99.5 160,99.6 160,99.6 160,99.6 159.7,99.5 						"/>
						
							<rect x="153.5" y="97" transform="matrix(0.9923 -0.124 0.124 0.9923 -10.8467 19.7827)" style="fill:var(--vitamui-primary-300);" width="0" height="0.1"/>
						<polygon style="fill:var(--vitamui-primary-300);" points="160,99.6 160,99.6 160,99.6 						"/>
						<polygon style="fillvar(--vitamui-primary-600);" points="155.1,134.6 155.1,134.6 154.8,134.5 						"/>
						<polygon style="fill:var(--vitamui-primary);" points="152.1,133.4 154.8,134.5 155.1,134.6 158.7,133.3 158.7,130.8 152.1,133.1 						"/>
						<polygon style="fill:var(--vitamui-primary);" points="152.1,120.5 158.7,118.3 158.7,115.7 152.1,118 						"/>
						<polygon style="fill:var(--vitamui-primary);" points="152.1,102.9 152.1,105.5 158.7,103.2 158.7,102.6 156,101.6 						"/>
						<polygon style="fill:var(--vitamui-primary);" points="152.1,125.5 158.7,123.3 158.7,120.8 152.1,123 						"/>
						<polygon style="fill:var(--vitamui-primary);" points="152.1,115.5 158.7,113.2 158.7,110.7 152.1,113 						"/>
						<polygon style="fill:var(--vitamui-primary);" points="152.1,110.5 158.7,108.2 158.7,105.7 152.1,108 						"/>
						<polygon style="fill:var(--vitamui-primary);" points="152.1,130.6 158.7,128.3 158.7,125.8 152.1,128 						"/>
						<polygon style="fillvar(--vitamui-primary-600);" points="156,101.6 158.7,102.6 156,101.6 						"/>
						
							<rect x="153.9" y="96.1" transform="matrix(0.8701 -0.4929 0.4929 0.8701 -27.2663 88.8543)" style="fill:var(--vitamui-primary-700);" width="2" height="0"/>
						<polygon style="fill:var(--vitamui-primary-700);" points="161.3,95 158.7,94 161.3,95 						"/>
						<polygon style="fill:var(--vitamui-primary-700);" points="160.1,99.5 160.8,99.1 160.1,99.5 						"/>
						
							<rect x="159.1" y="98.6" transform="matrix(0.3683 -0.9297 0.9297 0.3683 8.2407 210.6028)" style="fill:var(--vitamui-primary-700);" width="0" height="1.4"/>
						<polygon style="fill:#4C4C4C;" points="165.3,96.6 165.2,96.6 155.8,95.7 154,96.6 163.6,97.6 						"/>
						<polygon style="fill:#4C4C4C;" points="161.3,95 158.7,94 157.5,94.7 						"/>
						<polygon style="fill:#4C4C4C;" points="155.9,98 158.5,99 158.5,99 159.7,99.5 160.1,99.5 160.8,99.1 161.9,98.5 						"/>
						<rect x="159.1" y="98.6" style="fill:var(--vitamui-primary-700);" width="0" height="1.4"/>
						<polygon style="fill:var(--vitamui-primary-700);" points="157.1,98.5 158.5,99 158.5,99 						"/>
						<rect x="157.2" y="97.1" style="fill:var(--vitamui-primary-700);" width="0" height="2.8"/>
						<polygon style="fill:var(--vitamui-primary-700);" points="155.9,98 157.1,98.5 158.5,99 158.5,99 155.9,98 						"/>
					</g>
					<polygon style="fill:#353535;" points="156.1,101.6 156,101.6 156,101.6 156,101.6 158.7,102.6 158.7,102.6 158.7,102.6 
						159.3,101.3 156.1,101.6 					"/>
					<polygon style="fill:#353535;" points="158.4,99 158.5,99 157.1,98.5 155.9,98 155.9,98 155.9,98 153.5,97 153.5,97 153.5,97 
						153.4,97 153.4,97.1 153.4,97.1 152.7,98.6 152.3,99.5 152.3,99.5 158.4,99 					"/>
				</g>
			</g>
			<path style="fill:#A1A1A1;" d="M131.2,101.8c0,0.2-0.1,0.4-0.3,0.5l0,0l0,0c-0.2,0.2-0.5,0.3-0.8,0.5c0,0.3,0,0.7-0.1,1
				c1.8-0.4,3-1,3-1.8l0,0c0-0.5-0.4-0.9-1.2-1.2l0,0l0,0l0,0l-1.3-0.7c-0.1,0.3-0.2,0.6-0.2,0.9
				C130.9,101.1,131.2,101.4,131.2,101.8z"/>
			<path style="fill:#A1A1A1;" d="M130.4,108.1c0.8,0.3,1.3,0.6,1.3,1.1c0,0.2-0.1,0.4-0.3,0.5l0,0l0,0c-0.1,0.1-0.3,0.2-0.6,0.3
				c0.1,0.3,0.2,0.7,0.3,1c1.5-0.4,2.4-1,2.4-1.7l0,0c0-0.5-0.4-0.9-1.2-1.2l0,0l0,0l0,0l-2.2-1.2
				C130.3,107.3,130.3,107.7,130.4,108.1z"/>
			<polygon style="fill:#4C4C4C;" points="167.2,118.6 166.6,119 166.6,113.1 167.2,112.8 			"/>
		</g>
	</g>
</g>
</svg>
