<?xml version="1.0" encoding="utf-8"?>
<!-- Generator: Adobe Illustrator 27.2.0, SVG Export Plug-In . SVG Version: 6.00 Build 0)  -->
<!DOCTYPE svg PUBLIC "-//W3C//DTD SVG 1.1//EN" "http://www.w3.org/Graphics/SVG/1.1/DTD/svg11.dtd" [
	<!ENTITY ns_extend "http://ns.adobe.com/Extensibility/1.0/">
	<!ENTITY ns_ai "http://ns.adobe.com/AdobeIllustrator/10.0/">
	<!ENTITY ns_graphs "http://ns.adobe.com/Graphs/1.0/">
	<!ENTITY ns_vars "http://ns.adobe.com/Variables/1.0/">
	<!ENTITY ns_imrep "http://ns.adobe.com/ImageReplacement/1.0/">
	<!ENTITY ns_sfw "http://ns.adobe.com/SaveForWeb/1.0/">
	<!ENTITY ns_custom "http://ns.adobe.com/GenericCustomNamespace/1.0/">
	<!ENTITY ns_adobe_xpath "http://ns.adobe.com/XPath/1.0/">
]>
<svg version="1.1" id="Calque_1" xmlns:x="&ns_extend;" xmlns:i="&ns_ai;" xmlns:graph="&ns_graphs;"
	 xmlns="http://www.w3.org/2000/svg" xmlns:xlink="http://www.w3.org/1999/xlink" x="0px" y="0px" viewBox="0 0 200 200"
	 style="enable-background:new 0 0 200 200;" xml:space="preserve">
<style type="text/css">
	.Ombre_x0020_portée{fill:none;}
	.Lueur_x0020_externe_x0020_5 pt{fill:none;}
	.Néon_x0020_bleu{fill:none;stroke:#8AACDA;stroke-width:7;stroke-linecap:round;stroke-linejoin:round;}
	.Ton_x0020_clair_x0020_chrome{fill:url(#SVGID_1_);stroke:#FFFFFF;stroke-width:0.3629;stroke-miterlimit:1;}
	.Swing_GS{fill:#FFDD00;}
	.Alysse_GS{fill:#A6D0E4;}
	.dlm-st0{fill:#1F2021;}
	.dlm-st1{fill:#474849;}
	.dlm-st2{fill:#232736;}
	.dlm-st3{fill:#EAEAEC;}
	.dlm-st4{fill:#A6AAB3;}
	.dlm-st5{fill:#D8D8D8;}
	.dlm-st6{fill:#4B71B5;}
	.dlm-st7{fill:none;stroke:#2B4A99;stroke-width:0.3501;stroke-miterlimit:10;}
	.dlm-st8{fill:#3E5FA8;}
	.dlm-st9{fill:#93BDD3;}
	.dlm-st10{fill:#2B4A99;}
	.dlm-st11{fill-rule:evenodd;clip-rule:evenodd;}
	.dlm-st12{fill-rule:evenodd;clip-rule:evenodd;fill:#474756;}
	.dlm-st13{fill-rule:evenodd;clip-rule:evenodd;fill:#777B7D;}
	.dlm-st14{fill-rule:evenodd;clip-rule:evenodd;fill:#9EA5A7;}
	.dlm-st15{fill-rule:evenodd;clip-rule:evenodd;fill:#D4DCDF;}
	.dlm-st16{fill-rule:evenodd;clip-rule:evenodd;fill:#232736;}
	.dlm-st17{fill-rule:evenodd;clip-rule:evenodd;fill:#898E8F;}
	.dlm-st18{fill-rule:evenodd;clip-rule:evenodd;fill:#B1BABD;}
	.dlm-st19{fill-rule:evenodd;clip-rule:evenodd;fill:#EF8218;}
	.dlm-st20{fill-rule:evenodd;clip-rule:evenodd;fill:#2B4A99;}
	.dlm-st21{fill:#BDD4E3;}
	.dlm-st22{fill:#C9D0D7;}
	.dlm-st23{fill:#F7FBFB;}
	.dlm-st24{fill:#F5A017;}
	.dlm-st25{fill-rule:evenodd;clip-rule:evenodd;fill:#D8D8D8;}
	.dlm-st26{fill:#75757C;}
	.dlm-st27{fill-rule:evenodd;clip-rule:evenodd;fill:#75757C;}
	.dlm-st28{fill-rule:evenodd;clip-rule:evenodd;fill:#8E8E96;}
</style>
<metadata>
	<sfw  xmlns="&ns_sfw;">
		<slices></slices>
		<sliceSourceBounds  bottomLeftOrigin="true" height="136.3" width="142.5" x="28.7" y="-167.4"></sliceSourceBounds>
	</sfw>
</metadata>
<linearGradient id="SVGID_1_" gradientUnits="userSpaceOnUse" x1="0" y1="0" x2="6.123234e-17" y2="-1">
	<stop  offset="0" style="stop-color:#656565"/>
	<stop  offset="0.618" style="stop-color:#1B1B1B"/>
	<stop  offset="0.6292" style="stop-color:#545454"/>
	<stop  offset="0.9831" style="stop-color:#3E3E3E"/>
</linearGradient>
<g>
	<g>
		<path d="M30,116.3c-0.1,0-0.1-0.1-0.1-0.1v-2.8l2-1.1c0.1,0,0.1,0,0.2,0c0,0.1,0,0.1-0.1,0.2l-1.9,1.1v2.7
			C30.1,116.3,30.1,116.3,30,116.3z"/>
		<path d="M31.9,123.6C31.9,123.6,31.9,123.6,31.9,123.6l-2.1-1.2v-2.8c0-0.1,0.1-0.1,0.1-0.1l0,0c0.1,0,0.1,0.1,0.1,0.1v2.7
			l1.9,1.1c0.1,0,0.1,0.1,0.1,0.2C32,123.6,32,123.6,31.9,123.6z"/>
		<path class="dlm-st0" d="M30.7,115.9l-1.2-0.7c-0.1-0.1-0.3-0.1-0.4,0v0v0c0,0,0,0,0,0l-0.2,0.2l0.1,0.1c0,0,0,0.1,0,0.1v3.5
			c0,0.3,0.2,0.8,0.5,0.9l1.2,0.7c0,0,0.1,0,0.1,0.1l0,0.1l0.2-0.1l0,0c0.1-0.1,0.2-0.2,0.2-0.4v-3.5C31.3,116.5,31,116,30.7,115.9z
			"/>
		<path class="dlm-st1" d="M31,120.4c0,0.3-0.2,0.5-0.5,0.3l-1.2-0.7c-0.3-0.2-0.5-0.6-0.5-0.9v-3.5c0-0.3,0.2-0.5,0.5-0.3l1.2,0.7
			c0.3,0.2,0.5,0.6,0.5,0.9V120.4z"/>
	</g>
	<g>
		<g>
			<path d="M150.6,52.6l-4.6-2.6l-14.3-8.3l-75.9,44l6.2,13l4.6,2.7l15.8,9.1l83.9-48.7l0,0L150.6,52.6z"/>
		</g>
		<polygon points="82.4,110.4 82.3,157.7 66.5,148.6 61.9,146 47.6,137.9 47.6,97.3 		"/>
		<g>
			<path class="dlm-st2" d="M82.4,110.4l0,47.3l85.6-49V61.2L82.4,110.4z"/>
		</g>
	</g>
	<g>
		<g>
			<path class="dlm-st3" d="M153.9,43.1l-5.1-2.9L133,31.1L54.3,77L70,86.1l5.1,2.9l17.4,10l78.7-45.9l0,0L153.9,43.1z"/>
		</g>
		<polygon class="dlm-st4" points="92.5,99 92.5,151.1 75,141.2 69.9,138.3 54.3,129.3 54.3,77 		"/>
		<g>
			<path class="dlm-st5" d="M118,84.2L92.5,99l-0.1,52.1l78.8-45.7V53.2L118,84.2"/>
		</g>
	</g>
	<g>
		<path class="dlm-st6" d="M74.9,97.3l-4.2-2.4l-13.1-7.6l-25.8,20.1l31.8,18.4l25.7-20.1l0,0L74.9,97.3z"/>
	</g>
	<g>
		<path class="dlm-st7" d="M49.8,101.4l-7,5.6l19.6,11.3l5.2-4.2c1.6-1.3,1.4-3.9-0.4-4.9l-14-8.1C52.1,100.5,50.8,100.6,49.8,101.4z"/>
	</g>
	<polygon class="dlm-st8" points="63.6,125.7 63.6,164.1 49,155.8 44.8,153.4 31.8,145.9 31.8,107.3 	"/>
	<path class="dlm-st9" d="M62.2,127.3l0,14.5c0,1-1.1,1.7-2,1.2L33.8,128c-0.4-0.2-0.7-0.7-0.7-1.2v-14.7c0-1,1.1-1.7,2-1.2l26.4,15.2
		C62,126.4,62.2,126.9,62.2,127.3z"/>
	<path d="M62.2,164.5c0.2,0.1,1.4,0.6,2.4,0c0-0.7-1.1-1.8-1.1-1.8L62.2,164.5z"/>
	<path class="dlm-st2" d="M63.5,152.2l0,11.6c0,0.7-0.7,1.1-1.3,0.8l-29.6-16.9c-0.6-0.3-0.9-0.9-0.9-1.5v-12.5L63.5,152.2z"/>
	<g>
		<path class="dlm-st10" d="M63.6,125.7l0,38.4l25.8-14.9v-43.5L63.6,125.7z"/>
	</g>
	<path d="M63.5,152.2l25.8-14.3v11.2l-24.6,15.2l-0.2,0.1c-0.5,0.3-1.1,0-1.1-0.6L63.5,152.2z"/>
	<path class="dlm-st2" d="M47.8,156.9"/>
	<g>
		<g>
			<path class="dlm-st11" d="M85.2,153l-1.8-1c-0.9-2.9-2.1-3.1-3.6-3.4C83.2,147.2,85.5,149.2,85.2,153z"/>
			<g>
				<path class="dlm-st12" d="M68.2,161.2c0,0.2,1.1,0.8,1.3,1l1.4-0.8c-0.2-2.1,0.5-4.8,2-7.4c3.6-6.1,10.4-9,13-2.1
					c0.2-1.8,0.4-3.5-0.4-4.7c-1.4-1.9-3.6-2.1-5.1-2c-2.2,0.2-4.7,1.5-6.7,3.4C70.8,151.4,67.6,157.1,68.2,161.2z"/>
				<path class="dlm-st11" d="M69.5,162.2l2.4-1.4c0.1-1.9,0.7-4.1,2-6.3c2.6-4.5,6.8-6.9,9.4-5.4c1.2,0.7,1.8,2.1,1.9,3.9L87,152
					c0-2.3-0.6-4.4-2.6-5.6c-2.4-1.5-5.8,0-8.5,2.4C72.3,151.9,69.4,157.5,69.5,162.2z"/>
			</g>
		</g>
		<g>
			<path class="dlm-st11" d="M79.6,148.3c0.7,4.5-0.1,7.3-1.7,10.1c-1.6,2.7-4.5,4.6-8.1,5.9c1.3,0.7,2.6,1.5,3.9,2.2
				c2.6,1.5,6.9-0.9,9.6-5.5c2.7-4.6,2.7-9.6,0.1-11.1c-1.1-0.6-2.1-1.2-3.1-1.8C80,148.2,79.8,148.2,79.6,148.3z"/>
			<g>
				<path class="dlm-st13" d="M80.5,152c-1.8-1-4.6,0.6-6.4,3.7c-1.8,3.1-1.8,6.4-0.1,7.4c0.5,0.3,2.3,1.4,2.9,1.3
					c1.6-0.3,2.2-2.8,3.5-5c1.2-2.1,3.2-4.3,2.8-5.8C83,152.9,81,152.4,80.5,152z"/>
				<path class="dlm-st14" d="M82.6,153c-1.8-1-4.6,0.6-6.4,3.7c-1.8,3.1-1.8,6.4-0.1,7.4c1.8,1,4.6-0.6,6.4-3.7
					C84.3,157.4,84.4,154.1,82.6,153z"/>
				<path class="dlm-st15" d="M81.4,161.6c-1.1,1.6-3.5,3.2-5.1,2.2c-1.5-0.9-1.5-4.1,0.1-6.8c1.3-2.2,3.4-3.8,4.9-3.7
					c-0.3,0.5-0.3,0.8-0.7,1.8c-0.9-0.1-2.5,1.3-3.2,2.6c-0.6,1.1-1.3,4,0,4.7C78.7,163.1,80,162.5,81.4,161.6z"/>
			</g>
			<path class="dlm-st16" d="M74,166.9c-0.9-4.9-0.1-7.9,1.7-10.9c1.6-2.7,4.6-4.7,8.3-6c-1.2-0.7-2.3-1.3-3.5-2
				c-6.6,2-9.1,6.2-11.4,13.9l-0.9-0.3c0.2,1.5,0.9,2.6,1.9,3.2C71.4,165.5,72.7,166.2,74,166.9z"/>
			<path class="dlm-st16" d="M74,166.9c-1.9-2-1.9-7-0.2-10.1c0.8-1.4,3-5,4.4-6c-2.1,1.1-6,5.8-6.8,8.6c-0.6,1.9-0.9,1.5-1.6,1.1
				c-0.1-0.1-0.2-0.1-0.3-0.2c-0.2,0.5-0.3,1-0.5,1.5l-1-0.6c0.1,1.2,1,2.8,2,3.4C71.4,165.5,72.7,166.2,74,166.9z"/>
			<path class="dlm-st16" d="M74.1,155.6c-2.7,4.7-2.8,9.8-0.1,11.4c2.7,1.6,7.1-1,9.8-5.7c1.6-2.7,3.9-9,0-11.4
				C80.8,148,75.8,152.1,74.1,155.6L74.1,155.6z M83,152.1c2.1,1.2,2,5.1-0.1,8.7c-2.1,3.6-5.4,5.5-7.5,4.3c-2.1-1.2-2-5.1,0.1-8.7
				C77.6,152.8,81,150.9,83,152.1z"/>
			<path class="dlm-st12" d="M84,153c2.4,3.9-2.6,12.4-7.1,12.4C82,166.4,87.1,156,84,153z"/>
			<path class="dlm-st12" d="M74.4,155.7c-2.6,4.4-2.6,9.5-0.1,11c1.4,0.8,3.4,0.4,5.4-0.8c0.5-0.4,0.3-0.5-0.1-0.4
				c-0.3,0.1-1,0.3-1.3,0.5c-1,0.4-2.4,0.6-3.3,0c-2.3-1.3-1.8-6.5,0.2-9.9c1.8-2.8,3.5-4.3,5.1-5.1c1-0.5,1.8-0.8,2.1-1.4
				C79.3,149.9,75.7,153,74.4,155.7z"/>
			<path class="dlm-st12" d="M80.2,148.1l1.9,1c-4.2,0.2-8.8,4.1-11,9.6c-0.4,0.9-0.8,1-1,0.6C72.1,153.3,74.6,149.9,80.2,148.1z"/>
			<g>
				<path class="dlm-st17" d="M79.2,162c-0.3-1.5,0-2.4,0.5-3.4c0.5-0.8,1.4-1.4,2.6-1.9c-0.4-0.2-0.8-0.5-1.2-0.7
					c-0.8-0.5-2.2,0.3-3,1.8c-0.8,1.5-0.9,3,0,3.5C78.4,161.5,78.8,161.8,79.2,162z"/>
				<path class="dlm-st18" d="M79.2,158.5c-0.8,1.5-0.9,3,0,3.5c0.8,0.5,2.2-0.3,3-1.8c0.5-0.8,1.2-2.8,0-3.5
					C81.3,156.1,79.8,157.4,79.2,158.5z"/>
			</g>
		</g>
		<g>
			<path class="dlm-st19" d="M80.6,148.8c-0.3-0.1-0.5-0.1-0.8-0.2c1.1-0.4,2.1-0.5,2.9-0.3C82,148.3,81.3,148.5,80.6,148.8z"/>
			<g>
				<path class="dlm-st12" d="M68.1,161.3c0,0.2,1.1,0.8,1.4,0.9l1.4-0.8c-0.2-2.1,0.5-4.8,2-7.4c2.6-4.4,6.8-7.2,10-5.7
					c1.1,0,2.2,0.3,3.1,0.9c0-0.7-0.2-1.4-0.5-1.9c-3.1-3.7-8.7-0.7-11.4,1.9C71.2,151.9,67.9,157.2,68.1,161.3z"/>
				<path class="dlm-st11" d="M69.5,162.2l2.4-1.4c0.1-1.9,0.7-4.1,2-6.3c1.8-3,4.3-5.1,6.5-5.7c0.1,0,1.7-0.4,2.5,0
					c2.2,0,2.2-0.1,3.9,0.8c-0.3-1.4-1.1-2.5-2.4-3.3c-2.4-1.5-5.8,0-8.5,2.4C72.3,151.9,69.4,157.5,69.5,162.2z"/>
			</g>
		</g>
	</g>
	<path class="dlm-st9" d="M67.2,126.3l0,15.6c0,0.7,0.7,1.1,1.3,0.8l7.6-4.3c0.3-0.2,0.5-0.5,0.5-0.8v-15.7c0-0.7-0.8-1.1-1.4-0.8
		l-7.7,4.5C67.3,125.7,67.2,126,67.2,126.3z"/>
	<path class="dlm-st9" d="M79.7,119.5l0,6.7c0,0.9,1,1.5,1.8,1.1l2.6-1.5c0.4-0.2,0.6-0.6,0.6-1.1v-6.8c0-0.9-1-1.5-1.8-1.1l-2.7,1.6
		C79.9,118.6,79.7,119,79.7,119.5z"/>
	<path class="dlm-st20" d="M149,85c0.1,0,0.1,0,0.2,0c0.1,0,0.1,0,0.1,0.1l6.2,5.4l2.4-4.8l-2.3-2.1l-2.1,4.1l-0.8-0.7l2.7-5.2
		c0-0.1,0.1-0.1,0.1-0.2c0-0.1,0.1-0.1,0.2-0.1c0.1,0,0.1,0,0.2,0c0,0,0.1,0,0.1,0.1l3.4,3c0.1,0.1,0.1,0.2,0.1,0.3
		c0,0.2,0,0.3-0.1,0.5l-3.5,6.9c0,0.1-0.1,0.1-0.1,0.2c0,0.1-0.1,0.1-0.2,0.1c-0.1,0-0.1,0-0.2,0c0,0-0.1,0-0.1,0l-6.3-5.3l-2.6,4.9
		l2.5,2.1l2.1-4.2l0.8,0.7l-2.7,5.3c0,0.1-0.1,0.2-0.1,0.2c-0.1,0.1-0.1,0.1-0.2,0.1c-0.1,0-0.1,0-0.2,0.1c-0.1,0-0.1,0-0.1,0
		l-3.7-3c-0.1-0.1-0.1-0.2-0.1-0.4c0-0.2,0-0.3,0.1-0.5l3.7-7.2c0-0.1,0.1-0.1,0.1-0.2C148.9,85.1,149,85,149,85z M112.1,109l2-1.1
		l-2.5,5.2l2.6,2.5l-2,1.1l-1.8-1.7l-1.8,3.8l-2,1.2l2.7-5.7l-2.5-2.4l2-1.1l1.6,1.6L112.1,109z M117.3,107.4
		c-1,0.6-1.7,1.7-1.7,2.7l3.3-1.9C118.9,107.4,118.2,107,117.3,107.4z M114,111.7c0-1.8,1.1-4.7,3.4-6c2.6-1.5,3,1.2,3,2.3
		c0,0.3,0,0.8,0,0.8l-4.7,2.7c0,0.2,0.1,1.8,1.9,0.7c1.1-0.6,2-1.6,2.3-2l0-0.1l0,1.6l0,0c-0.5,0.7-1.3,1.4-2.3,2
		C115.4,115.1,114,114.5,114,111.7z M139.6,95.7c0-1.4,0.8-2.7,2.1-3.4c1.2-0.7,1.8-0.4,1.8-0.4l0,1.5c-0.6-0.1-1.2,0-1.8,0.4
		c-0.5,0.3-0.9,0.8-0.9,1.2c0,1,3-1.4,3,1.3c0,1.4-1,2.8-2.3,3.6c-1.2,0.7-1.8,0.4-1.8,0.4l0-1.6c0,0,0.8,0.2,1.8-0.4
		c0.6-0.4,1.1-0.8,1.1-1.3C142.7,95.9,139.6,98.4,139.6,95.7L139.6,95.7z M128.4,105.2c0.1,0.1,0.3,0.2,0.5,0.2
		c0.2,0,0.4-0.1,0.6-0.2c0.2-0.1,0.4-0.3,0.6-0.5c0.2-0.2,0.4-0.5,0.5-0.8c0.2-0.3,0.3-0.6,0.4-0.9c0.1-0.3,0.1-0.6,0.1-0.9
		c0-0.3,0-0.6-0.1-0.8c-0.1-0.2-0.2-0.4-0.4-0.5c-0.2-0.1-0.3-0.2-0.5-0.2c-0.2,0-0.4,0.1-0.6,0.2c-0.2,0.1-0.4,0.3-0.6,0.5
		c-0.2,0.2-0.4,0.5-0.5,0.8c-0.2,0.3-0.3,0.6-0.4,0.9c-0.1,0.3-0.1,0.6-0.1,0.9c0,0.3,0,0.6,0.1,0.8
		C128.2,104.9,128.3,105,128.4,105.2L128.4,105.2z M131.2,98.4l1.4-1.1l0,7.6l-1.4,0.8l0-0.6c-0.2,0.4-0.7,1.1-1.7,1.8
		c-0.8,0.5-1.5,0.5-2,0.1c-0.5-0.4-0.8-1.2-0.8-2.3c0-1.1,0.3-2.1,0.8-3.2c0.5-1.1,1.2-1.8,2-2.2c0.7-0.4,1.3-0.5,1.7-0.4
		L131.2,98.4z M133.6,97.1l1.4-1.1l0,0.7c0.4-0.6,1.1-1.1,1.5-1.3c1.8-1,2.3-0.2,2.3,1.7l0,4.3l-1.3,0.8l0-4.5
		c0-0.9-0.4-1.2-1.2-0.8c-0.7,0.4-1.3,1.1-1.3,2l0,4.7l-1.4,0.8L133.6,97.1z M121.2,101.5l1.5-1.2l0,7.5c0,0.7,0.2,0.9,0.7,0.6
		l0,1.8c-1.3,0.8-2.2,0.4-2.2-1.4L121.2,101.5z M124.4,99.8l1.5-1.2l0,1.6l-1.5,0.8L124.4,99.8z M124.3,109.7l0-7.5l1.5-0.8l0,7.5
		L124.3,109.7z"/>
	<g>
		<path d="M61.8,133.5c-0.1,0-0.1-0.1-0.1-0.1v-3.1l2.2-1.3c0.1,0,0.2,0,0.2,0.1c0,0.1,0,0.2-0.1,0.2l-2,1.2v2.9
			C61.9,133.5,61.9,133.5,61.8,133.5z"/>
		<path d="M63.9,141.5C63.9,141.5,63.9,141.5,63.9,141.5l-2.3-1.3v-3.1c0-0.1,0.1-0.1,0.1-0.1l0,0c0.1,0,0.1,0.1,0.1,0.1v2.9l2,1.2
			c0.1,0,0.1,0.1,0.1,0.2C64,141.5,64,141.5,63.9,141.5z"/>
		<path class="dlm-st0" d="M62.6,133l-1.3-0.8c-0.2-0.1-0.3-0.1-0.4,0v0v0c0,0,0,0,0,0l-0.3,0.2l0.1,0.1c0,0,0,0.1,0,0.1v3.8
			c0,0.4,0.3,0.8,0.6,1l1.3,0.8c0,0,0.1,0,0.1,0.1l0,0.2l0.2-0.2l0,0c0.1-0.1,0.2-0.2,0.2-0.4V134C63.2,133.7,62.9,133.2,62.6,133z"
			/>
		<path class="dlm-st1" d="M62.9,138.1c0,0.4-0.3,0.5-0.6,0.3l-1.3-0.8c-0.3-0.2-0.6-0.6-0.6-1v-3.8c0-0.4,0.3-0.5,0.6-0.3l1.3,0.8
			c0.3,0.2,0.6,0.6,0.6,1V138.1z"/>
	</g>
	<polygon class="dlm-st21" points="39.2,113.2 44.5,116.3 36.2,129.3 33.8,128 	"/>
	<polygon class="dlm-st21" points="45.1,116.7 46.5,117.5 37.6,130.2 36.7,129.7 	"/>
	<polygon class="dlm-st21" points="52.4,120.9 57.8,123.9 49.5,136.9 44.1,133.8 	"/>
	<polygon class="dlm-st21" points="58.4,124.3 59.8,125.1 50.9,137.8 50,137.3 	"/>
	<path class="dlm-st22" d="M63.6,156.4l-3.6-2.1c-0.6-0.4-1.1-0.1-1.1,0.7v2.2c0,0.7,0.5,1.6,1.1,2l3.6,2.1V156.4z"/>
	<path class="dlm-st23" d="M63.6,156.8c0,0-0.1-0.1-0.1-0.1l-3.6-2.1c-0.1-0.1-0.3-0.1-0.3-0.1c-0.2,0-0.2,0.3-0.2,0.4v2.2
		c0,0.6,0.4,1.3,0.9,1.6l3.4,1.9V156.8z"/>
	<path class="dlm-st22" d="M34.4,140.2l-2.6-1.5v4.9l2.6,1.5c0.6,0.4,1.1,0.1,1.1-0.7v-2.2C35.5,141.4,35,140.5,34.4,140.2z"/>
	<path class="dlm-st23" d="M34.2,140.5l-2.4-1.4v4l2.8,1.6c0.1,0.1,0.3,0.1,0.3,0.1c0.2,0,0.2-0.3,0.2-0.4l0-2.2
		C35.1,141.6,34.7,140.8,34.2,140.5z"/>
	<polygon class="dlm-st24" points="65.6,160.1 63.6,161.2 63.6,156.4 65.6,155.2 	"/>
	<polygon class="dlm-st24" points="88.3,142.6 87.2,143.2 87.2,140.4 88.3,139.8 	"/>
	<path d="M57,150.4l-20.1-11.6c-0.3-0.2-0.5-0.5-0.5-0.8l0,0l20.1,11.6C56.8,149.7,57,150,57,150.4L57,150.4z"/>
	<path d="M57,152l-20.1-11.6c-0.3-0.2-0.5-0.5-0.5-0.8l0,0l20.1,11.6C56.8,151.3,57,151.6,57,152L57,152z"/>
	<path d="M57,153.6L36.9,142c-0.3-0.2-0.5-0.5-0.5-0.8l0,0l20.1,11.6C56.8,152.9,57,153.2,57,153.6L57,153.6z"/>
	<path d="M57,155.2l-20.1-11.6c-0.3-0.2-0.5-0.5-0.5-0.8l0,0l20.1,11.6C56.8,154.5,57,154.8,57,155.2L57,155.2z"/>
	<path d="M57,156.8l-20.1-11.6c-0.3-0.2-0.5-0.5-0.5-0.8l0,0L56.5,156C56.8,156.1,57,156.4,57,156.8L57,156.8z"/>
	<path d="M57,158.4l-20.1-11.6c-0.3-0.2-0.5-0.5-0.5-0.8l0,0l20.1,11.6C56.8,157.7,57,158.1,57,158.4L57,158.4z"/>
	<path d="M57,160l-20.1-11.6c-0.3-0.2-0.5-0.5-0.5-0.8l0,0l20.1,11.6C56.8,159.3,57,159.7,57,160L57,160z"/>
	<g>
		<path class="dlm-st25" d="M44.7,135.5C44.8,135.5,44.8,135.5,44.7,135.5c0.1,0.1,0.1,0.1,0.2,0.1l3.2,5.1l1.3-0.6l-1.2-2l-1.1,0.6
			l-0.4-0.7l1.4-0.7c0,0,0,0,0.1,0c0,0,0.1,0,0.1,0c0,0,0.1,0,0.1,0.1c0,0,0,0.1,0.1,0.1l1.8,2.9c0,0.1,0.1,0.1,0.1,0.2
			c0,0.1,0,0.1-0.1,0.1l-1.8,0.9c0,0,0,0-0.1,0c0,0-0.1,0-0.1,0c0,0-0.1,0-0.1-0.1c0,0,0-0.1-0.1-0.1l-3.2-5.1l-1.3,0.6l1.3,2
			l1.1-0.6l0.4,0.7l-1.4,0.7c0,0,0,0-0.1,0c0,0-0.1,0-0.1,0c0,0-0.1,0-0.1-0.1c0,0,0-0.1-0.1-0.1l-1.8-2.9c0-0.1-0.1-0.1-0.1-0.2
			s0-0.1,0.1-0.1l1.8-0.9C44.6,135.5,44.6,135.5,44.7,135.5C44.7,135.5,44.7,135.5,44.7,135.5z"/>
	</g>
	<g>
		<path class="dlm-st16" d="M69.1,146.8c-0.3,0.2-0.7,0.1-0.9-0.2c-0.2-0.3-0.1-0.7,0.2-0.9l4.7-2.8c0.3-0.2,0.7-0.1,0.9,0.2
			c0.2,0.3,0.1,0.7-0.2,0.9L69.1,146.8z"/>
		<path class="dlm-st11" d="M73.7,143.5c-0.5,1.1-1.2,1.8-2,2.3c-1.1,0.6-2.2,0.8-3,0.8c-0.3,0-0.4-0.7,0-0.7c0.7,0,1.8-0.1,2.7-0.7
			c0.7-0.4,1.3-1.1,1.8-2.1C73.4,142.7,73.9,143.2,73.7,143.5z"/>
	</g>
	<polygon points="85.8,152.6 85.8,155.7 87.2,154.9 87,152 	"/>
	
		<rect x="89.5" y="123.4" transform="matrix(0.8654 -0.5011 0.5011 0.8654 -45.4445 77.9138)" class="dlm-st26" width="65.6" height="0.3"/>
	<path class="dlm-st10" d="M60.9,91.8c0-0.4-0.1-0.6-0.1-0.7c0-0.1-0.1-0.2-0.1-0.3c-0.1-0.1-0.1-0.3-0.2-0.5c0-0.1-0.1-0.2-0.2-0.3
		c0-0.1-0.1-0.1-0.2-0.2c-0.1-0.1-0.2-0.2-0.2-0.2c0,0-0.1-0.1-0.2-0.2c-0.2-0.1-0.4-0.2-0.5-0.2c-0.1,0-0.3,0-0.6,0
		c-0.1,0-0.2,0-0.2,0.1c-0.1,0-0.2,0.1-0.3,0.1c-0.1,0-0.3,0.2-0.5,0.4c-0.3,0.3-0.4,0.6-0.4,0.6C57.1,90.8,57,91,57,91.1
		c0,0.1-0.1,0.2-0.1,0.3c0,0.2-0.1,0.5-0.1,0.7c0,0.1,0,0.3,0,0.4c0,0.3,0.2,0.6,0.6,0.8c0.8,0.5,2.1,0.5,2.9,0
		c0.4-0.2,0.6-0.5,0.6-0.8C60.9,92.3,60.9,92.1,60.9,91.8z"/>
	<path class="dlm-st10" d="M84.3,105.2c0-0.4-0.1-0.6-0.1-0.7c0-0.1-0.1-0.2-0.1-0.3c-0.1-0.1-0.1-0.3-0.2-0.5c0-0.1-0.1-0.2-0.2-0.3
		c0-0.1-0.1-0.1-0.2-0.2c-0.1-0.1-0.2-0.2-0.2-0.2c0,0-0.1-0.1-0.2-0.2c-0.2-0.1-0.4-0.2-0.5-0.2c-0.1,0-0.3,0-0.6,0
		c-0.1,0-0.2,0-0.2,0.1c-0.1,0-0.2,0.1-0.3,0.1c-0.1,0-0.3,0.2-0.5,0.4c-0.3,0.3-0.4,0.6-0.4,0.6c-0.1,0.1-0.1,0.3-0.2,0.5
		c0,0.1-0.1,0.2-0.1,0.3c0,0.2-0.1,0.5-0.1,0.7c0,0.1,0,0.3,0,0.4c0,0.3,0.2,0.6,0.6,0.8c0.8,0.5,2.1,0.5,2.9,0
		c0.4-0.2,0.6-0.5,0.6-0.8C84.3,105.7,84.3,105.4,84.3,105.2z"/>
	<g>
		<g>
			<path class="dlm-st27" d="M159.1,113.6l-1.8-1c-0.9-2.9-2.1-3.1-3.6-3.4C157.2,107.8,159.4,109.8,159.1,113.6z"/>
			<g>
				<path class="dlm-st28" d="M142.1,121.8c0,0.2,1.1,0.8,1.3,1l1.4-0.8c-0.2-2.1,0.5-4.8,2-7.4c3.6-6.1,10.4-9,13-2.1
					c0.2-1.8,0.4-3.5-0.4-4.7c-1.4-1.9-3.6-2.1-5.1-2c-2.2,0.2-4.7,1.5-6.7,3.4C144.7,112,141.6,117.6,142.1,121.8z"/>
				<path class="dlm-st25" d="M143.4,122.8l2.4-1.4c0.1-1.9,0.7-4.1,2-6.3c2.6-4.5,6.8-6.9,9.4-5.4c1.2,0.7,1.8,2.1,1.9,3.9l1.8-1.1
					c0-2.3-0.6-4.4-2.6-5.6c-2.4-1.5-5.8,0-8.5,2.4C146.2,112.5,143.4,118.1,143.4,122.8z"/>
			</g>
		</g>
		<g>
			<path class="dlm-st11" d="M153.6,108.8c0.7,4.5-0.1,7.3-1.7,10.1c-1.6,2.7-4.5,4.6-8.1,5.9c1.3,0.7,2.6,1.5,3.9,2.2
				c2.6,1.5,6.9-0.9,9.6-5.5c2.7-4.6,2.7-9.6,0.1-11.1c-1.1-0.6-2.1-1.2-3.1-1.8C154,108.7,153.8,108.8,153.6,108.8z"/>
			<g>
				<path class="dlm-st13" d="M154.4,112.6c-1.8-1-4.6,0.6-6.4,3.7c-1.8,3.1-1.8,6.4-0.1,7.4c0.5,0.3,2.3,1.4,2.9,1.3
					c1.6-0.3,2.2-2.8,3.5-5c1.2-2.1,3.2-4.3,2.8-5.8C157,113.5,155,112.9,154.4,112.6z"/>
				<path class="dlm-st14" d="M156.5,113.6c-1.8-1-4.6,0.6-6.4,3.7c-1.8,3.1-1.8,6.4-0.1,7.4c1.8,1,4.6-0.6,6.4-3.7
					C158.3,117.9,158.3,114.6,156.5,113.6z"/>
				<path class="dlm-st15" d="M155.4,122.1c-1.1,1.6-3.5,3.2-5.1,2.2c-1.5-0.9-1.5-4.1,0.1-6.8c1.3-2.2,3.4-3.8,4.9-3.7
					c-0.3,0.5-0.3,0.8-0.7,1.8c-0.9-0.1-2.5,1.3-3.2,2.6c-0.6,1.1-1.3,4,0,4.7C152.6,123.7,153.9,123,155.4,122.1z"/>
			</g>
			<path class="dlm-st16" d="M148,127.5c-0.9-4.9-0.1-7.9,1.7-10.9c1.6-2.7,4.6-4.7,8.3-6c-1.2-0.7-2.3-1.3-3.5-2
				c-6.6,2-9.1,6.2-11.4,13.9l-0.9-0.3c0.2,1.5,0.9,2.6,1.9,3.2C145.4,126,146.7,126.8,148,127.5z"/>
			<path class="dlm-st16" d="M148,127.5c-1.9-2-1.9-7-0.2-10.1c0.8-1.4,3-5,4.4-6c-2.1,1.1-6,5.8-6.8,8.6c-0.6,1.9-0.9,1.5-1.6,1.1
				c-0.1-0.1-0.2-0.1-0.3-0.2c-0.2,0.5-0.3,1-0.5,1.5l-1-0.6c0.1,1.2,1,2.8,2,3.4C145.4,126,146.7,126.8,148,127.5z"/>
			<path class="dlm-st16" d="M148,116.1c-2.7,4.7-2.8,9.8-0.1,11.4c2.7,1.6,7.1-1,9.8-5.7c1.6-2.7,3.9-9,0-11.4
				C154.8,108.5,149.8,112.6,148,116.1L148,116.1z M157,112.6c2.1,1.2,2,5.1-0.1,8.7c-2.1,3.6-5.4,5.5-7.5,4.3
				c-2.1-1.2-2-5.1,0.1-8.7C151.6,113.4,154.9,111.5,157,112.6z"/>
			<path class="dlm-st12" d="M157.9,113.6c2.4,3.9-2.6,12.4-7.1,12.4C155.9,127,161,116.5,157.9,113.6z"/>
			<path class="dlm-st12" d="M148.3,116.3c-2.6,4.4-2.6,9.5-0.1,11c1.4,0.8,3.4,0.4,5.4-0.8c0.5-0.4,0.3-0.5-0.1-0.4
				c-0.3,0.1-1,0.3-1.3,0.5c-1,0.4-2.4,0.6-3.3,0c-2.3-1.3-1.8-6.5,0.2-9.9c1.8-2.8,3.5-4.3,5.1-5.1c1-0.5,1.8-0.8,2.1-1.4
				C153.2,110.4,149.6,113.6,148.3,116.3z"/>
			<path class="dlm-st12" d="M154.1,108.7l1.9,1c-4.2,0.2-8.8,4.1-11,9.6c-0.4,0.9-0.8,1-1,0.6C146,113.9,148.6,110.5,154.1,108.7z"/>
			<g>
				<path class="dlm-st17" d="M153.2,122.5c-0.3-1.5,0-2.4,0.5-3.4c0.5-0.8,1.4-1.4,2.6-1.9c-0.4-0.2-0.8-0.5-1.2-0.7
					c-0.8-0.5-2.2,0.3-3,1.8c-0.8,1.5-0.9,3,0,3.5C152.4,122.1,152.8,122.3,153.2,122.5z"/>
				<path class="dlm-st18" d="M153.2,119c-0.8,1.5-0.9,3,0,3.5c0.8,0.5,2.2-0.3,3-1.8c0.5-0.8,1.2-2.8,0-3.5
					C155.3,116.7,153.7,117.9,153.2,119z"/>
			</g>
		</g>
		<g>
			<path class="dlm-st19" d="M154.6,109.3c-0.3-0.1-0.5-0.1-0.8-0.2c1.1-0.4,2.1-0.5,2.9-0.3C155.9,108.9,155.3,109,154.6,109.3z"/>
			<g>
				<path class="dlm-st28" d="M142,121.9c0,0.2,1.1,0.8,1.4,0.9l1.4-0.8c-0.2-2.1,0.5-4.8,2-7.4c2.6-4.4,6.8-7.2,10-5.7
					c1.1,0,2.2,0.3,3.1,0.9c0-0.7-0.2-1.4-0.5-1.9c-3.1-3.7-8.7-0.7-11.4,1.9C145.1,112.5,141.9,117.7,142,121.9z"/>
				<path class="dlm-st25" d="M143.4,122.8l2.4-1.4c0.1-1.9,0.7-4.1,2-6.3c1.8-3,4.3-5.1,6.5-5.7c0.1,0,1.7-0.4,2.5,0
					c2.2,0,2.2-0.1,3.9,0.8c-0.3-1.4-1.1-2.5-2.4-3.3c-2.4-1.5-5.8,0-8.5,2.4C146.2,112.5,143.4,118.1,143.4,122.8z"/>
			</g>
		</g>
	</g>
	<g>
		<g>
			<path class="dlm-st27" d="M141.6,123.9l-1.8-1c-0.9-2.9-2.1-3.1-3.6-3.4C139.6,118.1,141.9,120.1,141.6,123.9z"/>
			<g>
				<path class="dlm-st28" d="M124.5,132.1c0,0.2,1.1,0.8,1.3,1l1.4-0.8c-0.2-2.1,0.5-4.8,2-7.4c3.6-6.1,10.4-9,13-2.1
					c0.2-1.8,0.4-3.5-0.4-4.7c-1.4-1.9-3.6-2.1-5.1-2c-2.2,0.2-4.7,1.5-6.7,3.4C127.2,122.3,124,127.9,124.5,132.1z"/>
				<path class="dlm-st25" d="M125.8,133.1l2.4-1.4c0.1-1.9,0.7-4.1,2-6.3c2.6-4.5,6.8-6.9,9.4-5.4c1.2,0.7,1.8,2.1,1.9,3.9l1.8-1.1
					c0-2.3-0.6-4.4-2.6-5.6c-2.4-1.5-5.8,0-8.5,2.4C128.6,122.8,125.8,128.4,125.8,133.1z"/>
			</g>
		</g>
		<g>
			<path class="dlm-st11" d="M136,119.2c0.7,4.5-0.1,7.3-1.7,10.1c-1.6,2.7-4.5,4.6-8.1,5.9c1.3,0.7,2.6,1.5,3.9,2.2
				c2.6,1.5,6.9-0.9,9.6-5.5c2.7-4.6,2.7-9.6,0.1-11.1c-1.1-0.6-2.1-1.2-3.1-1.8C136.4,119,136.2,119.1,136,119.2z"/>
			<g>
				<path class="dlm-st13" d="M136.9,122.9c-1.8-1-4.6,0.6-6.4,3.7c-1.8,3.1-1.8,6.4-0.1,7.4c0.5,0.3,2.3,1.4,2.9,1.3
					c1.6-0.3,2.2-2.8,3.5-5c1.2-2.1,3.2-4.3,2.8-5.8C139.4,123.8,137.4,123.2,136.9,122.9z"/>
				<path class="dlm-st14" d="M139,123.9c-1.8-1-4.6,0.6-6.4,3.7c-1.8,3.1-1.8,6.4-0.1,7.4c1.8,1,4.6-0.6,6.4-3.7
					C140.7,128.2,140.7,124.9,139,123.9z"/>
				<path class="dlm-st15" d="M137.8,132.4c-1.1,1.6-3.5,3.2-5.1,2.2c-1.5-0.9-1.5-4.1,0.1-6.8c1.3-2.2,3.4-3.8,4.9-3.7
					c-0.3,0.5-0.3,0.8-0.7,1.8c-0.9-0.1-2.5,1.3-3.2,2.6c-0.6,1.1-1.3,4,0,4.7C135,134,136.3,133.3,137.8,132.4z"/>
			</g>
			<path class="dlm-st16" d="M130.4,137.8c-0.9-4.9-0.1-7.9,1.7-10.9c1.6-2.7,4.6-4.7,8.3-6c-1.2-0.7-2.3-1.3-3.5-2
				c-6.6,2-9.1,6.2-11.4,13.9l-0.9-0.3c0.2,1.5,0.9,2.6,1.9,3.2C127.8,136.3,129.1,137.1,130.4,137.8z"/>
			<path class="dlm-st16" d="M130.4,137.8c-1.9-2-1.9-7-0.2-10.1c0.8-1.4,3-5,4.4-6c-2.1,1.1-6,5.8-6.8,8.6c-0.6,1.9-0.9,1.5-1.6,1.1
				c-0.1-0.1-0.2-0.1-0.3-0.2c-0.2,0.5-0.3,1-0.5,1.5l-1-0.6c0.1,1.2,1,2.8,2,3.4C127.8,136.3,129.1,137.1,130.4,137.8z"/>
			<path class="dlm-st16" d="M130.5,126.5c-2.7,4.7-2.8,9.8-0.1,11.4c2.7,1.6,7.1-1,9.8-5.7c1.6-2.7,3.9-9,0-11.4
				C137.2,118.9,132.2,123,130.5,126.5L130.5,126.5z M139.4,123c2.1,1.2,2,5.1-0.1,8.7c-2.1,3.6-5.4,5.5-7.5,4.3
				c-2.1-1.2-2-5.1,0.1-8.7C134,123.7,137.4,121.8,139.4,123z"/>
			<path class="dlm-st12" d="M140.3,123.9c2.4,3.9-2.6,12.4-7.1,12.4C138.4,137.3,143.5,126.8,140.3,123.9z"/>
			<path class="dlm-st12" d="M130.7,126.6c-2.6,4.4-2.6,9.5-0.1,11c1.4,0.8,3.4,0.4,5.4-0.8c0.5-0.4,0.3-0.5-0.1-0.4
				c-0.3,0.1-1,0.3-1.3,0.5c-1,0.4-2.4,0.6-3.3,0c-2.3-1.3-1.8-6.5,0.2-9.9c1.8-2.8,3.5-4.3,5.1-5.1c1-0.5,1.8-0.8,2.1-1.4
				C135.6,120.8,132.1,123.9,130.7,126.6z"/>
			<path class="dlm-st12" d="M136.6,119l1.9,1c-4.2,0.2-8.8,4.1-11,9.6c-0.4,0.9-0.8,1-1,0.6C128.5,124.2,131,120.8,136.6,119z"/>
			<g>
				<path class="dlm-st17" d="M135.6,132.8c-0.3-1.5,0-2.4,0.5-3.4c0.5-0.8,1.4-1.4,2.6-1.9c-0.4-0.2-0.8-0.5-1.2-0.7
					c-0.8-0.5-2.2,0.3-3,1.8c-0.8,1.5-0.9,3,0,3.5C134.8,132.4,135.2,132.6,135.6,132.8z"/>
				<path class="dlm-st18" d="M135.6,129.3c-0.8,1.5-0.9,3,0,3.5c0.8,0.5,2.2-0.3,3-1.8c0.5-0.8,1.2-2.8,0-3.5
					C137.7,127,136.2,128.3,135.6,129.3z"/>
			</g>
		</g>
		<g>
			<path class="dlm-st19" d="M137,119.7c-0.3-0.1-0.5-0.1-0.8-0.2c1.1-0.4,2.1-0.5,2.9-0.3C138.4,119.2,137.7,119.3,137,119.7z"/>
			<g>
				<path class="dlm-st28" d="M124.5,132.2c0,0.2,1.1,0.8,1.4,0.9l1.4-0.8c-0.2-2.1,0.5-4.8,2-7.4c2.6-4.4,6.8-7.2,10-5.7
					c1.1,0,2.2,0.3,3.1,0.9c0-0.7-0.2-1.4-0.5-1.9c-3.1-3.7-8.7-0.7-11.4,1.9C127.5,122.8,124.3,128,124.5,132.2z"/>
				<path class="dlm-st25" d="M125.8,133.1l2.4-1.4c0.1-1.9,0.7-4.1,2-6.3c1.8-3,4.3-5.1,6.5-5.7c0.1,0,1.7-0.4,2.5,0
					c2.2,0,2.2-0.1,3.9,0.8c-0.3-1.4-1.1-2.5-2.4-3.3c-2.4-1.5-5.8,0-8.5,2.4C128.6,122.8,125.8,128.4,125.8,133.1z"/>
			</g>
		</g>
	</g>
</g>
</svg>
