<?xml version="1.0" encoding="utf-8"?>
<!-- Generator: Adobe Illustrator 27.2.0, SVG Export Plug-In . SVG Version: 6.00 Build 0)  -->
<!DOCTYPE svg PUBLIC "-//W3C//DTD SVG 1.1//EN" "http://www.w3.org/Graphics/SVG/1.1/DTD/svg11.dtd" [
	<!ENTITY ns_extend "http://ns.adobe.com/Extensibility/1.0/">
	<!ENTITY ns_ai "http://ns.adobe.com/AdobeIllustrator/10.0/">
	<!ENTITY ns_graphs "http://ns.adobe.com/Graphs/1.0/">
	<!ENTITY ns_vars "http://ns.adobe.com/Variables/1.0/">
	<!ENTITY ns_imrep "http://ns.adobe.com/ImageReplacement/1.0/">
	<!ENTITY ns_sfw "http://ns.adobe.com/SaveForWeb/1.0/">
	<!ENTITY ns_custom "http://ns.adobe.com/GenericCustomNamespace/1.0/">
	<!ENTITY ns_adobe_xpath "http://ns.adobe.com/XPath/1.0/">
]>
<svg version="1.1" id="Calque_1" xmlns:x="&ns_extend;" xmlns:i="&ns_ai;" xmlns:graph="&ns_graphs;"
	 xmlns="http://www.w3.org/2000/svg" xmlns:xlink="http://www.w3.org/1999/xlink" x="0px" y="0px" viewBox="0 0 200 200"
	 style="enable-background:new 0 0 200 200;" xml:space="preserve">
<style type="text/css">
	.Ombre_x0020_portée{fill:none;}
	.Lueur_x0020_externe_x0020_5 pt{fill:none;}
	.Néon_x0020_bleu{fill:none;stroke:#8AACDA;stroke-width:7;stroke-linecap:round;stroke-linejoin:round;}
	.Ton_x0020_clair_x0020_chrome{fill:url(#SVGID_1_);stroke:#FFFFFF;stroke-width:0.3629;stroke-miterlimit:1;}
	.Swing_GS{fill:#FFDD00;}
	.Alysse_GS{fill:#A6D0E4;}
	.des-st0{fill-rule:evenodd;clip-rule:evenodd;fill:#202020;}
	.des-st1{fill-rule:evenodd;clip-rule:evenodd;fill:#3C3C3B;}
	.des-st2{fill:#C6C6C5;}
	.des-st3{fill:#D9D9D9;}
	.des-st4{fill:#2B4A99;}
	.des-st5{fill:#213875;}
	.des-st6{fill:#FFFFFF;}
	.des-st7{fill:#E3BE8E;}
	.des-st8{fill:#F5D2A7;}
	.des-st9{fill:#C09A6C;}
	.des-st10{fill-rule:evenodd;clip-rule:evenodd;fill:#2B4A99;}
	.des-st11{opacity:0.7;fill:#FFFFFF;}
	.des-st12{fill:none;stroke:#9B9A9B;stroke-width:0.174;stroke-miterlimit:10;}
	.des-st13{fill-rule:evenodd;clip-rule:evenodd;fill:#F1B186;}
	.des-st14{fill-rule:evenodd;clip-rule:evenodd;fill:#E7A376;}
	.des-st15{fill-rule:evenodd;clip-rule:evenodd;fill:#F5BB94;}
	.des-st16{fill:#ECECEC;}
	.des-st17{fill-rule:evenodd;clip-rule:evenodd;fill:#DA9569;}
	.des-st18{fill:#331F11;}
	.des-st19{fill:#475DA6;}
	.des-st20{fill:#B1B1B1;}
	.des-st21{fill:#868686;}
	.des-st22{fill-rule:evenodd;clip-rule:evenodd;fill:#575756;}
	.des-st23{fill-rule:evenodd;clip-rule:evenodd;fill:#009EE2;}
	.des-st24{fill:#F5F5F5;}
	.des-st25{fill:#75757C;}
</style>
<metadata>
	<sfw  xmlns="&ns_sfw;">
		<slices></slices>
		<sliceSourceBounds  bottomLeftOrigin="true" height="148.7" width="72.1" x="64.6" y="-166.5"></sliceSourceBounds>
	</sfw>
</metadata>
<linearGradient id="SVGID_1_" gradientUnits="userSpaceOnUse" x1="0" y1="0" x2="6.123234e-17" y2="-1">
	<stop  offset="0" style="stop-color:#656565"/>
	<stop  offset="0.618" style="stop-color:#1B1B1B"/>
	<stop  offset="0.6292" style="stop-color:#545454"/>
	<stop  offset="0.9831" style="stop-color:#3E3E3E"/>
</linearGradient>
<g>
	<g>
		<g>
			<path class="des-st0" d="M93.2,137.7c0.5,1.8,0.6,2.7,1.4,3.8c1.5,2.1,3.7,3.6,6.8,5.8c1.5,1.1,1.8,2.1,0.3,3c-1.2,0.7-4.2,0.2-6-0.3
				c-3.5-0.8-4.9-2.9-6-3.4l-0.9,0.2c-0.7,0-3.6-1.2-4.2-1.9c-0.1-0.6-0.4-1.8-0.5-2.7c-0.1-2.9,0.4-2.6,1.1-4.9
				C88,137.4,90.6,137.6,93.2,137.7z"/>
			<path class="des-st0" d="M102.8,148.9c0,0.5-0.3,0.9-1,1.3c-1.2,0.7-4.2,0.2-6-0.3c-3.5-0.8-4.9-2.9-6-3.4l-0.9,0.2
				c-0.7,0-3.6-1.2-4.2-1.9c-0.1-0.6-0.4-1.8-0.5-2.7c-0.1-2.9,0.4-2.6,1.1-4.9c1.2,0.1,2.3,0.2,3.5,0.2c0.2,1.9-0.1,5.3,1.5,6.5
				c1.8,1.4,3.2,1.8,4.3,2.5C98.5,148.7,101,150.6,102.8,148.9z"/>
			<path class="des-st1" d="M94.1,141c-0.4,0.6-1.1,0.9-2.3,1.2c2,2.2,2.3,2,4.9,3.5c1.3,1.5,1.5,1.8,2.4,2.3c1,0.6,2.5,1.2,3.1,0.8
				c0.3-0.2-0.1-0.7-1.2-1.5c-1.3-0.9-2.6-1.9-3.7-2.8C96,143.4,94.9,142.3,94.1,141z"/>
		</g>
		<g>
			<path class="des-st0" d="M78,144.5c0.3,2.4,0.3,3.7,0.9,5.1c1.3,2.8,3.4,4.8,6.5,7.9c1.5,1.5,1.6,2.8-0.3,3.9
				c-1.5,0.8-4.5-0.1-6.4-0.8c-3.5-1.2-4.6-3.9-5.8-4.6l-0.9,0.2c-0.7,0-3.5-1.6-4-2.5c-0.1-0.8-0.2-2.2-0.2-3.4
				c0.2-3.8,0.6-3.4,1.7-6.4C72.4,144.2,75.1,144.4,78,144.5z"/>
			<path class="des-st0" d="M86.6,159.7c-0.1,0.6-0.5,1.1-1.4,1.6c-1.5,0.8-4.5-0.1-6.4-0.8c-3.5-1.2-4.6-3.9-5.8-4.6l-0.9,0.2
				c-0.7,0-3.5-1.6-4-2.5c-0.1-0.8-0.2-2.2-0.2-3.4c0.2-3.8,0.6-3.4,1.7-6.4c1.2,0.1,2.4,0.2,3.6,0.3c0,2.6-0.8,6.9,0.7,8.5
				c1.7,1.8,3.1,2.4,4.2,3.3C81.8,159.2,84.2,161.7,86.6,159.7z"/>
			<path class="des-st1" d="M78.4,149c-0.5,0.7-1.4,1.1-2.7,1.5c1.8,2.9,2.1,2.7,4.7,4.7c1.2,2,1.3,2.4,2.2,3.1c1,0.8,2.5,1.7,3.2,1.2
				c0.3-0.2,0-0.9-1.1-2c-1.2-1.3-2.5-2.5-3.6-3.8C80,152.2,79.1,150.8,78.4,149z"/>
		</g>
		<g>
			<path class="des-st2" d="M86.7,45.3c0-3.5,1.4-5.9,2.7-7.1c2.6-1.5,6.2,0.6,7.1,5.8c0.7,4,0.4,11.5,1.9,15.6
				c2.8,2.6,11.9,15.2,11.9,15.2l-2.3,4.5l-7.8-5c0,0-5.7-4.3-7.1-6c-1.3-1.6-2.8-3.5-3.5-4.8C87.4,59.3,87.1,53.5,86.7,45.3z"/>
		</g>
		<path class="des-st3" d="M95.6,138.8c0,0,0.5-7.9-0.2-19c-1.2-18-2.8-42.9-2.2-48.8l2.4-23.8c0,0,0,0-0.1-0.1c0.1-0.5,0.1-1.1,0.1-1.6
			c0-4.8-2.2-8.6-5-8.6c-13-3.1-23,9.7-23,9.7l0.1,0c-1.8,1.8-3,5.2-3,9c0,2,0.3,3.9,0.9,5.5c0.5,1.6,1.7,5.4,3.1,9.8l0,0
			c0,0,1.2,10.3,0.4,18.7c-0.3,3.4,0.6,17.1,0.1,30.3c-0.4,10.4-2.1,20.3-2.3,25.8l-0.3,3.9l0,0.5c0,0.5,0.2,0.9,0.6,1.2l0.6,0.4
			l2.5,1.8c0,0,3.4,1.7,6.5-0.2c4.4-2.6,3.7-4.4,3.7-4.4s0-0.1,0-0.3c0-0.1,0-0.1,0-0.1s-0.3-11.9,0.2-24.1
			c0.5-12.9,1.9-26.3,2.3-26.4l1.4,25.5l-1.2,17.7l0,0.5c0,0.5,0.2,0.9,0.6,1.1l0.6,0.3l2.5,1.5c0,0,3.9,1.9,6.3-0.7
			C96,141.1,95.6,138.8,95.6,138.8z"/>
		<path class="des-st4" d="M95.4,119.8c-1.2-18-2.8-42.9-2.2-48.8l2.4-23.8v-1.7c0,0,0-0.5-0.7-1.6c-0.2-1.3-0.4-2.6-0.9-3.9
			c-0.3-0.7-0.6-1.4-0.9-2c-0.7-0.7-1.6-1.2-2.5-1.2c-0.4-0.1-0.9-0.2-1.3-0.3c1.5,1.6,2.8,3.9,3.2,6.9h-0.1
			c-2.5,3.2-7.4,4.6-10.1,5.1c-0.2-1-0.5-1.9-0.8-2.8c-1.1-3-3.2-5.2-4.9-6.7c-1.1,0.6-2.2,1.3-3.1,2c2.1,1.5,4.7,4.1,5.7,8.6
			c0,0.3,0.3,4.9-1,7.1c-0.7,1.1-1.7,2.2-3,2.3c0.4,4.3-6.9,8.3-6.9,8.3s-0.1,0.2-0.4,0.7c0.3,0.9,0.6,1.9,0.9,2.8l0,0
			c0,0,1.2,10.3,0.4,18.7c-0.3,3.4,0.6,17.1,0.1,30.3c-0.4,10.4-2.1,20.3-2.3,25.8l-0.3,3.9l0,0.5c0,0.5,0.2,0.9,0.6,1.2l0.6,0.4
			l2.5,1.8c0,0,3.4,1.7,6.5-0.2c4.4-2.6,3.7-4.4,3.7-4.4s0-0.1,0-0.3c0-0.1,0-0.1,0-0.1s-0.3-11.9,0.2-24.1
			c0.5-12.9,1.9-26.3,2.3-26.4l1.4,25.5l-1.2,17.7l0,0.5c0,0.5,0.2,0.9,0.6,1.1l0.6,0.3l2.5,1.5c0,0,3.9,1.9,6.3-0.7
			c2.7-2.8,2.3-5.1,2.3-5.1S96.1,130.9,95.4,119.8z"/>
		<path class="des-st5" d="M93.3,143.9c2.7-2.8,2.3-5.1,2.3-5.1s0.5-7.9-0.2-19c-1.2-18-2.8-42.9-2.2-48.8L95,53l-3.3,20l-5.3,3.7
			l-10.1-8.8l-7.3,7.4c0,0.4,0.1,0.9,0.1,1.3l11.1,9.2v3.8l1.7,1.3l1.1,6.9l1.4,25.5l-1.2,17.7l0,0.5c0,0.5,0.2,0.9,0.6,1.1l0.6,0.3
			l2.5,1.5C87,144.6,90.8,146.5,93.3,143.9z"/>
		<polygon class="des-st3" points="86,114.6 89.8,154.4 109.8,166.5 109.7,128.2 		"/>
		<polygon class="des-st6" points="109.7,128.2 134.3,113.9 129,152.3 109.8,166.5 		"/>
		<polygon class="des-st7" points="89.5,142.7 108.8,132.2 108.9,153.2 		"/>
		<path class="des-st7" d="M89.8,140.6c0.4,0.1,0.9,0.3,1.3,0.4c0.2,0.1,0.4,0.1,0.6,0c0.3-0.2,0.2-0.7,0.4-1c0.5,0.2,1,0.5,1.4,0.8
			c0.2-0.5,0.4-1.1,0.7-1.5c0.3,0.1,0.5,0.1,0.8,0.2c-0.2-0.7,0.1-1.6,0.7-2c0.3,0.2,0.6,0.4,1,0.4c0.2-0.6,0.4-1.2,0.5-1.8
			c0.7,0.5,1.8,0.2,2.2-0.6c0.4,0.3,0.9,0.5,1.4,0.5c0-0.3,0-0.7,0.2-1c0.2-0.3,0.6-0.5,0.9-0.3c0.1,0.1,0.2,0.2,0.4,0.2
			c0.2,0,0.4-0.3,0.4-0.5c0-0.2,0-0.6,0.2-0.7c0.2,0,0.4,0.2,0.6,0.4c0.2,0.1,0.5,0.2,0.7,0.1c0.1-0.1,0.1-0.2,0.2-0.3
			c0.2-0.4,0.4-0.9,0.6-1.3c0.3,0.3,0.7,0.4,1.1,0.3c0-0.1-0.1-0.3-0.2-0.3c1,0,1.8-0.8,2-1.7c0.4,0.1,0.9,1,1,1.4
			c0.1,0.5-0.3,0.5-0.6,0.9c-0.3,0.4-0.7,0.7-1,1.1c-0.4,0.5-0.7,1.1-1,1.7c-0.6,1.1-1.3,2.1-2,3.1c-1.3,1.8-2.6,3.6-4,5.3
			c-0.1,0.1-0.2,0.2-0.3,0.3c-0.2,0.1-0.4,0-0.6-0.1c-3-1.3-6.6-0.3-9.5-1.9C90.2,142.4,90.1,140.7,89.8,140.6z"/>
		<path class="des-st8" d="M110.9,131.1c0.2,0.4,0.5,0.8,0.8,1.2c0.2-0.1,0.5-0.2,0.7-0.4c0,0.3,0.1,0.6,0.3,0.8
			c0.3-0.4,0.9-0.5,1.4-0.3c-0.2,0.1-0.1,0.4,0,0.6s0.4,0.2,0.6,0.2c0.4,0.1,0.9,0.2,1.3,0.2c0,0.1-0.1,0.2-0.1,0.3
			c0.6,0.2,1.2-0.2,1.7-0.5c-0.3,0.4-0.2,0.9,0.2,1.2c0.5-0.2,1-0.2,1.5-0.1c-0.1,0.1-0.2,0.2-0.2,0.3c0.1,0.2,0.2,0.3,0.4,0.4
			c0.5-0.5,1-0.8,1.6-1.1c-0.1,0.3-0.2,0.7-0.2,1.1c0,0.4,0.3,0.7,0.6,0.8c0.2-0.3,0.5-0.6,0.9-0.6c-0.1,0.8,0.5,1.4,1.1,1.9
			c0.1,0.1,0.2,0.2,0.4,0.2c0.1,0,0.3,0,0.4,0c0.7-0.2,1.5-0.4,2.2-0.5c-0.2,0.3-0.3,0.7-0.4,1c0.5-0.3,1.1-0.4,1.6-0.2
			c-0.1,0.2-0.2,0.4-0.4,0.6c0.4,0,0.8,0.1,1.2,0.3c-0.3,0-0.6,0.2-0.7,0.5c0.7-0.1,1.4,0.3,1.8,0.8c-2.4-0.3-4.8-0.3-7.3-0.6
			c-1.7-0.2-3.4-0.6-5.1-1c-0.2,0-0.4-0.1-0.5-0.2c-0.1-0.1-0.3-0.2-0.4-0.4c-1.1-1.3-2.4-2.5-3.7-3.6c-0.6-0.6-1.4-0.8-2-1.3
			c-0.1-0.1-0.1-0.5-0.3-0.4C110.5,132.3,110.9,131.2,110.9,131.1z"/>
		<polygon class="des-st8" points="110.4,153.2 129.7,139.9 110.4,132.2 		"/>
		<g>
			<g>
				<path class="des-st9" d="M99.5,87.2c0.5,0,0.8,0,1.2-0.1c14.8,21.2,7,32.2,7.6,52.4c-0.7,0.1-1,0.1-1.7,0.3
					C105.7,119.6,114.1,108.6,99.5,87.2z"/>
				<path class="des-st9" d="M102.7,95.7c0.6,0,0.9,0,1.4,0c6,17.5,0.2,28.5,1.2,44.4c-0.7,0.2-1,0.3-1.6,0.5
					C102.3,124.4,108.6,113.4,102.7,95.7z"/>
				<path class="des-st9" d="M102.8,105.7c0.6,0,0.9,0,1.6,0c-0.1,12.5-3.4,22.2-2,35.5c-0.6,0.2-1,0.4-1.6,0.7
					C98.9,128.1,102.5,118.4,102.8,105.7z"/>
				<path class="des-st9" d="M90.7,85.6c0.7,0.2,1.1,0.3,1.8,0.5c16,22.9,3.2,33.9,7,56.3c-0.6,0.3-0.9,0.4-1.5,0.7
					c-2.5-12.1-0.3-18.4,1.2-28.3C101,103.3,98.6,96.7,90.7,85.6z"/>
				<path class="des-st9" d="M94.4,94.6c0.6,0.1,0.9,0.2,1.5,0.3c6.2,19.5-3.7,29.7,0.9,48.9c-0.6,0.3-0.8,0.5-1.4,0.7
					C89.9,124.5,100.7,114.7,94.4,94.6z"/>
			</g>
			<g>
				<path class="des-st7" d="M119.8,85c0.5,0,0.8,0,1.2,0c12.3,22.6,3.3,32.8,1.7,52.9c-0.7,0-1,0-1.7,0.1
					C122.3,117.8,131.8,107.8,119.8,85z"/>
				<path class="des-st7" d="M122,93.8c0.6,0.1,0.9,0.1,1.4,0.2c4,18-3,28.4-3.8,44.3c-0.7,0.1-1,0.2-1.7,0.3
					C118.4,122.3,125.8,112,122,93.8z"/>
				<path class="des-st7" d="M121,103.8c0.6,0.1,0.9,0.1,1.5,0.2c-1.5,12.4-5.9,21.7-6,35c-0.7,0.2-1,0.3-1.6,0.5
					C114.6,125.6,119.3,116.3,121,103.8z"/>
				<path class="des-st7" d="M111.2,82.5c0.7,0.3,1,0.4,1.7,0.7c13.4,24.5-0.6,34,0.6,56.7c-0.6,0.2-0.9,0.3-1.5,0.6
					c-1.1-12.3,1.8-18.3,4.4-28C119.4,101.2,117.8,94.3,111.2,82.5z"/>
			</g>
		</g>
		<g>
			<g>
				<path class="des-st8" d="M122,78.4l-2.7-1.5l-8.3-4.8L89.8,84.4l8.3,4.8l2.7,1.5l9.1,5.3l21.2-12.3l0,0L122,78.4z"/>
			</g>
			<polygon class="des-st9" points="109.8,96 109.8,123.3 100.7,118.1 98,116.5 89.8,111.8 89.8,84.4 			"/>
			<g>
				<path class="des-st7" d="M109.8,96l0,27.3l21.3-12.2V83.7L109.8,96z"/>
			</g>
			<path class="des-st10" d="M117.7,98.4c0.1,0,0.1-0.1,0.2-0.1c0.1,0,0.1,0,0.1,0l6.7,4.1l2.6-4.9l-2.6-1.6l-2.3,4.2l-0.9-0.6l2.8-5.3
				c0-0.1,0.1-0.1,0.1-0.2c0.1-0.1,0.1-0.1,0.2-0.1c0.1,0,0.1-0.1,0.2-0.1c0.1,0,0.1,0,0.1,0l3.8,2.3c0.1,0.1,0.1,0.2,0.1,0.3
				c0,0.1,0,0.3-0.1,0.5l-3.8,7.1c0,0.1-0.1,0.1-0.1,0.2c-0.1,0.1-0.1,0.1-0.2,0.1c-0.1,0-0.1,0.1-0.2,0.1c-0.1,0-0.1,0-0.1,0
				l-6.7-4.1l-2.6,4.9l2.6,1.6l2.2-4.2l0.9,0.6l-2.8,5.3c0,0.1-0.1,0.1-0.1,0.2c-0.1,0.1-0.1,0.1-0.2,0.1c-0.1,0-0.1,0.1-0.2,0.1
				c-0.1,0-0.1,0-0.1,0l-3.8-2.3c-0.1-0.1-0.1-0.2-0.1-0.3s0-0.3,0.1-0.5l3.8-7.1c0-0.1,0.1-0.1,0.1-0.2
				C117.6,98.5,117.7,98.5,117.7,98.4z"/>
		</g>
		<polygon class="des-st6" points="97.9,89.1 118.8,76.6 121.6,78.2 100.7,90.7 		"/>
		<polygon class="des-st11" points="100.7,102.5 97.9,100.9 97.9,89.1 100.7,90.7 		"/>
		<polyline class="des-st12" points="99.3,101.7 99.3,89.9 120.4,77.5 		"/>
		<g>
			<path class="des-st13" d="M88.1,82.8c-4.7-3.5-7.3-8-11.8-11.7c-0.2-2.6-0.6-6-1.3-10.5c-0.2-1.7-0.4-3.2-0.7-4.4
				c-0.9-4.3-3.2-6.2-5.4-6c-1.4,0.2-2.9,0.9-3.3,3.5c-0.3,1.9,0,4.1,0.2,5.4c0.6,4.6,2.3,10.4,3.7,14.5c0.1,0.3,0.2,0.6,0.3,0.9
				c0.3,1.4,0.9,2.4,1.9,3.3c3.8,3,7.5,4.6,10.6,6.7c0.9,0.6,1.9,1.2,2.6,2c1,1,1.6,2.2,2.5,3.3c1,1.2,3.3,2.9,4.9,2.9
				c3.3,0.1,3.1-0.3,4.6-2.9c0.2-0.4,2.3-2.5,2-2.4c-1,0.3-1.5,0.8-2,0.9c-0.9,0.2-2.2,0.1-2.8-0.5c-0.4-0.3-0.7-0.7-1-1.1
				c0.3,0.1,0.6,0.2,0.8,0.3c1,1,2.4,1.2,2.9,0.2c-0.8-0.6-1.6-1.4-2.3-2c-0.7-0.7-1.3-1.2-2.7-1.5C90.7,83.3,89.4,83.4,88.1,82.8z"
				/>
			<path class="des-st14" d="M72.4,73.8c-0.7-2.4-4.1-18.1-3.4-23.7c-1.4,0.2-2.9,0.9-3.3,3.5c-0.3,1.9,0,4.1,0.2,5.4
				c0.6,4.6,2.3,10.4,3.7,14.5c0.1,0.3,0.2,0.6,0.3,0.9c0.3,1.4,0.9,2.4,1.9,3.3c5,4,9.7,5.6,13.2,8.8c0.9,1,1.6,2.6,2.3,3.4
				c0.8,1.1,3.5,2.5,5.1,2.9c1.4,0.3,2.7-0.1,4.4-1.4c0.2-0.3,2.3-3.5,2.4-4.1c-0.4,0.1-2.8,2.4-3.1,2.4c-2.6,0.1-5.1-0.9-6.3-2
				c-1.1-1-2.8-1.9-4.1-2.9C80.5,80.4,76.2,76.3,72.4,73.8z"/>
			<path class="des-st15" d="M90.8,86.8c1.4,1.2,2.2,1.8,3.5,2c3.5,0.6,4.7-1.2,4.7-1.5c-0.2-0.2-0.5-0.2-0.6-0.2
				c-0.6,0-1.4,0.9-1.8,0.9c-0.9,0.2-2,0.2-2.6-0.4c-0.7-0.6-1.3-1.5-1.8-2.3c0.6,0.2,1.3,0.5,1.6,0.7c1,1,2.4,2,2.9,1
				c-0.8-0.6-1.6-1.4-2.3-2c-0.7-0.7-1.3-1.2-2.7-1.5c-1.1-0.3-2.3-0.2-3.7-0.8c-4.7-3.5-7.3-8-11.8-11.7c-0.2-2.6-0.6-6-1.3-10.5
				c-0.2-1.7-0.4-3.2-0.7-4.4c-0.6-2.7-1.7-4.5-3-5.3C71,53.3,73.3,66,74.6,72.5c4.2,3.4,7.5,7,10.5,9.9C87,84.2,89,85.2,90.8,86.8z
				"/>
		</g>
		<g>
			<path class="des-st16" d="M84.5,86.8l-6.3-4.3c0,0-6.1-3.6-7.5-5.3c-1.3-1.6-2.4-4.1-3.2-5.5c-2.3-4-2.6-9.9-2.9-18.1
				c0-3.5,1.4-5.9,2.7-7.1c2.6-1.5,6.2,0.6,7.1,5.8c0.7,4,0.4,11.5,1.9,15.6c2.8,2.6,12.1,14.4,12.1,14.4S85,84.1,84.5,86.8z"/>
		</g>
		<g>
			<path class="des-st16" d="M84.5,86.8l-6.3-4.3c0,0-6.1-3.6-7.5-5.3c-1.3-1.6-2.4-4.1-3.2-5.5c-2.3-4-2.6-9.9-2.9-18.1
				c0-3.5,1.4-5.9,2.7-7.1c2.6-1.5,6.2,0.6,7.1,5.8c0.7,4,0.4,11.5,1.9,15.6c2.8,2.6,12.1,14.4,12.1,14.4S85,84.1,84.5,86.8z"/>
		</g>
		<path class="des-st3" d="M72.4,73.8c0,0-6.8-4.1-7.8-20.2c0.4,8.2,0.7,14.1,2.9,18.1c0.8,1.3,1.9,3.9,3.2,5.5c1.4,1.7,7.5,5.3,7.5,5.3
			l6.3,4.3c0.1-0.8,0.5-1.4,0.9-2L72.4,73.8z"/>
		<g>
			<path class="des-st14" d="M87.4,41.6c0.1-0.3,0.2-0.6,0.3-0.9c0.3-0.9,0.3-2.8,0.9-4.9l-8.3-3.6l-1.8-0.9c0.6,3.1,0.3,5-0.6,7.2
				c-0.1,3,5.6,5.1,8.8,5.8C87.1,43.6,87.1,42.5,87.4,41.6z"/>
			<path class="des-st17" d="M78.8,40.4c3-1.1,5.3,0.3,9.2-0.8c0.1-1,0.3-2.3,0.7-3.8l-8.3-3.6l-1.8-0.9c0.6,3.1,0.3,5-0.6,7.2
				C78,39.1,78.3,39.8,78.8,40.4z"/>
		</g>
		<path class="des-st14" d="M87.6,39.3c-1.1-0.5-3.9-1.8-4.9-2.3c-2-1.2-1.6-3.4-3.8-5.2c-2-1-2.3-2-2.7-3.1c-0.8-2.6-0.1-5.7,1.7-7.6
			c1.6-1.7,3.6-2.4,6-2.3c4.4,0.2,7.1,3.3,7.8,7c0,0.2,0.3,0.4,0.3,0.5c0.1,0.3,0.1,0.6,0.1,1c-0.1,0.8-0.2,0.5-0.1,1.1
			c0.1,0.7,0.5,1.2,0.6,2.1c0.1,1.5-0.1,2.4-0.3,4c0,0.6-0.2,1.3-0.2,1.9c0,1.1-0.1,1.5-0.2,1.7c-0.3,0.3-0.6,0.5-1,0.7
			c-0.7,0.4-1.5,0.6-1.9,0.6C88.4,39.5,88,39.4,87.6,39.3z"/>
		<path class="des-st14" d="M87.6,39.3c-1.1-0.5-3.9-1.8-4.9-2.3c-2-1.2-1.6-3.4-3.8-5.2c-2-1-2.3-2-2.7-3.1c-0.8-2.6-0.1-5.7,1.7-7.6
			c1.6-1.7,3.6-2.4,6-2.3c0.1,0,0.1,0,0.2,0l0,0c3.9,0.3,6.2,2.4,7.2,5.5c-0.5,0.5-4.5,1.8-7.6,2.2c-1.2,1-0.9,1.9-0.1,3.1
			c0.4,0.5,0.5,0.6,0.3,0.8c-0.2,0.3-0.3,0.2-0.6,0.6c-0.4,0.4-0.3,1.1,0.2,1.4c0.6,0.6,1.9,1.1,2.3,1.3c1,0.6,1.4,2,1.6,3
			c0.2,1.2,0.7,2.8,2.7,2.5c-0.5,0.2-1,0.3-1.2,0.3C88.4,39.5,88,39.4,87.6,39.3z"/>
		<path class="des-st18" d="M81.6,30.4c-0.7-2.3,0.4-2.8-0.2-4.1c-0.9-1.9-4.2-2.5-4.7-3.4c-1.5,2.2-1.4,5.9,0.7,8
			c1,1.1,1.3,1.6,1.7,3.3c0.4-0.9,0.4-1.1,0.6-1.9c-0.1-0.1-0.3-0.3-0.4-0.5c-0.2-0.5-0.8-0.4-1-1c-0.3-0.9-0.4-2.4,1.1-2
			c0.6,0.1,1,0.7,1.1,1.3c0.1,0.3,0.3,0.6,0.4,0.8C81,30.7,81.3,30.5,81.6,30.4z"/>
		<path class="des-st4" d="M83.6,27.5c0,0,7.1-1.6,7.7-3.2c0-1.5-1.6-5.5-1.6-5.5s-4.6-1.9-9.8-0.4c-5.1,2.4-4.2,8.2-4.2,8.2
			S81.3,27.5,83.6,27.5z"/>
		<path class="des-st4" d="M75.7,26.6c0,0,9.3,2.4,10.4,2.5c1.1,0.1,9.5-2.2,10.5-3.2c-3.6-1.1-5.5-1.9-5.5-1.9L75.7,26.6z"/>
		<path class="des-st4" d="M75.7,26.6c0,0,11.6,3.7,12.8,3.7c1.1,0.1,9.1-2.5,10.1-3.8c-3.8-1.1-7.3-2.2-7.3-2.2L75.7,26.6z"/>
		<path class="des-st19" d="M89.5,19c0,0-2.8,0.9-4.2,1.1c-1.4,0.2-3.6,3.6-3.3,5.4C82.2,27.3,91,24,91,24L89.5,19z"/>
		<polygon class="des-st20" points="109.8,111.8 109.7,128.2 99.2,122.2 96.1,120.5 86,114.6 84.2,97.1 		"/>
		<g>
			<path class="des-st3" d="M109.8,111.8l0,16.3l24.6-14.2l2.4-17.6L109.8,111.8z"/>
		</g>
		<polygon class="des-st21" points="89.8,96 89.8,94.1 84.2,97.1 109.8,111.8 109.8,107.8 		"/>
		<polygon class="des-st21" points="131.1,95.2 131.1,93.4 136.7,96.3 109.8,111.8 109.8,107.8 		"/>
		<polygon class="des-st22" points="131.1,95.2 109.8,107.8 89.8,96 88.5,96.8 109.8,109.2 132.4,96 		"/>
		<path class="des-st23" d="M87.3,52.8C87.3,52.8,87.3,52.8,87.3,52.8c0.1,0,0.1,0,0.1,0l2.3,1.2l0.9-1.4l-0.9-0.4l-0.8,1.2l-0.3-0.2
			l1-1.5c0,0,0,0,0-0.1c0,0,0,0,0.1,0c0,0,0,0,0.1,0c0,0,0,0,0,0l1.3,0.6c0,0,0,0,0,0.1c0,0,0,0.1,0,0.1l-1.3,2c0,0,0,0,0,0.1
			c0,0,0,0-0.1,0s0,0-0.1,0c0,0,0,0,0,0l-2.3-1.2l-0.9,1.4l0.9,0.4L88,54l0.3,0.2l-1,1.5c0,0,0,0,0,0.1c0,0,0,0-0.1,0c0,0,0,0-0.1,0
			c0,0,0,0,0,0l-1.3-0.7c0,0,0,0,0-0.1s0-0.1,0-0.1l1.3-2C87.2,52.9,87.2,52.8,87.3,52.8C87.2,52.8,87.3,52.8,87.3,52.8z"/>
		<polygon class="des-st9" points="89.5,142.7 108.9,153.2 108.9,164.3 90.6,153.5 		"/>
		<polygon class="des-st7" points="110.4,153.2 110.4,164.3 128.3,151.3 129.7,139.9 		"/>
		<g>
			
				<ellipse transform="matrix(0.3312 -0.9436 0.9436 0.3312 -39.2903 188.4672)" class="des-st24" cx="113.3" cy="122" rx="1.4" ry="0.8"/>
			
				<ellipse transform="matrix(0.3312 -0.9436 0.9436 0.3312 -36.232 190.0511)" class="des-st25" cx="116" cy="120.6" rx="1.4" ry="0.8"/>
		</g>
		<path class="des-st9" d="M89.5,142.7c0.3,0.5,2.4,0.4,2.8,0c0.6,0.8,1.3,1.5,2.2,2c-0.2,0-0.3,0.1-0.4,0.2c0.5,0,1,0.1,1.5,0.3
			c0,0.1-0.1,0.2-0.1,0.3c0.3-0.1,0.5,0.1,0.7,0.2s0.4,0.3,0.7,0.3c0.3,0,0.6-0.2,0.5-0.5c0.3,0.4,0.6,0.9,1,1.3
			c1.1-0.1,2.3-0.2,3.4-0.4c-0.2,0.4-0.4,0.8-0.6,1.2c0.5-0.1,1,0,1.4,0.3c-0.3,0.1-0.5,0.3-0.6,0.6c1.2,0.3,2.3,0.6,3.5,1
			c-0.2-0.1-0.5,0.1-0.4,0.4c0,0.2,0.3,0.4,0.5,0.5c0.2,0.1,0.5,0.1,0.6,0.3c0.2,0.2,0.4,0.5,0.5,0.7c0.4-0.3,0.8-0.5,1.2-0.6
			c0.4,0.8,0.6,1.5,1,2.3c-3.1,0.2-5.9,0.5-9,0.7c-0.5,0-1,0.1-1.4-0.2c-0.5-0.3-0.8-0.8-1.2-1.2c-0.7-0.6-1.9-0.6-2.6-1.3
			c-0.5-0.5-0.6-1.2-0.8-1.9c-0.3-1.1-0.6-2.1-1.1-3.1c-0.3-0.6-0.6-1.2-1.2-1.5c-0.2-0.1-0.4-0.2-0.6-0.3c-0.2-0.2-0.4-0.4-0.6-0.7
			C89.5,142.8,90.7,143.5,89.5,142.7z"/>
		<path class="des-st7" d="M110.5,153.1c0.1-0.7,0.3-1.5,0.4-2.2c0.4,0.2,0.7,0.4,1.2,0.4c0.2-0.5,0.6-0.9,1-1.3
			c0.5-0.4,1.2-0.7,1.7-0.4c0.3-0.4,0.4-0.9,0.5-1.3c0.5,0.1,0.9,0.2,1.4,0.2c-0.4-0.3-0.7-0.9-0.6-1.4c0.7,0.1,1.3,0.2,2,0.3
			c-0.1-0.5-0.3-1.1-0.4-1.6c0.5,0.3,1.1,0.6,1.6,0.8c0-0.3,0.3-0.5,0.6-0.5c-0.2-0.4-0.4-0.9-0.4-1.3c1,0,2-0.1,2.9-0.2
			c0.1,0,0.2,0,0.2-0.1c0,0,0.1-0.1,0.1-0.2c0.2-0.6,0.4-1.3,0.6-1.9c0.4,0.2,0.9,0.4,1.3,0.5c0-0.2,0-0.5,0-0.7
			c0-0.1,0-0.1,0.1-0.2c0,0,0.1,0,0.2,0c0.4,0,0.9,0.1,1.3,0.1c-0.4-0.1-0.7-0.5-0.8-0.9c0.6,0.2,1.2,0.2,1.7,0.1
			c-0.4-0.3-0.6-0.8-0.5-1.3c0.6,0.2,1.3,0.4,1.9,0.4c-0.1,0-0.2-0.1-0.3-0.1c0-0.1,0-0.2,0-0.3c0.5,0.1,1,0,1.3-0.2
			c-0.2,0.4-0.7,0.7-1.1,1c-0.3,0.4-0.5,0.8-0.7,1.3c-1.2,3-3.2,5.6-5.2,8.2c-0.8,1-1.6,2-2.3,3c-0.2,0.3-0.4,0.6-0.8,0.6
			c-0.2,0.1-0.4,0-0.6,0c-2.6-0.3-5.2,0.1-7.7-0.1c0.2-0.1,0-0.3-0.2-0.4s-0.4-0.1-0.5-0.3L110.5,153.1z"/>
		<path class="des-st7" d="M94.8,141.2c1,0.6,2.1,1.2,3.3,1.6c0.2-0.9,0.9-1.7,1.8-2.3c0.2,0.2,0.4,0.5,0.7,0.6c0.3,0.1,0.7,0.2,0.9,0
			c0.1,0.2,0.3,0.3,0.6,0.3c-0.2-0.6,0-1.4,0.6-1.8c0.3,0.4,0.9,0.7,1.5,0.8c0-0.4,0-0.8,0-1.2c0.4,0.1,0.9,0.3,1.3,0.2
			s0.9-0.4,0.8-0.8c0.1,0.3,0.5,0.4,0.8,0.4c0.3-0.1,0.6-0.2,0.9-0.4c0.8,1.5,1,3.3,0.3,4.9c-0.1,0.2-0.2,0.4-0.3,0.5
			c-0.3,0.2-0.7,0.1-1.1,0.1c-1.5-0.2-3.1-0.2-4.6-0.2c-0.4,0-0.9,0-1.2,0.3c-0.2,0.1-0.3,0.3-0.5,0.4c-0.2,0.1-0.5,0.2-0.8,0.2
			c-0.9,0.1-1.9,0-2.8-0.1c0.1,0.2-0.1,0.4-0.3,0.4c-0.6,0.2-1.2-0.2-1.6-0.6c-0.4-0.5-0.9-0.9-1-1.4
			C94.1,142.8,95,141.3,94.8,141.2z"/>
		<path class="des-st8" d="M110.9,137.9c0.5,0.3,1.1,0.5,1.8,0.5c-0.3-0.4-0.2-1,0.1-1.3c0.5,0.5,1.2,0.6,1.8,0.4
			c-0.2-0.5,0.1-1.2,0.5-1.5c0.2,0.3,0.4,0.5,0.6,0.7c0.1,0.1,0.2,0.1,0.3,0.1c0.3-0.1,0.1-0.7,0.3-0.9c0.3,0.1,0.5,0.3,0.6,0.6
			c0.3-0.3,0.5-0.6,0.8-0.9c0,0.1,0.1,0.3,0.1,0.4c0.7-0.1,1.5-0.2,2.2-0.1c0,0.4,0.3,0.6,1.1,1.1c0.8,0.4,2.1,1.1,2.3,1.5
			c-2.7,0.4-7.8,2.4-9.8,4.2c-0.6-0.8-1.2-1.6-1.8-2.4c-0.2-0.3-0.5-0.6-0.9-0.6C110.5,139.8,110.8,138.3,110.9,137.9z"/>
	</g>
	<g>
		<path class="des-st9" d="M114.7,157.9c-0.3,0-0.5-0.1-0.7-0.3c-0.3-0.2-0.4-0.5-0.5-0.7c-0.3-0.7-0.6-1.5-0.8-2.2l0.8-0.2
			c0.2,0.7,0.4,1.4,0.7,2.1c0.1,0.2,0.2,0.3,0.3,0.4c0.4,0.3,1-0.3,1.4-0.6l0.6,0.5C115.9,157.6,115.3,157.9,114.7,157.9z"/>
		<path class="des-st9" d="M116.9,154.3l-0.2-0.3c-0.5-0.6-0.8-1.3-1.1-2.1l0.8-0.3c0.2,0.6,0.5,1.1,0.8,1.6l2-1l0.3,0.7L116.9,154.3z"
			/>
		<path class="des-st9" d="M118.9,150.2l-0.1-0.8c0.5-0.1,0.8-0.3,1.1-0.4c0.4-0.2,0.8-0.5,1.7-0.5l0,0.8c-0.6,0-0.9,0.1-1.3,0.4
			C119.9,149.9,119.6,150.1,118.9,150.2z"/>
		<path class="des-st9" d="M123.2,153.3c-0.4-0.6-0.7-1.3-0.8-2l0.8-0.1c0.1,0.6,0.3,1.1,0.6,1.6L123.2,153.3z"/>
		<path class="des-st9" d="M124.1,147.9c0-0.4,0.1-0.8,0.4-1.2c0.3-0.3,0.8-0.5,1.2-0.4l-0.1,0.8c-0.2,0-0.4,0-0.5,0.2
			c-0.1,0.1-0.2,0.3-0.2,0.5L124.1,147.9z"/>
		<path class="des-st9" d="M126.8,150.7l-0.8-0.1c0-0.2,0-0.4-0.1-0.5l0.7-0.4C126.8,150,126.9,150.3,126.8,150.7z"/>
		<rect x="119" y="154.8" transform="matrix(0.9812 -0.1928 0.1928 0.9812 -27.6696 26.0544)" class="des-st9" width="2" height="0.8"/>
		<path class="des-st9" d="M127.8,145.5c-0.2,0-0.4-0.1-0.5-0.3l-0.1-0.1l0-0.4l0.6,0c0,0,0-0.1,0-0.2c-0.1-0.5-0.4-1-0.8-1.3l0.6-0.6
			c0.5,0.5,0.8,1,1,1.7c0.1,0.2,0.1,0.6,0,0.9C128.4,145.3,128.1,145.5,127.8,145.5C127.9,145.5,127.8,145.5,127.8,145.5z"/>
		<path class="des-st9" d="M124.2,145.2l-0.8,0c0-0.5,0.4-0.8,0.8-0.9l0.1,0.8C124.2,145.1,124.2,145.2,124.2,145.2z"/>
	</g>
	<g>
		<path class="des-st7" d="M104.7,159c-0.5,0-1.2-0.4-1.7-1l0.6-0.5c0.3,0.4,1,1,1.4,0.7c0.1-0.1,0.2-0.3,0.3-0.4
			c0.3-0.7,0.6-1.4,0.8-2.1l0.8,0.2c-0.2,0.8-0.5,1.5-0.9,2.2c-0.1,0.2-0.3,0.5-0.5,0.7C105.2,158.9,105,159,104.7,159z"/>
		<path class="des-st7" d="M102.7,155.2l-2.5-1.4l0.4-0.7l2,1c0.4-0.5,0.6-1,0.9-1.6l0.7,0.3c-0.3,0.7-0.7,1.4-1.2,2L102.7,155.2z"/>
		<path class="des-st7" d="M100.8,151.1c-0.7-0.1-1-0.4-1.3-0.6c-0.4-0.2-0.6-0.4-1.2-0.4l0-0.8c0.9,0,1.3,0.3,1.7,0.5
			c0.3,0.2,0.6,0.4,1.1,0.5L100.8,151.1z"/>
		<path class="des-st7" d="M96.4,154l-0.6-0.5c0.4-0.4,0.6-1,0.7-1.6l0.8,0.1C97.2,152.8,96.9,153.5,96.4,154z"/>
		<path class="des-st7" d="M95.7,148.6l-0.8-0.1c0-0.2,0-0.4-0.2-0.5s-0.3-0.2-0.5-0.2l-0.1-0.8c0.4,0,0.8,0.1,1.1,0.5
			C95.6,147.8,95.7,148.2,95.7,148.6z"/>
		<path class="des-st7" d="M92.9,151.3c0-0.4,0-0.7,0.2-1l0.7,0.4c-0.1,0.2-0.1,0.3-0.1,0.5L92.9,151.3z"/>
		<rect x="99.1" y="155" transform="matrix(0.2322 -0.9727 0.9727 0.2322 -75.3632 216.5793)" class="des-st7" width="0.8" height="2"/>
		<path class="des-st7" d="M92.1,146C92.1,146,92.1,146,92.1,146c-0.3,0-0.6-0.2-0.7-0.4c-0.2-0.3-0.1-0.7,0-0.9
			c0.2-0.6,0.6-1.2,1.1-1.6l0.5,0.6c-0.4,0.3-0.7,0.8-0.8,1.3c0,0.1,0,0.2,0,0.2l0.6,0.1l0,0.4l-0.1,0.1C92.5,146,92.3,146,92.1,146
			z"/>
		<path class="des-st7" d="M96.6,145.9l-0.8,0c0-0.1-0.1-0.1-0.1-0.1l0.1-0.8C96.2,145,96.6,145.5,96.6,145.9z"/>
	</g>
	<g>
		<path class="des-st7" d="M120.2,142l-0.2-0.8c0.5-0.1,1.3-0.5,1.2-0.9c0-0.1-0.1-0.3-0.3-0.4c-0.5-0.6-1-1.1-1.5-1.6l0.5-0.6
			c0.6,0.5,1.1,1.1,1.6,1.7c0.2,0.2,0.4,0.5,0.4,0.8C122.2,141,121.5,141.7,120.2,142z"/>
		<path class="des-st7" d="M116.3,142.3l-0.5-0.6l1.8-1.3c-0.3-0.5-0.6-1-1-1.5l0.6-0.5c0.5,0.6,1,1.2,1.3,1.9l0.1,0.3L116.3,142.3z"/>
		<path class="des-st7" d="M112.1,142.4l-0.7-0.4c0.4-0.8,0.8-1,1.2-1.3c0.3-0.2,0.6-0.3,0.9-0.8l0.6,0.5c-0.4,0.5-0.8,0.8-1.1,1
			C112.6,141.7,112.4,141.8,112.1,142.4z"/>
		<path class="des-st7" d="M114.1,146.1c-0.2-0.5-0.6-1-1.1-1.3l0.4-0.7c0.6,0.4,1.1,1,1.4,1.6L114.1,146.1z"/>
		<rect x="116.9" y="143.4" transform="matrix(0.63 -0.7766 0.7766 0.63 -68.0376 144.7912)" class="des-st7" width="2" height="0.8"/>
	</g>
	<g>
		<path class="des-st8" d="M101,146c-0.7,0-1.2-0.3-1.4-0.8c-0.1-0.3-0.1-0.6-0.1-0.9c0.1-0.8,0.3-1.6,0.5-2.3l0.8,0.2
			c-0.2,0.7-0.4,1.4-0.5,2.2c0,0.2,0,0.4,0,0.5c0.2,0.4,1,0.3,1.5,0.2l0.2,0.8C101.7,145.9,101.3,146,101,146z"/>
		<path class="des-st8" d="M107.5,143.6l-2.9-0.3l0-0.3c-0.1-0.8,0-1.6,0.1-2.4l0.8,0.2c-0.1,0.6-0.2,1.2-0.1,1.8l2.2,0.2L107.5,143.6z"
			/>
		<path class="des-st8" d="M107.2,146.7c-0.1-0.7,0.1-1.5,0.4-2.1l0.7,0.4c-0.3,0.5-0.4,1.1-0.3,1.7L107.2,146.7z"/>
		
			<rect x="103.2" y="145.7" transform="matrix(0.3431 -0.9393 0.9393 0.3431 -69.7393 193.6457)" class="des-st8" width="0.8" height="2"/>
	</g>
</g>
</svg>
