<?xml version="1.0" encoding="utf-8"?>
<!-- Generator: Adobe Illustrator 27.2.0, SVG Export Plug-In . SVG Version: 6.00 Build 0)  -->
<!DOCTYPE svg PUBLIC "-//W3C//DTD SVG 1.1//EN" "http://www.w3.org/Graphics/SVG/1.1/DTD/svg11.dtd" [
	<!ENTITY ns_extend "http://ns.adobe.com/Extensibility/1.0/">
	<!ENTITY ns_ai "http://ns.adobe.com/AdobeIllustrator/10.0/">
	<!ENTITY ns_graphs "http://ns.adobe.com/Graphs/1.0/">
	<!ENTITY ns_vars "http://ns.adobe.com/Variables/1.0/">
	<!ENTITY ns_imrep "http://ns.adobe.com/ImageReplacement/1.0/">
	<!ENTITY ns_sfw "http://ns.adobe.com/SaveForWeb/1.0/">
	<!ENTITY ns_custom "http://ns.adobe.com/GenericCustomNamespace/1.0/">
	<!ENTITY ns_adobe_xpath "http://ns.adobe.com/XPath/1.0/">
]>
<svg version="1.1" id="Calque_1" xmlns:x="&ns_extend;" xmlns:i="&ns_ai;" xmlns:graph="&ns_graphs;"
	 xmlns="http://www.w3.org/2000/svg" xmlns:xlink="http://www.w3.org/1999/xlink" x="0px" y="0px" viewBox="0 0 200 200"
	 style="enable-background:new 0 0 200 200;" xml:space="preserve">
<style type="text/css">
	.Ombre_x0020_portée{fill:none;}
	.Lueur_x0020_externe_x0020_5 pt{fill:none;}
	.Néon_x0020_bleu{fill:none;stroke:#8AACDA;stroke-width:7;stroke-linecap:round;stroke-linejoin:round;}
	.Ton_x0020_clair_x0020_chrome{fill:url(#SVGID_1_);stroke:#FFFFFF;stroke-width:0.3629;stroke-miterlimit:1;}
	.Swing_GS{fill:#FFDD00;}
	.Alysse_GS{fill:#A6D0E4;}
	.dig-st0{fill-rule:evenodd;clip-rule:evenodd;fill:#202020;}
	.dig-st1{fill-rule:evenodd;clip-rule:evenodd;fill:#3C3C3B;}
	.dig-st2{fill-rule:evenodd;clip-rule:evenodd;fill:#B1B9C1;}
	.dig-st3{fill-rule:evenodd;clip-rule:evenodd;fill:#DA9569;}
	.dig-st4{fill-rule:evenodd;clip-rule:evenodd;fill:#F1B186;}
	.dig-st5{fill-rule:evenodd;clip-rule:evenodd;fill:#E7A376;}
	.dig-st6{fill-rule:evenodd;clip-rule:evenodd;fill:#CDD4DA;}
	.dig-st7{fill:#C6C6C5;}
	.dig-st8{fill:#D9D9D9;}
	.dig-st9{fill:#2B4A99;}
	.dig-st10{fill:#213875;}
	.dig-st11{fill:#F5D2A7;}
	.dig-st12{fill:#C09A6C;}
	.dig-st13{fill:#FFFFFF;}
	.dig-st14{opacity:0.7;fill:#FFFFFF;}
	.dig-st15{fill:none;stroke:#9B9A9B;stroke-width:0.1727;stroke-miterlimit:10;}
	.dig-st16{fill:#E3BE8E;}
	.dig-st17{fill-rule:evenodd;clip-rule:evenodd;fill:#2B4A99;}
	.dig-st18{fill-rule:evenodd;clip-rule:evenodd;fill:#F5BB94;}
	.dig-st19{fill:#ECECEC;}
	.dig-st20{fill:#331F11;}
	.dig-st21{fill:#475DA6;}
	.dig-st22{fill-rule:evenodd;clip-rule:evenodd;fill:#009EE2;}
	.dig-st23{fill:#B1B1B1;}
	.dig-st24{fill:#F5F5F5;}
	.dig-st25{fill:#009EE2;}
	.dig-st26{font-family:'TTNorms-ExtraBold';}
	.dig-st27{font-size:13.6041px;}
	.dig-st28{fill:#0073A3;}
</style>
<metadata>
	<sfw  xmlns="&ns_sfw;">
		<slices></slices>
		<sliceSourceBounds  bottomLeftOrigin="true" height="142.8" width="101.8" x="53.9" y="-160.3"></sliceSourceBounds>
	</sfw>
</metadata>
<linearGradient id="SVGID_1_" gradientUnits="userSpaceOnUse" x1="0" y1="0" x2="6.123234e-17" y2="-1">
	<stop  offset="0" style="stop-color:#656565"/>
	<stop  offset="0.618" style="stop-color:#1B1B1B"/>
	<stop  offset="0.6292" style="stop-color:#545454"/>
	<stop  offset="0.9831" style="stop-color:#3E3E3E"/>
</linearGradient>
<g>
	<g>
		<g>
			<g>
				<path class="dig-st0" d="M82.3,136.5c0.5,1.8,0.6,2.7,1.4,3.7c1.5,2.1,3.6,3.5,6.8,5.8c1.5,1.1,1.8,2.1,0.3,3
					c-1.2,0.7-4.1,0.2-6-0.3c-3.4-0.8-4.8-2.9-6-3.4l-0.9,0.2c-0.7,0-3.6-1.1-4.1-1.9c-0.1-0.6-0.4-1.8-0.4-2.7
					c-0.1-2.9,0.3-2.6,1.1-4.9C77.1,136.3,79.7,136.4,82.3,136.5z"/>
				<path class="dig-st0" d="M91.8,147.7c0,0.5-0.3,0.9-1,1.3c-1.2,0.7-4.1,0.2-6-0.3c-3.4-0.8-4.8-2.9-6-3.4l-0.9,0.2
					c-0.7,0-3.6-1.1-4.1-1.9c-0.1-0.6-0.4-1.8-0.4-2.7c-0.1-2.9,0.3-2.6,1.1-4.9c1.2,0.1,2.3,0.2,3.5,0.2c0.2,1.9-0.1,5.2,1.5,6.4
					c1.8,1.4,3.1,1.7,4.3,2.5C87.5,147.5,90,149.3,91.8,147.7z"/>
				<path class="dig-st1" d="M83.2,139.8c-0.4,0.6-1.1,0.9-2.3,1.2c2,2.2,2.2,2,4.9,3.5c1.3,1.5,1.5,1.8,2.4,2.3c1,0.6,2.4,1.2,3,0.8
					c0.3-0.2-0.1-0.7-1.2-1.5c-1.3-0.9-2.6-1.8-3.7-2.8C85,142.2,84,141.1,83.2,139.8z"/>
			</g>
			<g>
				<path class="dig-st0" d="M67.2,143.3c0.3,2.4,0.3,3.6,0.9,5c1.3,2.8,3.4,4.8,6.5,7.8c1.5,1.5,1.6,2.8-0.3,3.8
					c-1.5,0.8-4.5-0.1-6.4-0.8c-3.5-1.2-4.6-3.8-5.7-4.5l-0.9,0.2c-0.7,0-3.5-1.6-3.9-2.5c-0.1-0.8-0.2-2.2-0.2-3.3
					c0.2-3.7,0.6-3.3,1.7-6.3C61.6,143,64.3,143.2,67.2,143.3z"/>
				<path class="dig-st0" d="M75.7,158.4c-0.1,0.6-0.5,1.1-1.4,1.6c-1.5,0.8-4.5-0.1-6.4-0.8c-3.5-1.2-4.6-3.8-5.7-4.5l-0.9,0.2
					c-0.7,0-3.5-1.6-3.9-2.5c-0.1-0.8-0.2-2.2-0.2-3.3c0.2-3.7,0.6-3.3,1.7-6.3c1.2,0.1,2.4,0.2,3.6,0.3c0,2.6-0.8,6.8,0.7,8.5
					c1.6,1.8,3,2.3,4.2,3.3C71,157.8,73.4,160.3,75.7,158.4z"/>
				<path class="dig-st1" d="M67.6,147.7c-0.5,0.7-1.3,1.1-2.7,1.5c1.8,2.9,2.1,2.7,4.7,4.7c1.2,2,1.3,2.4,2.2,3.1
					c1,0.8,2.5,1.7,3.2,1.1c0.3-0.2,0-0.9-1-2c-1.2-1.2-2.5-2.5-3.6-3.8C69.2,150.9,68.3,149.5,67.6,147.7z"/>
			</g>
			<g>
				<g>
					<path class="dig-st2" d="M103.4,55.1c-0.8,1.4-5.5,1.3-5.6-1.3C100,50.9,103.4,53.3,103.4,55.1z"/>
					<g>
						<g>
							<g>
								<path class="dig-st3" d="M99.8,46.6l3.7,2.5c0.9,0.6-0.4,4.9-0.6,6.3l-0.3,2.4l-1.9-3.1l-0.9-3.1l-1.1-2.4L99.8,46.6z"/>
								<path class="dig-st4" d="M102.5,49.7l0.9-0.5c0.2,0.1,0.4,0.4,0.4,0.8c0,1.5-0.8,4.4-1,5.5l-0.2,1.6l-0.6-1.8
									C102.6,52.7,102.8,50.3,102.5,49.7z"/>
							</g>
							<path class="dig-st5" d="M98.1,48.2c0.1-1.1,0.4-2.6-0.9-2.8c-0.4,1.1-0.6,2-0.8,2.8c0.1,0.3-0.1,2.9,0.3,3.9
								c0.1,0.3,0.3,0.7,0.6,1.2c0.4,0.6,1.7,1.2,2.3,2.3c1-0.2,1.2-0.5,1.2-1.1c0-0.5-0.9-2.5-1.1-3C99.1,50.2,98,48.8,98.1,48.2z"
								/>
						</g>
						<path class="dig-st6" d="M103.4,55.1c-0.8,1.4-5.5,1.3-5.6-1.3c-0.5,1.4-1.8,10.4-0.5,10.9c3.1,1.2,3.9,2.1,4.7,1.5
							C103.2,65.3,104.1,61.6,103.4,55.1z"/>
					</g>
				</g>
				<g>
					<path class="dig-st4" d="M103.5,49.2c-3.5,0.9-4.6,0.5-5.5,3.5l-2.6-1.8c-0.2-4-0.6-3.1,2.7-4.1c1.4-0.4,1.8-0.2,2.9,0.6
						L103.5,49.2z"/>
					<path class="dig-st5" d="M103.5,49.2c-3.5,0.9-4.6,0.5-5.5,3.5l-2.6-1.8c-0.1-2.4-0.3-3,0.3-3.4c1,1,2.1,1.6,3.2,2.3
						C100.5,49.4,101.8,49.4,103.5,49.2z"/>
					<path class="dig-st4" d="M103.5,49.2c-3.5,0.9-4.6,0.5-5.5,3.5c1.7,0.4,0.9-0.7,2.2-1.5c1.3-0.8,3.3-0.7,3.5-0.8
						C103.9,49.8,103.8,49.5,103.5,49.2z"/>
				</g>
			</g>
			<g>
				<path class="dig-st7" d="M75.8,44.7c0-3.5,1.4-5.8,2.7-7.1c2.6-1.5,6.2,0.6,7.1,5.8c0.7,4,0.4,11.4,1.9,15.5
					C90.3,61.5,99.3,74,99.3,74l-2.2,4.5l-7.8-5c0,0-5.7-4.2-7.1-5.9c-1.3-1.6-2.8-3.5-3.5-4.8C76.5,58.7,76.2,52.9,75.8,44.7z"/>
			</g>
			<path class="dig-st8" d="M84.6,137.6c0,0,0.5-7.9-0.2-18.9c-1.2-17.9-2.7-42.6-2.2-48.4l2.3-23.6c0,0,0,0-0.1-0.1
				c0.1-0.5,0.1-1,0.1-1.6c0-4.7-2.2-8.6-4.9-8.6C66.8,33.3,56.9,46,56.9,46l0.1,0c-1.8,1.8-2.9,5.1-2.9,8.9c0,2,0.3,3.9,0.9,5.4
				c0.5,1.6,1.7,5.4,3,9.7l0,0c0,0,1.2,10.3,0.4,18.5c-0.3,3.4,0.6,17,0.1,30.1c-0.4,10.3-2.1,20.2-2.2,25.6l-0.3,3.9l0,0.5
				c0,0.5,0.2,0.9,0.6,1.2l0.5,0.4l2.4,1.8c0,0,3.4,1.7,6.5-0.2c4.4-2.6,3.7-4.3,3.7-4.3s0-0.1,0-0.3c0-0.1,0-0.1,0-0.1
				s-0.3-11.8,0.2-23.9c0.5-12.8,1.9-26.1,2.3-26.2l1.4,25.3l-1.2,17.6l0,0.4c0,0.5,0.2,0.9,0.6,1.1l0.6,0.3l2.5,1.5
				c0,0,3.8,1.9,6.3-0.7C85,139.9,84.6,137.6,84.6,137.6z"/>
			<path class="dig-st9" d="M84.5,118.7c-1.2-17.9-2.7-42.6-2.2-48.4l2.3-23.6V45c0,0,0-0.5-0.7-1.6c-0.2-1.3-0.4-2.6-0.9-3.8
				c-0.2-0.7-0.6-1.3-0.9-2c-0.7-0.7-1.6-1.2-2.5-1.2c-0.4-0.1-0.9-0.2-1.3-0.3c1.5,1.6,2.8,3.8,3.1,6.8h-0.1
				c-2.5,3.1-7.3,4.5-10.1,5.1c-0.2-0.9-0.5-1.9-0.8-2.7c-1.1-3-3.2-5.2-4.9-6.7c-1.1,0.6-2.2,1.3-3.1,2c2,1.4,4.6,4.1,5.6,8.5
				c0,0.3,0.3,4.8-1,7.1c-0.7,1.1-1.7,2.1-3,2.2c0.4,4.3-6.8,8.2-6.8,8.2s-0.1,0.2-0.4,0.7c0.3,0.9,0.6,1.8,0.9,2.8l0,0
				c0,0,1.2,10.3,0.4,18.5c-0.3,3.4,0.6,17,0.1,30.1c-0.4,10.3-2.1,20.2-2.2,25.6l-0.3,3.9l0,0.5c0,0.5,0.2,0.9,0.6,1.2l0.5,0.4
				l2.4,1.8c0,0,3.4,1.7,6.5-0.2c4.4-2.6,3.7-4.3,3.7-4.3s0-0.1,0-0.3c0-0.1,0-0.1,0-0.1s-0.3-11.8,0.2-23.9
				c0.5-12.8,1.9-26.1,2.3-26.2l1.4,25.3l-1.2,17.6l0,0.4c0,0.5,0.2,0.9,0.6,1.1l0.6,0.3l2.5,1.5c0,0,3.8,1.9,6.3-0.7
				c2.7-2.8,2.3-5.1,2.3-5.1S85.2,129.7,84.5,118.7z"/>
			<path class="dig-st10" d="M82.4,142.7c2.7-2.8,2.3-5.1,2.3-5.1s0.5-7.9-0.2-18.9c-1.2-17.9-2.7-42.6-2.2-48.4l1.8-17.8l-14.5,8.3
				l-3.1,5.3l-8.1,8.5c0,0.4,0.1,0.9,0.1,1.3l11,9.1v3.8l1.6,1.3l1.1,6.9l1.4,25.3l-1.2,17.6l0,0.4c0,0.5,0.2,0.9,0.6,1.1l0.6,0.3
				l2.5,1.5C76.1,143.3,79.9,145.2,82.4,142.7z"/>
			<g>
				<g>
					<path class="dig-st11" d="M103.7,55.6l-2.6-1.5l-8.2-4.7L71.8,61.5l8.2,4.7l2.6,1.5l9.1,5.2l21.1-12.2l0,0L103.7,55.6z"/>
				</g>
				<polygon class="dig-st12" points="91.7,73 91.6,100.1 82.6,94.9 79.9,93.4 71.8,88.7 71.8,61.5 				"/>
			</g>
			<polygon class="dig-st13" points="79.8,66.1 100.5,53.7 103.3,55.3 82.6,67.7 			"/>
			<polygon class="dig-st14" points="82.6,79.4 79.8,77.8 79.8,66.1 82.6,67.7 			"/>
			<polyline class="dig-st15" points="81.2,78.6 81.2,66.9 102.1,54.6 			"/>
			<path class="dig-st16" d="M107.2,85.9c0.5-3.1,2.7-5.7,5.5-6.8V60.8L91.7,73l0,27.1l3.4-1.9C96.4,92.1,101.2,87.3,107.2,85.9z"/>
			<path class="dig-st17" d="M99.4,76.4c0.1,0,0.1-0.1,0.2-0.1c0.1,0,0.1,0,0.1,0l6.7,4.1l2.6-4.9l-2.6-1.6l-2.3,4.2l-0.9-0.6l2.8-5.3
				c0-0.1,0.1-0.1,0.1-0.2c0.1-0.1,0.1-0.1,0.2-0.1c0.1,0,0.1-0.1,0.2-0.1c0.1,0,0.1,0,0.1,0l3.8,2.3c0.1,0.1,0.1,0.2,0.1,0.3
				c0,0.1,0,0.3-0.1,0.5l-3.8,7.1c0,0.1-0.1,0.1-0.1,0.2c-0.1,0.1-0.1,0.1-0.2,0.1c-0.1,0-0.1,0.1-0.2,0.1c-0.1,0-0.1,0-0.1,0
				l-6.7-4.1l-2.6,4.9l2.6,1.6l2.2-4.2l0.9,0.6l-2.8,5.3c0,0.1-0.1,0.1-0.1,0.2c-0.1,0.1-0.1,0.1-0.2,0.1c-0.1,0-0.1,0.1-0.2,0.1
				c-0.1,0-0.1,0-0.1,0l-3.8-2.3c-0.1-0.1-0.1-0.2-0.1-0.3s0-0.3,0.1-0.5l3.8-7.1c0-0.1,0.1-0.1,0.1-0.2
				C99.3,76.4,99.4,76.4,99.4,76.4z"/>
			<g>
				<path class="dig-st4" d="M77.2,82c-4.6-3.5-7.2-8-11.7-11.6c-0.2-2.6-0.6-5.9-1.2-10.4c-0.2-1.7-0.4-3.1-0.7-4.4
					c-0.9-4.3-3.2-6.2-5.3-5.9c-1.4,0.2-2.9,0.9-3.2,3.4c-0.3,1.9,0,4.1,0.2,5.4c0.5,4.6,2.3,10.3,3.6,14.4c0.1,0.3,0.2,0.6,0.3,0.9
					C59.4,75.1,60,76,61,77c3.7,3,7.5,4.6,10.5,6.6c0.9,0.6,1.9,1.2,2.6,2c0.9,1,1.6,2.2,2.5,3.2c1,1.2,3.3,2.9,4.9,2.9
					c3.3,0.1,3.1-0.3,4.6-2.8c0.2-0.4,2.3-2.5,2-2.4c-1,0.3-1.5,0.8-2,0.9c-0.8,0.2-2.2,0.1-2.8-0.5c-0.4-0.3-0.7-0.7-1-1.1
					c0.3,0.1,0.6,0.2,0.8,0.3c1,1,2.3,1.2,2.8,0.2c-0.8-0.6-1.6-1.4-2.3-2c-0.7-0.7-1.3-1.2-2.6-1.5C79.8,82.5,78.5,82.6,77.2,82z"
					/>
				<path class="dig-st5" d="M61.7,73.1c-0.7-2.3-4-18-3.4-23.5c-1.4,0.2-2.9,0.9-3.2,3.4c-0.3,1.9,0,4.1,0.2,5.4
					c0.5,4.6,2.3,10.3,3.6,14.4c0.1,0.3,0.2,0.6,0.3,0.9C59.4,75.1,60,76,61,77c4.9,3.9,9.7,5.5,13.1,8.7c0.8,1,1.6,2.6,2.3,3.4
					c0.8,1,3.4,2.5,5.1,2.9c1.3,0.3,2.6-0.1,4.3-1.4c0.2-0.3,2.3-3.5,2.4-4c-0.4,0.1-2.8,2.4-3.1,2.4c-2.6,0.1-5-0.9-6.2-2
					c-1.1-1-2.8-1.9-4.1-2.8C69.7,79.6,65.4,75.5,61.7,73.1z"/>
				<path class="dig-st18" d="M79.9,86c1.4,1.2,2.2,1.8,3.5,2c3.4,0.6,4.7-1.2,4.7-1.5c-0.2-0.2-0.5-0.2-0.6-0.2c-0.6,0-1.3,0.8-1.7,0.9
					c-0.8,0.2-2,0.2-2.6-0.4c-0.7-0.6-1.3-1.5-1.8-2.3c0.6,0.2,1.3,0.5,1.6,0.7c1,1,2.3,2,2.8,1c-0.8-0.6-1.6-1.4-2.3-2
					c-0.7-0.7-1.3-1.2-2.6-1.5c-1.1-0.3-2.3-0.2-3.6-0.8c-4.6-3.5-7.2-8-11.7-11.6c-0.2-2.6-0.6-5.9-1.2-10.4
					c-0.2-1.7-0.4-3.1-0.7-4.4c-0.6-2.7-1.7-4.4-2.9-5.3c-0.4,2.5,1.9,15.1,3.2,21.6c4.2,3.4,7.5,7,10.4,9.8
					C76.2,83.4,78.1,84.4,79.9,86z"/>
			</g>
			<g>
				<path class="dig-st19" d="M73.7,86l-6.3-4.3c0,0-6-3.6-7.4-5.3c-1.3-1.6-2.4-4.1-3.2-5.4c-2.3-4-2.5-9.8-2.9-18
					c0-3.5,1.4-5.8,2.7-7.1c2.6-1.5,6.2,0.6,7.1,5.8c0.7,4,0.4,11.4,1.9,15.5c2.7,2.5,12,14.3,12,14.3S74.2,83.3,73.7,86z"/>
			</g>
			<g>
				<path class="dig-st19" d="M73.7,86l-6.3-4.3c0,0-6-3.6-7.4-5.3c-1.3-1.6-2.4-4.1-3.2-5.4c-2.3-4-2.5-9.8-2.9-18
					c0-3.5,1.4-5.8,2.7-7.1c2.6-1.5,6.2,0.6,7.1,5.8c0.7,4,0.4,11.4,1.9,15.5c2.7,2.5,12,14.3,12,14.3S74.2,83.3,73.7,86z"/>
			</g>
			<path class="dig-st8" d="M61.7,73.1c0,0-6.8-4-7.7-20c0.4,8.2,0.7,14,2.9,18c0.7,1.3,1.8,3.8,3.2,5.4c1.4,1.7,7.4,5.3,7.4,5.3
				l6.3,4.3c0.1-0.8,0.5-1.4,0.9-2L61.7,73.1z"/>
			<g>
				<path class="dig-st5" d="M76.6,41.1c0.1-0.3,0.2-0.6,0.3-0.9c0.3-0.9,0.3-2.8,0.9-4.8l-8.2-3.6l-1.8-0.9c0.6,3.1,0.3,4.9-0.6,7.1
					c-0.1,3,5.5,5,8.7,5.8C76.2,43.1,76.3,42,76.6,41.1z"/>
				<path class="dig-st3" d="M68,39.9c3-1.1,5.3,0.3,9.2-0.8c0.1-1,0.3-2.3,0.7-3.7l-8.2-3.6l-1.8-0.9c0.6,3.1,0.3,4.9-0.6,7.1
					C67.2,38.7,67.5,39.3,68,39.9z"/>
			</g>
			<path class="dig-st5" d="M76.8,38.8c-1.1-0.5-3.9-1.8-4.8-2.3c-2-1.2-1.5-3.4-3.8-5.1c-2-1-2.3-2-2.7-3.1c-0.8-2.6-0.1-5.6,1.6-7.5
				c1.6-1.7,3.5-2.4,5.9-2.2c4.4,0.2,7,3.3,7.7,6.9c0,0.2,0.2,0.3,0.3,0.5c0.1,0.3,0.1,0.6,0.1,1C81,27.7,80.9,27.4,81,28
				c0.1,0.7,0.5,1.2,0.6,2.1c0.1,1.5-0.1,2.3-0.3,4c0,0.6-0.2,1.3-0.2,1.9c0,1.1-0.1,1.5-0.2,1.7c-0.3,0.3-0.6,0.5-1,0.7
				C79.2,38.7,78.4,39,78,39C77.6,39,77.1,39,76.8,38.8z"/>
			<path class="dig-st5" d="M76.8,38.8c-1.1-0.5-3.9-1.8-4.8-2.3c-2-1.2-1.5-3.4-3.8-5.1c-2-1-2.3-2-2.7-3.1c-0.8-2.6-0.1-5.6,1.6-7.5
				c1.6-1.7,3.5-2.4,5.9-2.2c0.1,0,0.1,0,0.2,0l0,0c3.8,0.3,6.2,2.4,7.1,5.4c-0.5,0.5-4.4,1.8-7.6,2.1c-1.2,1-0.9,1.9-0.1,3.1
				c0.4,0.5,0.5,0.6,0.3,0.8c-0.2,0.3-0.2,0.2-0.6,0.6C72,31,72.2,31.6,72.6,32c0.6,0.6,1.9,1.1,2.3,1.3c1,0.6,1.4,2,1.6,2.9
				c0.2,1.2,0.7,2.8,2.7,2.4c-0.5,0.2-1,0.3-1.2,0.3C77.6,39,77.1,39,76.8,38.8z"/>
			<path class="dig-st20" d="M70.7,30c-0.7-2.3,0.4-2.8-0.2-4c-0.9-1.9-4.2-2.5-4.7-3.4c-1.5,2.2-1.4,5.8,0.7,7.9c1,1.1,1.3,1.6,1.7,3.3
				c0.4-0.9,0.4-1.1,0.6-1.9c-0.1-0.1-0.3-0.3-0.4-0.5c-0.2-0.5-0.8-0.4-1-1c-0.3-0.9-0.4-2.3,1.1-2c0.6,0.1,1,0.7,1.1,1.3
				c0.1,0.3,0.3,0.6,0.3,0.8C70.2,30.3,70.5,30.1,70.7,30z"/>
			<path class="dig-st9" d="M72.8,27.2c0,0,7.1-1.6,7.6-3.2c0-1.4-1.6-5.5-1.6-5.5s-4.5-1.9-9.8-0.4c-5,2.4-4.2,8.2-4.2,8.2
				S70.5,27.2,72.8,27.2z"/>
			<path class="dig-st9" d="M64.9,26.2c0,0,9.2,2.4,10.3,2.5c1.1,0.1,9.4-2.2,10.4-3.2c-3.6-1.1-5.5-1.9-5.5-1.9L64.9,26.2z"/>
			<path class="dig-st9" d="M64.9,26.2c0,0,11.6,3.6,12.7,3.7c1.1,0.1,9-2.5,10-3.7c-3.8-1.1-7.2-2.2-7.2-2.2L64.9,26.2z"/>
			<path class="dig-st21" d="M78.6,18.7c0,0-2.8,0.9-4.2,1.1s-3.6,3.6-3.3,5.4c0.3,1.8,9-1.5,9-1.5L78.6,18.7z"/>
		</g>
	</g>
	<path class="dig-st22" d="M76,51.4C76,51.4,76,51.4,76,51.4c0.1,0,0.1,0,0.1,0l2.6,1.3l1-1.6l-1-0.5L77.9,52l-0.4-0.2l1.1-1.7
		c0,0,0,0,0.1-0.1c0,0,0,0,0.1,0c0,0,0,0,0.1,0c0,0,0,0,0.1,0l1.5,0.7c0,0,0.1,0.1,0.1,0.1c0,0,0,0.1-0.1,0.2l-1.5,2.3
		c0,0,0,0-0.1,0.1c0,0,0,0-0.1,0c0,0,0,0-0.1,0c0,0,0,0-0.1,0L76,52l-1,1.6l1,0.5l0.9-1.3l0.4,0.2l-1.1,1.7c0,0,0,0-0.1,0.1
		c0,0,0,0-0.1,0c0,0,0,0-0.1,0c0,0,0,0-0.1,0L74.4,54c0,0-0.1-0.1-0.1-0.1c0,0,0-0.1,0.1-0.2l1.5-2.3C75.9,51.5,75.9,51.5,76,51.4
		C75.9,51.4,76,51.4,76,51.4z"/>
	<g>
		<g>
			<g>
				<g>
					<g>
						<path class="dig-st13" d="M155.7,140.2H116c-2.7,0-4.8-2.2-4.8-4.8V87.1c0-2.7,2.2-4.8,4.8-4.8h34.8c2.7,0,4.8,2.2,4.8,4.8V140.2z
							"/>
						<path class="dig-st23" d="M155.7,141.6H116c-2.7,0-4.8-2.2-4.8-4.8V88.5c0-2.7,2.2-4.8,4.8-4.8h34.8c2.7,0,4.8,2.2,4.8,4.8V141.6z
							"/>
						<path class="dig-st8" d="M155.7,140.2H116c-2.7,0-4.8-2.2-4.8-4.8V87.1c0-2.7,2.2-4.8,4.8-4.8h34.8c2.7,0,4.8,2.2,4.8,4.8V140.2z"
							/>
						<rect x="111.2" y="90.5" class="dig-st24" width="44.5" height="0.6"/>
						<path class="dig-st10" d="M155.7,90.5h-44.5V88c0-2.7,2.2-4.8,4.8-4.8h34.8c2.7,0,4.8,2.2,4.8,4.8V90.5z"/>
						<path class="dig-st9" d="M155.7,89.7h-44.5v-2.6c0-2.7,2.2-4.8,4.8-4.8h34.8c2.7,0,4.8,2.2,4.8,4.8V89.7z"/>
						<circle class="dig-st13" cx="148.9" cy="86" r="1.3"/>
						<circle class="dig-st25" cx="144" cy="86" r="1.3"/>
					</g>
				</g>
				<text transform="matrix(1 0 0 1 122.2673 134.0826)" class="dig-st9 dig-st26 dig-st27">PDF</text>
			</g>
			<circle class="dig-st28" cx="111.2" cy="102.6" r="12.7"/>
			<circle class="dig-st25" cx="111.2" cy="101.4" r="12.7"/>
			<g>
				<path class="dig-st13" d="M110.1,106.9V103h-3.9v-2.8h3.9v-3.9h2.6v3.9h3.9v2.8h-3.9v3.9H110.1z"/>
			</g>
		</g>
	</g>
</g>
</svg>
