<?xml version="1.0" encoding="utf-8"?>
<!-- Generator: Adobe Illustrator 25.2.1, SVG Export Plug-In . SVG Version: 6.00 Build 0)  -->
<!DOCTYPE svg PUBLIC "-//W3C//DTD SVG 1.1//EN" "http://www.w3.org/Graphics/SVG/1.1/DTD/svg11.dtd" [
	<!ENTITY ns_extend "http://ns.adobe.com/Extensibility/1.0/">
	<!ENTITY ns_ai "http://ns.adobe.com/AdobeIllustrator/10.0/">
	<!ENTITY ns_graphs "http://ns.adobe.com/Graphs/1.0/">
	<!ENTITY ns_vars "http://ns.adobe.com/Variables/1.0/">
	<!ENTITY ns_imrep "http://ns.adobe.com/ImageReplacement/1.0/">
	<!ENTITY ns_sfw "http://ns.adobe.com/SaveForWeb/1.0/">
	<!ENTITY ns_custom "http://ns.adobe.com/GenericCustomNamespace/1.0/">
	<!ENTITY ns_adobe_xpath "http://ns.adobe.com/XPath/1.0/">
]>
<svg version="1.1" id="Calque_1" xmlns:x="&ns_extend;" xmlns:i="&ns_ai;" xmlns:graph="&ns_graphs;"
	 xmlns="http://www.w3.org/2000/svg" xmlns:xlink="http://www.w3.org/1999/xlink" x="0px" y="0px" viewBox="0 0 200 200"
	 style="enable-background:new 0 0 200 200;" xml:space="preserve">
<style type="text/css">
	.grps0{fill:url(#GRPS_ID_1_);}
	.grps1{fill:var(--vitamui-secondary-900);}
	.grps2{fill:url(#GRPS_ID_2_);}
	.grps3{fill:url(#GRPS_ID_3_);}
	.grps4{fill:url(#GRPS_ID_4_);}
	.grps5{fill:url(#GRPS_ID_5_);}
	.grps6{fill-rule:evenodd;clip-rule:evenodd;fill:url(#GRPS_ID_6_);}
	.grps7{fill-rule:evenodd;clip-rule:evenodd;fill:url(#GRPS_ID_7_);}
	.grps8{fill-rule:evenodd;clip-rule:evenodd;fill:url(#GRPS_ID_8_);}
	.grps9{opacity:0.75;fill:url(#GRPS_ID_9_);enable-background:new    ;}
	.grps10{fill-rule:evenodd;clip-rule:evenodd;}
	.grps11{fill-rule:evenodd;clip-rule:evenodd;fill:#BCB9BA;}
	.grps12{fill-rule:evenodd;clip-rule:evenodd;fill:#F5F5F5;}
	.grps13{fill-rule:evenodd;clip-rule:evenodd;fill:#E5E4E4;}
	.grps14{fill:#BCB9BA;}
	.grps15{fill:#BBB9BA;}
	.grps16{fill:#BBB8B9;}
	.grps17{fill:#BAB8B9;}
	.grps18{fill:#B9B7B8;}
	.grps19{fill:#B9B7B7;}
	.grps20{fill:#B8B6B7;}
	.grps21{fill:#B8B5B6;}
	.grps22{fill:#B7B5B6;}
	.grps23{fill:#B7B4B5;}
	.grps24{fill:#B6B4B5;}
	.grps25{fill:#B6B3B4;}
	.grps26{fill:#B5B3B4;}
	.grps27{fill:#B4B2B3;}
	.grps28{fill:#B3B1B2;}
	.grps29{fill:#B3B1B1;}
	.grps30{fill:#B2B0B1;}
	.grps31{fill:#B2AFB0;}
	.grps32{fill:#B1AFB0;}
	.grps33{fill:#B1AEAF;}
	.grps34{fill:#B0AEAF;}
	.grps35{fill:#AFADAE;}
	.grps36{fill:#AEACAD;}
	.grps37{fill:#ADABAC;}
	.grps38{fill:#ADABAB;}
	.grps39{fill:#ACAAAB;}
	.grps40{fill:#ACAAAA;}
	.grps41{fill:#ABA9AA;}
	.grps42{fill:#AAA8A9;}
	.grps43{fill:#A9A7A8;}
	.grps44{fill:#A8A6A7;}
	.grps45{fill:#A7A5A6;}
	.grps46{fill:#A7A5A5;}
	.grps47{fill:#A6A4A5;}
	.grps48{fill:#A5A4A4;}
	.grps49{fill:#A5A3A4;}
	.grps50{fill:#A4A2A3;}
	.grps51{fill:#A3A1A2;}
	.grps52{fill:#A2A0A1;}
	.grps53{fill:#A19FA0;}
	.grps54{fill:#A09F9F;}
	.grps55{fill:#A09E9F;}
	.grps56{fill:#9F9E9E;}
	.grps57{fill:#9F9D9E;}
	.grps58{fill:#9E9D9D;}
	.grps59{fill:#9E9C9D;}
	.grps60{fill:#9D9B9C;}
	.grps61{fill:#9C9A9B;}
	.grps62{fill:#9B9A9B;}
	.grps63{fill:#9B999A;}
	.grps64{fill:#9A9999;}
	.grps65{fill:#9A9899;}
	.grps66{fill:#999898;}
	.grps67{fill:#999798;}
	.grps68{fill:#989797;}
	.grps69{fill:#989697;}
	.grps70{fill:#979596;}
	.grps71{fill:#969596;}
	.grps72{fill:#969495;}
	.grps73{fill:#959495;}
	.grps74{fill:#959394;}
	.grps75{fill:#949393;}
	.grps76{fill:#949293;}
	.grps77{fill:#939292;}
	.grps78{fill:#939192;}
	.grps79{fill:#929191;}
	.grps80{fill:#919091;}
	.grps81{fill:#919090;}
	.grps82{fill:#908F90;}
	.grps83{fill:#908E8F;}
	.grps84{fill:#8F8E8F;}
	.grps85{fill:#8F8D8E;}
	.grps86{fill:#8E8D8D;}
	.grps87{fill:#8E8C8D;}
	.grps88{fill:#8D8C8C;}
	.grps89{fill:#8C8B8C;}
	.grps90{fill:#8C8B8B;}
	.grps91{fill:#8B8A8B;}
	.grps92{fill:#8B8A8A;}
	.grps93{fill:#8A898A;}
	.grps94{fill:#8A8889;}
	.grps95{fill:#898888;}
	.grps96{fill:#898788;}
	.grps97{fill:#888787;}
	.grps98{fill:#878687;}
	.grps99{fill:#878686;}
	.grps100{fill:#868586;}
	.grps101{fill:#868585;}
	.grps102{fill:#858485;}
	.grps103{fill:#858484;}
	.grps104{fill:#848384;}
	.grps105{fill:#848383;}
	.grps106{fill:#838282;}
	.grps107{fill:#828182;}
	.grps108{fill:#828181;}
	.grps109{fill:#818081;}
	.grps110{fill:#818080;}
	.grps111{fill:#807F80;}
	.grps112{fill:#807F7F;}
	.grps113{fill:#7F7E7F;}
	.grps114{fill:#7F7E7E;}
	.grps115{fill:#7E7D7E;}
	.grps116{fill:#7D7D7D;}
	.grps117{fill:#7D7C7C;}
	.grps118{fill:#7C7B7C;}
	.grps119{fill:#7C7B7B;}
	.grps120{fill:#7B7A7B;}
	.grps121{fill:#7B7A7A;}
	.grps122{fill:#7A797A;}
	.grps123{fill:#7A7979;}
	.grps124{fill:#797879;}
	.grps125{fill:#787878;}
	.grps126{fill:#787778;}
	.grps127{fill:#777777;}
	.grps128{fill:#777676;}
	.grps129{fill:#767676;}
	.grps130{fill:#767575;}
	.grps131{fill:#757475;}
	.grps132{fill:#757474;}
	.grps133{fill:#747374;}
	.grps134{fill:#737373;}
	.grps135{fill:#737273;}
	.grps136{fill:#727272;}
	.grps137{fill:#727172;}
	.grps138{fill:#717171;}
	.grps139{fill:#717070;}
	.grps140{fill:#707070;}
	.grps141{fill:#706F6F;}
	.grps142{fill:#6F6E6F;}
	.grps143{fill:#6E6E6E;}
	.grps144{fill:#6E6D6E;}
	.grps145{fill:#6D6D6D;}
	.grps146{fill:#6D6C6D;}
	.grps147{fill:#6C6C6C;}
	.grps148{fill:#6C6B6C;}
	.grps149{fill:#6B6B6B;}
	.grps150{fill:#6B6A6A;}
	.grps151{fill:#6A6A6A;}
	.grps152{fill:#696969;}
	.grps153{fill:#686868;}
	.grps154{fill:#686768;}
	.grps155{fill:#676767;}
	.grps156{fill:#676667;}
	.grps157{fill:#666666;}
	.grps158{fill:#666566;}
	.grps159{fill:#656565;}
	.grps160{fill:#646464;}
	.grps161{fill:#636363;}
	.grps162{fill:#626262;}
	.grps163{fill:#626162;}
	.grps164{fill:#616161;}
	.grps165{fill:#616061;}
	.grps166{fill:#606060;}
	.grps167{fill:#5F5F60;}
	.grps168{fill:#5F5F5F;}
	.grps169{fill:#5E5E5E;}
	.grps170{fill:#5D5D5D;}
	.grps171{fill:#5C5C5C;}
	.grps172{fill:#5B5B5B;}
	.grps173{fill:#5A5A5B;}
	.grps174{fill:#5A5A5A;}
	.grps175{fill:#59595A;}
	.grps176{fill:#595959;}
	.grps177{fill:#585858;}
	.grps178{fill:#575757;}
	.grps179{fill:#565656;}
	.grps180{fill:#555656;}
	.grps181{fill:#555555;}
	.grps182{fill:#545455;}
	.grps183{fill:#545454;}
	.grps184{fill:#535353;}
	.grps185{fill:#525252;}
	.grps186{fill:#515151;}
	.grps187{fill:#505151;}
	.grps188{fill:#505050;}
	.grps189{fill:#4F5050;}
	.grps190{fill:#4F4F4F;}
	.grps191{fill:#4E4F4F;}
	.grps192{fill:#4E4E4E;}
	.grps193{fill:#4D4D4D;}
	.grps194{fill:#4C4C4C;}
	.grps195{fill:url(#GRPS_ID_10_);}
	.grps196{fill:url(#GRPS_ID_11_);}
	.grps197{fill:url(#GRPS_ID_12_);}
	.grps198{fill:url(#GRPS_ID_13_);}
	.grps199{fill-rule:evenodd;clip-rule:evenodd;fill:url(#GRPS_ID_14_);}
	.grps200{fill-rule:evenodd;clip-rule:evenodd;fill:url(#GRPS_ID_15_);}
	.grps201{fill-rule:evenodd;clip-rule:evenodd;fill:url(#GRPS_ID_16_);}
	.grps202{opacity:0.75;fill:url(#GRPS_ID_17_);enable-background:new    ;}
	.grps203{fill:url(#GRPS_ID_18_);}
	.grps204{fill:url(#GRPS_ID_19_);}
	.grps205{fill-rule:evenodd;clip-rule:evenodd;fill:#9B9A9B;}
	.grps206{fill-rule:evenodd;clip-rule:evenodd;fill:#FFFFFF;}
	.grps207{fill-rule:evenodd;clip-rule:evenodd;fill:url(#GRPS_ID_20_);}
	.grps208{fill-rule:evenodd;clip-rule:evenodd;fill:url(#GRPS_ID_21_);}
	.grps209{fill-rule:evenodd;clip-rule:evenodd;fill:url(#GRPS_ID_22_);}
	.grps210{fill-rule:evenodd;clip-rule:evenodd;fill:url(#GRPS_ID_23_);}
	.grps211{fill-rule:evenodd;clip-rule:evenodd;fill:url(#GRPS_ID_24_);}
	.grps212{fill-rule:evenodd;clip-rule:evenodd;fill:url(#GRPS_ID_25_);}
	.grps213{fill:url(#GRPS_ID_26_);}
	.grps214{fill:var(--vitamui-primary-400);}
</style>
<metadata>
	<sfw  xmlns="&ns_sfw;">
		<slices></slices>
		<sliceSourceBounds  bottomLeftOrigin="true" height="155.3" width="187.9" x="8.6" y="3.1"></sliceSourceBounds>
	</sfw>
</metadata>
<linearGradient id="GRPS_ID_1_" gradientUnits="userSpaceOnUse" x1="133.6208" y1="130.2163" x2="170.5471" y2="98.7104">
	<stop  offset="0" style="stop-color:var(--vitamui-primary-900)"/>
	<stop  offset="3.994732e-02" style="stop-color:var(--vitamui-primary-900)"/>
	<stop  offset="0.1325" style="stop-color:var(--vitamui-primary-600)"/>
	<stop  offset="0.2248" style="stop-color:var(--vitamui-primary-600)"/>
	<stop  offset="0.3156" style="stop-color:var(--vitamui-primary-600)"/>
	<stop  offset="0.4043" style="stop-color:var(--vitamui-primary)"/>
	<stop  offset="0.4882" style="stop-color:var(--vitamui-primary)"/>
	<stop  offset="0.5613" style="stop-color:var(--vitamui-primary)"/>
	<stop  offset="0.6699" style="stop-color:var(--vitamui-primary)"/>
	<stop  offset="0.8006" style="stop-color:var(--vitamui-primary-700)"/>
	<stop  offset="0.9472" style="stop-color:var(--vitamui-primary-800)"/>
	<stop  offset="1" style="stop-color:var(--vitamui-primary-900)"/>
</linearGradient>
<path class="grps0" d="M168.7,118.1C168.7,118.1,168.6,118,168.7,118.1c-0.1-0.2-0.1-0.3-0.1-0.4c-2.6-6.7-13.7-12.7-29.9-16.7
	l-1.4,2.3c12.8,2.8,21.5,6.8,24,11.2c0.5,0.9,0.8,1.8,0.8,2.7c0,2.3-1.8,4.6-5,6.6c-3,1.9-7.3,3.8-12.7,5.3c-0.1,0-0.1,0-0.3,0.1
	c-0.7,0.2-1.4,0.4-2,0.6c-0.3,0.1-0.7,0.2-1,0.3c-0.3,0.1-0.6,0.2-1,0.2c-3.1,0.8-6.5,1.5-10.1,2.1c0.7,0.9,1.3,1.8,2,3
	c0.4,1.2,1.4,1.6,2.7,2.2c2,0.6,2.6,1.6,2.7,3c1.9-0.4,3.7-0.9,5.4-1.4c1.1-0.3,2-0.5,3-0.9c4.2-1.4,8-2.8,11.2-4.5
	c6.4-3.2,10.6-7,11.9-10.9c0.2-0.8,0.3-1.5,0.3-2.3C169.1,119.8,168.9,118.9,168.7,118.1z"/>
<path class="grps1" d="M42.1,101.3c-0.4,0.4-0.8,0.8-1.2,1.2c-0.1,0.1-0.3,0.1-0.4,0.3c-0.3,0.3-0.5,0.4-0.8,0.5
	c-0.2,0.1-0.4,0.2-0.5,0.3c13-3,30.5-4.9,49.7-4.9c18.6,0,35.5,1.7,48.3,4.6l1.4-2.3c-13.7-3.4-31-5.6-49.8-5.6
	c-16.9,0-32.5,1.6-45.5,4.5c-0.3,0.4-0.7,0.9-1.1,1.3L42.1,101.3z"/>
<g>
	<linearGradient id="GRPS_ID_2_" gradientUnits="userSpaceOnUse" x1="126.0909" y1="148.8398" x2="126.0909" y2="97.5646">
		<stop  offset="0" style="stop-color:var(--vitamui-secondary-900)"/>
		<stop  offset="1" style="stop-color:var(--vitamui-secondary)"/>
	</linearGradient>
	<path class="grps2" d="M156.6,102c-1.2-1.6-3.4-2.2-5.1-3c-3.6-1.4-7.2-3.1-10.8-5v0c-0.6-0.3-1.1-0.6-1.7-0.9
		c-2.4-1.4-5.1-4.5-5.9-6.3h-7h-7c-0.8,1.7-3.5,4.9-5.9,6.3c-0.4,0.2-0.8,0.5-1.3,0.7l-1.1,0.6c-3.4,1.8-6.7,3.4-10.2,4.7
		c-1.7,0.8-3.9,1.4-5.1,3c-0.9,2.1-1.6,5.4-2,9.5c1.4,5.3,5.1,9.9,10.2,13.4c0,0,0,0,0,0l0.9-16.5l0-0.2l0.5,6.5l0,0.1l0-0.1l0,0.3
		l1.4,11.7c2.4,1.3,5,2.4,7.8,3.1c3.6,1,7.5,1.5,11.5,1.5c4,0,7.9-0.5,11.5-1.5c2.8-0.8,5.5-1.8,7.9-3.1l1.3-11.2l0-0.7l0.5-6.5
		l0,0.2l0.9,16.5c0,0,0,0,0,0c5.1-3.5,8.8-8.1,10.3-13.4C158.2,107.4,157.5,104,156.6,102z"/>
	<linearGradient id="GRPS_ID_3_" gradientUnits="userSpaceOnUse" x1="126.0909" y1="81.1655" x2="126.0909" y2="114.7143">
		<stop  offset="0" style="stop-color:var(--vitamui-secondary-900)"/>
		<stop  offset="1" style="stop-color:var(--vitamui-secondary)"/>
	</linearGradient>
	<path class="grps3" d="M122.3,104.8c2.5,0.4,5.1,0.4,7.6,0c5.2-1.1,7.9-6.2,10.8-10.9c-0.6-0.3-1.1-0.6-1.7-0.9
		c-2.4-1.4-5.1-4.5-5.9-6.3h-7h-7c-0.8,1.7-3.5,4.9-5.9,6.3c-0.6,0.3-1.1,0.6-1.7,0.9C114.4,98.5,117.1,103.7,122.3,104.8z
		 M119.4,87.1h1.5c3.5,1.4,6.9,1.3,10.4,0h1.5c0.5,1.1,1.7,2.7,3.1,4.2c-0.8,5.2-4,6.2-9.9,11.1c-6.1-5.1-8.9-6.1-9.7-11.2
		C117.7,89.8,118.9,88.2,119.4,87.1z"/>
	<g>
		<path class="grps1" d="M105.3,114.8l0-0.1l-0.5-6.3l-0.9,16.5c0.6,0.4,1.2,0.8,1.8,1.1l-0.3-11.1L105.3,114.8z"/>
		<path class="grps1" d="M148.3,124.9l-0.9-16.5l-0.5,6.3l0,0.7l0.1-0.7l-0.3,11.3C147.2,125.6,147.7,125.3,148.3,124.9z"/>
	</g>
	<linearGradient id="GRPS_ID_4_" gradientUnits="userSpaceOnUse" x1="125.506" y1="106.6413" x2="126.4986" y2="80.5194">
		<stop  offset="0" style="stop-color:var(--vitamui-secondary-900)"/>
		<stop  offset="1" style="stop-color:var(--vitamui-secondary)"/>
	</linearGradient>
	<path class="grps4" d="M126,102.4c-6.1-5.1-8.9-6.1-9.7-11.2c1.4-1.4,2.6-3,3.1-4.1h1.5c3.5,1.4,6.9,1.3,10.4,0h1.5
		c0.5,1.1,1.7,2.7,3.1,4.2C135,96.5,131.9,97.5,126,102.4z"/>
	<linearGradient id="GRPS_ID_5_" gradientUnits="userSpaceOnUse" x1="126.0909" y1="90.4886" x2="126.0909" y2="98.2234">
		<stop  offset="0" style="stop-color:#4C4C4C"/>
		<stop  offset="0.7896" style="stop-color:#9B9A9B"/>
	</linearGradient>
	<path class="grps5" d="M135.2,91.4c-1.3-1.3-2.5-2.8-2.9-3.7h-1.4c-3.2,1.1-6.4,1.2-9.6,0h-1.4c-0.4,1-1.6,2.4-2.9,3.7
		c0.8,4.6,3.4,5.5,9,10C131.4,97,134.4,96.1,135.2,91.4z"/>
	<g>
		<linearGradient id="GRPS_ID_6_" gradientUnits="userSpaceOnUse" x1="112.4164" y1="62.0226" x2="141.2915" y2="91.8531">
			<stop  offset="0" style="stop-color:#F5F5F5"/>
			<stop  offset="0.7896" style="stop-color:#9B9A9B"/>
		</linearGradient>
		<path class="grps6" d="M138.9,69.8c0-0.2,0-0.4,0-0.5c-0.5-5.4-6-9.6-12.7-9.6c-6.6,0-12,4-12.7,9.2c-0.1,0.3-0.1,0.6-0.1,1
			c-0.1,5.8-1.1,12.1,1.3,15.7c2.7,4,4.5,7.9,8.9,8.8c1.7,0.2,3.5,0.2,5.2,0c4.4-0.9,6.2-4.8,8.9-8.8
			C139.9,82,138.9,75.6,138.9,69.8z"/>
		<g>
			
				<linearGradient id="GRPS_ID_7_" gradientUnits="userSpaceOnUse" x1="-20784.7266" y1="-3525.1958" x2="-20781.9961" y2="-3517.6389" gradientTransform="matrix(-1 0 0 -1 -20658 -3455.3984)">
				<stop  offset="0" style="stop-color:#FFFFFF;stop-opacity:0"/>
				<stop  offset="1" style="stop-color:#FFFFFF"/>
			</linearGradient>
			<ellipse class="grps7" cx="126.1" cy="68" rx="10.3" ry="6.2"/>
			<linearGradient id="GRPS_ID_8_" gradientUnits="userSpaceOnUse" x1="125.6775" y1="74.5965" x2="142.9813" y2="79.1613">
				<stop  offset="0" style="stop-color:#FFFFFF;stop-opacity:0"/>
				<stop  offset="1" style="stop-color:#FFFFFF"/>
			</linearGradient>
			<path class="grps8" d="M134.5,64.5c3.6,2.6,1.7,10.2-3.5,16c-4.4,5-9.7,6.8-12.2,4.5c-2.5-2.2-1.9-7.8,1.7-13.1
				C124.6,65.8,131.1,62,134.5,64.5z"/>
		</g>
	</g>
	<linearGradient id="GRPS_ID_9_" gradientUnits="userSpaceOnUse" x1="126.1192" y1="111.5045" x2="126.5533" y2="94.4237">
		<stop  offset="0" style="stop-color:#FFFFFF;stop-opacity:0"/>
		<stop  offset="1" style="stop-color:#FFFFFF"/>
	</linearGradient>
	<path class="grps9" d="M128.2,108.3c-10.5-0.5-19.9,1.4-19.4,4.2c0.4,2.7,10,4.6,19.8,4.4c8.6-0.2,14.8-2,14.9-4
		C143.5,110.8,137.2,108.7,128.2,108.3z"/>
</g>
<g>
	<g>
		<path class="grps10" d="M88.8,146.4c39.9,0,72.3,7.5,72.3,16.6c0,9.2-32.4,17.7-72.3,17.7s-72.3-8.5-72.3-17.7
			C16.4,153.9,48.8,146.4,88.8,146.4z"/>
		<path class="grps11" d="M88.8,146.8c38.2,0,69.1,7.4,69.1,16.4c0,9.1-30.9,16.4-69.1,16.4s-69.1-7.4-69.1-16.4
			C19.7,154,50.6,146.8,88.8,146.8z"/>
		<path class="grps12" d="M88.8,144.8c38.2,0,69.1,7.4,69.1,16.4c0,9.1-30.9,16.4-69.1,16.4s-69.1-7.4-69.1-16.4
			C19.7,152.1,50.6,144.8,88.8,144.8z"/>
		<path class="grps11" d="M88.8,143.8c38.2,0,69.1,7.4,69.1,16.4c0,9.1-30.9,16.4-69.1,16.4s-69.1-7.4-69.1-16.4
			C19.7,151.1,50.6,143.8,88.8,143.8z"/>
		<path class="grps13" d="M88.7,143.8c20,0,37.9,2,50.6,5.2c-26.4-1.6-98.5,2.3-116.3,16.2c-2.2-1.6-3.3-3.3-3.3-5
			C19.6,151.1,50.6,143.8,88.7,143.8z"/>
		<path class="grps12" d="M19.7,160.1c0-9.1,30.9-16.4,69.1-16.4s69.1,7.4,69.1,16.4c0,0.3,0,0.6-0.1,0.9c-1.9-8.6-32.1-15.5-69-15.5
			s-67,6.9-69,15.5C19.7,160.7,19.7,160.5,19.7,160.1z"/>
	</g>
	<g>
		<ellipse class="grps14" cx="88.8" cy="160.6" rx="44.4" ry="8.3"/>
		<ellipse class="grps15" cx="88.8" cy="160.6" rx="44.2" ry="8.2"/>
		<ellipse class="grps16" cx="88.8" cy="160.6" rx="44.1" ry="8.2"/>
		<ellipse class="grps17" cx="88.8" cy="160.6" rx="43.9" ry="8.2"/>
		<ellipse class="grps18" cx="88.8" cy="160.6" rx="43.7" ry="8.2"/>
		<ellipse class="grps19" cx="88.8" cy="160.6" rx="43.6" ry="8.1"/>
		<ellipse class="grps20" cx="88.8" cy="160.6" rx="43.4" ry="8.1"/>
		<ellipse class="grps21" cx="88.8" cy="160.6" rx="43.3" ry="8.1"/>
		<ellipse class="grps22" cx="88.8" cy="160.6" rx="43.1" ry="8"/>
		<ellipse class="grps23" cx="88.8" cy="160.6" rx="43" ry="8"/>
		<ellipse class="grps24" cx="88.8" cy="160.6" rx="42.8" ry="8"/>
		<ellipse class="grps25" cx="88.8" cy="160.6" rx="42.7" ry="7.9"/>
		<ellipse class="grps26" cx="88.8" cy="160.6" rx="42.5" ry="7.9"/>
		<ellipse class="grps27" cx="88.8" cy="160.6" rx="42.3" ry="7.9"/>
		<ellipse class="grps27" cx="88.8" cy="160.6" rx="42.2" ry="7.9"/>
		<ellipse class="grps28" cx="88.8" cy="160.6" rx="42" ry="7.8"/>
		<ellipse class="grps29" cx="88.8" cy="160.6" rx="41.9" ry="7.8"/>
		<ellipse class="grps30" cx="88.8" cy="160.6" rx="41.7" ry="7.8"/>
		<ellipse class="grps31" cx="88.8" cy="160.6" rx="41.6" ry="7.7"/>
		<ellipse class="grps32" cx="88.8" cy="160.6" rx="41.4" ry="7.7"/>
		<ellipse class="grps33" cx="88.8" cy="160.6" rx="41.3" ry="7.7"/>
		<ellipse class="grps34" cx="88.8" cy="160.6" rx="41.1" ry="7.7"/>
		<ellipse class="grps35" cx="88.8" cy="160.6" rx="40.9" ry="7.6"/>
		<ellipse class="grps35" cx="88.8" cy="160.6" rx="40.8" ry="7.6"/>
		<ellipse class="grps36" cx="88.8" cy="160.6" rx="40.6" ry="7.6"/>
		<ellipse class="grps36" cx="88.8" cy="160.6" rx="40.5" ry="7.5"/>
		<ellipse class="grps37" cx="88.8" cy="160.6" rx="40.3" ry="7.5"/>
		<ellipse class="grps38" cx="88.8" cy="160.6" rx="40.2" ry="7.5"/>
		<ellipse class="grps39" cx="88.8" cy="160.6" rx="40" ry="7.5"/>
		<ellipse class="grps40" cx="88.8" cy="160.6" rx="39.8" ry="7.4"/>
		<ellipse class="grps41" cx="88.8" cy="160.6" rx="39.7" ry="7.4"/>
		<ellipse class="grps42" cx="88.8" cy="160.6" rx="39.5" ry="7.4"/>
		<ellipse class="grps42" cx="88.8" cy="160.6" rx="39.4" ry="7.3"/>
		<ellipse class="grps43" cx="88.8" cy="160.6" rx="39.2" ry="7.3"/>
		<ellipse class="grps43" cx="88.8" cy="160.6" rx="39.1" ry="7.3"/>
		<ellipse class="grps44" cx="88.8" cy="160.6" rx="38.9" ry="7.3"/>
		<ellipse class="grps44" cx="88.8" cy="160.6" rx="38.8" ry="7.2"/>
		<ellipse class="grps45" cx="88.8" cy="160.6" rx="38.6" ry="7.2"/>
		<ellipse class="grps46" cx="88.8" cy="160.6" rx="38.4" ry="7.2"/>
		<ellipse class="grps47" cx="88.8" cy="160.6" rx="38.3" ry="7.1"/>
		<ellipse class="grps48" cx="88.8" cy="160.6" rx="38.1" ry="7.1"/>
		<ellipse class="grps49" cx="88.8" cy="160.6" rx="38" ry="7.1"/>
		<ellipse class="grps50" cx="88.8" cy="160.6" rx="37.8" ry="7"/>
		<ellipse class="grps50" cx="88.8" cy="160.6" rx="37.7" ry="7"/>
		<ellipse class="grps51" cx="88.8" cy="160.6" rx="37.5" ry="7"/>
		<ellipse class="grps51" cx="88.8" cy="160.6" rx="37.4" ry="7"/>
		<ellipse class="grps52" cx="88.8" cy="160.6" rx="37.2" ry="6.9"/>
		<ellipse class="grps52" cx="88.8" cy="160.6" rx="37" ry="6.9"/>
		<ellipse class="grps53" cx="88.8" cy="160.6" rx="36.9" ry="6.9"/>
		<ellipse class="grps54" cx="88.8" cy="160.6" rx="36.7" ry="6.8"/>
		<ellipse class="grps55" cx="88.8" cy="160.6" rx="36.6" ry="6.8"/>
		<ellipse class="grps56" cx="88.8" cy="160.6" rx="36.4" ry="6.8"/>
		<ellipse class="grps57" cx="88.8" cy="160.6" rx="36.3" ry="6.8"/>
		<ellipse class="grps58" cx="88.8" cy="160.6" rx="36.1" ry="6.7"/>
		<ellipse class="grps59" cx="88.8" cy="160.6" rx="36" ry="6.7"/>
		<ellipse class="grps60" cx="88.8" cy="160.6" rx="35.8" ry="6.7"/>
		<ellipse class="grps60" cx="88.8" cy="160.6" rx="35.6" ry="6.6"/>
		<ellipse class="grps61" cx="88.8" cy="160.6" rx="35.5" ry="6.6"/>
		<ellipse class="grps62" cx="88.8" cy="160.6" rx="35.3" ry="6.6"/>
		<ellipse class="grps63" cx="88.8" cy="160.6" rx="35.2" ry="6.6"/>
		<ellipse class="grps64" cx="88.8" cy="160.6" rx="35" ry="6.5"/>
		<ellipse class="grps65" cx="88.8" cy="160.6" rx="34.9" ry="6.5"/>
		<ellipse class="grps66" cx="88.8" cy="160.6" rx="34.7" ry="6.5"/>
		<ellipse class="grps67" cx="88.8" cy="160.6" rx="34.6" ry="6.4"/>
		<ellipse class="grps68" cx="88.8" cy="160.6" rx="34.4" ry="6.4"/>
		<ellipse class="grps69" cx="88.8" cy="160.6" rx="34.2" ry="6.4"/>
		<ellipse class="grps70" cx="88.8" cy="160.6" rx="34.1" ry="6.4"/>
		<ellipse class="grps71" cx="88.8" cy="160.6" rx="33.9" ry="6.3"/>
		<ellipse class="grps72" cx="88.8" cy="160.6" rx="33.8" ry="6.3"/>
		<ellipse class="grps73" cx="88.8" cy="160.6" rx="33.6" ry="6.3"/>
		<ellipse class="grps74" cx="88.8" cy="160.6" rx="33.5" ry="6.2"/>
		<ellipse class="grps75" cx="88.8" cy="160.6" rx="33.3" ry="6.2"/>
		<ellipse class="grps76" cx="88.8" cy="160.6" rx="33.2" ry="6.2"/>
		<ellipse class="grps77" cx="88.8" cy="160.6" rx="33" ry="6.1"/>
		<ellipse class="grps78" cx="88.8" cy="160.6" rx="32.8" ry="6.1"/>
		<ellipse class="grps79" cx="88.8" cy="160.6" rx="32.7" ry="6.1"/>
		<ellipse class="grps80" cx="88.8" cy="160.6" rx="32.5" ry="6.1"/>
		<ellipse class="grps81" cx="88.8" cy="160.6" rx="32.4" ry="6"/>
		<ellipse class="grps82" cx="88.8" cy="160.6" rx="32.2" ry="6"/>
		<ellipse class="grps83" cx="88.8" cy="160.6" rx="32.1" ry="6"/>
		<ellipse class="grps84" cx="88.8" cy="160.6" rx="31.9" ry="5.9"/>
		<ellipse class="grps85" cx="88.8" cy="160.6" rx="31.8" ry="5.9"/>
		<ellipse class="grps86" cx="88.8" cy="160.6" rx="31.6" ry="5.9"/>
		<ellipse class="grps87" cx="88.8" cy="160.6" rx="31.4" ry="5.9"/>
		<ellipse class="grps88" cx="88.8" cy="160.6" rx="31.3" ry="5.8"/>
		<ellipse class="grps89" cx="88.8" cy="160.6" rx="31.1" ry="5.8"/>
		<ellipse class="grps90" cx="88.8" cy="160.6" rx="31" ry="5.8"/>
		<ellipse class="grps91" cx="88.8" cy="160.6" rx="30.8" ry="5.7"/>
		<ellipse class="grps92" cx="88.8" cy="160.6" rx="30.7" ry="5.7"/>
		<ellipse class="grps93" cx="88.8" cy="160.6" rx="30.5" ry="5.7"/>
		<ellipse class="grps94" cx="88.8" cy="160.6" rx="30.3" ry="5.7"/>
		<ellipse class="grps95" cx="88.8" cy="160.6" rx="30.2" ry="5.6"/>
		<ellipse class="grps96" cx="88.8" cy="160.6" rx="30" ry="5.6"/>
		<ellipse class="grps97" cx="88.8" cy="160.6" rx="29.9" ry="5.6"/>
		<ellipse class="grps98" cx="88.8" cy="160.6" rx="29.7" ry="5.5"/>
		<ellipse class="grps99" cx="88.8" cy="160.6" rx="29.6" ry="5.5"/>
		<ellipse class="grps100" cx="88.8" cy="160.6" rx="29.4" ry="5.5"/>
		<ellipse class="grps101" cx="88.8" cy="160.6" rx="29.3" ry="5.5"/>
		<ellipse class="grps102" cx="88.8" cy="160.6" rx="29.1" ry="5.4"/>
		<ellipse class="grps103" cx="88.8" cy="160.6" rx="28.9" ry="5.4"/>
		<ellipse class="grps104" cx="88.8" cy="160.6" rx="28.8" ry="5.4"/>
		<ellipse class="grps105" cx="88.8" cy="160.6" rx="28.6" ry="5.3"/>
		<ellipse class="grps106" cx="88.8" cy="160.6" rx="28.5" ry="5.3"/>
		<ellipse class="grps107" cx="88.8" cy="160.6" rx="28.3" ry="5.3"/>
		<ellipse class="grps108" cx="88.8" cy="160.6" rx="28.2" ry="5.2"/>
		<ellipse class="grps109" cx="88.8" cy="160.6" rx="28" ry="5.2"/>
		<ellipse class="grps110" cx="88.8" cy="160.6" rx="27.9" ry="5.2"/>
		<ellipse class="grps111" cx="88.8" cy="160.6" rx="27.7" ry="5.2"/>
		<ellipse class="grps112" cx="88.8" cy="160.6" rx="27.5" ry="5.1"/>
		<ellipse class="grps113" cx="88.8" cy="160.6" rx="27.4" ry="5.1"/>
		<ellipse class="grps114" cx="88.8" cy="160.6" rx="27.2" ry="5.1"/>
		<ellipse class="grps115" cx="88.8" cy="160.6" rx="27.1" ry="5"/>
		<ellipse class="grps116" cx="88.8" cy="160.6" rx="26.9" ry="5"/>
		<ellipse class="grps117" cx="88.8" cy="160.6" rx="26.8" ry="5"/>
		<ellipse class="grps118" cx="88.8" cy="160.6" rx="26.6" ry="5"/>
		<ellipse class="grps119" cx="88.8" cy="160.6" rx="26.5" ry="4.9"/>
		<ellipse class="grps120" cx="88.8" cy="160.6" rx="26.3" ry="4.9"/>
		<ellipse class="grps121" cx="88.8" cy="160.6" rx="26.1" ry="4.9"/>
		<ellipse class="grps122" cx="88.8" cy="160.6" rx="26" ry="4.8"/>
		<ellipse class="grps123" cx="88.8" cy="160.6" rx="25.8" ry="4.8"/>
		<ellipse class="grps124" cx="88.8" cy="160.6" rx="25.7" ry="4.8"/>
		<ellipse class="grps125" cx="88.8" cy="160.6" rx="25.5" ry="4.8"/>
		<ellipse class="grps126" cx="88.8" cy="160.6" rx="25.4" ry="4.7"/>
		<ellipse class="grps127" cx="88.8" cy="160.6" rx="25.2" ry="4.7"/>
		<ellipse class="grps128" cx="88.8" cy="160.6" rx="25.1" ry="4.7"/>
		<ellipse class="grps129" cx="88.8" cy="160.6" rx="24.9" ry="4.6"/>
		<ellipse class="grps130" cx="88.8" cy="160.6" rx="24.7" ry="4.6"/>
		<ellipse class="grps131" cx="88.8" cy="160.6" rx="24.6" ry="4.6"/>
		<ellipse class="grps132" cx="88.8" cy="160.6" rx="24.4" ry="4.6"/>
		<ellipse class="grps133" cx="88.8" cy="160.6" rx="24.3" ry="4.5"/>
		<ellipse class="grps134" cx="88.8" cy="160.6" rx="24.1" ry="4.5"/>
		<ellipse class="grps135" cx="88.8" cy="160.6" rx="24" ry="4.5"/>
		<ellipse class="grps136" cx="88.8" cy="160.6" rx="23.8" ry="4.4"/>
		<ellipse class="grps137" cx="88.8" cy="160.6" rx="23.7" ry="4.4"/>
		<ellipse class="grps138" cx="88.8" cy="160.6" rx="23.5" ry="4.4"/>
		<ellipse class="grps139" cx="88.8" cy="160.6" rx="23.3" ry="4.3"/>
		<ellipse class="grps140" cx="88.8" cy="160.6" rx="23.2" ry="4.3"/>
		<ellipse class="grps141" cx="88.8" cy="160.6" rx="23" ry="4.3"/>
		<ellipse class="grps142" cx="88.8" cy="160.6" rx="22.9" ry="4.3"/>
		<ellipse class="grps143" cx="88.8" cy="160.6" rx="22.7" ry="4.2"/>
		<ellipse class="grps144" cx="88.8" cy="160.6" rx="22.6" ry="4.2"/>
		<ellipse class="grps145" cx="88.8" cy="160.6" rx="22.4" ry="4.2"/>
		<ellipse class="grps146" cx="88.8" cy="160.6" rx="22.3" ry="4.1"/>
		<ellipse class="grps147" cx="88.8" cy="160.6" rx="22.1" ry="4.1"/>
		<ellipse class="grps148" cx="88.8" cy="160.6" rx="21.9" ry="4.1"/>
		<ellipse class="grps149" cx="88.8" cy="160.6" rx="21.8" ry="4.1"/>
		<ellipse class="grps150" cx="88.8" cy="160.6" rx="21.6" ry="4"/>
		<ellipse class="grps151" cx="88.8" cy="160.6" rx="21.5" ry="4"/>
		<ellipse class="grps152" cx="88.8" cy="160.6" rx="21.3" ry="4"/>
		<ellipse class="grps152" cx="88.8" cy="160.6" rx="21.2" ry="3.9"/>
		<ellipse class="grps153" cx="88.8" cy="160.6" rx="21" ry="3.9"/>
		<ellipse class="grps154" cx="88.8" cy="160.6" rx="20.8" ry="3.9"/>
		<ellipse class="grps155" cx="88.8" cy="160.6" rx="20.7" ry="3.9"/>
		<ellipse class="grps156" cx="88.8" cy="160.6" rx="20.5" ry="3.8"/>
		<ellipse class="grps157" cx="88.8" cy="160.6" rx="20.4" ry="3.8"/>
		<ellipse class="grps158" cx="88.8" cy="160.6" rx="20.2" ry="3.8"/>
		<ellipse class="grps159" cx="88.8" cy="160.6" rx="20.1" ry="3.7"/>
		<ellipse class="grps160" cx="88.8" cy="160.6" rx="19.9" ry="3.7"/>
		<ellipse class="grps160" cx="88.8" cy="160.6" rx="19.8" ry="3.7"/>
		<ellipse class="grps161" cx="88.8" cy="160.6" rx="19.6" ry="3.7"/>
		<ellipse class="grps161" cx="88.8" cy="160.6" rx="19.4" ry="3.6"/>
		<ellipse class="grps162" cx="88.8" cy="160.6" rx="19.3" ry="3.6"/>
		<ellipse class="grps163" cx="88.8" cy="160.6" rx="19.1" ry="3.6"/>
		<ellipse class="grps164" cx="88.8" cy="160.6" rx="19" ry="3.5"/>
		<ellipse class="grps165" cx="88.8" cy="160.6" rx="18.8" ry="3.5"/>
		<ellipse class="grps166" cx="88.8" cy="160.6" rx="18.7" ry="3.5"/>
		<ellipse class="grps167" cx="88.8" cy="160.6" rx="18.5" ry="3.4"/>
		<ellipse class="grps168" cx="88.8" cy="160.6" rx="18.4" ry="3.4"/>
		<ellipse class="grps169" cx="88.8" cy="160.6" rx="18.2" ry="3.4"/>
		<ellipse class="grps169" cx="88.8" cy="160.6" rx="18" ry="3.4"/>
		<ellipse class="grps170" cx="88.8" cy="160.6" rx="17.9" ry="3.3"/>
		<ellipse class="grps170" cx="88.8" cy="160.6" rx="17.7" ry="3.3"/>
		<ellipse class="grps171" cx="88.8" cy="160.6" rx="17.6" ry="3.3"/>
		<ellipse class="grps171" cx="88.8" cy="160.6" rx="17.4" ry="3.2"/>
		<ellipse class="grps172" cx="88.8" cy="160.6" rx="17.3" ry="3.2"/>
		<ellipse class="grps173" cx="88.8" cy="160.6" rx="17.1" ry="3.2"/>
		<ellipse class="grps174" cx="88.8" cy="160.6" rx="17" ry="3.2"/>
		<ellipse class="grps175" cx="88.8" cy="160.6" rx="16.8" ry="3.1"/>
		<ellipse class="grps176" cx="88.8" cy="160.6" rx="16.6" ry="3.1"/>
		<ellipse class="grps177" cx="88.8" cy="160.6" rx="16.5" ry="3.1"/>
		<ellipse class="grps177" cx="88.8" cy="160.6" rx="16.3" ry="3"/>
		<ellipse class="grps178" cx="88.8" cy="160.6" rx="16.2" ry="3"/>
		<ellipse class="grps178" cx="88.8" cy="160.6" rx="16" ry="3"/>
		<ellipse class="grps179" cx="88.8" cy="160.6" rx="15.9" ry="3"/>
		<ellipse class="grps180" cx="88.8" cy="160.6" rx="15.7" ry="2.9"/>
		<ellipse class="grps181" cx="88.8" cy="160.6" rx="15.6" ry="2.9"/>
		<ellipse class="grps182" cx="88.8" cy="160.6" rx="15.4" ry="2.9"/>
		<ellipse class="grps183" cx="88.8" cy="160.6" rx="15.2" ry="2.8"/>
		<ellipse class="grps184" cx="88.8" cy="160.6" rx="15.1" ry="2.8"/>
		<ellipse class="grps184" cx="88.8" cy="160.6" rx="14.9" ry="2.8"/>
		<ellipse class="grps185" cx="88.8" cy="160.6" rx="14.8" ry="2.8"/>
		<ellipse class="grps185" cx="88.8" cy="160.6" rx="14.6" ry="2.7"/>
		<ellipse class="grps186" cx="88.8" cy="160.6" rx="14.5" ry="2.7"/>
		<ellipse class="grps187" cx="88.8" cy="160.6" rx="14.3" ry="2.7"/>
		<ellipse class="grps188" cx="88.8" cy="160.6" rx="14.2" ry="2.6"/>
		<ellipse class="grps189" cx="88.8" cy="160.6" rx="14" ry="2.6"/>
		<ellipse class="grps190" cx="88.8" cy="160.6" rx="13.8" ry="2.6"/>
		<ellipse class="grps191" cx="88.8" cy="160.6" rx="13.7" ry="2.5"/>
		<ellipse class="grps192" cx="88.8" cy="160.6" rx="13.5" ry="2.5"/>
		<ellipse class="grps193" cx="88.8" cy="160.6" rx="13.4" ry="2.5"/>
		<ellipse class="grps193" cx="88.8" cy="160.6" rx="13.2" ry="2.5"/>
		<ellipse class="grps194" cx="88.8" cy="160.6" rx="13.1" ry="2.4"/>
	</g>
</g>
<g>
	<linearGradient id="GRPS_ID_10_" gradientUnits="userSpaceOnUse" x1="77.6963" y1="189.6081" x2="77.6963" y2="104.4943">
		<stop  offset="0" style="stop-color:var(--vitamui-secondary-900)"/>
		<stop  offset="1" style="stop-color:var(--vitamui-secondary)"/>
	</linearGradient>
	<path class="grps195" d="M128.3,111.8c-2-2.7-5.6-3.7-8.5-5.1c-6-2.4-12-5.2-17.9-8.4v0c-0.9-0.5-1.9-1-2.8-1.6
		c-3.9-2.3-8.5-7.5-9.8-10.4H77.7H66.1c-1.3,2.9-5.9,8.1-9.8,10.4c-0.7,0.4-1.4,0.8-2.1,1.2l-1.7,0.9c-5.6,3-11.2,5.6-16.9,7.8
		c-2.9,1.4-6.5,2.4-8.5,5.1c-1.5,3.4-2.7,8.9-3.3,15.7c2.4,8.7,8.5,16.5,17,22.3c0,0,0,0,0,0l1.6-27.4l0-0.3l0.9,10.7l0,0.2l0-0.2
		l0,0.4l2.3,19.5c4,2.1,8.3,3.9,13,5.2c6,1.7,12.4,2.6,19.1,2.6c6.7,0,13.1-0.9,19.1-2.5c4.7-1.3,9.1-3.1,13-5.2L112,134l0-1.2
		l0.9-10.7l0,0.3l1.6,27.5c0,0,0,0,0,0c8.5-5.8,14.6-13.5,17-22.3C131,120.7,129.8,115.2,128.3,111.8z"/>
	<linearGradient id="GRPS_ID_11_" gradientUnits="userSpaceOnUse" x1="77.6963" y1="77.2728" x2="77.6963" y2="132.9617">
		<stop  offset="0" style="stop-color:var(--vitamui-secondary-900)"/>
		<stop  offset="1" style="stop-color:var(--vitamui-secondary)"/>
	</linearGradient>
	<path class="grps196" d="M71.4,116.5c4.2,0.6,8.4,0.6,12.6,0c8.6-1.8,13.1-10.4,17.9-18.1c-0.9-0.5-1.9-1-2.8-1.6
		c-3.9-2.3-8.5-7.5-9.8-10.4H77.7H66.1c-1.3,2.9-5.9,8.1-9.8,10.4c-0.9,0.5-1.9,1-2.8,1.6C58.3,106.1,62.8,114.7,71.4,116.5z
		 M66.6,87.1h2.5c5.8,2.3,11.5,2.1,17.2,0h2.5c0.8,1.8,2.8,4.6,5.2,6.9c-1.4,8.7-6.7,10.4-16.4,18.5c-10.1-8.4-14.8-10.1-16.1-18.5
		C63.8,91.6,65.8,88.9,66.6,87.1z"/>
	<g>
		<path class="grps1" d="M43.3,133l0-0.2l-0.9-10.4l-1.6,27.4c0.9,0.6,1.9,1.3,2.9,1.8l-0.5-18.4L43.3,133z"/>
		<path class="grps1" d="M114.6,149.9l-1.6-27.5l-0.9,10.4l0,1.2l0.1-1.2l-0.5,18.8C112.7,151.1,113.6,150.5,114.6,149.9z"/>
	</g>
	<linearGradient id="GRPS_ID_12_" gradientUnits="userSpaceOnUse" x1="76.7255" y1="119.561" x2="78.3732" y2="76.2002">
		<stop  offset="0" style="stop-color:var(--vitamui-secondary-900)"/>
		<stop  offset="1" style="stop-color:var(--vitamui-secondary)"/>
	</linearGradient>
	<path class="grps197" d="M77.6,112.5c-10.1-8.4-14.8-10.1-16.1-18.5c2.3-2.3,4.4-5.1,5.1-6.8h2.5c5.8,2.3,11.5,2.1,17.2,0h2.5
		c0.8,1.8,2.8,4.6,5.2,6.9C92.6,102.7,87.3,104.4,77.6,112.5z"/>
	<linearGradient id="GRPS_ID_13_" gradientUnits="userSpaceOnUse" x1="77.6963" y1="92.7486" x2="77.6963" y2="105.5878">
		<stop  offset="0" style="stop-color:#4C4C4C"/>
		<stop  offset="0.7896" style="stop-color:#9B9A9B"/>
	</linearGradient>
	<path class="grps198" d="M92.8,94.2c-2.2-2.1-4.1-4.6-4.8-6.2h-2.3c-5.3,1.9-10.6,2-16,0h-2.4c-0.7,1.6-2.6,4.1-4.8,6.1
		c1.3,7.6,5.6,9.1,15,16.7C86.6,103.6,91.5,102,92.8,94.2z"/>
	<g>
		<linearGradient id="GRPS_ID_14_" gradientUnits="userSpaceOnUse" x1="54.9976" y1="45.4966" x2="102.9285" y2="95.0135">
			<stop  offset="0" style="stop-color:#F5F5F5"/>
			<stop  offset="0.7896" style="stop-color:#9B9A9B"/>
		</linearGradient>
		<path class="grps199" d="M98.9,58.5c0-0.3,0-0.6-0.1-0.9c-0.8-8.9-9.9-16-21.1-16c-10.9,0-19.9,6.7-21,15.3c-0.1,0.5-0.2,1-0.2,1.6
			c-0.1,9.5-1.8,20.1,2.2,26c4.4,6.6,7.4,13.1,14.8,14.6c2.9,0.4,5.7,0.4,8.6,0c7.3-1.5,10.3-8,14.8-14.6
			C100.7,78.6,99,68,98.9,58.5z"/>
		<g>
			
				<linearGradient id="GRPS_ID_15_" gradientUnits="userSpaceOnUse" x1="-20736.75" y1="-3513.8008" x2="-20732.2207" y2="-3501.2568" gradientTransform="matrix(-1 0 0 -1 -20658 -3455.3984)">
				<stop  offset="0" style="stop-color:#FFFFFF;stop-opacity:0"/>
				<stop  offset="1" style="stop-color:#FFFFFF"/>
			</linearGradient>
			<ellipse class="grps200" cx="77.7" cy="55.5" rx="17.1" ry="10.3"/>
			<linearGradient id="GRPS_ID_16_" gradientUnits="userSpaceOnUse" x1="77.0102" y1="66.3686" x2="105.7335" y2="73.9459">
				<stop  offset="0" style="stop-color:#FFFFFF;stop-opacity:0"/>
				<stop  offset="1" style="stop-color:#FFFFFF"/>
			</linearGradient>
			<path class="grps201" d="M91.7,49.7c5.9,4.3,2.8,16.9-5.7,26.6c-7.4,8.3-16.1,11.2-20.3,7.5c-4.1-3.6-3.1-12.9,2.8-21.8
				C75.2,51.8,86,45.5,91.7,49.7z"/>
		</g>
	</g>
	<linearGradient id="GRPS_ID_17_" gradientUnits="userSpaceOnUse" x1="77.7434" y1="127.6337" x2="78.464" y2="99.2806">
		<stop  offset="0" style="stop-color:#FFFFFF;stop-opacity:0"/>
		<stop  offset="1" style="stop-color:#FFFFFF"/>
	</linearGradient>
	<path class="grps202" d="M81.1,122.4c-17.4-0.8-33,2.4-32.2,7c0.7,4.5,16.5,7.6,32.9,7.3c14.2-0.3,24.6-3.3,24.7-6.7
		C106.7,126.4,96.1,123,81.1,122.4z"/>
</g>
<linearGradient id="GRPS_ID_18_" gradientUnits="userSpaceOnUse" x1="42.7999" y1="98.7775" x2="41.8776" y2="110.5376">
	<stop  offset="0" style="stop-color:var(--vitamui-secondary-900)"/>
	<stop  offset="1" style="stop-color:var(--vitamui-primary)"/>
</linearGradient>
<path class="grps203" d="M32.7,138.6c8.2,2.6,18.2,4.5,29.3,5.7c0.1,0,0.4,0,0.5,0c3,0.3,6.1,0.6,9.2,0.8v-10
	c-16.1-1-30.2-3.3-40.1-6.5c-5.5-1.8-9.9-3.8-12.6-5.9c-0.1,0.7-0.1,0.7,0,0c-1.1-0.9-1.9-1.8-2.5-2.7c0,0,0-0.1-0.1-0.1
	c-0.1-0.2-0.2-0.4-0.3-0.5c-0.3-0.7-0.5-1.4-0.5-2.1c0-5.3,9-10.1,23.4-13.5c0.2-0.1,0.3-0.2,0.5-0.3c0.3-0.1,0.5-0.3,0.8-0.5
	c0.1-0.1,0.3-0.1,0.4-0.3c0.4-0.4,0.8-0.8,1.2-1.2l0.1-0.1c0.4-0.4,0.8-0.9,1.1-1.3c-21,4.6-34.8,12.2-34.8,20.8
	c0,5.5,5.6,10.6,15.1,14.7c2.4,1,5.2,2,8.1,2.9C32,138.4,32.4,138.6,32.7,138.6z"/>
<linearGradient id="GRPS_ID_19_" gradientUnits="userSpaceOnUse" x1="117.9799" y1="228.3133" x2="117.9799" y2="74.7959" gradientTransform="matrix(1 0 0 -1 0 199.3857)">
	<stop  offset="0" style="stop-color:#000000"/>
	<stop  offset="1" style="stop-color:var(--vitamui-primary)"/>
</linearGradient>
<path class="grps204" d="M134.5,137.6c-1.4-0.5-2.3-0.9-2.7-2.2c-0.7-1.2-1.3-2.1-2-3c-8.9,1.5-19.1,2.6-30.2,3
	c0.6,0.4,1.5,1.4,1.6,4.5c0.3,3.2-1.4,4.7-2.6,5.4c4.2-0.2,8.3-0.4,12.3-0.7c0.3,0,0.5,0,0.8,0c9.3-0.9,17.8-2.3,25.4-4
	C137.2,139.3,136.6,138.3,134.5,137.6z"/>
<g>
	<g>
		<path class="grps205" d="M101.7,133.6c5.9-13.6,27.8-19.5,40.3,2.7c0.5,1.5,1.6,2,3.2,2.6c3.7,1.4,3.3,3.3,3,6.8l43.5,18.5l1.7,1.9
			l0.1,1.5l2.1,1.8l0.3,2.4l-10,4.3l-5.9-1.8l-2.8,0l-0.4-1.4c-0.6-1.3-1.7-1.3-3.6,0.1l-0.9-0.5c-0.4-1-1.2-2-1.8-2.6
			c-0.8-0.9-1.9-1.5-2.8-1.8c-0.7-0.2-1.1,0.1-2,0.3c-0.3,0.1-0.7-0.4-0.9-0.5c-0.2-0.7-0.5-0.9-0.9-1.4c-0.9-1.4-1.8-2.3-3.2-2.5
			c-0.4,0.5-2,0.5-2-0.8c-1.4-2.7-3.4-3.8-5.4-3l-4.8,2l-6-2.5l-2.2,2.4c-3.4-2.2-6-2.1-9.1-0.7C109.2,169.7,95.3,148.6,101.7,133.6
			z M111.4,147.8c4.2,1.9,8.9-0.3,10.5-4.5c1.7-4.4-0.3-9.3-4.4-11c-4.2-1.9-8.9,0.3-10.5,4.5C105.2,141,107.2,145.9,111.4,147.8z"
			/>
		<path class="grps206" d="M101.9,132.6c5.9-13.6,27.9-19.4,40.5,2.9c0.5,1.5,1.6,2,3.2,2.6c3.7,1.4,3.3,3.3,3,6.8l43.6,18.6l1.7,1.9
			l0.1,1.5l2.1,1.8l-0.1,2.6l-9.9,4.1l-6-1.7l-2.4,0.2c-0.5-2-1.7-3.1-3.8-1.7l-0.9-0.5c-0.4-1-1.2-2-1.8-2.6
			c-0.8-0.9-1.9-1.5-3-1.8c-0.7-0.2-1.1,0.1-2,0.3c-0.3,0.1-0.7-0.4-0.9-0.5c-0.2-0.7-0.5-0.9-0.9-1.4c-0.9-1.4-1.8-2.3-3.2-2.6
			c-0.4,0.5-2,0.5-2-0.8c-1.4-2.7-3.4-3.8-5.4-3l-4.8,2l-6-2.5l-2.2,2.4c-3.4-2.2-6-2.2-9.1-0.7C109.4,168.6,95.4,147.5,101.9,132.6
			z M111.6,146.8c4.2,1.9,8.9-0.3,10.6-4.5c1.7-4.4-0.3-9.3-4.4-11c-4.2-1.9-8.9,0.3-10.6,4.5C105.5,140,107.4,145,111.6,146.8z"/>
		
			<linearGradient id="GRPS_ID_20_" gradientUnits="userSpaceOnUse" x1="-55.0131" y1="213.4008" x2="-171.8431" y2="310.9146" gradientTransform="matrix(6.202481e-03 1 -1 6.196734e-03 404.8939 261.6186)">
			<stop  offset="0" style="stop-color:#F5F5F5"/>
			<stop  offset="0.21" style="stop-color:#9B9A9B"/>
			<stop  offset="0.46" style="stop-color:#F5F5F5"/>
			<stop  offset="0.74" style="stop-color:#353535"/>
			<stop  offset="1" style="stop-color:#4C4C4C"/>
		</linearGradient>
		<path class="grps207" d="M101.9,131.5c5.9-13.6,27.9-19.4,40.5,2.9c0.5,1.5,1.6,2,3.2,2.6c3.7,1.4,3.3,3.3,3,6.8l43.6,18.5l1.7,1.9
			l0.1,1.5l2.1,1.8l0.3,2.4c-4.4,2.4-7.7,3.9-10.2,4.5l-1.4-0.2l-4.6-1.6l-2.4,0.3c-0.3-2.8-1.4-3.5-4.2-1.7l-0.9-0.5
			c-0.4-1-1.2-2-1.8-2.6c-0.8-0.9-1.9-1.5-3-1.8c-0.7-0.2-1.1,0.1-2,0.3c-0.3,0.1-0.7-0.4-0.9-0.5c-0.2-0.7-0.5-0.9-0.9-1.4
			c-0.9-1.4-1.8-2.3-3.2-2.6c-0.4,0.5-2,0.5-2-0.8c-1.4-2.7-3.4-3.8-5.4-3l-4.8,2l-6-2.5l-2.2,2.4c-3.4-2.2-6-2.2-9.1-0.7
			C109.4,167.6,95.6,146.5,101.9,131.5z M111.7,145.7c4.2,1.9,8.9-0.3,10.6-4.5c1.7-4.4-0.3-9.3-4.4-11c-4.2-1.9-8.9,0.3-10.6,4.5
			C105.6,138.9,107.6,143.9,111.7,145.7z"/>
		
			<linearGradient id="GRPS_ID_21_" gradientUnits="userSpaceOnUse" x1="-112.7452" y1="228.5427" x2="-93.2958" y2="237.0685" gradientTransform="matrix(6.202481e-03 1 -1 6.196734e-03 404.8939 261.6186)">
			<stop  offset="0" style="stop-color:#F5F5F5"/>
			<stop  offset="0.21" style="stop-color:#9B9A9B"/>
			<stop  offset="0.46" style="stop-color:#F5F5F5"/>
			<stop  offset="0.74" style="stop-color:#BCB9BA"/>
			<stop  offset="1" style="stop-color:#F5F5F5"/>
		</linearGradient>
		<polygon class="grps208" points="146.9,150.3 147.9,146.9 193.9,165.8 196.1,167.5 196.5,169.8 		"/>
		
			<linearGradient id="GRPS_ID_22_" gradientUnits="userSpaceOnUse" x1="-111.2323" y1="230.6874" x2="-86.7207" y2="241.3447" gradientTransform="matrix(6.202481e-03 1 -1 6.196734e-03 404.8939 261.6186)">
			<stop  offset="0" style="stop-color:#F5F5F5"/>
			<stop  offset="0.21" style="stop-color:#9B9A9B"/>
			<stop  offset="0.46" style="stop-color:#F5F5F5"/>
			<stop  offset="0.74" style="stop-color:#BCB9BA"/>
			<stop  offset="1" style="stop-color:#F5F5F5"/>
		</linearGradient>
		<path class="grps209" d="M141.7,158.8l4-6.7l48.5,18.8c-3.3,1.8-6.1,2.9-8,3.4l-1.4-0.2l-4.6-1.6l-2.4,0.3c-0.3-2.8-1.4-3.5-4.2-1.7
			l-0.9-0.5c-0.4-1-1.2-2-1.8-2.6c-0.8-0.9-1.9-1.5-3-1.8c-0.7-0.2-1.1,0.1-2,0.3c-0.3,0.1-0.7-0.4-0.9-0.5
			c-0.2-0.7-0.5-0.9-0.9-1.4c-0.9-1.4-1.8-2.3-3.2-2.6c-0.4,0.5-2,0.5-2-0.8c-1.4-2.7-3.4-3.8-5.4-3l-4.8,2l-6-2.5L141.7,158.8z"/>
	</g>
	<path class="grps11" d="M114.6,131.6c-0.1-0.4-0.2-0.6-0.6-0.9c1.5-0.1,2.6,0,3.7,0.5c-0.4,0.1-0.5,0.4-0.6,0.8
		C116,131.7,115.4,131.6,114.6,131.6z"/>
</g>
<g>
	<g>
		<path class="grps205" d="M83.1,130.4c9.8-11.1,32.5-9.9,37.5,15.1c0,1.6,0.9,2.4,2.2,3.5c3.1,2.5,2.1,4.2,0.7,7.4l35.6,31.1l1,2.3
			l-0.4,1.5l1.5,2.3l-0.4,2.3l-10.9,0.9l-5-3.5l-2.6-0.9l0.1-1.4c-0.2-1.4-1.2-1.8-3.5-1l-0.8-0.7c0-1.1-0.5-2.3-0.9-3
			c-0.5-1.1-1.3-2-2.1-2.6c-0.6-0.4-1.1-0.3-2-0.3c-0.3,0-0.5-0.6-0.8-0.7c0-0.7-0.2-1-0.4-1.6c-0.4-1.6-1-2.8-2.3-3.4
			c-0.6,0.4-2-0.2-1.7-1.4c-0.5-3-2.1-4.6-4.2-4.6l-5.2,0.4l-4.9-4.2l-2.8,1.6c-2.5-3.2-5.1-3.8-8.4-3.5
			C78.9,167,72.4,142.6,83.1,130.4z M87.9,146.9c3.4,3.1,8.5,2.5,11.3-1c3-3.6,2.6-8.9-0.7-11.8c-3.4-3.1-8.5-2.5-11.3,1
			C84.1,138.5,84.5,143.8,87.9,146.9z"/>
		<path class="grps206" d="M83.5,129.5c9.8-11.1,32.5-9.7,37.5,15.4c0,1.6,0.9,2.4,2.2,3.5c3.1,2.5,2.1,4.2,0.7,7.4l35.6,31.3l1,2.3
			l-0.4,1.5l1.5,2.3l-0.9,2.5l-10.7,0.8l-5.2-3.5l-2.3-0.6c0.2-2-0.6-3.5-3.1-2.8l-0.8-0.7c0-1.1-0.5-2.3-0.9-3
			c-0.5-1.1-1.3-2-2.3-2.6c-0.6-0.4-1.1-0.3-2-0.3c-0.3,0-0.5-0.6-0.8-0.7c0-0.7-0.2-1-0.4-1.6c-0.4-1.6-1-2.8-2.2-3.5
			c-0.6,0.4-2-0.2-1.7-1.4c-0.5-3-2.1-4.6-4.2-4.6l-5.2,0.4l-4.9-4.2l-2.8,1.6c-2.5-3.2-5-4-8.4-3.5C79.5,166,72.8,141.6,83.5,129.5
			z M88.4,146c3.4,3.1,8.5,2.5,11.5-1c3-3.6,2.6-8.9-0.7-11.8c-3.4-3.1-8.5-2.5-11.5,1C84.7,137.7,85,142.9,88.4,146z"/>
		
			<linearGradient id="GRPS_ID_23_" gradientUnits="userSpaceOnUse" x1="111.9412" y1="305.3909" x2="-4.8888" y2="402.9046" gradientTransform="matrix(-0.3062 0.952 -0.952 -0.3062 469.8716 215.8615)">
			<stop  offset="0" style="stop-color:#F5F5F5"/>
			<stop  offset="0.21" style="stop-color:#9B9A9B"/>
			<stop  offset="0.46" style="stop-color:#F5F5F5"/>
			<stop  offset="0.74" style="stop-color:#BCB9BA"/>
			<stop  offset="1" style="stop-color:#F5F5F5"/>
		</linearGradient>
		<path class="grps210" d="M83.9,128.5c9.8-11.1,32.5-9.7,37.5,15.4c0,1.6,0.9,2.4,2.2,3.5c3.1,2.5,2.1,4.2,0.7,7.4l35.7,31.2l1,2.3
			l-0.4,1.5l1.5,2.3l-0.4,2.3c-4.9,0.9-8.5,1.4-11.1,1.1l-1.2-0.6l-3.9-3l-2.3-0.4c0.6-2.7-0.2-3.8-3.5-2.9l-0.8-0.7
			c0-1.1-0.5-2.3-0.9-3c-0.5-1.1-1.3-2-2.3-2.6c-0.6-0.4-1.1-0.3-2-0.3c-0.3,0-0.5-0.6-0.8-0.7c0-0.7-0.2-1-0.4-1.6
			c-0.4-1.6-1-2.8-2.2-3.5c-0.6,0.4-2-0.2-1.7-1.4c-0.5-3-2.1-4.6-4.2-4.6l-5.2,0.4l-4.9-4.2l-2.8,1.6c-2.5-3.2-5-4-8.4-3.5
			C79.8,165.1,73.2,140.7,83.9,128.5z M88.8,145c3.4,3.1,8.5,2.5,11.5-1c3-3.6,2.6-8.9-0.7-11.8c-3.4-3.1-8.5-2.5-11.5,1
			C85.1,136.6,85.5,141.9,88.8,145z"/>
		
			<linearGradient id="GRPS_ID_24_" gradientUnits="userSpaceOnUse" x1="54.209" y1="320.5328" x2="73.6585" y2="329.0586" gradientTransform="matrix(-0.3062 0.952 -0.952 -0.3062 469.8716 215.8615)">
			<stop  offset="0" style="stop-color:#F5F5F5"/>
			<stop  offset="0.21" style="stop-color:#9B9A9B"/>
			<stop  offset="0.46" style="stop-color:#F5F5F5"/>
			<stop  offset="0.74" style="stop-color:#BCB9BA"/>
			<stop  offset="1" style="stop-color:#F5F5F5"/>
		</linearGradient>
		<polygon class="grps211" points="120.8,160.4 122.8,157.5 160.6,189.7 162.2,192.1 161.8,194.3 		"/>
		
			<linearGradient id="GRPS_ID_25_" gradientUnits="userSpaceOnUse" x1="55.722" y1="322.6775" x2="80.2336" y2="333.3347" gradientTransform="matrix(-0.3062 0.952 -0.952 -0.3062 469.8716 215.8615)">
			<stop  offset="0" style="stop-color:#F5F5F5"/>
			<stop  offset="0.21" style="stop-color:#9B9A9B"/>
			<stop  offset="0.46" style="stop-color:#F5F5F5"/>
			<stop  offset="0.74" style="stop-color:#BCB9BA"/>
			<stop  offset="1" style="stop-color:#F5F5F5"/>
		</linearGradient>
		<path class="grps212" d="M113.2,166.8l5.9-5.1l40.2,33c-3.7,0.7-6.7,0.9-8.7,0.7l-1.2-0.6l-3.9-3l-2.3-0.4c0.6-2.7-0.2-3.8-3.5-2.9
			l-0.8-0.7c0-1.1-0.5-2.3-0.9-3c-0.5-1.1-1.3-2-2.3-2.6c-0.6-0.4-1.1-0.3-2-0.3c-0.3,0-0.5-0.6-0.8-0.7c0-0.7-0.2-1-0.4-1.6
			c-0.4-1.6-1-2.8-2.2-3.5c-0.6,0.4-2-0.2-1.7-1.4c-0.5-3-2.1-4.6-4.2-4.6l-5.2,0.4l-4.9-4.2L113.2,166.8z"/>
	</g>
	<path class="grps11" d="M95.9,132.5c0-0.4,0-0.7-0.3-1.1c1.5,0.4,2.4,0.8,3.3,1.6c-0.4,0-0.6,0.3-0.9,0.6
		C97.3,133,96.7,132.8,95.9,132.5z"/>
</g>
<linearGradient id="GRPS_ID_26_" gradientUnits="userSpaceOnUse" x1="114.4628" y1="141.2112" x2="81.2156" y2="140.1642">
	<stop  offset="0" style="stop-color:var(--vitamui-secondary-900)"/>
	<stop  offset="1" style="stop-color:var(--vitamui-primary)"/>
</linearGradient>
<path class="grps213" d="M101.3,139.9c-0.2-3.1-1.1-4.2-1.6-4.5c-3.5,0.1-7.1,0.2-10.8,0.2c-5.9,0-11.7-0.2-17.2-0.5v10
	c5.5,0.4,11.1,0.5,16.9,0.5c3.4,0,6.8-0.1,10.1-0.2C99.9,144.7,101.6,143.1,101.3,139.9z"/>
<path class="grps214" d="M15.8,124.6c0,0,9.9,11,55.9,13.2c0.6,1.7-1.3,2.4-4.7,2.4c-1.3,0-9.2-1-11.5-1.3
	C34.5,135.6,21.4,132.1,15.8,124.6z"/>
</svg>
