<?xml version="1.0" encoding="utf-8"?>
<!-- Generator: Adobe Illustrator 26.0.3, SVG Export Plug-In . SVG Version: 6.00 Build 0)  -->
<!DOCTYPE svg PUBLIC "-//W3C//DTD SVG 1.1//EN" "http://www.w3.org/Graphics/SVG/1.1/DTD/svg11.dtd" [
	<!ENTITY ns_extend "http://ns.adobe.com/Extensibility/1.0/">
	<!ENTITY ns_ai "http://ns.adobe.com/AdobeIllustrator/10.0/">
	<!ENTITY ns_graphs "http://ns.adobe.com/Graphs/1.0/">
	<!ENTITY ns_vars "http://ns.adobe.com/Variables/1.0/">
	<!ENTITY ns_imrep "http://ns.adobe.com/ImageReplacement/1.0/">
	<!ENTITY ns_sfw "http://ns.adobe.com/SaveForWeb/1.0/">
	<!ENTITY ns_custom "http://ns.adobe.com/GenericCustomNamespace/1.0/">
	<!ENTITY ns_adobe_xpath "http://ns.adobe.com/XPath/1.0/">
]>
<svg version="1.1" id="Calque_1"
     xmlns="http://www.w3.org/2000/svg" x="0px" y="0px" viewBox="0 0 200 200"
     style="enable-background:new 0 0 200 200;" xml:space="preserve">
<style type="text/css">
	.holding_filling_scheme_app_0{fill-rule:evenodd;clip-rule:evenodd;}
	.holding_filling_scheme_app_1{fill-rule:evenodd;clip-rule:evenodd;fill:#BCB9BA;}
	.holding_filling_scheme_app_2{fill-rule:evenodd;clip-rule:evenodd;fill:#F5F5F5;}
	.holding_filling_scheme_app_3{fill-rule:evenodd;clip-rule:evenodd;fill:#E5E4E4;}
	.holding_filling_scheme_app_4{fill:#BCB9BA;}
	.holding_filling_scheme_app_5{fill:#BBB9BA;}
	.holding_filling_scheme_app_6{fill:#BBB8B9;}
	.holding_filling_scheme_app_7{fill:#BAB8B9;}
	.holding_filling_scheme_app_8{fill:#B9B7B8;}
	.holding_filling_scheme_app_9{fill:#B9B7B7;}
	.holding_filling_scheme_app_10{fill:#B8B6B7;}
	.holding_filling_scheme_app_11{fill:#B8B5B6;}
	.holding_filling_scheme_app_12{fill:#B7B5B6;}
	.holding_filling_scheme_app_13{fill:#B7B4B5;}
	.holding_filling_scheme_app_14{fill:#B6B4B5;}
	.holding_filling_scheme_app_15{fill:#B6B3B4;}
	.holding_filling_scheme_app_16{fill:#B5B3B4;}
	.holding_filling_scheme_app_17{fill:#B4B2B3;}
	.holding_filling_scheme_app_18{fill:#B3B1B2;}
	.holding_filling_scheme_app_19{fill:#B3B1B1;}
	.holding_filling_scheme_app_20{fill:#B2B0B1;}
	.holding_filling_scheme_app_21{fill:#B2AFB0;}
	.holding_filling_scheme_app_22{fill:#B1AFB0;}
	.holding_filling_scheme_app_23{fill:#B1AEAF;}
	.holding_filling_scheme_app_24{fill:#B0AEAF;}
	.holding_filling_scheme_app_25{fill:#AFADAE;}
	.holding_filling_scheme_app_26{fill:#AEACAD;}
	.holding_filling_scheme_app_27{fill:#ADABAC;}
	.holding_filling_scheme_app_28{fill:#ADABAB;}
	.holding_filling_scheme_app_29{fill:#ACAAAB;}
	.holding_filling_scheme_app_30{fill:#ACAAAA;}
	.holding_filling_scheme_app_31{fill:#ABA9AA;}
	.holding_filling_scheme_app_32{fill:#AAA8A9;}
	.holding_filling_scheme_app_33{fill:#A9A7A8;}
	.holding_filling_scheme_app_34{fill:#A8A6A7;}
	.holding_filling_scheme_app_35{fill:#A7A5A6;}
	.holding_filling_scheme_app_36{fill:#A7A5A5;}
	.holding_filling_scheme_app_37{fill:#A6A4A5;}
	.holding_filling_scheme_app_38{fill:#A5A4A4;}
	.holding_filling_scheme_app_39{fill:#A5A3A4;}
	.holding_filling_scheme_app_40{fill:#A4A2A3;}
	.holding_filling_scheme_app_41{fill:#A3A1A2;}
	.holding_filling_scheme_app_42{fill:#A2A0A1;}
	.holding_filling_scheme_app_43{fill:#A19FA0;}
	.holding_filling_scheme_app_44{fill:#A09F9F;}
	.holding_filling_scheme_app_45{fill:#A09E9F;}
	.holding_filling_scheme_app_46{fill:#9F9E9E;}
	.holding_filling_scheme_app_47{fill:#9F9D9E;}
	.holding_filling_scheme_app_48{fill:#9E9D9D;}
	.holding_filling_scheme_app_49{fill:#9E9C9D;}
	.holding_filling_scheme_app_50{fill:#9D9B9C;}
	.holding_filling_scheme_app_51{fill:#9C9A9B;}
	.holding_filling_scheme_app_52{fill:#9B9A9B;}
	.holding_filling_scheme_app_53{fill:#9B999A;}
	.holding_filling_scheme_app_54{fill:#9A9999;}
	.holding_filling_scheme_app_55{fill:#9A9899;}
	.holding_filling_scheme_app_56{fill:#999898;}
	.holding_filling_scheme_app_57{fill:#999798;}
	.holding_filling_scheme_app_58{fill:#989797;}
	.holding_filling_scheme_app_59{fill:#989697;}
	.holding_filling_scheme_app_60{fill:#979596;}
	.holding_filling_scheme_app_61{fill:#969596;}
	.holding_filling_scheme_app_62{fill:#969495;}
	.holding_filling_scheme_app_63{fill:#959495;}
	.holding_filling_scheme_app_64{fill:#959394;}
	.holding_filling_scheme_app_65{fill:#949393;}
	.holding_filling_scheme_app_66{fill:#949293;}
	.holding_filling_scheme_app_67{fill:#939292;}
	.holding_filling_scheme_app_68{fill:#939192;}
	.holding_filling_scheme_app_69{fill:#929191;}
	.holding_filling_scheme_app_70{fill:#919091;}
	.holding_filling_scheme_app_71{fill:#919090;}
	.holding_filling_scheme_app_72{fill:#908F90;}
	.holding_filling_scheme_app_73{fill:#908E8F;}
	.holding_filling_scheme_app_74{fill:#8F8E8F;}
	.holding_filling_scheme_app_75{fill:#8F8D8E;}
	.holding_filling_scheme_app_76{fill:#8E8D8D;}
	.holding_filling_scheme_app_77{fill:#8E8C8D;}
	.holding_filling_scheme_app_78{fill:#8D8C8C;}
	.holding_filling_scheme_app_79{fill:#8C8B8C;}
	.holding_filling_scheme_app_80{fill:#8C8B8B;}
	.holding_filling_scheme_app_81{fill:#8B8A8B;}
	.holding_filling_scheme_app_82{fill:#8B8A8A;}
	.holding_filling_scheme_app_83{fill:#8A898A;}
	.holding_filling_scheme_app_84{fill:#8A8889;}
	.holding_filling_scheme_app_85{fill:#898888;}
	.holding_filling_scheme_app_86{fill:#898788;}
	.holding_filling_scheme_app_87{fill:#888787;}
	.holding_filling_scheme_app_88{fill:#878687;}
	.holding_filling_scheme_app_89{fill:#878686;}
	.holding_filling_scheme_app_90{fill:#868586;}
	.holding_filling_scheme_app_91{fill:#868585;}
	.holding_filling_scheme_app_92{fill:#858485;}
	.holding_filling_scheme_app_93{fill:#858484;}
	.holding_filling_scheme_app_94{fill:#848384;}
	.holding_filling_scheme_app_95{fill:#848383;}
	.holding_filling_scheme_app_96{fill:#838282;}
	.holding_filling_scheme_app_97{fill:#828182;}
	.holding_filling_scheme_app_98{fill:#828181;}
	.holding_filling_scheme_app_99{fill:#818081;}
	.holding_filling_scheme_app_100{fill:#818080;}
	.holding_filling_scheme_app_101{fill:#807F80;}
	.holding_filling_scheme_app_102{fill:#807F7F;}
	.holding_filling_scheme_app_103{fill:#7F7E7F;}
	.holding_filling_scheme_app_104{fill:#7F7E7E;}
	.holding_filling_scheme_app_105{fill:#7E7D7E;}
	.holding_filling_scheme_app_106{fill:#7D7D7D;}
	.holding_filling_scheme_app_107{fill:#7D7C7C;}
	.holding_filling_scheme_app_108{fill:#7C7B7C;}
	.holding_filling_scheme_app_109{fill:#7C7B7B;}
	.holding_filling_scheme_app_110{fill:#7B7A7B;}
	.holding_filling_scheme_app_111{fill:#7B7A7A;}
	.holding_filling_scheme_app_112{fill:#7A797A;}
	.holding_filling_scheme_app_113{fill:#7A7979;}
	.holding_filling_scheme_app_114{fill:#797879;}
	.holding_filling_scheme_app_115{fill:#787878;}
	.holding_filling_scheme_app_116{fill:#787778;}
	.holding_filling_scheme_app_117{fill:#777777;}
	.holding_filling_scheme_app_118{fill:#777676;}
	.holding_filling_scheme_app_119{fill:#767676;}
	.holding_filling_scheme_app_120{fill:#767575;}
	.holding_filling_scheme_app_121{fill:#757475;}
	.holding_filling_scheme_app_122{fill:#757474;}
	.holding_filling_scheme_app_123{fill:#747374;}
	.holding_filling_scheme_app_124{fill:#737373;}
	.holding_filling_scheme_app_125{fill:#737273;}
	.holding_filling_scheme_app_126{fill:#727272;}
	.holding_filling_scheme_app_127{fill:#727172;}
	.holding_filling_scheme_app_128{fill:#717171;}
	.holding_filling_scheme_app_129{fill:#717070;}
	.holding_filling_scheme_app_130{fill:#707070;}
	.holding_filling_scheme_app_131{fill:#706F6F;}
	.holding_filling_scheme_app_132{fill:#6F6E6F;}
	.holding_filling_scheme_app_133{fill:#6E6E6E;}
	.holding_filling_scheme_app_134{fill:#6E6D6E;}
	.holding_filling_scheme_app_135{fill:#6D6D6D;}
	.holding_filling_scheme_app_136{fill:#6D6C6D;}
	.holding_filling_scheme_app_137{fill:#6C6C6C;}
	.holding_filling_scheme_app_138{fill:#6C6B6C;}
	.holding_filling_scheme_app_139{fill:#6B6B6B;}
	.holding_filling_scheme_app_140{fill:#6B6A6A;}
	.holding_filling_scheme_app_141{fill:#6A6A6A;}
	.holding_filling_scheme_app_142{fill:#696969;}
	.holding_filling_scheme_app_143{fill:#686868;}
	.holding_filling_scheme_app_144{fill:#686768;}
	.holding_filling_scheme_app_145{fill:#676767;}
	.holding_filling_scheme_app_146{fill:#676667;}
	.holding_filling_scheme_app_147{fill:#666666;}
	.holding_filling_scheme_app_148{fill:#666566;}
	.holding_filling_scheme_app_149{fill:#656565;}
	.holding_filling_scheme_app_150{fill:#646464;}
	.holding_filling_scheme_app_151{fill:#636363;}
	.holding_filling_scheme_app_152{fill:#626262;}
	.holding_filling_scheme_app_153{fill:#626162;}
	.holding_filling_scheme_app_154{fill:#616161;}
	.holding_filling_scheme_app_155{fill:#616061;}
	.holding_filling_scheme_app_156{fill:#606060;}
	.holding_filling_scheme_app_157{fill:#5F5F60;}
	.holding_filling_scheme_app_158{fill:#5F5F5F;}
	.holding_filling_scheme_app_159{fill:#5E5E5E;}
	.holding_filling_scheme_app_160{fill:#5D5D5D;}
	.holding_filling_scheme_app_161{fill:#5C5C5C;}
	.holding_filling_scheme_app_162{fill:#5B5B5B;}
	.holding_filling_scheme_app_163{fill:#5A5A5B;}
	.holding_filling_scheme_app_164{fill:#5A5A5A;}
	.holding_filling_scheme_app_165{fill:#59595A;}
	.holding_filling_scheme_app_166{fill:#595959;}
	.holding_filling_scheme_app_167{fill:#585858;}
	.holding_filling_scheme_app_168{fill:#575757;}
	.holding_filling_scheme_app_169{fill:#565656;}
	.holding_filling_scheme_app_170{fill:#555656;}
	.holding_filling_scheme_app_171{fill:#555555;}
	.holding_filling_scheme_app_172{fill:#545455;}
	.holding_filling_scheme_app_173{fill:#545454;}
	.holding_filling_scheme_app_174{fill:#535353;}
	.holding_filling_scheme_app_175{fill:#525252;}
	.holding_filling_scheme_app_176{fill:#515151;}
	.holding_filling_scheme_app_177{fill:#505151;}
	.holding_filling_scheme_app_178{fill:#505050;}
	.holding_filling_scheme_app_179{fill:#4F5050;}
	.holding_filling_scheme_app_180{fill:#4F4F4F;}
	.holding_filling_scheme_app_181{fill:#4E4F4F;}
	.holding_filling_scheme_app_182{fill:#4E4E4E;}
	.holding_filling_scheme_app_183{fill:#4D4D4D;}
	.holding_filling_scheme_app_184{fill:#4C4C4C;}
	.holding_filling_scheme_app_185{fill:url(#SVGID_1_);}
	.holding_filling_scheme_app_186{fill:url(#SVGID_00000046297148510532194970000014742106216710542224_);}
	.holding_filling_scheme_app_187{fill:var(--vitamui-primary);}
	.holding_filling_scheme_app_188{fill-rule:evenodd;clip-rule:evenodd;fill:url(#SVGID_00000074405428900037362500000008923748823930430384_);}
	.holding_filling_scheme_app_189{fill-rule:evenodd;clip-rule:evenodd;fill:url(#SVGID_00000061432404094761019410000010784071197780737725_);}
	.holding_filling_scheme_app_190{fill:url(#SVGID_00000096024863584760882360000015562725854274484407_);}
	.holding_filling_scheme_app_191{fill:url(#SVGID_00000080912589999284959620000004190801659887570822_);}
	.holding_filling_scheme_app_192{fill:var(--vitamui-primary-50);}
	.holding_filling_scheme_app_193{fill:#F5F5F5;}
</style>
<metadata>
	<sfw  xmlns="&ns_sfw;">
		<slices></slices>
		<sliceSourceBounds  bottomLeftOrigin="true" height="123.3" width="165.1" x="17.7" y="19.2"></sliceSourceBounds>
	</sfw>
</metadata>
<g>
	<g>
		<path class="holding_filling_scheme_app_0" d="M100.3,141.6c45.6,0,82.6,8.5,82.6,19s-37,20.2-82.6,20.2s-82.6-9.7-82.6-20.2
			C17.6,150.1,54.6,141.6,100.3,141.6z"/>
		<path class="holding_filling_scheme_app_1" d="M100.3,142c43.6,0,78.9,8.4,78.9,18.8c0,10.4-35.3,18.8-78.9,18.8s-78.9-8.4-78.9-18.8
			C21.3,150.3,56.7,142,100.3,142z"/>
		<path class="holding_filling_scheme_app_2" d="M100.3,139.8c43.6,0,78.9,8.4,78.9,18.8c0,10.4-35.3,18.8-78.9,18.8s-78.9-8.4-78.9-18.8
			C21.3,148.1,56.7,139.8,100.3,139.8z"/>
		<path class="holding_filling_scheme_app_1" d="M100.3,138.6c43.6,0,78.9,8.4,78.9,18.8c0,10.4-35.3,18.8-78.9,18.8s-78.9-8.4-78.9-18.8
			C21.3,146.9,56.7,138.6,100.3,138.6z"/>
		<path class="holding_filling_scheme_app_3" d="M100.2,138.6c22.9,0,43.4,2.3,57.8,6c-30.2-1.8-112.6,2.6-132.9,18.5c-2.5-1.8-3.8-3.8-3.8-5.7
			C21.2,146.9,56.7,138.6,100.2,138.6z"/>
		<path class="holding_filling_scheme_app_2" d="M21.3,157.2c0-10.4,35.3-18.8,78.9-18.8s78.9,8.4,78.9,18.8c0,0.4,0,0.6-0.1,1c-2.2-9.8-36.6-17.7-78.8-17.7
			s-76.6,7.9-78.8,17.7C21.3,157.9,21.3,157.6,21.3,157.2z"/>
	</g>
</g>
<g>
	<ellipse class="holding_filling_scheme_app_4" cx="113.1" cy="156.8" rx="58.4" ry="9.9"/>
	<ellipse class="holding_filling_scheme_app_5" cx="113.1" cy="156.8" rx="58.3" ry="9.8"/>
	<ellipse class="holding_filling_scheme_app_6" cx="113.1" cy="156.8" rx="58.2" ry="9.8"/>
	<ellipse class="holding_filling_scheme_app_7" cx="113.1" cy="156.8" rx="58.1" ry="9.8"/>
	<ellipse class="holding_filling_scheme_app_8" cx="113.1" cy="156.8" rx="58" ry="9.7"/>
	<ellipse class="holding_filling_scheme_app_9" cx="113.1" cy="156.8" rx="57.9" ry="9.7"/>
	<ellipse class="holding_filling_scheme_app_10" cx="113.1" cy="156.8" rx="57.8" ry="9.7"/>
	<ellipse class="holding_filling_scheme_app_11" cx="113" cy="156.8" rx="57.7" ry="9.6"/>
	<ellipse class="holding_filling_scheme_app_12" cx="113" cy="156.8" rx="57.6" ry="9.6"/>
	<ellipse class="holding_filling_scheme_app_13" cx="113" cy="156.7" rx="57.5" ry="9.6"/>
	<ellipse class="holding_filling_scheme_app_14" cx="113" cy="156.7" rx="57.4" ry="9.5"/>
	<ellipse class="holding_filling_scheme_app_15" cx="113" cy="156.7" rx="57.3" ry="9.5"/>
	<ellipse class="holding_filling_scheme_app_16" cx="113" cy="156.7" rx="57.2" ry="9.5"/>
	<ellipse class="holding_filling_scheme_app_17" cx="113" cy="156.7" rx="57" ry="9.4"/>
	<ellipse class="holding_filling_scheme_app_17" cx="113" cy="156.7" rx="56.9" ry="9.4"/>
	<ellipse class="holding_filling_scheme_app_18" cx="113" cy="156.7" rx="56.8" ry="9.4"/>
	<ellipse class="holding_filling_scheme_app_19" cx="113" cy="156.7" rx="56.7" ry="9.3"/>
	<ellipse class="holding_filling_scheme_app_20" cx="113" cy="156.7" rx="56.6" ry="9.3"/>
	<ellipse class="holding_filling_scheme_app_21" cx="113" cy="156.7" rx="56.5" ry="9.3"/>
	<ellipse class="holding_filling_scheme_app_22" cx="113" cy="156.7" rx="56.4" ry="9.3"/>
	<ellipse class="holding_filling_scheme_app_23" cx="113" cy="156.7" rx="56.3" ry="9.2"/>
	<ellipse class="holding_filling_scheme_app_24" cx="113" cy="156.7" rx="56.2" ry="9.2"/>
	<ellipse class="holding_filling_scheme_app_25" cx="113" cy="156.7" rx="56.1" ry="9.2"/>
	<ellipse class="holding_filling_scheme_app_25" cx="113" cy="156.7" rx="56" ry="9.1"/>
	<ellipse class="holding_filling_scheme_app_26" cx="113" cy="156.7" rx="55.9" ry="9.1"/>
	<ellipse class="holding_filling_scheme_app_26" cx="113" cy="156.7" rx="55.8" ry="9.1"/>
	<ellipse class="holding_filling_scheme_app_27" cx="113" cy="156.7" rx="55.7" ry="9"/>
	<ellipse class="holding_filling_scheme_app_28" cx="113" cy="156.7" rx="55.6" ry="9"/>
	<ellipse class="holding_filling_scheme_app_29" cx="113" cy="156.7" rx="55.5" ry="9"/>
	<ellipse class="holding_filling_scheme_app_30" cx="113" cy="156.7" rx="55.4" ry="8.9"/>
	<ellipse class="holding_filling_scheme_app_31" cx="113" cy="156.7" rx="55.3" ry="8.9"/>
	<ellipse class="holding_filling_scheme_app_32" cx="113" cy="156.6" rx="55.2" ry="8.9"/>
	<ellipse class="holding_filling_scheme_app_32" cx="113" cy="156.6" rx="55.1" ry="8.8"/>
	<ellipse class="holding_filling_scheme_app_33" cx="113" cy="156.6" rx="55" ry="8.8"/>
	<ellipse class="holding_filling_scheme_app_33" cx="113" cy="156.6" rx="54.9" ry="8.8"/>
	<ellipse class="holding_filling_scheme_app_34" cx="113" cy="156.6" rx="54.8" ry="8.7"/>
	<ellipse class="holding_filling_scheme_app_34" cx="113" cy="156.6" rx="54.7" ry="8.7"/>
	<ellipse class="holding_filling_scheme_app_35" cx="113" cy="156.6" rx="54.6" ry="8.7"/>
	<ellipse class="holding_filling_scheme_app_36" cx="113" cy="156.6" rx="54.5" ry="8.6"/>
	<ellipse class="holding_filling_scheme_app_37" cx="113" cy="156.6" rx="54.4" ry="8.6"/>
	<ellipse class="holding_filling_scheme_app_38" cx="113" cy="156.6" rx="54.3" ry="8.6"/>
	<ellipse class="holding_filling_scheme_app_39" cx="113" cy="156.6" rx="54.2" ry="8.5"/>
	<ellipse class="holding_filling_scheme_app_40" cx="113" cy="156.6" rx="54.1" ry="8.5"/>
	<ellipse class="holding_filling_scheme_app_40" cx="113" cy="156.6" rx="54" ry="8.5"/>
	<ellipse class="holding_filling_scheme_app_41" cx="113" cy="156.6" rx="53.9" ry="8.5"/>
	<ellipse class="holding_filling_scheme_app_41" cx="113" cy="156.6" rx="53.7" ry="8.4"/>
	<ellipse class="holding_filling_scheme_app_42" cx="113" cy="156.6" rx="53.6" ry="8.4"/>
	<ellipse class="holding_filling_scheme_app_42" cx="113" cy="156.6" rx="53.5" ry="8.4"/>
	<ellipse class="holding_filling_scheme_app_43" cx="113" cy="156.6" rx="53.4" ry="8.3"/>
	<ellipse class="holding_filling_scheme_app_44" cx="113" cy="156.6" rx="53.3" ry="8.3"/>
	<ellipse class="holding_filling_scheme_app_45" cx="113" cy="156.6" rx="53.2" ry="8.3"/>
	<ellipse class="holding_filling_scheme_app_46" cx="113" cy="156.6" rx="53.1" ry="8.2"/>
	<ellipse class="holding_filling_scheme_app_47" cx="113" cy="156.6" rx="53" ry="8.2"/>
	<ellipse class="holding_filling_scheme_app_48" cx="113" cy="156.5" rx="52.9" ry="8.2"/>
	<ellipse class="holding_filling_scheme_app_49" cx="113" cy="156.5" rx="52.8" ry="8.1"/>
	<ellipse class="holding_filling_scheme_app_50" cx="113" cy="156.5" rx="52.7" ry="8.1"/>
	<ellipse class="holding_filling_scheme_app_50" cx="113" cy="156.5" rx="52.6" ry="8.1"/>
	<ellipse class="holding_filling_scheme_app_51" cx="113" cy="156.5" rx="52.5" ry="8"/>
	<ellipse class="holding_filling_scheme_app_52" cx="113" cy="156.5" rx="52.4" ry="8"/>
	<ellipse class="holding_filling_scheme_app_53" cx="113" cy="156.5" rx="52.3" ry="8"/>
	<ellipse class="holding_filling_scheme_app_54" cx="113" cy="156.5" rx="52.2" ry="7.9"/>
	<ellipse class="holding_filling_scheme_app_55" cx="113" cy="156.5" rx="52.1" ry="7.9"/>
	<ellipse class="holding_filling_scheme_app_56" cx="113" cy="156.5" rx="52" ry="7.9"/>
	<ellipse class="holding_filling_scheme_app_57" cx="113" cy="156.5" rx="51.9" ry="7.8"/>
	<ellipse class="holding_filling_scheme_app_58" cx="113" cy="156.5" rx="51.8" ry="7.8"/>
	<ellipse class="holding_filling_scheme_app_59" cx="113" cy="156.5" rx="51.7" ry="7.8"/>
	<ellipse class="holding_filling_scheme_app_60" cx="113" cy="156.5" rx="51.6" ry="7.7"/>
	<ellipse class="holding_filling_scheme_app_61" cx="113" cy="156.5" rx="51.5" ry="7.7"/>
	<ellipse class="holding_filling_scheme_app_62" cx="113" cy="156.5" rx="51.4" ry="7.7"/>
	<ellipse class="holding_filling_scheme_app_63" cx="113" cy="156.5" rx="51.3" ry="7.6"/>
	<ellipse class="holding_filling_scheme_app_64" cx="113" cy="156.5" rx="51.2" ry="7.6"/>
	<ellipse class="holding_filling_scheme_app_65" cx="113" cy="156.5" rx="51.1" ry="7.6"/>
	<ellipse class="holding_filling_scheme_app_66" cx="112.9" cy="156.5" rx="51" ry="7.6"/>
	<ellipse class="holding_filling_scheme_app_67" cx="112.9" cy="156.5" rx="50.9" ry="7.5"/>
	<ellipse class="holding_filling_scheme_app_68" cx="112.9" cy="156.5" rx="50.8" ry="7.5"/>
	<ellipse class="holding_filling_scheme_app_69" cx="112.9" cy="156.4" rx="50.7" ry="7.5"/>
	<ellipse class="holding_filling_scheme_app_70" cx="112.9" cy="156.4" rx="50.6" ry="7.4"/>
	<ellipse class="holding_filling_scheme_app_71" cx="112.9" cy="156.4" rx="50.4" ry="7.4"/>
	<ellipse class="holding_filling_scheme_app_72" cx="112.9" cy="156.4" rx="50.3" ry="7.4"/>
	<ellipse class="holding_filling_scheme_app_73" cx="112.9" cy="156.4" rx="50.2" ry="7.3"/>
	<ellipse class="holding_filling_scheme_app_74" cx="112.9" cy="156.4" rx="50.1" ry="7.3"/>
	<ellipse class="holding_filling_scheme_app_75" cx="112.9" cy="156.4" rx="50" ry="7.3"/>
	<ellipse class="holding_filling_scheme_app_76" cx="112.9" cy="156.4" rx="49.9" ry="7.2"/>
	<ellipse class="holding_filling_scheme_app_77" cx="112.9" cy="156.4" rx="49.8" ry="7.2"/>
	<ellipse class="holding_filling_scheme_app_78" cx="112.9" cy="156.4" rx="49.7" ry="7.2"/>
	<ellipse class="holding_filling_scheme_app_79" cx="112.9" cy="156.4" rx="49.6" ry="7.1"/>
	<ellipse class="holding_filling_scheme_app_80" cx="112.9" cy="156.4" rx="49.5" ry="7.1"/>
	<ellipse class="holding_filling_scheme_app_81" cx="112.9" cy="156.4" rx="49.4" ry="7.1"/>
	<ellipse class="holding_filling_scheme_app_82" cx="112.9" cy="156.4" rx="49.3" ry="7"/>
	<ellipse class="holding_filling_scheme_app_83" cx="112.9" cy="156.4" rx="49.2" ry="7"/>
	<ellipse class="holding_filling_scheme_app_84" cx="112.9" cy="156.4" rx="49.1" ry="7"/>
	<ellipse class="holding_filling_scheme_app_85" cx="112.9" cy="156.4" rx="49" ry="6.9"/>
	<ellipse class="holding_filling_scheme_app_86" cx="112.9" cy="156.4" rx="48.9" ry="6.9"/>
	<ellipse class="holding_filling_scheme_app_87" cx="112.9" cy="156.4" rx="48.8" ry="6.9"/>
	<ellipse class="holding_filling_scheme_app_88" cx="112.9" cy="156.4" rx="48.7" ry="6.8"/>
	<ellipse class="holding_filling_scheme_app_89" cx="112.9" cy="156.4" rx="48.6" ry="6.8"/>
	<ellipse class="holding_filling_scheme_app_90" cx="112.9" cy="156.4" rx="48.5" ry="6.8"/>
	<ellipse class="holding_filling_scheme_app_91" cx="112.9" cy="156.3" rx="48.4" ry="6.8"/>
	<ellipse class="holding_filling_scheme_app_92" cx="112.9" cy="156.3" rx="48.3" ry="6.7"/>
	<ellipse class="holding_filling_scheme_app_93" cx="112.9" cy="156.3" rx="48.2" ry="6.7"/>
	<ellipse class="holding_filling_scheme_app_94" cx="112.9" cy="156.3" rx="48.1" ry="6.7"/>
	<ellipse class="holding_filling_scheme_app_95" cx="112.9" cy="156.3" rx="48" ry="6.6"/>
	<ellipse class="holding_filling_scheme_app_96" cx="112.9" cy="156.3" rx="47.9" ry="6.6"/>
	<ellipse class="holding_filling_scheme_app_97" cx="112.9" cy="156.3" rx="47.8" ry="6.6"/>
	<ellipse class="holding_filling_scheme_app_98" cx="112.9" cy="156.3" rx="47.7" ry="6.5"/>
	<ellipse class="holding_filling_scheme_app_99" cx="112.9" cy="156.3" rx="47.6" ry="6.5"/>
	<ellipse class="holding_filling_scheme_app_100" cx="112.9" cy="156.3" rx="47.5" ry="6.5"/>
	<ellipse class="holding_filling_scheme_app_101" cx="112.9" cy="156.3" rx="47.4" ry="6.4"/>
	<ellipse class="holding_filling_scheme_app_102" cx="112.9" cy="156.3" rx="47.3" ry="6.4"/>
	<ellipse class="holding_filling_scheme_app_103" cx="112.9" cy="156.3" rx="47.1" ry="6.4"/>
	<ellipse class="holding_filling_scheme_app_104" cx="112.9" cy="156.3" rx="47" ry="6.3"/>
	<ellipse class="holding_filling_scheme_app_105" cx="112.9" cy="156.3" rx="46.9" ry="6.3"/>
	<ellipse class="holding_filling_scheme_app_106" cx="112.9" cy="156.3" rx="46.8" ry="6.3"/>
	<ellipse class="holding_filling_scheme_app_107" cx="112.9" cy="156.3" rx="46.7" ry="6.2"/>
	<ellipse class="holding_filling_scheme_app_108" cx="112.9" cy="156.3" rx="46.6" ry="6.2"/>
	<ellipse class="holding_filling_scheme_app_109" cx="112.9" cy="156.3" rx="46.5" ry="6.2"/>
	<ellipse class="holding_filling_scheme_app_110" cx="112.9" cy="156.3" rx="46.4" ry="6.1"/>
	<ellipse class="holding_filling_scheme_app_111" cx="112.9" cy="156.3" rx="46.3" ry="6.1"/>
	<ellipse class="holding_filling_scheme_app_112" cx="112.9" cy="156.3" rx="46.2" ry="6.1"/>
	<ellipse class="holding_filling_scheme_app_113" cx="112.9" cy="156.2" rx="46.1" ry="6"/>
	<ellipse class="holding_filling_scheme_app_114" cx="112.9" cy="156.2" rx="46" ry="6"/>
	<ellipse class="holding_filling_scheme_app_115" cx="112.9" cy="156.2" rx="45.9" ry="6"/>
	<ellipse class="holding_filling_scheme_app_116" cx="112.9" cy="156.2" rx="45.8" ry="5.9"/>
	<ellipse class="holding_filling_scheme_app_117" cx="112.9" cy="156.2" rx="45.7" ry="5.9"/>
	<ellipse class="holding_filling_scheme_app_118" cx="112.9" cy="156.2" rx="45.6" ry="5.9"/>
	<ellipse class="holding_filling_scheme_app_119" cx="112.9" cy="156.2" rx="45.5" ry="5.9"/>
	<ellipse class="holding_filling_scheme_app_120" cx="112.9" cy="156.2" rx="45.4" ry="5.8"/>
	<ellipse class="holding_filling_scheme_app_121" cx="112.9" cy="156.2" rx="45.3" ry="5.8"/>
	<ellipse class="holding_filling_scheme_app_122" cx="112.9" cy="156.2" rx="45.2" ry="5.8"/>
	<ellipse class="holding_filling_scheme_app_123" cx="112.9" cy="156.2" rx="45.1" ry="5.7"/>
	<ellipse class="holding_filling_scheme_app_124" cx="112.9" cy="156.2" rx="45" ry="5.7"/>
	<ellipse class="holding_filling_scheme_app_125" cx="112.9" cy="156.2" rx="44.9" ry="5.7"/>
	<ellipse class="holding_filling_scheme_app_126" cx="112.9" cy="156.2" rx="44.8" ry="5.6"/>
	<ellipse class="holding_filling_scheme_app_127" cx="112.9" cy="156.2" rx="44.7" ry="5.6"/>
	<ellipse class="holding_filling_scheme_app_128" cx="112.9" cy="156.2" rx="44.6" ry="5.6"/>
	<ellipse class="holding_filling_scheme_app_129" cx="112.9" cy="156.2" rx="44.5" ry="5.5"/>
	<ellipse class="holding_filling_scheme_app_130" cx="112.8" cy="156.2" rx="44.4" ry="5.5"/>
	<ellipse class="holding_filling_scheme_app_131" cx="112.8" cy="156.2" rx="44.3" ry="5.5"/>
	<ellipse class="holding_filling_scheme_app_132" cx="112.8" cy="156.2" rx="44.2" ry="5.4"/>
	<ellipse class="holding_filling_scheme_app_133" cx="112.8" cy="156.2" rx="44.1" ry="5.4"/>
	<ellipse class="holding_filling_scheme_app_134" cx="112.8" cy="156.2" rx="44" ry="5.4"/>
	<ellipse class="holding_filling_scheme_app_135" cx="112.8" cy="156.1" rx="43.8" ry="5.3"/>
	<ellipse class="holding_filling_scheme_app_136" cx="112.8" cy="156.1" rx="43.7" ry="5.3"/>
	<ellipse class="holding_filling_scheme_app_137" cx="112.8" cy="156.1" rx="43.6" ry="5.3"/>
	<ellipse class="holding_filling_scheme_app_138" cx="112.8" cy="156.1" rx="43.5" ry="5.2"/>
	<ellipse class="holding_filling_scheme_app_139" cx="112.8" cy="156.1" rx="43.4" ry="5.2"/>
	<ellipse class="holding_filling_scheme_app_140" cx="112.8" cy="156.1" rx="43.3" ry="5.2"/>
	<ellipse class="holding_filling_scheme_app_141" cx="112.8" cy="156.1" rx="43.2" ry="5.1"/>
	<ellipse class="holding_filling_scheme_app_142" cx="112.8" cy="156.1" rx="43.1" ry="5.1"/>
	<ellipse class="holding_filling_scheme_app_142" cx="112.8" cy="156.1" rx="43" ry="5.1"/>
	<ellipse class="holding_filling_scheme_app_143" cx="112.8" cy="156.1" rx="42.9" ry="5.1"/>
	<ellipse class="holding_filling_scheme_app_144" cx="112.8" cy="156.1" rx="42.8" ry="5"/>
	<ellipse class="holding_filling_scheme_app_145" cx="112.8" cy="156.1" rx="42.7" ry="5"/>
	<ellipse class="holding_filling_scheme_app_146" cx="112.8" cy="156.1" rx="42.6" ry="5"/>
	<ellipse class="holding_filling_scheme_app_147" cx="112.8" cy="156.1" rx="42.5" ry="4.9"/>
	<ellipse class="holding_filling_scheme_app_148" cx="112.8" cy="156.1" rx="42.4" ry="4.9"/>
	<ellipse class="holding_filling_scheme_app_149" cx="112.8" cy="156.1" rx="42.3" ry="4.9"/>
	<ellipse class="holding_filling_scheme_app_150" cx="112.8" cy="156.1" rx="42.2" ry="4.8"/>
	<ellipse class="holding_filling_scheme_app_150" cx="112.8" cy="156.1" rx="42.1" ry="4.8"/>
	<ellipse class="holding_filling_scheme_app_151" cx="112.8" cy="156.1" rx="42" ry="4.8"/>
	<ellipse class="holding_filling_scheme_app_151" cx="112.8" cy="156.1" rx="41.9" ry="4.7"/>
	<ellipse class="holding_filling_scheme_app_152" cx="112.8" cy="156.1" rx="41.8" ry="4.7"/>
	<ellipse class="holding_filling_scheme_app_153" cx="112.8" cy="156.1" rx="41.7" ry="4.7"/>
	<ellipse class="holding_filling_scheme_app_154" cx="112.8" cy="156" rx="41.6" ry="4.6"/>
	<ellipse class="holding_filling_scheme_app_155" cx="112.8" cy="156" rx="41.5" ry="4.6"/>
	<ellipse class="holding_filling_scheme_app_156" cx="112.8" cy="156" rx="41.4" ry="4.6"/>
	<ellipse class="holding_filling_scheme_app_157" cx="112.8" cy="156" rx="41.3" ry="4.5"/>
	<ellipse class="holding_filling_scheme_app_158" cx="112.8" cy="156" rx="41.2" ry="4.5"/>
	<ellipse class="holding_filling_scheme_app_159" cx="112.8" cy="156" rx="41.1" ry="4.5"/>
	<ellipse class="holding_filling_scheme_app_159" cx="112.8" cy="156" rx="41" ry="4.4"/>
	<ellipse class="holding_filling_scheme_app_160" cx="112.8" cy="156" rx="40.9" ry="4.4"/>
	<ellipse class="holding_filling_scheme_app_160" cx="112.8" cy="156" rx="40.8" ry="4.4"/>
	<ellipse class="holding_filling_scheme_app_161" cx="112.8" cy="156" rx="40.7" ry="4.3"/>
	<ellipse class="holding_filling_scheme_app_161" cx="112.8" cy="156" rx="40.5" ry="4.3"/>
	<ellipse class="holding_filling_scheme_app_162" cx="112.8" cy="156" rx="40.4" ry="4.3"/>
	<ellipse class="holding_filling_scheme_app_163" cx="112.8" cy="156" rx="40.3" ry="4.3"/>
	<ellipse class="holding_filling_scheme_app_164" cx="112.8" cy="156" rx="40.2" ry="4.2"/>
	<ellipse class="holding_filling_scheme_app_165" cx="112.8" cy="156" rx="40.1" ry="4.2"/>
	<ellipse class="holding_filling_scheme_app_166" cx="112.8" cy="156" rx="40" ry="4.2"/>
	<ellipse class="holding_filling_scheme_app_167" cx="112.8" cy="156" rx="39.9" ry="4.1"/>
	<ellipse class="holding_filling_scheme_app_167" cx="112.8" cy="156" rx="39.8" ry="4.1"/>
	<ellipse class="holding_filling_scheme_app_168" cx="112.8" cy="156" rx="39.7" ry="4.1"/>
	<ellipse class="holding_filling_scheme_app_168" cx="112.8" cy="156" rx="39.6" ry="4"/>
	<ellipse class="holding_filling_scheme_app_169" cx="112.8" cy="156" rx="39.5" ry="4"/>
	<ellipse class="holding_filling_scheme_app_170" cx="112.8" cy="156" rx="39.4" ry="4"/>
	<ellipse class="holding_filling_scheme_app_171" cx="112.8" cy="155.9" rx="39.3" ry="3.9"/>
	<ellipse class="holding_filling_scheme_app_172" cx="112.8" cy="155.9" rx="39.2" ry="3.9"/>
	<ellipse class="holding_filling_scheme_app_173" cx="112.8" cy="155.9" rx="39.1" ry="3.9"/>
	<ellipse class="holding_filling_scheme_app_174" cx="112.8" cy="155.9" rx="39" ry="3.8"/>
	<ellipse class="holding_filling_scheme_app_174" cx="112.8" cy="155.9" rx="38.9" ry="3.8"/>
	<ellipse class="holding_filling_scheme_app_175" cx="112.8" cy="155.9" rx="38.8" ry="3.8"/>
	<ellipse class="holding_filling_scheme_app_175" cx="112.8" cy="155.9" rx="38.7" ry="3.7"/>
	<ellipse class="holding_filling_scheme_app_176" cx="112.8" cy="155.9" rx="38.6" ry="3.7"/>
	<ellipse class="holding_filling_scheme_app_177" cx="112.8" cy="155.9" rx="38.5" ry="3.7"/>
	<ellipse class="holding_filling_scheme_app_178" cx="112.8" cy="155.9" rx="38.4" ry="3.6"/>
	<ellipse class="holding_filling_scheme_app_179" cx="112.8" cy="155.9" rx="38.3" ry="3.6"/>
	<ellipse class="holding_filling_scheme_app_180" cx="112.8" cy="155.9" rx="38.2" ry="3.6"/>
	<ellipse class="holding_filling_scheme_app_181" cx="112.8" cy="155.9" rx="38.1" ry="3.5"/>
	<ellipse class="holding_filling_scheme_app_182" cx="112.8" cy="155.9" rx="38" ry="3.5"/>
	<ellipse class="holding_filling_scheme_app_183" cx="112.8" cy="155.9" rx="37.9" ry="3.5"/>
	<ellipse class="holding_filling_scheme_app_183" cx="112.8" cy="155.9" rx="37.8" ry="3.4"/>
	<ellipse class="holding_filling_scheme_app_184" cx="112.7" cy="155.9" rx="37.7" ry="3.4"/>
</g>
<g>
	<g>
		<g>

				<ellipse transform="matrix(4.254305e-02 -0.9991 0.9991 4.254305e-02 -65.5013 253.5833)" class="holding_filling_scheme_app_184" cx="99.6" cy="161" rx="2.1" ry="27.4"/>
		</g>
		<g>
			<g>
				<g>
					<linearGradient id="SVGID_HOLDING_FILLING_SCHEME_APP_01" gradientUnits="userSpaceOnUse" x1="99.0702" y1="120.7779" x2="152.0917" y2="90.0123">
						<stop  offset="0" style="stop-color:var(--vitamui-primary-900)"/>
						<stop  offset="1" style="stop-color:var(--vitamui-primary)"/>
					</linearGradient>
					<path class="holding_filling_scheme_app_185" d="M121.6,161l-32.1-4c-3.7-0.4-6.5-3.9-6.5-8V79.7c0-3.8,2.4-7.2,5.7-8.1l33-10.1c5.8-0.6,10,4.1,10,8.8
						v82.2c0,4.5-2.7,7.4-7,8.4C124.2,161,122,161,121.6,161z"/>

						<linearGradient id="SVGID_HOLDING_FILLING_SCHEME_APP_02" gradientUnits="userSpaceOnUse" x1="157.247" y1="170.5183" x2="95.7609" y2="97.9091">
						<stop  offset="0" style="stop-color:var(--vitamui-primary-900)"/>
						<stop  offset="1" style="stop-color:var(--vitamui-primary)"/>
					</linearGradient>
					<path style="fill:url(#SVGID_00000060028255640107025540000003060348898804628881_);" d="M121.7,160.9L87.4,157
						c-3.7-0.4-6.5-3.9-6.5-8.1V79.1c0-3.9,2.4-7.2,5.7-8.1l34.3-9.3c4.6-1.2,9,2.7,9,8v82.8C129.9,157.5,126.1,161.4,121.7,160.9z"
						/>
					<path class="holding_filling_scheme_app_187" d="M129.9,69.7v79.7C129.9,149.5,127.5,116.6,129.9,69.7z"/>
				</g>
				<g>

						<linearGradient id="SVGID_HOLDING_FILLING_SCHEME_APP_03" gradientUnits="userSpaceOnUse" x1="476.5502" y1="30.8858" x2="569.3163" y2="126.7214" gradientTransform="matrix(-1 0 0 1 661.9603 0)">
						<stop  offset="0" style="stop-color:#F5F5F5"/>
						<stop  offset="0.7896" style="stop-color:#9B9A9B"/>
					</linearGradient>

						<polygon style="fill-rule:evenodd;clip-rule:evenodd;fill:url(#SVGID_00000025427814840635707490000013550245679730764168_);" points="
						127.7,161.7 127.9,58.5 78.5,70.1 78.5,154.3 					"/>
					<polygon class="holding_filling_scheme_app_3" points="128.4,161.4 127.7,161.7 127.9,58.5 128.3,58.9 					"/>
				</g>

					<linearGradient id="SVGID_HOLDING_FILLING_SCHEME_APP_04" gradientUnits="userSpaceOnUse" x1="512.0507" y1="64.478" x2="606.7145" y2="162.2741" gradientTransform="matrix(-1 0 0 1 661.9603 0)">
					<stop  offset="0" style="stop-color:#F5F5F5"/>
					<stop  offset="0.7896" style="stop-color:#9B9A9B"/>
				</linearGradient>

					<polygon style="fill-rule:evenodd;clip-rule:evenodd;fill:url(#SVGID_00000099634092215428873020000008931034686904821666_);" points="
					125.1,162.8 125.3,57.5 74.9,69.3 74.9,155.2 				"/>

					<linearGradient id="SVGID_HOLDING_FILLING_SCHEME_APP_05" gradientUnits="userSpaceOnUse" x1="85.2444" y1="121.8188" x2="144.1326" y2="87.6491">
					<stop  offset="0" style="stop-color:var(--vitamui-primary-900)"/>
					<stop  offset="1" style="stop-color:var(--vitamui-primary)"/>
				</linearGradient>
				<path style="fill:url(#SVGID_00000034770894112225277910000014912947319217696951_);" d="M111,164.2L73.1,159
					c-4.3-0.5-7.6-4.2-7.6-8.6V77.9c0-4,2.7-7.5,6.6-8.4l38.9-10.6c7-0.6,11.9,4.3,11.9,9.4v87.3c0,4.7-3.3,7.8-8.3,8.7
					C114.2,164.2,111.5,164.2,111,164.2z"/>

					<linearGradient id="SVGID_HOLDING_FILLING_SCHEME_APP_06" gradientUnits="userSpaceOnUse" x1="75.2273" y1="175.1687" x2="111.0933" y2="50.1222">
					<stop  offset="0" style="stop-color:var(--vitamui-primary-900)"/>
					<stop  offset="3.934753e-02" style="stop-color:var(--vitamui-primary-800)"/>
					<stop  offset="0.1654" style="stop-color:var(--vitamui-primary-700)"/>
					<stop  offset="0.2899" style="stop-color:var(--vitamui-primary-600)"/>
					<stop  offset="0.4107" style="stop-color:var(--vitamui-primary-600)"/>
					<stop  offset="0.5264" style="stop-color:var(--vitamui-primary)"/>
					<stop  offset="0.6312" style="stop-color:var(--vitamui-primary)"/>
					<stop  offset="0.6963" style="stop-color:var(--vitamui-primary)"/>
					<stop  offset="0.7969" style="stop-color:var(--vitamui-primary-400)"/>
					<stop  offset="0.92" style="stop-color:var(--vitamui-primary-100)"/>
					<stop  offset="1" style="stop-color:var(--vitamui-primary-50)"/>
				</linearGradient>
				<path style="fill:url(#SVGID_00000078723114181070596240000011126549482464645764_);" d="M111.2,164.1L70.8,159
					c-4.4-0.6-7.6-4.3-7.6-8.6V77.3c0-4,2.8-7.5,6.7-8.5l40.4-9.7c5.5-1.3,10.8,2.8,10.8,8.5v87.9
					C121,160.7,116.4,164.7,111.2,164.1z"/>
				<path class="holding_filling_scheme_app_192" d="M121,67.6v84.6C121,152.2,118.1,117.3,121,67.6z"/>
				<polygon class="holding_filling_scheme_app_3" points="125.8,162.5 125.1,162.8 125.3,57.5 125.8,57.9 				"/>
			</g>
		</g>
	</g>
</g>
<g>
	<path class="holding_filling_scheme_app_193" d="M80.1,134.3l-7.6-8.6l0-13.6c1.5-0.9,2.7-3.3,2.7-6.1c0-3.4-1.7-6-3.8-5.7c-2,0.3-3.7,3.1-3.7,6.4
		c0,2.7,1.1,4.9,2.5,5.5l0,14.4c0,0.6,0.2,1.2,0.5,1.5l7.5,8.6l0,21.1c0,1,0.5,2,1.2,2.1c0.7,0.1,1.2-0.7,1.2-1.7l0-22.3
		C80.7,135.3,80.5,134.7,80.1,134.3z"/>
	<path class="holding_filling_scheme_app_193" d="M87.5,131.1l-5.4-6.1l0-28.4c2.4-1.2,4.2-4.8,4.2-8.8c0-4.7-2.5-8-5.4-7.4c-2.9,0.6-5.2,4.7-5.2,9.2
		c0,3.8,1.7,6.8,3.9,7.3l0,29.1c0,0.6,0.2,1.2,0.5,1.6l5.3,6.1l0,25.2c0,1.1,0.6,2,1.3,2.1c0.7,0.1,1.3-0.7,1.3-1.8l0.1-26.5
		C88,132.1,87.8,131.5,87.5,131.1z M78.1,89.2c0-2.4,1.3-4.6,2.8-4.9c1.6-0.3,2.9,1.5,2.9,4c0,2.5-1.3,4.7-2.9,4.9
		C79.3,93.4,78.1,91.7,78.1,89.2z"/>
	<path class="holding_filling_scheme_app_193" d="M93.3,100.5c-2.5,0.3-4.4,3.5-4.5,7.1c0,3.2,1.5,5.8,3.6,6.3c0,0,0,0.1,0,0.1l-0.1,45.9
		c0,1.1,0.6,2.1,1.4,2.2c0.8,0.1,1.4-0.7,1.4-1.8l0.1-46.4c0-0.2,0-0.4-0.1-0.6c1.6-1.1,2.8-3.6,2.8-6.4
		C98,103,95.9,100.2,93.3,100.5z"/>
	<path class="holding_filling_scheme_app_193" d="M115.2,94.8c0-5.3-3.1-9.1-6.8-8.5c-3.6,0.6-6.5,5.1-6.5,10.1c0,4.3,2.1,7.7,5,8.4c0,0.2-0.1,0.4-0.1,0.6
		l-0.1,23.7l-6.3,5.7c-0.4,0.4-0.7,1-0.7,1.7l-0.1,24.3c0,1.1,0.6,2.2,1.4,2.3c0.8,0.1,1.5-0.7,1.5-1.9l0.1-23.4l6.4-5.7
		c0.4-0.4,0.7-1.1,0.7-1.8l0.1-25.2c0-0.2,0-0.4-0.1-0.6C112.9,103.4,115.2,99.3,115.2,94.8z M108.3,100.6c-1.9,0.2-3.5-1.8-3.5-4.5
		c0-2.7,1.6-5.1,3.5-5.4c2-0.3,3.6,1.7,3.6,4.5C112,98,110.3,100.4,108.3,100.6z"/>
</g>
</svg>
