<?xml version="1.0" encoding="utf-8"?>
<!-- Generator: Adobe Illustrator 27.2.0, SVG Export Plug-In . SVG Version: 6.00 Build 0)  -->
<!DOCTYPE svg PUBLIC "-//W3C//DTD SVG 1.1//EN" "http://www.w3.org/Graphics/SVG/1.1/DTD/svg11.dtd" [
	<!ENTITY ns_extend "http://ns.adobe.com/Extensibility/1.0/">
	<!ENTITY ns_ai "http://ns.adobe.com/AdobeIllustrator/10.0/">
	<!ENTITY ns_graphs "http://ns.adobe.com/Graphs/1.0/">
	<!ENTITY ns_vars "http://ns.adobe.com/Variables/1.0/">
	<!ENTITY ns_imrep "http://ns.adobe.com/ImageReplacement/1.0/">
	<!ENTITY ns_sfw "http://ns.adobe.com/SaveForWeb/1.0/">
	<!ENTITY ns_custom "http://ns.adobe.com/GenericCustomNamespace/1.0/">
	<!ENTITY ns_adobe_xpath "http://ns.adobe.com/XPath/1.0/">
]>
<svg version="1.1" id="Calque_1" xmlns:x="&ns_extend;" xmlns:i="&ns_ai;" xmlns:graph="&ns_graphs;"
	 xmlns="http://www.w3.org/2000/svg" xmlns:xlink="http://www.w3.org/1999/xlink" x="0px" y="0px" viewBox="0 0 200 200"
	 style="enable-background:new 0 0 200 200;" xml:space="preserve">
<style type="text/css">
	.Ombre_x0020_portée{fill:none;}
	.Lueur_x0020_externe_x0020_5 pt{fill:none;}
	.Néon_x0020_bleu{fill:none;stroke:#8AACDA;stroke-width:7;stroke-linecap:round;stroke-linejoin:round;}
	.Ton_x0020_clair_x0020_chrome{fill:url(#SVGID_1_);stroke:#FFFFFF;stroke-width:0.3629;stroke-miterlimit:1;}
	.Swing_GS{fill:#FFDD00;}
	.Alysse_GS{fill:#A6D0E4;}
	.ist-st0{fill-rule:evenodd;clip-rule:evenodd;fill:#EAEAEC;}
	.ist-st1{fill-rule:evenodd;clip-rule:evenodd;fill:#D2D2D6;}
	.ist-st2{fill-rule:evenodd;clip-rule:evenodd;fill:#6DA3BC;}
	.ist-st3{fill-rule:evenodd;clip-rule:evenodd;fill:#93BDD3;}
	.ist-st4{fill-rule:evenodd;clip-rule:evenodd;fill:#D8D8D8;}
	.ist-st5{fill:#578FA9;}
	.ist-st6{fill:#6DA3BC;}
	.ist-st7{fill:#8E8E96;}
	.ist-st8{fill-rule:evenodd;clip-rule:evenodd;fill:#2B4A99;}
	.ist-st9{fill:#75757C;}
	.ist-st10{fill-rule:evenodd;clip-rule:evenodd;fill:#232736;}
	.ist-st11{fill:#0073A3;}
	.ist-st12{fill:#009EE2;}
	.ist-st13{fill:#FFFFFF;}
	.ist-st14{fill:#005A7F;}
</style>
<metadata>
	<sfw  xmlns="&ns_sfw;">
		<slices></slices>
		<sliceSourceBounds  bottomLeftOrigin="true" height="105.1" width="118.6" x="40.7" y="-153.3"></sliceSourceBounds>
	</sfw>
</metadata>
<linearGradient id="SVGID_1_" gradientUnits="userSpaceOnUse" x1="0" y1="0" x2="6.123234e-17" y2="-1">
	<stop  offset="0" style="stop-color:#656565"/>
	<stop  offset="0.618" style="stop-color:#1B1B1B"/>
	<stop  offset="0.6292" style="stop-color:#545454"/>
	<stop  offset="0.9831" style="stop-color:#3E3E3E"/>
</linearGradient>
<g>
	<g>
		<g>
			<g>
				<polygon class="ist-st0" points="148.9,66 100,48.2 50.9,66 50.4,67.2 50.4,71.9 50.4,98.2 149.5,98.2 149.5,71.9 149.4,67.2 				
					"/>
				<polygon class="ist-st1" points="149.4,67.2 100,49.2 50.4,67.2 50.4,72.9 50.4,99.2 149.5,99.2 149.5,72.9 				"/>
				<polygon class="ist-st2" points="44.2,82.6 50.4,69.5 100,51.5 100,62.4 				"/>
				<polygon class="ist-st3" points="155.7,82.6 149.5,69.5 100,51.5 100,62.4 				"/>
				<polygon class="ist-st0" points="159.1,85.2 158.4,83.6 100,62.4 41.5,83.6 40.7,85.2 40.7,90.7 40.7,131.7 159.3,131.7 159.3,90.7 
									"/>
				<polygon class="ist-st4" points="159.1,85.2 100,63.7 40.7,85.2 40.7,92 40.7,133.1 159.3,133.1 159.3,92 				"/>
				<g>
					<polygon class="ist-st5" points="50.3,69.6 50.4,69.5 100,51.5 100,51.7 					"/>
					<polygon class="ist-st5" points="49.3,71.7 49.4,71.6 100,53.3 100,53.5 					"/>
					<polygon class="ist-st5" points="48.3,73.9 48.4,73.8 100,55 100,55.2 					"/>
					<polygon class="ist-st5" points="47.3,76 47.4,75.9 100,56.8 100,57 					"/>
					<polygon class="ist-st5" points="46.3,78.1 46.4,78 100,58.5 100,58.7 					"/>
					<polygon class="ist-st5" points="45.3,80.3 45.4,80.2 100,60.3 100,60.5 					"/>
					<polygon class="ist-st5" points="44.3,82.4 44.4,82.3 100,62 100,62.2 					"/>
				</g>
				<g>
					<polygon class="ist-st6" points="149.6,69.6 149.5,69.5 100,51.5 100,51.7 					"/>
					<polygon class="ist-st6" points="150.6,71.7 150.6,71.6 100,53.3 100,53.5 					"/>
					<polygon class="ist-st6" points="151.6,73.9 151.6,73.8 100,55 100,55.2 					"/>
					<polygon class="ist-st6" points="152.6,76 152.6,75.9 100,56.8 100,57 					"/>
					<polygon class="ist-st6" points="153.6,78.1 153.6,78 100,58.5 100,58.7 					"/>
					<polygon class="ist-st6" points="154.6,80.3 154.6,80.2 100,60.3 100,60.5 					"/>
					<polygon class="ist-st6" points="155.6,82.4 155.6,82.3 100,62 100,62.2 					"/>
				</g>
				<rect x="75.2" y="90.1" class="ist-st7" width="55" height="43"/>
				<rect x="40.7" y="114.9" class="ist-st8" width="34.2" height="8.4"/>
				<rect x="130.2" y="114.9" class="ist-st8" width="29.1" height="8.4"/>
				<rect x="75.2" y="131.7" class="ist-st7" width="55" height="1.3"/>
				<polygon class="ist-st9" points="129.4,90.1 129.4,131.7 130.2,133.1 130.2,90.1 				"/>
				<polygon class="ist-st9" points="75.9,90.1 75.9,131.7 75.2,133.1 75.2,90.1 				"/>
				<g>
					<rect x="75.9" y="91.4" class="ist-st9" width="53.6" height="0.2"/>
					<rect x="75.9" y="93.3" class="ist-st9" width="53.6" height="0.2"/>
					<rect x="75.9" y="95.2" class="ist-st9" width="53.6" height="0.2"/>
					<rect x="75.9" y="97.1" class="ist-st9" width="53.6" height="0.2"/>
					<rect x="75.9" y="99" class="ist-st9" width="53.6" height="0.2"/>
					<rect x="75.9" y="100.9" class="ist-st9" width="53.6" height="0.2"/>
					<rect x="75.9" y="102.8" class="ist-st9" width="53.6" height="0.2"/>
					<rect x="75.9" y="104.7" class="ist-st9" width="53.6" height="0.2"/>
					<rect x="75.9" y="106.7" class="ist-st9" width="53.6" height="0.2"/>
					<rect x="75.9" y="108.6" class="ist-st9" width="53.6" height="0.2"/>
					<rect x="75.9" y="110.5" class="ist-st9" width="53.6" height="0.2"/>
					<rect x="75.9" y="112.4" class="ist-st9" width="53.6" height="0.2"/>
					<rect x="75.9" y="114.3" class="ist-st9" width="53.6" height="0.2"/>
					<rect x="75.9" y="116.2" class="ist-st9" width="53.6" height="0.2"/>
					<rect x="75.9" y="118.1" class="ist-st9" width="53.6" height="0.2"/>
					<rect x="75.9" y="120" class="ist-st9" width="53.6" height="0.2"/>
					<rect x="75.9" y="121.9" class="ist-st9" width="53.6" height="0.2"/>
					<rect x="75.9" y="123.9" class="ist-st9" width="53.6" height="0.2"/>
					<rect x="75.9" y="125.8" class="ist-st9" width="53.6" height="0.2"/>
					<rect x="75.9" y="127.7" class="ist-st9" width="53.6" height="0.2"/>
					<rect x="75.9" y="129.6" class="ist-st9" width="53.6" height="0.2"/>
					<rect x="75.9" y="131.5" class="ist-st9" width="53.6" height="0.2"/>
				</g>
			</g>
			<path class="ist-st8" d="M97.4,75.7c0.1,0,0.1,0,0.2,0c0.1,0,0.1,0.1,0.2,0.1l7.5,7.3l2.9-2.8l-2.9-2.8l-2.5,2.4l-1-1l3.2-3.1
				c0,0,0.1-0.1,0.2-0.1c0.1,0,0.1,0,0.2,0c0.1,0,0.1,0,0.2,0c0.1,0,0.1,0.1,0.2,0.1l4.2,4.1c0.1,0.1,0.1,0.2,0.1,0.3
				c0,0.1-0.1,0.2-0.1,0.3l-4.2,4.1c0,0-0.1,0.1-0.2,0.1c-0.1,0-0.1,0-0.2,0s-0.1,0-0.2,0c-0.1,0-0.1-0.1-0.2-0.1l-7.5-7.3l-2.9,2.8
				l2.9,2.8l2.5-2.4l1,1l-3.1,3.1c0,0-0.1,0.1-0.2,0.1c-0.1,0-0.1,0-0.2,0c-0.1,0-0.1,0-0.2,0c-0.1,0-0.1-0.1-0.2-0.1l-4.2-4.1
				c-0.1-0.1-0.1-0.2-0.1-0.3c0-0.1,0.1-0.3,0.1-0.3l4.2-4.1c0,0,0.1-0.1,0.2-0.1C97.3,75.7,97.3,75.7,97.4,75.7z"/>
			<rect x="76" y="102.8" class="ist-st10" width="53.6" height="28.9"/>
		</g>
	</g>
	<g>
		<g>
			<circle class="ist-st11" cx="102.6" cy="130.8" r="22.5"/>
			<circle class="ist-st12" cx="102.6" cy="128.8" r="22.5"/>
		</g>
		<path class="ist-st13" d="M106.7,148.2c-0.2,0-0.4,0-0.6,0c-0.3-0.3-0.7-0.5-1-0.8c-2.8-2.8-5.5-5.5-8.3-8.3c-0.3-0.3-0.6-0.7-0.5-1.2
			c0.1-0.7,0.6-1.2,1.4-1.2c1.1,0,2.2,0,3.2,0c0.1,0,0.2,0,0.4,0c0-0.2,0-0.3,0-0.5c0-4.4,0-8.7,0-13.1c0-0.2,0-0.4,0-0.7
			c0.1-0.5,0.6-0.9,1.2-0.9c0.6,0,1.3,0,1.9,0c0,0,0,0,0,0c-1.9-1.9-3.8-3.8-5.6-5.6c-1.8,1.8-3.7,3.7-5.6,5.6c0.6,0,1.2,0,1.7,0
			c0.9,0,1.4,0.5,1.4,1.4c0,3.3,0,6.6,0,9.9c0,0.7-0.5,1.3-1.1,1.4c-0.6,0.1-1.2-0.3-1.4-0.9c0-0.2,0-0.3,0-0.5c0-2.7,0-5.5,0-8.2
			c0-0.1,0-0.3,0-0.5c-0.1,0-0.3,0-0.4,0c-1.1,0-2.1,0-3.2,0c-0.5,0-1-0.1-1.3-0.6c-0.3-0.5-0.3-1,0.1-1.4c0.1-0.1,0.2-0.2,0.3-0.3
			c2.8-2.8,5.6-5.6,8.4-8.4c0.8-0.8,1.4-0.8,2.2,0c2.8,2.8,5.6,5.6,8.5,8.5c0.3,0.3,0.6,0.7,0.5,1.1c-0.1,0.7-0.6,1.2-1.4,1.2
			c-1.1,0-2.2,0-3.2,0c-0.1,0-0.2,0-0.4,0c0,0.2,0,0.3,0,0.5c0,4.4,0,8.7,0,13.1c0,0.2,0,0.4,0,0.7c-0.1,0.5-0.6,0.9-1.2,0.9
			c-0.6,0-1.3,0-1.9,0c1.9,1.9,3.8,3.8,5.6,5.6c1.8-1.8,3.7-3.7,5.6-5.6c-0.6,0-1.2,0-1.8,0c-0.9,0-1.4-0.5-1.4-1.4
			c0-3.3,0-6.6,0-9.9c0-0.7,0.5-1.3,1.1-1.4c0.6-0.1,1.2,0.3,1.4,0.9c0,0.2,0,0.3,0,0.5c0,2.7,0,5.5,0,8.2c0,0.1,0,0.3,0,0.5
			c0.1,0,0.3,0,0.4,0c1.1,0,2.1,0,3.2,0c0.6,0,1.1,0.2,1.4,0.8c0.2,0.6,0,1.1-0.4,1.5c-2.9,2.9-5.7,5.7-8.6,8.6
			C107.2,147.9,106.9,148.1,106.7,148.2"/>
		<path class="ist-st14" d="M116.1,110.8c-3.7-2.8-8.4-4.5-13.4-4.5c-5,0-9.7,1.7-13.4,4.5H116.1z"/>
	</g>
</g>
</svg>
