<?xml version="1.0" encoding="utf-8"?>
<!-- Generator: Adobe Illustrator 27.2.0, SVG Export Plug-In . SVG Version: 6.00 Build 0)  -->
<!DOCTYPE svg PUBLIC "-//W3C//DTD SVG 1.1//EN" "http://www.w3.org/Graphics/SVG/1.1/DTD/svg11.dtd" [
	<!ENTITY ns_extend "http://ns.adobe.com/Extensibility/1.0/">
	<!ENTITY ns_ai "http://ns.adobe.com/AdobeIllustrator/10.0/">
	<!ENTITY ns_graphs "http://ns.adobe.com/Graphs/1.0/">
	<!ENTITY ns_vars "http://ns.adobe.com/Variables/1.0/">
	<!ENTITY ns_imrep "http://ns.adobe.com/ImageReplacement/1.0/">
	<!ENTITY ns_sfw "http://ns.adobe.com/SaveForWeb/1.0/">
	<!ENTITY ns_custom "http://ns.adobe.com/GenericCustomNamespace/1.0/">
	<!ENTITY ns_adobe_xpath "http://ns.adobe.com/XPath/1.0/">
]>
<svg version="1.1" id="Calque_1" xmlns:x="&ns_extend;" xmlns:i="&ns_ai;" xmlns:graph="&ns_graphs;"
	 xmlns="http://www.w3.org/2000/svg" xmlns:xlink="http://www.w3.org/1999/xlink" x="0px" y="0px" viewBox="0 0 200 200"
	 style="enable-background:new 0 0 200 200;" xml:space="preserve">
<style type="text/css">
	.Ombre_x0020_portée{fill:none;}
	.Lueur_x0020_externe_x0020_5 pt{fill:none;}
	.Néon_x0020_bleu{fill:none;stroke:#8AACDA;stroke-width:7;stroke-linecap:round;stroke-linejoin:round;}
	.Ton_x0020_clair_x0020_chrome{fill:url(#SVGID_1_);stroke:#FFFFFF;stroke-width:0.3629;stroke-miterlimit:1;}
	.Swing_GS{fill:#FFDD00;}
	.Alysse_GS{fill:#A6D0E4;}
	.acc-st0{fill-rule:evenodd;clip-rule:evenodd;fill:#202020;}
	.acc-st1{fill-rule:evenodd;clip-rule:evenodd;fill:#3C3C3B;}
	.acc-st2{fill-rule:evenodd;clip-rule:evenodd;fill:#B1B9C1;}
	.acc-st3{fill-rule:evenodd;clip-rule:evenodd;fill:#DA9569;}
	.acc-st4{fill-rule:evenodd;clip-rule:evenodd;fill:#F1B186;}
	.acc-st5{fill-rule:evenodd;clip-rule:evenodd;fill:#E7A376;}
	.acc-st6{fill-rule:evenodd;clip-rule:evenodd;fill:#CDD4DA;}
	.acc-st7{fill:#C6C6C5;}
	.acc-st8{fill:#D9D9D9;}
	.acc-st9{fill:#2B4A99;}
	.acc-st10{fill:#213875;}
	.acc-st11{fill:#F5D2A7;}
	.acc-st12{fill:#C09A6C;}
	.acc-st13{fill:#E3BE8E;}
	.acc-st14{fill:#FFFFFF;}
	.acc-st15{opacity:0.7;fill:#FFFFFF;}
	.acc-st16{fill:none;stroke:#9B9A9B;stroke-width:0.1727;stroke-miterlimit:10;}
	.acc-st17{fill-rule:evenodd;clip-rule:evenodd;fill:#2B4A99;}
	.acc-st18{fill-rule:evenodd;clip-rule:evenodd;fill:#F5BB94;}
	.acc-st19{fill:#ECECEC;}
	.acc-st20{fill:#331F11;}
	.acc-st21{fill:#475DA6;}
	.acc-st22{fill-rule:evenodd;clip-rule:evenodd;fill:#F6BF9B;}
	.acc-st23{fill-rule:evenodd;clip-rule:evenodd;fill:#575756;}
	.acc-st24{fill-rule:evenodd;clip-rule:evenodd;fill:#1D1D1B;}
	.acc-st25{fill-rule:evenodd;clip-rule:evenodd;fill:#21150C;}
	.acc-st26{fill-rule:evenodd;clip-rule:evenodd;fill:#331F11;}
	.acc-st27{fill:#575756;}
</style>
<metadata>
	<sfw  xmlns="&ns_sfw;">
		<slices></slices>
		<sliceSourceBounds  bottomLeftOrigin="true" height="161.9" width="91.8" x="53.8" y="-179.1"></sliceSourceBounds>
	</sfw>
</metadata>
<linearGradient id="SVGID_1_" gradientUnits="userSpaceOnUse" x1="0" y1="0" x2="6.123234e-17" y2="-1">
	<stop  offset="0" style="stop-color:#656565"/>
	<stop  offset="0.618" style="stop-color:#1B1B1B"/>
	<stop  offset="0.6292" style="stop-color:#545454"/>
	<stop  offset="0.9831" style="stop-color:#3E3E3E"/>
</linearGradient>
<g>
	<g>
		<g>
			<path class="acc-st0" d="M82.2,136.2c0.5,1.8,0.6,2.7,1.4,3.7c1.5,2.1,3.6,3.5,6.8,5.8c1.5,1.1,1.8,2.1,0.3,3c-1.2,0.7-4.1,0.2-6-0.3
				c-3.4-0.8-4.8-2.9-6-3.4l-0.9,0.2c-0.7,0-3.6-1.1-4.1-1.9c-0.1-0.6-0.4-1.8-0.4-2.7c-0.1-2.9,0.3-2.6,1.1-4.9
				C77,135.9,79.6,136.1,82.2,136.2z"/>
			<path class="acc-st0" d="M91.7,147.3c0,0.5-0.3,0.9-1,1.3c-1.2,0.7-4.1,0.2-6-0.3c-3.4-0.8-4.8-2.9-6-3.4l-0.9,0.2
				c-0.7,0-3.6-1.1-4.1-1.9c-0.1-0.6-0.4-1.8-0.4-2.7c-0.1-2.9,0.3-2.6,1.1-4.9c1.2,0.1,2.3,0.2,3.5,0.2c0.2,1.9-0.1,5.2,1.5,6.4
				c1.8,1.4,3.1,1.7,4.3,2.5C87.4,147.2,89.9,149,91.7,147.3z"/>
			<path class="acc-st1" d="M83,139.4c-0.4,0.6-1.1,0.9-2.3,1.2c2,2.2,2.2,2,4.9,3.5c1.3,1.5,1.5,1.8,2.4,2.3c1,0.6,2.4,1.2,3,0.8
				c0.3-0.2-0.1-0.7-1.2-1.5c-1.3-0.9-2.6-1.8-3.7-2.8C84.9,141.9,83.9,140.8,83,139.4z"/>
		</g>
		<g>
			<path class="acc-st0" d="M67.1,143c0.3,2.4,0.3,3.6,0.9,5c1.3,2.8,3.4,4.8,6.5,7.8c1.5,1.5,1.6,2.8-0.3,3.8c-1.5,0.8-4.5-0.1-6.4-0.8
				c-3.5-1.2-4.6-3.8-5.7-4.5l-0.9,0.2c-0.7,0-3.5-1.6-3.9-2.5c-0.1-0.8-0.2-2.2-0.2-3.3c0.2-3.7,0.6-3.3,1.7-6.3
				C61.5,142.6,64.2,142.8,67.1,143z"/>
			<path class="acc-st0" d="M75.6,158c-0.1,0.6-0.5,1.1-1.4,1.6c-1.5,0.8-4.5-0.1-6.4-0.8c-3.5-1.2-4.6-3.8-5.7-4.5l-0.9,0.2
				c-0.7,0-3.5-1.6-3.9-2.5c-0.1-0.8-0.2-2.2-0.2-3.3c0.2-3.7,0.6-3.3,1.7-6.3c1.2,0.1,2.4,0.2,3.6,0.3c0,2.6-0.8,6.8,0.7,8.5
				c1.6,1.8,3,2.3,4.2,3.3C70.9,157.5,73.3,160,75.6,158z"/>
			<path class="acc-st1" d="M67.5,147.4c-0.5,0.7-1.3,1.1-2.7,1.5c1.8,2.9,2.1,2.7,4.7,4.7c1.2,2,1.3,2.4,2.2,3.1c1,0.8,2.5,1.7,3.2,1.1
				c0.3-0.2,0-0.9-1-2c-1.2-1.2-2.5-2.5-3.6-3.8C69.1,150.6,68.1,149.2,67.5,147.4z"/>
		</g>
		<g>
			<g>
				<path class="acc-st2" d="M103.3,54.7c-0.8,1.4-5.5,1.3-5.6-1.3C99.9,50.6,103.3,53,103.3,54.7z"/>
				<g>
					<g>
						<g>
							<path class="acc-st3" d="M99.6,46.3l3.7,2.5c0.9,0.6-0.4,4.9-0.6,6.3l-0.3,2.4l-1.9-3.1l-0.9-3.1L98.6,49L99.6,46.3z"/>
							<path class="acc-st4" d="M102.4,49.3l0.9-0.5c0.2,0.1,0.4,0.4,0.4,0.8c0,1.5-0.8,4.4-1,5.5l-0.2,1.6l-0.6-1.8
								C102.4,52.4,102.7,50,102.4,49.3z"/>
						</g>
						<path class="acc-st5" d="M98,47.9c0.1-1.1,0.4-2.6-0.9-2.8c-0.4,1.1-0.6,2-0.8,2.8c0.1,0.3-0.1,2.9,0.3,3.9
							c0.1,0.3,0.3,0.7,0.6,1.2c0.4,0.6,1.7,1.2,2.3,2.3c1-0.2,1.2-0.5,1.2-1.1c0-0.5-0.9-2.5-1.1-3C99,49.8,97.9,48.5,98,47.9z"/>
					</g>
					<path class="acc-st6" d="M103.3,54.7c-0.8,1.4-5.5,1.3-5.6-1.3c-0.5,1.4-1.8,10.4-0.5,10.9c3.1,1.2,3.9,2.1,4.7,1.5
						C103.1,65,104,61.3,103.3,54.7z"/>
				</g>
			</g>
			<g>
				<path class="acc-st4" d="M103.4,48.8c-3.5,0.9-4.6,0.5-5.5,3.5l-2.6-1.8c-0.2-4-0.6-3.1,2.7-4.1c1.4-0.4,1.8-0.2,2.9,0.6L103.4,48.8
					z"/>
				<path class="acc-st5" d="M103.4,48.8c-3.5,0.9-4.6,0.5-5.5,3.5l-2.6-1.8c-0.1-2.4-0.3-3,0.3-3.4c1,1,2.1,1.6,3.2,2.3
					C100.4,49.1,101.7,49.1,103.4,48.8z"/>
				<path class="acc-st4" d="M103.4,48.8c-3.5,0.9-4.6,0.5-5.5,3.5c1.7,0.4,0.9-0.7,2.2-1.5c1.3-0.8,3.3-0.7,3.5-0.8
					C103.8,49.5,103.7,49.2,103.4,48.8z"/>
			</g>
		</g>
		<g>
			<path class="acc-st7" d="M75.7,44.4c0-3.5,1.4-5.8,2.7-7.1c2.6-1.5,6.2,0.6,7.1,5.8c0.7,4,0.4,11.4,1.9,15.5
				c2.7,2.5,11.8,15.1,11.8,15.1L97,78.2l-7.8-5c0,0-5.7-4.2-7.1-5.9c-1.3-1.6-2.8-3.5-3.5-4.8C76.4,58.4,76.1,52.6,75.7,44.4z"/>
		</g>
		<path class="acc-st8" d="M84.5,137.3c0,0,0.5-7.9-0.2-18.9c-1.2-17.9-2.7-42.6-2.2-48.4l2.3-23.6c0,0,0,0-0.1-0.1
			c0.1-0.5,0.1-1,0.1-1.6c0-4.7-2.2-8.6-4.9-8.6c-12.9-3.1-22.9,9.6-22.9,9.6l0.1,0c-1.8,1.8-2.9,5.1-2.9,8.9c0,2,0.3,3.9,0.9,5.4
			c0.5,1.6,1.7,5.4,3,9.7l0,0c0,0,1.2,10.3,0.4,18.5c-0.3,3.4,0.6,17,0.1,30.1c-0.4,10.3-2.1,20.2-2.2,25.6l-0.3,3.9l0,0.5
			c0,0.5,0.2,0.9,0.6,1.2l0.5,0.4l2.4,1.8c0,0,3.4,1.7,6.5-0.2c4.4-2.6,3.7-4.3,3.7-4.3s0-0.1,0-0.3c0-0.1,0-0.1,0-0.1
			s-0.3-11.8,0.2-23.9c0.5-12.8,1.9-26.1,2.3-26.2l1.4,25.3l-1.2,17.6l0,0.4c0,0.5,0.2,0.9,0.6,1.1l0.6,0.3L76,143
			c0,0,3.8,1.9,6.3-0.7C84.9,139.6,84.5,137.3,84.5,137.3z"/>
		<path class="acc-st9" d="M84.3,118.4c-1.2-17.9-2.7-42.6-2.2-48.4l2.3-23.6v-1.7c0,0,0-0.5-0.7-1.6c-0.2-1.3-0.4-2.6-0.9-3.8
			c-0.2-0.7-0.6-1.3-0.9-2c-0.7-0.7-1.6-1.2-2.5-1.2c-0.4-0.1-0.9-0.2-1.3-0.3c1.5,1.6,2.8,3.8,3.1,6.8h-0.1
			c-2.5,3.1-7.3,4.5-10.1,5.1c-0.2-0.9-0.5-1.9-0.8-2.7c-1.1-3-3.2-5.2-4.9-6.7c-1.1,0.6-2.2,1.3-3.1,2c2,1.4,4.6,4.1,5.6,8.5
			c0,0.3,0.3,4.8-1,7.1c-0.7,1.1-1.7,2.1-3,2.2c0.4,4.3-6.8,8.2-6.8,8.2S57.2,66.5,57,67c0.3,0.9,0.6,1.8,0.9,2.8l0,0
			c0,0,1.2,10.3,0.4,18.5c-0.3,3.4,0.6,17,0.1,30.1c-0.4,10.3-2.1,20.2-2.2,25.6l-0.3,3.9l0,0.5c0,0.5,0.2,0.9,0.6,1.2l0.5,0.4
			l2.4,1.8c0,0,3.4,1.7,6.5-0.2c4.4-2.6,3.7-4.3,3.7-4.3s0-0.1,0-0.3c0-0.1,0-0.1,0-0.1s-0.3-11.8,0.2-23.9
			c0.5-12.8,1.9-26.1,2.3-26.2l1.4,25.3l-1.2,17.6l0,0.4c0,0.5,0.2,0.9,0.6,1.1l0.6,0.3L76,143c0,0,3.8,1.9,6.3-0.7
			c2.7-2.8,2.3-5.1,2.3-5.1S85.1,129.4,84.3,118.4z"/>
		<path class="acc-st10" d="M82.2,142.4c2.7-2.8,2.3-5.1,2.3-5.1s0.5-7.9-0.2-18.9c-1.2-17.9-2.7-42.6-2.2-48.4l1.8-17.8l-14.5,8.3
			l-3.1,5.3l-8.1,8.5c0,0.4,0.1,0.9,0.1,1.3l11,9.1v3.8l1.6,1.3l1.1,6.9l1.4,25.3l-1.2,17.6l0,0.4c0,0.5,0.2,0.9,0.6,1.1l0.6,0.3
			L76,143C76,143,79.8,144.9,82.2,142.4z"/>
		<g>
			<g>
				<path class="acc-st11" d="M103.6,55.2l-2.6-1.5L92.8,49L71.6,61.2l8.2,4.7l2.6,1.5l9.1,5.2l21.1-12.2l0,0L103.6,55.2z"/>
			</g>
			<polygon class="acc-st12" points="91.5,72.7 91.5,99.8 82.4,94.6 79.8,93.1 71.6,88.4 71.6,61.2 			"/>
			<g>
				<path class="acc-st13" d="M91.5,72.7l0,27.1l21.1-12.1V60.5L91.5,72.7z"/>
			</g>
		</g>
		<polygon class="acc-st14" points="79.7,65.8 100.4,53.4 103.2,55 82.4,67.4 		"/>
		<polygon class="acc-st15" points="82.4,79.1 79.7,77.5 79.7,65.8 82.4,67.4 		"/>
		<polyline class="acc-st16" points="81,78.3 81,66.6 102,54.3 		"/>
		<path class="acc-st17" d="M99.3,76c0.1,0,0.1-0.1,0.2-0.1c0.1,0,0.1,0,0.1,0l6.7,4.1l2.6-4.9l-2.6-1.6l-2.3,4.2l-0.9-0.6L106,72
			c0-0.1,0.1-0.1,0.1-0.2c0.1-0.1,0.1-0.1,0.2-0.1c0.1,0,0.1-0.1,0.2-0.1c0.1,0,0.1,0,0.1,0l3.8,2.3c0.1,0.1,0.1,0.2,0.1,0.3
			c0,0.1,0,0.3-0.1,0.5l-3.8,7.1c0,0.1-0.1,0.1-0.1,0.2c-0.1,0.1-0.1,0.1-0.2,0.1c-0.1,0-0.1,0.1-0.2,0.1c-0.1,0-0.1,0-0.1,0
			l-6.7-4.1l-2.6,4.9l2.6,1.6l2.2-4.2l0.9,0.6l-2.8,5.3c0,0.1-0.1,0.1-0.1,0.2c-0.1,0.1-0.1,0.1-0.2,0.1c-0.1,0-0.1,0.1-0.2,0.1
			c-0.1,0-0.1,0-0.1,0l-3.8-2.3c-0.1-0.1-0.1-0.2-0.1-0.3s0-0.3,0.1-0.5l3.8-7.1c0-0.1,0.1-0.1,0.1-0.2C99.2,76.1,99.2,76.1,99.3,76
			z"/>
		<g>
			<path class="acc-st4" d="M77.1,81.7c-4.6-3.5-7.2-8-11.7-11.6c-0.2-2.6-0.6-5.9-1.2-10.4c-0.2-1.7-0.4-3.1-0.7-4.4
				c-0.9-4.3-3.2-6.2-5.3-5.9c-1.4,0.2-2.9,0.9-3.2,3.4c-0.3,1.9,0,4.1,0.2,5.4c0.5,4.6,2.3,10.3,3.6,14.4c0.1,0.3,0.2,0.6,0.3,0.9
				c0.3,1.4,0.9,2.3,1.8,3.3c3.7,3,7.5,4.6,10.5,6.6c0.9,0.6,1.9,1.2,2.6,2c0.9,1,1.6,2.2,2.5,3.2c1,1.2,3.3,2.9,4.9,2.9
				c3.3,0.1,3.1-0.3,4.6-2.8c0.2-0.4,2.3-2.5,2-2.4c-1,0.3-1.5,0.8-2,0.9c-0.8,0.2-2.2,0.1-2.8-0.5c-0.4-0.3-0.7-0.7-1-1.1
				c0.3,0.1,0.6,0.2,0.8,0.3c1,1,2.3,1.2,2.8,0.2c-0.8-0.6-1.6-1.4-2.3-2c-0.7-0.7-1.3-1.2-2.6-1.5C79.7,82.2,78.4,82.3,77.1,81.7z"
				/>
			<path class="acc-st5" d="M61.5,72.8c-0.7-2.3-4-18-3.4-23.5c-1.4,0.2-2.9,0.9-3.2,3.4c-0.3,1.9,0,4.1,0.2,5.4
				c0.5,4.6,2.3,10.3,3.6,14.4c0.1,0.3,0.2,0.6,0.3,0.9c0.3,1.4,0.9,2.3,1.8,3.3c4.9,3.9,9.7,5.5,13.1,8.7c0.8,1,1.6,2.6,2.3,3.4
				c0.8,1,3.4,2.5,5.1,2.9c1.3,0.3,2.6-0.1,4.3-1.4c0.2-0.3,2.3-3.5,2.4-4c-0.4,0.1-2.8,2.4-3.1,2.4c-2.6,0.1-5-0.9-6.2-2
				c-1.1-1-2.8-1.9-4.1-2.8C69.5,79.3,65.3,75.2,61.5,72.8z"/>
			<path class="acc-st18" d="M79.8,85.7c1.4,1.2,2.2,1.8,3.5,2c3.4,0.6,4.7-1.2,4.7-1.5c-0.2-0.2-0.5-0.2-0.6-0.2
				c-0.6,0-1.3,0.8-1.7,0.9c-0.8,0.2-2,0.2-2.6-0.4c-0.7-0.6-1.3-1.5-1.8-2.3c0.6,0.2,1.3,0.5,1.6,0.7c1,1,2.3,2,2.8,1
				c-0.8-0.6-1.6-1.4-2.3-2c-0.7-0.7-1.3-1.2-2.6-1.5c-1.1-0.3-2.3-0.2-3.6-0.8c-4.6-3.5-7.2-8-11.7-11.6c-0.2-2.6-0.6-5.9-1.2-10.4
				c-0.2-1.7-0.4-3.1-0.7-4.4c-0.6-2.7-1.7-4.4-2.9-5.3c-0.4,2.5,1.9,15.1,3.2,21.6c4.2,3.4,7.5,7,10.4,9.8
				C76.1,83.1,78,84.1,79.8,85.7z"/>
		</g>
		<g>
			<path class="acc-st19" d="M73.6,85.7l-6.3-4.3c0,0-6-3.6-7.4-5.3c-1.3-1.6-2.4-4.1-3.2-5.4c-2.3-4-2.5-9.8-2.9-18
				c0-3.5,1.4-5.8,2.7-7.1c2.6-1.5,6.2,0.6,7.1,5.8c0.7,4,0.4,11.4,1.9,15.5c2.7,2.5,12,14.3,12,14.3S74.1,83,73.6,85.7z"/>
		</g>
		<g>
			<path class="acc-st19" d="M73.6,85.7l-6.3-4.3c0,0-6-3.6-7.4-5.3c-1.3-1.6-2.4-4.1-3.2-5.4c-2.3-4-2.5-9.8-2.9-18
				c0-3.5,1.4-5.8,2.7-7.1c2.6-1.5,6.2,0.6,7.1,5.8c0.7,4,0.4,11.4,1.9,15.5c2.7,2.5,12,14.3,12,14.3S74.1,83,73.6,85.7z"/>
		</g>
		<path class="acc-st8" d="M61.5,72.8c0,0-6.8-4-7.7-20c0.4,8.2,0.7,14,2.9,18c0.7,1.3,1.8,3.8,3.2,5.4c1.4,1.7,7.4,5.3,7.4,5.3l6.3,4.3
			c0.1-0.8,0.5-1.4,0.9-2L61.5,72.8z"/>
		<g>
			<path class="acc-st5" d="M76.4,40.8c0.1-0.3,0.2-0.6,0.3-0.9c0.3-0.9,0.3-2.8,0.9-4.8l-8.2-3.6l-1.8-0.9c0.6,3.1,0.3,4.9-0.6,7.1
				c-0.1,3,5.5,5,8.7,5.8C76.1,42.7,76.1,41.7,76.4,40.8z"/>
			<path class="acc-st3" d="M67.9,39.6c3-1.1,5.3,0.3,9.2-0.8c0.1-1,0.3-2.3,0.7-3.7l-8.2-3.6l-1.8-0.9c0.6,3.1,0.3,4.9-0.6,7.1
				C67.1,38.4,67.4,39,67.9,39.6z"/>
		</g>
		<path class="acc-st5" d="M76.6,38.5c-1.1-0.5-3.9-1.8-4.8-2.3c-2-1.2-1.5-3.4-3.8-5.1c-2-1-2.3-2-2.7-3.1c-0.8-2.6-0.1-5.6,1.6-7.5
			c1.6-1.7,3.5-2.4,5.9-2.2c4.4,0.2,7,3.3,7.7,6.9c0,0.2,0.2,0.3,0.3,0.5c0.1,0.3,0.1,0.6,0.1,1c-0.1,0.8-0.2,0.5-0.1,1.1
			c0.1,0.7,0.5,1.2,0.6,2.1c0.1,1.5-0.1,2.3-0.3,4c0,0.6-0.2,1.3-0.2,1.9c0,1.1-0.1,1.5-0.2,1.7c-0.3,0.3-0.6,0.5-1,0.7
			c-0.7,0.4-1.5,0.6-1.9,0.6C77.4,38.7,77,38.6,76.6,38.5z"/>
		<path class="acc-st5" d="M76.6,38.5c-1.1-0.5-3.9-1.8-4.8-2.3c-2-1.2-1.5-3.4-3.8-5.1c-2-1-2.3-2-2.7-3.1c-0.8-2.6-0.1-5.6,1.6-7.5
			c1.6-1.7,3.5-2.4,5.9-2.2c0.1,0,0.1,0,0.2,0l0,0c3.8,0.3,6.2,2.4,7.1,5.4c-0.5,0.5-4.4,1.8-7.6,2.1c-1.2,1-0.9,1.9-0.1,3.1
			c0.4,0.5,0.5,0.6,0.3,0.8c-0.2,0.3-0.2,0.2-0.6,0.6c-0.4,0.4-0.3,1.1,0.2,1.4c0.6,0.6,1.9,1.1,2.3,1.3c1,0.6,1.4,2,1.6,2.9
			c0.2,1.2,0.7,2.8,2.7,2.4c-0.5,0.2-1,0.3-1.2,0.3C77.4,38.7,77,38.6,76.6,38.5z"/>
		<path class="acc-st20" d="M70.6,29.6c-0.7-2.3,0.4-2.8-0.2-4c-0.9-1.9-4.2-2.5-4.7-3.4c-1.5,2.2-1.4,5.8,0.7,7.9
			c1,1.1,1.3,1.6,1.7,3.3c0.4-0.9,0.4-1.1,0.6-1.9c-0.1-0.1-0.3-0.3-0.4-0.5c-0.2-0.5-0.8-0.4-1-1c-0.3-0.9-0.4-2.3,1.1-2
			c0.6,0.1,1,0.7,1.1,1.3c0.1,0.3,0.3,0.6,0.3,0.8C70.1,30,70.4,29.8,70.6,29.6z"/>
		<path class="acc-st9" d="M72.6,26.8c0,0,7.1-1.6,7.6-3.2c0-1.4-1.6-5.5-1.6-5.5s-4.5-1.9-9.8-0.4c-5,2.4-4.2,8.2-4.2,8.2
			S70.4,26.8,72.6,26.8z"/>
		<path class="acc-st9" d="M64.8,25.9c0,0,9.2,2.4,10.3,2.5c1.1,0.1,9.4-2.2,10.4-3.2c-3.6-1.1-5.5-1.9-5.5-1.9L64.8,25.9z"/>
		<path class="acc-st9" d="M64.8,25.9c0,0,11.6,3.6,12.7,3.7c1.1,0.1,9-2.5,10-3.7c-3.8-1.1-7.2-2.2-7.2-2.2L64.8,25.9z"/>
		<path class="acc-st21" d="M78.5,18.3c0,0-2.8,0.9-4.2,1.1s-3.6,3.6-3.3,5.4c0.3,1.8,9-1.5,9-1.5L78.5,18.3z"/>
	</g>
	<g>
		<g>
			<path class="acc-st22" d="M142.3,73.8c-1.2-3.1-3.2-4.2-5.2-5.5c-0.7-0.3-2.6-1.6-4.9-2.6c-4.2-1.8-9.3-3.6-10.7-4.4
				c-0.2,1.9,13,9.7,14.2,10.4C136.3,72.2,143,75.6,142.3,73.8z"/>
		</g>
		<g>
			<path class="acc-st5" d="M133.1,54.5c-0.6,1.8-0.1,4.1,0.5,6.7c0.1,3.1,0.8,7,1.4,10.8c0.7,4.8,2.7,6.4,4.7,6.5
				c-3.7-6.4-3.8-23-1.4-26.3C135.5,51.2,133.6,52.8,133.1,54.5z"/>
		</g>
	</g>
	<g>
		<path class="acc-st1" d="M137.9,52c5.6,1.4,5.9,8.2,4.9,14c-1,5.6-2.9,10.3-3.4,15.3c-0.3,3.4,0.5,7,1,11.2c0,0.2-0.2,2.8-4.2,5.3
			c-5.8,3.7-17.2,3.2-16.7-2.6c0.3-3.5-0.8-7.2-1.5-10.2c-1.4-5.8-6.2-15.2-4-21c0.5-1.2,1.4-1.7,2.2-2.6c3.9-3.8,16.5-9.4,19-9.7
			C136.4,51.7,137.2,51.9,137.9,52z"/>
		<path class="acc-st23" d="M137.9,52c0.3,0.1,0.6,0.2,0.9,0.3c-1.7,0.5-3.7,1.2-5.8,2c-4.9,2-8.9,4.4-12.6,8.2c6.2,5.8,2.7,22,1.9,28.6
			c-0.3,2.1-0.3,4.9-0.2,7.9c-1.5-0.8-2.6-2-2.6-3.7c0.2-3.5-1-7.2-1.5-10.3c-0.4-1.6-1.1-3.6-1.8-5.6c-1.8-5.2-3.8-11.2-2.1-15.3
			c0.5-1.2,1.4-1.7,2.2-2.6c3.9-3.8,16.5-9.4,19-9.7C136.4,51.7,137.2,51.9,137.9,52z"/>
		<path class="acc-st23" d="M115.6,77.4c-2.7-8.2-3.6-12.6-0.5-14c2.8-1.2,5.1-0.3,6.2,1.7C124,70.2,119.9,77.8,115.6,77.4z"/>
	</g>
	<g>
		<path class="acc-st1" d="M135.5,166.8c0.5,0.5,1.2,0.8,2.4,1.5v1.1c1.3,2.3,2.5,3.3,4.2,2.8c2.3-0.7,3-1.2,3-2.9
			c0.3-2.8,0.3-3.3-0.4-5.4c-2.3-1.5-3.3-1.8-5-2.3c-1.3-0.4-3.3-1.6-5.3-2.1c-1.1-0.3-1.8,0.7-1.9,1.4
			C132.5,162.7,134,165.2,135.5,166.8z"/>
		<path class="acc-st0" d="M135.5,166.8c0.5,0.5,1.2,0.8,2.4,1.5v1.1c1.3,2.3,2.5,3.3,4.2,2.8c2.3-0.7,3-1.2,3-2.9
			c0.1-1.5,0.2-2.4,0.1-3.2c-3,1.6-5.6,1.4-8.5-1.5c-0.9-0.9-3.4-3.2-3.6-4.9c-0.4,0.3-0.6,0.8-0.6,1.2
			C132.5,162.7,134,165.2,135.5,166.8z"/>
	</g>
	<g>
		<path class="acc-st0" d="M128.7,171.5c-0.6-0.2-2.3-2.7-4.6-2.2c-2.8,0.6-6-1-8.5-1c-0.4,0-1-0.1-1.3,0.1c-1.2,0.9-1.3,1.8-0.3,3
			c0.8,0.9,2.1,2,3.3,2.7c1.2,0.8,2.2,1.5,3.7,2.1c1.1,0.5,1.9,0.4,2.9,0.8l0.1,0.9c0.8,0.7,1.7,1.1,2.3,1.2
			c1.4,0.1,3.1-0.8,4.3-2.1c0.1-1.5,0.7-2.9-0.1-5.1L128.7,171.5z"/>
		<path class="acc-st0" d="M113.5,169.1c-0.5,0.7-0.3,1.4,0.4,2.3c0.8,0.9,2.1,2,3.3,2.7c1.2,0.8,2.2,1.5,3.7,2.1
			c1.1,0.5,1.9,0.4,2.9,0.8l0.1,0.9c0.8,0.7,1.7,1.1,2.3,1.2c1.4,0.1,3.1-0.8,4.3-2.1c0.1-1.1,0.4-2.2,0.3-3.7
			c-3.1,2.4-5,0.8-6.2,0.7c-1.8-0.1-4.3,0.1-8.2-2.8C115.5,170.6,114.5,169.9,113.5,169.1z"/>
		<path class="acc-st1" d="M122.5,172.3c-0.7-1.3-0.7-2.1-0.5-2.6l-4.9-1c-2.4-0.5-2.9,0-2.3,0.5C117,171.2,119.8,171.7,122.5,172.3z"/>
	</g>
	<g>
		<path class="acc-st24" d="M143,65.1c0,0.3-0.1,0.6-0.2,0.9c-1.1,6.4-3.1,10.4-3.4,16.1c0,0.4-0.2,1.5-0.2,1.9c-0.2,7,4.2,14.9-2.6,19
			c-0.5,0.3-1,0.6-1.6,0.9c1.3,5.8-1.7,11.1-4,13.6c-0.5,6.1-0.3,21.6-0.4,24.8c1.3,3,1.4,5,1.7,8.4c0.4,4.1-0.5,15.1-1,22.6
			c-2.4,2.5-8.6,0.1-9.1-2.4c-0.8-8.7-0.6-20.9-2.1-29.7c-0.8-4.7-2.3-14.7-2.5-24c-0.1-5.6,0.6-10.9,1.4-15.1
			c0.2-1.3,0.2-2.4,0.6-3.5c0.2-2.6,0.1-6.1-0.1-7.9c0.4,0.4,0.8,0.6,1.2,0.6c1.9,0.1,3.7-0.7,4.3-5.7c0.5-4.4,0.8-9.2,0.9-10.9
			c0.2-3.4,0.4-3.9,2-4.4c4.2-1.5,9.1-3.8,12.3-7.2c1.1-1.2,2.6-1.4,2.8,0.8C142.9,64.1,142.9,64.6,143,65.1z"/>
		<path class="acc-st24" d="M127.9,104.6c0.8,5.9,2.2,27.5,4.2,32.4c2.9,7.3,3.8,18.5,5.5,26.6c0.3,0.9,1.1,2.1,2.4,2.8
			c2.1,1,4.9,1.1,5.5-0.4c-0.5-7.4-0.3-16.8-0.6-21c-0.3-4.6-1.4-9.2-3.2-11.9c-0.2-3.3-0.5-15.6,0.1-21.7c0.2-2.2,3-9.9-1.3-14.9
			l-5.4,2L127.9,104.6z"/>
		<path class="acc-st24" d="M118.8,101.3c-0.7,3.5-1.3,8-1.3,12.8c0,10.4,1.6,22.1,2.5,27c1.5,8.7,1.3,21,2.1,29.7
			c0.3,1.2,1.9,2.4,3.8,3c0.2-7.5,0.2-18.2,0-23.9c-0.2-6.2-0.8-4.2-1.4-6.9c-0.3-7.3-0.7-23.9-0.8-34.9c0-1.4,0.1-2.7,0.2-4
			c0.5-2.1,0.2-3.8,0.2-5.9c0.1-3.1-0.2-6.4-0.2-8.9c0,0,0,0-0.1,0c-0.8,1.6-2,1.9-3.3,1.8c-0.6,0-1.1-0.4-1.6-1l0,0
			C119.5,93.4,119.4,98.1,118.8,101.3z"/>
	</g>
	<g>
		<g>
			<path class="acc-st3" d="M124.8,46.7c2-1.8,3.9,4,0.7,3.9C126.7,49.3,125.8,47.3,124.8,46.7z"/>
			<g>
				<path class="acc-st5" d="M120.7,52c0.7,0.3,4.2-0.2,4.1,0.2c-0.1,2-0.8,3-0.7,6.5c4.1,2.9,9.9-0.5,9.5-2.6c0-1.4-0.7-5.4,0-6.6
					c0.8-1.3,2.5-2.8,3.1-4.8c0.6-2.1,0.7-4.4-0.2-6.4c-0.5-1-1.2-2-2.2-2.8c-4.9-3.6-12.5-1.3-14.3,5.1c-0.3,1.2,0.6,1.9,0.6,3
					c0,0.2-0.3,0.4-0.5,0.9C119.8,45,119.8,51.5,120.7,52z"/>
				<path class="acc-st3" d="M120.7,51.9c0.7,0.3,4.2-0.1,4.1,0.2c-0.1,2-0.8,3-0.7,6.5c2.4-3.6,3.5-5.5,9.2-7.5c0-0.7,0.1-1.3,0.3-1.7
					c0.8-1.3,2.5-2.8,3.1-4.8c0.6-2.1,0.7-4.4-0.2-6.4c-0.5-1-1.1-2-2.2-2.8c-5.1-3.7-12.5-1.3-14.3,5.1c-0.3,1.2,0.6,1.9,0.6,3
					c0,0.2-0.3,0.4-0.5,0.9C119.8,45,119.9,51.5,120.7,51.9z"/>
				<path class="acc-st5" d="M120.8,52c0.4,0.2,1.9,0.1,3-0.4c0.7-0.3,1.2-0.9,1.3-0.9c0.5-0.2,1.5-1.7-0.1-4c-1.6-2.3,8,3.6,8.5,2.8
					c0.8-1.3,2.5-2.8,3.1-4.8c0.6-2.1,0.7-4.5-0.2-6.5c-0.5-1-1.1-1.9-2.2-2.7c-5.4-3.7-12.5-1.3-14.3,5.1c-0.3,1.2,0.6,1.9,0.6,3
					c0,0.2-0.3,0.4-0.5,0.9C119.8,45,120,51.5,120.8,52z"/>
				<path class="acc-st4" d="M120.7,51.9c0.1,0.1,1,0.1,1.4-0.1c0.5-0.5,1-1.6,1-2.2c-0.1-2.1-1.1-3.8-1.1-4.6c0-1.8,0.6-0.9-0.1-2.8
					c-0.5-1.5,0.2-1.7,0.5-3c-0.8-0.3-1.1-0.9-1.2-1.2c-0.5,0.8-0.8,1.6-1.1,2.5c-0.3,1.2,0.6,1.9,0.6,3c0,0.2-0.3,0.4-0.5,0.9
					C119.8,45,119.9,51.4,120.7,51.9z"/>
				<path class="acc-st25" d="M133.6,50.8c0.3-2.2,2.4-4,3.1-6.4c0.9-3.1,0.6-6.5-2.3-8.7c-4.1-3.3-9.5-1.5-12.2,2.1
					c-0.1,0.2,0.4,1.4,1,1.8c-0.7,2-0.5,2.5-0.2,2.9c1.2,1.7,1.2,1.9,1.1,4.4l0.7,0.5c0.3-2,1.2-1.8,2-1.2c1.5,1.2,0.8,5.3,4.2,5.5
					C132,51.7,133.2,51.4,133.6,50.8z"/>
				<path class="acc-st25" d="M133.6,50.8c0.3-2.2,2.4-4,3.1-6.4c0.2-0.8,0.4-1.6,0.4-2.4c-3.1,2.5-8.8,2.5-14.3-0.3
					c0,0.4,0.1,0.7,0.2,0.8c1.2,1.7,1.2,1.9,1.1,4.4l0.7,0.5c0.9,0.2,1.6,2,3.2,3.5C129.6,52.4,133.4,52.2,133.6,50.8z"/>
				<path class="acc-st25" d="M133.6,50.8c0.1-0.8,0.5-1.6,0.9-2.3c-1.5,1.4-5.6,1.7-8.4,0.2c0.3,1.3,1.6,2.5,3.1,3.1
					C130.5,52.2,133.1,52.4,133.6,50.8z"/>
				<path class="acc-st26" d="M133.7,40.5c-2.7,0.8-7.5,0-10.2-1.6c-2.4-1.4-2.1-3.1-1.7-3.9c0.5-0.9,2.5-1.6,5-1.6
					c-0.4-0.1-0.7-0.1-1-0.2c3.1-0.6,5-0.3,7.5,1.2c-0.1-0.2-0.2-0.3-0.3-0.4c1.1,0.4,3.8,2.8,3.4,4.3
					C136.3,39.1,135.1,40.1,133.7,40.5z"/>
				<path class="acc-st26" d="M123.2,34.1c0.9-0.4,2.2-0.6,3.7-0.6c-0.4-0.1-0.7-0.1-1-0.2c3.1-0.6,5-0.3,7.5,1.2
					c-0.1-0.2-0.2-0.3-0.3-0.4c0.7,0.2,2,1.3,2.8,2.4c-2-1.4-3.8-1.6-7.8-1.7c0.6-0.1,1-0.2,1.3-0.3C127.6,34.5,125,33.9,123.2,34.1
					L123.2,34.1z"/>
				<path class="acc-st25" d="M133.7,40.5c-2.7,0.8-7.6,0-10.3-1.6c-2.2-1.3-2.7-3.7-0.6-4.6c-0.4,0.9,0.2,2.7,2.3,3.5
					c0.2,0.1,0.1-0.2-0.1-0.7c1.2,0.2,2.6,1.7,3.8,2.1c-0.5-0.3-0.6-0.4-0.9-0.8c2,0.7,3.2,0.3,5.4,0.8c-0.3-0.2-0.6-0.3-0.9-0.5
					c1.7,0.2,3,0,4-0.4c0,0.1,0,0.1,0,0.2C136.3,39.1,135.1,40.1,133.7,40.5z"/>
			</g>
		</g>
		<g>
			<path class="acc-st1" d="M133.3,53.9c-0.1,2-5.4,3.5-9.1,2.1l0-0.4c-1,0.3-2.6,1.7-2.7,2.8c2.8,2.9,13,1,12.7-2.8
				C134.2,54.8,134,54.1,133.3,53.9z"/>
			<path class="acc-st1" d="M133.4,53.4c-0.1,1.7-4.1,3.4-7.5,3c0.6,0.4,3,0.5,3.9,0.3c1.5-0.2,1.9,1.3,0.8,1.9
				c-0.8,0.4-2.2,0.9-4.2,1.2c3.7,0.3,8.2-1.7,8-4.2C134.4,54.9,134.1,53.6,133.4,53.4z"/>
		</g>
		<g>
			<path class="acc-st4" d="M124.8,47.5c-0.3-0.8,0-1.1,0.3-1c0.4,0.1,1,0.7,1.2,1.5c0.5,1.4-0.2,3.1-1.5,2.4c1.1,0.1,1-1.3,0.7-2.1
				C125.3,47.7,124.9,47.3,124.8,47.5z"/>
		</g>
	</g>
	<path class="acc-st1" d="M139.9,88.7l1.6,9.2c0,0-5.5,8.1-17.8,6.9c-4.2-1.1-5.2-2.1-5.2-2.1l0.3-13.4c0,0,4.2-18.3,7.8-18.6l5.3-8.3
		l11.4-1.1c0,0-0.3,8.5-1.8,15.6C139.9,84.1,139.7,87.2,139.9,88.7z"/>
	<path class="acc-st1" d="M137.2,53"/>
	<path class="acc-st23" d="M137.2,53c0,0,2.2,0.1,4.4,1.5c-1-1.1-1.4-1.6-3.2-2.3s-2.1,0.5-2.1,0.5L137.2,53z"/>
	<path class="acc-st5" d="M124.7,46.6c0-0.2,0.2-0.4,0.4-0.4s0.4,0,0.6,0.1c0.6,0.3,1.1,0.9,1,1.5c0,0.3-0.2,0.6-0.3,0.9
		c-0.1,0.3-0.3,0.5-0.5,0.7c-0.1,0.1-0.2,0.1-0.3,0.2c-0.3,0-0.5-0.3-0.5-0.6c0-0.3,0.1-0.6,0.1-0.9c0-0.5-0.2-1-0.5-1.3L124.7,46.6
		z"/>
	<g>
		<path class="acc-st18" d="M111.5,87.2l-4.7,3c-1.8,1.2-5.4,3.6-7.5,3.6c-1.6,0-2.4,0.1-3.6,0.4c-1.9,0.5-1.8,1.2-3.2,1.2
			c-1.4,0-2,0.2-2.1,0.4C90.3,96.8,92,97,92.8,97l0.8,0.1l-2,1.1C90.8,98.6,89,98.6,88,98l1.6,1.6l3.5,1.5c0.8,0.3,3-2.3,6.7-3.7
			c5.7-2.1,13.7-3.4,15.4-4.1c1.6-1.1,2.4-2.3,2.4-3.3c-0.1-1.2-1.2-2.2-2.5-2.8C114,86.8,113,86.8,111.5,87.2z"/>
		<path class="acc-st22" d="M112.9,89.7c-2.1-0.2-3.1-0.3-4-0.8c-1.1,0.2-3.8,2.5-5.4,3.4c-1.2,0.7-2.4,1.3-3.8,1.5
			c-1.1,0.1-2.4,0-3.8,0.3c-1,0.2-1.7,0.8-2.3,1.1c1.7-0.2,2.3,0.1,4.5-0.2c0.5-0.1,1.1-0.1,1.5-0.2
			C104.8,93.8,107.5,91.8,112.9,89.7z"/>
		<path class="acc-st5" d="M99.9,97.7c-0.9,0.3-1.4,1.4-2.6,2.1c-1.4,0.8-3.6,1.6-4.3,1.3l-3.4-1.4l-0.8-0.9c1.1,0.3,2.3,0.6,3.1,0.2
			c1.2-0.5,2.8-1.6,3.7-1.9l-0.8-0.1c-0.9-0.1-2.1-0.1-3-0.3c-0.6-0.1-1.3-0.4-1.4-0.8c0.5,0.2,0.9,0.4,1.3,0.4c2,0.3,3.5,0.3,4.7,0
			c1.2-0.3,2-1.1,3.6-1c3.4,0.3,16.1-3.5,17.3-6.3c0.2,0.3,0.3,0.6,0.3,0.9c0,0.6-0.2,1.2-0.7,1.9c-0.5,0.6-1,1.1-2.2,1.7
			C108,97,105.5,95.7,99.9,97.7z"/>
		<path class="acc-st5" d="M89.6,99.8c0,0,1.5,1.3,2.5,1.5c1.1,0.2,2.3-0.2,2.3-0.2l-2-1.9"/>
		<path class="acc-st22" d="M91,98.4l-0.6,0.9l-1.7-0.4l-0.7-0.8c0-0.1,0-0.1,0-0.2l0.3-0.3c0.2-0.2,0.5-0.2,0.7,0
			C89.4,98,90.1,98.5,91,98.4z"/>
	</g>
	<path class="acc-st27" d="M119.5,67c-1.4-2.3-2.9-3.4-4.4-4.1c-2.4,1.6-3.6,5.7-3.8,8.2c-0.4,4-0.9,10.9-1,14.8
		c-2.9,2.4-6.6,3.9-9.8,5.9c-1.9,1.2-1.8,2-1.3,3.5c0.9,2.6,1,3,2.8,2.6c5.4-1,7-1.2,9.8-2.3c1.9-0.7,5.7-1.9,6.2-2.6
		c0.5-0.8,0.8-1.8,0.9-2.9c0.9-2.2,2.2-7,2.5-8.6C122.2,76.2,122.7,72.2,119.5,67z"/>
	<path class="acc-st1" d="M118.9,66.6c0,0,0.5-2.6,1.4-3.9c0.9-1.2,10.4,0,10.4,0l4.7,3.9c0,0-1.5,8.6-1.9,9.6c-0.4,1-3.9,6.2-3.6,7.1
		s-1.8,2.9-2.1,3.8s-4,3.5-4.1,2.5c-0.1-1-4.7-2.5-4.7-2.5l1.9-13.2L118.9,66.6z"/>
	<path class="acc-st24" d="M118.8,89.3l-0.1,4.4c0.5-0.7,0.7-1.7,0.8-2.7c0.9-2.2,2.2-7,2.5-8.6c0.4-2.2,0.7-4.1,0.7-6
		C120.6,81.8,118.8,89.3,118.8,89.3z"/>
	<path class="acc-st1" d="M119.5,67c-0.1-0.2-0.3-0.4-0.4-0.6c-0.5,1.7-0.8,3.9-0.6,6c0.5,5-3.1,16.4-3.1,16.4s-0.4,1.5-4.1,3.2
		c-3,1.3-9.1,4-11.5,5c0.5,1,0.9,1.1,2.1,0.8c5.4-1,7-1.2,9.8-2.3c1.9-0.7,5.7-1.9,6.2-2.6c0.5-0.8,0.8-1.8,0.9-2.9
		c0.9-2.2,2.2-7,2.5-8.6C122.2,76.2,122.7,72.2,119.5,67z"/>
	<path class="acc-st1" d="M124.8,57.9l-0.1,4.1c0,0,5.4,1.8,5.7,1.7s6.2-1.1,6.4-1.4s1.8-3.6,1.8-3.9c0-0.3-1.3-1.9-1.3-2.2
		c0-0.2-3-0.5-3-0.5s-4.4,1.5-4.7,1.6S124.8,57.9,124.8,57.9z"/>
</g>
</svg>
