<?xml version="1.0" encoding="utf-8"?>
<!-- Generator: Adobe Illustrator 25.2.1, SVG Export Plug-In . SVG Version: 6.00 Build 0)  -->
<!DOCTYPE svg PUBLIC "-//W3C//DTD SVG 1.1//EN" "http://www.w3.org/Graphics/SVG/1.1/DTD/svg11.dtd" [
	<!ENTITY ns_extend "http://ns.adobe.com/Extensibility/1.0/">
	<!ENTITY ns_ai "http://ns.adobe.com/AdobeIllustrator/10.0/">
	<!ENTITY ns_graphs "http://ns.adobe.com/Graphs/1.0/">
	<!ENTITY ns_vars "http://ns.adobe.com/Variables/1.0/">
	<!ENTITY ns_imrep "http://ns.adobe.com/ImageReplacement/1.0/">
	<!ENTITY ns_sfw "http://ns.adobe.com/SaveForWeb/1.0/">
	<!ENTITY ns_custom "http://ns.adobe.com/GenericCustomNamespace/1.0/">
	<!ENTITY ns_adobe_xpath "http://ns.adobe.com/XPath/1.0/">
]>
<svg version="1.1" id="Calque_1" xmlns:x="&ns_extend;" xmlns:i="&ns_ai;" xmlns:graph="&ns_graphs;"
	 xmlns="http://www.w3.org/2000/svg" xmlns:xlink="http://www.w3.org/1999/xlink" x="0px" y="0px" viewBox="0 0 200 200"
	 style="enable-background:new 0 0 200 200;" xml:space="preserve">
<style type="text/css">
	.mnia0{fill-rule:evenodd;clip-rule:evenodd;}
	.mnia1{fill-rule:evenodd;clip-rule:evenodd;fill:#BCB9BA;}
	.mnia2{fill-rule:evenodd;clip-rule:evenodd;fill:#F5F5F5;}
	.mnia3{fill-rule:evenodd;clip-rule:evenodd;fill:#E5E4E4;}
	.mnia4{fill:#BCB9BA;}
	.mnia5{fill:#BBB9BA;}
	.mnia6{fill:#BBB8B9;}
	.mnia7{fill:#BAB8B9;}
	.mnia8{fill:#B9B7B8;}
	.mnia9{fill:#B9B7B7;}
	.mnia10{fill:#B8B6B7;}
	.mnia11{fill:#B8B5B6;}
	.mnia12{fill:#B7B5B6;}
	.mnia13{fill:#B7B4B5;}
	.mnia14{fill:#B6B4B5;}
	.mnia15{fill:#B6B3B4;}
	.mnia16{fill:#B5B3B4;}
	.mnia17{fill:#B4B2B3;}
	.mnia18{fill:#B3B1B2;}
	.mnia19{fill:#B3B1B1;}
	.mnia20{fill:#B2B0B1;}
	.mnia21{fill:#B2AFB0;}
	.mnia22{fill:#B1AFB0;}
	.mnia23{fill:#B1AEAF;}
	.mnia24{fill:#B0AEAF;}
	.mnia25{fill:#AFADAE;}
	.mnia26{fill:#AEACAD;}
	.mnia27{fill:#ADABAC;}
	.mnia28{fill:#ADABAB;}
	.mnia29{fill:#ACAAAB;}
	.mnia30{fill:#ACAAAA;}
	.mnia31{fill:#ABA9AA;}
	.mnia32{fill:#AAA8A9;}
	.mnia33{fill:#A9A7A8;}
	.mnia34{fill:#A8A6A7;}
	.mnia35{fill:#A7A5A6;}
	.mnia36{fill:#A7A5A5;}
	.mnia37{fill:#A6A4A5;}
	.mnia38{fill:#A5A4A4;}
	.mnia39{fill:#A5A3A4;}
	.mnia40{fill:#A4A2A3;}
	.mnia41{fill:#A3A1A2;}
	.mnia42{fill:#A2A0A1;}
	.mnia43{fill:#A19FA0;}
	.mnia44{fill:#A09F9F;}
	.mnia45{fill:#A09E9F;}
	.mnia46{fill:#9F9E9E;}
	.mnia47{fill:#9F9D9E;}
	.mnia48{fill:#9E9D9D;}
	.mnia49{fill:#9E9C9D;}
	.mnia50{fill:#9D9B9C;}
	.mnia51{fill:#9C9A9B;}
	.mnia52{fill:#9B9A9B;}
	.mnia53{fill:#9B999A;}
	.mnia54{fill:#9A9999;}
	.mnia55{fill:#9A9899;}
	.mnia56{fill:#999898;}
	.mnia57{fill:#999798;}
	.mnia58{fill:#989797;}
	.mnia59{fill:#989697;}
	.mnia60{fill:#979596;}
	.mnia61{fill:#969596;}
	.mnia62{fill:#969495;}
	.mnia63{fill:#959495;}
	.mnia64{fill:#959394;}
	.mnia65{fill:#949393;}
	.mnia66{fill:#949293;}
	.mnia67{fill:#939292;}
	.mnia68{fill:#939192;}
	.mnia69{fill:#929191;}
	.mnia70{fill:#919091;}
	.mnia71{fill:#919090;}
	.mnia72{fill:#908F90;}
	.mnia73{fill:#908E8F;}
	.mnia74{fill:#8F8E8F;}
	.mnia75{fill:#8F8D8E;}
	.mnia76{fill:#8E8D8D;}
	.mnia77{fill:#8E8C8D;}
	.mnia78{fill:#8D8C8C;}
	.mnia79{fill:#8C8B8C;}
	.mnia80{fill:#8C8B8B;}
	.mnia81{fill:#8B8A8B;}
	.mnia82{fill:#8B8A8A;}
	.mnia83{fill:#8A898A;}
	.mnia84{fill:#8A8889;}
	.mnia85{fill:#898888;}
	.mnia86{fill:#898788;}
	.mnia87{fill:#888787;}
	.mnia88{fill:#878687;}
	.mnia89{fill:#878686;}
	.mnia90{fill:#868586;}
	.mnia91{fill:#868585;}
	.mnia92{fill:#858485;}
	.mnia93{fill:#858484;}
	.mnia94{fill:#848384;}
	.mnia95{fill:#848383;}
	.mnia96{fill:#838282;}
	.mnia97{fill:#828182;}
	.mnia98{fill:#828181;}
	.mnia99{fill:#818081;}
	.mnia100{fill:#818080;}
	.mnia101{fill:#807F80;}
	.mnia102{fill:#807F7F;}
	.mnia103{fill:#7F7E7F;}
	.mnia104{fill:#7F7E7E;}
	.mnia105{fill:#7E7D7E;}
	.mnia106{fill:#7D7D7D;}
	.mnia107{fill:#7D7C7C;}
	.mnia108{fill:#7C7B7C;}
	.mnia109{fill:#7C7B7B;}
	.mnia110{fill:#7B7A7B;}
	.mnia111{fill:#7B7A7A;}
	.mnia112{fill:#7A797A;}
	.mnia113{fill:#7A7979;}
	.mnia114{fill:#797879;}
	.mnia115{fill:#787878;}
	.mnia116{fill:#787778;}
	.mnia117{fill:#777777;}
	.mnia118{fill:#777676;}
	.mnia119{fill:#767676;}
	.mnia120{fill:#767575;}
	.mnia121{fill:#757475;}
	.mnia122{fill:#757474;}
	.mnia123{fill:#747374;}
	.mnia124{fill:#737373;}
	.mnia125{fill:#737273;}
	.mnia126{fill:#727272;}
	.mnia127{fill:#727172;}
	.mnia128{fill:#717171;}
	.mnia129{fill:#717070;}
	.mnia130{fill:#707070;}
	.mnia131{fill:#706F6F;}
	.mnia132{fill:#6F6E6F;}
	.mnia133{fill:#6E6E6E;}
	.mnia134{fill:#6E6D6E;}
	.mnia135{fill:#6D6D6D;}
	.mnia136{fill:#6D6C6D;}
	.mnia137{fill:#6C6C6C;}
	.mnia138{fill:#6C6B6C;}
	.mnia139{fill:#6B6B6B;}
	.mnia140{fill:#6B6A6A;}
	.mnia141{fill:#6A6A6A;}
	.mnia142{fill:#696969;}
	.mnia143{fill:#686868;}
	.mnia144{fill:#686768;}
	.mnia145{fill:#676767;}
	.mnia146{fill:#676667;}
	.mnia147{fill:#666666;}
	.mnia148{fill:#666566;}
	.mnia149{fill:#656565;}
	.mnia150{fill:#646464;}
	.mnia151{fill:#636363;}
	.mnia152{fill:#626262;}
	.mnia153{fill:#626162;}
	.mnia154{fill:#616161;}
	.mnia155{fill:#616061;}
	.mnia156{fill:#606060;}
	.mnia157{fill:#5F5F60;}
	.mnia158{fill:#5F5F5F;}
	.mnia159{fill:#5E5E5E;}
	.mnia160{fill:#5D5D5D;}
	.mnia161{fill:#5C5C5C;}
	.mnia162{fill:#5B5B5B;}
	.mnia163{fill:#5A5A5B;}
	.mnia164{fill:#5A5A5A;}
	.mnia165{fill:#59595A;}
	.mnia166{fill:#595959;}
	.mnia167{fill:#585858;}
	.mnia168{fill:#575757;}
	.mnia169{fill:#565656;}
	.mnia170{fill:#555656;}
	.mnia171{fill:#555555;}
	.mnia172{fill:#545455;}
	.mnia173{fill:#545454;}
	.mnia174{fill:#535353;}
	.mnia175{fill:#525252;}
	.mnia176{fill:#515151;}
	.mnia177{fill:#505151;}
	.mnia178{fill:#505050;}
	.mnia179{fill:#4F5050;}
	.mnia180{fill:#4F4F4F;}
	.mnia181{fill:#4E4F4F;}
	.mnia182{fill:#4E4E4E;}
	.mnia183{fill:#4D4D4D;}
	.mnia184{fill:#4C4C4C;}
	.mnia185{fill:url(#MNIA_ID_1_);}
	.mnia186{fill:url(#MNIA_ID_2_);}
	.mnia187{fill:var(--vitamui-primary);}
	.mnia188{fill-rule:evenodd;clip-rule:evenodd;fill:url(#MNIA_ID_3_);}
	.mnia189{fill-rule:evenodd;clip-rule:evenodd;fill:url(#MNIA_ID_4_);}
	.mnia190{fill:url(#MNIA_ID_5_);}
	.mnia191{fill:url(#MNIA_ID_6_);}
	.mnia192{fill-rule:evenodd;clip-rule:evenodd;fill:url(#MNIA_ID_7_);}
	.mnia193{fill:var(--vitamui-primary-300);}
	.mnia194{fill-rule:evenodd;clip-rule:evenodd;fill:url(#MNIA_ID_8_);}
	.mnia195{fill-rule:evenodd;clip-rule:evenodd;fill:url(#MNIA_ID_9_);}
	.mnia196{fill-rule:evenodd;clip-rule:evenodd;fill:url(#MNIA_ID_10_);}
	.mnia197{fill-rule:evenodd;clip-rule:evenodd;fill:url(#MNIA_ID_11_);}
	.mnia198{fill-rule:evenodd;clip-rule:evenodd;fill:url(#MNIA_ID_12_);}
	.mnia199{fill-rule:evenodd;clip-rule:evenodd;fill:url(#MNIA_ID_13_);}
	.mnia200{fill-rule:evenodd;clip-rule:evenodd;fill:url(#MNIA_ID_14_);}
	.mnia201{fill-rule:evenodd;clip-rule:evenodd;fill:url(#MNIA_ID_15_);}
	.mnia202{fill-rule:evenodd;clip-rule:evenodd;fill:url(#MNIA_ID_16_);}
	.mnia203{fill-rule:evenodd;clip-rule:evenodd;fill:url(#MNIA_ID_17_);}
	.mnia204{fill-rule:evenodd;clip-rule:evenodd;fill:url(#MNIA_ID_18_);}
	.mnia205{fill-rule:evenodd;clip-rule:evenodd;fill:url(#MNIA_ID_19_);}
	.mnia206{fill-rule:evenodd;clip-rule:evenodd;fill:url(#MNIA_ID_20_);}
	.mnia207{fill-rule:evenodd;clip-rule:evenodd;fill:url(#MNIA_ID_21_);}
	.mnia208{fill-rule:evenodd;clip-rule:evenodd;fill:url(#MNIA_ID_22_);}
	.mnia209{fill-rule:evenodd;clip-rule:evenodd;fill:url(#MNIA_ID_23_);}
	.mnia210{fill-rule:evenodd;clip-rule:evenodd;fill:url(#MNIA_ID_24_);}
	.mnia211{fill-rule:evenodd;clip-rule:evenodd;fill:url(#MNIA_ID_25_);}
	.mnia212{fill-rule:evenodd;clip-rule:evenodd;fill:url(#MNIA_ID_26_);}
	.mnia213{fill-rule:evenodd;clip-rule:evenodd;fill:url(#MNIA_ID_27_);}
	.mnia214{fill-rule:evenodd;clip-rule:evenodd;fill:url(#MNIA_ID_28_);}
	.mnia215{fill-rule:evenodd;clip-rule:evenodd;fill:url(#MNIA_ID_29_);}
	.mnia216{fill-rule:evenodd;clip-rule:evenodd;fill:url(#MNIA_ID_30_);}
	.mnia217{fill:url(#MNIA_ID_31_);}
	.mnia218{fill:url(#MNIA_ID_32_);}
	.mnia219{fill:url(#MNIA_ID_33_);}
	.mnia220{fill:url(#MNIA_ID_34_);}
	.mnia221{fill:#FFFFFF;}
</style>
<metadata>
	<sfw  xmlns="&ns_sfw;">
		<slices></slices>
		<sliceSourceBounds  bottomLeftOrigin="true" height="132.8" width="165.1" x="17.4" y="19.3"></sliceSourceBounds>
	</sfw>
</metadata>
<g>
	<g>
		<path class="mnia0" d="M100,141.5c45.6,0,82.6,8.5,82.6,19s-37,20.2-82.6,20.2s-82.6-9.7-82.6-20.2C17.3,150.1,54.3,141.5,100,141.5
			z"/>
		<path class="mnia1" d="M100,141.9c43.6,0,78.9,8.4,78.9,18.8c0,10.4-35.3,18.8-78.9,18.8s-78.9-8.4-78.9-18.8
			C21.1,150.2,56.4,141.9,100,141.9z"/>
		<path class="mnia2" d="M100,139.7c43.6,0,78.9,8.4,78.9,18.8c0,10.4-35.3,18.8-78.9,18.8s-78.9-8.4-78.9-18.8
			C21.1,148,56.4,139.7,100,139.7z"/>
		<path class="mnia1" d="M100,138.5c43.6,0,78.9,8.4,78.9,18.8c0,10.4-35.3,18.8-78.9,18.8s-78.9-8.4-78.9-18.8
			C21.1,146.8,56.4,138.5,100,138.5z"/>
		<path class="mnia3" d="M99.9,138.5c22.9,0,43.4,2.3,57.8,6c-30.2-1.8-112.6,2.6-132.9,18.5c-2.5-1.8-3.8-3.8-3.8-5.7
			C20.9,146.8,56.4,138.5,99.9,138.5z"/>
		<path class="mnia2" d="M21.1,157.2c0-10.4,35.3-18.8,78.9-18.8s78.9,8.4,78.9,18.8c0,0.4,0,0.6-0.1,1c-2.2-9.8-36.6-17.7-78.8-17.7
			s-76.6,7.9-78.8,17.7C21.1,157.8,21.1,157.6,21.1,157.2z"/>
	</g>
</g>
<g>
	<g>
		
			<ellipse transform="matrix(2.689626e-02 -0.9996 0.9996 2.689626e-02 -103.2847 222.1085)" class="mnia4" cx="62.4" cy="164.1" rx="2.1" ry="14.1"/>
		<path class="mnia5" d="M76.4,164.7c-0.7,1.2-7.6,1.8-15.3,1.5c-7.7-0.3-13.4-1.5-12.6-2.7c0.7-1.2,7.6-1.8,15.3-1.5
			C71.4,162.3,77.1,163.5,76.4,164.7z"/>
		<path class="mnia6" d="M76.3,164.7c-0.7,1.2-7.5,1.8-15.2,1.5c-7.7-0.3-13.3-1.5-12.6-2.7c0.7-1.2,7.5-1.8,15.2-1.5
			S77,163.5,76.3,164.7z"/>
		<path class="mnia7" d="M76.2,164.7c-0.7,1.2-7.5,1.8-15.2,1.5c-7.6-0.3-13.3-1.5-12.5-2.6c0.7-1.1,7.5-1.8,15.2-1.5
			S76.9,163.5,76.2,164.7z"/>
		<path class="mnia8" d="M76.1,164.7c-0.7,1.1-7.5,1.8-15.1,1.5c-7.6-0.3-13.2-1.5-12.5-2.6c0.7-1.1,7.5-1.8,15.1-1.5
			C71.2,162.3,76.8,163.5,76.1,164.7z"/>
		<path class="mnia9" d="M76,164.7c-0.7,1.1-7.5,1.8-15,1.5c-7.6-0.3-13.2-1.5-12.4-2.6s7.4-1.8,15-1.5S76.8,163.5,76,164.7z"/>
		<path class="mnia10" d="M76,164.7c-0.7,1.1-7.4,1.8-15,1.5c-7.6-0.3-13.1-1.5-12.4-2.6s7.4-1.8,15-1.5S76.7,163.5,76,164.7z"/>
		<path class="mnia11" d="M75.9,164.7c-0.7,1.1-7.4,1.8-14.9,1.5c-7.5-0.3-13.1-1.5-12.3-2.6c0.7-1.1,7.4-1.8,14.9-1.5
			C71.1,162.4,76.6,163.5,75.9,164.7z"/>
		<path class="mnia12" d="M75.8,164.7c-0.7,1.1-7.4,1.8-14.9,1.5c-7.5-0.3-13-1.5-12.3-2.6s7.4-1.8,14.9-1.5S76.5,163.5,75.8,164.7z"
			/>
		<path class="mnia13" d="M75.7,164.7c-0.7,1.1-7.3,1.8-14.8,1.5c-7.5-0.3-12.9-1.5-12.2-2.6c0.7-1.1,7.3-1.8,14.8-1.5
			S76.4,163.6,75.7,164.7z"/>
		<path class="mnia14" d="M75.6,164.7c-0.7,1.1-7.3,1.8-14.7,1.5c-7.4-0.3-12.9-1.5-12.2-2.6c0.7-1.1,7.3-1.8,14.7-1.5
			C70.9,162.4,76.3,163.6,75.6,164.7z"/>
		<path class="mnia15" d="M75.5,164.7c-0.7,1.1-7.3,1.8-14.7,1.5c-7.4-0.3-12.8-1.5-12.1-2.6c0.7-1.1,7.3-1.8,14.7-1.5
			S76.2,163.6,75.5,164.7z"/>
		<path class="mnia16" d="M75.5,164.7c-0.7,1.1-7.2,1.8-14.6,1.5c-7.4-0.3-12.8-1.4-12.1-2.6c0.7-1.1,7.2-1.8,14.6-1.5
			S76.2,163.6,75.5,164.7z"/>
		<path class="mnia17" d="M75.4,164.7c-0.7,1.1-7.2,1.8-14.5,1.5c-7.3-0.3-12.7-1.4-12-2.5s7.2-1.8,14.5-1.5
			C70.7,162.4,76.1,163.6,75.4,164.7z"/>
		<path class="mnia17" d="M75.3,164.7c-0.7,1.1-7.2,1.8-14.5,1.4c-7.3-0.3-12.7-1.4-12-2.5c0.7-1.1,7.2-1.7,14.5-1.4
			C70.6,162.4,76,163.6,75.3,164.7z"/>
		<path class="mnia18" d="M75.2,164.7c-0.7,1.1-7.2,1.7-14.4,1.4c-7.3-0.3-12.6-1.4-11.9-2.5c0.7-1.1,7.1-1.7,14.4-1.4
			S75.9,163.6,75.2,164.7z"/>
		<path class="mnia19" d="M75.1,164.7c-0.7,1.1-7.1,1.7-14.4,1.4c-7.2-0.3-12.6-1.4-11.9-2.5c0.7-1.1,7.1-1.7,14.4-1.4
			S75.8,163.6,75.1,164.7z"/>
		<path class="mnia20" d="M75,164.7c-0.7,1.1-7.1,1.7-14.3,1.4c-7.2-0.3-12.5-1.4-11.8-2.5s7.1-1.7,14.3-1.4S75.7,163.6,75,164.7z"/>
		<path class="mnia21" d="M75,164.7c-0.7,1.1-7.1,1.7-14.2,1.4c-7.2-0.3-12.5-1.4-11.8-2.5s7.1-1.7,14.2-1.4S75.6,163.6,75,164.7z"/>
		<path class="mnia22" d="M74.9,164.7c-0.7,1.1-7,1.7-14.2,1.4c-7.2-0.3-12.4-1.4-11.7-2.5c0.7-1.1,7-1.7,14.2-1.4
			S75.6,163.6,74.9,164.7z"/>
		<path class="mnia23" d="M74.8,164.7c-0.7,1.1-7,1.7-14.1,1.4c-7.1-0.3-12.4-1.4-11.7-2.5s7-1.7,14.1-1.4S75.5,163.6,74.8,164.7z"/>
		<path class="mnia24" d="M74.7,164.7c-0.7,1.1-7,1.7-14.1,1.4c-7.1-0.3-12.3-1.4-11.6-2.5s7-1.7,14.1-1.4S75.4,163.6,74.7,164.7z"/>
		<path class="mnia25" d="M74.6,164.7c-0.7,1.1-7,1.7-14,1.4c-7.1-0.3-12.3-1.4-11.6-2.5s6.9-1.7,14-1.4
			C70.1,162.5,75.3,163.6,74.6,164.7z"/>
		<path class="mnia25" d="M74.5,164.7c-0.7,1.1-6.9,1.7-13.9,1.4c-7-0.3-12.2-1.4-11.5-2.4c0.7-1.1,6.9-1.7,13.9-1.4
			S75.2,163.6,74.5,164.7z"/>
		<path class="mnia26" d="M74.5,164.7c-0.7,1.1-6.9,1.7-13.9,1.4c-7-0.3-12.1-1.4-11.5-2.4c0.7-1.1,6.9-1.7,13.9-1.4
			S75.1,163.6,74.5,164.7z"/>
		<path class="mnia26" d="M74.4,164.7c-0.7,1.1-6.9,1.7-13.8,1.4c-7-0.3-12.1-1.4-11.4-2.4s6.8-1.7,13.8-1.4
			C69.9,162.5,75,163.6,74.4,164.7z"/>
		<path class="mnia27" d="M74.3,164.7c-0.7,1.1-6.8,1.7-13.8,1.4c-6.9-0.3-12-1.4-11.4-2.4s6.8-1.7,13.8-1.4S75,163.6,74.3,164.7z"/>
		<path class="mnia28" d="M74.2,164.7c-0.7,1.1-6.8,1.7-13.7,1.4c-6.9-0.3-12-1.4-11.3-2.4c0.7-1,6.8-1.7,13.7-1.4
			C69.8,162.5,74.9,163.6,74.2,164.7z"/>
		<path class="mnia29" d="M74.1,164.7c-0.7,1-6.8,1.6-13.6,1.4c-6.9-0.3-11.9-1.4-11.3-2.4c0.6-1,6.8-1.6,13.6-1.4
			C69.7,162.5,74.8,163.6,74.1,164.7z"/>
		<path class="mnia30" d="M74,164.7c-0.7,1-6.8,1.6-13.6,1.4c-6.8-0.3-11.9-1.3-11.2-2.4c0.6-1,6.7-1.6,13.6-1.4
			C69.7,162.6,74.7,163.6,74,164.7z"/>
		<path class="mnia31" d="M74,164.7c-0.7,1-6.7,1.6-13.5,1.3c-6.8-0.3-11.8-1.3-11.2-2.4s6.7-1.6,13.5-1.3S74.6,163.6,74,164.7z"/>
		<path class="mnia32" d="M73.9,164.7c-0.7,1-6.7,1.6-13.5,1.3c-6.8-0.3-11.8-1.3-11.1-2.4c0.6-1,6.7-1.6,13.5-1.3
			C69.5,162.6,74.5,163.6,73.9,164.7z"/>
		<path class="mnia32" d="M73.8,164.6c-0.7,1-6.7,1.6-13.4,1.3c-6.8-0.3-11.7-1.3-11.1-2.3c0.6-1,6.6-1.6,13.4-1.3
			C69.5,162.6,74.5,163.7,73.8,164.6z"/>
		<path class="mnia33" d="M73.7,164.6c-0.7,1-6.6,1.6-13.3,1.3c-6.7-0.3-11.7-1.3-11-2.3s6.6-1.6,13.3-1.3S74.4,163.7,73.7,164.6z"/>
		<path class="mnia33" d="M73.6,164.6c-0.7,1-6.6,1.6-13.3,1.3c-6.7-0.3-11.6-1.3-11-2.3s6.6-1.6,13.3-1.3
			C69.3,162.6,74.3,163.7,73.6,164.6z"/>
		<path class="mnia34" d="M73.5,164.6c-0.7,1-6.6,1.6-13.2,1.3c-6.7-0.3-11.6-1.3-10.9-2.3s6.5-1.6,13.2-1.3S74.2,163.7,73.5,164.6z"
			/>
		<path class="mnia34" d="M73.5,164.6c-0.7,1-6.6,1.6-13.1,1.3c-6.6-0.3-11.5-1.3-10.9-2.3c0.6-1,6.5-1.6,13.1-1.3
			S74.1,163.7,73.5,164.6z"/>
		<path class="mnia35" d="M73.4,164.6c-0.7,1-6.5,1.6-13.1,1.3c-6.6-0.3-11.4-1.3-10.8-2.3c0.6-1,6.5-1.6,13.1-1.3
			C69.1,162.6,74,163.7,73.4,164.6z"/>
		<path class="mnia36" d="M73.3,164.6c-0.7,1-6.5,1.6-13,1.3c-6.6-0.3-11.4-1.3-10.8-2.3c0.6-1,6.5-1.6,13-1.3S73.9,163.7,73.3,164.6z
			"/>
		<path class="mnia37" d="M73.2,164.6c-0.7,1-6.5,1.6-13,1.3c-6.5-0.3-11.3-1.3-10.7-2.3c0.6-1,6.4-1.6,13-1.3
			C69,162.6,73.9,163.7,73.2,164.6z"/>
		<path class="mnia38" d="M73.1,164.6c-0.7,1-6.4,1.6-12.9,1.3c-6.5-0.3-11.3-1.3-10.7-2.3c0.6-1,6.4-1.6,12.9-1.3
			C69,162.6,73.8,163.7,73.1,164.6z"/>
		<path class="mnia39" d="M73,164.6c-0.7,1-6.4,1.6-12.8,1.3c-6.5-0.3-11.2-1.3-10.6-2.3c0.6-1,6.4-1.6,12.8-1.3
			C68.9,162.7,73.7,163.7,73,164.6z"/>
		<path class="mnia40" d="M73,164.6c-0.7,1-6.4,1.5-12.8,1.3c-6.4-0.3-11.2-1.3-10.6-2.2s6.3-1.5,12.8-1.3
			C68.8,162.7,73.6,163.7,73,164.6z"/>
		<path class="mnia40" d="M72.9,164.6c-0.7,1-6.3,1.5-12.7,1.3c-6.4-0.3-11.1-1.3-10.5-2.2c0.6-1,6.3-1.5,12.7-1.3
			C68.8,162.7,73.5,163.7,72.9,164.6z"/>
		<path class="mnia41" d="M72.8,164.6c-0.7,1-6.3,1.5-12.7,1.3c-6.4-0.3-11.1-1.3-10.5-2.2c0.6-1,6.3-1.5,12.7-1.3
			C68.7,162.7,73.4,163.7,72.8,164.6z"/>
		<path class="mnia41" d="M72.7,164.6c-0.7,1-6.3,1.5-12.6,1.3c-6.4-0.3-11-1.3-10.4-2.2s6.2-1.5,12.6-1.3
			C68.6,162.7,73.3,163.7,72.7,164.6z"/>
		<path class="mnia42" d="M72.6,164.6c-0.7,1-6.3,1.5-12.5,1.3c-6.3-0.3-11-1.3-10.4-2.2c0.6-1,6.2-1.5,12.5-1.3
			C68.6,162.7,73.3,163.7,72.6,164.6z"/>
		<path class="mnia42" d="M72.5,164.6c-0.7,1-6.2,1.5-12.5,1.2c-6.3-0.3-10.9-1.2-10.3-2.2c0.6-0.9,6.2-1.5,12.5-1.2
			C68.5,162.7,73.2,163.7,72.5,164.6z"/>
		<path class="mnia43" d="M72.5,164.6c-0.7,1-6.2,1.5-12.4,1.2c-6.3-0.3-10.9-1.2-10.3-2.2c0.6-0.9,6.1-1.5,12.4-1.2
			C68.4,162.7,73.1,163.7,72.5,164.6z"/>
		<path class="mnia44" d="M72.4,164.6c-0.7,1-6.2,1.5-12.4,1.2c-6.2-0.3-10.8-1.2-10.2-2.2c0.6-0.9,6.1-1.5,12.4-1.2
			C68.4,162.7,73,163.7,72.4,164.6z"/>
		<path class="mnia45" d="M72.3,164.6c-0.7,1-6.1,1.5-12.3,1.2c-6.2-0.3-10.8-1.2-10.2-2.2c0.6-0.9,6.1-1.5,12.3-1.2
			C68.3,162.7,72.9,163.7,72.3,164.6z"/>
		<path class="mnia46" d="M72.2,164.6c-0.7,1-6.1,1.5-12.2,1.2c-6.2-0.3-10.7-1.2-10.1-2.2s6.1-1.5,12.2-1.2
			C68.3,162.7,72.8,163.7,72.2,164.6z"/>
		<path class="mnia47" d="M72.1,164.6c-0.7,0.9-6.1,1.5-12.2,1.2c-6.1-0.3-10.6-1.2-10.1-2.1c0.6-0.9,6-1.5,12.2-1.2
			C68.2,162.7,72.7,163.7,72.1,164.6z"/>
		<path class="mnia48" d="M72,164.6c-0.7,0.9-6.1,1.5-12.1,1.2c-6.1-0.3-10.6-1.2-10-2.1c0.6-0.9,6-1.5,12.1-1.2
			C68.1,162.8,72.7,163.7,72,164.6z"/>
		<path class="mnia49" d="M72,164.6c-0.7,0.9-6,1.5-12,1.2c-6.1-0.3-10.5-1.2-10-2.1c0.6-0.9,6-1.5,12-1.2
			C68.1,162.8,72.6,163.8,72,164.6z"/>
		<path class="mnia50" d="M71.9,164.6c-0.7,0.9-6,1.5-12,1.2c-6-0.3-10.5-1.2-9.9-2.1c0.6-0.9,5.9-1.4,12-1.2
			C68,162.8,72.5,163.8,71.9,164.6z"/>
		<path class="mnia50" d="M71.8,164.6c-0.7,0.9-6,1.4-11.9,1.2c-6-0.3-10.4-1.2-9.9-2.1c0.6-0.9,5.9-1.4,11.9-1.2
			C67.9,162.8,72.4,163.8,71.8,164.6z"/>
		<path class="mnia51" d="M71.7,164.6c-0.7,0.9-5.9,1.4-11.9,1.2c-6-0.3-10.4-1.2-9.8-2.1c0.6-0.9,5.9-1.4,11.9-1.2
			C67.9,162.8,72.3,163.8,71.7,164.6z"/>
		<path class="mnia52" d="M71.6,164.6c-0.7,0.9-5.9,1.4-11.8,1.2c-6-0.3-10.3-1.2-9.8-2.1c0.6-0.9,5.8-1.4,11.8-1.2
			C67.8,162.8,72.2,163.8,71.6,164.6z"/>
		<path class="mnia53" d="M71.5,164.6c-0.7,0.9-5.9,1.4-11.7,1.2c-5.9-0.3-10.3-1.2-9.7-2.1c0.6-0.9,5.8-1.4,11.7-1.2
			C67.7,162.8,72.1,163.8,71.5,164.6z"/>
		<path class="mnia54" d="M71.5,164.6c-0.7,0.9-5.9,1.4-11.7,1.2c-5.9-0.3-10.2-1.2-9.7-2.1c0.6-0.9,5.8-1.4,11.7-1.2
			S72.1,163.8,71.5,164.6z"/>
		<path class="mnia55" d="M71.4,164.6c-0.6,0.9-5.8,1.4-11.6,1.2c-5.9-0.3-10.2-1.2-9.6-2c0.6-0.9,5.8-1.4,11.6-1.2
			C67.6,162.8,72,163.8,71.4,164.6z"/>
		<path class="mnia56" d="M71.3,164.6c-0.6,0.9-5.8,1.4-11.6,1.2c-5.8-0.3-10.1-1.2-9.6-2s5.7-1.4,11.6-1.2S71.9,163.8,71.3,164.6z"/>
		<path class="mnia57" d="M71.2,164.6c-0.6,0.9-5.8,1.4-11.5,1.1c-5.8-0.3-10.1-1.2-9.5-2c0.5-0.9,5.7-1.4,11.5-1.1
			C67.5,162.8,71.8,163.8,71.2,164.6z"/>
		<path class="mnia58" d="M71.1,164.6c-0.6,0.9-5.7,1.4-11.4,1.1c-5.8-0.3-10-1.1-9.5-2c0.5-0.9,5.7-1.4,11.4-1.1
			C67.4,162.8,71.7,163.8,71.1,164.6z"/>
		<path class="mnia59" d="M71,164.6c-0.6,0.9-5.7,1.4-11.4,1.1c-5.7-0.3-10-1.1-9.4-2c0.5-0.9,5.6-1.4,11.4-1.1
			C67.4,162.9,71.6,163.8,71,164.6z"/>
		<path class="mnia60" d="M71,164.6c-0.6,0.9-5.7,1.4-11.3,1.1c-5.7-0.3-9.9-1.1-9.4-2c0.5-0.9,5.6-1.4,11.3-1.1S71.5,163.8,71,164.6z
			"/>
		<path class="mnia61" d="M70.9,164.6c-0.6,0.9-5.6,1.4-11.3,1.1c-5.7-0.3-9.8-1.1-9.3-2c0.5-0.9,5.6-1.4,11.3-1.1
			C67.2,162.9,71.5,163.8,70.9,164.6z"/>
		<path class="mnia62" d="M70.8,164.6c-0.6,0.9-5.6,1.4-11.2,1.1c-5.6-0.3-9.8-1.1-9.3-2c0.5-0.9,5.5-1.4,11.2-1.1
			S71.4,163.8,70.8,164.6z"/>
		<path class="mnia63" d="M70.7,164.6c-0.6,0.9-5.6,1.4-11.1,1.1c-5.6-0.3-9.7-1.1-9.2-2c0.5-0.8,5.5-1.3,11.1-1.1
			S71.3,163.8,70.7,164.6z"/>
		<path class="mnia64" d="M70.6,164.6c-0.6,0.9-5.6,1.3-11.1,1.1c-5.6-0.3-9.7-1.1-9.2-2c0.5-0.8,5.5-1.3,11.1-1.1
			C67,162.9,71.2,163.8,70.6,164.6z"/>
		<path class="mnia65" d="M70.5,164.6c-0.6,0.9-5.5,1.3-11,1.1c-5.6-0.3-9.6-1.1-9.1-1.9s5.5-1.3,11-1.1S71.1,163.8,70.5,164.6z"/>
		<path class="mnia66" d="M70.5,164.6c-0.6,0.9-5.5,1.3-11,1.1c-5.5-0.3-9.6-1.1-9.1-1.9s5.4-1.3,11-1.1S71,163.8,70.5,164.6z"/>
		<path class="mnia67" d="M70.4,164.6c-0.6,0.9-5.5,1.3-10.9,1.1c-5.5-0.3-9.5-1.1-9-1.9c0.5-0.8,5.4-1.3,10.9-1.1
			C66.9,162.9,70.9,163.8,70.4,164.6z"/>
		<path class="mnia68" d="M70.3,164.6c-0.6,0.9-5.4,1.3-10.8,1.1c-5.5-0.2-9.5-1.1-9-1.9c0.5-0.8,5.4-1.3,10.8-1.1
			S70.9,163.8,70.3,164.6z"/>
		<path class="mnia69" d="M70.2,164.6c-0.6,0.9-5.4,1.3-10.8,1.1c-5.4-0.2-9.4-1.1-8.9-1.9c0.5-0.8,5.3-1.3,10.8-1.1
			S70.8,163.8,70.2,164.6z"/>
		<path class="mnia70" d="M70.1,164.6c-0.6,0.9-5.4,1.3-10.7,1.1c-5.4-0.2-9.4-1.1-8.9-1.9c0.5-0.8,5.3-1.3,10.7-1.1
			S70.7,163.8,70.1,164.6z"/>
		<path class="mnia71" d="M70,164.6c-0.6,0.8-5.4,1.3-10.6,1.1c-5.4-0.2-9.3-1.1-8.8-1.9c0.5-0.8,5.3-1.3,10.6-1.1
			S70.6,163.9,70,164.6z"/>
		<path class="mnia72" d="M70,164.6c-0.6,0.8-5.3,1.3-10.6,1.1c-5.3-0.2-9.3-1.1-8.8-1.9c0.5-0.8,5.2-1.3,10.6-1.1
			S70.5,163.9,70,164.6z"/>
		<path class="mnia73" d="M69.9,164.6c-0.6,0.8-5.3,1.3-10.5,1c-5.3-0.2-9.2-1.1-8.7-1.9c0.5-0.8,5.2-1.3,10.5-1
			S70.4,163.9,69.9,164.6z"/>
		<path class="mnia74" d="M69.8,164.6c-0.6,0.8-5.3,1.3-10.5,1c-5.3-0.2-9.2-1.1-8.7-1.9c0.5-0.8,5.2-1.3,10.5-1
			S70.3,163.9,69.8,164.6z"/>
		<path class="mnia75" d="M69.7,164.6c-0.6,0.8-5.2,1.3-10.4,1c-5.2-0.2-9.1-1-8.6-1.8c0.5-0.8,5.2-1.3,10.4-1S70.3,163.9,69.7,164.6z
			"/>
		<path class="mnia76" d="M69.6,164.6c-0.6,0.8-5.2,1.3-10.3,1c-5.2-0.2-9-1-8.6-1.8c0.5-0.8,5.1-1.3,10.3-1S70.2,163.9,69.6,164.6z"
			/>
		<path class="mnia77" d="M69.5,164.6c-0.6,0.8-5.2,1.3-10.3,1c-5.2-0.2-9-1-8.5-1.8c0.5-0.8,5.1-1.2,10.3-1
			C66.2,163,70.1,163.9,69.5,164.6z"/>
		<path class="mnia78" d="M69.4,164.6c-0.6,0.8-5.2,1.2-10.2,1c-5.2-0.2-8.9-1-8.5-1.8c0.5-0.8,5.1-1.2,10.2-1S70,163.9,69.4,164.6z"
			/>
		<path class="mnia79" d="M69.4,164.6c-0.6,0.8-5.1,1.2-10.2,1c-5.1-0.2-8.9-1-8.4-1.8c0.5-0.8,5-1.2,10.2-1S69.9,163.9,69.4,164.6z"
			/>
		<path class="mnia80" d="M69.3,164.6c-0.6,0.8-5.1,1.2-10.1,1c-5.1-0.2-8.8-1-8.4-1.8c0.5-0.8,5-1.2,10.1-1S69.8,163.9,69.3,164.6z"
			/>
		<path class="mnia81" d="M69.2,164.6c-0.6,0.8-5.1,1.2-10,1c-5.1-0.2-8.8-1-8.3-1.8c0.5-0.8,5-1.2,10-1S69.7,163.9,69.2,164.6z"/>
		<path class="mnia82" d="M69.1,164.6c-0.6,0.8-5,1.2-10,1c-5-0.2-8.7-1-8.3-1.8s4.9-1.2,10-1C65.9,163,69.7,163.9,69.1,164.6z"/>
		<path class="mnia83" d="M69,164.6c-0.6,0.8-5,1.2-9.9,1c-5-0.2-8.7-1-8.2-1.8c0.5-0.8,4.9-1.2,9.9-1S69.6,163.9,69,164.6z"/>
		<path class="mnia84" d="M68.9,164.6c-0.6,0.8-5,1.2-9.9,1c-5-0.2-8.6-1-8.2-1.8c0.5-0.8,4.9-1.2,9.9-1S69.5,163.9,68.9,164.6z"/>
		<path class="mnia85" d="M68.9,164.6c-0.6,0.8-4.9,1.2-9.8,1c-4.9-0.2-8.6-1-8.1-1.7c0.5-0.7,4.9-1.2,9.8-1
			C65.7,163.1,69.4,163.9,68.9,164.6z"/>
		<path class="mnia86" d="M68.8,164.6c-0.6,0.8-4.9,1.2-9.7,1c-4.9-0.2-8.5-1-8.1-1.7c0.5-0.7,4.8-1.2,9.7-1S69.3,163.9,68.8,164.6z"
			/>
		<path class="mnia87" d="M68.7,164.6c-0.6,0.8-4.9,1.2-9.7,1c-4.9-0.2-8.5-1-8-1.7c0.5-0.7,4.8-1.2,9.7-1S69.2,163.9,68.7,164.6z"/>
		<path class="mnia88" d="M68.6,164.6c-0.6,0.8-4.9,1.2-9.6,1c-4.8-0.2-8.4-1-7.9-1.7c0.5-0.7,4.8-1.2,9.6-1
			C65.5,163.1,69.1,163.9,68.6,164.6z"/>
		<path class="mnia89" d="M68.5,164.6c-0.6,0.8-4.8,1.2-9.6,0.9c-4.8-0.2-8.4-1-7.9-1.7c0.5-0.7,4.7-1.2,9.6-0.9
			C65.5,163.1,69.1,163.9,68.5,164.6z"/>
		<path class="mnia90" d="M68.4,164.6c-0.6,0.8-4.8,1.2-9.5,0.9c-4.8-0.2-8.3-1-7.8-1.7c0.5-0.7,4.7-1.1,9.5-0.9
			C65.4,163.1,69,163.9,68.4,164.6z"/>
		<path class="mnia91" d="M68.4,164.6c-0.6,0.8-4.8,1.2-9.4,0.9c-4.8-0.2-8.2-1-7.8-1.7s4.7-1.1,9.4-0.9
			C65.3,163.1,68.9,163.9,68.4,164.6z"/>
		<path class="mnia92" d="M68.3,164.6c-0.6,0.8-4.7,1.1-9.4,0.9c-4.7-0.2-8.2-1-7.7-1.7s4.6-1.1,9.4-0.9
			C65.3,163.1,68.8,163.9,68.3,164.6z"/>
		<path class="mnia93" d="M68.2,164.6c-0.6,0.8-4.7,1.1-9.3,0.9c-4.7-0.2-8.1-0.9-7.7-1.7s4.6-1.1,9.3-0.9S68.7,163.9,68.2,164.6z"/>
		<path class="mnia94" d="M68.1,164.6c-0.6,0.8-4.7,1.1-9.2,0.9c-4.7-0.2-8.1-0.9-7.6-1.6s4.6-1.1,9.2-0.9
			C65.1,163.1,68.6,164,68.1,164.6z"/>
		<path class="mnia95" d="M68,164.6c-0.6,0.7-4.7,1.1-9.2,0.9c-4.6-0.2-8-0.9-7.6-1.6c0.4-0.7,4.6-1.1,9.2-0.9
			C65.1,163.2,68.5,164,68,164.6z"/>
		<path class="mnia96" d="M67.9,164.6c-0.6,0.7-4.6,1.1-9.1,0.9c-4.6-0.2-8-0.9-7.5-1.6c0.4-0.7,4.5-1.1,9.1-0.9S68.5,164,67.9,164.6z
			"/>
		<path class="mnia97" d="M67.9,164.6c-0.6,0.7-4.6,1.1-9.1,0.9c-4.6-0.2-7.9-0.9-7.5-1.6c0.4-0.7,4.5-1.1,9.1-0.9
			C64.9,163.2,68.4,164,67.9,164.6z"/>
		<path class="mnia98" d="M67.8,164.6c-0.6,0.7-4.6,1.1-9,0.9c-4.5-0.2-7.9-0.9-7.4-1.6c0.4-0.7,4.5-1.1,9-0.9
			C64.9,163.2,68.3,164,67.8,164.6z"/>
		<path class="mnia99" d="M67.7,164.6c-0.6,0.7-4.5,1.1-8.9,0.9c-4.5-0.2-7.8-0.9-7.4-1.6c0.4-0.7,4.4-1.1,8.9-0.9
			S68.2,164,67.7,164.6z"/>
		<path class="mnia100" d="M67.6,164.6c-0.6,0.7-4.5,1.1-8.9,0.9c-4.5-0.2-7.8-0.9-7.3-1.6c0.4-0.7,4.4-1.1,8.9-0.9
			C64.8,163.2,68.1,164,67.6,164.6z"/>
		<path class="mnia101" d="M67.5,164.6c-0.6,0.7-4.5,1.1-8.8,0.9c-4.4-0.2-7.7-0.9-7.3-1.6c0.4-0.7,4.4-1.1,8.8-0.9
			C64.7,163.2,68,164,67.5,164.6z"/>
		<path class="mnia102" d="M67.4,164.6c-0.6,0.7-4.5,1.1-8.8,0.9c-4.4-0.2-7.7-0.9-7.2-1.6s4.3-1.1,8.8-0.9S67.9,164,67.4,164.6z"/>
		<path class="mnia103" d="M67.4,164.6c-0.6,0.7-4.4,1.1-8.7,0.9c-4.4-0.2-7.6-0.9-7.2-1.6s4.3-1.1,8.7-0.9
			C64.6,163.2,67.9,164,67.4,164.6z"/>
		<path class="mnia104" d="M67.3,164.6c-0.6,0.7-4.4,1.1-8.6,0.9c-4.4-0.2-7.6-0.9-7.1-1.5c0.4-0.7,4.3-1,8.6-0.9
			C64.5,163.2,67.8,164,67.3,164.6z"/>
		<path class="mnia105" d="M67.2,164.6c-0.6,0.7-4.4,1.1-8.6,0.8c-4.3-0.2-7.5-0.9-7.1-1.5s4.2-1,8.6-0.8
			C64.4,163.2,67.7,164,67.2,164.6z"/>
		<path class="mnia106" d="M67.1,164.6c-0.6,0.7-4.3,1-8.5,0.8c-4.3-0.2-7.4-0.9-7-1.5s4.2-1,8.5-0.8C64.4,163.2,67.6,164,67.1,164.6z
			"/>
		<path class="mnia107" d="M67,164.6c-0.6,0.7-4.3,1-8.5,0.8c-4.3-0.2-7.4-0.9-7-1.5s4.2-1,8.5-0.8C64.3,163.3,67.5,164,67,164.6z"/>
		<path class="mnia108" d="M66.9,164.6c-0.6,0.7-4.3,1-8.4,0.8c-4.2-0.2-7.3-0.9-6.9-1.5c0.4-0.6,4.2-1,8.4-0.8
			C64.2,163.3,67.4,164,66.9,164.6z"/>
		<path class="mnia109" d="M66.9,164.6c-0.6,0.7-4.3,1-8.3,0.8c-4.2-0.2-7.3-0.9-6.9-1.5c0.4-0.6,4.1-1,8.3-0.8
			C64.2,163.3,67.3,164,66.9,164.6z"/>
		<path class="mnia110" d="M66.8,164.6c-0.6,0.7-4.2,1-8.3,0.8c-4.2-0.2-7.2-0.8-6.8-1.5c0.4-0.6,4.1-1,8.3-0.8
			C64.1,163.3,67.3,164,66.8,164.6z"/>
		<path class="mnia111" d="M66.7,164.6c-0.6,0.7-4.2,1-8.2,0.8c-4.1-0.2-7.2-0.8-6.8-1.5c0.4-0.6,4.1-1,8.2-0.8S67.2,164,66.7,164.6z"
			/>
		<path class="mnia112" d="M66.6,164.6c-0.6,0.7-4.2,1-8.1,0.8c-4.1-0.2-7.1-0.8-6.7-1.5c0.4-0.6,4-1,8.1-0.8
			C64,163.3,67.1,164,66.6,164.6z"/>
		<path class="mnia113" d="M66.5,164.6c-0.6,0.7-4.1,1-8.1,0.8c-4.1-0.2-7.1-0.8-6.7-1.5c0.4-0.6,4-1,8.1-0.8
			C63.9,163.3,67,164,66.5,164.6z"/>
		<path class="mnia114" d="M66.4,164.6c-0.6,0.7-4.1,1-8,0.8c-4-0.2-7-0.8-6.6-1.4s4-1,8-0.8S66.9,164,66.4,164.6z"/>
		<path class="mnia115" d="M66.4,164.6c-0.6,0.7-4.1,1-8,0.8c-4-0.2-7-0.8-6.6-1.4s3.9-1,8-0.8C63.8,163.3,66.8,164,66.4,164.6z"/>
		<path class="mnia116" d="M66.3,164.6c-0.6,0.7-4,1-7.9,0.8c-4-0.2-6.9-0.8-6.5-1.4c0.4-0.6,3.9-1,7.9-0.8
			C63.7,163.3,66.7,164,66.3,164.6z"/>
		<path class="mnia117" d="M66.2,164.6c-0.6,0.7-4,1-7.8,0.8c-4-0.2-6.9-0.8-6.5-1.4c0.4-0.6,3.9-1,7.8-0.8S66.7,164.1,66.2,164.6z"/>
		<path class="mnia118" d="M66.1,164.6c-0.6,0.7-4,1-7.8,0.8c-3.9-0.2-6.8-0.8-6.4-1.4c0.4-0.6,3.9-0.9,7.8-0.8
			C63.6,163.3,66.6,164.1,66.1,164.6z"/>
		<path class="mnia119" d="M66,164.6c-0.6,0.6-4,1-7.7,0.8c-3.9-0.2-6.8-0.8-6.4-1.4c0.4-0.6,3.8-0.9,7.7-0.8
			C63.5,163.4,66.5,164.1,66,164.6z"/>
		<path class="mnia120" d="M65.9,164.6c-0.6,0.6-3.9,0.9-7.7,0.8c-3.9-0.2-6.7-0.8-6.3-1.4c0.4-0.6,3.8-0.9,7.7-0.8
			S66.4,164.1,65.9,164.6z"/>
		<path class="mnia121" d="M65.9,164.6c-0.6,0.6-3.9,0.9-7.6,0.7c-3.8-0.2-6.6-0.8-6.3-1.4c0.4-0.6,3.8-0.9,7.6-0.7
			C63.4,163.4,66.3,164.1,65.9,164.6z"/>
		<path class="mnia122" d="M65.8,164.6c-0.6,0.6-3.9,0.9-7.5,0.7c-3.8-0.2-6.6-0.8-6.2-1.4c0.4-0.6,3.7-0.9,7.5-0.7
			C63.3,163.4,66.2,164.1,65.8,164.6z"/>
		<path class="mnia123" d="M65.7,164.6c-0.6,0.6-3.8,0.9-7.5,0.7c-3.8-0.2-6.5-0.8-6.2-1.4s3.7-0.9,7.5-0.7
			C63.3,163.4,66.1,164.1,65.7,164.6z"/>
		<path class="mnia124" d="M65.6,164.6c-0.6,0.6-3.8,0.9-7.4,0.7c-3.7-0.2-6.5-0.8-6.1-1.3c0.4-0.6,3.7-0.9,7.4-0.7
			C63.2,163.4,66.1,164.1,65.6,164.6z"/>
		<path class="mnia125" d="M65.5,164.6c-0.6,0.6-3.8,0.9-7.4,0.7c-3.7-0.2-6.4-0.8-6.1-1.3c0.4-0.6,3.6-0.9,7.4-0.7
			C63.2,163.4,66,164.1,65.5,164.6z"/>
		<path class="mnia126" d="M65.4,164.6c-0.6,0.6-3.8,0.9-7.3,0.7c-3.7-0.2-6.4-0.8-6-1.3c0.3-0.6,3.6-0.9,7.3-0.7
			C63.1,163.4,65.9,164.1,65.4,164.6z"/>
		<path class="mnia127" d="M65.4,164.6c-0.6,0.6-3.7,0.9-7.2,0.7c-3.6-0.2-6.3-0.8-6-1.3c0.3-0.6,3.6-0.9,7.2-0.7
			C63,163.4,65.8,164.1,65.4,164.6z"/>
		<path class="mnia128" d="M65.3,164.6c-0.6,0.6-3.7,0.9-7.2,0.7c-3.6-0.2-6.3-0.7-5.9-1.3c0.3-0.6,3.6-0.9,7.2-0.7
			C63,163.4,65.7,164.1,65.3,164.6z"/>
		<path class="mnia129" d="M65.2,164.6c-0.6,0.6-3.7,0.9-7.1,0.7c-3.6-0.2-6.2-0.7-5.9-1.3c0.3-0.5,3.5-0.9,7.1-0.7
			S65.6,164.1,65.2,164.6z"/>
		<path class="mnia130" d="M65.1,164.6c-0.6,0.6-3.6,0.9-7.1,0.7c-3.6-0.2-6.2-0.7-5.8-1.3s3.5-0.9,7.1-0.7
			C62.8,163.4,65.5,164.1,65.1,164.6z"/>
		<path class="mnia131" d="M65,164.6c-0.6,0.6-3.6,0.9-7,0.7c-3.5-0.2-6.1-0.7-5.8-1.3s3.5-0.8,7-0.7C62.8,163.5,65.5,164.1,65,164.6z
			"/>
		<path class="mnia132" d="M64.9,164.6c-0.6,0.6-3.6,0.9-6.9,0.7c-3.5-0.2-6.1-0.7-5.7-1.3s3.4-0.8,6.9-0.7S65.4,164.1,64.9,164.6z"/>
		<path class="mnia133" d="M64.9,164.6c-0.6,0.6-3.6,0.9-6.9,0.7c-3.5-0.2-6-0.7-5.7-1.2c0.3-0.5,3.4-0.8,6.9-0.7
			S65.3,164.1,64.9,164.6z"/>
		<path class="mnia134" d="M64.8,164.6c-0.6,0.6-3.5,0.8-6.8,0.7c-3.4-0.2-6-0.7-5.6-1.2c0.3-0.5,3.4-0.8,6.8-0.7
			S65.2,164.1,64.8,164.6z"/>
		<path class="mnia135" d="M64.7,164.6c-0.6,0.6-3.5,0.8-6.7,0.7c-3.4-0.2-5.9-0.7-5.6-1.2c0.3-0.5,3.3-0.8,6.7-0.7
			S65.1,164.1,64.7,164.6z"/>
		<path class="mnia136" d="M64.6,164.6c-0.6,0.6-3.5,0.8-6.7,0.7c-3.4-0.2-5.8-0.7-5.5-1.2c0.3-0.5,3.3-0.8,6.7-0.7
			S65,164.1,64.6,164.6z"/>
		<path class="mnia137" d="M64.5,164.6c-0.6,0.6-3.4,0.8-6.6,0.6c-3.3-0.2-5.8-0.7-5.5-1.2c0.3-0.5,3.3-0.8,6.6-0.6
			S64.9,164.1,64.5,164.6z"/>
		<path class="mnia138" d="M64.4,164.6c-0.6,0.6-3.4,0.8-6.6,0.6c-3.3-0.2-5.7-0.7-5.4-1.2c0.3-0.5,3.3-0.8,6.6-0.6
			C62.3,163.5,64.9,164.1,64.4,164.6z"/>
		<path class="mnia139" d="M64.4,164.6c-0.6,0.6-3.4,0.8-6.5,0.6c-3.3-0.2-5.7-0.7-5.4-1.2c0.3-0.5,3.2-0.8,6.5-0.6
			S64.8,164.1,64.4,164.6z"/>
		<path class="mnia140" d="M64.3,164.6c-0.6,0.6-3.3,0.8-6.4,0.6c-3.2-0.2-5.6-0.7-5.3-1.2c0.3-0.5,3.2-0.8,6.4-0.6
			S64.7,164.1,64.3,164.6z"/>
		<path class="mnia141" d="M64.2,164.6c-0.5,0.6-3.3,0.8-6.4,0.6c-3.2-0.2-5.6-0.7-5.3-1.2c0.3-0.5,3.2-0.8,6.4-0.6
			C62.1,163.5,64.6,164.2,64.2,164.6z"/>
		<path class="mnia142" d="M64.1,164.6c-0.5,0.6-3.3,0.8-6.3,0.6c-3.2-0.2-5.5-0.7-5.2-1.2c0.3-0.5,3.1-0.8,6.3-0.6
			C62.1,163.5,64.5,164.2,64.1,164.6z"/>
		<path class="mnia142" d="M64,164.6c-0.5,0.5-3.3,0.8-6.3,0.6c-3.2-0.2-5.5-0.7-5.2-1.1c0.3-0.5,3.1-0.8,6.3-0.6
			C62,163.6,64.4,164.2,64,164.6z"/>
		<path class="mnia143" d="M63.9,164.6c-0.5,0.5-3.2,0.8-6.2,0.6c-3.1-0.2-5.4-0.7-5.1-1.1c0.3-0.5,3.1-0.8,6.2-0.6
			C61.9,163.6,64.3,164.2,63.9,164.6z"/>
		<path class="mnia144" d="M63.9,164.6c-0.5,0.5-3.2,0.8-6.1,0.6c-3.1-0.2-5.4-0.6-5.1-1.1c0.3-0.5,3-0.7,6.1-0.6
			C61.9,163.6,64.2,164.2,63.9,164.6z"/>
		<path class="mnia145" d="M63.8,164.6c-0.5,0.5-3.2,0.8-6.1,0.6c-3.1-0.2-5.3-0.6-5-1.1c0.3-0.5,3-0.7,6.1-0.6
			C61.8,163.6,64.2,164.2,63.8,164.6z"/>
		<path class="mnia146" d="M63.7,164.6c-0.5,0.5-3.1,0.8-6,0.6c-3-0.2-5.3-0.6-5-1.1c0.3-0.5,3-0.7,6-0.6S64.1,164.2,63.7,164.6z"/>
		<path class="mnia147" d="M63.6,164.6c-0.5,0.5-3.1,0.7-6,0.6c-3-0.2-5.2-0.6-4.9-1.1c0.3-0.5,3-0.7,6-0.6
			C61.7,163.6,64,164.2,63.6,164.6z"/>
		<path class="mnia148" d="M63.5,164.6c-0.5,0.5-3.1,0.7-5.9,0.6c-3-0.2-5.2-0.6-4.9-1.1c0.3-0.5,2.9-0.7,5.9-0.6
			C61.6,163.6,63.9,164.2,63.5,164.6z"/>
		<path class="mnia149" d="M63.4,164.5c-0.5,0.5-3.1,0.7-5.8,0.6c-2.9-0.2-5.1-0.6-4.8-1.1c0.3-0.5,2.9-0.7,5.8-0.6
			S63.8,164.2,63.4,164.5z"/>
		<path class="mnia150" d="M63.4,164.5c-0.5,0.5-3,0.7-5.8,0.6c-2.9-0.2-5-0.6-4.8-1.1c0.3-0.4,2.9-0.7,5.8-0.6S63.7,164.2,63.4,164.5
			z"/>
		<path class="mnia150" d="M63.3,164.5c-0.5,0.5-3,0.7-5.7,0.6c-2.9-0.2-5-0.6-4.7-1.1c0.3-0.4,2.8-0.7,5.7-0.6
			C61.4,163.6,63.6,164.2,63.3,164.5z"/>
		<path class="mnia151" d="M63.2,164.5c-0.5,0.5-3,0.7-5.6,0.6c-2.8-0.2-4.9-0.6-4.7-1c0.3-0.4,2.8-0.7,5.7-0.6S63.6,164.2,63.2,164.5
			z"/>
		<path class="mnia151" d="M63.1,164.5c-0.5,0.5-2.9,0.7-5.6,0.5c-2.8-0.2-4.9-0.6-4.6-1c0.3-0.4,2.8-0.7,5.6-0.5
			C61.3,163.6,63.5,164.2,63.1,164.5z"/>
		<path class="mnia152" d="M63,164.5c-0.5,0.5-2.9,0.7-5.5,0.5c-2.8-0.2-4.8-0.6-4.6-1c0.3-0.4,2.7-0.7,5.5-0.5
			C61.2,163.7,63.4,164.2,63,164.5z"/>
		<path class="mnia153" d="M62.9,164.5c-0.5,0.5-2.9,0.7-5.5,0.5c-2.8-0.2-4.8-0.6-4.5-1c0.3-0.4,2.7-0.7,5.5-0.5
			C61.2,163.7,63.3,164.2,62.9,164.5z"/>
		<path class="mnia154" d="M62.9,164.5c-0.5,0.5-2.9,0.7-5.4,0.5c-2.7-0.2-4.7-0.6-4.5-1c0.3-0.4,2.7-0.7,5.4-0.5
			C61.1,163.7,63.2,164.2,62.9,164.5z"/>
		<path class="mnia155" d="M62.8,164.5c-0.5,0.5-2.8,0.7-5.3,0.5c-2.7-0.2-4.7-0.6-4.4-1c0.3-0.4,2.6-0.7,5.3-0.5
			C61.1,163.7,63.1,164.2,62.8,164.5z"/>
		<path class="mnia156" d="M62.7,164.5c-0.5,0.5-2.8,0.7-5.3,0.5c-2.7-0.2-4.6-0.6-4.4-1s2.6-0.6,5.3-0.5
			C61,163.7,63,164.2,62.7,164.5z"/>
		<path class="mnia157" d="M62.6,164.5c-0.5,0.5-2.8,0.7-5.2,0.5c-2.6-0.2-4.6-0.6-4.3-1s2.6-0.6,5.2-0.5
			C60.9,163.7,63,164.2,62.6,164.5z"/>
		<path class="mnia158" d="M62.5,164.5c-0.5,0.5-2.7,0.7-5.2,0.5c-2.6-0.2-4.5-0.6-4.3-1c0.2-0.4,2.6-0.6,5.2-0.5
			C60.9,163.7,62.9,164.2,62.5,164.5z"/>
		<path class="mnia159" d="M62.4,164.5c-0.5,0.5-2.7,0.6-5.1,0.5c-2.6-0.2-4.5-0.6-4.2-1c0.2-0.4,2.5-0.6,5.1-0.5
			C60.8,163.7,62.8,164.2,62.4,164.5z"/>
		<path class="mnia159" d="M62.4,164.5c-0.5,0.5-2.7,0.6-5,0.5c-2.5-0.2-4.4-0.5-4.2-0.9c0.2-0.4,2.5-0.6,5-0.5
			C60.7,163.7,62.7,164.2,62.4,164.5z"/>
		<path class="mnia160" d="M62.3,164.5c-0.5,0.5-2.6,0.6-5,0.5c-2.5-0.2-4.4-0.5-4.1-0.9c0.2-0.4,2.5-0.6,5-0.5
			C60.7,163.7,62.6,164.2,62.3,164.5z"/>
		<path class="mnia160" d="M62.2,164.5c-0.5,0.5-2.6,0.6-4.9,0.5c-2.5-0.2-4.3-0.5-4.1-0.9c0.2-0.4,2.4-0.6,4.9-0.5
			C60.6,163.7,62.5,164.3,62.2,164.5z"/>
		<path class="mnia161" d="M62.1,164.5c-0.5,0.4-2.6,0.6-4.9,0.5c-2.4-0.2-4.2-0.5-4-0.9c0.2-0.4,2.4-0.6,4.9-0.5
			C60.5,163.7,62.4,164.3,62.1,164.5z"/>
		<path class="mnia161" d="M62,164.5c-0.5,0.4-2.6,0.6-4.8,0.5c-2.4-0.2-4.2-0.5-4-0.9s2.4-0.6,4.8-0.5
			C60.5,163.8,62.4,164.3,62,164.5z"/>
		<path class="mnia162" d="M61.9,164.5c-0.5,0.4-2.5,0.6-4.7,0.5c-2.4-0.2-4.1-0.5-3.9-0.9s2.3-0.6,4.7-0.5
			C60.4,163.8,62.3,164.3,61.9,164.5z"/>
		<path class="mnia163" d="M61.9,164.5c-0.5,0.4-2.5,0.6-4.7,0.5c-2.4-0.2-4.1-0.5-3.9-0.9s2.3-0.6,4.7-0.5
			C60.4,163.8,62.2,164.3,61.9,164.5z"/>
		<path class="mnia164" d="M61.8,164.5c-0.5,0.4-2.5,0.6-4.6,0.4c-2.3-0.2-4-0.5-3.8-0.9c0.2-0.4,2.3-0.6,4.6-0.4
			C60.3,163.8,62.1,164.3,61.8,164.5z"/>
		<path class="mnia165" d="M61.7,164.5c-0.5,0.4-2.4,0.6-4.6,0.4c-2.3-0.2-4-0.5-3.8-0.9c0.2-0.4,2.3-0.6,4.6-0.4
			C60.2,163.8,62,164.3,61.7,164.5z"/>
		<path class="mnia166" d="M61.6,164.5c-0.5,0.4-2.4,0.6-4.5,0.4c-2.3-0.2-3.9-0.5-3.7-0.8s2.2-0.5,4.5-0.4
			C60.2,163.8,61.9,164.3,61.6,164.5z"/>
		<path class="mnia167" d="M61.5,164.5c-0.5,0.4-2.4,0.6-4.4,0.4c-2.2-0.2-3.9-0.5-3.7-0.8c0.2-0.3,2.2-0.5,4.4-0.4
			C60.1,163.8,61.8,164.3,61.5,164.5z"/>
		<path class="mnia167" d="M61.4,164.5c-0.5,0.4-2.4,0.6-4.4,0.4c-2.2-0.2-3.8-0.5-3.6-0.8c0.2-0.3,2.2-0.5,4.4-0.4
			C60,163.8,61.8,164.3,61.4,164.5z"/>
		<path class="mnia168" d="M61.4,164.5c-0.5,0.4-2.3,0.6-4.3,0.4c-2.2-0.2-3.8-0.5-3.6-0.8c0.2-0.3,2.1-0.5,4.3-0.4
			C60,163.8,61.7,164.3,61.4,164.5z"/>
		<path class="mnia168" d="M61.3,164.5c-0.5,0.4-2.3,0.5-4.2,0.4c-2.1-0.2-3.7-0.5-3.5-0.8c0.2-0.3,2.1-0.5,4.2-0.4
			C59.9,163.8,61.6,164.3,61.3,164.5z"/>
		<path class="mnia169" d="M61.2,164.5c-0.5,0.4-2.3,0.5-4.2,0.4c-2.1-0.2-3.7-0.5-3.5-0.8s2.1-0.5,4.2-0.4
			C59.8,163.8,61.5,164.3,61.2,164.5z"/>
		<path class="mnia170" d="M61.1,164.5c-0.5,0.4-2.2,0.5-4.1,0.4c-2.1-0.2-3.6-0.5-3.4-0.8c0.2-0.3,2-0.5,4.1-0.4
			C59.8,163.8,61.4,164.3,61.1,164.5z"/>
		<path class="mnia171" d="M61,164.5c-0.5,0.4-2.2,0.5-4.1,0.4c-2-0.2-3.6-0.5-3.4-0.8c0.2-0.3,2-0.5,4.1-0.4
			C59.7,163.9,61.3,164.3,61,164.5z"/>
		<path class="mnia172" d="M60.9,164.5c-0.5,0.4-2.2,0.5-4,0.4c-2-0.2-3.5-0.4-3.3-0.8s2-0.5,4-0.4S61.2,164.3,60.9,164.5z"/>
		<path class="mnia173" d="M60.9,164.5c-0.5,0.4-2.2,0.5-3.9,0.4c-2-0.1-3.4-0.4-3.3-0.8s2-0.5,3.9-0.4
			C59.6,163.9,61.1,164.3,60.9,164.5z"/>
		<path class="mnia174" d="M60.8,164.5c-0.5,0.4-2.1,0.5-3.9,0.4c-2-0.1-3.4-0.4-3.2-0.7s1.9-0.5,3.9-0.4
			C59.5,163.9,61.1,164.3,60.8,164.5z"/>
		<path class="mnia174" d="M60.7,164.5c-0.5,0.4-2.1,0.5-3.8,0.4c-1.9-0.1-3.3-0.4-3.2-0.7c0.2-0.3,1.9-0.5,3.8-0.4
			S61,164.3,60.7,164.5z"/>
		<path class="mnia175" d="M60.6,164.5c-0.5,0.4-2.1,0.5-3.8,0.4c-1.9-0.1-3.3-0.4-3.1-0.7s1.9-0.5,3.8-0.4S60.9,164.3,60.6,164.5z"/>
		<path class="mnia175" d="M60.5,164.5c-0.5,0.4-2,0.5-3.7,0.4c-1.9-0.1-3.2-0.4-3.1-0.7s1.8-0.5,3.7-0.4
			C59.3,163.9,60.8,164.3,60.5,164.5z"/>
		<path class="mnia176" d="M60.4,164.5c-0.5,0.3-2,0.5-3.6,0.3c-1.8-0.1-3.2-0.4-3-0.7c0.2-0.3,1.8-0.4,3.6-0.3S60.7,164.3,60.4,164.5
			z"/>
		<path class="mnia177" d="M60.4,164.5c-0.5,0.3-2,0.5-3.6,0.3c-1.8-0.1-3.1-0.4-3-0.7c0.2-0.3,1.8-0.4,3.6-0.3S60.6,164.3,60.4,164.5
			z"/>
		<path class="mnia178" d="M60.3,164.5c-0.5,0.3-2,0.5-3.5,0.3c-1.8-0.1-3.1-0.4-2.9-0.7c0.2-0.3,1.7-0.4,3.5-0.3
			C59.1,163.9,60.5,164.3,60.3,164.5z"/>
		<path class="mnia179" d="M60.2,164.5c-0.5,0.3-1.9,0.5-3.5,0.3c-1.7-0.1-3-0.4-2.9-0.7s1.7-0.4,3.5-0.3
			C59.1,163.9,60.5,164.3,60.2,164.5z"/>
		<path class="mnia180" d="M60.1,164.5c-0.5,0.3-1.9,0.4-3.4,0.3c-1.7-0.1-3-0.4-2.8-0.7c0.2-0.3,1.7-0.4,3.4-0.3
			S60.4,164.3,60.1,164.5z"/>
		<path class="mnia181" d="M60,164.5c-0.5,0.3-1.9,0.4-3.3,0.3c-1.7-0.1-2.9-0.4-2.8-0.7c0.2-0.3,1.7-0.4,3.3-0.3
			C59,164,60.3,164.4,60,164.5z"/>
		<path class="mnia182" d="M59.9,164.5c-0.5,0.3-1.8,0.4-3.3,0.3c-1.6-0.1-2.9-0.4-2.7-0.6s1.6-0.4,3.3-0.3
			C58.9,164,60.2,164.4,59.9,164.5z"/>
		<path class="mnia183" d="M59.9,164.5c-0.5,0.3-1.8,0.4-3.2,0.3c-1.6-0.1-2.8-0.4-2.7-0.6c0.2-0.3,1.6-0.4,3.2-0.3
			C58.8,164,60.1,164.4,59.9,164.5z"/>
		<path class="mnia183" d="M59.8,164.5c-0.5,0.3-1.8,0.4-3.2,0.3c-1.6-0.1-2.8-0.4-2.6-0.6s1.6-0.4,3.2-0.3
			C58.8,164,60,164.4,59.8,164.5z"/>
		<path class="mnia184" d="M59.7,164.5c-0.5,0.3-1.7,0.4-3.1,0.3c-1.6-0.1-2.7-0.4-2.5-0.6c0.1-0.2,1.5-0.4,3.1-0.3
			C58.7,164,59.9,164.4,59.7,164.5z"/>
	</g>
	<g>
		<g>
			
				<ellipse transform="matrix(2.689626e-02 -0.9996 0.9996 2.689626e-02 -52.1197 258.7792)" class="mnia4" cx="106.9" cy="156.2" rx="7.9" ry="51.4"/>
			
				<ellipse transform="matrix(2.694130e-02 -0.9996 0.9996 2.694130e-02 -52.1739 258.7408)" class="mnia5" cx="106.8" cy="156.2" rx="7.8" ry="51.3"/>
			
				<ellipse transform="matrix(2.698654e-02 -0.9996 0.9996 2.698654e-02 -52.2281 258.7024)" class="mnia6" cx="106.8" cy="156.2" rx="7.8" ry="51.2"/>
			
				<ellipse transform="matrix(2.703196e-02 -0.9996 0.9996 2.703196e-02 -52.2823 258.6639)" class="mnia7" cx="106.7" cy="156.2" rx="7.8" ry="51.1"/>
			
				<ellipse transform="matrix(2.707757e-02 -0.9996 0.9996 2.707757e-02 -52.3365 258.6254)" class="mnia8" cx="106.7" cy="156.2" rx="7.7" ry="51"/>
			
				<ellipse transform="matrix(2.712338e-02 -0.9996 0.9996 2.712338e-02 -52.3908 258.5868)" class="mnia9" cx="106.7" cy="156.2" rx="7.7" ry="50.9"/>
			
				<ellipse transform="matrix(2.716937e-02 -0.9996 0.9996 2.716937e-02 -52.445 258.5482)" class="mnia10" cx="106.6" cy="156.2" rx="7.7" ry="50.8"/>
			
				<ellipse transform="matrix(2.721557e-02 -0.9996 0.9996 2.721557e-02 -52.4993 258.5096)" class="mnia11" cx="106.6" cy="156.2" rx="7.7" ry="50.7"/>
			
				<ellipse transform="matrix(2.726196e-02 -0.9996 0.9996 2.726196e-02 -52.5536 258.471)" class="mnia12" cx="106.5" cy="156.2" rx="7.6" ry="50.6"/>
			
				<ellipse transform="matrix(2.730855e-02 -0.9996 0.9996 2.730855e-02 -52.6079 258.4323)" class="mnia13" cx="106.5" cy="156.2" rx="7.6" ry="50.4"/>
			
				<ellipse transform="matrix(2.735533e-02 -0.9996 0.9996 2.735533e-02 -52.6623 258.3936)" class="mnia14" cx="106.4" cy="156.3" rx="7.6" ry="50.3"/>
			
				<ellipse transform="matrix(2.740232e-02 -0.9996 0.9996 2.740232e-02 -52.7166 258.3549)" class="mnia15" cx="106.4" cy="156.3" rx="7.5" ry="50.2"/>
			
				<ellipse transform="matrix(2.744951e-02 -0.9996 0.9996 2.744951e-02 -52.771 258.3161)" class="mnia16" cx="106.4" cy="156.3" rx="7.5" ry="50.1"/>
			
				<ellipse transform="matrix(2.749690e-02 -0.9996 0.9996 2.749690e-02 -52.8254 258.2773)" class="mnia17" cx="106.3" cy="156.3" rx="7.5" ry="50"/>
			
				<ellipse transform="matrix(2.754449e-02 -0.9996 0.9996 2.754449e-02 -52.8798 258.2385)" class="mnia17" cx="106.3" cy="156.3" rx="7.5" ry="49.9"/>
			
				<ellipse transform="matrix(2.759229e-02 -0.9996 0.9996 2.759229e-02 -52.9342 258.1996)" class="mnia18" cx="106.2" cy="156.3" rx="7.4" ry="49.8"/>
			
				<ellipse transform="matrix(2.764030e-02 -0.9996 0.9996 2.764030e-02 -52.9886 258.1607)" class="mnia19" cx="106.2" cy="156.3" rx="7.4" ry="49.7"/>
			
				<ellipse transform="matrix(2.768851e-02 -0.9996 0.9996 2.768851e-02 -53.043 258.1218)" class="mnia20" cx="106.2" cy="156.3" rx="7.4" ry="49.6"/>
			
				<ellipse transform="matrix(2.773693e-02 -0.9996 0.9996 2.773693e-02 -53.0975 258.0828)" class="mnia21" cx="106.1" cy="156.3" rx="7.3" ry="49.5"/>
			
				<ellipse transform="matrix(2.778556e-02 -0.9996 0.9996 2.778556e-02 -53.152 258.0438)" class="mnia22" cx="106.1" cy="156.3" rx="7.3" ry="49.3"/>
			
				<ellipse transform="matrix(2.783441e-02 -0.9996 0.9996 2.783441e-02 -53.2065 258.0047)" class="mnia23" cx="106" cy="156.4" rx="7.3" ry="49.2"/>
			
				<ellipse transform="matrix(2.788347e-02 -0.9996 0.9996 2.788347e-02 -53.261 257.9656)" class="mnia24" cx="106" cy="156.4" rx="7.3" ry="49.1"/>
			
				<ellipse transform="matrix(2.793274e-02 -0.9996 0.9996 2.793274e-02 -53.3155 257.9265)" class="mnia25" cx="106" cy="156.4" rx="7.2" ry="49"/>
			
				<ellipse transform="matrix(2.798223e-02 -0.9996 0.9996 2.798223e-02 -53.3701 257.8874)" class="mnia25" cx="105.9" cy="156.4" rx="7.2" ry="48.9"/>
			
				<ellipse transform="matrix(2.803194e-02 -0.9996 0.9996 2.803194e-02 -53.4246 257.8482)" class="mnia26" cx="105.9" cy="156.4" rx="7.2" ry="48.8"/>
			
				<ellipse transform="matrix(2.808187e-02 -0.9996 0.9996 2.808187e-02 -53.4792 257.809)" class="mnia26" cx="105.8" cy="156.4" rx="7.2" ry="48.7"/>
			
				<ellipse transform="matrix(2.813201e-02 -0.9996 0.9996 2.813201e-02 -53.5338 257.7697)" class="mnia27" cx="105.8" cy="156.4" rx="7.1" ry="48.6"/>
			
				<ellipse transform="matrix(2.818238e-02 -0.9996 0.9996 2.818238e-02 -53.5885 257.7304)" class="mnia28" cx="105.8" cy="156.4" rx="7.1" ry="48.5"/>
			
				<ellipse transform="matrix(2.823298e-02 -0.9996 0.9996 2.823298e-02 -53.6431 257.6911)" class="mnia29" cx="105.7" cy="156.4" rx="7.1" ry="48.3"/>
			
				<ellipse transform="matrix(2.828380e-02 -0.9996 0.9996 2.828380e-02 -53.6978 257.6517)" class="mnia30" cx="105.7" cy="156.4" rx="7" ry="48.2"/>
			
				<ellipse transform="matrix(2.833484e-02 -0.9996 0.9996 2.833484e-02 -53.7524 257.6123)" class="mnia31" cx="105.6" cy="156.5" rx="7" ry="48.1"/>
			
				<ellipse transform="matrix(2.838611e-02 -0.9996 0.9996 2.838611e-02 -53.8071 257.5729)" class="mnia32" cx="105.6" cy="156.5" rx="7" ry="48"/>
			
				<ellipse transform="matrix(2.843762e-02 -0.9996 0.9996 2.843762e-02 -53.8618 257.5334)" class="mnia32" cx="105.6" cy="156.5" rx="7" ry="47.9"/>
			
				<ellipse transform="matrix(2.848935e-02 -0.9996 0.9996 2.848935e-02 -53.9166 257.4939)" class="mnia33" cx="105.5" cy="156.5" rx="6.9" ry="47.8"/>
			
				<ellipse transform="matrix(2.854132e-02 -0.9996 0.9996 2.854132e-02 -53.9713 257.4543)" class="mnia33" cx="105.5" cy="156.5" rx="6.9" ry="47.7"/>
			
				<ellipse transform="matrix(2.859352e-02 -0.9996 0.9996 2.859352e-02 -54.0261 257.4147)" class="mnia34" cx="105.4" cy="156.5" rx="6.9" ry="47.6"/>
			
				<ellipse transform="matrix(2.864596e-02 -0.9996 0.9996 2.864596e-02 -54.0809 257.3751)" class="mnia34" cx="105.4" cy="156.5" rx="6.8" ry="47.5"/>
			
				<ellipse transform="matrix(2.869863e-02 -0.9996 0.9996 2.869863e-02 -54.1357 257.3354)" class="mnia35" cx="105.3" cy="156.5" rx="6.8" ry="47.3"/>
			
				<ellipse transform="matrix(2.875155e-02 -0.9996 0.9996 2.875155e-02 -54.1905 257.2957)" class="mnia36" cx="105.3" cy="156.5" rx="6.8" ry="47.2"/>
			
				<ellipse transform="matrix(2.880470e-02 -0.9996 0.9996 2.880470e-02 -54.2453 257.2559)" class="mnia37" cx="105.3" cy="156.5" rx="6.8" ry="47.1"/>
			
				<ellipse transform="matrix(2.885810e-02 -0.9996 0.9996 2.885810e-02 -54.3002 257.2161)" class="mnia38" cx="105.2" cy="156.6" rx="6.7" ry="47"/>
			
				<ellipse transform="matrix(2.891175e-02 -0.9996 0.9996 2.891175e-02 -54.3551 257.1763)" class="mnia39" cx="105.2" cy="156.6" rx="6.7" ry="46.9"/>
			
				<ellipse transform="matrix(2.896563e-02 -0.9996 0.9996 2.896563e-02 -54.41 257.1364)" class="mnia40" cx="105.1" cy="156.6" rx="6.7" ry="46.8"/>
			
				<ellipse transform="matrix(2.901977e-02 -0.9996 0.9996 2.901977e-02 -54.4649 257.0965)" class="mnia40" cx="105.1" cy="156.6" rx="6.6" ry="46.7"/>
			
				<ellipse transform="matrix(2.907416e-02 -0.9996 0.9996 2.907416e-02 -54.5199 257.0565)" class="mnia41" cx="105.1" cy="156.6" rx="6.6" ry="46.6"/>
			
				<ellipse transform="matrix(2.912880e-02 -0.9996 0.9996 2.912880e-02 -54.5748 257.0166)" class="mnia41" cx="105" cy="156.6" rx="6.6" ry="46.5"/>
			
				<ellipse transform="matrix(2.918369e-02 -0.9996 0.9996 2.918369e-02 -54.6298 256.9765)" class="mnia42" cx="105" cy="156.6" rx="6.6" ry="46.3"/>
			
				<ellipse transform="matrix(2.923883e-02 -0.9996 0.9996 2.923883e-02 -54.6848 256.9364)" class="mnia42" cx="104.9" cy="156.6" rx="6.5" ry="46.2"/>
			
				<ellipse transform="matrix(2.929424e-02 -0.9996 0.9996 2.929424e-02 -54.7399 256.8963)" class="mnia43" cx="104.9" cy="156.6" rx="6.5" ry="46.1"/>
			
				<ellipse transform="matrix(2.934990e-02 -0.9996 0.9996 2.934990e-02 -54.7949 256.8561)" class="mnia44" cx="104.9" cy="156.6" rx="6.5" ry="46"/>
			
				<ellipse transform="matrix(2.940582e-02 -0.9996 0.9996 2.940582e-02 -54.85 256.8159)" class="mnia45" cx="104.8" cy="156.7" rx="6.5" ry="45.9"/>
			
				<ellipse transform="matrix(2.946200e-02 -0.9996 0.9996 2.946200e-02 -54.9051 256.7757)" class="mnia46" cx="104.8" cy="156.7" rx="6.4" ry="45.8"/>
			
				<ellipse transform="matrix(2.951845e-02 -0.9996 0.9996 2.951845e-02 -54.9602 256.7354)" class="mnia47" cx="104.7" cy="156.7" rx="6.4" ry="45.7"/>
			
				<ellipse transform="matrix(2.957516e-02 -0.9996 0.9996 2.957516e-02 -55.0153 256.6951)" class="mnia48" cx="104.7" cy="156.7" rx="6.4" ry="45.6"/>
			
				<ellipse transform="matrix(2.963214e-02 -0.9996 0.9996 2.963214e-02 -55.0705 256.6547)" class="mnia49" cx="104.7" cy="156.7" rx="6.3" ry="45.5"/>
			
				<ellipse transform="matrix(2.968939e-02 -0.9996 0.9996 2.968939e-02 -55.1256 256.6142)" class="mnia50" cx="104.6" cy="156.7" rx="6.3" ry="45.4"/>
			
				<ellipse transform="matrix(2.974692e-02 -0.9996 0.9996 2.974692e-02 -55.1808 256.5738)" class="mnia50" cx="104.6" cy="156.7" rx="6.3" ry="45.2"/>
			
				<ellipse transform="matrix(2.980471e-02 -0.9996 0.9996 2.980471e-02 -55.2361 256.5333)" class="mnia51" cx="104.5" cy="156.7" rx="6.3" ry="45.1"/>
			
				<ellipse transform="matrix(2.986279e-02 -0.9996 0.9996 2.986279e-02 -55.2913 256.4927)" class="mnia52" cx="104.5" cy="156.7" rx="6.2" ry="45"/>
			
				<ellipse transform="matrix(2.992113e-02 -0.9996 0.9996 2.992113e-02 -55.3466 256.4521)" class="mnia53" cx="104.4" cy="156.7" rx="6.2" ry="44.9"/>
			
				<ellipse transform="matrix(2.997976e-02 -0.9996 0.9996 2.997976e-02 -55.4019 256.4114)" class="mnia54" cx="104.4" cy="156.7" rx="6.2" ry="44.8"/>
			
				<ellipse transform="matrix(3.003868e-02 -0.9995 0.9995 3.003868e-02 -55.4572 256.3707)" class="mnia55" cx="104.4" cy="156.8" rx="6.1" ry="44.7"/>
			
				<ellipse transform="matrix(3.009787e-02 -0.9995 0.9995 3.009787e-02 -55.5125 256.33)" class="mnia56" cx="104.3" cy="156.8" rx="6.1" ry="44.6"/>
			
				<ellipse transform="matrix(3.015735e-02 -0.9995 0.9995 3.015735e-02 -55.5679 256.2892)" class="mnia57" cx="104.3" cy="156.8" rx="6.1" ry="44.5"/>
			
				<ellipse transform="matrix(3.021712e-02 -0.9995 0.9995 3.021712e-02 -55.6232 256.2483)" class="mnia58" cx="104.2" cy="156.8" rx="6.1" ry="44.4"/>
			
				<ellipse transform="matrix(3.027718e-02 -0.9995 0.9995 3.027718e-02 -55.6786 256.2075)" class="mnia59" cx="104.2" cy="156.8" rx="6" ry="44.2"/>
			
				<ellipse transform="matrix(3.033753e-02 -0.9995 0.9995 3.033753e-02 -55.7341 256.1665)" class="mnia60" cx="104.2" cy="156.8" rx="6" ry="44.1"/>
			
				<ellipse transform="matrix(3.039818e-02 -0.9995 0.9995 3.039818e-02 -55.7895 256.1255)" class="mnia61" cx="104.1" cy="156.8" rx="6" ry="44"/>
			
				<ellipse transform="matrix(3.045912e-02 -0.9995 0.9995 3.045912e-02 -55.845 256.0845)" class="mnia62" cx="104.1" cy="156.8" rx="6" ry="43.9"/>
			
				<ellipse transform="matrix(3.052036e-02 -0.9995 0.9995 3.052036e-02 -55.9005 256.0434)" class="mnia63" cx="104" cy="156.8" rx="5.9" ry="43.8"/>
			
				<ellipse transform="matrix(3.058190e-02 -0.9995 0.9995 3.058190e-02 -55.956 256.0023)" class="mnia64" cx="104" cy="156.8" rx="5.9" ry="43.7"/>
			
				<ellipse transform="matrix(3.064375e-02 -0.9995 0.9995 3.064375e-02 -56.0116 255.9611)" class="mnia65" cx="104" cy="156.9" rx="5.9" ry="43.6"/>
			
				<ellipse transform="matrix(3.070590e-02 -0.9995 0.9995 3.070590e-02 -56.0671 255.9198)" class="mnia66" cx="103.9" cy="156.9" rx="5.8" ry="43.5"/>
			
				<ellipse transform="matrix(3.076836e-02 -0.9995 0.9995 3.076836e-02 -56.1227 255.8786)" class="mnia67" cx="103.9" cy="156.9" rx="5.8" ry="43.4"/>
			
				<ellipse transform="matrix(3.083113e-02 -0.9995 0.9995 3.083113e-02 -56.1784 255.8372)" class="mnia68" cx="103.8" cy="156.9" rx="5.8" ry="43.2"/>
			
				<ellipse transform="matrix(3.089421e-02 -0.9995 0.9995 3.089421e-02 -56.234 255.7958)" class="mnia69" cx="103.8" cy="156.9" rx="5.8" ry="43.1"/>
			
				<ellipse transform="matrix(3.095761e-02 -0.9995 0.9995 3.095761e-02 -56.2897 255.7544)" class="mnia70" cx="103.8" cy="156.9" rx="5.7" ry="43"/>
			
				<ellipse transform="matrix(3.102132e-02 -0.9995 0.9995 3.102132e-02 -56.3454 255.7129)" class="mnia71" cx="103.7" cy="156.9" rx="5.7" ry="42.9"/>
			
				<ellipse transform="matrix(3.108536e-02 -0.9995 0.9995 3.108536e-02 -56.4011 255.6713)" class="mnia72" cx="103.7" cy="156.9" rx="5.7" ry="42.8"/>
			
				<ellipse transform="matrix(3.114971e-02 -0.9995 0.9995 3.114971e-02 -56.4568 255.6297)" class="mnia73" cx="103.6" cy="156.9" rx="5.6" ry="42.7"/>
			
				<ellipse transform="matrix(3.121439e-02 -0.9995 0.9995 3.121439e-02 -56.5126 255.5881)" class="mnia74" cx="103.6" cy="156.9" rx="5.6" ry="42.6"/>
			
				<ellipse transform="matrix(3.127940e-02 -0.9995 0.9995 3.127940e-02 -56.5684 255.5464)" class="mnia75" cx="103.6" cy="157" rx="5.6" ry="42.5"/>
			
				<ellipse transform="matrix(3.134474e-02 -0.9995 0.9995 3.134474e-02 -56.6242 255.5046)" class="mnia76" cx="103.5" cy="157" rx="5.6" ry="42.4"/>
			
				<ellipse transform="matrix(3.141041e-02 -0.9995 0.9995 3.141041e-02 -56.6801 255.4628)" class="mnia77" cx="103.5" cy="157" rx="5.5" ry="42.2"/>
			
				<ellipse transform="matrix(3.147642e-02 -0.9995 0.9995 3.147642e-02 -56.736 255.4209)" class="mnia78" cx="103.4" cy="157" rx="5.5" ry="42.1"/>
			
				<ellipse transform="matrix(3.154276e-02 -0.9995 0.9995 3.154276e-02 -56.7919 255.379)" class="mnia79" cx="103.4" cy="157" rx="5.5" ry="42"/>
			
				<ellipse transform="matrix(3.160944e-02 -0.9995 0.9995 3.160944e-02 -56.8478 255.337)" class="mnia80" cx="103.3" cy="157" rx="5.4" ry="41.9"/>
			
				<ellipse transform="matrix(3.167647e-02 -0.9995 0.9995 3.167647e-02 -56.9038 255.295)" class="mnia81" cx="103.3" cy="157" rx="5.4" ry="41.8"/>
			
				<ellipse transform="matrix(3.174384e-02 -0.9995 0.9995 3.174384e-02 -56.9598 255.2529)" class="mnia82" cx="103.3" cy="157" rx="5.4" ry="41.7"/>
			
				<ellipse transform="matrix(3.181156e-02 -0.9995 0.9995 3.181156e-02 -57.0158 255.2107)" class="mnia83" cx="103.2" cy="157" rx="5.4" ry="41.6"/>
			
				<ellipse transform="matrix(3.187963e-02 -0.9995 0.9995 3.187963e-02 -57.0719 255.1685)" class="mnia84" cx="103.2" cy="157" rx="5.3" ry="41.5"/>
			
				<ellipse transform="matrix(3.194806e-02 -0.9995 0.9995 3.194806e-02 -57.1279 255.1263)" class="mnia85" cx="103.1" cy="157.1" rx="5.3" ry="41.4"/>
			
				<ellipse transform="matrix(3.201684e-02 -0.9995 0.9995 3.201684e-02 -57.184 255.0839)" class="mnia86" cx="103.1" cy="157.1" rx="5.3" ry="41.2"/>
			
				<ellipse transform="matrix(3.208598e-02 -0.9995 0.9995 3.208598e-02 -57.2402 255.0415)" class="mnia87" cx="103.1" cy="157.1" rx="5.3" ry="41.1"/>
			
				<ellipse transform="matrix(3.215548e-02 -0.9995 0.9995 3.215548e-02 -57.2963 254.9991)" class="mnia88" cx="103" cy="157.1" rx="5.2" ry="41"/>
			
				<ellipse transform="matrix(3.222535e-02 -0.9995 0.9995 3.222535e-02 -57.3525 254.9566)" class="mnia89" cx="103" cy="157.1" rx="5.2" ry="40.9"/>
			
				<ellipse transform="matrix(3.229558e-02 -0.9995 0.9995 3.229558e-02 -57.4087 254.914)" class="mnia90" cx="102.9" cy="157.1" rx="5.2" ry="40.8"/>
			
				<ellipse transform="matrix(3.236619e-02 -0.9995 0.9995 3.236619e-02 -57.465 254.8714)" class="mnia91" cx="102.9" cy="157.1" rx="5.1" ry="40.7"/>
			
				<ellipse transform="matrix(3.243717e-02 -0.9995 0.9995 3.243717e-02 -57.5213 254.8287)" class="mnia92" cx="102.9" cy="157.1" rx="5.1" ry="40.6"/>
			
				<ellipse transform="matrix(3.250853e-02 -0.9995 0.9995 3.250853e-02 -57.5776 254.7859)" class="mnia93" cx="102.8" cy="157.1" rx="5.1" ry="40.5"/>
			
				<ellipse transform="matrix(3.258027e-02 -0.9995 0.9995 3.258027e-02 -57.6339 254.7431)" class="mnia94" cx="102.8" cy="157.1" rx="5.1" ry="40.4"/>
			
				<ellipse transform="matrix(3.265239e-02 -0.9995 0.9995 3.265239e-02 -57.6903 254.7002)" class="mnia95" cx="102.7" cy="157.2" rx="5" ry="40.3"/>
			
				<ellipse transform="matrix(3.272490e-02 -0.9995 0.9995 3.272490e-02 -57.7467 254.6573)" class="mnia96" cx="102.7" cy="157.2" rx="5" ry="40.1"/>
			
				<ellipse transform="matrix(3.279779e-02 -0.9995 0.9995 3.279779e-02 -57.8031 254.6143)" class="mnia97" cx="102.7" cy="157.2" rx="5" ry="40"/>
			
				<ellipse transform="matrix(3.287109e-02 -0.9995 0.9995 3.287109e-02 -57.8596 254.5712)" class="mnia98" cx="102.6" cy="157.2" rx="4.9" ry="39.9"/>
			
				<ellipse transform="matrix(3.294477e-02 -0.9995 0.9995 3.294477e-02 -57.9161 254.5281)" class="mnia99" cx="102.6" cy="157.2" rx="4.9" ry="39.8"/>
			
				<ellipse transform="matrix(3.301886e-02 -0.9995 0.9995 3.301886e-02 -57.9726 254.4849)" class="mnia100" cx="102.5" cy="157.2" rx="4.9" ry="39.7"/>
			
				<ellipse transform="matrix(3.309335e-02 -0.9995 0.9995 3.309335e-02 -58.0292 254.4416)" class="mnia101" cx="102.5" cy="157.2" rx="4.9" ry="39.6"/>
			
				<ellipse transform="matrix(3.316824e-02 -0.9994 0.9994 3.316824e-02 -58.0858 254.3983)" class="mnia102" cx="102.4" cy="157.2" rx="4.8" ry="39.5"/>
			
				<ellipse transform="matrix(3.324354e-02 -0.9994 0.9994 3.324354e-02 -58.1424 254.3549)" class="mnia103" cx="102.4" cy="157.2" rx="4.8" ry="39.4"/>
			
				<ellipse transform="matrix(3.331926e-02 -0.9994 0.9994 3.331926e-02 -58.1991 254.3114)" class="mnia104" cx="102.4" cy="157.2" rx="4.8" ry="39.3"/>
			
				<ellipse transform="matrix(3.339539e-02 -0.9994 0.9994 3.339539e-02 -58.2558 254.2679)" class="mnia105" cx="102.3" cy="157.3" rx="4.7" ry="39.1"/>
			
				<ellipse transform="matrix(3.347195e-02 -0.9994 0.9994 3.347195e-02 -58.3125 254.2242)" class="mnia106" cx="102.3" cy="157.3" rx="4.7" ry="39"/>
			
				<ellipse transform="matrix(3.354892e-02 -0.9994 0.9994 3.354892e-02 -58.3692 254.1806)" class="mnia107" cx="102.2" cy="157.3" rx="4.7" ry="38.9"/>
			
				<ellipse transform="matrix(3.362633e-02 -0.9994 0.9994 3.362633e-02 -58.426 254.1368)" class="mnia108" cx="102.2" cy="157.3" rx="4.7" ry="38.8"/>
			
				<ellipse transform="matrix(3.370416e-02 -0.9994 0.9994 3.370416e-02 -58.4829 254.093)" class="mnia109" cx="102.2" cy="157.3" rx="4.6" ry="38.7"/>
			
				<ellipse transform="matrix(3.378243e-02 -0.9994 0.9994 3.378243e-02 -58.5397 254.0491)" class="mnia110" cx="102.1" cy="157.3" rx="4.6" ry="38.6"/>
			
				<ellipse transform="matrix(3.386113e-02 -0.9994 0.9994 3.386113e-02 -58.5966 254.0051)" class="mnia111" cx="102.1" cy="157.3" rx="4.6" ry="38.5"/>
			
				<ellipse transform="matrix(3.394028e-02 -0.9994 0.9994 3.394028e-02 -58.6536 253.9611)" class="mnia112" cx="102" cy="157.3" rx="4.6" ry="38.4"/>
			
				<ellipse transform="matrix(3.401987e-02 -0.9994 0.9994 3.401987e-02 -58.7105 253.917)" class="mnia113" cx="102" cy="157.3" rx="4.5" ry="38.3"/>
			
				<ellipse transform="matrix(3.409991e-02 -0.9994 0.9994 3.409991e-02 -58.7675 253.8728)" class="mnia114" cx="102" cy="157.3" rx="4.5" ry="38.1"/>
			
				<ellipse transform="matrix(3.418041e-02 -0.9994 0.9994 3.418041e-02 -58.8246 253.8285)" class="mnia115" cx="101.9" cy="157.3" rx="4.5" ry="38"/>
			
				<ellipse transform="matrix(3.426136e-02 -0.9994 0.9994 3.426136e-02 -58.8817 253.7842)" class="mnia116" cx="101.9" cy="157.4" rx="4.4" ry="37.9"/>
			
				<ellipse transform="matrix(3.434277e-02 -0.9994 0.9994 3.434277e-02 -58.9388 253.7398)" class="mnia117" cx="101.8" cy="157.4" rx="4.4" ry="37.8"/>
			
				<ellipse transform="matrix(3.442465e-02 -0.9994 0.9994 3.442465e-02 -58.9959 253.6953)" class="mnia118" cx="101.8" cy="157.4" rx="4.4" ry="37.7"/>
			
				<ellipse transform="matrix(3.450700e-02 -0.9994 0.9994 3.450700e-02 -59.0531 253.6507)" class="mnia119" cx="101.8" cy="157.4" rx="4.4" ry="37.6"/>
			
				<ellipse transform="matrix(3.458982e-02 -0.9994 0.9994 3.458982e-02 -59.1103 253.606)" class="mnia120" cx="101.7" cy="157.4" rx="4.3" ry="37.5"/>
			
				<ellipse transform="matrix(3.467311e-02 -0.9994 0.9994 3.467311e-02 -59.1676 253.5613)" class="mnia121" cx="101.7" cy="157.4" rx="4.3" ry="37.4"/>
			
				<ellipse transform="matrix(3.475690e-02 -0.9994 0.9994 3.475690e-02 -59.2249 253.5165)" class="mnia122" cx="101.6" cy="157.4" rx="4.3" ry="37.3"/>
			
				<ellipse transform="matrix(3.484116e-02 -0.9994 0.9994 3.484116e-02 -59.2822 253.4716)" class="mnia123" cx="101.6" cy="157.4" rx="4.2" ry="37.1"/>
			
				<ellipse transform="matrix(3.492592e-02 -0.9994 0.9994 3.492592e-02 -59.3396 253.4267)" class="mnia124" cx="101.5" cy="157.4" rx="4.2" ry="37"/>
			
				<ellipse transform="matrix(3.501116e-02 -0.9994 0.9994 3.501116e-02 -59.397 253.3816)" class="mnia125" cx="101.5" cy="157.4" rx="4.2" ry="36.9"/>
			
				<ellipse transform="matrix(3.509692e-02 -0.9994 0.9994 3.509692e-02 -59.4545 253.3365)" class="mnia126" cx="101.5" cy="157.5" rx="4.2" ry="36.8"/>
			
				<ellipse transform="matrix(3.518317e-02 -0.9994 0.9994 3.518317e-02 -59.512 253.2913)" class="mnia127" cx="101.4" cy="157.5" rx="4.1" ry="36.7"/>
			
				<ellipse transform="matrix(3.526993e-02 -0.9994 0.9994 3.526993e-02 -59.5695 253.246)" class="mnia128" cx="101.4" cy="157.5" rx="4.1" ry="36.6"/>
			
				<ellipse transform="matrix(3.535720e-02 -0.9994 0.9994 3.535720e-02 -59.6271 253.2006)" class="mnia129" cx="101.3" cy="157.5" rx="4.1" ry="36.5"/>
			
				<ellipse transform="matrix(3.544500e-02 -0.9994 0.9994 3.544500e-02 -59.6848 253.1551)" class="mnia130" cx="101.3" cy="157.5" rx="4.1" ry="36.4"/>
			
				<ellipse transform="matrix(3.553331e-02 -0.9994 0.9994 3.553331e-02 -59.7424 253.1096)" class="mnia131" cx="101.3" cy="157.5" rx="4" ry="36.3"/>
			
				<ellipse transform="matrix(3.562215e-02 -0.9994 0.9994 3.562215e-02 -59.8001 253.0639)" class="mnia132" cx="101.2" cy="157.5" rx="4" ry="36.2"/>
			
				<ellipse transform="matrix(3.571152e-02 -0.9994 0.9994 3.571152e-02 -59.8579 253.0182)" class="mnia133" cx="101.2" cy="157.5" rx="4" ry="36"/>
			
				<ellipse transform="matrix(3.580143e-02 -0.9994 0.9994 3.580143e-02 -59.9157 252.9724)" class="mnia134" cx="101.1" cy="157.5" rx="3.9" ry="35.9"/>
			
				<ellipse transform="matrix(3.589188e-02 -0.9994 0.9994 3.589188e-02 -59.9735 252.9265)" class="mnia135" cx="101.1" cy="157.5" rx="3.9" ry="35.8"/>
			
				<ellipse transform="matrix(3.598288e-02 -0.9994 0.9994 3.598288e-02 -60.0314 252.8804)" class="mnia136" cx="101.1" cy="157.6" rx="3.9" ry="35.7"/>
			
				<ellipse transform="matrix(3.607443e-02 -0.9993 0.9993 3.607443e-02 -60.0893 252.8344)" class="mnia137" cx="101" cy="157.6" rx="3.9" ry="35.6"/>
			
				<ellipse transform="matrix(3.616653e-02 -0.9993 0.9993 3.616653e-02 -60.1473 252.7882)" class="mnia138" cx="101" cy="157.6" rx="3.8" ry="35.5"/>
			
				<ellipse transform="matrix(3.625920e-02 -0.9993 0.9993 3.625920e-02 -60.2053 252.7419)" class="mnia139" cx="100.9" cy="157.6" rx="3.8" ry="35.4"/>
			
				<ellipse transform="matrix(3.635243e-02 -0.9993 0.9993 3.635243e-02 -60.2633 252.6955)" class="mnia140" cx="100.9" cy="157.6" rx="3.8" ry="35.3"/>
			
				<ellipse transform="matrix(3.644624e-02 -0.9993 0.9993 3.644624e-02 -60.3214 252.6491)" class="mnia141" cx="100.9" cy="157.6" rx="3.7" ry="35.2"/>
			
				<ellipse transform="matrix(3.654062e-02 -0.9993 0.9993 3.654062e-02 -60.3796 252.6025)" class="mnia142" cx="100.8" cy="157.6" rx="3.7" ry="35"/>
			
				<ellipse transform="matrix(3.663559e-02 -0.9993 0.9993 3.663559e-02 -60.4378 252.5558)" class="mnia142" cx="100.8" cy="157.6" rx="3.7" ry="34.9"/>
			
				<ellipse transform="matrix(3.673115e-02 -0.9993 0.9993 3.673115e-02 -60.496 252.5091)" class="mnia143" cx="100.7" cy="157.6" rx="3.7" ry="34.8"/>
			
				<ellipse transform="matrix(3.682730e-02 -0.9993 0.9993 3.682730e-02 -60.5543 252.4622)" class="mnia144" cx="100.7" cy="157.6" rx="3.6" ry="34.7"/>
			
				<ellipse transform="matrix(3.692406e-02 -0.9993 0.9993 3.692406e-02 -60.6126 252.4153)" class="mnia145" cx="100.7" cy="157.7" rx="3.6" ry="34.6"/>
			
				<ellipse transform="matrix(3.702141e-02 -0.9993 0.9993 3.702141e-02 -60.671 252.3682)" class="mnia146" cx="100.6" cy="157.7" rx="3.6" ry="34.5"/>
			
				<ellipse transform="matrix(3.711938e-02 -0.9993 0.9993 3.711938e-02 -60.7294 252.3211)" class="mnia147" cx="100.6" cy="157.7" rx="3.5" ry="34.4"/>
			
				<ellipse transform="matrix(3.721797e-02 -0.9993 0.9993 3.721797e-02 -60.7879 252.2738)" class="mnia148" cx="100.5" cy="157.7" rx="3.5" ry="34.3"/>
			
				<ellipse transform="matrix(3.731719e-02 -0.9993 0.9993 3.731719e-02 -60.8464 252.2265)" class="mnia149" cx="100.5" cy="157.7" rx="3.5" ry="34.2"/>
			
				<ellipse transform="matrix(3.741703e-02 -0.9993 0.9993 3.741703e-02 -60.905 252.179)" class="mnia150" cx="100.4" cy="157.7" rx="3.5" ry="34"/>
			
				<ellipse transform="matrix(3.751751e-02 -0.9993 0.9993 3.751751e-02 -60.9636 252.1314)" class="mnia150" cx="100.4" cy="157.7" rx="3.4" ry="33.9"/>
			
				<ellipse transform="matrix(3.761863e-02 -0.9993 0.9993 3.761863e-02 -61.0223 252.0837)" class="mnia151" cx="100.4" cy="157.7" rx="3.4" ry="33.8"/>
			
				<ellipse transform="matrix(3.772040e-02 -0.9993 0.9993 3.772040e-02 -61.081 252.036)" class="mnia151" cx="100.3" cy="157.7" rx="3.4" ry="33.7"/>
			
				<ellipse transform="matrix(3.782282e-02 -0.9993 0.9993 3.782282e-02 -61.1398 251.9881)" class="mnia152" cx="100.3" cy="157.7" rx="3.4" ry="33.6"/>
			
				<ellipse transform="matrix(3.792591e-02 -0.9993 0.9993 3.792591e-02 -61.1987 251.9401)" class="mnia153" cx="100.2" cy="157.8" rx="3.3" ry="33.5"/>
			
				<ellipse transform="matrix(3.802966e-02 -0.9993 0.9993 3.802966e-02 -61.2575 251.892)" class="mnia154" cx="100.2" cy="157.8" rx="3.3" ry="33.4"/>
			
				<ellipse transform="matrix(3.813409e-02 -0.9993 0.9993 3.813409e-02 -61.3165 251.8437)" class="mnia155" cx="100.2" cy="157.8" rx="3.3" ry="33.3"/>
			
				<ellipse transform="matrix(3.823921e-02 -0.9993 0.9993 3.823921e-02 -61.3755 251.7954)" class="mnia156" cx="100.1" cy="157.8" rx="3.2" ry="33.2"/>
			
				<ellipse transform="matrix(3.834501e-02 -0.9993 0.9993 3.834501e-02 -61.4345 251.7469)" class="mnia157" cx="100.1" cy="157.8" rx="3.2" ry="33"/>
			
				<ellipse transform="matrix(3.845150e-02 -0.9993 0.9993 3.845150e-02 -61.4936 251.6984)" class="mnia158" cx="100" cy="157.8" rx="3.2" ry="32.9"/>
			
				<ellipse transform="matrix(3.855870e-02 -0.9993 0.9993 3.855870e-02 -61.5528 251.6497)" class="mnia159" cx="100" cy="157.8" rx="3.2" ry="32.8"/>
			
				<ellipse transform="matrix(3.866661e-02 -0.9993 0.9993 3.866661e-02 -61.612 251.6009)" class="mnia159" cx="100" cy="157.8" rx="3.1" ry="32.7"/>
			
				<ellipse transform="matrix(3.877523e-02 -0.9992 0.9992 3.877523e-02 -61.6713 251.552)" class="mnia160" cx="99.9" cy="157.8" rx="3.1" ry="32.6"/>
			
				<ellipse transform="matrix(3.888458e-02 -0.9992 0.9992 3.888458e-02 -61.7306 251.5029)" class="mnia160" cx="99.9" cy="157.8" rx="3.1" ry="32.5"/>
			
				<ellipse transform="matrix(3.899466e-02 -0.9992 0.9992 3.899466e-02 -61.79 251.4538)" class="mnia161" cx="99.8" cy="157.9" rx="3" ry="32.4"/>
			
				<ellipse transform="matrix(3.910548e-02 -0.9992 0.9992 3.910548e-02 -61.8494 251.4045)" class="mnia161" cx="99.8" cy="157.9" rx="3" ry="32.3"/>
			
				<ellipse transform="matrix(3.921705e-02 -0.9992 0.9992 3.921705e-02 -61.9089 251.3551)" class="mnia162" cx="99.8" cy="157.9" rx="3" ry="32.2"/>
			
				<ellipse transform="matrix(3.932937e-02 -0.9992 0.9992 3.932937e-02 -61.9685 251.3055)" class="mnia163" cx="99.7" cy="157.9" rx="3" ry="32"/>
			
				<ellipse transform="matrix(3.944245e-02 -0.9992 0.9992 3.944245e-02 -62.0281 251.2559)" class="mnia164" cx="99.7" cy="157.9" rx="2.9" ry="31.9"/>
			
				<ellipse transform="matrix(3.955631e-02 -0.9992 0.9992 3.955631e-02 -62.0878 251.2061)" class="mnia165" cx="99.6" cy="157.9" rx="2.9" ry="31.8"/>
			
				<ellipse transform="matrix(3.967094e-02 -0.9992 0.9992 3.967094e-02 -62.1475 251.1562)" class="mnia166" cx="99.6" cy="157.9" rx="2.9" ry="31.7"/>
			
				<ellipse transform="matrix(3.978636e-02 -0.9992 0.9992 3.978636e-02 -62.2074 251.1061)" class="mnia167" cx="99.5" cy="157.9" rx="2.8" ry="31.6"/>
			
				<ellipse transform="matrix(3.990258e-02 -0.9992 0.9992 3.990258e-02 -62.2672 251.056)" class="mnia167" cx="99.5" cy="157.9" rx="2.8" ry="31.5"/>
			
				<ellipse transform="matrix(4.001960e-02 -0.9992 0.9992 4.001960e-02 -62.3272 251.0056)" class="mnia168" cx="99.5" cy="157.9" rx="2.8" ry="31.4"/>
			
				<ellipse transform="matrix(4.013743e-02 -0.9992 0.9992 4.013743e-02 -62.3871 250.9552)" class="mnia168" cx="99.4" cy="157.9" rx="2.8" ry="31.3"/>
			
				<ellipse transform="matrix(4.025609e-02 -0.9992 0.9992 4.025609e-02 -62.4472 250.9046)" class="mnia169" cx="99.4" cy="158" rx="2.7" ry="31.2"/>
			
				<ellipse transform="matrix(4.037557e-02 -0.9992 0.9992 4.037557e-02 -62.5073 250.8539)" class="mnia170" cx="99.3" cy="158" rx="2.7" ry="31.1"/>
			
				<ellipse transform="matrix(4.049589e-02 -0.9992 0.9992 4.049589e-02 -62.5675 250.803)" class="mnia171" cx="99.3" cy="158" rx="2.7" ry="30.9"/>
			
				<ellipse transform="matrix(4.061706e-02 -0.9992 0.9992 4.061706e-02 -62.6278 250.752)" class="mnia172" cx="99.3" cy="158" rx="2.7" ry="30.8"/>
			
				<ellipse transform="matrix(4.073909e-02 -0.9992 0.9992 4.073909e-02 -62.6881 250.7009)" class="mnia173" cx="99.2" cy="158" rx="2.6" ry="30.7"/>
			
				<ellipse transform="matrix(4.086199e-02 -0.9992 0.9992 4.086199e-02 -62.7485 250.6496)" class="mnia174" cx="99.2" cy="158" rx="2.6" ry="30.6"/>
			
				<ellipse transform="matrix(4.098576e-02 -0.9992 0.9992 4.098576e-02 -62.809 250.5981)" class="mnia174" cx="99.1" cy="158" rx="2.6" ry="30.5"/>
			
				<ellipse transform="matrix(4.111042e-02 -0.9992 0.9992 4.111042e-02 -62.8695 250.5466)" class="mnia175" cx="99.1" cy="158" rx="2.5" ry="30.4"/>
			
				<ellipse transform="matrix(4.123597e-02 -0.9991 0.9991 4.123597e-02 -62.9301 250.4948)" class="mnia175" cx="99.1" cy="158" rx="2.5" ry="30.3"/>
			
				<ellipse transform="matrix(4.136243e-02 -0.9991 0.9991 4.136243e-02 -62.9908 250.443)" class="mnia176" cx="99" cy="158" rx="2.5" ry="30.2"/>
			
				<ellipse transform="matrix(4.148980e-02 -0.9991 0.9991 4.148980e-02 -63.0515 250.3909)" class="mnia177" cx="99" cy="158.1" rx="2.5" ry="30.1"/>
			
				<ellipse transform="matrix(4.161811e-02 -0.9991 0.9991 4.161811e-02 -63.1123 250.3387)" class="mnia178" cx="98.9" cy="158.1" rx="2.4" ry="29.9"/>
			
				<ellipse transform="matrix(4.174734e-02 -0.9991 0.9991 4.174734e-02 -63.1732 250.2864)" class="mnia179" cx="98.9" cy="158.1" rx="2.4" ry="29.8"/>
			
				<ellipse transform="matrix(4.187753e-02 -0.9991 0.9991 4.187753e-02 -63.2342 250.2339)" class="mnia180" cx="98.9" cy="158.1" rx="2.4" ry="29.7"/>
			
				<ellipse transform="matrix(4.200867e-02 -0.9991 0.9991 4.200867e-02 -63.2952 250.1812)" class="mnia181" cx="98.8" cy="158.1" rx="2.3" ry="29.6"/>
			
				<ellipse transform="matrix(4.214079e-02 -0.9991 0.9991 4.214079e-02 -63.3563 250.1284)" class="mnia182" cx="98.8" cy="158.1" rx="2.3" ry="29.5"/>
			
				<ellipse transform="matrix(4.227388e-02 -0.9991 0.9991 4.227388e-02 -63.4175 250.0754)" class="mnia183" cx="98.7" cy="158.1" rx="2.3" ry="29.4"/>
			
				<ellipse transform="matrix(4.240796e-02 -0.9991 0.9991 4.240796e-02 -63.4788 250.0223)" class="mnia183" cx="98.7" cy="158.1" rx="2.3" ry="29.3"/>
			
				<ellipse transform="matrix(4.254305e-02 -0.9991 0.9991 4.254305e-02 -63.5401 249.969)" class="mnia184" cx="98.6" cy="158.1" rx="2.2" ry="29.2"/>
		</g>
		<g>
			<g>
				<g>
					<linearGradient id="MNIA_ID_1_" gradientUnits="userSpaceOnUse" x1="98.1336" y1="115.3396" x2="154.5957" y2="82.5776">
						<stop  offset="0" style="stop-color:var(--vitamui-primary-900)"/>
						<stop  offset="1" style="stop-color:var(--vitamui-primary)"/>
					</linearGradient>
					<path class="mnia185" d="M122.1,158.1l-34.2-4.2c-3.9-0.4-6.9-4.1-6.9-8.5V71.5c0-4.1,2.5-7.6,6.1-8.6l35.1-10.7
						c6.2-0.6,10.6,4.3,10.6,9.4v87.5c0,4.7-2.9,7.9-7.4,8.9C124.9,158.1,122.5,158.2,122.1,158.1z"/>
					<linearGradient id="MNIA_ID_2_" gradientUnits="userSpaceOnUse" x1="160.0855" y1="168.3077" x2="94.6095" y2="90.9868">
						<stop  offset="0" style="stop-color:var(--vitamui-primary-900)"/>
						<stop  offset="1" style="stop-color:var(--vitamui-primary)"/>
					</linearGradient>
					<path class="mnia186" d="M122.2,158.1l-36.5-4.1c-4-0.5-7-4.1-7-8.6V71c0-4.1,2.5-7.7,6.1-8.6l36.5-9.9c4.9-1.3,9.6,2.8,9.6,8.5
						v88.2C131,154.4,126.9,158.6,122.2,158.1z"/>
					<path class="mnia187" d="M131,61v84.9C131,145.9,128.4,110.9,131,61z"/>
				</g>
				<g>
					
						<linearGradient id="MNIA_ID_3_" gradientUnits="userSpaceOnUse" x1="473.8841" y1="19.6143" x2="572.6699" y2="121.6687" gradientTransform="matrix(-1 0 0 1 663.9603 0)">
						<stop  offset="0" style="stop-color:#F5F5F5"/>
						<stop  offset="0.7896" style="stop-color:#9B9A9B"/>
					</linearGradient>
					<polygon class="mnia188" points="128.7,159 128.8,49 76.2,61.4 76.2,151 					"/>
					<polygon class="mnia3" points="129.3,158.6 128.7,159 128.8,49 129.3,49.4 					"/>
				</g>
				
					<linearGradient id="MNIA_ID_4_" gradientUnits="userSpaceOnUse" x1="511.6882" y1="55.3863" x2="612.4951" y2="159.5286" gradientTransform="matrix(-1 0 0 1 663.9603 0)">
					<stop  offset="0" style="stop-color:#F5F5F5"/>
					<stop  offset="0.7896" style="stop-color:#9B9A9B"/>
				</linearGradient>
				<polygon class="mnia189" points="125.9,160.1 126,47.9 72.4,60.5 72.4,152 				"/>
				<linearGradient id="MNIA_ID_5_" gradientUnits="userSpaceOnUse" x1="83.4106" y1="116.448" x2="146.1201" y2="80.061">
					<stop  offset="0" style="stop-color:var(--vitamui-primary-900)"/>
					<stop  offset="1" style="stop-color:var(--vitamui-primary)"/>
				</linearGradient>
				<path class="mnia190" d="M110.9,161.5l-40.4-5.5c-4.6-0.6-8.1-4.5-8.1-9.1V69.6c0-4.3,2.9-8,7.1-9l41.4-11.3
					c7.4-0.6,12.7,4.6,12.7,10v92.9c0,5-3.5,8.3-8.9,9.2C114.2,161.6,111.4,161.6,110.9,161.5z"/>
				<linearGradient id="MNIA_ID_6_" gradientUnits="userSpaceOnUse" x1="72.7434" y1="173.26" x2="110.9369" y2="40.0989">
					<stop  offset="0" style="stop-color:var(--vitamui-primary-900)"/>
					<stop  offset="3.934753e-02" style="stop-color:var(--vitamui-primary-800)"/>
					<stop  offset="0.1654" style="stop-color:var(--vitamui-primary-700)"/>
					<stop  offset="0.2899" style="stop-color:var(--vitamui-primary-600)"/>
					<stop  offset="0.4107" style="stop-color:var(--vitamui-primary)"/>
					<stop  offset="0.5264" style="stop-color:var(--vitamui-primary)"/>
					<stop  offset="0.6312" style="stop-color:var(--vitamui-primary)"/>
					<stop  offset="0.6963" style="stop-color:var(--vitamui-primary)"/>
					<stop  offset="0.7969" style="stop-color:var(--vitamui-primary)"/>
					<stop  offset="0.92" style="stop-color:var(--vitamui-primary-400)"/>
					<stop  offset="1" style="stop-color:var(--vitamui-primary-300)"/>
				</linearGradient>
				<path class="mnia191" d="M111,161.5L68,156c-4.6-0.6-8.1-4.5-8.1-9.2V69c0-4.3,2.9-8,7.1-9l43-10.3c5.8-1.4,11.4,3,11.4,9v93.6
					C121.5,157.8,116.6,162.2,111,161.5z"/>
				<path class="mnia0" d="M59.9,70.3L84,65.5c1.8-0.4,3.6,1,3.6,3v10c0,1.5-1.1,2.8-2.6,3l-25.1,3.1L59.9,70.3z"/>
				<linearGradient id="MNIA_ID_7_" gradientUnits="userSpaceOnUse" x1="61.4044" y1="63.1645" x2="84.5421" y2="87.0677">
					<stop  offset="0" style="stop-color:#F5F5F5"/>
					<stop  offset="0.7896" style="stop-color:#9B9A9B"/>
				</linearGradient>
				<path class="mnia192" d="M83.9,80.5l-23.3,3.2c-1.4,0.2-2.7-0.9-2.7-2.3v-9.7c0-1.1,0.8-2.1,1.9-2.3l23.1-4.8c1.9-0.4,3.6,1,3.6,3
					v10C86.5,79,85.4,80.3,83.9,80.5z"/>
				<path class="mnia193" d="M121.5,58.7v90.1C121.5,148.8,118.4,111.6,121.5,58.7z"/>
				<polygon class="mnia3" points="126.6,159.7 125.9,160.1 126,47.9 126.5,48.3 				"/>
				<g>
					<path class="mnia184" d="M62.4,73.2l0-1.6l6.3-1.2l0,1.6l-4.3,5.8l4.4-0.7l0,1.6l-6.6,1l0-1.6l4.2-5.7L62.4,73.2z"/>
					<path class="mnia184" d="M70.5,70.1l1.9-0.4l0.1,8.6l-1.9,0.3L70.5,70.1z"/>
					<path class="mnia184" d="M78.7,68.5c1-0.2,1.8-0.1,2.5,0.4c0.7,0.5,1,1.1,1,2c0,0.9-0.3,1.6-1,2.3c-0.7,0.7-1.5,1.1-2.5,1.3
						l-2,0.3l0,2.9l-2,0.3l-0.1-8.7L78.7,68.5z M76.7,70.6l0,2.5l1.9-0.3c0.4-0.1,0.8-0.2,1-0.5c0.3-0.3,0.4-0.6,0.4-1
						c0-0.4-0.1-0.6-0.4-0.8c-0.3-0.2-0.6-0.3-1-0.2L76.7,70.6z"/>
				</g>
			</g>
			<g>
				<linearGradient id="MNIA_ID_8_" gradientUnits="userSpaceOnUse" x1="66.9636" y1="70.1692" x2="139.9483" y2="145.5688">
					<stop  offset="0" style="stop-color:#F5F5F5"/>
					<stop  offset="0.7896" style="stop-color:#9B9A9B"/>
				</linearGradient>
				<polygon class="mnia194" points="103.7,160.6 98.7,159.9 98.7,52.4 103.7,51.2 				"/>
				<polygon points="100.3,160.1 95.6,159.5 95.6,53.1 100.3,52 				"/>
				<linearGradient id="MNIA_ID_9_" gradientUnits="userSpaceOnUse" x1="95.9145" y1="54.7329" x2="101.8872" y2="60.9033">
					<stop  offset="0" style="stop-color:#F5F5F5"/>
					<stop  offset="0.7896" style="stop-color:#9B9A9B"/>
				</linearGradient>
				<polygon class="mnia195" points="97.3,61.5 100.2,60.9 100.2,53.8 97.3,54.5 				"/>
				<linearGradient id="MNIA_ID_10_" gradientUnits="userSpaceOnUse" x1="95.8834" y1="64.4353" x2="101.9215" y2="70.6733">
					<stop  offset="0" style="stop-color:#F5F5F5"/>
					<stop  offset="0.7896" style="stop-color:#9B9A9B"/>
				</linearGradient>
				<polygon class="mnia196" points="97.3,71.2 100.2,70.7 100.2,63.6 97.3,64.2 				"/>
				<linearGradient id="MNIA_ID_11_" gradientUnits="userSpaceOnUse" x1="95.8523" y1="74.1378" x2="101.9558" y2="80.4433">
					<stop  offset="0" style="stop-color:#F5F5F5"/>
					<stop  offset="0.7896" style="stop-color:#9B9A9B"/>
				</linearGradient>
				<polygon class="mnia197" points="97.3,80.9 100.2,80.4 100.2,73.4 97.3,73.9 				"/>
				<linearGradient id="MNIA_ID_12_" gradientUnits="userSpaceOnUse" x1="95.8212" y1="83.8402" x2="101.9902" y2="90.2133">
					<stop  offset="0" style="stop-color:#F5F5F5"/>
					<stop  offset="0.7896" style="stop-color:#9B9A9B"/>
				</linearGradient>
				<polygon class="mnia198" points="97.3,90.5 100.2,90.2 100.2,83.2 97.3,83.6 				"/>
				<linearGradient id="MNIA_ID_13_" gradientUnits="userSpaceOnUse" x1="95.7901" y1="93.5427" x2="102.0245" y2="99.9833">
					<stop  offset="0" style="stop-color:#F5F5F5"/>
					<stop  offset="0.7896" style="stop-color:#9B9A9B"/>
				</linearGradient>
				<polygon class="mnia199" points="97.3,100.2 100.2,100 100.2,92.9 97.3,93.2 				"/>
				<linearGradient id="MNIA_ID_14_" gradientUnits="userSpaceOnUse" x1="95.759" y1="103.2452" x2="102.0588" y2="109.7534">
					<stop  offset="0" style="stop-color:#F5F5F5"/>
					<stop  offset="0.7896" style="stop-color:#9B9A9B"/>
				</linearGradient>
				<polygon class="mnia200" points="97.3,109.9 100.2,109.8 100.2,102.7 97.3,102.9 				"/>
				<polygon points="101.2,160.2 106.2,160.9 106.2,50.6 101.2,51.8 				"/>
				
					<linearGradient id="MNIA_ID_15_" gradientUnits="userSpaceOnUse" x1="504.5514" y1="53.3199" x2="511.513" y2="60.5119" gradientTransform="matrix(-1 0 0 1 610.7714 0)">
					<stop  offset="0" style="stop-color:#F5F5F5"/>
					<stop  offset="0.7896" style="stop-color:#9B9A9B"/>
				</linearGradient>
				<polygon class="mnia201" points="104.4,60 101.4,60.6 101.4,53.5 104.4,52.8 				"/>
				
					<linearGradient id="MNIA_ID_16_" gradientUnits="userSpaceOnUse" x1="504.5834" y1="63.229" x2="511.4777" y2="70.3515" gradientTransform="matrix(-1 0 0 1 610.7714 0)">
					<stop  offset="0" style="stop-color:#F5F5F5"/>
					<stop  offset="0.7896" style="stop-color:#9B9A9B"/>
				</linearGradient>
				<polygon class="mnia202" points="104.4,69.9 101.4,70.5 101.4,63.4 104.4,62.7 				"/>
				
					<linearGradient id="MNIA_ID_17_" gradientUnits="userSpaceOnUse" x1="504.6154" y1="73.1382" x2="511.4424" y2="80.1911" gradientTransform="matrix(-1 0 0 1 610.7714 0)">
					<stop  offset="0" style="stop-color:#F5F5F5"/>
					<stop  offset="0.7896" style="stop-color:#9B9A9B"/>
				</linearGradient>
				<polygon class="mnia203" points="104.4,79.8 101.4,80.3 101.4,73.2 104.4,72.7 				"/>
				
					<linearGradient id="MNIA_ID_18_" gradientUnits="userSpaceOnUse" x1="504.6474" y1="83.0474" x2="511.4071" y2="90.0307" gradientTransform="matrix(-1 0 0 1 610.7714 0)">
					<stop  offset="0" style="stop-color:#F5F5F5"/>
					<stop  offset="0.7896" style="stop-color:#9B9A9B"/>
				</linearGradient>
				<polygon class="mnia204" points="104.4,89.8 101.4,90.1 101.4,83 104.4,82.6 				"/>
				
					<linearGradient id="MNIA_ID_19_" gradientUnits="userSpaceOnUse" x1="504.6794" y1="92.9565" x2="511.3718" y2="99.8704" gradientTransform="matrix(-1 0 0 1 610.7714 0)">
					<stop  offset="0" style="stop-color:#F5F5F5"/>
					<stop  offset="0.7896" style="stop-color:#9B9A9B"/>
				</linearGradient>
				<polygon class="mnia205" points="104.4,99.7 101.4,99.9 101.4,92.8 104.4,92.5 				"/>
				
					<linearGradient id="MNIA_ID_20_" gradientUnits="userSpaceOnUse" x1="504.7114" y1="102.8657" x2="511.3365" y2="109.71" gradientTransform="matrix(-1 0 0 1 610.7714 0)">
					<stop  offset="0" style="stop-color:#F5F5F5"/>
					<stop  offset="0.7896" style="stop-color:#9B9A9B"/>
				</linearGradient>
				<polygon class="mnia206" points="104.4,109.6 101.4,109.7 101.4,102.7 104.4,102.5 				"/>
				<linearGradient id="MNIA_ID_21_" gradientUnits="userSpaceOnUse" x1="95.7277" y1="113.0055" x2="102.0933" y2="119.5817">
					<stop  offset="0" style="stop-color:#F5F5F5"/>
					<stop  offset="0.7896" style="stop-color:#9B9A9B"/>
				</linearGradient>
				<polygon class="mnia207" points="97.3,119.7 100.2,119.6 100.2,112.6 97.3,112.7 				"/>
				<linearGradient id="MNIA_ID_22_" gradientUnits="userSpaceOnUse" x1="95.6966" y1="122.708" x2="102.1276" y2="129.3517">
					<stop  offset="0" style="stop-color:#F5F5F5"/>
					<stop  offset="0.7896" style="stop-color:#9B9A9B"/>
				</linearGradient>
				<polygon class="mnia208" points="97.3,129.3 100.2,129.4 100.2,122.4 97.3,122.3 				"/>
				<linearGradient id="MNIA_ID_23_" gradientUnits="userSpaceOnUse" x1="95.6655" y1="132.4104" x2="102.1619" y2="139.1217">
					<stop  offset="0" style="stop-color:#F5F5F5"/>
					<stop  offset="0.7896" style="stop-color:#9B9A9B"/>
				</linearGradient>
				<polygon class="mnia209" points="97.3,139 100.2,139.2 100.2,132.1 97.3,132 				"/>
				<linearGradient id="MNIA_ID_24_" gradientUnits="userSpaceOnUse" x1="95.6344" y1="142.1129" x2="102.1962" y2="148.8917">
					<stop  offset="0" style="stop-color:#F5F5F5"/>
					<stop  offset="0.7896" style="stop-color:#9B9A9B"/>
				</linearGradient>
				<polygon class="mnia210" points="97.3,148.7 100.2,149 100.2,141.9 97.3,141.7 				"/>
				<linearGradient id="MNIA_ID_25_" gradientUnits="userSpaceOnUse" x1="95.6033" y1="151.8153" x2="102.2305" y2="158.6618">
					<stop  offset="0" style="stop-color:#F5F5F5"/>
					<stop  offset="0.7896" style="stop-color:#9B9A9B"/>
				</linearGradient>
				<polygon class="mnia211" points="97.3,158.4 100.2,158.8 100.2,151.7 97.3,151.4 				"/>
				
					<linearGradient id="MNIA_ID_26_" gradientUnits="userSpaceOnUse" x1="504.7436" y1="112.834" x2="511.301" y2="119.6083" gradientTransform="matrix(-1 0 0 1 610.7714 0)">
					<stop  offset="0" style="stop-color:#F5F5F5"/>
					<stop  offset="0.7896" style="stop-color:#9B9A9B"/>
				</linearGradient>
				<polygon class="mnia212" points="104.4,119.6 101.4,119.6 101.4,112.5 104.4,112.4 				"/>
				
					<linearGradient id="MNIA_ID_27_" gradientUnits="userSpaceOnUse" x1="504.7756" y1="122.7432" x2="511.2657" y2="129.448" gradientTransform="matrix(-1 0 0 1 610.7714 0)">
					<stop  offset="0" style="stop-color:#F5F5F5"/>
					<stop  offset="0.7896" style="stop-color:#9B9A9B"/>
				</linearGradient>
				<polygon class="mnia213" points="104.4,129.5 101.4,129.5 101.4,122.4 104.4,122.4 				"/>
				
					<linearGradient id="MNIA_ID_28_" gradientUnits="userSpaceOnUse" x1="504.8076" y1="132.6523" x2="511.2303" y2="139.2876" gradientTransform="matrix(-1 0 0 1 610.7714 0)">
					<stop  offset="0" style="stop-color:#F5F5F5"/>
					<stop  offset="0.7896" style="stop-color:#9B9A9B"/>
				</linearGradient>
				<polygon class="mnia214" points="104.4,139.5 101.4,139.3 101.4,132.2 104.4,132.3 				"/>
				
					<linearGradient id="MNIA_ID_29_" gradientUnits="userSpaceOnUse" x1="504.8396" y1="142.5615" x2="511.195" y2="149.1272" gradientTransform="matrix(-1 0 0 1 610.7714 0)">
					<stop  offset="0" style="stop-color:#F5F5F5"/>
					<stop  offset="0.7896" style="stop-color:#9B9A9B"/>
				</linearGradient>
				<polygon class="mnia215" points="104.4,149.4 101.4,149.1 101.4,142 104.4,142.2 				"/>
				
					<linearGradient id="MNIA_ID_30_" gradientUnits="userSpaceOnUse" x1="504.8716" y1="152.4706" x2="511.1597" y2="158.9668" gradientTransform="matrix(-1 0 0 1 610.7714 0)">
					<stop  offset="0" style="stop-color:#F5F5F5"/>
					<stop  offset="0.7896" style="stop-color:#9B9A9B"/>
				</linearGradient>
				<polygon class="mnia216" points="104.4,159.3 101.4,158.9 101.4,151.8 104.4,152.2 				"/>
			</g>
		</g>
	</g>
	<linearGradient id="MNIA_ID_31_" gradientUnits="userSpaceOnUse" x1="110.4105" y1="113.9017" x2="21.6381" y2="135.3696">
		<stop  offset="0" style="stop-color:var(--vitamui-primary-900)"/>
		<stop  offset="6.233966e-02" style="stop-color:var(--vitamui-primary-800)"/>
		<stop  offset="0.262" style="stop-color:var(--vitamui-primary-700)"/>
		<stop  offset="0.4592" style="stop-color:var(--vitamui-primary-600)"/>
		<stop  offset="0.6508" style="stop-color:var(--vitamui-primary)"/>
		<stop  offset="0.834" style="stop-color:var(--vitamui-primary)"/>
		<stop  offset="1" style="stop-color:var(--vitamui-primary)"/>
	</linearGradient>
	<path class="mnia217" d="M89.7,105.8l-14.2,31.1l-2.2-1.9l-9.4,0C63.9,135.1,67.5,102.5,89.7,105.8z"/>
	<g>
		
			<linearGradient id="MNIA_ID_32_" gradientUnits="userSpaceOnUse" x1="221.5788" y1="257.7218" x2="255.2445" y2="198.0033" gradientTransform="matrix(-0.3345 -0.9424 -0.9424 0.3345 372.5027 264.8968)">
			<stop  offset="0" style="stop-color:#BCB9BA"/>
			<stop  offset="0.21" style="stop-color:#9B9A9B"/>
			<stop  offset="0.46" style="stop-color:#F5F5F5"/>
			<stop  offset="0.74" style="stop-color:#BCB9BA"/>
			<stop  offset="1" style="stop-color:#F5F5F5"/>
		</linearGradient>
		<path class="mnia218" d="M89.5,102.1c-0.9-0.2-1.8-0.3-2.7-0.2l-13.4,0.9c-8.4,1.3-20.1,14.3-23.5,30.8c-0.1,0-0.1,0-0.2,0
			c-0.1,0-0.3-0.1-0.4-0.1c-0.1,0-0.2,0-0.3-0.1c-0.2,0-0.3-0.1-0.5-0.1c0,0-0.1,0-0.1,0c-0.2,0-0.4-0.1-0.6-0.1c-0.1,0-0.1,0-0.2,0
			c-0.2,0-0.3-0.1-0.5-0.1c-0.1,0-0.1,0-0.2,0c-0.2,0-0.4-0.1-0.6-0.2c0,0,0,0-0.1,0c-0.2-0.1-0.4-0.1-0.6-0.2c-0.1,0-0.1,0-0.2-0.1
			c-0.1,0-0.3-0.1-0.4-0.1c-0.1,0-0.1,0-0.2-0.1c-0.2-0.1-0.4-0.1-0.5-0.2c2.6,14.2,4.3,19.6,10.5,32.9l3.1-0.9
			c0,0,5.7-11.2,17.3-27.2l-2.1-1.8l-0.1-0.1c0,0,0,0,0,0c0,0,0,0,0,0c0,0,0,0,0,0c0,0-0.1,0-0.1,0c0,0,0,0,0,0c0,0-0.1,0-0.1,0
			c0,0,0,0,0,0c0,0-0.1,0-0.2,0c0,0,0,0,0,0c-0.5,0-1.4,0-2.5,0c0,0,0,0,0,0c-0.1,0-0.3,0-0.4,0c0,0-0.1,0-0.1,0c-0.1,0-0.3,0-0.4,0
			c0,0-0.1,0-0.1,0c-0.1,0-0.3,0-0.5,0c0,0-0.1,0-0.1,0c-0.2,0-0.3,0-0.5,0c0.1-0.4,0.2-0.8,0.3-1.2c0.1-0.3,0.1-0.6,0.2-0.9
			c0-0.1,0.1-0.2,0.1-0.3c0.1-0.3,0.2-0.7,0.3-1c0.1-0.3,0.2-0.6,0.2-0.8c0,0,0-0.1,0-0.1c0.1-0.4,0.2-0.8,0.3-1.2
			c0.1-0.3,0.2-0.5,0.2-0.8c0.1-0.4,0.2-0.8,0.4-1.1c0-0.1,0.1-0.2,0.1-0.3c0-0.1,0.1-0.3,0.1-0.4c0.3-0.8,0.6-1.6,0.9-2.4
			c0-0.1,0.1-0.3,0.1-0.4c0-0.1,0.1-0.1,0.1-0.2c0.1-0.4,0.3-0.7,0.4-1.1c0.1-0.2,0.2-0.4,0.3-0.7c0.2-0.4,0.3-0.7,0.5-1.1
			c0.1-0.2,0.2-0.4,0.3-0.6c0.2-0.4,0.3-0.7,0.5-1c0.1-0.2,0.2-0.3,0.2-0.5c0.4-0.7,0.7-1.4,1.1-2.1c0.1-0.1,0.1-0.2,0.2-0.3
			c0.2-0.3,0.4-0.6,0.5-0.9c0.1-0.2,0.2-0.3,0.3-0.5c0.2-0.3,0.4-0.6,0.5-0.9c0.1-0.1,0.2-0.3,0.3-0.4c0.2-0.3,0.4-0.6,0.6-0.8
			c0.1-0.1,0.1-0.2,0.2-0.3c0.4-0.6,0.9-1.2,1.4-1.7c1.1-1.3,2.2-2.3,3.3-3.2l0,0c2.5-1.9,5.2-2.7,7.8-2.1l0.1-3.7L89.5,102.1z
			 M66.7,135.1C66.7,135.1,66.7,135.1,66.7,135.1c0.3,0,0.6,0,0.9,0c-0.1,0-0.1,0-0.2,0C67.2,135.1,66.9,135.1,66.7,135.1z"/>
		
			<linearGradient id="MNIA_ID_33_" gradientUnits="userSpaceOnUse" x1="217.995" y1="246.8008" x2="240.1442" y2="230.0581" gradientTransform="matrix(-0.3345 -0.9424 -0.9424 0.3345 372.5027 264.8968)">
			<stop  offset="0" style="stop-color:#9B9A9B"/>
			<stop  offset="1" style="stop-color:#E5E4E4"/>
		</linearGradient>
		<path class="mnia219" d="M65.8,135c0,0,0.9,0,2.2,0c2-8.4,4.8-15.5,8.1-20.6c1.8-2.8,3.7-5,5.7-6.5c0,0-6.2,1.2-8.1,4.4
			C70.4,118,67.6,125.7,65.8,135z"/>
		
			<linearGradient id="MNIA_ID_34_" gradientUnits="userSpaceOnUse" x1="191.8472" y1="265.8508" x2="273.7673" y2="211.041" gradientTransform="matrix(-0.3345 -0.9424 -0.9424 0.3345 372.5027 264.8968)">
			<stop  offset="0" style="stop-color:#F5F5F5"/>
			<stop  offset="0.21" style="stop-color:#9B9A9B"/>
			<stop  offset="0.46" style="stop-color:#F5F5F5"/>
			<stop  offset="0.74" style="stop-color:#BCB9BA"/>
			<stop  offset="1" style="stop-color:#F5F5F5"/>
		</linearGradient>
		<path class="mnia220" d="M73.3,135.1c0,0-2.1,0.1-5.3,0l0,0c0,0,0,0,0,0c-0.4,0-0.8,0-1.3,0c0,0,0,0,0,0c-0.5,0-0.9,0-0.9,0
			c5.6-23.4,13.2-28.8,16.3-31.4c0.9-0.7,3.8-1.7,3.8-1.7l-9.8,0.6c-9.2,7.7-23.4,26.1-21.2,62.5C55,165,61.1,152.6,73.3,135.1z"/>
		<path class="mnia221" d="M66.4,132.3c3.3-12.8,8.2-22.9,13.8-27.5c0,0,0,0,0,0c1.9-1.5,3.8-2.5,5.7-2.9
			C78.3,104.1,70.8,115.4,66.4,132.3L66.4,132.3z"/>
	</g>
</g>
</svg>
