<?xml version="1.0" encoding="utf-8"?>
<!-- Generator: Adobe Illustrator 25.2.0, SVG Export Plug-In . SVG Version: 6.00 Build 0)  -->
<!DOCTYPE svg PUBLIC "-//W3C//DTD SVG 1.1//EN" "http://www.w3.org/Graphics/SVG/1.1/DTD/svg11.dtd" [
	<!ENTITY ns_extend "http://ns.adobe.com/Extensibility/1.0/">
	<!ENTITY ns_ai "http://ns.adobe.com/AdobeIllustrator/10.0/">
	<!ENTITY ns_graphs "http://ns.adobe.com/Graphs/1.0/">
	<!ENTITY ns_vars "http://ns.adobe.com/Variables/1.0/">
	<!ENTITY ns_imrep "http://ns.adobe.com/ImageReplacement/1.0/">
	<!ENTITY ns_sfw "http://ns.adobe.com/SaveForWeb/1.0/">
	<!ENTITY ns_custom "http://ns.adobe.com/GenericCustomNamespace/1.0/">
	<!ENTITY ns_adobe_xpath "http://ns.adobe.com/XPath/1.0/">
]>
<svg version="1.1" id="Calque_1" xmlns:x="&ns_extend;" xmlns:i="&ns_ai;" xmlns:graph="&ns_graphs;"
	 xmlns="http://www.w3.org/2000/svg" xmlns:xlink="http://www.w3.org/1999/xlink" x="0px" y="0px" viewBox="0 0 200 200"
	 style="enable-background:new 0 0 200 200;" xml:space="preserve">
<style type="text/css">
	.st0{fill-rule:evenodd;clip-rule:evenodd;}
	.st1{fill-rule:evenodd;clip-rule:evenodd;fill:#BCB9BA;}
	.st2{fill-rule:evenodd;clip-rule:evenodd;fill:#F5F5F5;}
	.st3{fill-rule:evenodd;clip-rule:evenodd;fill:#E5E4E4;}
	.st4{fill:#BCB9BA;}
	.st5{fill:#BBB9BA;}
	.st6{fill:#BBB8B9;}
	.st7{fill:#BAB8B9;}
	.st8{fill:#B9B7B8;}
	.st9{fill:#B9B7B7;}
	.st10{fill:#B8B6B7;}
	.st11{fill:#B8B5B6;}
	.st12{fill:#B7B5B6;}
	.st13{fill:#B7B4B5;}
	.st14{fill:#B6B4B5;}
	.st15{fill:#B6B3B4;}
	.st16{fill:#B5B3B4;}
	.st17{fill:#B4B2B3;}
	.st18{fill:#B3B1B2;}
	.st19{fill:#B3B1B1;}
	.st20{fill:#B2B0B1;}
	.st21{fill:#B2AFB0;}
	.st22{fill:#B1AFB0;}
	.st23{fill:#B1AEAF;}
	.st24{fill:#B0AEAF;}
	.st25{fill:#AFADAE;}
	.st26{fill:#AEACAD;}
	.st27{fill:#ADABAC;}
	.st28{fill:#ADABAB;}
	.st29{fill:#ACAAAB;}
	.st30{fill:#ACAAAA;}
	.st31{fill:#ABA9AA;}
	.st32{fill:#AAA8A9;}
	.st33{fill:#A9A7A8;}
	.st34{fill:#A8A6A7;}
	.st35{fill:#A7A5A6;}
	.st36{fill:#A7A5A5;}
	.st37{fill:#A6A4A5;}
	.st38{fill:#A5A4A4;}
	.st39{fill:#A5A3A4;}
	.st40{fill:#A4A2A3;}
	.st41{fill:#A3A1A2;}
	.st42{fill:#A2A0A1;}
	.st43{fill:#A19FA0;}
	.st44{fill:#A09F9F;}
	.st45{fill:#A09E9F;}
	.st46{fill:#9F9E9E;}
	.st47{fill:#9F9D9E;}
	.st48{fill:#9E9D9D;}
	.st49{fill:#9E9C9D;}
	.st50{fill:#9D9B9C;}
	.st51{fill:#9C9A9B;}
	.st52{fill:#9B9A9B;}
	.st53{fill:#9B999A;}
	.st54{fill:#9A9999;}
	.st55{fill:#9A9899;}
	.st56{fill:#999898;}
	.st57{fill:#999798;}
	.st58{fill:#989797;}
	.st59{fill:#989697;}
	.st60{fill:#979596;}
	.st61{fill:#969596;}
	.st62{fill:#969495;}
	.st63{fill:#959495;}
	.st64{fill:#959394;}
	.st65{fill:#949393;}
	.st66{fill:#949293;}
	.st67{fill:#939292;}
	.st68{fill:#939192;}
	.st69{fill:#929191;}
	.st70{fill:#919091;}
	.st71{fill:#919090;}
	.st72{fill:#908F90;}
	.st73{fill:#908E8F;}
	.st74{fill:#8F8E8F;}
	.st75{fill:#8F8D8E;}
	.st76{fill:#8E8D8D;}
	.st77{fill:#8E8C8D;}
	.st78{fill:#8D8C8C;}
	.st79{fill:#8C8B8C;}
	.st80{fill:#8C8B8B;}
	.st81{fill:#8B8A8B;}
	.st82{fill:#8B8A8A;}
	.st83{fill:#8A898A;}
	.st84{fill:#8A8889;}
	.st85{fill:#898888;}
	.st86{fill:#898788;}
	.st87{fill:#888787;}
	.st88{fill:#878687;}
	.st89{fill:#878686;}
	.st90{fill:#868586;}
	.st91{fill:#868585;}
	.st92{fill:#858485;}
	.st93{fill:#858484;}
	.st94{fill:#848384;}
	.st95{fill:#848383;}
	.st96{fill:#838282;}
	.st97{fill:#828182;}
	.st98{fill:#828181;}
	.st99{fill:#818081;}
	.st100{fill:#818080;}
	.st101{fill:#807F80;}
	.st102{fill:#807F7F;}
	.st103{fill:#7F7E7F;}
	.st104{fill:#7F7E7E;}
	.st105{fill:#7E7D7E;}
	.st106{fill:#7D7D7D;}
	.st107{fill:#7D7C7C;}
	.st108{fill:#7C7B7C;}
	.st109{fill:#7C7B7B;}
	.st110{fill:#7B7A7B;}
	.st111{fill:#7B7A7A;}
	.st112{fill:#7A797A;}
	.st113{fill:#7A7979;}
	.st114{fill:#797879;}
	.st115{fill:#787878;}
	.st116{fill:#787778;}
	.st117{fill:#777777;}
	.st118{fill:#777676;}
	.st119{fill:#767676;}
	.st120{fill:#767575;}
	.st121{fill:#757475;}
	.st122{fill:#757474;}
	.st123{fill:#747374;}
	.st124{fill:#737373;}
	.st125{fill:#737273;}
	.st126{fill:#727272;}
	.st127{fill:#727172;}
	.st128{fill:#717171;}
	.st129{fill:#717070;}
	.st130{fill:#707070;}
	.st131{fill:#706F6F;}
	.st132{fill:#6F6E6F;}
	.st133{fill:#6E6E6E;}
	.st134{fill:#6E6D6E;}
	.st135{fill:#6D6D6D;}
	.st136{fill:#6D6C6D;}
	.st137{fill:#6C6C6C;}
	.st138{fill:#6C6B6C;}
	.st139{fill:#6B6B6B;}
	.st140{fill:#6B6A6A;}
	.st141{fill:#6A6A6A;}
	.st142{fill:#696969;}
	.st143{fill:#686868;}
	.st144{fill:#686768;}
	.st145{fill:#676767;}
	.st146{fill:#676667;}
	.st147{fill:#666666;}
	.st148{fill:#666566;}
	.st149{fill:#656565;}
	.st150{fill:#646464;}
	.st151{fill:#636363;}
	.st152{fill:#626262;}
	.st153{fill:#626162;}
	.st154{fill:#616161;}
	.st155{fill:#616061;}
	.st156{fill:#606060;}
	.st157{fill:#5F5F60;}
	.st158{fill:#5F5F5F;}
	.st159{fill:#5E5E5E;}
	.st160{fill:#5D5D5D;}
	.st161{fill:#5C5C5C;}
	.st162{fill:#5B5B5B;}
	.st163{fill:#5A5A5B;}
	.st164{fill:#5A5A5A;}
	.st165{fill:#59595A;}
	.st166{fill:#595959;}
	.st167{fill:#585858;}
	.st168{fill:#575757;}
	.st169{fill:#565656;}
	.st170{fill:#555656;}
	.st171{fill:#555555;}
	.st172{fill:#545455;}
	.st173{fill:#545454;}
	.st174{fill:#535353;}
	.st175{fill:#525252;}
	.st176{fill:#515151;}
	.st177{fill:#505151;}
	.st178{fill:#505050;}
	.st179{fill:#4F5050;}
	.st180{fill:#4F4F4F;}
	.st181{fill:#4E4F4F;}
	.st182{fill:#4E4E4E;}
	.st183{fill:#4D4D4D;}
	.st184{fill:#4C4C4C;}
	.st185{fill:url(#SVGID_1_);}
	.st186{fill:url(#SVGID_2_);}
	.st187{fill:var(--vitamui-primary);}
	.st188{fill-rule:evenodd;clip-rule:evenodd;fill:url(#SVGID_3_);}
	.st189{fill-rule:evenodd;clip-rule:evenodd;fill:url(#SVGID_4_);}
	.st190{fill:url(#SVGID_5_);}
	.st191{fill:url(#SVGID_6_);}
	.st192{fill-rule:evenodd;clip-rule:evenodd;fill:url(#SVGID_7_);}
	.st193{fill:var(--vitamui-primary-300);}
	.st194{fill-rule:evenodd;clip-rule:evenodd;fill:url(#SVGID_8_);}
	.st195{fill-rule:evenodd;clip-rule:evenodd;fill:url(#SVGID_9_);}
	.st196{fill-rule:evenodd;clip-rule:evenodd;fill:url(#SVGID_10_);}
	.st197{fill-rule:evenodd;clip-rule:evenodd;fill:url(#SVGID_11_);}
	.st198{fill-rule:evenodd;clip-rule:evenodd;fill:url(#SVGID_12_);}
	.st199{fill-rule:evenodd;clip-rule:evenodd;fill:url(#SVGID_13_);}
	.st200{fill-rule:evenodd;clip-rule:evenodd;fill:url(#SVGID_14_);}
	.st201{fill-rule:evenodd;clip-rule:evenodd;fill:url(#SVGID_15_);}
	.st202{fill-rule:evenodd;clip-rule:evenodd;fill:url(#SVGID_16_);}
	.st203{fill-rule:evenodd;clip-rule:evenodd;fill:url(#SVGID_17_);}
	.st204{fill-rule:evenodd;clip-rule:evenodd;fill:url(#SVGID_18_);}
	.st205{fill-rule:evenodd;clip-rule:evenodd;fill:url(#SVGID_19_);}
	.st206{fill-rule:evenodd;clip-rule:evenodd;fill:url(#SVGID_20_);}
	.st207{fill-rule:evenodd;clip-rule:evenodd;fill:url(#SVGID_21_);}
	.st208{fill-rule:evenodd;clip-rule:evenodd;fill:url(#SVGID_22_);}
	.st209{fill-rule:evenodd;clip-rule:evenodd;fill:url(#SVGID_23_);}
	.st210{fill-rule:evenodd;clip-rule:evenodd;fill:url(#SVGID_24_);}
	.st211{fill-rule:evenodd;clip-rule:evenodd;fill:url(#SVGID_25_);}
	.st212{fill-rule:evenodd;clip-rule:evenodd;fill:url(#SVGID_26_);}
	.st213{fill-rule:evenodd;clip-rule:evenodd;fill:url(#SVGID_27_);}
	.st214{fill-rule:evenodd;clip-rule:evenodd;fill:url(#SVGID_28_);}
	.st215{fill-rule:evenodd;clip-rule:evenodd;fill:url(#SVGID_29_);}
	.st216{fill-rule:evenodd;clip-rule:evenodd;fill:url(#SVGID_30_);}
	.st217{fill:url(#SVGID_31_);}
	.st218{fill:url(#SVGID_32_);}
	.st219{fill:url(#SVGID_33_);}
	.st220{fill:url(#SVGID_34_);}
	.st221{fill:#FFFFFF;}
</style>
<metadata>
	<sfw  xmlns="&ns_sfw;">
		<slices></slices>
		<sliceSourceBounds  bottomLeftOrigin="true" height="132.8" width="165.1" x="19" y="45.1"></sliceSourceBounds>
	</sfw>
</metadata>
<g>
	<g>
		<path class="st0" d="M101.5,115.6c45.6,0,82.6,8.5,82.6,19s-37,20.2-82.6,20.2S19,145.1,19,134.7
			C18.8,124.2,55.8,115.6,101.5,115.6z"/>
		<path class="st1" d="M101.5,116c43.6,0,78.9,8.4,78.9,18.8c0,10.4-35.3,18.8-78.9,18.8s-78.9-8.4-78.9-18.8
			C22.6,124.3,57.9,116,101.5,116z"/>
		<path class="st2" d="M101.5,113.8c43.6,0,78.9,8.4,78.9,18.8c0,10.4-35.3,18.8-78.9,18.8s-78.9-8.4-78.9-18.8
			C22.6,122.1,57.9,113.8,101.5,113.8z"/>
		<path class="st1" d="M101.5,112.7c43.6,0,78.9,8.4,78.9,18.8c0,10.4-35.3,18.8-78.9,18.8s-78.9-8.4-78.9-18.8
			C22.6,120.9,57.9,112.7,101.5,112.7z"/>
		<path class="st3" d="M101.4,112.7c22.9,0,43.4,2.3,57.8,6c-30.2-1.8-112.6,2.6-132.9,18.5c-2.5-1.8-3.8-3.8-3.8-5.7
			C22.4,120.9,57.9,112.7,101.4,112.7z"/>
		<path class="st2" d="M22.6,131.3c0-10.4,35.3-18.8,78.9-18.8s78.9,8.4,78.9,18.8c0,0.4,0,0.6-0.1,1c-2.2-9.8-36.6-17.7-78.8-17.7
			s-76.6,7.9-78.8,17.7C22.6,131.9,22.6,131.7,22.6,131.3z"/>
	</g>
</g>
<g>
	<g>
		
			<ellipse transform="matrix(2.689626e-02 -0.9996 0.9996 2.689626e-02 -75.9312 198.4373)" class="st4" cx="64" cy="138.2" rx="2.1" ry="14.1"/>
		<path class="st5" d="M77.9,138.8c-0.7,1.2-7.6,1.8-15.3,1.5c-7.7-0.3-13.4-1.5-12.6-2.7s7.6-1.8,15.3-1.5S78.6,137.6,77.9,138.8z"
			/>
		<path class="st6" d="M77.8,138.8c-0.7,1.2-7.5,1.8-15.2,1.5c-7.7-0.3-13.3-1.5-12.6-2.7c0.7-1.2,7.5-1.8,15.2-1.5
			S78.5,137.6,77.8,138.8z"/>
		<path class="st7" d="M77.7,138.8c-0.7,1.2-7.5,1.8-15.2,1.5c-7.6-0.3-13.3-1.5-12.5-2.6c0.7-1.1,7.5-1.8,15.2-1.5
			S78.4,137.6,77.7,138.8z"/>
		<path class="st8" d="M77.6,138.8c-0.7,1.1-7.5,1.8-15.1,1.5c-7.6-0.3-13.2-1.5-12.5-2.6c0.7-1.1,7.5-1.8,15.1-1.5
			S78.4,137.6,77.6,138.8z"/>
		<path class="st9" d="M77.6,138.8c-0.7,1.1-7.5,1.8-15,1.5c-7.6-0.3-13.2-1.5-12.4-2.6s7.4-1.8,15-1.5S78.3,137.6,77.6,138.8z"/>
		<path class="st10" d="M77.5,138.8c-0.7,1.1-7.4,1.8-15,1.5c-7.6-0.3-13.1-1.5-12.4-2.6s7.4-1.8,15-1.5S78.2,137.7,77.5,138.8z"/>
		<path class="st11" d="M77.4,138.8c-0.7,1.1-7.4,1.8-14.9,1.5c-7.5-0.3-13.1-1.5-12.3-2.6c0.7-1.1,7.4-1.8,14.9-1.5
			S78.1,137.7,77.4,138.8z"/>
		<path class="st12" d="M77.3,138.8c-0.7,1.1-7.4,1.8-14.9,1.5c-7.5-0.3-13-1.5-12.3-2.6s7.4-1.8,14.9-1.5S78,137.7,77.3,138.8z"/>
		<path class="st13" d="M77.2,138.8c-0.7,1.1-7.3,1.8-14.8,1.5c-7.5-0.3-12.9-1.5-12.2-2.6s7.3-1.8,14.8-1.5S77.9,137.7,77.2,138.8z
			"/>
		<path class="st14" d="M77.1,138.8c-0.7,1.1-7.3,1.8-14.7,1.5c-7.4-0.3-12.9-1.5-12.2-2.6c0.7-1.1,7.3-1.8,14.7-1.5
			S77.9,137.7,77.1,138.8z"/>
		<path class="st15" d="M77.1,138.8c-0.7,1.1-7.3,1.8-14.7,1.5c-7.4-0.3-12.8-1.5-12.1-2.6c0.7-1.1,7.3-1.8,14.7-1.5
			S77.8,137.7,77.1,138.8z"/>
		<path class="st16" d="M77,138.8c-0.7,1.1-7.2,1.8-14.6,1.5c-7.4-0.3-12.8-1.4-12.1-2.6c0.7-1.1,7.2-1.8,14.6-1.5
			S77.7,137.7,77,138.8z"/>
		<path class="st17" d="M76.9,138.8c-0.7,1.1-7.2,1.8-14.5,1.5c-7.3-0.3-12.7-1.4-12-2.5s7.2-1.8,14.5-1.5
			C72.2,136.5,77.6,137.7,76.9,138.8z"/>
		<path class="st17" d="M76.8,138.8c-0.7,1.1-7.2,1.8-14.5,1.4c-7.3-0.3-12.7-1.4-12-2.5c0.7-1.1,7.2-1.7,14.5-1.4
			S77.5,137.7,76.8,138.8z"/>
		<path class="st18" d="M76.7,138.8c-0.7,1.1-7.2,1.7-14.4,1.4c-7.3-0.3-12.6-1.4-11.9-2.5c0.7-1.1,7.1-1.7,14.4-1.4
			S77.4,137.7,76.7,138.8z"/>
		<path class="st19" d="M76.6,138.8c-0.7,1.1-7.1,1.7-14.4,1.4c-7.2-0.3-12.6-1.4-11.9-2.5c0.7-1.1,7.1-1.7,14.4-1.4
			C72,136.6,77.3,137.7,76.6,138.8z"/>
		<path class="st20" d="M76.6,138.8c-0.7,1.1-7.1,1.7-14.3,1.4c-7.2-0.3-12.5-1.4-11.8-2.5s7.1-1.7,14.3-1.4S77.3,137.7,76.6,138.8z
			"/>
		<path class="st21" d="M76.5,138.8c-0.7,1.1-7.1,1.7-14.2,1.4c-7.2-0.3-12.5-1.4-11.8-2.5s7.1-1.7,14.2-1.4
			C71.9,136.6,77.2,137.7,76.5,138.8z"/>
		<path class="st22" d="M76.4,138.8c-0.7,1.1-7,1.7-14.2,1.4c-7.2-0.3-12.4-1.4-11.7-2.5c0.7-1.1,7-1.7,14.2-1.4
			C71.8,136.6,77.1,137.7,76.4,138.8z"/>
		<path class="st23" d="M76.3,138.8c-0.7,1.1-7,1.7-14.1,1.4c-7.1-0.3-12.4-1.4-11.7-2.5c0.7-1.1,7-1.7,14.1-1.4
			C71.7,136.6,77,137.7,76.3,138.8z"/>
		<path class="st24" d="M76.2,138.8c-0.7,1.1-7,1.7-14.1,1.4c-7.1-0.3-12.3-1.4-11.6-2.5s7-1.7,14.1-1.4S76.9,137.7,76.2,138.8z"/>
		<path class="st25" d="M76.1,138.8c-0.7,1.1-7,1.7-14,1.4c-7.1-0.3-12.3-1.4-11.6-2.5s6.9-1.7,14-1.4
			C71.6,136.6,76.8,137.7,76.1,138.8z"/>
		<path class="st25" d="M76.1,138.8c-0.7,1.1-6.9,1.7-13.9,1.4c-7-0.3-12.2-1.4-11.5-2.4c0.7-1.1,6.9-1.7,13.9-1.4
			C71.6,136.6,76.7,137.7,76.1,138.8z"/>
		<path class="st26" d="M76,138.8c-0.7,1.1-6.9,1.7-13.9,1.4c-7-0.3-12.1-1.4-11.5-2.4c0.7-1.1,6.9-1.7,13.9-1.4
			S76.7,137.7,76,138.8z"/>
		<path class="st26" d="M75.9,138.8c-0.7,1.1-6.9,1.7-13.8,1.4c-7-0.3-12.1-1.4-11.4-2.4s6.8-1.7,13.8-1.4
			C71.4,136.6,76.6,137.7,75.9,138.8z"/>
		<path class="st27" d="M75.8,138.8c-0.7,1.1-6.8,1.7-13.8,1.4c-6.9-0.3-12-1.4-11.4-2.4s6.8-1.7,13.8-1.4S76.5,137.7,75.8,138.8z"
			/>
		<path class="st28" d="M75.7,138.8c-0.7,1.1-6.8,1.7-13.7,1.4c-6.9-0.3-12-1.4-11.3-2.4c0.7-1,6.8-1.7,13.7-1.4
			C71.3,136.7,76.4,137.7,75.7,138.8z"/>
		<path class="st29" d="M75.6,138.8c-0.7,1-6.8,1.6-13.6,1.4c-6.9-0.3-11.9-1.4-11.3-2.4c0.6-1,6.8-1.6,13.6-1.4
			C71.2,136.7,76.3,137.8,75.6,138.8z"/>
		<path class="st30" d="M75.6,138.8c-0.7,1-6.8,1.6-13.6,1.4c-6.8-0.3-11.9-1.3-11.2-2.4c0.6-1,6.7-1.6,13.6-1.4
			S76.2,137.8,75.6,138.8z"/>
		<path class="st31" d="M75.5,138.8c-0.7,1-6.7,1.6-13.5,1.3c-6.8-0.3-11.8-1.3-11.2-2.4c0.6-1,6.7-1.6,13.5-1.3
			C71.1,136.7,76.1,137.8,75.5,138.8z"/>
		<path class="st32" d="M75.4,138.8c-0.7,1-6.7,1.6-13.5,1.3c-6.8-0.3-11.8-1.3-11.1-2.4c0.6-1,6.7-1.6,13.5-1.3
			C71,136.7,76.1,137.8,75.4,138.8z"/>
		<path class="st32" d="M75.3,138.8c-0.7,1-6.7,1.6-13.4,1.3c-6.8-0.3-11.7-1.3-11.1-2.3c0.6-1,6.6-1.6,13.4-1.3
			C71,136.7,76,137.8,75.3,138.8z"/>
		<path class="st33" d="M75.2,138.8c-0.7,1-6.6,1.6-13.3,1.3c-6.7-0.3-11.7-1.3-11-2.3s6.6-1.6,13.3-1.3
			C70.9,136.7,75.9,137.8,75.2,138.8z"/>
		<path class="st33" d="M75.1,138.8c-0.7,1-6.6,1.6-13.3,1.3c-6.7-0.3-11.6-1.3-11-2.3s6.6-1.6,13.3-1.3
			C70.9,136.7,75.8,137.8,75.1,138.8z"/>
		<path class="st34" d="M75.1,138.8c-0.7,1-6.6,1.6-13.2,1.3c-6.7-0.3-11.6-1.3-10.9-2.3s6.5-1.6,13.2-1.3
			C70.8,136.7,75.7,137.8,75.1,138.8z"/>
		<path class="st34" d="M75,138.8c-0.7,1-6.6,1.6-13.1,1.3c-6.6-0.3-11.5-1.3-10.9-2.3c0.6-1,6.5-1.6,13.1-1.3
			C70.7,136.7,75.6,137.8,75,138.8z"/>
		<path class="st35" d="M74.9,138.8c-0.7,1-6.5,1.6-13.1,1.3c-6.6-0.3-11.4-1.3-10.8-2.3c0.6-1,6.5-1.6,13.1-1.3
			C70.7,136.7,75.5,137.8,74.9,138.8z"/>
		<path class="st36" d="M74.8,138.8c-0.7,1-6.5,1.6-13,1.3c-6.6-0.3-11.4-1.3-10.8-2.3c0.6-1,6.5-1.6,13-1.3
			C70.6,136.7,75.5,137.8,74.8,138.8z"/>
		<path class="st37" d="M74.7,138.8c-0.7,1-6.5,1.6-13,1.3c-6.5-0.3-11.3-1.3-10.7-2.3c0.6-1,6.4-1.6,13-1.3
			C70.5,136.8,75.4,137.8,74.7,138.8z"/>
		<path class="st38" d="M74.6,138.8c-0.7,1-6.4,1.6-12.9,1.3c-6.5-0.3-11.3-1.3-10.7-2.3c0.6-1,6.4-1.6,12.9-1.3
			C70.5,136.8,75.3,137.8,74.6,138.8z"/>
		<path class="st39" d="M74.6,138.8c-0.7,1-6.4,1.6-12.8,1.3c-6.5-0.3-11.2-1.3-10.6-2.3c0.6-1,6.4-1.6,12.8-1.3
			C70.4,136.8,75.2,137.8,74.6,138.8z"/>
		<path class="st40" d="M74.5,138.8c-0.7,1-6.4,1.5-12.8,1.3c-6.4-0.3-11.2-1.3-10.6-2.2c0.6-1,6.3-1.5,12.8-1.3
			C70.3,136.8,75.1,137.8,74.5,138.8z"/>
		<path class="st40" d="M74.4,138.8c-0.7,1-6.3,1.5-12.7,1.3c-6.4-0.3-11.1-1.3-10.5-2.2c0.6-1,6.3-1.5,12.7-1.3
			C70.3,136.8,75,137.8,74.4,138.8z"/>
		<path class="st41" d="M74.3,138.8c-0.7,1-6.3,1.5-12.7,1.3c-6.4-0.3-11.1-1.3-10.5-2.2c0.6-1,6.3-1.5,12.7-1.3
			C70.2,136.8,74.9,137.8,74.3,138.8z"/>
		<path class="st41" d="M74.2,138.8c-0.7,1-6.3,1.5-12.6,1.3c-6.4-0.3-11-1.3-10.4-2.2c0.6-1,6.2-1.5,12.6-1.3
			C70.2,136.8,74.9,137.8,74.2,138.8z"/>
		<path class="st42" d="M74.1,138.8c-0.7,1-6.3,1.5-12.5,1.3c-6.3-0.3-11-1.3-10.4-2.2c0.6-1,6.2-1.5,12.5-1.3
			C70.1,136.8,74.8,137.8,74.1,138.8z"/>
		<path class="st42" d="M74.1,138.8c-0.7,1-6.2,1.5-12.5,1.2c-6.3-0.3-10.9-1.2-10.3-2.2c0.6-0.9,6.2-1.5,12.5-1.2
			C70,136.8,74.7,137.8,74.1,138.8z"/>
		<path class="st43" d="M74,138.8c-0.7,1-6.2,1.5-12.4,1.2c-6.3-0.3-10.9-1.2-10.3-2.2c0.6-0.9,6.1-1.5,12.4-1.2
			S74.6,137.8,74,138.8z"/>
		<path class="st44" d="M73.9,138.8c-0.7,1-6.2,1.5-12.4,1.2c-6.2-0.3-10.8-1.2-10.2-2.2c0.6-0.9,6.1-1.5,12.4-1.2
			C69.9,136.8,74.5,137.8,73.9,138.8z"/>
		<path class="st45" d="M73.8,138.7c-0.7,1-6.1,1.5-12.3,1.2c-6.2-0.3-10.8-1.2-10.2-2.2c0.6-0.9,6.1-1.5,12.3-1.2
			S74.4,137.8,73.8,138.7z"/>
		<path class="st46" d="M73.7,138.7c-0.7,1-6.1,1.5-12.2,1.2c-6.2-0.3-10.7-1.2-10.1-2.2c0.6-0.9,6.1-1.5,12.2-1.2
			S74.3,137.9,73.7,138.7z"/>
		<path class="st47" d="M73.6,138.7c-0.7,0.9-6.1,1.5-12.2,1.2c-6.1-0.3-10.6-1.2-10.1-2.1c0.6-0.9,6-1.5,12.2-1.2
			C69.7,136.9,74.3,137.9,73.6,138.7z"/>
		<path class="st48" d="M73.6,138.7c-0.7,0.9-6.1,1.5-12.1,1.2c-6.1-0.3-10.6-1.2-10-2.1c0.6-0.9,6-1.5,12.1-1.2
			S74.2,137.9,73.6,138.7z"/>
		<path class="st49" d="M73.5,138.7c-0.7,0.9-6,1.5-12,1.2c-6.1-0.3-10.5-1.2-10-2.1c0.6-0.9,6-1.5,12-1.2S74.1,137.9,73.5,138.7z"
			/>
		<path class="st50" d="M73.4,138.7c-0.7,0.9-6,1.5-12,1.2c-6-0.3-10.5-1.2-9.9-2.1c0.6-0.9,5.9-1.4,12-1.2
			C69.5,136.9,74,137.9,73.4,138.7z"/>
		<path class="st50" d="M73.3,138.7c-0.7,0.9-6,1.4-11.9,1.2c-6-0.3-10.4-1.2-9.9-2.1c0.6-0.9,5.9-1.4,11.9-1.2
			S73.9,137.9,73.3,138.7z"/>
		<path class="st51" d="M73.2,138.7c-0.7,0.9-5.9,1.4-11.9,1.2c-6-0.3-10.4-1.2-9.8-2.1c0.6-0.9,5.9-1.4,11.9-1.2
			S73.8,137.9,73.2,138.7z"/>
		<path class="st52" d="M73.1,138.7c-0.7,0.9-5.9,1.4-11.8,1.2c-6-0.3-10.3-1.2-9.8-2.1c0.6-0.9,5.8-1.4,11.8-1.2
			C69.3,136.9,73.7,137.9,73.1,138.7z"/>
		<path class="st53" d="M73.1,138.7c-0.7,0.9-5.9,1.4-11.7,1.2c-5.9-0.3-10.3-1.2-9.7-2.1c0.6-0.9,5.8-1.4,11.7-1.2
			S73.7,137.9,73.1,138.7z"/>
		<path class="st54" d="M73,138.7c-0.7,0.9-5.9,1.4-11.7,1.2c-5.9-0.3-10.2-1.2-9.7-2.1c0.6-0.9,5.8-1.4,11.7-1.2
			S73.6,137.9,73,138.7z"/>
		<path class="st55" d="M72.9,138.7c-0.6,0.9-5.8,1.4-11.6,1.2c-5.9-0.3-10.2-1.2-9.6-2c0.6-0.9,5.8-1.4,11.6-1.2
			C69.1,136.9,73.5,137.9,72.9,138.7z"/>
		<path class="st56" d="M72.8,138.7c-0.6,0.9-5.8,1.4-11.6,1.2c-5.8-0.3-10.1-1.2-9.6-2s5.7-1.4,11.6-1.2S73.4,137.9,72.8,138.7z"/>
		<path class="st57" d="M72.7,138.7c-0.6,0.9-5.8,1.4-11.5,1.1c-5.8-0.3-10.1-1.2-9.5-2s5.7-1.4,11.5-1.1S73.3,137.9,72.7,138.7z"/>
		<path class="st58" d="M72.6,138.7c-0.6,0.9-5.7,1.4-11.4,1.1c-5.8-0.3-10-1.1-9.5-2c0.5-0.9,5.7-1.4,11.4-1.1
			C68.9,137,73.2,137.9,72.6,138.7z"/>
		<path class="st59" d="M72.6,138.7c-0.6,0.9-5.7,1.4-11.4,1.1c-5.7-0.3-10-1.1-9.4-2c0.5-0.9,5.6-1.4,11.4-1.1
			S73.1,137.9,72.6,138.7z"/>
		<path class="st60" d="M72.5,138.7c-0.6,0.9-5.7,1.4-11.3,1.1c-5.7-0.3-9.9-1.1-9.4-2c0.5-0.9,5.6-1.4,11.3-1.1
			S73.1,137.9,72.5,138.7z"/>
		<path class="st61" d="M72.4,138.7c-0.6,0.9-5.6,1.4-11.3,1.1c-5.7-0.3-9.8-1.1-9.3-2c0.5-0.9,5.6-1.4,11.3-1.1
			S73,137.9,72.4,138.7z"/>
		<path class="st62" d="M72.3,138.7c-0.6,0.9-5.6,1.4-11.2,1.1c-5.6-0.3-9.8-1.1-9.3-2c0.5-0.9,5.5-1.4,11.2-1.1
			S72.9,137.9,72.3,138.7z"/>
		<path class="st63" d="M72.2,138.7c-0.6,0.9-5.6,1.4-11.1,1.1c-5.6-0.3-9.7-1.1-9.2-2c0.5-0.8,5.5-1.3,11.1-1.1
			S72.8,137.9,72.2,138.7z"/>
		<path class="st64" d="M72.1,138.7c-0.6,0.9-5.6,1.3-11.1,1.1c-5.6-0.3-9.7-1.1-9.2-2s5.5-1.3,11.1-1.1S72.7,137.9,72.1,138.7z"/>
		<path class="st65" d="M72.1,138.7c-0.6,0.9-5.5,1.3-11,1.1c-5.6-0.3-9.6-1.1-9.1-1.9s5.5-1.3,11-1.1S72.6,137.9,72.1,138.7z"/>
		<path class="st66" d="M72,138.7c-0.6,0.9-5.5,1.3-11,1.1c-5.5-0.3-9.6-1.1-9.1-1.9s5.4-1.3,11-1.1S72.5,137.9,72,138.7z"/>
		<path class="st67" d="M71.9,138.7c-0.6,0.9-5.5,1.3-10.9,1.1c-5.5-0.3-9.5-1.1-9-1.9c0.5-0.8,5.4-1.3,10.9-1.1
			S72.5,137.9,71.9,138.7z"/>
		<path class="st68" d="M71.8,138.7c-0.6,0.9-5.4,1.3-10.8,1.1c-5.5-0.2-9.5-1.1-9-1.9c0.5-0.8,5.4-1.3,10.8-1.1
			S72.4,138,71.8,138.7z"/>
		<path class="st69" d="M71.7,138.7c-0.6,0.9-5.4,1.3-10.8,1.1c-5.4-0.2-9.4-1.1-8.9-1.9c0.5-0.8,5.3-1.3,10.8-1.1
			S72.3,138,71.7,138.7z"/>
		<path class="st70" d="M71.6,138.7c-0.6,0.9-5.4,1.3-10.7,1.1c-5.4-0.2-9.4-1.1-8.9-1.9c0.5-0.8,5.3-1.3,10.7-1.1
			C68.2,137.1,72.2,138,71.6,138.7z"/>
		<path class="st71" d="M71.6,138.7c-0.6,0.8-5.4,1.3-10.6,1.1c-5.4-0.2-9.3-1.1-8.8-1.9c0.5-0.8,5.3-1.3,10.6-1.1
			S72.1,138,71.6,138.7z"/>
		<path class="st72" d="M71.5,138.7c-0.6,0.8-5.3,1.3-10.6,1.1c-5.3-0.2-9.3-1.1-8.8-1.9c0.5-0.8,5.2-1.3,10.6-1.1
			S72,138,71.5,138.7z"/>
		<path class="st73" d="M71.4,138.7c-0.6,0.8-5.3,1.3-10.5,1c-5.3-0.2-9.2-1.1-8.7-1.9c0.5-0.8,5.2-1.3,10.5-1
			C68,137.1,71.9,138,71.4,138.7z"/>
		<path class="st74" d="M71.3,138.7c-0.6,0.8-5.3,1.3-10.5,1c-5.3-0.2-9.2-1.1-8.7-1.9c0.5-0.8,5.2-1.3,10.5-1S71.9,138,71.3,138.7z
			"/>
		<path class="st75" d="M71.2,138.7c-0.6,0.8-5.2,1.3-10.4,1c-5.2-0.2-9.1-1-8.6-1.8c0.5-0.8,5.2-1.3,10.4-1S71.8,138,71.2,138.7z"
			/>
		<path class="st76" d="M71.1,138.7c-0.6,0.8-5.2,1.3-10.3,1c-5.2-0.2-9-1-8.6-1.8c0.5-0.8,5.1-1.3,10.3-1
			C67.8,137.1,71.7,138,71.1,138.7z"/>
		<path class="st77" d="M71.1,138.7c-0.6,0.8-5.2,1.3-10.3,1c-5.2-0.2-9-1-8.5-1.8s5.1-1.2,10.3-1S71.6,138,71.1,138.7z"/>
		<path class="st78" d="M71,138.7c-0.6,0.8-5.2,1.2-10.2,1c-5.2-0.2-8.9-1-8.5-1.8s5.1-1.2,10.2-1S71.5,138,71,138.7z"/>
		<path class="st79" d="M70.9,138.7c-0.6,0.8-5.1,1.2-10.2,1c-5.1-0.2-8.9-1-8.4-1.8c0.5-0.8,5-1.2,10.2-1
			C67.6,137.1,71.4,138,70.9,138.7z"/>
		<path class="st80" d="M70.8,138.7c-0.6,0.8-5.1,1.2-10.1,1c-5.1-0.2-8.8-1-8.4-1.8c0.5-0.8,5-1.2,10.1-1
			C67.5,137.1,71.3,138,70.8,138.7z"/>
		<path class="st81" d="M70.7,138.7c-0.6,0.8-5.1,1.2-10,1c-5.1-0.2-8.8-1-8.3-1.8s5-1.2,10-1S71.3,138,70.7,138.7z"/>
		<path class="st82" d="M70.6,138.7c-0.6,0.8-5,1.2-10,1c-5-0.2-8.7-1-8.3-1.8s4.9-1.2,10-1C67.4,137.2,71.2,138,70.6,138.7z"/>
		<path class="st83" d="M70.6,138.7c-0.6,0.8-5,1.2-9.9,1c-5-0.2-8.7-1-8.2-1.8c0.5-0.8,4.9-1.2,9.9-1
			C67.4,137.2,71.1,138,70.6,138.7z"/>
		<path class="st84" d="M70.5,138.7c-0.6,0.8-5,1.2-9.9,1c-5-0.2-8.6-1-8.2-1.8c0.5-0.8,4.9-1.2,9.9-1S71,138,70.5,138.7z"/>
		<path class="st85" d="M70.4,138.7c-0.6,0.8-4.9,1.2-9.8,1c-4.9-0.2-8.6-1-8.1-1.7c0.5-0.7,4.9-1.2,9.8-1
			C67.2,137.2,70.9,138,70.4,138.7z"/>
		<path class="st86" d="M70.3,138.7c-0.6,0.8-4.9,1.2-9.7,1c-4.9-0.2-8.5-1-8.1-1.7c0.5-0.7,4.8-1.2,9.7-1
			C67.2,137.2,70.8,138,70.3,138.7z"/>
		<path class="st87" d="M70.2,138.7c-0.6,0.8-4.9,1.2-9.7,1c-4.9-0.2-8.5-1-8-1.7c0.5-0.7,4.8-1.2,9.7-1S70.7,138,70.2,138.7z"/>
		<path class="st88" d="M70.1,138.7c-0.6,0.8-4.9,1.2-9.6,1c-4.8-0.2-8.4-1-7.9-1.7c0.5-0.7,4.8-1.2,9.6-1
			C67,137.2,70.7,138,70.1,138.7z"/>
		<path class="st89" d="M70.1,138.7c-0.6,0.8-4.8,1.2-9.6,0.9c-4.8-0.2-8.4-1-7.9-1.7c0.5-0.7,4.7-1.2,9.6-0.9
			C67,137.2,70.6,138,70.1,138.7z"/>
		<path class="st90" d="M70,138.7c-0.6,0.8-4.8,1.2-9.5,0.9c-4.8-0.2-8.3-1-7.8-1.7s4.7-1.1,9.5-0.9S70.5,138.1,70,138.7z"/>
		<path class="st91" d="M69.9,138.7c-0.6,0.8-4.8,1.2-9.4,0.9c-4.8-0.2-8.2-1-7.8-1.7s4.7-1.1,9.4-0.9
			C66.8,137.2,70.4,138.1,69.9,138.7z"/>
		<path class="st92" d="M69.8,138.7c-0.6,0.8-4.7,1.1-9.4,0.9c-4.7-0.2-8.2-1-7.7-1.7s4.6-1.1,9.4-0.9
			C66.8,137.2,70.3,138.1,69.8,138.7z"/>
		<path class="st93" d="M69.7,138.7c-0.6,0.8-4.7,1.1-9.3,0.9c-4.7-0.2-8.1-0.9-7.7-1.7s4.6-1.1,9.3-0.9
			C66.7,137.3,70.2,138.1,69.7,138.7z"/>
		<path class="st94" d="M69.6,138.7c-0.6,0.8-4.7,1.1-9.2,0.9c-4.7-0.2-8.1-0.9-7.6-1.6s4.6-1.1,9.2-0.9
			C66.7,137.3,70.1,138.1,69.6,138.7z"/>
		<path class="st95" d="M69.6,138.7c-0.6,0.7-4.7,1.1-9.2,0.9c-4.6-0.2-8-0.9-7.6-1.6c0.4-0.7,4.6-1.1,9.2-0.9
			C66.6,137.3,70.1,138.1,69.6,138.7z"/>
		<path class="st96" d="M69.5,138.7c-0.6,0.7-4.6,1.1-9.1,0.9c-4.6-0.2-8-0.9-7.5-1.6c0.4-0.7,4.5-1.1,9.1-0.9
			C66.5,137.3,70,138.1,69.5,138.7z"/>
		<path class="st97" d="M69.4,138.7c-0.6,0.7-4.6,1.1-9.1,0.9c-4.6-0.2-7.9-0.9-7.5-1.6c0.4-0.7,4.5-1.1,9.1-0.9
			C66.5,137.3,69.9,138.1,69.4,138.7z"/>
		<path class="st98" d="M69.3,138.7c-0.6,0.7-4.6,1.1-9,0.9c-4.5-0.2-7.9-0.9-7.4-1.6c0.4-0.7,4.5-1.1,9-0.9
			C66.4,137.3,69.8,138.1,69.3,138.7z"/>
		<path class="st99" d="M69.2,138.7c-0.6,0.7-4.5,1.1-8.9,0.9c-4.5-0.2-7.8-0.9-7.4-1.6c0.4-0.7,4.4-1.1,8.9-0.9
			S69.7,138.1,69.2,138.7z"/>
		<path class="st100" d="M69.1,138.7c-0.6,0.7-4.5,1.1-8.9,0.9c-4.5-0.2-7.8-0.9-7.3-1.6c0.4-0.7,4.4-1.1,8.9-0.9
			C66.3,137.3,69.6,138.1,69.1,138.7z"/>
		<path class="st101" d="M69,138.7c-0.6,0.7-4.5,1.1-8.8,0.9c-4.4-0.2-7.7-0.9-7.3-1.6c0.4-0.7,4.4-1.1,8.8-0.9
			C66.2,137.3,69.5,138.1,69,138.7z"/>
		<path class="st102" d="M69,138.7c-0.6,0.7-4.5,1.1-8.8,0.9c-4.4-0.2-7.7-0.9-7.2-1.6s4.3-1.1,8.8-0.9S69.5,138.1,69,138.7z"/>
		<path class="st103" d="M68.9,138.7c-0.6,0.7-4.4,1.1-8.7,0.9c-4.4-0.2-7.6-0.9-7.2-1.6s4.3-1.1,8.7-0.9
			C66.1,137.3,69.4,138.1,68.9,138.7z"/>
		<path class="st104" d="M68.8,138.7c-0.6,0.7-4.4,1.1-8.6,0.9c-4.4-0.2-7.6-0.9-7.1-1.5c0.4-0.7,4.3-1,8.6-0.9
			C66,137.3,69.3,138.1,68.8,138.7z"/>
		<path class="st105" d="M68.7,138.7c-0.6,0.7-4.4,1.1-8.6,0.8c-4.3-0.2-7.5-0.9-7.1-1.5s4.2-1,8.6-0.8S69.2,138.1,68.7,138.7z"/>
		<path class="st106" d="M68.6,138.7c-0.6,0.7-4.3,1-8.5,0.8c-4.3-0.2-7.4-0.9-7-1.5c0.4-0.7,4.2-1,8.5-0.8
			C65.9,137.4,69.1,138.1,68.6,138.7z"/>
		<path class="st107" d="M68.5,138.7c-0.6,0.7-4.3,1-8.5,0.8c-4.3-0.2-7.4-0.9-7-1.5c0.4-0.6,4.2-1,8.5-0.8
			C65.8,137.4,69,138.1,68.5,138.7z"/>
		<path class="st108" d="M68.5,138.7c-0.6,0.7-4.3,1-8.4,0.8c-4.2-0.2-7.3-0.9-6.9-1.5c0.4-0.6,4.2-1,8.4-0.8S68.9,138.1,68.5,138.7
			z"/>
		<path class="st109" d="M68.4,138.7c-0.6,0.7-4.3,1-8.3,0.8c-4.2-0.2-7.3-0.9-6.9-1.5c0.4-0.6,4.1-1,8.3-0.8
			C65.7,137.4,68.9,138.1,68.4,138.7z"/>
		<path class="st110" d="M68.3,138.7c-0.6,0.7-4.2,1-8.3,0.8c-4.2-0.2-7.2-0.8-6.8-1.5c0.4-0.6,4.1-1,8.3-0.8
			C65.6,137.4,68.8,138.1,68.3,138.7z"/>
		<path class="st111" d="M68.2,138.7c-0.6,0.7-4.2,1-8.2,0.8c-4.1-0.2-7.2-0.8-6.8-1.5c0.4-0.6,4.1-1,8.2-0.8S68.7,138.1,68.2,138.7
			z"/>
		<path class="st112" d="M68.1,138.7c-0.6,0.7-4.2,1-8.1,0.8c-4.1-0.2-7.1-0.8-6.7-1.5c0.4-0.6,4-1,8.1-0.8
			C65.5,137.4,68.6,138.1,68.1,138.7z"/>
		<path class="st113" d="M68,138.7c-0.6,0.7-4.1,1-8.1,0.8c-4.1-0.2-7.1-0.8-6.7-1.5c0.4-0.6,4-1,8.1-0.8
			C65.4,137.4,68.5,138.1,68,138.7z"/>
		<path class="st114" d="M68,138.7c-0.6,0.7-4.1,1-8,0.8c-4-0.2-7-0.8-6.6-1.4s4-1,8-0.8S68.4,138.2,68,138.7z"/>
		<path class="st115" d="M67.9,138.7c-0.6,0.7-4.1,1-8,0.8c-4-0.2-7-0.8-6.6-1.4c0.4-0.6,3.9-1,8-0.8S68.3,138.2,67.9,138.7z"/>
		<path class="st116" d="M67.8,138.7c-0.6,0.7-4,1-7.9,0.8c-4-0.2-6.9-0.8-6.5-1.4c0.4-0.6,3.9-1,7.9-0.8S68.3,138.2,67.8,138.7z"/>
		<path class="st117" d="M67.7,138.7c-0.6,0.7-4,1-7.8,0.8c-4-0.2-6.9-0.8-6.5-1.4c0.4-0.6,3.9-1,7.8-0.8S68.2,138.2,67.7,138.7z"/>
		<path class="st118" d="M67.6,138.7c-0.6,0.7-4,1-7.8,0.8c-3.9-0.2-6.8-0.8-6.4-1.4c0.4-0.6,3.9-0.9,7.8-0.8S68.1,138.2,67.6,138.7
			z"/>
		<path class="st119" d="M67.5,138.7c-0.6,0.6-4,1-7.7,0.8c-3.9-0.2-6.8-0.8-6.4-1.4c0.4-0.6,3.8-0.9,7.7-0.8S68,138.2,67.5,138.7z"
			/>
		<path class="st120" d="M67.5,138.7c-0.6,0.6-3.9,0.9-7.7,0.8c-3.9-0.2-6.7-0.8-6.3-1.4c0.4-0.6,3.8-0.9,7.7-0.8
			S67.9,138.2,67.5,138.7z"/>
		<path class="st121" d="M67.4,138.7c-0.6,0.6-3.9,0.9-7.6,0.7c-3.8-0.2-6.6-0.8-6.3-1.4c0.4-0.6,3.8-0.9,7.6-0.7
			S67.8,138.2,67.4,138.7z"/>
		<path class="st122" d="M67.3,138.7c-0.6,0.6-3.9,0.9-7.5,0.7c-3.8-0.2-6.6-0.8-6.2-1.4c0.4-0.6,3.7-0.9,7.5-0.7
			C64.9,137.5,67.7,138.2,67.3,138.7z"/>
		<path class="st123" d="M67.2,138.7c-0.6,0.6-3.8,0.9-7.5,0.7c-3.8-0.2-6.5-0.8-6.2-1.4c0.4-0.6,3.7-0.9,7.5-0.7
			C64.8,137.5,67.7,138.2,67.2,138.7z"/>
		<path class="st124" d="M67.1,138.7c-0.6,0.6-3.8,0.9-7.4,0.7c-3.7-0.2-6.5-0.8-6.1-1.3c0.4-0.6,3.7-0.9,7.4-0.7
			S67.6,138.2,67.1,138.7z"/>
		<path class="st125" d="M67,138.7c-0.6,0.6-3.8,0.9-7.4,0.7c-3.7-0.2-6.4-0.8-6.1-1.3c0.4-0.6,3.6-0.9,7.4-0.7
			C64.7,137.5,67.5,138.2,67,138.7z"/>
		<path class="st126" d="M67,138.7c-0.6,0.6-3.8,0.9-7.3,0.7c-3.7-0.2-6.4-0.8-6-1.3c0.3-0.6,3.6-0.9,7.3-0.7
			C64.6,137.5,67.4,138.2,67,138.7z"/>
		<path class="st127" d="M66.9,138.7c-0.6,0.6-3.7,0.9-7.2,0.7c-3.6-0.2-6.3-0.8-6-1.3c0.3-0.6,3.6-0.9,7.2-0.7
			S67.3,138.2,66.9,138.7z"/>
		<path class="st128" d="M66.8,138.7c-0.6,0.6-3.7,0.9-7.2,0.7c-3.6-0.2-6.3-0.7-5.9-1.3c0.3-0.6,3.6-0.9,7.2-0.7
			C64.5,137.5,67.2,138.2,66.8,138.7z"/>
		<path class="st129" d="M66.7,138.7c-0.6,0.6-3.7,0.9-7.1,0.7c-3.6-0.2-6.2-0.7-5.9-1.3c0.3-0.5,3.5-0.9,7.1-0.7
			C64.4,137.6,67.1,138.2,66.7,138.7z"/>
		<path class="st130" d="M66.6,138.7c-0.6,0.6-3.6,0.9-7.1,0.7c-3.6-0.2-6.2-0.7-5.8-1.3c0.3-0.5,3.5-0.9,7.1-0.7
			S67.1,138.2,66.6,138.7z"/>
		<path class="st131" d="M66.5,138.7c-0.6,0.6-3.6,0.9-7,0.7c-3.5-0.2-6.1-0.7-5.8-1.3c0.3-0.5,3.5-0.8,7-0.7
			C64.3,137.6,67,138.2,66.5,138.7z"/>
		<path class="st132" d="M66.5,138.7c-0.6,0.6-3.6,0.9-6.9,0.7c-3.5-0.2-6.1-0.7-5.7-1.3c0.3-0.5,3.4-0.8,6.9-0.7
			C64.2,137.6,66.9,138.2,66.5,138.7z"/>
		<path class="st133" d="M66.4,138.7c-0.6,0.6-3.6,0.9-6.9,0.7c-3.5-0.2-6-0.7-5.7-1.2c0.3-0.5,3.4-0.8,6.9-0.7
			S66.8,138.2,66.4,138.7z"/>
		<path class="st134" d="M66.3,138.7c-0.6,0.6-3.5,0.8-6.8,0.7c-3.4-0.2-6-0.7-5.6-1.2c0.3-0.5,3.4-0.8,6.8-0.7
			C64.1,137.6,66.7,138.2,66.3,138.7z"/>
		<path class="st135" d="M66.2,138.7c-0.6,0.6-3.5,0.8-6.7,0.7c-3.4-0.2-5.9-0.7-5.6-1.2c0.3-0.5,3.3-0.8,6.7-0.7
			C64,137.6,66.6,138.2,66.2,138.7z"/>
		<path class="st136" d="M66.1,138.7c-0.6,0.6-3.5,0.8-6.7,0.7c-3.4-0.2-5.8-0.7-5.5-1.2c0.3-0.5,3.3-0.8,6.7-0.7
			S66.5,138.2,66.1,138.7z"/>
		<path class="st137" d="M66,138.7c-0.6,0.6-3.4,0.8-6.6,0.6c-3.3-0.2-5.8-0.7-5.5-1.2c0.3-0.5,3.3-0.8,6.6-0.6
			C63.9,137.6,66.5,138.3,66,138.7z"/>
		<path class="st138" d="M66,138.7c-0.6,0.6-3.4,0.8-6.6,0.6c-3.3-0.2-5.7-0.7-5.4-1.2c0.3-0.5,3.3-0.8,6.6-0.6
			C63.8,137.6,66.4,138.3,66,138.7z"/>
		<path class="st139" d="M65.9,138.7c-0.6,0.6-3.4,0.8-6.5,0.6c-3.3-0.2-5.7-0.7-5.4-1.2c0.3-0.5,3.2-0.8,6.5-0.6
			S66.3,138.3,65.9,138.7z"/>
		<path class="st140" d="M65.8,138.7c-0.6,0.6-3.3,0.8-6.4,0.6c-3.2-0.2-5.6-0.7-5.3-1.2s3.2-0.8,6.4-0.6
			C63.7,137.6,66.2,138.3,65.8,138.7z"/>
		<path class="st141" d="M65.7,138.7c-0.5,0.6-3.3,0.8-6.4,0.6c-3.2-0.2-5.6-0.7-5.3-1.2c0.3-0.5,3.2-0.8,6.4-0.6
			C63.7,137.7,66.1,138.3,65.7,138.7z"/>
		<path class="st142" d="M65.6,138.7c-0.5,0.6-3.3,0.8-6.3,0.6c-3.2-0.2-5.5-0.7-5.2-1.2s3.1-0.8,6.3-0.6
			C63.6,137.7,66,138.3,65.6,138.7z"/>
		<path class="st142" d="M65.5,138.7c-0.5,0.5-3.3,0.8-6.3,0.6c-3.2-0.2-5.5-0.7-5.2-1.1c0.3-0.5,3.1-0.8,6.3-0.6
			C63.5,137.7,65.9,138.3,65.5,138.7z"/>
		<path class="st143" d="M65.5,138.7c-0.5,0.5-3.2,0.8-6.2,0.6c-3.1-0.2-5.4-0.7-5.1-1.1c0.3-0.5,3.1-0.8,6.2-0.6
			C63.5,137.7,65.9,138.3,65.5,138.7z"/>
		<path class="st144" d="M65.4,138.7c-0.5,0.5-3.2,0.8-6.1,0.6c-3.1-0.2-5.4-0.6-5.1-1.1c0.3-0.5,3-0.7,6.1-0.6
			C63.4,137.7,65.8,138.3,65.4,138.7z"/>
		<path class="st145" d="M65.3,138.7c-0.5,0.5-3.2,0.8-6.1,0.6c-3.1-0.2-5.3-0.6-5-1.1c0.3-0.5,3-0.7,6.1-0.6
			C63.3,137.7,65.7,138.3,65.3,138.7z"/>
		<path class="st146" d="M65.2,138.7c-0.5,0.5-3.1,0.8-6,0.6c-3-0.2-5.3-0.6-5-1.1c0.3-0.5,3-0.7,6-0.6S65.6,138.3,65.2,138.7z"/>
		<path class="st147" d="M65.1,138.7c-0.5,0.5-3.1,0.7-6,0.6c-3-0.2-5.2-0.6-4.9-1.1c0.3-0.5,3-0.7,6-0.6
			C63.2,137.7,65.5,138.3,65.1,138.7z"/>
		<path class="st148" d="M65,138.7c-0.5,0.5-3.1,0.7-5.9,0.6c-3-0.2-5.2-0.6-4.9-1.1c0.3-0.5,2.9-0.7,5.9-0.6
			C63.1,137.7,65.4,138.3,65,138.7z"/>
		<path class="st149" d="M65,138.7c-0.5,0.5-3.1,0.7-5.8,0.6c-2.9-0.2-5.1-0.6-4.8-1.1c0.3-0.5,2.9-0.7,5.8-0.6S65.3,138.3,65,138.7
			z"/>
		<path class="st150" d="M64.9,138.7c-0.5,0.5-3,0.7-5.8,0.6c-2.9-0.2-5-0.6-4.8-1.1c0.3-0.4,2.9-0.7,5.8-0.6
			C63,137.7,65.3,138.3,64.9,138.7z"/>
		<path class="st150" d="M64.8,138.7c-0.5,0.5-3,0.7-5.7,0.6c-2.9-0.2-5-0.6-4.7-1.1s2.8-0.7,5.7-0.6
			C63,137.7,65.2,138.3,64.8,138.7z"/>
		<path class="st151" d="M64.7,138.7c-0.5,0.5-3,0.7-5.6,0.6c-2.8-0.2-4.9-0.6-4.7-1c0.3-0.4,2.8-0.7,5.7-0.6
			C62.9,137.8,65.1,138.3,64.7,138.7z"/>
		<path class="st151" d="M64.6,138.7c-0.5,0.5-2.9,0.7-5.6,0.5c-2.8-0.2-4.9-0.6-4.6-1c0.3-0.4,2.8-0.7,5.6-0.5
			C62.8,137.8,65,138.3,64.6,138.7z"/>
		<path class="st152" d="M64.5,138.7c-0.5,0.5-2.9,0.7-5.5,0.5c-2.8-0.2-4.8-0.6-4.6-1c0.3-0.4,2.7-0.7,5.5-0.5
			C62.8,137.8,64.9,138.3,64.5,138.7z"/>
		<path class="st153" d="M64.5,138.7c-0.5,0.5-2.9,0.7-5.5,0.5c-2.8-0.2-4.8-0.6-4.5-1c0.3-0.4,2.7-0.7,5.5-0.5
			C62.7,137.8,64.8,138.3,64.5,138.7z"/>
		<path class="st154" d="M64.4,138.7c-0.5,0.5-2.9,0.7-5.4,0.5c-2.7-0.2-4.7-0.6-4.5-1s2.7-0.7,5.4-0.5
			C62.6,137.8,64.7,138.3,64.4,138.7z"/>
		<path class="st155" d="M64.3,138.7c-0.5,0.5-2.8,0.7-5.3,0.5c-2.7-0.2-4.7-0.6-4.4-1c0.3-0.4,2.6-0.7,5.3-0.5
			C62.6,137.8,64.6,138.3,64.3,138.7z"/>
		<path class="st156" d="M64.2,138.7c-0.5,0.5-2.8,0.7-5.3,0.5c-2.7-0.2-4.6-0.6-4.4-1s2.6-0.6,5.3-0.5
			C62.5,137.8,64.6,138.3,64.2,138.7z"/>
		<path class="st157" d="M64.1,138.7c-0.5,0.5-2.8,0.7-5.2,0.5c-2.6-0.2-4.6-0.6-4.3-1s2.6-0.6,5.2-0.5
			C62.4,137.8,64.5,138.3,64.1,138.7z"/>
		<path class="st158" d="M64,138.7c-0.5,0.5-2.7,0.7-5.2,0.5c-2.6-0.2-4.5-0.6-4.3-1c0.2-0.4,2.6-0.6,5.2-0.5
			C62.4,137.8,64.4,138.4,64,138.7z"/>
		<path class="st159" d="M64,138.7c-0.5,0.5-2.7,0.6-5.1,0.5c-2.6-0.2-4.5-0.6-4.2-1c0.2-0.4,2.5-0.6,5.1-0.5
			C62.3,137.8,64.3,138.4,64,138.7z"/>
		<path class="st159" d="M63.9,138.7c-0.5,0.5-2.7,0.6-5,0.5c-2.5-0.2-4.4-0.5-4.2-0.9c0.2-0.4,2.5-0.6,5-0.5
			C62.3,137.8,64.2,138.4,63.9,138.7z"/>
		<path class="st160" d="M63.8,138.7c-0.5,0.5-2.6,0.6-5,0.5c-2.5-0.2-4.4-0.5-4.1-0.9c0.2-0.4,2.5-0.6,5-0.5
			C62.2,137.8,64.1,138.4,63.8,138.7z"/>
		<path class="st160" d="M63.7,138.7c-0.5,0.5-2.6,0.6-4.9,0.5c-2.5-0.2-4.3-0.5-4.1-0.9c0.2-0.4,2.4-0.6,4.9-0.5
			S64,138.4,63.7,138.7z"/>
		<path class="st161" d="M63.6,138.7c-0.5,0.4-2.6,0.6-4.9,0.5c-2.4-0.2-4.2-0.5-4-0.9c0.2-0.4,2.4-0.6,4.9-0.5
			C62.1,137.9,64,138.4,63.6,138.7z"/>
		<path class="st161" d="M63.5,138.7c-0.5,0.4-2.6,0.6-4.8,0.5c-2.4-0.2-4.2-0.5-4-0.9s2.4-0.6,4.8-0.5
			C62,137.9,63.9,138.4,63.5,138.7z"/>
		<path class="st162" d="M63.5,138.6c-0.5,0.4-2.5,0.6-4.7,0.5c-2.4-0.2-4.1-0.5-3.9-0.9s2.3-0.6,4.7-0.5S63.8,138.4,63.5,138.6z"/>
		<path class="st163" d="M63.4,138.6c-0.5,0.4-2.5,0.6-4.7,0.5c-2.4-0.2-4.1-0.5-3.9-0.9s2.3-0.6,4.7-0.5
			C61.9,137.9,63.7,138.4,63.4,138.6z"/>
		<path class="st164" d="M63.3,138.6c-0.5,0.4-2.5,0.6-4.6,0.4c-2.3-0.2-4-0.5-3.8-0.9c0.2-0.4,2.3-0.6,4.6-0.4
			C61.8,137.9,63.6,138.4,63.3,138.6z"/>
		<path class="st165" d="M63.2,138.6c-0.5,0.4-2.4,0.6-4.6,0.4c-2.3-0.2-4-0.5-3.8-0.9s2.3-0.6,4.6-0.4S63.5,138.4,63.2,138.6z"/>
		<path class="st166" d="M63.1,138.6c-0.5,0.4-2.4,0.6-4.5,0.4c-2.3-0.2-3.9-0.5-3.7-0.8s2.2-0.5,4.5-0.4S63.4,138.4,63.1,138.6z"/>
		<path class="st167" d="M63,138.6c-0.5,0.4-2.4,0.6-4.4,0.4c-2.2-0.2-3.9-0.5-3.7-0.8c0.2-0.3,2.2-0.5,4.4-0.4
			C61.6,137.9,63.4,138.4,63,138.6z"/>
		<path class="st167" d="M63,138.6c-0.5,0.4-2.4,0.6-4.4,0.4c-2.2-0.2-3.8-0.5-3.6-0.8c0.2-0.3,2.2-0.5,4.4-0.4
			C61.6,137.9,63.3,138.4,63,138.6z"/>
		<path class="st168" d="M62.9,138.6c-0.5,0.4-2.3,0.6-4.3,0.4c-2.2-0.2-3.8-0.5-3.6-0.8c0.2-0.3,2.1-0.5,4.3-0.4
			C61.5,137.9,63.2,138.4,62.9,138.6z"/>
		<path class="st168" d="M62.8,138.6c-0.5,0.4-2.3,0.5-4.2,0.4c-2.1-0.2-3.7-0.5-3.5-0.8c0.2-0.3,2.1-0.5,4.2-0.4
			C61.4,137.9,63.1,138.4,62.8,138.6z"/>
		<path class="st169" d="M62.7,138.6c-0.5,0.4-2.3,0.5-4.2,0.4c-2.1-0.2-3.7-0.5-3.5-0.8s2.1-0.5,4.2-0.4
			C61.4,138,63,138.4,62.7,138.6z"/>
		<path class="st170" d="M62.6,138.6c-0.5,0.4-2.2,0.5-4.1,0.4c-2.1-0.2-3.6-0.5-3.4-0.8c0.2-0.3,2-0.5,4.1-0.4
			C61.3,138,62.9,138.4,62.6,138.6z"/>
		<path class="st171" d="M62.5,138.6c-0.5,0.4-2.2,0.5-4.1,0.4c-2-0.2-3.6-0.5-3.4-0.8c0.2-0.3,2-0.5,4.1-0.4
			C61.2,138,62.8,138.4,62.5,138.6z"/>
		<path class="st172" d="M62.5,138.6c-0.5,0.4-2.2,0.5-4,0.4c-2-0.2-3.5-0.4-3.3-0.8s2-0.5,4-0.4S62.8,138.4,62.5,138.6z"/>
		<path class="st173" d="M62.4,138.6c-0.5,0.4-2.2,0.5-3.9,0.4c-2-0.1-3.4-0.4-3.3-0.8s2-0.5,3.9-0.4
			C61.1,138,62.7,138.4,62.4,138.6z"/>
		<path class="st174" d="M62.3,138.6c-0.5,0.4-2.1,0.5-3.9,0.4c-2-0.1-3.4-0.4-3.2-0.7s1.9-0.5,3.9-0.4
			C61,138,62.6,138.4,62.3,138.6z"/>
		<path class="st174" d="M62.2,138.6c-0.5,0.4-2.1,0.5-3.8,0.4c-1.9-0.1-3.3-0.4-3.2-0.7c0.2-0.3,1.9-0.5,3.8-0.4
			S62.5,138.4,62.2,138.6z"/>
		<path class="st175" d="M62.1,138.6c-0.5,0.4-2.1,0.5-3.8,0.4c-1.9-0.1-3.3-0.4-3.1-0.7c0.2-0.3,1.9-0.5,3.8-0.4
			S62.4,138.4,62.1,138.6z"/>
		<path class="st175" d="M62,138.6c-0.5,0.4-2,0.5-3.7,0.4c-1.9-0.1-3.2-0.4-3.1-0.7s1.8-0.5,3.7-0.4C60.9,138,62.3,138.4,62,138.6z
			"/>
		<path class="st176" d="M62,138.6c-0.5,0.3-2,0.5-3.6,0.3c-1.8-0.1-3.2-0.4-3-0.7c0.2-0.3,1.8-0.4,3.6-0.3S62.2,138.4,62,138.6z"/>
		<path class="st177" d="M61.9,138.6c-0.5,0.3-2,0.5-3.6,0.3c-1.8-0.1-3.1-0.4-3-0.7c0.2-0.3,1.8-0.4,3.6-0.3S62.1,138.5,61.9,138.6
			z"/>
		<path class="st178" d="M61.8,138.6c-0.5,0.3-2,0.5-3.5,0.3c-1.8-0.1-3.1-0.4-2.9-0.7c0.2-0.3,1.7-0.4,3.5-0.3
			S62.1,138.5,61.8,138.6z"/>
		<path class="st179" d="M61.7,138.6c-0.5,0.3-1.9,0.5-3.5,0.3c-1.7-0.1-3-0.4-2.9-0.7s1.7-0.4,3.5-0.3
			C60.6,138.1,62,138.5,61.7,138.6z"/>
		<path class="st180" d="M61.6,138.6c-0.5,0.3-1.9,0.4-3.4,0.3c-1.7-0.1-3-0.4-2.8-0.7c0.2-0.3,1.7-0.4,3.4-0.3
			S61.9,138.5,61.6,138.6z"/>
		<path class="st181" d="M61.5,138.6c-0.5,0.3-1.9,0.4-3.3,0.3c-1.7-0.1-2.9-0.4-2.8-0.7c0.2-0.3,1.7-0.4,3.3-0.3
			C60.5,138.1,61.8,138.5,61.5,138.6z"/>
		<path class="st182" d="M61.5,138.6c-0.5,0.3-1.8,0.4-3.3,0.3c-1.6-0.1-2.9-0.4-2.7-0.6c0.2-0.3,1.6-0.4,3.3-0.3
			C60.4,138.1,61.7,138.5,61.5,138.6z"/>
		<path class="st183" d="M61.4,138.6c-0.5,0.3-1.8,0.4-3.2,0.3c-1.6-0.1-2.8-0.4-2.7-0.6c0.2-0.3,1.6-0.4,3.2-0.3
			C60.3,138.1,61.6,138.5,61.4,138.6z"/>
		<path class="st183" d="M61.3,138.6c-0.5,0.3-1.8,0.4-3.2,0.3c-1.6-0.1-2.8-0.4-2.6-0.6c0.2-0.3,1.6-0.4,3.2-0.3
			C60.3,138.1,61.5,138.5,61.3,138.6z"/>
		<path class="st184" d="M61.2,138.6c-0.5,0.3-1.7,0.4-3.1,0.3c-1.6-0.1-2.7-0.4-2.5-0.6c0.1-0.2,1.5-0.4,3.1-0.3
			C60.2,138.1,61.5,138.5,61.2,138.6z"/>
	</g>
	<g>
		<g>
			
				<ellipse transform="matrix(2.689626e-02 -0.9996 0.9996 2.689626e-02 -24.7662 235.108)" class="st4" cx="108.4" cy="130.3" rx="7.9" ry="51.4"/>
			
				<ellipse transform="matrix(2.694130e-02 -0.9996 0.9996 2.694130e-02 -24.8205 235.0708)" class="st5" cx="108.3" cy="130.3" rx="7.8" ry="51.3"/>
			
				<ellipse transform="matrix(2.698654e-02 -0.9996 0.9996 2.698654e-02 -24.8748 235.0335)" class="st6" cx="108.3" cy="130.3" rx="7.8" ry="51.2"/>
			
				<ellipse transform="matrix(2.703196e-02 -0.9996 0.9996 2.703196e-02 -24.9291 234.9962)" class="st7" cx="108.3" cy="130.3" rx="7.8" ry="51.1"/>
			
				<ellipse transform="matrix(2.707757e-02 -0.9996 0.9996 2.707757e-02 -24.9834 234.9588)" class="st8" cx="108.2" cy="130.3" rx="7.7" ry="51"/>
			
				<ellipse transform="matrix(2.712338e-02 -0.9996 0.9996 2.712338e-02 -25.0378 234.9215)" class="st9" cx="108.2" cy="130.3" rx="7.7" ry="50.9"/>
			
				<ellipse transform="matrix(2.716937e-02 -0.9996 0.9996 2.716937e-02 -25.0922 234.8841)" class="st10" cx="108.1" cy="130.3" rx="7.7" ry="50.8"/>
			
				<ellipse transform="matrix(2.721557e-02 -0.9996 0.9996 2.721557e-02 -25.1465 234.8467)" class="st11" cx="108.1" cy="130.3" rx="7.7" ry="50.7"/>
			
				<ellipse transform="matrix(2.726196e-02 -0.9996 0.9996 2.726196e-02 -25.2009 234.8092)" class="st12" cx="108" cy="130.4" rx="7.6" ry="50.6"/>
			
				<ellipse transform="matrix(2.730855e-02 -0.9996 0.9996 2.730855e-02 -25.2554 234.7718)" class="st13" cx="108" cy="130.4" rx="7.6" ry="50.4"/>
			
				<ellipse transform="matrix(2.735533e-02 -0.9996 0.9996 2.735533e-02 -25.3098 234.7343)" class="st14" cx="108" cy="130.4" rx="7.6" ry="50.3"/>
			
				<ellipse transform="matrix(2.740232e-02 -0.9996 0.9996 2.740232e-02 -25.3642 234.6967)" class="st15" cx="107.9" cy="130.4" rx="7.5" ry="50.2"/>
			
				<ellipse transform="matrix(2.744951e-02 -0.9996 0.9996 2.744951e-02 -25.4187 234.6592)" class="st16" cx="107.9" cy="130.4" rx="7.5" ry="50.1"/>
			
				<ellipse transform="matrix(2.749690e-02 -0.9996 0.9996 2.749690e-02 -25.4732 234.6216)" class="st17" cx="107.8" cy="130.4" rx="7.5" ry="50"/>
			
				<ellipse transform="matrix(2.754449e-02 -0.9996 0.9996 2.754449e-02 -25.5277 234.584)" class="st17" cx="107.8" cy="130.4" rx="7.5" ry="49.9"/>
			
				<ellipse transform="matrix(2.759229e-02 -0.9996 0.9996 2.759229e-02 -25.5822 234.5464)" class="st18" cx="107.8" cy="130.4" rx="7.4" ry="49.8"/>
			
				<ellipse transform="matrix(2.764030e-02 -0.9996 0.9996 2.764030e-02 -25.6368 234.5087)" class="st19" cx="107.7" cy="130.4" rx="7.4" ry="49.7"/>
			
				<ellipse transform="matrix(2.768851e-02 -0.9996 0.9996 2.768851e-02 -25.6913 234.471)" class="st20" cx="107.7" cy="130.4" rx="7.4" ry="49.6"/>
			
				<ellipse transform="matrix(2.773693e-02 -0.9996 0.9996 2.773693e-02 -25.7459 234.4333)" class="st21" cx="107.6" cy="130.5" rx="7.3" ry="49.5"/>
			
				<ellipse transform="matrix(2.778556e-02 -0.9996 0.9996 2.778556e-02 -25.8005 234.3955)" class="st22" cx="107.6" cy="130.5" rx="7.3" ry="49.3"/>
			
				<ellipse transform="matrix(2.783441e-02 -0.9996 0.9996 2.783441e-02 -25.8551 234.3577)" class="st23" cx="107.6" cy="130.5" rx="7.3" ry="49.2"/>
			
				<ellipse transform="matrix(2.788347e-02 -0.9996 0.9996 2.788347e-02 -25.9097 234.3199)" class="st24" cx="107.5" cy="130.5" rx="7.3" ry="49.1"/>
			
				<ellipse transform="matrix(2.793274e-02 -0.9996 0.9996 2.793274e-02 -25.9643 234.2821)" class="st25" cx="107.5" cy="130.5" rx="7.2" ry="49"/>
			
				<ellipse transform="matrix(2.798223e-02 -0.9996 0.9996 2.798223e-02 -26.019 234.2442)" class="st25" cx="107.4" cy="130.5" rx="7.2" ry="48.9"/>
			
				<ellipse transform="matrix(2.803194e-02 -0.9996 0.9996 2.803194e-02 -26.0737 234.2063)" class="st26" cx="107.4" cy="130.5" rx="7.2" ry="48.8"/>
			
				<ellipse transform="matrix(2.808187e-02 -0.9996 0.9996 2.808187e-02 -26.1284 234.1684)" class="st26" cx="107.4" cy="130.5" rx="7.2" ry="48.7"/>
			
				<ellipse transform="matrix(2.813201e-02 -0.9996 0.9996 2.813201e-02 -26.1831 234.1304)" class="st27" cx="107.3" cy="130.5" rx="7.1" ry="48.6"/>
			
				<ellipse transform="matrix(2.818238e-02 -0.9996 0.9996 2.818238e-02 -26.2378 234.0924)" class="st28" cx="107.3" cy="130.5" rx="7.1" ry="48.5"/>
			
				<ellipse transform="matrix(2.823298e-02 -0.9996 0.9996 2.823298e-02 -26.2926 234.0544)" class="st29" cx="107.2" cy="130.6" rx="7.1" ry="48.3"/>
			
				<ellipse transform="matrix(2.828380e-02 -0.9996 0.9996 2.828380e-02 -26.3473 234.0163)" class="st30" cx="107.2" cy="130.6" rx="7" ry="48.2"/>
			
				<ellipse transform="matrix(2.833484e-02 -0.9996 0.9996 2.833484e-02 -26.4021 233.9783)" class="st31" cx="107.2" cy="130.6" rx="7" ry="48.1"/>
			
				<ellipse transform="matrix(2.838611e-02 -0.9996 0.9996 2.838611e-02 -26.4569 233.9401)" class="st32" cx="107.1" cy="130.6" rx="7" ry="48"/>
			
				<ellipse transform="matrix(2.843762e-02 -0.9996 0.9996 2.843762e-02 -26.5118 233.902)" class="st32" cx="107.1" cy="130.6" rx="7" ry="47.9"/>
			
				<ellipse transform="matrix(2.848935e-02 -0.9996 0.9996 2.848935e-02 -26.5666 233.8638)" class="st33" cx="107" cy="130.6" rx="6.9" ry="47.8"/>
			
				<ellipse transform="matrix(2.854132e-02 -0.9996 0.9996 2.854132e-02 -26.6215 233.8256)" class="st33" cx="107" cy="130.6" rx="6.9" ry="47.7"/>
			
				<ellipse transform="matrix(2.859352e-02 -0.9996 0.9996 2.859352e-02 -26.6764 233.7873)" class="st34" cx="106.9" cy="130.6" rx="6.9" ry="47.6"/>
			
				<ellipse transform="matrix(2.864596e-02 -0.9996 0.9996 2.864596e-02 -26.7313 233.7491)" class="st34" cx="106.9" cy="130.6" rx="6.8" ry="47.5"/>
			
				<ellipse transform="matrix(2.869863e-02 -0.9996 0.9996 2.869863e-02 -26.7862 233.7107)" class="st35" cx="106.9" cy="130.6" rx="6.8" ry="47.3"/>
			
				<ellipse transform="matrix(2.875155e-02 -0.9996 0.9996 2.875155e-02 -26.8412 233.6724)" class="st36" cx="106.8" cy="130.6" rx="6.8" ry="47.2"/>
			
				<ellipse transform="matrix(2.880470e-02 -0.9996 0.9996 2.880470e-02 -26.8961 233.634)" class="st37" cx="106.8" cy="130.7" rx="6.8" ry="47.1"/>
			
				<ellipse transform="matrix(2.885810e-02 -0.9996 0.9996 2.885810e-02 -26.9511 233.5956)" class="st38" cx="106.7" cy="130.7" rx="6.7" ry="47"/>
			
				<ellipse transform="matrix(2.891175e-02 -0.9996 0.9996 2.891175e-02 -27.0061 233.5572)" class="st39" cx="106.7" cy="130.7" rx="6.7" ry="46.9"/>
			
				<ellipse transform="matrix(2.896563e-02 -0.9996 0.9996 2.896563e-02 -27.0611 233.5187)" class="st40" cx="106.7" cy="130.7" rx="6.7" ry="46.8"/>
			
				<ellipse transform="matrix(2.901977e-02 -0.9996 0.9996 2.901977e-02 -27.1162 233.4802)" class="st40" cx="106.6" cy="130.7" rx="6.6" ry="46.7"/>
			
				<ellipse transform="matrix(2.907416e-02 -0.9996 0.9996 2.907416e-02 -27.1713 233.4416)" class="st41" cx="106.6" cy="130.7" rx="6.6" ry="46.6"/>
			
				<ellipse transform="matrix(2.912880e-02 -0.9996 0.9996 2.912880e-02 -27.2264 233.403)" class="st41" cx="106.5" cy="130.7" rx="6.6" ry="46.5"/>
			
				<ellipse transform="matrix(2.918369e-02 -0.9996 0.9996 2.918369e-02 -27.2815 233.3644)" class="st42" cx="106.5" cy="130.7" rx="6.6" ry="46.3"/>
			
				<ellipse transform="matrix(2.923883e-02 -0.9996 0.9996 2.923883e-02 -27.3366 233.3257)" class="st42" cx="106.5" cy="130.7" rx="6.5" ry="46.2"/>
			
				<ellipse transform="matrix(2.929424e-02 -0.9996 0.9996 2.929424e-02 -27.3918 233.287)" class="st43" cx="106.4" cy="130.7" rx="6.5" ry="46.1"/>
			
				<ellipse transform="matrix(2.934990e-02 -0.9996 0.9996 2.934990e-02 -27.4469 233.2483)" class="st44" cx="106.4" cy="130.8" rx="6.5" ry="46"/>
			
				<ellipse transform="matrix(2.940582e-02 -0.9996 0.9996 2.940582e-02 -27.5021 233.2096)" class="st45" cx="106.3" cy="130.8" rx="6.5" ry="45.9"/>
			
				<ellipse transform="matrix(2.946200e-02 -0.9996 0.9996 2.946200e-02 -27.5573 233.1708)" class="st46" cx="106.3" cy="130.8" rx="6.4" ry="45.8"/>
			
				<ellipse transform="matrix(2.951845e-02 -0.9996 0.9996 2.951845e-02 -27.6126 233.1319)" class="st47" cx="106.3" cy="130.8" rx="6.4" ry="45.7"/>
			
				<ellipse transform="matrix(2.957516e-02 -0.9996 0.9996 2.957516e-02 -27.6678 233.093)" class="st48" cx="106.2" cy="130.8" rx="6.4" ry="45.6"/>
			
				<ellipse transform="matrix(2.963214e-02 -0.9996 0.9996 2.963214e-02 -27.7231 233.0541)" class="st49" cx="106.2" cy="130.8" rx="6.3" ry="45.5"/>
			
				<ellipse transform="matrix(2.968939e-02 -0.9996 0.9996 2.968939e-02 -27.7784 233.0152)" class="st50" cx="106.1" cy="130.8" rx="6.3" ry="45.4"/>
			
				<ellipse transform="matrix(2.974692e-02 -0.9996 0.9996 2.974692e-02 -27.8338 232.9762)" class="st50" cx="106.1" cy="130.8" rx="6.3" ry="45.2"/>
			
				<ellipse transform="matrix(2.980471e-02 -0.9996 0.9996 2.980471e-02 -27.8891 232.9372)" class="st51" cx="106" cy="130.8" rx="6.3" ry="45.1"/>
			
				<ellipse transform="matrix(2.986279e-02 -0.9996 0.9996 2.986279e-02 -27.9445 232.8981)" class="st52" cx="106" cy="130.8" rx="6.2" ry="45"/>
			
				<ellipse transform="matrix(2.992113e-02 -0.9996 0.9996 2.992113e-02 -27.9999 232.859)" class="st53" cx="106" cy="130.9" rx="6.2" ry="44.9"/>
			
				<ellipse transform="matrix(2.997976e-02 -0.9996 0.9996 2.997976e-02 -28.0553 232.8199)" class="st54" cx="105.9" cy="130.9" rx="6.2" ry="44.8"/>
			
				<ellipse transform="matrix(3.003868e-02 -0.9995 0.9995 3.003868e-02 -28.1108 232.7807)" class="st55" cx="105.9" cy="130.9" rx="6.1" ry="44.7"/>
			
				<ellipse transform="matrix(3.009787e-02 -0.9995 0.9995 3.009787e-02 -28.1662 232.7415)" class="st56" cx="105.8" cy="130.9" rx="6.1" ry="44.6"/>
			
				<ellipse transform="matrix(3.015735e-02 -0.9995 0.9995 3.015735e-02 -28.2217 232.7022)" class="st57" cx="105.8" cy="130.9" rx="6.1" ry="44.5"/>
			
				<ellipse transform="matrix(3.021712e-02 -0.9995 0.9995 3.021712e-02 -28.2772 232.6629)" class="st58" cx="105.8" cy="130.9" rx="6.1" ry="44.4"/>
			
				<ellipse transform="matrix(3.027718e-02 -0.9995 0.9995 3.027718e-02 -28.3328 232.6236)" class="st59" cx="105.7" cy="130.9" rx="6" ry="44.2"/>
			
				<ellipse transform="matrix(3.033753e-02 -0.9995 0.9995 3.033753e-02 -28.3884 232.5842)" class="st60" cx="105.7" cy="130.9" rx="6" ry="44.1"/>
			
				<ellipse transform="matrix(3.039818e-02 -0.9995 0.9995 3.039818e-02 -28.4439 232.5448)" class="st61" cx="105.6" cy="130.9" rx="6" ry="44"/>
			
				<ellipse transform="matrix(3.045912e-02 -0.9995 0.9995 3.045912e-02 -28.4996 232.5053)" class="st62" cx="105.6" cy="130.9" rx="6" ry="43.9"/>
			
				<ellipse transform="matrix(3.052036e-02 -0.9995 0.9995 3.052036e-02 -28.5552 232.4658)" class="st63" cx="105.6" cy="131" rx="5.9" ry="43.8"/>
			
				<ellipse transform="matrix(3.058190e-02 -0.9995 0.9995 3.058190e-02 -28.6109 232.4263)" class="st64" cx="105.5" cy="131" rx="5.9" ry="43.7"/>
			
				<ellipse transform="matrix(3.064375e-02 -0.9995 0.9995 3.064375e-02 -28.6666 232.3867)" class="st65" cx="105.5" cy="131" rx="5.9" ry="43.6"/>
			
				<ellipse transform="matrix(3.070590e-02 -0.9995 0.9995 3.070590e-02 -28.7223 232.347)" class="st66" cx="105.4" cy="131" rx="5.8" ry="43.5"/>
			
				<ellipse transform="matrix(3.076836e-02 -0.9995 0.9995 3.076836e-02 -28.778 232.3074)" class="st67" cx="105.4" cy="131" rx="5.8" ry="43.4"/>
			
				<ellipse transform="matrix(3.083113e-02 -0.9995 0.9995 3.083113e-02 -28.8338 232.2677)" class="st68" cx="105.4" cy="131" rx="5.8" ry="43.2"/>
			
				<ellipse transform="matrix(3.089421e-02 -0.9995 0.9995 3.089421e-02 -28.8896 232.2279)" class="st69" cx="105.3" cy="131" rx="5.8" ry="43.1"/>
			
				<ellipse transform="matrix(3.095761e-02 -0.9995 0.9995 3.095761e-02 -28.9454 232.1881)" class="st70" cx="105.3" cy="131" rx="5.7" ry="43"/>
			
				<ellipse transform="matrix(3.102132e-02 -0.9995 0.9995 3.102132e-02 -29.0012 232.1483)" class="st71" cx="105.2" cy="131" rx="5.7" ry="42.9"/>
			
				<ellipse transform="matrix(3.108536e-02 -0.9995 0.9995 3.108536e-02 -29.0571 232.1084)" class="st72" cx="105.2" cy="131" rx="5.7" ry="42.8"/>
			
				<ellipse transform="matrix(3.114971e-02 -0.9995 0.9995 3.114971e-02 -29.113 232.0684)" class="st73" cx="105.2" cy="131.1" rx="5.6" ry="42.7"/>
			
				<ellipse transform="matrix(3.121439e-02 -0.9995 0.9995 3.121439e-02 -29.1689 232.0284)" class="st74" cx="105.1" cy="131.1" rx="5.6" ry="42.6"/>
			
				<ellipse transform="matrix(3.127940e-02 -0.9995 0.9995 3.127940e-02 -29.2249 231.9884)" class="st75" cx="105.1" cy="131.1" rx="5.6" ry="42.5"/>
			
				<ellipse transform="matrix(3.134474e-02 -0.9995 0.9995 3.134474e-02 -29.2809 231.9483)" class="st76" cx="105" cy="131.1" rx="5.6" ry="42.4"/>
			
				<ellipse transform="matrix(3.141041e-02 -0.9995 0.9995 3.141041e-02 -29.3369 231.9082)" class="st77" cx="105" cy="131.1" rx="5.5" ry="42.2"/>
			
				<ellipse transform="matrix(3.147642e-02 -0.9995 0.9995 3.147642e-02 -29.3929 231.8681)" class="st78" cx="104.9" cy="131.1" rx="5.5" ry="42.1"/>
			
				<ellipse transform="matrix(3.154276e-02 -0.9995 0.9995 3.154276e-02 -29.449 231.8279)" class="st79" cx="104.9" cy="131.1" rx="5.5" ry="42"/>
			
				<ellipse transform="matrix(3.160944e-02 -0.9995 0.9995 3.160944e-02 -29.5051 231.7876)" class="st80" cx="104.9" cy="131.1" rx="5.4" ry="41.9"/>
			
				<ellipse transform="matrix(3.167647e-02 -0.9995 0.9995 3.167647e-02 -29.5612 231.7473)" class="st81" cx="104.8" cy="131.1" rx="5.4" ry="41.8"/>
			
				<ellipse transform="matrix(3.174384e-02 -0.9995 0.9995 3.174384e-02 -29.6173 231.7069)" class="st82" cx="104.8" cy="131.1" rx="5.4" ry="41.7"/>
			
				<ellipse transform="matrix(3.181156e-02 -0.9995 0.9995 3.181156e-02 -29.6735 231.6665)" class="st83" cx="104.7" cy="131.1" rx="5.4" ry="41.6"/>
			
				<ellipse transform="matrix(3.187963e-02 -0.9995 0.9995 3.187963e-02 -29.7297 231.6261)" class="st84" cx="104.7" cy="131.2" rx="5.3" ry="41.5"/>
			
				<ellipse transform="matrix(3.194806e-02 -0.9995 0.9995 3.194806e-02 -29.786 231.5856)" class="st85" cx="104.7" cy="131.2" rx="5.3" ry="41.4"/>
			
				<ellipse transform="matrix(3.201684e-02 -0.9995 0.9995 3.201684e-02 -29.8422 231.545)" class="st86" cx="104.6" cy="131.2" rx="5.3" ry="41.2"/>
			
				<ellipse transform="matrix(3.208598e-02 -0.9995 0.9995 3.208598e-02 -29.8985 231.5044)" class="st87" cx="104.6" cy="131.2" rx="5.3" ry="41.1"/>
			
				<ellipse transform="matrix(3.215548e-02 -0.9995 0.9995 3.215548e-02 -29.9548 231.4638)" class="st88" cx="104.5" cy="131.2" rx="5.2" ry="41"/>
			
				<ellipse transform="matrix(3.222535e-02 -0.9995 0.9995 3.222535e-02 -30.0112 231.4231)" class="st89" cx="104.5" cy="131.2" rx="5.2" ry="40.9"/>
			
				<ellipse transform="matrix(3.229558e-02 -0.9995 0.9995 3.229558e-02 -30.0676 231.3823)" class="st90" cx="104.5" cy="131.2" rx="5.2" ry="40.8"/>
			
				<ellipse transform="matrix(3.236619e-02 -0.9995 0.9995 3.236619e-02 -30.124 231.3415)" class="st91" cx="104.4" cy="131.2" rx="5.1" ry="40.7"/>
			
				<ellipse transform="matrix(3.243717e-02 -0.9995 0.9995 3.243717e-02 -30.1804 231.3006)" class="st92" cx="104.4" cy="131.2" rx="5.1" ry="40.6"/>
			
				<ellipse transform="matrix(3.250853e-02 -0.9995 0.9995 3.250853e-02 -30.2369 231.2597)" class="st93" cx="104.3" cy="131.2" rx="5.1" ry="40.5"/>
			
				<ellipse transform="matrix(3.258027e-02 -0.9995 0.9995 3.258027e-02 -30.2934 231.2188)" class="st94" cx="104.3" cy="131.3" rx="5.1" ry="40.4"/>
			
				<ellipse transform="matrix(3.265239e-02 -0.9995 0.9995 3.265239e-02 -30.35 231.1777)" class="st95" cx="104.3" cy="131.3" rx="5" ry="40.3"/>
			
				<ellipse transform="matrix(3.272490e-02 -0.9995 0.9995 3.272490e-02 -30.4066 231.1367)" class="st96" cx="104.2" cy="131.3" rx="5" ry="40.1"/>
			
				<ellipse transform="matrix(3.279779e-02 -0.9995 0.9995 3.279779e-02 -30.4632 231.0956)" class="st97" cx="104.2" cy="131.3" rx="5" ry="40"/>
			
				<ellipse transform="matrix(3.287109e-02 -0.9995 0.9995 3.287109e-02 -30.5198 231.0544)" class="st98" cx="104.1" cy="131.3" rx="4.9" ry="39.9"/>
			
				<ellipse transform="matrix(3.294477e-02 -0.9995 0.9995 3.294477e-02 -30.5765 231.0131)" class="st99" cx="104.1" cy="131.3" rx="4.9" ry="39.8"/>
			
				<ellipse transform="matrix(3.301886e-02 -0.9995 0.9995 3.301886e-02 -30.6332 230.9718)" class="st100" cx="104" cy="131.3" rx="4.9" ry="39.7"/>
			
				<ellipse transform="matrix(3.309335e-02 -0.9995 0.9995 3.309335e-02 -30.6899 230.9305)" class="st101" cx="104" cy="131.3" rx="4.9" ry="39.6"/>
			
				<ellipse transform="matrix(3.316824e-02 -0.9994 0.9994 3.316824e-02 -30.7467 230.8891)" class="st102" cx="104" cy="131.3" rx="4.8" ry="39.5"/>
			
				<ellipse transform="matrix(3.324354e-02 -0.9994 0.9994 3.324354e-02 -30.8035 230.8476)" class="st103" cx="103.9" cy="131.3" rx="4.8" ry="39.4"/>
			
				<ellipse transform="matrix(3.331926e-02 -0.9994 0.9994 3.331926e-02 -30.8603 230.8061)" class="st104" cx="103.9" cy="131.4" rx="4.8" ry="39.3"/>
			
				<ellipse transform="matrix(3.339539e-02 -0.9994 0.9994 3.339539e-02 -30.9172 230.7645)" class="st105" cx="103.8" cy="131.4" rx="4.7" ry="39.1"/>
			
				<ellipse transform="matrix(3.347195e-02 -0.9994 0.9994 3.347195e-02 -30.9741 230.7229)" class="st106" cx="103.8" cy="131.4" rx="4.7" ry="39"/>
			
				<ellipse transform="matrix(3.354892e-02 -0.9994 0.9994 3.354892e-02 -31.0311 230.6812)" class="st107" cx="103.8" cy="131.4" rx="4.7" ry="38.9"/>
			
				<ellipse transform="matrix(3.362633e-02 -0.9994 0.9994 3.362633e-02 -31.088 230.6395)" class="st108" cx="103.7" cy="131.4" rx="4.7" ry="38.8"/>
			
				<ellipse transform="matrix(3.370416e-02 -0.9994 0.9994 3.370416e-02 -31.1451 230.5977)" class="st109" cx="103.7" cy="131.4" rx="4.6" ry="38.7"/>
			
				<ellipse transform="matrix(3.378243e-02 -0.9994 0.9994 3.378243e-02 -31.2021 230.5558)" class="st110" cx="103.6" cy="131.4" rx="4.6" ry="38.6"/>
			
				<ellipse transform="matrix(3.386113e-02 -0.9994 0.9994 3.386113e-02 -31.2592 230.5138)" class="st111" cx="103.6" cy="131.4" rx="4.6" ry="38.5"/>
			
				<ellipse transform="matrix(3.394028e-02 -0.9994 0.9994 3.394028e-02 -31.3163 230.4718)" class="st112" cx="103.6" cy="131.4" rx="4.6" ry="38.4"/>
			
				<ellipse transform="matrix(3.401987e-02 -0.9994 0.9994 3.401987e-02 -31.3735 230.4298)" class="st113" cx="103.5" cy="131.4" rx="4.5" ry="38.3"/>
			
				<ellipse transform="matrix(3.409991e-02 -0.9994 0.9994 3.409991e-02 -31.4307 230.3877)" class="st114" cx="103.5" cy="131.5" rx="4.5" ry="38.1"/>
			
				<ellipse transform="matrix(3.418041e-02 -0.9994 0.9994 3.418041e-02 -31.4879 230.3455)" class="st115" cx="103.4" cy="131.5" rx="4.5" ry="38"/>
			
				<ellipse transform="matrix(3.426136e-02 -0.9994 0.9994 3.426136e-02 -31.5452 230.3032)" class="st116" cx="103.4" cy="131.5" rx="4.4" ry="37.9"/>
			
				<ellipse transform="matrix(3.434277e-02 -0.9994 0.9994 3.434277e-02 -31.6025 230.2609)" class="st117" cx="103.4" cy="131.5" rx="4.4" ry="37.8"/>
			
				<ellipse transform="matrix(3.442465e-02 -0.9994 0.9994 3.442465e-02 -31.6598 230.2186)" class="st118" cx="103.3" cy="131.5" rx="4.4" ry="37.7"/>
			
				<ellipse transform="matrix(3.450700e-02 -0.9994 0.9994 3.450700e-02 -31.7172 230.1761)" class="st119" cx="103.3" cy="131.5" rx="4.4" ry="37.6"/>
			
				<ellipse transform="matrix(3.458982e-02 -0.9994 0.9994 3.458982e-02 -31.7747 230.1336)" class="st120" cx="103.2" cy="131.5" rx="4.3" ry="37.5"/>
			
				<ellipse transform="matrix(3.467311e-02 -0.9994 0.9994 3.467311e-02 -31.8321 230.091)" class="st121" cx="103.2" cy="131.5" rx="4.3" ry="37.4"/>
			
				<ellipse transform="matrix(3.475690e-02 -0.9994 0.9994 3.475690e-02 -31.8896 230.0484)" class="st122" cx="103.1" cy="131.5" rx="4.3" ry="37.3"/>
			
				<ellipse transform="matrix(3.484116e-02 -0.9994 0.9994 3.484116e-02 -31.9472 230.0057)" class="st123" cx="103.1" cy="131.5" rx="4.2" ry="37.1"/>
			
				<ellipse transform="matrix(3.492592e-02 -0.9994 0.9994 3.492592e-02 -32.0048 229.9629)" class="st124" cx="103.1" cy="131.6" rx="4.2" ry="37"/>
			
				<ellipse transform="matrix(3.501116e-02 -0.9994 0.9994 3.501116e-02 -32.0624 229.92)" class="st125" cx="103" cy="131.6" rx="4.2" ry="36.9"/>
			
				<ellipse transform="matrix(3.509692e-02 -0.9994 0.9994 3.509692e-02 -32.12 229.8771)" class="st126" cx="103" cy="131.6" rx="4.2" ry="36.8"/>
			
				<ellipse transform="matrix(3.518317e-02 -0.9994 0.9994 3.518317e-02 -32.1778 229.8341)" class="st127" cx="102.9" cy="131.6" rx="4.1" ry="36.7"/>
			
				<ellipse transform="matrix(3.526993e-02 -0.9994 0.9994 3.526993e-02 -32.2355 229.7911)" class="st128" cx="102.9" cy="131.6" rx="4.1" ry="36.6"/>
			
				<ellipse transform="matrix(3.535720e-02 -0.9994 0.9994 3.535720e-02 -32.2933 229.748)" class="st129" cx="102.9" cy="131.6" rx="4.1" ry="36.5"/>
			
				<ellipse transform="matrix(3.544500e-02 -0.9994 0.9994 3.544500e-02 -32.3511 229.7048)" class="st130" cx="102.8" cy="131.6" rx="4.1" ry="36.4"/>
			
				<ellipse transform="matrix(3.553331e-02 -0.9994 0.9994 3.553331e-02 -32.409 229.6615)" class="st131" cx="102.8" cy="131.6" rx="4" ry="36.3"/>
			
				<ellipse transform="matrix(3.562215e-02 -0.9994 0.9994 3.562215e-02 -32.4669 229.6181)" class="st132" cx="102.7" cy="131.6" rx="4" ry="36.2"/>
			
				<ellipse transform="matrix(3.571152e-02 -0.9994 0.9994 3.571152e-02 -32.5249 229.5747)" class="st133" cx="102.7" cy="131.6" rx="4" ry="36"/>
			
				<ellipse transform="matrix(3.580143e-02 -0.9994 0.9994 3.580143e-02 -32.5829 229.5312)" class="st134" cx="102.7" cy="131.7" rx="3.9" ry="35.9"/>
			
				<ellipse transform="matrix(3.589188e-02 -0.9994 0.9994 3.589188e-02 -32.641 229.4876)" class="st135" cx="102.6" cy="131.7" rx="3.9" ry="35.8"/>
			
				<ellipse transform="matrix(3.598288e-02 -0.9994 0.9994 3.598288e-02 -32.6991 229.444)" class="st136" cx="102.6" cy="131.7" rx="3.9" ry="35.7"/>
			
				<ellipse transform="matrix(3.607443e-02 -0.9993 0.9993 3.607443e-02 -32.7572 229.4003)" class="st137" cx="102.5" cy="131.7" rx="3.9" ry="35.6"/>
			
				<ellipse transform="matrix(3.616653e-02 -0.9993 0.9993 3.616653e-02 -32.8154 229.3565)" class="st138" cx="102.5" cy="131.7" rx="3.8" ry="35.5"/>
			
				<ellipse transform="matrix(3.625920e-02 -0.9993 0.9993 3.625920e-02 -32.8736 229.3126)" class="st139" cx="102.5" cy="131.7" rx="3.8" ry="35.4"/>
			
				<ellipse transform="matrix(3.635243e-02 -0.9993 0.9993 3.635243e-02 -32.9319 229.2686)" class="st140" cx="102.4" cy="131.7" rx="3.8" ry="35.3"/>
			
				<ellipse transform="matrix(3.644624e-02 -0.9993 0.9993 3.644624e-02 -32.9903 229.2246)" class="st141" cx="102.4" cy="131.7" rx="3.7" ry="35.2"/>
			
				<ellipse transform="matrix(3.654062e-02 -0.9993 0.9993 3.654062e-02 -33.0486 229.1805)" class="st142" cx="102.3" cy="131.7" rx="3.7" ry="35"/>
			
				<ellipse transform="matrix(3.663559e-02 -0.9993 0.9993 3.663559e-02 -33.1071 229.1362)" class="st142" cx="102.3" cy="131.7" rx="3.7" ry="34.9"/>
			
				<ellipse transform="matrix(3.673115e-02 -0.9993 0.9993 3.673115e-02 -33.1655 229.0919)" class="st143" cx="102.3" cy="131.7" rx="3.7" ry="34.8"/>
			
				<ellipse transform="matrix(3.682730e-02 -0.9993 0.9993 3.682730e-02 -33.2241 229.0476)" class="st144" cx="102.2" cy="131.8" rx="3.6" ry="34.7"/>
			
				<ellipse transform="matrix(3.692406e-02 -0.9993 0.9993 3.692406e-02 -33.2826 229.0031)" class="st145" cx="102.2" cy="131.8" rx="3.6" ry="34.6"/>
			
				<ellipse transform="matrix(3.702141e-02 -0.9993 0.9993 3.702141e-02 -33.3413 228.9586)" class="st146" cx="102.1" cy="131.8" rx="3.6" ry="34.5"/>
			
				<ellipse transform="matrix(3.711938e-02 -0.9993 0.9993 3.711938e-02 -33.3999 228.914)" class="st147" cx="102.1" cy="131.8" rx="3.5" ry="34.4"/>
			
				<ellipse transform="matrix(3.721797e-02 -0.9993 0.9993 3.721797e-02 -33.4586 228.8693)" class="st148" cx="102" cy="131.8" rx="3.5" ry="34.3"/>
			
				<ellipse transform="matrix(3.731719e-02 -0.9993 0.9993 3.731719e-02 -33.5174 228.8245)" class="st149" cx="102" cy="131.8" rx="3.5" ry="34.2"/>
			
				<ellipse transform="matrix(3.741703e-02 -0.9993 0.9993 3.741703e-02 -33.5762 228.7796)" class="st150" cx="102" cy="131.8" rx="3.5" ry="34"/>
			
				<ellipse transform="matrix(3.751751e-02 -0.9993 0.9993 3.751751e-02 -33.6351 228.7346)" class="st150" cx="101.9" cy="131.8" rx="3.4" ry="33.9"/>
			
				<ellipse transform="matrix(3.761863e-02 -0.9993 0.9993 3.761863e-02 -33.6941 228.6895)" class="st151" cx="101.9" cy="131.8" rx="3.4" ry="33.8"/>
			
				<ellipse transform="matrix(3.772040e-02 -0.9993 0.9993 3.772040e-02 -33.753 228.6444)" class="st151" cx="101.8" cy="131.8" rx="3.4" ry="33.7"/>
			
				<ellipse transform="matrix(3.782282e-02 -0.9993 0.9993 3.782282e-02 -33.8121 228.5991)" class="st152" cx="101.8" cy="131.9" rx="3.4" ry="33.6"/>
			
				<ellipse transform="matrix(3.792591e-02 -0.9993 0.9993 3.792591e-02 -33.8712 228.5538)" class="st153" cx="101.8" cy="131.9" rx="3.3" ry="33.5"/>
			
				<ellipse transform="matrix(3.802966e-02 -0.9993 0.9993 3.802966e-02 -33.9303 228.5084)" class="st154" cx="101.7" cy="131.9" rx="3.3" ry="33.4"/>
			
				<ellipse transform="matrix(3.813409e-02 -0.9993 0.9993 3.813409e-02 -33.9895 228.4628)" class="st155" cx="101.7" cy="131.9" rx="3.3" ry="33.3"/>
			
				<ellipse transform="matrix(3.823921e-02 -0.9993 0.9993 3.823921e-02 -34.0488 228.4172)" class="st156" cx="101.6" cy="131.9" rx="3.2" ry="33.2"/>
			
				<ellipse transform="matrix(3.834501e-02 -0.9993 0.9993 3.834501e-02 -34.1081 228.3715)" class="st157" cx="101.6" cy="131.9" rx="3.2" ry="33"/>
			
				<ellipse transform="matrix(3.845150e-02 -0.9993 0.9993 3.845150e-02 -34.1675 228.3257)" class="st158" cx="101.6" cy="131.9" rx="3.2" ry="32.9"/>
			
				<ellipse transform="matrix(3.855870e-02 -0.9993 0.9993 3.855870e-02 -34.2269 228.2798)" class="st159" cx="101.5" cy="131.9" rx="3.2" ry="32.8"/>
			
				<ellipse transform="matrix(3.866661e-02 -0.9993 0.9993 3.866661e-02 -34.2864 228.2337)" class="st159" cx="101.5" cy="131.9" rx="3.1" ry="32.7"/>
			
				<ellipse transform="matrix(3.877523e-02 -0.9992 0.9992 3.877523e-02 -34.3459 228.1876)" class="st160" cx="101.4" cy="131.9" rx="3.1" ry="32.6"/>
			
				<ellipse transform="matrix(3.888458e-02 -0.9992 0.9992 3.888458e-02 -34.4055 228.1414)" class="st160" cx="101.4" cy="132" rx="3.1" ry="32.5"/>
			
				<ellipse transform="matrix(3.899466e-02 -0.9992 0.9992 3.899466e-02 -34.4652 228.0951)" class="st161" cx="101.4" cy="132" rx="3" ry="32.4"/>
			
				<ellipse transform="matrix(3.910548e-02 -0.9992 0.9992 3.910548e-02 -34.5249 228.0487)" class="st161" cx="101.3" cy="132" rx="3" ry="32.3"/>
			
				<ellipse transform="matrix(3.921705e-02 -0.9992 0.9992 3.921705e-02 -34.5847 228.0022)" class="st162" cx="101.3" cy="132" rx="3" ry="32.2"/>
			
				<ellipse transform="matrix(3.932937e-02 -0.9992 0.9992 3.932937e-02 -34.6445 227.9555)" class="st163" cx="101.2" cy="132" rx="3" ry="32"/>
			
				<ellipse transform="matrix(3.944245e-02 -0.9992 0.9992 3.944245e-02 -34.7045 227.9088)" class="st164" cx="101.2" cy="132" rx="2.9" ry="31.9"/>
			
				<ellipse transform="matrix(3.955631e-02 -0.9992 0.9992 3.955631e-02 -34.7644 227.8619)" class="st165" cx="101.1" cy="132" rx="2.9" ry="31.8"/>
			
				<ellipse transform="matrix(3.967094e-02 -0.9992 0.9992 3.967094e-02 -34.8245 227.815)" class="st166" cx="101.1" cy="132" rx="2.9" ry="31.7"/>
			
				<ellipse transform="matrix(3.978636e-02 -0.9992 0.9992 3.978636e-02 -34.8846 227.7679)" class="st167" cx="101.1" cy="132" rx="2.8" ry="31.6"/>
			
				<ellipse transform="matrix(3.990258e-02 -0.9992 0.9992 3.990258e-02 -34.9447 227.7207)" class="st167" cx="101" cy="132" rx="2.8" ry="31.5"/>
			
				<ellipse transform="matrix(4.001960e-02 -0.9992 0.9992 4.001960e-02 -35.005 227.6734)" class="st168" cx="101" cy="132.1" rx="2.8" ry="31.4"/>
			
				<ellipse transform="matrix(4.013743e-02 -0.9992 0.9992 4.013743e-02 -35.0653 227.626)" class="st168" cx="100.9" cy="132.1" rx="2.8" ry="31.3"/>
			
				<ellipse transform="matrix(4.025609e-02 -0.9992 0.9992 4.025609e-02 -35.1256 227.5785)" class="st169" cx="100.9" cy="132.1" rx="2.7" ry="31.2"/>
			
				<ellipse transform="matrix(4.037557e-02 -0.9992 0.9992 4.037557e-02 -35.186 227.5309)" class="st170" cx="100.9" cy="132.1" rx="2.7" ry="31.1"/>
			
				<ellipse transform="matrix(4.049589e-02 -0.9992 0.9992 4.049589e-02 -35.2465 227.4831)" class="st171" cx="100.8" cy="132.1" rx="2.7" ry="30.9"/>
			
				<ellipse transform="matrix(4.061706e-02 -0.9992 0.9992 4.061706e-02 -35.3071 227.4352)" class="st172" cx="100.8" cy="132.1" rx="2.7" ry="30.8"/>
			
				<ellipse transform="matrix(4.073909e-02 -0.9992 0.9992 4.073909e-02 -35.3678 227.3873)" class="st173" cx="100.7" cy="132.1" rx="2.6" ry="30.7"/>
			
				<ellipse transform="matrix(4.086199e-02 -0.9992 0.9992 4.086199e-02 -35.4285 227.3391)" class="st174" cx="100.7" cy="132.1" rx="2.6" ry="30.6"/>
			
				<ellipse transform="matrix(4.098576e-02 -0.9992 0.9992 4.098576e-02 -35.4892 227.2909)" class="st174" cx="100.7" cy="132.1" rx="2.6" ry="30.5"/>
			
				<ellipse transform="matrix(4.111042e-02 -0.9992 0.9992 4.111042e-02 -35.5501 227.2425)" class="st175" cx="100.6" cy="132.1" rx="2.5" ry="30.4"/>
			
				<ellipse transform="matrix(4.123597e-02 -0.9991 0.9991 4.123597e-02 -35.611 227.194)" class="st175" cx="100.6" cy="132.2" rx="2.5" ry="30.3"/>
			
				<ellipse transform="matrix(4.136243e-02 -0.9991 0.9991 4.136243e-02 -35.672 227.1454)" class="st176" cx="100.5" cy="132.2" rx="2.5" ry="30.2"/>
			
				<ellipse transform="matrix(4.148980e-02 -0.9991 0.9991 4.148980e-02 -35.7331 227.0967)" class="st177" cx="100.5" cy="132.2" rx="2.5" ry="30.1"/>
			
				<ellipse transform="matrix(4.161811e-02 -0.9991 0.9991 4.161811e-02 -35.7942 227.0478)" class="st178" cx="100.5" cy="132.2" rx="2.4" ry="29.9"/>
			
				<ellipse transform="matrix(4.174734e-02 -0.9991 0.9991 4.174734e-02 -35.8555 226.9988)" class="st179" cx="100.4" cy="132.2" rx="2.4" ry="29.8"/>
			
				<ellipse transform="matrix(4.187753e-02 -0.9991 0.9991 4.187753e-02 -35.9168 226.9497)" class="st180" cx="100.4" cy="132.2" rx="2.4" ry="29.7"/>
			
				<ellipse transform="matrix(4.200867e-02 -0.9991 0.9991 4.200867e-02 -35.9781 226.9004)" class="st181" cx="100.3" cy="132.2" rx="2.3" ry="29.6"/>
			
				<ellipse transform="matrix(4.214079e-02 -0.9991 0.9991 4.214079e-02 -36.0396 226.851)" class="st182" cx="100.3" cy="132.2" rx="2.3" ry="29.5"/>
			
				<ellipse transform="matrix(4.227388e-02 -0.9991 0.9991 4.227388e-02 -36.1011 226.8015)" class="st183" cx="100.2" cy="132.2" rx="2.3" ry="29.4"/>
			
				<ellipse transform="matrix(4.240796e-02 -0.9991 0.9991 4.240796e-02 -36.1628 226.7518)" class="st183" cx="100.2" cy="132.2" rx="2.3" ry="29.3"/>
			
				<ellipse transform="matrix(4.254305e-02 -0.9991 0.9991 4.254305e-02 -36.2245 226.7019)" class="st184" cx="100.2" cy="132.3" rx="2.2" ry="29.2"/>
		</g>
		<g>
			<g>
				<g>
					<linearGradient id="SVGID_1_" gradientUnits="userSpaceOnUse" x1="99.652" y1="89.4543" x2="156.1141" y2="56.6923">
						<stop  offset="0" style="stop-color:var(--vitamui-primary-900)"/>
						<stop  offset="1" style="stop-color:var(--vitamui-primary)"/>
					</linearGradient>
					<path class="st185" d="M123.6,132.3L89.4,128c-3.9-0.4-6.9-4.1-6.9-8.5V45.7c0-4.1,2.5-7.6,6.1-8.6l35.1-10.7
						c6.2-0.6,10.6,4.3,10.6,9.4v87.5c0,4.7-2.9,7.9-7.4,8.9C126.5,132.2,124,132.3,123.6,132.3z"/>
					<linearGradient id="SVGID_2_" gradientUnits="userSpaceOnUse" x1="161.6039" y1="142.4224" x2="96.1279" y2="65.1015">
						<stop  offset="0" style="stop-color:var(--vitamui-primary-900)"/>
						<stop  offset="1" style="stop-color:var(--vitamui-primary)"/>
					</linearGradient>
					<path class="st186" d="M123.8,132.2L87.3,128c-4-0.5-7-4.1-7-8.6V45.1c0-4.1,2.5-7.7,6.1-8.6l36.5-9.9c4.9-1.3,9.6,2.8,9.6,8.5
						v88.2C132.5,128.5,128.4,132.7,123.8,132.2z"/>
					<path class="st187" d="M132.5,35.1V120C132.5,120,129.9,85,132.5,35.1z"/>
				</g>
				<g>
					
						<linearGradient id="SVGID_3_" gradientUnits="userSpaceOnUse" x1="472.3657" y1="-6.271" x2="571.1515" y2="95.7834" gradientTransform="matrix(-1 0 0 1 663.9603 0)">
						<stop  offset="0" style="stop-color:#F5F5F5"/>
						<stop  offset="0.7896" style="stop-color:#9B9A9B"/>
					</linearGradient>
					<polygon class="st188" points="130.2,133.1 130.3,23.1 77.7,35.5 77.7,125.1 					"/>
					<polygon class="st3" points="130.9,132.7 130.2,133.1 130.3,23.1 130.8,23.6 					"/>
				</g>
				
					<linearGradient id="SVGID_4_" gradientUnits="userSpaceOnUse" x1="510.1698" y1="29.501" x2="610.9766" y2="133.6433" gradientTransform="matrix(-1 0 0 1 663.9603 0)">
					<stop  offset="0" style="stop-color:#F5F5F5"/>
					<stop  offset="0.7896" style="stop-color:#9B9A9B"/>
				</linearGradient>
				<polygon class="st189" points="127.4,134.2 127.6,22 73.9,34.6 73.9,126.1 				"/>
				<linearGradient id="SVGID_5_" gradientUnits="userSpaceOnUse" x1="84.929" y1="90.5627" x2="147.6385" y2="54.1757">
					<stop  offset="0" style="stop-color:var(--vitamui-primary-900)"/>
					<stop  offset="1" style="stop-color:var(--vitamui-primary)"/>
				</linearGradient>
				<path class="st190" d="M112.4,135.6L72,130.2c-4.6-0.6-8.1-4.5-8.1-9.1V43.7c0-4.3,2.9-8,7.1-9l41.4-11.3
					c7.4-0.6,12.7,4.6,12.7,10v92.9c0,5-3.5,8.3-8.9,9.2C115.8,135.7,112.9,135.7,112.4,135.6z"/>
				<linearGradient id="SVGID_6_" gradientUnits="userSpaceOnUse" x1="74.2618" y1="147.3747" x2="112.4553" y2="14.2136">
					<stop  offset="0" style="stop-color:var(--vitamui-primary-900)"/>
					<stop  offset="3.934753e-02" style="stop-color:var(--vitamui-primary-800)"/>
					<stop  offset="0.1654" style="stop-color:var(--vitamui-primary-700)"/>
					<stop  offset="0.2899" style="stop-color:var(--vitamui-primary-600)"/>
					<stop  offset="0.4107" style="stop-color:var(--vitamui-primary)"/>
					<stop  offset="0.5264" style="stop-color:var(--vitamui-primary)"/>
					<stop  offset="0.6312" style="stop-color:var(--vitamui-primary)"/>
					<stop  offset="0.6963" style="stop-color:var(--vitamui-primary)"/>
					<stop  offset="0.7969" style="stop-color:var(--vitamui-primary)"/>
					<stop  offset="0.92" style="stop-color:var(--vitamui-primary-400)"/>
					<stop  offset="1" style="stop-color:var(--vitamui-primary-300)"/>
				</linearGradient>
				<path class="st191" d="M112.6,135.6l-43-5.4c-4.6-0.6-8.1-4.5-8.1-9.2V43.1c0-4.3,2.9-8,7.1-9l43-10.3c5.8-1.4,11.4,3,11.4,9
					v93.6C123,132,118.1,136.3,112.6,135.6z"/>
				<path class="st0" d="M61.4,44.4l24.1-4.7c1.8-0.4,3.6,1,3.6,3v10c0,1.5-1.1,2.8-2.6,3l-25.1,3.1L61.4,44.4z"/>
				<linearGradient id="SVGID_7_" gradientUnits="userSpaceOnUse" x1="62.9228" y1="37.2792" x2="86.0605" y2="61.1824">
					<stop  offset="0" style="stop-color:#F5F5F5"/>
					<stop  offset="0.7896" style="stop-color:#9B9A9B"/>
				</linearGradient>
				<path class="st192" d="M85.4,54.6l-23.3,3.2c-1.4,0.2-2.7-0.9-2.7-2.3v-9.7c0-1.1,0.8-2.1,1.9-2.3l23.1-4.8c1.9-0.4,3.6,1,3.6,3
					v10C88,53.1,86.9,54.4,85.4,54.6z"/>
				<path class="st193" d="M123,32.8v90.1C123,122.9,119.9,85.7,123,32.8z"/>
				<polygon class="st3" points="128.1,133.8 127.4,134.2 127.6,22 128.1,22.4 				"/>
				<g>
					<path class="st184" d="M63.9,47.3l0-1.6l6.3-1.2l0,1.6L65.9,52l4.4-0.7l0,1.6l-6.6,1l0-1.6l4.2-5.7L63.9,47.3z"/>
					<path class="st184" d="M72,44.2l1.9-0.4l0.1,8.6l-1.9,0.3L72,44.2z"/>
					<path class="st184" d="M80.2,42.7c1-0.2,1.8-0.1,2.5,0.4c0.7,0.5,1,1.1,1,2c0,0.9-0.3,1.6-1,2.3c-0.7,0.7-1.5,1.1-2.5,1.3
						l-2,0.3l0,2.9l-2,0.3l-0.1-8.7L80.2,42.7z M78.3,44.7l0,2.5l1.9-0.3c0.4-0.1,0.8-0.2,1-0.5c0.3-0.3,0.4-0.6,0.4-1
						c0-0.4-0.1-0.6-0.4-0.8c-0.3-0.2-0.6-0.3-1-0.2L78.3,44.7z"/>
				</g>
			</g>
			<g>
				<linearGradient id="SVGID_8_" gradientUnits="userSpaceOnUse" x1="68.482" y1="44.2839" x2="141.4667" y2="119.6835">
					<stop  offset="0" style="stop-color:#F5F5F5"/>
					<stop  offset="0.7896" style="stop-color:#9B9A9B"/>
				</linearGradient>
				<polygon class="st194" points="105.2,134.7 100.2,134 100.2,26.5 105.2,25.3 				"/>
				<polygon points="101.9,134.2 97.1,133.6 97.1,27.3 101.9,26.1 				"/>
				<linearGradient id="SVGID_9_" gradientUnits="userSpaceOnUse" x1="97.4329" y1="28.8476" x2="103.4056" y2="35.018">
					<stop  offset="0" style="stop-color:#F5F5F5"/>
					<stop  offset="0.7896" style="stop-color:#9B9A9B"/>
				</linearGradient>
				<polygon class="st195" points="98.8,35.6 101.7,35 101.7,27.9 98.8,28.6 				"/>
				<linearGradient id="SVGID_10_" gradientUnits="userSpaceOnUse" x1="97.4018" y1="38.55" x2="103.4399" y2="44.788">
					<stop  offset="0" style="stop-color:#F5F5F5"/>
					<stop  offset="0.7896" style="stop-color:#9B9A9B"/>
				</linearGradient>
				<polygon class="st196" points="98.8,45.3 101.7,44.8 101.7,37.7 98.8,38.3 				"/>
				<linearGradient id="SVGID_11_" gradientUnits="userSpaceOnUse" x1="97.3707" y1="48.2525" x2="103.4742" y2="54.558">
					<stop  offset="0" style="stop-color:#F5F5F5"/>
					<stop  offset="0.7896" style="stop-color:#9B9A9B"/>
				</linearGradient>
				<polygon class="st197" points="98.8,55 101.7,54.6 101.7,47.5 98.8,48 				"/>
				<linearGradient id="SVGID_12_" gradientUnits="userSpaceOnUse" x1="97.3396" y1="57.9549" x2="103.5085" y2="64.328">
					<stop  offset="0" style="stop-color:#F5F5F5"/>
					<stop  offset="0.7896" style="stop-color:#9B9A9B"/>
				</linearGradient>
				<polygon class="st198" points="98.8,64.7 101.7,64.3 101.7,57.3 98.8,57.7 				"/>
				<linearGradient id="SVGID_13_" gradientUnits="userSpaceOnUse" x1="97.3085" y1="67.6574" x2="103.5428" y2="74.098">
					<stop  offset="0" style="stop-color:#F5F5F5"/>
					<stop  offset="0.7896" style="stop-color:#9B9A9B"/>
				</linearGradient>
				<polygon class="st199" points="98.8,74.3 101.7,74.1 101.7,67.1 98.8,67.4 				"/>
				<linearGradient id="SVGID_14_" gradientUnits="userSpaceOnUse" x1="97.2774" y1="77.3598" x2="103.5771" y2="83.8681">
					<stop  offset="0" style="stop-color:#F5F5F5"/>
					<stop  offset="0.7896" style="stop-color:#9B9A9B"/>
				</linearGradient>
				<polygon class="st200" points="98.8,84 101.7,83.9 101.7,76.8 98.8,77 				"/>
				<polygon points="102.8,134.3 107.7,135 107.7,24.7 102.8,25.9 				"/>
				
					<linearGradient id="SVGID_15_" gradientUnits="userSpaceOnUse" x1="503.033" y1="27.4346" x2="509.9946" y2="34.6266" gradientTransform="matrix(-1 0 0 1 610.7714 0)">
					<stop  offset="0" style="stop-color:#F5F5F5"/>
					<stop  offset="0.7896" style="stop-color:#9B9A9B"/>
				</linearGradient>
				<polygon class="st201" points="105.9,34.1 102.9,34.7 102.9,27.6 105.9,26.9 				"/>
				
					<linearGradient id="SVGID_16_" gradientUnits="userSpaceOnUse" x1="503.065" y1="37.3437" x2="509.9593" y2="44.4662" gradientTransform="matrix(-1 0 0 1 610.7714 0)">
					<stop  offset="0" style="stop-color:#F5F5F5"/>
					<stop  offset="0.7896" style="stop-color:#9B9A9B"/>
				</linearGradient>
				<polygon class="st202" points="105.9,44 102.9,44.6 102.9,37.5 105.9,36.9 				"/>
				
					<linearGradient id="SVGID_17_" gradientUnits="userSpaceOnUse" x1="503.097" y1="47.2529" x2="509.924" y2="54.3058" gradientTransform="matrix(-1 0 0 1 610.7714 0)">
					<stop  offset="0" style="stop-color:#F5F5F5"/>
					<stop  offset="0.7896" style="stop-color:#9B9A9B"/>
				</linearGradient>
				<polygon class="st203" points="105.9,54 102.9,54.4 102.9,47.3 105.9,46.8 				"/>
				
					<linearGradient id="SVGID_18_" gradientUnits="userSpaceOnUse" x1="503.129" y1="57.1621" x2="509.8887" y2="64.1454" gradientTransform="matrix(-1 0 0 1 610.7714 0)">
					<stop  offset="0" style="stop-color:#F5F5F5"/>
					<stop  offset="0.7896" style="stop-color:#9B9A9B"/>
				</linearGradient>
				<polygon class="st204" points="105.9,63.9 102.9,64.2 102.9,57.1 105.9,56.7 				"/>
				
					<linearGradient id="SVGID_19_" gradientUnits="userSpaceOnUse" x1="503.161" y1="67.0712" x2="509.8534" y2="73.9851" gradientTransform="matrix(-1 0 0 1 610.7714 0)">
					<stop  offset="0" style="stop-color:#F5F5F5"/>
					<stop  offset="0.7896" style="stop-color:#9B9A9B"/>
				</linearGradient>
				<polygon class="st205" points="105.9,73.8 102.9,74 102.9,66.9 105.9,66.6 				"/>
				
					<linearGradient id="SVGID_20_" gradientUnits="userSpaceOnUse" x1="503.193" y1="76.9804" x2="509.8181" y2="83.8247" gradientTransform="matrix(-1 0 0 1 610.7714 0)">
					<stop  offset="0" style="stop-color:#F5F5F5"/>
					<stop  offset="0.7896" style="stop-color:#9B9A9B"/>
				</linearGradient>
				<polygon class="st206" points="105.9,83.7 102.9,83.9 102.9,76.8 105.9,76.6 				"/>
				<linearGradient id="SVGID_21_" gradientUnits="userSpaceOnUse" x1="97.2461" y1="87.1202" x2="103.6117" y2="93.6964">
					<stop  offset="0" style="stop-color:#F5F5F5"/>
					<stop  offset="0.7896" style="stop-color:#9B9A9B"/>
				</linearGradient>
				<polygon class="st207" points="98.8,93.8 101.7,93.8 101.7,86.7 98.8,86.8 				"/>
				<linearGradient id="SVGID_22_" gradientUnits="userSpaceOnUse" x1="97.215" y1="96.8227" x2="103.646" y2="103.4664">
					<stop  offset="0" style="stop-color:#F5F5F5"/>
					<stop  offset="0.7896" style="stop-color:#9B9A9B"/>
				</linearGradient>
				<polygon class="st208" points="98.8,103.5 101.7,103.5 101.7,96.5 98.8,96.5 				"/>
				<linearGradient id="SVGID_23_" gradientUnits="userSpaceOnUse" x1="97.1839" y1="106.5251" x2="103.6803" y2="113.2364">
					<stop  offset="0" style="stop-color:#F5F5F5"/>
					<stop  offset="0.7896" style="stop-color:#9B9A9B"/>
				</linearGradient>
				<polygon class="st209" points="98.8,113.1 101.7,113.3 101.7,106.3 98.8,106.1 				"/>
				<linearGradient id="SVGID_24_" gradientUnits="userSpaceOnUse" x1="97.1528" y1="116.2276" x2="103.7146" y2="123.0064">
					<stop  offset="0" style="stop-color:#F5F5F5"/>
					<stop  offset="0.7896" style="stop-color:#9B9A9B"/>
				</linearGradient>
				<polygon class="st210" points="98.8,122.8 101.7,123.1 101.7,116 98.8,115.8 				"/>
				<linearGradient id="SVGID_25_" gradientUnits="userSpaceOnUse" x1="97.1217" y1="125.93" x2="103.7489" y2="132.7765">
					<stop  offset="0" style="stop-color:#F5F5F5"/>
					<stop  offset="0.7896" style="stop-color:#9B9A9B"/>
				</linearGradient>
				<polygon class="st211" points="98.8,132.5 101.7,132.9 101.7,125.8 98.8,125.5 				"/>
				
					<linearGradient id="SVGID_26_" gradientUnits="userSpaceOnUse" x1="503.2252" y1="86.9487" x2="509.7826" y2="93.723" gradientTransform="matrix(-1 0 0 1 610.7714 0)">
					<stop  offset="0" style="stop-color:#F5F5F5"/>
					<stop  offset="0.7896" style="stop-color:#9B9A9B"/>
				</linearGradient>
				<polygon class="st212" points="105.9,93.7 102.9,93.7 102.9,86.7 105.9,86.6 				"/>
				
					<linearGradient id="SVGID_27_" gradientUnits="userSpaceOnUse" x1="503.2572" y1="96.8579" x2="509.7473" y2="103.5626" gradientTransform="matrix(-1 0 0 1 610.7714 0)">
					<stop  offset="0" style="stop-color:#F5F5F5"/>
					<stop  offset="0.7896" style="stop-color:#9B9A9B"/>
				</linearGradient>
				<polygon class="st213" points="105.9,103.7 102.9,103.6 102.9,96.5 105.9,96.5 				"/>
				
					<linearGradient id="SVGID_28_" gradientUnits="userSpaceOnUse" x1="503.2892" y1="106.767" x2="509.7119" y2="113.4023" gradientTransform="matrix(-1 0 0 1 610.7714 0)">
					<stop  offset="0" style="stop-color:#F5F5F5"/>
					<stop  offset="0.7896" style="stop-color:#9B9A9B"/>
				</linearGradient>
				<polygon class="st214" points="105.9,113.6 102.9,113.4 102.9,106.3 105.9,106.4 				"/>
				
					<linearGradient id="SVGID_29_" gradientUnits="userSpaceOnUse" x1="503.3212" y1="116.6762" x2="509.6766" y2="123.2419" gradientTransform="matrix(-1 0 0 1 610.7714 0)">
					<stop  offset="0" style="stop-color:#F5F5F5"/>
					<stop  offset="0.7896" style="stop-color:#9B9A9B"/>
				</linearGradient>
				<polygon class="st215" points="105.9,123.5 102.9,123.2 102.9,116.1 105.9,116.3 				"/>
				
					<linearGradient id="SVGID_30_" gradientUnits="userSpaceOnUse" x1="503.3532" y1="126.5853" x2="509.6414" y2="133.0815" gradientTransform="matrix(-1 0 0 1 610.7714 0)">
					<stop  offset="0" style="stop-color:#F5F5F5"/>
					<stop  offset="0.7896" style="stop-color:#9B9A9B"/>
				</linearGradient>
				<polygon class="st216" points="105.9,133.4 102.9,133 102.9,125.9 105.9,126.3 				"/>
			</g>
		</g>
	</g>
	<linearGradient id="SVGID_31_" gradientUnits="userSpaceOnUse" x1="111.9289" y1="88.0164" x2="23.1565" y2="109.4842">
		<stop  offset="0" style="stop-color:var(--vitamui-primary-900)"/>
		<stop  offset="6.233966e-02" style="stop-color:var(--vitamui-primary-800)"/>
		<stop  offset="0.262" style="stop-color:var(--vitamui-primary-700)"/>
		<stop  offset="0.4592" style="stop-color:var(--vitamui-primary-600)"/>
		<stop  offset="0.6508" style="stop-color:var(--vitamui-primary)"/>
		<stop  offset="0.834" style="stop-color:var(--vitamui-primary)"/>
		<stop  offset="1" style="stop-color:var(--vitamui-primary)"/>
	</linearGradient>
	<path class="st217" d="M91.2,79.9L77,111.1l-2.2-1.9l-9.4,0C65.4,109.2,69,76.7,91.2,79.9z"/>
	<g>
		
			<linearGradient id="SVGID_32_" gradientUnits="userSpaceOnUse" x1="245.4654" y1="247.633" x2="279.1311" y2="187.9145" gradientTransform="matrix(-0.3345 -0.9424 -0.9424 0.3345 372.5027 264.8968)">
			<stop  offset="0" style="stop-color:#BCB9BA"/>
			<stop  offset="0.21" style="stop-color:#9B9A9B"/>
			<stop  offset="0.46" style="stop-color:#F5F5F5"/>
			<stop  offset="0.74" style="stop-color:#BCB9BA"/>
			<stop  offset="1" style="stop-color:#F5F5F5"/>
		</linearGradient>
		<path class="st218" d="M91,76.2c-0.9-0.2-1.8-0.3-2.7-0.2L75,76.9c-8.4,1.3-20.1,14.3-23.5,30.8c-0.1,0-0.1,0-0.2,0
			c-0.1,0-0.3-0.1-0.4-0.1c-0.1,0-0.2,0-0.3-0.1c-0.2,0-0.3-0.1-0.5-0.1c0,0-0.1,0-0.1,0c-0.2,0-0.4-0.1-0.6-0.1c-0.1,0-0.1,0-0.2,0
			c-0.2,0-0.3-0.1-0.5-0.1c-0.1,0-0.1,0-0.2,0c-0.2,0-0.4-0.1-0.6-0.2c0,0,0,0-0.1,0c-0.2-0.1-0.4-0.1-0.6-0.2c-0.1,0-0.1,0-0.2-0.1
			c-0.1,0-0.3-0.1-0.4-0.1c-0.1,0-0.1,0-0.2-0.1c-0.2-0.1-0.4-0.1-0.5-0.2c2.6,14.2,4.3,19.6,10.5,32.9l3.1-0.9
			c0,0,5.7-11.2,17.3-27.2l-2.1-1.8l-0.1-0.1c0,0,0,0,0,0c0,0,0,0,0,0c0,0,0,0,0,0c0,0-0.1,0-0.1,0c0,0,0,0,0,0c0,0-0.1,0-0.1,0
			c0,0,0,0,0,0c0,0-0.1,0-0.2,0c0,0,0,0,0,0c-0.5,0-1.4,0-2.5,0c0,0,0,0,0,0c-0.1,0-0.3,0-0.4,0c0,0-0.1,0-0.1,0c-0.1,0-0.3,0-0.4,0
			c0,0-0.1,0-0.1,0c-0.1,0-0.3,0-0.5,0c0,0-0.1,0-0.1,0c-0.2,0-0.3,0-0.5,0c0.1-0.4,0.2-0.8,0.3-1.2c0.1-0.3,0.1-0.6,0.2-0.9
			c0-0.1,0.1-0.2,0.1-0.3c0.1-0.3,0.2-0.7,0.3-1c0.1-0.3,0.2-0.6,0.2-0.8c0,0,0-0.1,0-0.1c0.1-0.4,0.2-0.8,0.3-1.2
			c0.1-0.3,0.2-0.5,0.2-0.8c0.1-0.4,0.2-0.8,0.4-1.1c0-0.1,0.1-0.2,0.1-0.3c0-0.1,0.1-0.3,0.1-0.4c0.3-0.8,0.6-1.6,0.9-2.4
			c0-0.1,0.1-0.3,0.1-0.4c0-0.1,0.1-0.1,0.1-0.2c0.1-0.4,0.3-0.7,0.4-1.1c0.1-0.2,0.2-0.4,0.3-0.7c0.2-0.4,0.3-0.7,0.5-1.1
			c0.1-0.2,0.2-0.4,0.3-0.6c0.2-0.4,0.3-0.7,0.5-1c0.1-0.2,0.2-0.3,0.2-0.5c0.4-0.7,0.7-1.4,1.1-2.1c0.1-0.1,0.1-0.2,0.2-0.3
			c0.2-0.3,0.4-0.6,0.5-0.9c0.1-0.2,0.2-0.3,0.3-0.5c0.2-0.3,0.4-0.6,0.5-0.9c0.1-0.1,0.2-0.3,0.3-0.4c0.2-0.3,0.4-0.6,0.6-0.8
			c0.1-0.1,0.1-0.2,0.2-0.3c0.4-0.6,0.9-1.2,1.4-1.7c1.1-1.3,2.2-2.3,3.3-3.2l0,0c2.5-1.9,5.2-2.7,7.8-2.1l0.1-3.7L91,76.2z
			 M68.2,109.2C68.2,109.2,68.2,109.2,68.2,109.2c0.3,0,0.6,0,0.9,0c-0.1,0-0.1,0-0.2,0C68.7,109.2,68.4,109.2,68.2,109.2z"/>
		
			<linearGradient id="SVGID_33_" gradientUnits="userSpaceOnUse" x1="241.8816" y1="236.7119" x2="264.0309" y2="219.9692" gradientTransform="matrix(-0.3345 -0.9424 -0.9424 0.3345 372.5027 264.8968)">
			<stop  offset="0" style="stop-color:#9B9A9B"/>
			<stop  offset="1" style="stop-color:#E5E4E4"/>
		</linearGradient>
		<path class="st219" d="M67.4,109.1c0,0,0.9,0,2.2,0c2-8.4,4.8-15.5,8.1-20.6c1.8-2.8,3.7-5,5.7-6.5c0,0-6.2,1.2-8.1,4.4
			C71.9,92.1,69.2,99.8,67.4,109.1z"/>
		
			<linearGradient id="SVGID_34_" gradientUnits="userSpaceOnUse" x1="215.7338" y1="255.762" x2="297.6539" y2="200.9521" gradientTransform="matrix(-0.3345 -0.9424 -0.9424 0.3345 372.5027 264.8968)">
			<stop  offset="0" style="stop-color:#F5F5F5"/>
			<stop  offset="0.21" style="stop-color:#9B9A9B"/>
			<stop  offset="0.46" style="stop-color:#F5F5F5"/>
			<stop  offset="0.74" style="stop-color:#BCB9BA"/>
			<stop  offset="1" style="stop-color:#F5F5F5"/>
		</linearGradient>
		<path class="st220" d="M74.8,109.2c0,0-2.1,0.1-5.3,0l0,0c0,0,0,0,0,0c-0.4,0-0.8,0-1.3,0c0,0,0,0,0,0c-0.5,0-0.9,0-0.9,0
			c5.6-23.4,13.2-28.8,16.3-31.4c0.9-0.7,3.8-1.7,3.8-1.7l-9.8,0.6c-9.2,7.7-23.4,26.1-21.2,62.5C56.5,139.1,62.6,126.7,74.8,109.2z
			"/>
		<path class="st221" d="M68,106.4c3.3-12.8,8.2-22.9,13.8-27.5c0,0,0,0,0,0c1.9-1.5,3.8-2.5,5.7-2.9C79.9,78.2,72.3,89.6,68,106.4
			L68,106.4z"/>
	</g>
</g>
</svg>
