<?xml version="1.0" encoding="utf-8"?>
<!-- Generator: Adobe Illustrator 25.2.1, SVG Export Plug-In . SVG Version: 6.00 Build 0)  -->
<!DOCTYPE svg PUBLIC "-//W3C//DTD SVG 1.1//EN" "http://www.w3.org/Graphics/SVG/1.1/DTD/svg11.dtd" [
	<!ENTITY ns_extend "http://ns.adobe.com/Extensibility/1.0/">
	<!ENTITY ns_ai "http://ns.adobe.com/AdobeIllustrator/10.0/">
	<!ENTITY ns_graphs "http://ns.adobe.com/Graphs/1.0/">
	<!ENTITY ns_vars "http://ns.adobe.com/Variables/1.0/">
	<!ENTITY ns_imrep "http://ns.adobe.com/ImageReplacement/1.0/">
	<!ENTITY ns_sfw "http://ns.adobe.com/SaveForWeb/1.0/">
	<!ENTITY ns_custom "http://ns.adobe.com/GenericCustomNamespace/1.0/">
	<!ENTITY ns_adobe_xpath "http://ns.adobe.com/XPath/1.0/">
]>
<svg version="1.1" id="Calque_1" xmlns:x="&ns_extend;" xmlns:i="&ns_ai;" xmlns:graph="&ns_graphs;"
	 xmlns="http://www.w3.org/2000/svg" xmlns:xlink="http://www.w3.org/1999/xlink" x="0px" y="0px" viewBox="0 0 200 200"
	 style="enable-background:new 0 0 200 200;" xml:space="preserve">
<style type="text/css">
	.macc0{fill-rule:evenodd;clip-rule:evenodd;}
	.macc1{fill-rule:evenodd;clip-rule:evenodd;fill:#BCB9BA;}
	.macc2{fill-rule:evenodd;clip-rule:evenodd;fill:#F5F5F5;}
	.macc3{fill-rule:evenodd;clip-rule:evenodd;fill:#E5E4E4;}
	.macc4{fill:#BCB9BA;}
	.macc5{fill:#BBB9BA;}
	.macc6{fill:#BBB8B9;}
	.macc7{fill:#BAB8B9;}
	.macc8{fill:#B9B7B8;}
	.macc9{fill:#B9B7B7;}
	.macc10{fill:#B8B6B7;}
	.macc11{fill:#B8B5B6;}
	.macc12{fill:#B7B5B6;}
	.macc13{fill:#B7B4B5;}
	.macc14{fill:#B6B4B5;}
	.macc15{fill:#B6B3B4;}
	.macc16{fill:#B5B3B4;}
	.macc17{fill:#B4B2B3;}
	.macc18{fill:#B3B1B2;}
	.macc19{fill:#B3B1B1;}
	.macc20{fill:#B2B0B1;}
	.macc21{fill:#B2AFB0;}
	.macc22{fill:#B1AFB0;}
	.macc23{fill:#B1AEAF;}
	.macc24{fill:#B0AEAF;}
	.macc25{fill:#AFADAE;}
	.macc26{fill:#AEACAD;}
	.macc27{fill:#ADABAC;}
	.macc28{fill:#ADABAB;}
	.macc29{fill:#ACAAAB;}
	.macc30{fill:#ACAAAA;}
	.macc31{fill:#ABA9AA;}
	.macc32{fill:#AAA8A9;}
	.macc33{fill:#A9A7A8;}
	.macc34{fill:#A8A6A7;}
	.macc35{fill:#A7A5A6;}
	.macc36{fill:#A7A5A5;}
	.macc37{fill:#A6A4A5;}
	.macc38{fill:#A5A4A4;}
	.macc39{fill:#A5A3A4;}
	.macc40{fill:#A4A2A3;}
	.macc41{fill:#A3A1A2;}
	.macc42{fill:#A2A0A1;}
	.macc43{fill:#A19FA0;}
	.macc44{fill:#A09F9F;}
	.macc45{fill:#A09E9F;}
	.macc46{fill:#9F9E9E;}
	.macc47{fill:#9F9D9E;}
	.macc48{fill:#9E9D9D;}
	.macc49{fill:#9E9C9D;}
	.macc50{fill:#9D9B9C;}
	.macc51{fill:#9C9A9B;}
	.macc52{fill:#9B9A9B;}
	.macc53{fill:#9B999A;}
	.macc54{fill:#9A9999;}
	.macc55{fill:#9A9899;}
	.macc56{fill:#999898;}
	.macc57{fill:#999798;}
	.macc58{fill:#989797;}
	.macc59{fill:#989697;}
	.macc60{fill:#979596;}
	.macc61{fill:#969596;}
	.macc62{fill:#969495;}
	.macc63{fill:#959495;}
	.macc64{fill:#959394;}
	.macc65{fill:#949393;}
	.macc66{fill:#949293;}
	.macc67{fill:#939292;}
	.macc68{fill:#939192;}
	.macc69{fill:#929191;}
	.macc70{fill:#919091;}
	.macc71{fill:#919090;}
	.macc72{fill:#908F90;}
	.macc73{fill:#908E8F;}
	.macc74{fill:#8F8E8F;}
	.macc75{fill:#8F8D8E;}
	.macc76{fill:#8E8D8D;}
	.macc77{fill:#8E8C8D;}
	.macc78{fill:#8D8C8C;}
	.macc79{fill:#8C8B8C;}
	.macc80{fill:#8C8B8B;}
	.macc81{fill:#8B8A8B;}
	.macc82{fill:#8B8A8A;}
	.macc83{fill:#8A898A;}
	.macc84{fill:#8A8889;}
	.macc85{fill:#898888;}
	.macc86{fill:#898788;}
	.macc87{fill:#888787;}
	.macc88{fill:#878687;}
	.macc89{fill:#878686;}
	.macc90{fill:#868586;}
	.macc91{fill:#868585;}
	.macc92{fill:#858485;}
	.macc93{fill:#858484;}
	.macc94{fill:#848384;}
	.macc95{fill:#848383;}
	.macc96{fill:#838282;}
	.macc97{fill:#828182;}
	.macc98{fill:#828181;}
	.macc99{fill:#818081;}
	.macc100{fill:#818080;}
	.macc101{fill:#807F80;}
	.macc102{fill:#807F7F;}
	.macc103{fill:#7F7E7F;}
	.macc104{fill:#7F7E7E;}
	.macc105{fill:#7E7D7E;}
	.macc106{fill:#7D7D7D;}
	.macc107{fill:#7D7C7C;}
	.macc108{fill:#7C7B7C;}
	.macc109{fill:#7C7B7B;}
	.macc110{fill:#7B7A7B;}
	.macc111{fill:#7B7A7A;}
	.macc112{fill:#7A797A;}
	.macc113{fill:#7A7979;}
	.macc114{fill:#797879;}
	.macc115{fill:#787878;}
	.macc116{fill:#787778;}
	.macc117{fill:#777777;}
	.macc118{fill:#777676;}
	.macc119{fill:#767676;}
	.macc120{fill:#767575;}
	.macc121{fill:#757475;}
	.macc122{fill:#757474;}
	.macc123{fill:#747374;}
	.macc124{fill:#737373;}
	.macc125{fill:#737273;}
	.macc126{fill:#727272;}
	.macc127{fill:#727172;}
	.macc128{fill:#717171;}
	.macc129{fill:#717070;}
	.macc130{fill:#707070;}
	.macc131{fill:#706F6F;}
	.macc132{fill:#6F6E6F;}
	.macc133{fill:#6E6E6E;}
	.macc134{fill:#6E6D6E;}
	.macc135{fill:#6D6D6D;}
	.macc136{fill:#6D6C6D;}
	.macc137{fill:#6C6C6C;}
	.macc138{fill:#6C6B6C;}
	.macc139{fill:#6B6B6B;}
	.macc140{fill:#6B6A6A;}
	.macc141{fill:#6A6A6A;}
	.macc142{fill:#696969;}
	.macc143{fill:#686868;}
	.macc144{fill:#686768;}
	.macc145{fill:#676767;}
	.macc146{fill:#676667;}
	.macc147{fill:#666666;}
	.macc148{fill:#666566;}
	.macc149{fill:#656565;}
	.macc150{fill:#646464;}
	.macc151{fill:#636363;}
	.macc152{fill:#626262;}
	.macc153{fill:#626162;}
	.macc154{fill:#616161;}
	.macc155{fill:#616061;}
	.macc156{fill:#606060;}
	.macc157{fill:#5F5F60;}
	.macc158{fill:#5F5F5F;}
	.macc159{fill:#5E5E5E;}
	.macc160{fill:#5D5D5D;}
	.macc161{fill:#5C5C5C;}
	.macc162{fill:#5B5B5B;}
	.macc163{fill:#5A5A5B;}
	.macc164{fill:#5A5A5A;}
	.macc165{fill:#59595A;}
	.macc166{fill:#595959;}
	.macc167{fill:#585858;}
	.macc168{fill:#575757;}
	.macc169{fill:#565656;}
	.macc170{fill:#555656;}
	.macc171{fill:#555555;}
	.macc172{fill:#545455;}
	.macc173{fill:#545454;}
	.macc174{fill:#535353;}
	.macc175{fill:#525252;}
	.macc176{fill:#515151;}
	.macc177{fill:#505151;}
	.macc178{fill:#505050;}
	.macc179{fill:#4F5050;}
	.macc180{fill:#4F4F4F;}
	.macc181{fill:#4E4F4F;}
	.macc182{fill:#4E4E4E;}
	.macc183{fill:#4D4D4D;}
	.macc184{fill:#4C4C4C;}
	.macc185{fill:url(#MACC_ID_1_);}
	.macc186{fill:url(#MACC_ID_2_);}
	.macc187{fill:url(#MACC_ID_3_);}
	.macc188{fill:var(--vitamui-primary);}
	.macc189{fill:url(#MACC_ID_4_);}
	.macc190{fill:url(#MACC_ID_5_);}
	.macc191{fill:url(#MACC_ID_6_);}
	.macc192{fill:url(#MACC_ID_7_);}
	.macc193{fill:#353535;}
	.macc194{fill:var(--vitamui-primary-800);}
	.macc195{fill:url(#MACC_ID_8_);}
	.macc196{fill:var(--vitamui-primary-200);}
</style>
<metadata>
	<sfw  xmlns="&ns_sfw;">
		<slices></slices>
		<sliceSourceBounds  bottomLeftOrigin="true" height="115.6" width="165.1" x="17.4" y="19.3"></sliceSourceBounds>
	</sfw>
</metadata>
<g>
	<g>
		<path class="macc0" d="M100,141.5c45.6,0,82.6,8.5,82.6,19s-37,20.2-82.6,20.2s-82.6-9.7-82.6-20.2C17.3,150.1,54.3,141.5,100,141.5
			z"/>
		<path class="macc1" d="M100,141.9c43.6,0,78.9,8.4,78.9,18.8c0,10.4-35.3,18.8-78.9,18.8s-78.9-8.4-78.9-18.8
			C21.1,150.2,56.4,141.9,100,141.9z"/>
		<path class="macc2" d="M100,139.7c43.6,0,78.9,8.4,78.9,18.8c0,10.4-35.3,18.8-78.9,18.8s-78.9-8.4-78.9-18.8
			C21.1,148,56.4,139.7,100,139.7z"/>
		<path class="macc1" d="M100,138.5c43.6,0,78.9,8.4,78.9,18.8c0,10.4-35.3,18.8-78.9,18.8s-78.9-8.4-78.9-18.8
			C21.1,146.8,56.4,138.5,100,138.5z"/>
		<path class="macc3" d="M99.9,138.5c22.9,0,43.4,2.3,57.8,6c-30.2-1.8-112.6,2.6-132.9,18.5c-2.5-1.8-3.8-3.8-3.8-5.7
			C20.9,146.8,56.4,138.5,99.9,138.5z"/>
		<path class="macc2" d="M21.1,157.2c0-10.4,35.3-18.8,78.9-18.8s78.9,8.4,78.9,18.8c0,0.4,0,0.6-0.1,1c-2.2-9.8-36.6-17.7-78.8-17.7
			s-76.6,7.9-78.8,17.7C21.1,157.8,21.1,157.6,21.1,157.2z"/>
	</g>
</g>
<g>
	<ellipse class="macc4" cx="93.4" cy="154.4" rx="41.9" ry="5"/>
	<ellipse class="macc5" cx="93.4" cy="154.4" rx="41.9" ry="5"/>
	<ellipse class="macc6" cx="93.4" cy="154.4" rx="41.8" ry="5"/>
	<ellipse class="macc7" cx="93.4" cy="154.4" rx="41.7" ry="5"/>
	<ellipse class="macc8" cx="93.4" cy="154.4" rx="41.6" ry="5"/>
	<ellipse class="macc9" cx="93.4" cy="154.4" rx="41.5" ry="4.9"/>
	<ellipse class="macc10" cx="93.4" cy="154.4" rx="41.4" ry="4.9"/>
	<ellipse class="macc11" cx="93.5" cy="154.4" rx="41.3" ry="4.9"/>
	<ellipse class="macc12" cx="93.5" cy="154.4" rx="41.3" ry="4.9"/>
	<ellipse class="macc13" cx="93.5" cy="154.4" rx="41.2" ry="4.9"/>
	<ellipse class="macc14" cx="93.5" cy="154.4" rx="41.1" ry="4.9"/>
	<ellipse class="macc15" cx="93.5" cy="154.4" rx="41" ry="4.8"/>
	<ellipse class="macc16" cx="93.5" cy="154.4" rx="40.9" ry="4.8"/>
	<ellipse class="macc17" cx="93.5" cy="154.4" rx="40.8" ry="4.8"/>
	<ellipse class="macc17" cx="93.5" cy="154.4" rx="40.8" ry="4.8"/>
	<ellipse class="macc18" cx="93.5" cy="154.4" rx="40.7" ry="4.8"/>
	<ellipse class="macc19" cx="93.5" cy="154.4" rx="40.6" ry="4.8"/>
	<ellipse class="macc20" cx="93.6" cy="154.4" rx="40.5" ry="4.7"/>
	<ellipse class="macc21" cx="93.6" cy="154.4" rx="40.4" ry="4.7"/>
	<ellipse class="macc22" cx="93.6" cy="154.4" rx="40.3" ry="4.7"/>
	<ellipse class="macc23" cx="93.6" cy="154.4" rx="40.3" ry="4.7"/>
	<ellipse class="macc24" cx="93.6" cy="154.4" rx="40.2" ry="4.7"/>
	<ellipse class="macc25" cx="93.6" cy="154.4" rx="40.1" ry="4.6"/>
	<ellipse class="macc25" cx="93.6" cy="154.4" rx="40" ry="4.6"/>
	<ellipse class="macc26" cx="93.6" cy="154.4" rx="39.9" ry="4.6"/>
	<ellipse class="macc26" cx="93.6" cy="154.4" rx="39.8" ry="4.6"/>
	<ellipse class="macc27" cx="93.6" cy="154.4" rx="39.7" ry="4.6"/>
	<ellipse class="macc28" cx="93.7" cy="154.4" rx="39.7" ry="4.6"/>
	<ellipse class="macc29" cx="93.7" cy="154.4" rx="39.6" ry="4.5"/>
	<ellipse class="macc30" cx="93.7" cy="154.4" rx="39.5" ry="4.5"/>
	<ellipse class="macc31" cx="93.7" cy="154.4" rx="39.4" ry="4.5"/>
	<ellipse class="macc32" cx="93.7" cy="154.4" rx="39.3" ry="4.5"/>
	<ellipse class="macc32" cx="93.7" cy="154.4" rx="39.2" ry="4.5"/>
	<ellipse class="macc33" cx="93.7" cy="154.4" rx="39.2" ry="4.5"/>
	<ellipse class="macc33" cx="93.7" cy="154.4" rx="39.1" ry="4.4"/>
	<ellipse class="macc34" cx="93.7" cy="154.4" rx="39" ry="4.4"/>
	<ellipse class="macc34" cx="93.7" cy="154.4" rx="38.9" ry="4.4"/>
	<ellipse class="macc35" cx="93.8" cy="154.4" rx="38.8" ry="4.4"/>
	<ellipse class="macc36" cx="93.8" cy="154.4" rx="38.7" ry="4.4"/>
	<ellipse class="macc37" cx="93.8" cy="154.4" rx="38.7" ry="4.4"/>
	<ellipse class="macc38" cx="93.8" cy="154.4" rx="38.6" ry="4.3"/>
	<ellipse class="macc39" cx="93.8" cy="154.4" rx="38.5" ry="4.3"/>
	<ellipse class="macc40" cx="93.8" cy="154.4" rx="38.4" ry="4.3"/>
	<ellipse class="macc40" cx="93.8" cy="154.3" rx="38.3" ry="4.3"/>
	<ellipse class="macc41" cx="93.8" cy="154.3" rx="38.2" ry="4.3"/>
	<ellipse class="macc41" cx="93.8" cy="154.3" rx="38.1" ry="4.3"/>
	<ellipse class="macc42" cx="93.9" cy="154.3" rx="38.1" ry="4.2"/>
	<ellipse class="macc42" cx="93.9" cy="154.3" rx="38" ry="4.2"/>
	<ellipse class="macc43" cx="93.9" cy="154.3" rx="37.9" ry="4.2"/>
	<ellipse class="macc44" cx="93.9" cy="154.3" rx="37.8" ry="4.2"/>
	<ellipse class="macc45" cx="93.9" cy="154.3" rx="37.7" ry="4.2"/>
	<ellipse class="macc46" cx="93.9" cy="154.3" rx="37.6" ry="4.2"/>
	<ellipse class="macc47" cx="93.9" cy="154.3" rx="37.6" ry="4.1"/>
	<ellipse class="macc48" cx="93.9" cy="154.3" rx="37.5" ry="4.1"/>
	<ellipse class="macc49" cx="93.9" cy="154.3" rx="37.4" ry="4.1"/>
	<ellipse class="macc50" cx="93.9" cy="154.3" rx="37.3" ry="4.1"/>
	<ellipse class="macc50" cx="94" cy="154.3" rx="37.2" ry="4.1"/>
	<ellipse class="macc51" cx="94" cy="154.3" rx="37.1" ry="4.1"/>
	<ellipse class="macc52" cx="94" cy="154.3" rx="37.1" ry="4"/>
	<ellipse class="macc53" cx="94" cy="154.3" rx="37" ry="4"/>
	<ellipse class="macc54" cx="94" cy="154.3" rx="36.9" ry="4"/>
	<ellipse class="macc55" cx="94" cy="154.3" rx="36.8" ry="4"/>
	<ellipse class="macc56" cx="94" cy="154.3" rx="36.7" ry="4"/>
	<ellipse class="macc57" cx="94" cy="154.3" rx="36.6" ry="4"/>
	<ellipse class="macc58" cx="94" cy="154.3" rx="36.6" ry="3.9"/>
	<ellipse class="macc59" cx="94" cy="154.3" rx="36.5" ry="3.9"/>
	<ellipse class="macc60" cx="94.1" cy="154.3" rx="36.4" ry="3.9"/>
	<ellipse class="macc61" cx="94.1" cy="154.3" rx="36.3" ry="3.9"/>
	<ellipse class="macc62" cx="94.1" cy="154.3" rx="36.2" ry="3.9"/>
	<ellipse class="macc63" cx="94.1" cy="154.3" rx="36.1" ry="3.8"/>
	<ellipse class="macc64" cx="94.1" cy="154.3" rx="36" ry="3.8"/>
	<ellipse class="macc65" cx="94.1" cy="154.3" rx="36" ry="3.8"/>
	<ellipse class="macc66" cx="94.1" cy="154.3" rx="35.9" ry="3.8"/>
	<ellipse class="macc67" cx="94.1" cy="154.3" rx="35.8" ry="3.8"/>
	<ellipse class="macc68" cx="94.1" cy="154.3" rx="35.7" ry="3.8"/>
	<ellipse class="macc69" cx="94.1" cy="154.3" rx="35.6" ry="3.7"/>
	<ellipse class="macc70" cx="94.2" cy="154.3" rx="35.5" ry="3.7"/>
	<ellipse class="macc71" cx="94.2" cy="154.3" rx="35.5" ry="3.7"/>
	<ellipse class="macc72" cx="94.2" cy="154.3" rx="35.4" ry="3.7"/>
	<ellipse class="macc73" cx="94.2" cy="154.3" rx="35.3" ry="3.7"/>
	<ellipse class="macc74" cx="94.2" cy="154.3" rx="35.2" ry="3.7"/>
	<ellipse class="macc75" cx="94.2" cy="154.3" rx="35.1" ry="3.6"/>
	<ellipse class="macc76" cx="94.2" cy="154.3" rx="35" ry="3.6"/>
	<ellipse class="macc77" cx="94.2" cy="154.3" rx="35" ry="3.6"/>
	<ellipse class="macc78" cx="94.2" cy="154.3" rx="34.9" ry="3.6"/>
	<ellipse class="macc79" cx="94.2" cy="154.3" rx="34.8" ry="3.6"/>
	<ellipse class="macc80" cx="94.3" cy="154.3" rx="34.7" ry="3.6"/>
	<ellipse class="macc81" cx="94.3" cy="154.3" rx="34.6" ry="3.5"/>
	<ellipse class="macc82" cx="94.3" cy="154.3" rx="34.5" ry="3.5"/>
	<ellipse class="macc83" cx="94.3" cy="154.3" rx="34.4" ry="3.5"/>
	<ellipse class="macc84" cx="94.3" cy="154.3" rx="34.4" ry="3.5"/>
	<ellipse class="macc85" cx="94.3" cy="154.3" rx="34.3" ry="3.5"/>
	<ellipse class="macc86" cx="94.3" cy="154.3" rx="34.2" ry="3.5"/>
	<ellipse class="macc87" cx="94.3" cy="154.3" rx="34.1" ry="3.4"/>
	<ellipse class="macc88" cx="94.3" cy="154.3" rx="34" ry="3.4"/>
	<ellipse class="macc89" cx="94.4" cy="154.3" rx="33.9" ry="3.4"/>
	<ellipse class="macc90" cx="94.4" cy="154.3" rx="33.9" ry="3.4"/>
	<ellipse class="macc91" cx="94.4" cy="154.3" rx="33.8" ry="3.4"/>
	<ellipse class="macc92" cx="94.4" cy="154.3" rx="33.7" ry="3.4"/>
	<ellipse class="macc93" cx="94.4" cy="154.3" rx="33.6" ry="3.3"/>
	<ellipse class="macc94" cx="94.4" cy="154.3" rx="33.5" ry="3.3"/>
	<ellipse class="macc95" cx="94.4" cy="154.3" rx="33.4" ry="3.3"/>
	<ellipse class="macc96" cx="94.4" cy="154.2" rx="33.4" ry="3.3"/>
	<ellipse class="macc97" cx="94.4" cy="154.2" rx="33.3" ry="3.3"/>
	<ellipse class="macc98" cx="94.4" cy="154.2" rx="33.2" ry="3.3"/>
	<ellipse class="macc99" cx="94.5" cy="154.2" rx="33.1" ry="3.2"/>
	<ellipse class="macc100" cx="94.5" cy="154.2" rx="33" ry="3.2"/>
	<ellipse class="macc101" cx="94.5" cy="154.2" rx="32.9" ry="3.2"/>
	<ellipse class="macc102" cx="94.5" cy="154.2" rx="32.8" ry="3.2"/>
	<ellipse class="macc103" cx="94.5" cy="154.2" rx="32.8" ry="3.2"/>
	<ellipse class="macc104" cx="94.5" cy="154.2" rx="32.7" ry="3.2"/>
	<ellipse class="macc105" cx="94.5" cy="154.2" rx="32.6" ry="3.1"/>
	<ellipse class="macc106" cx="94.5" cy="154.2" rx="32.5" ry="3.1"/>
	<ellipse class="macc107" cx="94.5" cy="154.2" rx="32.4" ry="3.1"/>
	<ellipse class="macc108" cx="94.5" cy="154.2" rx="32.3" ry="3.1"/>
	<ellipse class="macc109" cx="94.6" cy="154.2" rx="32.3" ry="3.1"/>
	<ellipse class="macc110" cx="94.6" cy="154.2" rx="32.2" ry="3"/>
	<ellipse class="macc111" cx="94.6" cy="154.2" rx="32.1" ry="3"/>
	<ellipse class="macc112" cx="94.6" cy="154.2" rx="32" ry="3"/>
	<ellipse class="macc113" cx="94.6" cy="154.2" rx="31.9" ry="3"/>
	<ellipse class="macc114" cx="94.6" cy="154.2" rx="31.8" ry="3"/>
	<ellipse class="macc115" cx="94.6" cy="154.2" rx="31.8" ry="3"/>
	<ellipse class="macc116" cx="94.6" cy="154.2" rx="31.7" ry="2.9"/>
	<ellipse class="macc117" cx="94.6" cy="154.2" rx="31.6" ry="2.9"/>
	<ellipse class="macc118" cx="94.6" cy="154.2" rx="31.5" ry="2.9"/>
	<ellipse class="macc119" cx="94.7" cy="154.2" rx="31.4" ry="2.9"/>
	<ellipse class="macc120" cx="94.7" cy="154.2" rx="31.3" ry="2.9"/>
	<ellipse class="macc121" cx="94.7" cy="154.2" rx="31.2" ry="2.9"/>
	<ellipse class="macc122" cx="94.7" cy="154.2" rx="31.2" ry="2.8"/>
	<ellipse class="macc123" cx="94.7" cy="154.2" rx="31.1" ry="2.8"/>
	<ellipse class="macc124" cx="94.7" cy="154.2" rx="31" ry="2.8"/>
	<ellipse class="macc125" cx="94.7" cy="154.2" rx="30.9" ry="2.8"/>
	<ellipse class="macc126" cx="94.7" cy="154.2" rx="30.8" ry="2.8"/>
	<ellipse class="macc127" cx="94.7" cy="154.2" rx="30.7" ry="2.8"/>
	<ellipse class="macc128" cx="94.7" cy="154.2" rx="30.7" ry="2.7"/>
	<ellipse class="macc129" cx="94.8" cy="154.2" rx="30.6" ry="2.7"/>
	<ellipse class="macc130" cx="94.8" cy="154.2" rx="30.5" ry="2.7"/>
	<ellipse class="macc131" cx="94.8" cy="154.2" rx="30.4" ry="2.7"/>
	<ellipse class="macc132" cx="94.8" cy="154.2" rx="30.3" ry="2.7"/>
	<ellipse class="macc133" cx="94.8" cy="154.2" rx="30.2" ry="2.7"/>
	<ellipse class="macc134" cx="94.8" cy="154.2" rx="30.2" ry="2.6"/>
	<ellipse class="macc135" cx="94.8" cy="154.2" rx="30.1" ry="2.6"/>
	<ellipse class="macc136" cx="94.8" cy="154.2" rx="30" ry="2.6"/>
	<ellipse class="macc137" cx="94.8" cy="154.2" rx="29.9" ry="2.6"/>
	<ellipse class="macc138" cx="94.9" cy="154.2" rx="29.8" ry="2.6"/>
	<ellipse class="macc139" cx="94.9" cy="154.2" rx="29.7" ry="2.6"/>
	<ellipse class="macc140" cx="94.9" cy="154.2" rx="29.6" ry="2.5"/>
	<ellipse class="macc141" cx="94.9" cy="154.2" rx="29.6" ry="2.5"/>
	<ellipse class="macc142" cx="94.9" cy="154.2" rx="29.5" ry="2.5"/>
	<ellipse class="macc142" cx="94.9" cy="154.2" rx="29.4" ry="2.5"/>
	<ellipse class="macc143" cx="94.9" cy="154.2" rx="29.3" ry="2.5"/>
	<ellipse class="macc144" cx="94.9" cy="154.2" rx="29.2" ry="2.5"/>
	<ellipse class="macc145" cx="94.9" cy="154.2" rx="29.1" ry="2.4"/>
	<ellipse class="macc146" cx="94.9" cy="154.2" rx="29.1" ry="2.4"/>
	<ellipse class="macc147" cx="95" cy="154.2" rx="29" ry="2.4"/>
	<ellipse class="macc148" cx="95" cy="154.2" rx="28.9" ry="2.4"/>
	<ellipse class="macc149" cx="95" cy="154.2" rx="28.8" ry="2.4"/>
	<ellipse class="macc150" cx="95" cy="154.2" rx="28.7" ry="2.3"/>
	<ellipse class="macc150" cx="95" cy="154.2" rx="28.6" ry="2.3"/>
	<ellipse class="macc151" cx="95" cy="154.2" rx="28.6" ry="2.3"/>
	<ellipse class="macc151" cx="95" cy="154.2" rx="28.5" ry="2.3"/>
	<ellipse class="macc152" cx="95" cy="154.1" rx="28.4" ry="2.3"/>
	<ellipse class="macc153" cx="95" cy="154.1" rx="28.3" ry="2.3"/>
	<ellipse class="macc154" cx="95" cy="154.1" rx="28.2" ry="2.2"/>
	<ellipse class="macc155" cx="95.1" cy="154.1" rx="28.1" ry="2.2"/>
	<ellipse class="macc156" cx="95.1" cy="154.1" rx="28" ry="2.2"/>
	<ellipse class="macc157" cx="95.1" cy="154.1" rx="28" ry="2.2"/>
	<ellipse class="macc158" cx="95.1" cy="154.1" rx="27.9" ry="2.2"/>
	<ellipse class="macc159" cx="95.1" cy="154.1" rx="27.8" ry="2.2"/>
	<ellipse class="macc159" cx="95.1" cy="154.1" rx="27.7" ry="2.1"/>
	<ellipse class="macc160" cx="95.1" cy="154.1" rx="27.6" ry="2.1"/>
	<ellipse class="macc160" cx="95.1" cy="154.1" rx="27.5" ry="2.1"/>
	<ellipse class="macc161" cx="95.1" cy="154.1" rx="27.5" ry="2.1"/>
	<ellipse class="macc161" cx="95.1" cy="154.1" rx="27.4" ry="2.1"/>
	<ellipse class="macc162" cx="95.2" cy="154.1" rx="27.3" ry="2.1"/>
	<ellipse class="macc163" cx="95.2" cy="154.1" rx="27.2" ry="2"/>
	<ellipse class="macc164" cx="95.2" cy="154.1" rx="27.1" ry="2"/>
	<ellipse class="macc165" cx="95.2" cy="154.1" rx="27" ry="2"/>
	<ellipse class="macc166" cx="95.2" cy="154.1" rx="27" ry="2"/>
	<ellipse class="macc167" cx="95.2" cy="154.1" rx="26.9" ry="2"/>
	<ellipse class="macc167" cx="95.2" cy="154.1" rx="26.8" ry="2"/>
	<ellipse class="macc168" cx="95.2" cy="154.1" rx="26.7" ry="1.9"/>
	<ellipse class="macc168" cx="95.2" cy="154.1" rx="26.6" ry="1.9"/>
	<ellipse class="macc169" cx="95.2" cy="154.1" rx="26.5" ry="1.9"/>
	<ellipse class="macc170" cx="95.3" cy="154.1" rx="26.5" ry="1.9"/>
	<ellipse class="macc171" cx="95.3" cy="154.1" rx="26.4" ry="1.9"/>
	<ellipse class="macc172" cx="95.3" cy="154.1" rx="26.3" ry="1.9"/>
	<ellipse class="macc173" cx="95.3" cy="154.1" rx="26.2" ry="1.8"/>
	<ellipse class="macc174" cx="95.3" cy="154.1" rx="26.1" ry="1.8"/>
	<ellipse class="macc174" cx="95.3" cy="154.1" rx="26" ry="1.8"/>
	<ellipse class="macc175" cx="95.3" cy="154.1" rx="25.9" ry="1.8"/>
	<ellipse class="macc175" cx="95.3" cy="154.1" rx="25.9" ry="1.8"/>
	<ellipse class="macc176" cx="95.3" cy="154.1" rx="25.8" ry="1.8"/>
	<ellipse class="macc177" cx="95.4" cy="154.1" rx="25.7" ry="1.7"/>
	<ellipse class="macc178" cx="95.4" cy="154.1" rx="25.6" ry="1.7"/>
	<ellipse class="macc179" cx="95.4" cy="154.1" rx="25.5" ry="1.7"/>
	<ellipse class="macc180" cx="95.4" cy="154.1" rx="25.4" ry="1.7"/>
	<ellipse class="macc181" cx="95.4" cy="154.1" rx="25.4" ry="1.7"/>
	<ellipse class="macc182" cx="95.4" cy="154.1" rx="25.3" ry="1.7"/>
	<ellipse class="macc183" cx="95.4" cy="154.1" rx="25.2" ry="1.6"/>
	<ellipse class="macc183" cx="95.4" cy="154.1" rx="25.1" ry="1.6"/>
	<ellipse class="macc184" cx="95.4" cy="154.1" rx="25" ry="1.6"/>
</g>
<g>
	<ellipse class="macc4" cx="113.4" cy="166.6" rx="41.9" ry="5"/>
	<ellipse class="macc5" cx="113.4" cy="166.6" rx="41.9" ry="5"/>
	<ellipse class="macc6" cx="113.4" cy="166.6" rx="41.8" ry="5"/>
	<ellipse class="macc7" cx="113.4" cy="166.6" rx="41.7" ry="5"/>
	<ellipse class="macc8" cx="113.4" cy="166.6" rx="41.6" ry="5"/>
	<ellipse class="macc9" cx="113.4" cy="166.6" rx="41.5" ry="4.9"/>
	<ellipse class="macc10" cx="113.4" cy="166.6" rx="41.4" ry="4.9"/>
	<ellipse class="macc11" cx="113.5" cy="166.6" rx="41.3" ry="4.9"/>
	<ellipse class="macc12" cx="113.5" cy="166.6" rx="41.3" ry="4.9"/>
	<ellipse class="macc13" cx="113.5" cy="166.6" rx="41.2" ry="4.9"/>
	<ellipse class="macc14" cx="113.5" cy="166.6" rx="41.1" ry="4.9"/>
	<ellipse class="macc15" cx="113.5" cy="166.6" rx="41" ry="4.8"/>
	<ellipse class="macc16" cx="113.5" cy="166.6" rx="40.9" ry="4.8"/>
	<ellipse class="macc17" cx="113.5" cy="166.6" rx="40.8" ry="4.8"/>
	<ellipse class="macc17" cx="113.5" cy="166.6" rx="40.8" ry="4.8"/>
	<ellipse class="macc18" cx="113.5" cy="166.6" rx="40.7" ry="4.8"/>
	<ellipse class="macc19" cx="113.5" cy="166.6" rx="40.6" ry="4.8"/>
	<ellipse class="macc20" cx="113.6" cy="166.6" rx="40.5" ry="4.7"/>
	<ellipse class="macc21" cx="113.6" cy="166.6" rx="40.4" ry="4.7"/>
	<ellipse class="macc22" cx="113.6" cy="166.6" rx="40.3" ry="4.7"/>
	<ellipse class="macc23" cx="113.6" cy="166.6" rx="40.3" ry="4.7"/>
	<ellipse class="macc24" cx="113.6" cy="166.6" rx="40.2" ry="4.7"/>
	<ellipse class="macc25" cx="113.6" cy="166.6" rx="40.1" ry="4.6"/>
	<ellipse class="macc25" cx="113.6" cy="166.6" rx="40" ry="4.6"/>
	<ellipse class="macc26" cx="113.6" cy="166.6" rx="39.9" ry="4.6"/>
	<ellipse class="macc26" cx="113.6" cy="166.6" rx="39.8" ry="4.6"/>
	<ellipse class="macc27" cx="113.6" cy="166.6" rx="39.7" ry="4.6"/>
	<ellipse class="macc28" cx="113.7" cy="166.6" rx="39.7" ry="4.6"/>
	<ellipse class="macc29" cx="113.7" cy="166.6" rx="39.6" ry="4.5"/>
	<ellipse class="macc30" cx="113.7" cy="166.6" rx="39.5" ry="4.5"/>
	<ellipse class="macc31" cx="113.7" cy="166.6" rx="39.4" ry="4.5"/>
	<ellipse class="macc32" cx="113.7" cy="166.6" rx="39.3" ry="4.5"/>
	<ellipse class="macc32" cx="113.7" cy="166.6" rx="39.2" ry="4.5"/>
	<ellipse class="macc33" cx="113.7" cy="166.6" rx="39.2" ry="4.5"/>
	<ellipse class="macc33" cx="113.7" cy="166.6" rx="39.1" ry="4.4"/>
	<ellipse class="macc34" cx="113.7" cy="166.6" rx="39" ry="4.4"/>
	<ellipse class="macc34" cx="113.7" cy="166.6" rx="38.9" ry="4.4"/>
	<ellipse class="macc35" cx="113.8" cy="166.5" rx="38.8" ry="4.4"/>
	<ellipse class="macc36" cx="113.8" cy="166.5" rx="38.7" ry="4.4"/>
	<ellipse class="macc37" cx="113.8" cy="166.5" rx="38.7" ry="4.4"/>
	<ellipse class="macc38" cx="113.8" cy="166.5" rx="38.6" ry="4.3"/>
	<ellipse class="macc39" cx="113.8" cy="166.5" rx="38.5" ry="4.3"/>
	<ellipse class="macc40" cx="113.8" cy="166.5" rx="38.4" ry="4.3"/>
	<ellipse class="macc40" cx="113.8" cy="166.5" rx="38.3" ry="4.3"/>
	<ellipse class="macc41" cx="113.8" cy="166.5" rx="38.2" ry="4.3"/>
	<ellipse class="macc41" cx="113.8" cy="166.5" rx="38.1" ry="4.3"/>
	<ellipse class="macc42" cx="113.9" cy="166.5" rx="38.1" ry="4.2"/>
	<ellipse class="macc42" cx="113.9" cy="166.5" rx="38" ry="4.2"/>
	<ellipse class="macc43" cx="113.9" cy="166.5" rx="37.9" ry="4.2"/>
	<ellipse class="macc44" cx="113.9" cy="166.5" rx="37.8" ry="4.2"/>
	<ellipse class="macc45" cx="113.9" cy="166.5" rx="37.7" ry="4.2"/>
	<ellipse class="macc46" cx="113.9" cy="166.5" rx="37.6" ry="4.2"/>
	<ellipse class="macc47" cx="113.9" cy="166.5" rx="37.6" ry="4.1"/>
	<ellipse class="macc48" cx="113.9" cy="166.5" rx="37.5" ry="4.1"/>
	<ellipse class="macc49" cx="113.9" cy="166.5" rx="37.4" ry="4.1"/>
	<ellipse class="macc50" cx="113.9" cy="166.5" rx="37.3" ry="4.1"/>
	<ellipse class="macc50" cx="114" cy="166.5" rx="37.2" ry="4.1"/>
	<ellipse class="macc51" cx="114" cy="166.5" rx="37.1" ry="4.1"/>
	<ellipse class="macc52" cx="114" cy="166.5" rx="37.1" ry="4"/>
	<ellipse class="macc53" cx="114" cy="166.5" rx="37" ry="4"/>
	<ellipse class="macc54" cx="114" cy="166.5" rx="36.9" ry="4"/>
	<ellipse class="macc55" cx="114" cy="166.5" rx="36.8" ry="4"/>
	<ellipse class="macc56" cx="114" cy="166.5" rx="36.7" ry="4"/>
	<ellipse class="macc57" cx="114" cy="166.5" rx="36.6" ry="4"/>
	<ellipse class="macc58" cx="114" cy="166.5" rx="36.6" ry="3.9"/>
	<ellipse class="macc59" cx="114" cy="166.5" rx="36.5" ry="3.9"/>
	<ellipse class="macc60" cx="114.1" cy="166.5" rx="36.4" ry="3.9"/>
	<ellipse class="macc61" cx="114.1" cy="166.5" rx="36.3" ry="3.9"/>
	<ellipse class="macc62" cx="114.1" cy="166.5" rx="36.2" ry="3.9"/>
	<ellipse class="macc63" cx="114.1" cy="166.5" rx="36.1" ry="3.8"/>
	<ellipse class="macc64" cx="114.1" cy="166.5" rx="36" ry="3.8"/>
	<ellipse class="macc65" cx="114.1" cy="166.5" rx="36" ry="3.8"/>
	<ellipse class="macc66" cx="114.1" cy="166.5" rx="35.9" ry="3.8"/>
	<ellipse class="macc67" cx="114.1" cy="166.5" rx="35.8" ry="3.8"/>
	<ellipse class="macc68" cx="114.1" cy="166.5" rx="35.7" ry="3.8"/>
	<ellipse class="macc69" cx="114.1" cy="166.5" rx="35.6" ry="3.7"/>
	<ellipse class="macc70" cx="114.2" cy="166.5" rx="35.5" ry="3.7"/>
	<ellipse class="macc71" cx="114.2" cy="166.5" rx="35.5" ry="3.7"/>
	<ellipse class="macc72" cx="114.2" cy="166.5" rx="35.4" ry="3.7"/>
	<ellipse class="macc73" cx="114.2" cy="166.5" rx="35.3" ry="3.7"/>
	<ellipse class="macc74" cx="114.2" cy="166.5" rx="35.2" ry="3.7"/>
	<ellipse class="macc75" cx="114.2" cy="166.5" rx="35.1" ry="3.6"/>
	<ellipse class="macc76" cx="114.2" cy="166.5" rx="35" ry="3.6"/>
	<ellipse class="macc77" cx="114.2" cy="166.5" rx="35" ry="3.6"/>
	<ellipse class="macc78" cx="114.2" cy="166.5" rx="34.9" ry="3.6"/>
	<ellipse class="macc79" cx="114.2" cy="166.5" rx="34.8" ry="3.6"/>
	<ellipse class="macc80" cx="114.3" cy="166.5" rx="34.7" ry="3.6"/>
	<ellipse class="macc81" cx="114.3" cy="166.5" rx="34.6" ry="3.5"/>
	<ellipse class="macc82" cx="114.3" cy="166.5" rx="34.5" ry="3.5"/>
	<ellipse class="macc83" cx="114.3" cy="166.5" rx="34.4" ry="3.5"/>
	<ellipse class="macc84" cx="114.3" cy="166.5" rx="34.4" ry="3.5"/>
	<ellipse class="macc85" cx="114.3" cy="166.5" rx="34.3" ry="3.5"/>
	<ellipse class="macc86" cx="114.3" cy="166.5" rx="34.2" ry="3.5"/>
	<ellipse class="macc87" cx="114.3" cy="166.5" rx="34.1" ry="3.4"/>
	<ellipse class="macc88" cx="114.3" cy="166.5" rx="34" ry="3.4"/>
	<ellipse class="macc89" cx="114.4" cy="166.5" rx="33.9" ry="3.4"/>
	<ellipse class="macc90" cx="114.4" cy="166.4" rx="33.9" ry="3.4"/>
	<ellipse class="macc91" cx="114.4" cy="166.4" rx="33.8" ry="3.4"/>
	<ellipse class="macc92" cx="114.4" cy="166.4" rx="33.7" ry="3.4"/>
	<ellipse class="macc93" cx="114.4" cy="166.4" rx="33.6" ry="3.3"/>
	<ellipse class="macc94" cx="114.4" cy="166.4" rx="33.5" ry="3.3"/>
	<ellipse class="macc95" cx="114.4" cy="166.4" rx="33.4" ry="3.3"/>
	<ellipse class="macc96" cx="114.4" cy="166.4" rx="33.4" ry="3.3"/>
	<ellipse class="macc97" cx="114.4" cy="166.4" rx="33.3" ry="3.3"/>
	<ellipse class="macc98" cx="114.4" cy="166.4" rx="33.2" ry="3.3"/>
	<ellipse class="macc99" cx="114.5" cy="166.4" rx="33.1" ry="3.2"/>
	<ellipse class="macc100" cx="114.5" cy="166.4" rx="33" ry="3.2"/>
	<ellipse class="macc101" cx="114.5" cy="166.4" rx="32.9" ry="3.2"/>
	<ellipse class="macc102" cx="114.5" cy="166.4" rx="32.8" ry="3.2"/>
	<ellipse class="macc103" cx="114.5" cy="166.4" rx="32.8" ry="3.2"/>
	<ellipse class="macc104" cx="114.5" cy="166.4" rx="32.7" ry="3.2"/>
	<ellipse class="macc105" cx="114.5" cy="166.4" rx="32.6" ry="3.1"/>
	<ellipse class="macc106" cx="114.5" cy="166.4" rx="32.5" ry="3.1"/>
	<ellipse class="macc107" cx="114.5" cy="166.4" rx="32.4" ry="3.1"/>
	<ellipse class="macc108" cx="114.5" cy="166.4" rx="32.3" ry="3.1"/>
	<ellipse class="macc109" cx="114.6" cy="166.4" rx="32.3" ry="3.1"/>
	<ellipse class="macc110" cx="114.6" cy="166.4" rx="32.2" ry="3"/>
	<ellipse class="macc111" cx="114.6" cy="166.4" rx="32.1" ry="3"/>
	<ellipse class="macc112" cx="114.6" cy="166.4" rx="32" ry="3"/>
	<ellipse class="macc113" cx="114.6" cy="166.4" rx="31.9" ry="3"/>
	<ellipse class="macc114" cx="114.6" cy="166.4" rx="31.8" ry="3"/>
	<ellipse class="macc115" cx="114.6" cy="166.4" rx="31.8" ry="3"/>
	<ellipse class="macc116" cx="114.6" cy="166.4" rx="31.7" ry="2.9"/>
	<ellipse class="macc117" cx="114.6" cy="166.4" rx="31.6" ry="2.9"/>
	<ellipse class="macc118" cx="114.6" cy="166.4" rx="31.5" ry="2.9"/>
	<ellipse class="macc119" cx="114.7" cy="166.4" rx="31.4" ry="2.9"/>
	<ellipse class="macc120" cx="114.7" cy="166.4" rx="31.3" ry="2.9"/>
	<ellipse class="macc121" cx="114.7" cy="166.4" rx="31.2" ry="2.9"/>
	<ellipse class="macc122" cx="114.7" cy="166.4" rx="31.2" ry="2.8"/>
	<ellipse class="macc123" cx="114.7" cy="166.4" rx="31.1" ry="2.8"/>
	<ellipse class="macc124" cx="114.7" cy="166.4" rx="31" ry="2.8"/>
	<ellipse class="macc125" cx="114.7" cy="166.4" rx="30.9" ry="2.8"/>
	<ellipse class="macc126" cx="114.7" cy="166.4" rx="30.8" ry="2.8"/>
	<ellipse class="macc127" cx="114.7" cy="166.4" rx="30.7" ry="2.8"/>
	<ellipse class="macc128" cx="114.7" cy="166.4" rx="30.7" ry="2.7"/>
	<ellipse class="macc129" cx="114.8" cy="166.4" rx="30.6" ry="2.7"/>
	<ellipse class="macc130" cx="114.8" cy="166.4" rx="30.5" ry="2.7"/>
	<ellipse class="macc131" cx="114.8" cy="166.4" rx="30.4" ry="2.7"/>
	<ellipse class="macc132" cx="114.8" cy="166.4" rx="30.3" ry="2.7"/>
	<ellipse class="macc133" cx="114.8" cy="166.4" rx="30.2" ry="2.7"/>
	<ellipse class="macc134" cx="114.8" cy="166.4" rx="30.2" ry="2.6"/>
	<ellipse class="macc135" cx="114.8" cy="166.4" rx="30.1" ry="2.6"/>
	<ellipse class="macc136" cx="114.8" cy="166.4" rx="30" ry="2.6"/>
	<ellipse class="macc137" cx="114.8" cy="166.4" rx="29.9" ry="2.6"/>
	<ellipse class="macc138" cx="114.9" cy="166.4" rx="29.8" ry="2.6"/>
	<ellipse class="macc139" cx="114.9" cy="166.4" rx="29.7" ry="2.6"/>
	<ellipse class="macc140" cx="114.9" cy="166.4" rx="29.6" ry="2.5"/>
	<ellipse class="macc141" cx="114.9" cy="166.4" rx="29.6" ry="2.5"/>
	<ellipse class="macc142" cx="114.9" cy="166.4" rx="29.5" ry="2.5"/>
	<ellipse class="macc142" cx="114.9" cy="166.4" rx="29.4" ry="2.5"/>
	<ellipse class="macc143" cx="114.9" cy="166.4" rx="29.3" ry="2.5"/>
	<ellipse class="macc144" cx="114.9" cy="166.4" rx="29.2" ry="2.5"/>
	<ellipse class="macc145" cx="114.9" cy="166.4" rx="29.1" ry="2.4"/>
	<ellipse class="macc146" cx="114.9" cy="166.4" rx="29.1" ry="2.4"/>
	<ellipse class="macc147" cx="115" cy="166.4" rx="29" ry="2.4"/>
	<ellipse class="macc148" cx="115" cy="166.3" rx="28.9" ry="2.4"/>
	<ellipse class="macc149" cx="115" cy="166.3" rx="28.8" ry="2.4"/>
	<ellipse class="macc150" cx="115" cy="166.3" rx="28.7" ry="2.3"/>
	<ellipse class="macc150" cx="115" cy="166.3" rx="28.6" ry="2.3"/>
	<ellipse class="macc151" cx="115" cy="166.3" rx="28.6" ry="2.3"/>
	<ellipse class="macc151" cx="115" cy="166.3" rx="28.5" ry="2.3"/>
	<ellipse class="macc152" cx="115" cy="166.3" rx="28.4" ry="2.3"/>
	<ellipse class="macc153" cx="115" cy="166.3" rx="28.3" ry="2.3"/>
	<ellipse class="macc154" cx="115" cy="166.3" rx="28.2" ry="2.2"/>
	<ellipse class="macc155" cx="115.1" cy="166.3" rx="28.1" ry="2.2"/>
	<ellipse class="macc156" cx="115.1" cy="166.3" rx="28" ry="2.2"/>
	<ellipse class="macc157" cx="115.1" cy="166.3" rx="28" ry="2.2"/>
	<ellipse class="macc158" cx="115.1" cy="166.3" rx="27.9" ry="2.2"/>
	<ellipse class="macc159" cx="115.1" cy="166.3" rx="27.8" ry="2.2"/>
	<ellipse class="macc159" cx="115.1" cy="166.3" rx="27.7" ry="2.1"/>
	<ellipse class="macc160" cx="115.1" cy="166.3" rx="27.6" ry="2.1"/>
	<ellipse class="macc160" cx="115.1" cy="166.3" rx="27.5" ry="2.1"/>
	<ellipse class="macc161" cx="115.1" cy="166.3" rx="27.5" ry="2.1"/>
	<ellipse class="macc161" cx="115.1" cy="166.3" rx="27.4" ry="2.1"/>
	<ellipse class="macc162" cx="115.2" cy="166.3" rx="27.3" ry="2.1"/>
	<ellipse class="macc163" cx="115.2" cy="166.3" rx="27.2" ry="2"/>
	<ellipse class="macc164" cx="115.2" cy="166.3" rx="27.1" ry="2"/>
	<ellipse class="macc165" cx="115.2" cy="166.3" rx="27" ry="2"/>
	<ellipse class="macc166" cx="115.2" cy="166.3" rx="27" ry="2"/>
	<ellipse class="macc167" cx="115.2" cy="166.3" rx="26.9" ry="2"/>
	<ellipse class="macc167" cx="115.2" cy="166.3" rx="26.8" ry="2"/>
	<ellipse class="macc168" cx="115.2" cy="166.3" rx="26.7" ry="1.9"/>
	<ellipse class="macc168" cx="115.2" cy="166.3" rx="26.6" ry="1.9"/>
	<ellipse class="macc169" cx="115.2" cy="166.3" rx="26.5" ry="1.9"/>
	<ellipse class="macc170" cx="115.3" cy="166.3" rx="26.5" ry="1.9"/>
	<ellipse class="macc171" cx="115.3" cy="166.3" rx="26.4" ry="1.9"/>
	<ellipse class="macc172" cx="115.3" cy="166.3" rx="26.3" ry="1.9"/>
	<ellipse class="macc173" cx="115.3" cy="166.3" rx="26.2" ry="1.8"/>
	<ellipse class="macc174" cx="115.3" cy="166.3" rx="26.1" ry="1.8"/>
	<ellipse class="macc174" cx="115.3" cy="166.3" rx="26" ry="1.8"/>
	<ellipse class="macc175" cx="115.3" cy="166.3" rx="25.9" ry="1.8"/>
	<ellipse class="macc175" cx="115.3" cy="166.3" rx="25.9" ry="1.8"/>
	<ellipse class="macc176" cx="115.3" cy="166.3" rx="25.8" ry="1.8"/>
	<ellipse class="macc177" cx="115.4" cy="166.3" rx="25.7" ry="1.7"/>
	<ellipse class="macc178" cx="115.4" cy="166.3" rx="25.6" ry="1.7"/>
	<ellipse class="macc179" cx="115.4" cy="166.3" rx="25.5" ry="1.7"/>
	<ellipse class="macc180" cx="115.4" cy="166.3" rx="25.4" ry="1.7"/>
	<ellipse class="macc181" cx="115.4" cy="166.3" rx="25.4" ry="1.7"/>
	<ellipse class="macc182" cx="115.4" cy="166.3" rx="25.3" ry="1.7"/>
	<ellipse class="macc183" cx="115.4" cy="166.3" rx="25.2" ry="1.6"/>
	<ellipse class="macc183" cx="115.4" cy="166.3" rx="25.1" ry="1.6"/>
	<ellipse class="macc184" cx="115.4" cy="166.3" rx="25" ry="1.6"/>
</g>
<g>
	<g>
		<g>
			
				<linearGradient id="MACC_ID_1_" gradientUnits="userSpaceOnUse" x1="77.7271" y1="-11.3918" x2="77.7271" y2="56.7453" gradientTransform="matrix(1 0 0 -1 0 122.9375)">
				<stop  offset="0" style="stop-color:#4C4C4C"/>
				<stop  offset="0.7896" style="stop-color:#4C4C4C"/>
			</linearGradient>
			<path class="macc185" d="M99.4,71.9l-0.1,57.5l0,0.1l0.1-0.1v5.9c0,3.7-2.3,6.7-5.1,6.7h-3.1h-7.7H64.2H50.9c2.8,0,5.1-3,5.1-6.7
				l0.1-57.5l0-0.1l-0.1,0.1v-5.9c0-3.7,2.3-6.7,5.1-6.7h3.1h7.7h19.3h13.3C101.7,65.1,99.4,68.1,99.4,71.9z"/>
			
				<linearGradient id="MACC_ID_2_" gradientUnits="userSpaceOnUse" x1="67.2884" y1="30.0562" x2="35.6083" y2="-4.916285e-02" gradientTransform="matrix(1 0 0 -1 0 122.9375)">
				<stop  offset="0" style="stop-color:#F5F5F5"/>
				<stop  offset="0.7896" style="stop-color:#9B9A9B"/>
			</linearGradient>
			<path class="macc186" d="M61.2,65.1h-0.8v0.1c-2.6,0.5-4.7,3.5-4.7,7l0,62.7c0,3.5-2.2,7.1-4.8,7.1l0,0c3,0,5.4-3.2,5.4-7.1l0-62.7
				C56.4,68.9,58.7,65.4,61.2,65.1L61.2,65.1z"/>
		</g>
		<linearGradient id="MACC_ID_3_" gradientUnits="userSpaceOnUse" x1="92.6922" y1="89.1471" x2="92.6922" y2="169.1631">
			<stop  offset="0" style="stop-color:#F5F5F5"/>
			<stop  offset="0.7896" style="stop-color:#9B9A9B"/>
		</linearGradient>
		<path class="macc187" d="M118.2,147.5L118,79.9l0-0.1l0.2,0.1V73c0-4.4-2.7-7.9-6-7.9h-3.6h-9H76.9H61.2c3.3,0,6,3.5,6,7.9l0.2,67.5
			l0,0.1l-0.2-0.1v6.9c0,4.4,2.7,7.9,6,7.9h3.6h9h22.7h15.6C120.9,155.4,118.2,151.8,118.2,147.5z"/>
		<g>
			<g>
				<rect x="73.4" y="77.3" class="macc188" width="25.2" height="0.9"/>
				<rect x="105.3" y="77.3" class="macc188" width="8.4" height="0.9"/>
			</g>
			<g>
				<rect x="73.4" y="83" class="macc188" width="25.2" height="0.9"/>
				<rect x="105.3" y="83" class="macc188" width="8.4" height="0.9"/>
			</g>
			<g>
				<rect x="73.4" y="88.6" class="macc188" width="25.2" height="0.9"/>
				<rect x="105.3" y="88.6" class="macc188" width="8.4" height="0.9"/>
			</g>
			<g>
				<rect x="73.4" y="94.3" class="macc188" width="25.2" height="0.9"/>
				<rect x="105.3" y="94.3" class="macc188" width="8.4" height="0.9"/>
			</g>
			<g>
				<rect x="73.4" y="99.9" class="macc188" width="25.2" height="0.9"/>
				<rect x="105.3" y="99.9" class="macc188" width="8.4" height="0.9"/>
			</g>
			<g>
				<rect x="73.4" y="105.5" class="macc188" width="25.2" height="0.9"/>
				<rect x="105.3" y="105.5" class="macc188" width="8.4" height="0.9"/>
			</g>
			<g>
				<rect x="73.4" y="111.2" class="macc188" width="25.2" height="0.9"/>
				<rect x="105.3" y="111.2" class="macc188" width="8.4" height="0.9"/>
			</g>
			<g>
				<rect x="73.4" y="116.8" class="macc188" width="25.2" height="0.9"/>
				<rect x="105.3" y="116.8" class="macc188" width="8.4" height="0.9"/>
			</g>
			<g>
				<rect x="73.4" y="122.5" class="macc188" width="25.2" height="0.9"/>
				<rect x="105.3" y="122.5" class="macc188" width="8.4" height="0.9"/>
			</g>
			<g>
				<rect x="73.4" y="128.1" class="macc188" width="25.2" height="0.9"/>
				<rect x="105.3" y="128.1" class="macc188" width="8.4" height="0.9"/>
			</g>
			<g>
				<rect x="73.4" y="133.8" class="macc188" width="25.2" height="0.9"/>
				<rect x="105.3" y="133.8" class="macc188" width="8.4" height="0.9"/>
			</g>
			<g>
				<rect x="73.4" y="139.4" class="macc188" width="25.2" height="0.9"/>
				<rect x="105.3" y="139.4" class="macc188" width="8.4" height="0.9"/>
			</g>
		</g>
		<linearGradient id="MACC_ID_4_" gradientUnits="userSpaceOnUse" x1="81.3774" y1="147.8153" x2="103.7529" y2="135.9162">
			<stop  offset="0" style="stop-color:#F5F5F5"/>
			<stop  offset="0.7896" style="stop-color:#9B9A9B"/>
		</linearGradient>
		<path class="macc189" d="M78.3,147.5l0.2-16.3l0-0.1l-0.2,0.1v-6.9c0-4.4,2.7-7.9,6-7.9h50.9c-3.3,0-6,3.5-6,7.9l-0.2,16.3l0,0.1
			l0.2-0.1v6.9c0,4.4-2.7,7.9-6,7.9h-3.6h-9H88H72.3C75.7,155.4,78.3,151.8,78.3,147.5z"/>
		<linearGradient id="MACC_ID_5_" gradientUnits="userSpaceOnUse" x1="101.0169" y1="133.178" x2="150.1027" y2="165.9996">
			<stop  offset="0" style="stop-color:#F5F5F5"/>
			<stop  offset="0.7896" style="stop-color:#9B9A9B"/>
		</linearGradient>
		<path class="macc190" d="M141.1,161.6l-0.2-30.4l0-0.1l0.2,0.1v-6.9c0-4.4-2.7-7.9-6-7.9h-3.6h-9H99.8H84.1c3.3,0,6,3.5,6,7.9
			l0.2,30.4l0-14l-0.2-0.1v21c0,4.4,2.7,7.9,6,7.9h3.6h9h22.7h15.6C143.8,169.5,141.1,165.9,141.1,161.6z"/>
		<linearGradient id="MACC_ID_6_" gradientUnits="userSpaceOnUse" x1="115.2028" y1="155.833" x2="44.7449" y2="88.8775">
			<stop  offset="0" style="stop-color:#F5F5F5"/>
			<stop  offset="0.7896" style="stop-color:#9B9A9B"/>
		</linearGradient>
		<path class="macc191" d="M95.5,169.4c-3.3-0.4-5.7-4-5.7-8.2l0-36.5c0-4-2.7-7.7-5.7-7.8c-3,0.1-5.2,3.7-5.2,7.8l0,22.4
			c0,4.1-2.4,7.6-5.5,8.2v0.1h-0.9v-0.1c-3.1-0.6-5.5-4.1-5.5-8.2l0-73.7c0-4.2-2.5-8.3-5.6-8.3l0,0c3.5,0,6.4,3.7,6.4,8.3l0,73.7
			c0,3.9,2.3,7.5,5.2,7.9c2.9-0.3,5.2-4,5.2-7.9l0-22.4c0-4.5,2.7-8.1,6.1-8.3v0h0.3v0c3.4,0.2,6.1,3.8,6.1,8.3l0,36.5
			c0,3.9,2.2,7.4,5,7.8l5,0.1h46.6v0.5L95.5,169.4z"/>
		<g>
			<g>
				<rect x="95.5" y="123.8" class="macc188" width="25.2" height="0.9"/>
				<rect x="127.4" y="123.8" class="macc188" width="8.4" height="0.9"/>
			</g>
			<g>
				<rect x="95.5" y="129.5" class="macc188" width="25.2" height="0.9"/>
				<rect x="127.4" y="129.5" class="macc188" width="8.4" height="0.9"/>
			</g>
			<g>
				<rect x="95.5" y="135.1" class="macc188" width="25.2" height="0.9"/>
				<rect x="127.4" y="135.1" class="macc188" width="8.4" height="0.9"/>
			</g>
			<g>
				<rect x="95.5" y="140.8" class="macc188" width="25.2" height="0.9"/>
				<rect x="127.4" y="140.8" class="macc188" width="8.4" height="0.9"/>
			</g>
			<g>
				<rect x="95.5" y="146.4" class="macc188" width="25.2" height="0.9"/>
				<rect x="127.4" y="146.4" class="macc188" width="8.4" height="0.9"/>
			</g>
		</g>
	</g>
	<linearGradient id="MACC_ID_7_" gradientUnits="userSpaceOnUse" x1="83.7465" y1="109.2026" x2="13.201" y2="95.903">
		<stop  offset="0" style="stop-color:var(--vitamui-primary-800)"/>
		<stop  offset="0.1499" style="stop-color:var(--vitamui-primary-700)"/>
		<stop  offset="0.2588" style="stop-color:var(--vitamui-primary-600)"/>
		<stop  offset="0.2919" style="stop-color:var(--vitamui-primary-600)"/>
		<stop  offset="0.4118" style="stop-color:var(--vitamui-primary)"/>
		<stop  offset="0.5269" style="stop-color:var(--vitamui-primary)"/>
		<stop  offset="0.6312" style="stop-color:var(--vitamui-primary)"/>
		<stop  offset="0.6963" style="stop-color:var(--vitamui-primary)"/>
		<stop  offset="0.7969" style="stop-color:var(--vitamui-primary-600)"/>
		<stop  offset="0.92" style="stop-color:var(--vitamui-primary-400)"/>
		<stop  offset="1" style="stop-color:var(--vitamui-primary-300)"/>
	</linearGradient>
	<path class="macc192" d="M28.3,126.4h38.5v-48H28.3c-2.2,0-4.1,1.8-4.1,4.1v39.9C24.3,124.5,26.1,126.4,28.3,126.4z"/>
	<path class="macc193" d="M30,125.3h36.8V79.4H30c-2.1,0-3.9,1.7-3.9,3.9v38.2C26.1,123.6,27.9,125.3,30,125.3z"/>
	<path class="macc194" d="M30.7,125.3h36.1v-45H30.7c-2.1,0-3.8,1.7-3.8,3.8v37.4C26.9,123.6,28.6,125.3,30.7,125.3z"/>
	<rect x="63.6" y="78.3" class="macc194" width="3.3" height="48"/>
	<linearGradient id="MACC_ID_8_" gradientUnits="userSpaceOnUse" x1="26.9387" y1="99.6834" x2="63.5739" y2="99.6834">
		<stop  offset="0" style="stop-color:#4C4C4C"/>
		<stop  offset="1" style="stop-color:#000000"/>
	</linearGradient>
	<path class="macc195" d="M30.7,80.3c-2.1,0-3.8,1.7-3.8,3.8v35c0,0,36.2-38.8,36.6-38.8H30.7z"/>
	<g>
		<g>
			<path class="macc196" d="M32.8,90.9v1.7h2.3V92c0-0.3,0-0.5,0.1-0.6c0.1-0.1,0.2-0.2,0.3-0.2c0.1,0,0.2,0.1,0.3,0.2
				c0.1,0.1,0.1,0.3,0.1,0.6v1.7h-4.3c-0.2,0-0.4-0.1-0.5-0.2c-0.1-0.1-0.1-0.2-0.1-0.4c0-0.2,0-0.3,0.1-0.4
				c0.1-0.1,0.2-0.2,0.5-0.2h0.1v-4.4h-0.1c-0.2,0-0.4-0.1-0.5-0.2c-0.1-0.1-0.1-0.2-0.1-0.4c0-0.2,0-0.3,0.1-0.4
				c0.1-0.1,0.2-0.2,0.5-0.2l4.1,0v1.7c0,0.3,0,0.5-0.1,0.6c-0.1,0.1-0.2,0.2-0.3,0.2c-0.1,0-0.2-0.1-0.3-0.2s-0.1-0.3-0.1-0.6v-0.6
				h-2.1v1.6h0.8c0-0.3,0-0.5,0.1-0.6c0.1-0.2,0.2-0.3,0.4-0.3c0.1,0,0.2,0.1,0.3,0.2c0.1,0.1,0.1,0.3,0.1,0.6V91
				c0,0.2,0,0.4-0.1,0.5c-0.1,0.2-0.2,0.3-0.4,0.3c-0.2,0-0.3-0.1-0.4-0.3c0-0.1-0.1-0.3-0.1-0.6H32.8z"/>
		</g>
		<rect x="37.5" y="85.9" class="macc196" width="5.7" height="9.1"/>
	</g>
	<rect x="56.4" y="126.4" class="macc193" width="10.5" height="3.6"/>
	<rect x="115.6" y="154.7" class="macc188" width="20.8" height="2.5"/>
	<rect x="129.2" y="160" class="macc188" width="7.2" height="2.1"/>
</g>
</svg>
