<?xml version="1.0" encoding="utf-8"?>
<!-- Generator: Adobe Illustrator 26.0.3, SVG Export Plug-In . SVG Version: 6.00 Build 0)  -->
<!DOCTYPE svg PUBLIC "-//W3C//DTD SVG 1.1//EN" "http://www.w3.org/Graphics/SVG/1.1/DTD/svg11.dtd" [
  <!ENTITY ns_extend "http://ns.adobe.com/Extensibility/1.0/">
<!ENTITY ns_ai "http://ns.adobe.com/AdobeIllustrator/10.0/">
<!ENTITY ns_graphs "http://ns.adobe.com/Graphs/1.0/">
<!ENTITY ns_vars "http://ns.adobe.com/Variables/1.0/">
<!ENTITY ns_imrep "http://ns.adobe.com/ImageReplacement/1.0/">
<!ENTITY ns_sfw "http://ns.adobe.com/SaveForWeb/1.0/">
<!ENTITY ns_custom "http://ns.adobe.com/GenericCustomNamespace/1.0/">
<!ENTITY ns_adobe_xpath "http://ns.adobe.com/XPath/1.0/">
]>
<svg version="1.1" id="Calque_1" xmlns:x="&ns_extend;" xmlns:i="&ns_ai;" xmlns:graph="&ns_graphs;"
     xmlns="http://www.w3.org/2000/svg" xmlns:xlink="http://www.w3.org/1999/xlink" x="0px" y="0px" viewBox="0 0 200 200"
     style="enable-background:new 0 0 200 200;" xml:space="preserve">
<style type="text/css">
	.pastis_app_01{fill-rule:evenodd;clip-rule:evenodd;}
  .pastis_app_02{fill-rule:evenodd;clip-rule:evenodd;fill:#BCB9BA;}
  .pastis_app_03{fill-rule:evenodd;clip-rule:evenodd;fill:#F5F5F5;}
  .pastis_app_04{fill-rule:evenodd;clip-rule:evenodd;fill:#E5E4E4;}
  .pastis_app_05{fill:#BCB9BA;}
  .pastis_app_06{fill:#BBB9BA;}
  .pastis_app_07{fill:#BBB8B9;}
  .pastis_app_08{fill:#BAB8B9;}
  .pastis_app_09{fill:#B9B7B8;}
  .pastis_app_10{fill:#B9B7B7;}
  .pastis_app_11{fill:#B8B6B7;}
  .pastis_app_12{fill:#B8B5B6;}
  .pastis_app_13{fill:#B7B5B6;}
  .pastis_app_14{fill:#B7B4B5;}
  .pastis_app_15{fill:#B6B4B5;}
  .pastis_app_16{fill:#B6B3B4;}
  .pastis_app_17{fill:#B5B3B4;}
  .pastis_app_18{fill:#B4B2B3;}
  .pastis_app_19{fill:#B3B1B2;}
  .pastis_app_20{fill:#B3B1B1;}
  .pastis_app_21{fill:#B2B0B1;}
  .pastis_app_22{fill:#B2AFB0;}
  .pastis_app_23{fill:#B1AFB0;}
  .pastis_app_24{fill:#B1AEAF;}
  .pastis_app_25{fill:#B0AEAF;}
  .pastis_app_26{fill:#AFADAE;}
  .pastis_app_27{fill:#AEACAD;}
  .pastis_app_28{fill:#ADABAC;}
  .pastis_app_29{fill:#ADABAB;}
  .pastis_app_30{fill:#ACAAAB;}
  .pastis_app_31{fill:#ACAAAA;}
  .pastis_app_32{fill:#ABA9AA;}
  .pastis_app_33{fill:#AAA8A9;}
  .pastis_app_34{fill:#A9A7A8;}
  .pastis_app_35{fill:#A8A6A7;}
  .pastis_app_36{fill:#A7A5A6;}
  .pastis_app_37{fill:#A7A5A5;}
  .pastis_app_38{fill:#A6A4A5;}
  .pastis_app_39{fill:#A5A4A4;}
  .pastis_app_40{fill:#A5A3A4;}
  .pastis_app_41{fill:#A4A2A3;}
  .pastis_app_42{fill:#A3A1A2;}
  .pastis_app_43{fill:#A2A0A1;}
  .pastis_app_44{fill:#A19FA0;}
  .pastis_app_45{fill:#A09F9F;}
  .pastis_app_46{fill:#A09E9F;}
  .pastis_app_47{fill:#9F9E9E;}
  .pastis_app_48{fill:#9F9D9E;}
  .pastis_app_49{fill:#9E9D9D;}
  .pastis_app_50{fill:#9E9C9D;}
  .pastis_app_51{fill:#9D9B9C;}
  .pastis_app_52{fill:#9C9A9B;}
  .pastis_app_53{fill:#9B9A9B;}
  .pastis_app_54{fill:#9B999A;}
  .pastis_app_55{fill:#9A9999;}
  .pastis_app_56{fill:#9A9899;}
  .pastis_app_57{fill:#999898;}
  .pastis_app_58{fill:#999798;}
  .pastis_app_59{fill:#989797;}
  .pastis_app_60{fill:#989697;}
  .pastis_app_61{fill:#979596;}
  .pastis_app_62{fill:#969596;}
  .pastis_app_63{fill:#969495;}
  .pastis_app_64{fill:#959495;}
  .pastis_app_65{fill:#959394;}
  .pastis_app_66{fill:#949393;}
  .pastis_app_67{fill:#949293;}
  .pastis_app_68{fill:#939292;}
  .pastis_app_69{fill:#939192;}
  .pastis_app_70{fill:#929191;}
  .pastis_app_71{fill:#919091;}
  .pastis_app_72{fill:#919090;}
  .pastis_app_73{fill:#908F90;}
  .pastis_app_74{fill:#908E8F;}
  .pastis_app_75{fill:#8F8E8F;}
  .pastis_app_76{fill:#8F8D8E;}
  .pastis_app_77{fill:#8E8D8D;}
  .pastis_app_78{fill:#8E8C8D;}
  .pastis_app_79{fill:#8D8C8C;}
  .pastis_app_80{fill:#8C8B8C;}
  .pastis_app_81{fill:#8C8B8B;}
  .pastis_app_82{fill:#8B8A8B;}
  .pastis_app_83{fill:#8B8A8A;}
  .pastis_app_84{fill:#8A898A;}
  .pastis_app_85{fill:#8A8889;}
  .pastis_app_86{fill:#898888;}
  .pastis_app_87{fill:#898788;}
  .pastis_app_88{fill:#888787;}
  .pastis_app_89{fill:#878687;}
  .pastis_app_90{fill:#878686;}
  .pastis_app_91{fill:#868586;}
  .pastis_app_92{fill:#868585;}
  .pastis_app_93{fill:#858485;}
  .pastis_app_94{fill:#858484;}
  .pastis_app_95{fill:#848384;}
  .pastis_app_96{fill:#848383;}
  .pastis_app_97{fill:#838282;}
  .pastis_app_98{fill:#828182;}
  .pastis_app_99{fill:#828181;}
  .pastis_app_100{fill:#818081;}
  .pastis_app_101{fill:#818080;}
  .pastis_app_102{fill:#807F80;}
  .pastis_app_103{fill:#807F7F;}
  .pastis_app_104{fill:#7F7E7F;}
  .pastis_app_105{fill:#7F7E7E;}
  .pastis_app_106{fill:#7E7D7E;}
  .pastis_app_107{fill:#7D7D7D;}
  .pastis_app_108{fill:#7D7C7C;}
  .pastis_app_109{fill:#7C7B7C;}
  .pastis_app_110{fill:#7C7B7B;}
  .pastis_app_111{fill:#7B7A7B;}
  .pastis_app_112{fill:#7B7A7A;}
  .pastis_app_113{fill:#7A797A;}
  .pastis_app_114{fill:#7A7979;}
  .pastis_app_115{fill:#797879;}
  .pastis_app_116{fill:#787878;}
  .pastis_app_117{fill:#787778;}
  .pastis_app_118{fill:#777777;}
  .pastis_app_119{fill:#777676;}
  .pastis_app_120{fill:#767676;}
  .pastis_app_121{fill:#767575;}
  .pastis_app_122{fill:#757475;}
  .pastis_app_123{fill:#757474;}
  .pastis_app_124{fill:#747374;}
  .pastis_app_125{fill:#737373;}
  .pastis_app_126{fill:#737273;}
  .pastis_app_127{fill:#727272;}
  .pastis_app_128{fill:#727172;}
  .pastis_app_129{fill:#717171;}
  .pastis_app_130{fill:#717070;}
  .pastis_app_131{fill:#707070;}
  .pastis_app_132{fill:#706F6F;}
  .pastis_app_133{fill:#6F6E6F;}
  .pastis_app_134{fill:#6E6E6E;}
  .pastis_app_135{fill:#6E6D6E;}
  .pastis_app_136{fill:#6D6D6D;}
  .pastis_app_137{fill:#6D6C6D;}
  .pastis_app_138{fill:#6C6C6C;}
  .pastis_app_139{fill:#6C6B6C;}
  .pastis_app_140{fill:#6B6B6B;}
  .pastis_app_141{fill:#6B6A6A;}
  .pastis_app_142{fill:#6A6A6A;}
  .pastis_app_143{fill:#696969;}
  .pastis_app_144{fill:#686868;}
  .pastis_app_145{fill:#686768;}
  .pastis_app_146{fill:#676767;}
  .pastis_app_147{fill:#676667;}
  .pastis_app_148{fill:#666666;}
  .pastis_app_149{fill:#666566;}
  .pastis_app_150{fill:#656565;}
  .pastis_app_151{fill:#646464;}
  .pastis_app_152{fill:#636363;}
  .pastis_app_153{fill:#626262;}
  .pastis_app_154{fill:#626162;}
  .pastis_app_155{fill:#616161;}
  .pastis_app_156{fill:#616061;}
  .pastis_app_157{fill:#606060;}
  .pastis_app_158{fill:#5F5F60;}
  .pastis_app_159{fill:#5F5F5F;}
  .pastis_app_160{fill:#5E5E5E;}
  .pastis_app_161{fill:#5D5D5D;}
  .pastis_app_162{fill:#5C5C5C;}
  .pastis_app_163{fill:#5B5B5B;}
  .pastis_app_164{fill:#5A5A5B;}
  .pastis_app_165{fill:#5A5A5A;}
  .pastis_app_166{fill:#59595A;}
  .pastis_app_167{fill:#595959;}
  .pastis_app_168{fill:#585858;}
  .pastis_app_169{fill:#575757;}
  .pastis_app_170{fill:#565656;}
  .pastis_app_171{fill:#555656;}
  .pastis_app_172{fill:#555555;}
  .pastis_app_173{fill:#545455;}
  .pastis_app_174{fill:#545454;}
  .pastis_app_175{fill:#535353;}
  .pastis_app_176{fill:#525252;}
  .pastis_app_177{fill:#515151;}
  .pastis_app_178{fill:#505151;}
  .pastis_app_179{fill:#505050;}
  .pastis_app_180{fill:#4F5050;}
  .pastis_app_181{fill:#4F4F4F;}
  .pastis_app_182{fill:#4E4F4F;}
  .pastis_app_183{fill:#4E4E4E;}
  .pastis_app_184{fill:#4D4D4D;}
  .pastis_app_185{fill:#4C4C4C;}
  .pastis_app_186{fill-rule:evenodd;clip-rule:evenodd;fill:var(--vitamui-primary-50);}
  .pastis_app_187{fill-rule:evenodd;clip-rule:evenodd;fill:url(#SVGID_PASTIS_APP_01);}
  .pastis_app_188{fill-rule:evenodd;clip-rule:evenodd;fill:url(#SVGID_PASTIS_APP_02);}
  .pastis_app_189{fill-rule:evenodd;clip-rule:evenodd;fill:url(#SVGID_PASTIS_APP_03);}
  .pastis_app_190{fill-rule:evenodd;clip-rule:evenodd;fill:url(#SVGID_PASTIS_APP_04);}
  .pastis_app_191{fill-rule:evenodd;clip-rule:evenodd;fill:url(#SVGID_PASTIS_APP_05);}
  .pastis_app_192{fill-rule:evenodd;clip-rule:evenodd;fill:url(#SVGID_PASTIS_APP_06);}
  .pastis_app_193{fill-rule:evenodd;clip-rule:evenodd;fill:url(#SVGID_PASTIS_APP_07);}
  .pastis_app_194{fill-rule:evenodd;clip-rule:evenodd;fill:url(#SVGID_PASTIS_APP_08);}
  .pastis_app_195{fill-rule:evenodd;clip-rule:evenodd;fill:url(#SVGID_PASTIS_APP_09);}
  .pastis_app_196{fill-rule:evenodd;clip-rule:evenodd;fill:url(#SVGID_PASTIS_APP_10);}
  .pastis_app_197{fill-rule:evenodd;clip-rule:evenodd;fill:url(#SVGID_PASTIS_APP_11);}
  .pastis_app_198{fill-rule:evenodd;clip-rule:evenodd;fill:url(#SVGID_PASTIS_APP_12);}
  .pastis_app_199{fill-rule:evenodd;clip-rule:evenodd;fill:url(#SVGID_PASTIS_APP_13);}
  .pastis_app_200{fill-rule:evenodd;clip-rule:evenodd;fill:url(#SVGID_PASTIS_APP_14);}
  .pastis_app_201{fill-rule:evenodd;clip-rule:evenodd;fill:url(#SVGID_PASTIS_APP_15);}
  .pastis_app_202{fill-rule:evenodd;clip-rule:evenodd;fill:url(#SVGID_PASTIS_APP_16);}
  .pastis_app_203{fill-rule:evenodd;clip-rule:evenodd;fill:url(#SVGID_PASTIS_APP_17);}
  .pastis_app_204{fill-rule:evenodd;clip-rule:evenodd;fill:url(#SVGID_PASTIS_APP_18);}
  .pastis_app_205{fill-rule:evenodd;clip-rule:evenodd;fill:url(#SVGID_PASTIS_APP_19);}
  .pastis_app_206{fill-rule:evenodd;clip-rule:evenodd;fill:url(#SVGID_PASTIS_APP_20);}
  .pastis_app_207{fill-rule:evenodd;clip-rule:evenodd;fill:url(#SVGID_PASTIS_APP_21);}
  .pastis_app_208{fill-rule:evenodd;clip-rule:evenodd;fill:url(#SVGID_PASTIS_APP_22);}
  .pastis_app_209{fill-rule:evenodd;clip-rule:evenodd;fill:url(#SVGID_PASTIS_APP_23);}
  .pastis_app_210{fill-rule:evenodd;clip-rule:evenodd;fill:url(#SVGID_PASTIS_APP_24);}
  .pastis_app_211{fill-rule:evenodd;clip-rule:evenodd;fill:url(#SVGID_PASTIS_APP_25);}
  .pastis_app_212{fill-rule:evenodd;clip-rule:evenodd;fill:url(#SVGID_PASTIS_APP_26);}
  .pastis_app_213{fill-rule:evenodd;clip-rule:evenodd;fill:url(#SVGID_PASTIS_APP_27);}
  .pastis_app_214{fill-rule:evenodd;clip-rule:evenodd;fill:url(#SVGID_PASTIS_APP_28);}
  .pastis_app_215{fill-rule:evenodd;clip-rule:evenodd;fill:var(--vitamui-primary);}
  .pastis_app_216{fill:#FFFFFF;}
</style>
  <metadata>
	<sfw  xmlns="&ns_sfw;">
		<slices></slices>
    <sliceSourceBounds  bottomLeftOrigin="true" height="117.8" width="165.1" x="17.3" y="19.1"></sliceSourceBounds>
	</sfw>
</metadata>
  <g>
	<g>
		<path class="pastis_app_01" d="M99.8,141.7c45.6,0,82.6,8.5,82.6,19s-37,20.2-82.6,20.2s-82.6-9.7-82.6-20.2
			C17.1,150.2,54.2,141.7,99.8,141.7z"/>
    <path class="pastis_app_02" d="M99.8,142.1c43.6,0,78.9,8.4,78.9,18.8c0,10.4-35.3,18.8-78.9,18.8s-78.9-8.4-78.9-18.8
			C20.9,150.4,56.2,142.1,99.8,142.1z"/>
    <path class="pastis_app_03" d="M99.8,139.9c43.6,0,78.9,8.4,78.9,18.8c0,10.4-35.3,18.8-78.9,18.8s-78.9-8.4-78.9-18.8
			C20.9,148.2,56.2,139.9,99.8,139.9z"/>
    <path class="pastis_app_02" d="M99.8,138.7c43.6,0,78.9,8.4,78.9,18.8c0,10.4-35.3,18.8-78.9,18.8s-78.9-8.4-78.9-18.8
			C20.9,147,56.2,138.7,99.8,138.7z"/>
    <path class="pastis_app_04" d="M99.7,138.7c22.9,0,43.4,2.3,57.8,6c-30.2-1.8-112.6,2.6-132.9,18.5c-2.5-1.8-3.8-3.8-3.8-5.7
			C20.8,147,56.2,138.7,99.7,138.7z"/>
    <path class="pastis_app_03" d="M20.9,157.4c0-10.4,35.3-18.8,78.9-18.8s78.9,8.4,78.9,18.8c0,0.4,0,0.6-0.1,1c-2.2-9.8-36.6-17.7-78.8-17.7
			s-76.6,7.9-78.8,17.7C20.9,158,20.9,157.7,20.9,157.4z"/>
	</g>
</g>
  <g>
	<ellipse class="pastis_app_05" cx="100.3" cy="158.8" rx="58.4" ry="10.6"/>
    <ellipse class="pastis_app_06" cx="100.3" cy="158.8" rx="58.3" ry="10.6"/>
    <ellipse class="pastis_app_07" cx="100.3" cy="158.8" rx="58.2" ry="10.5"/>
    <ellipse class="pastis_app_08" cx="100.3" cy="158.8" rx="58.1" ry="10.5"/>
    <ellipse class="pastis_app_09" cx="100.3" cy="158.8" rx="58" ry="10.5"/>
    <ellipse class="pastis_app_10" cx="100.3" cy="158.7" rx="57.9" ry="10.4"/>
    <ellipse class="pastis_app_11" cx="100.3" cy="158.7" rx="57.8" ry="10.4"/>
    <ellipse class="pastis_app_12" cx="100.3" cy="158.7" rx="57.7" ry="10.4"/>
    <ellipse class="pastis_app_13" cx="100.3" cy="158.7" rx="57.6" ry="10.3"/>
    <ellipse class="pastis_app_14" cx="100.3" cy="158.7" rx="57.5" ry="10.3"/>
    <ellipse class="pastis_app_15" cx="100.3" cy="158.7" rx="57.4" ry="10.3"/>
    <ellipse class="pastis_app_16" cx="100.3" cy="158.7" rx="57.3" ry="10.2"/>
    <ellipse class="pastis_app_17" cx="100.3" cy="158.7" rx="57.2" ry="10.2"/>
    <ellipse class="pastis_app_18" cx="100.3" cy="158.7" rx="57" ry="10.2"/>
    <ellipse class="pastis_app_18" cx="100.3" cy="158.7" rx="56.9" ry="10.1"/>
    <ellipse class="pastis_app_19" cx="100.3" cy="158.7" rx="56.8" ry="10.1"/>
    <ellipse class="pastis_app_20" cx="100.3" cy="158.7" rx="56.7" ry="10.1"/>
    <ellipse class="pastis_app_21" cx="100.3" cy="158.7" rx="56.6" ry="10"/>
    <ellipse class="pastis_app_22" cx="100.3" cy="158.7" rx="56.5" ry="10"/>
    <ellipse class="pastis_app_23" cx="100.3" cy="158.7" rx="56.4" ry="10"/>
    <ellipse class="pastis_app_24" cx="100.3" cy="158.7" rx="56.3" ry="9.9"/>
    <ellipse class="pastis_app_25" cx="100.3" cy="158.7" rx="56.2" ry="9.9"/>
    <ellipse class="pastis_app_26" cx="100.3" cy="158.7" rx="56.1" ry="9.9"/>
    <ellipse class="pastis_app_26" cx="100.3" cy="158.7" rx="56" ry="9.8"/>
    <ellipse class="pastis_app_27" cx="100.2" cy="158.7" rx="55.9" ry="9.8"/>
    <ellipse class="pastis_app_27" cx="100.2" cy="158.7" rx="55.8" ry="9.7"/>
    <ellipse class="pastis_app_28" cx="100.2" cy="158.6" rx="55.7" ry="9.7"/>
    <ellipse class="pastis_app_29" cx="100.2" cy="158.6" rx="55.6" ry="9.7"/>
    <ellipse class="pastis_app_30" cx="100.2" cy="158.6" rx="55.5" ry="9.6"/>
    <ellipse class="pastis_app_31" cx="100.2" cy="158.6" rx="55.4" ry="9.6"/>
    <ellipse class="pastis_app_32" cx="100.2" cy="158.6" rx="55.3" ry="9.6"/>
    <ellipse class="pastis_app_33" cx="100.2" cy="158.6" rx="55.2" ry="9.5"/>
    <ellipse class="pastis_app_33" cx="100.2" cy="158.6" rx="55.1" ry="9.5"/>
    <ellipse class="pastis_app_34" cx="100.2" cy="158.6" rx="55" ry="9.5"/>
    <ellipse class="pastis_app_34" cx="100.2" cy="158.6" rx="54.9" ry="9.4"/>
    <ellipse class="pastis_app_35" cx="100.2" cy="158.6" rx="54.8" ry="9.4"/>
    <ellipse class="pastis_app_35" cx="100.2" cy="158.6" rx="54.7" ry="9.4"/>
    <ellipse class="pastis_app_36" cx="100.2" cy="158.6" rx="54.6" ry="9.3"/>
    <ellipse class="pastis_app_37" cx="100.2" cy="158.6" rx="54.5" ry="9.3"/>
    <ellipse class="pastis_app_38" cx="100.2" cy="158.6" rx="54.4" ry="9.3"/>
    <ellipse class="pastis_app_39" cx="100.2" cy="158.6" rx="54.3" ry="9.2"/>
    <ellipse class="pastis_app_40" cx="100.2" cy="158.6" rx="54.2" ry="9.2"/>
    <ellipse class="pastis_app_41" cx="100.2" cy="158.6" rx="54.1" ry="9.2"/>
    <ellipse class="pastis_app_41" cx="100.2" cy="158.6" rx="54" ry="9.1"/>
    <ellipse class="pastis_app_42" cx="100.2" cy="158.6" rx="53.9" ry="9.1"/>
    <ellipse class="pastis_app_42" cx="100.2" cy="158.6" rx="53.7" ry="9.1"/>
    <ellipse class="pastis_app_43" cx="100.2" cy="158.5" rx="53.6" ry="9"/>
    <ellipse class="pastis_app_43" cx="100.2" cy="158.5" rx="53.5" ry="9"/>
    <ellipse class="pastis_app_44" cx="100.2" cy="158.5" rx="53.4" ry="9"/>
    <ellipse class="pastis_app_45" cx="100.2" cy="158.5" rx="53.3" ry="8.9"/>
    <ellipse class="pastis_app_46" cx="100.2" cy="158.5" rx="53.2" ry="8.9"/>
    <ellipse class="pastis_app_47" cx="100.2" cy="158.5" rx="53.1" ry="8.9"/>
    <ellipse class="pastis_app_48" cx="100.2" cy="158.5" rx="53" ry="8.8"/>
    <ellipse class="pastis_app_49" cx="100.2" cy="158.5" rx="52.9" ry="8.8"/>
    <ellipse class="pastis_app_50" cx="100.2" cy="158.5" rx="52.8" ry="8.7"/>
    <ellipse class="pastis_app_51" cx="100.2" cy="158.5" rx="52.7" ry="8.7"/>
    <ellipse class="pastis_app_51" cx="100.2" cy="158.5" rx="52.6" ry="8.7"/>
    <ellipse class="pastis_app_52" cx="100.2" cy="158.5" rx="52.5" ry="8.6"/>
    <ellipse class="pastis_app_53" cx="100.2" cy="158.5" rx="52.4" ry="8.6"/>
    <ellipse class="pastis_app_54" cx="100.2" cy="158.5" rx="52.3" ry="8.6"/>
    <ellipse class="pastis_app_55" cx="100.2" cy="158.5" rx="52.2" ry="8.5"/>
    <ellipse class="pastis_app_56" cx="100.2" cy="158.5" rx="52.1" ry="8.5"/>
    <ellipse class="pastis_app_57" cx="100.2" cy="158.5" rx="52" ry="8.5"/>
    <ellipse class="pastis_app_58" cx="100.2" cy="158.5" rx="51.9" ry="8.4"/>
    <ellipse class="pastis_app_59" cx="100.2" cy="158.5" rx="51.8" ry="8.4"/>
    <ellipse class="pastis_app_60" cx="100.2" cy="158.5" rx="51.7" ry="8.4"/>
    <ellipse class="pastis_app_61" cx="100.2" cy="158.5" rx="51.6" ry="8.3"/>
    <ellipse class="pastis_app_62" cx="100.2" cy="158.4" rx="51.5" ry="8.3"/>
    <ellipse class="pastis_app_63" cx="100.2" cy="158.4" rx="51.4" ry="8.3"/>
    <ellipse class="pastis_app_64" cx="100.2" cy="158.4" rx="51.3" ry="8.2"/>
    <ellipse class="pastis_app_65" cx="100.2" cy="158.4" rx="51.2" ry="8.2"/>
    <ellipse class="pastis_app_66" cx="100.2" cy="158.4" rx="51.1" ry="8.2"/>
    <ellipse class="pastis_app_67" cx="100.2" cy="158.4" rx="51" ry="8.1"/>
    <ellipse class="pastis_app_68" cx="100.2" cy="158.4" rx="50.9" ry="8.1"/>
    <ellipse class="pastis_app_69" cx="100.2" cy="158.4" rx="50.8" ry="8.1"/>
    <ellipse class="pastis_app_70" cx="100.2" cy="158.4" rx="50.7" ry="8"/>
    <ellipse class="pastis_app_71" cx="100.2" cy="158.4" rx="50.6" ry="8"/>
    <ellipse class="pastis_app_72" cx="100.2" cy="158.4" rx="50.4" ry="8"/>
    <ellipse class="pastis_app_73" cx="100.2" cy="158.4" rx="50.3" ry="7.9"/>
    <ellipse class="pastis_app_74" cx="100.2" cy="158.4" rx="50.2" ry="7.9"/>
    <ellipse class="pastis_app_75" cx="100.2" cy="158.4" rx="50.1" ry="7.9"/>
    <ellipse class="pastis_app_76" cx="100.2" cy="158.4" rx="50" ry="7.8"/>
    <ellipse class="pastis_app_77" cx="100.2" cy="158.4" rx="49.9" ry="7.8"/>
    <ellipse class="pastis_app_78" cx="100.2" cy="158.4" rx="49.8" ry="7.7"/>
    <ellipse class="pastis_app_79" cx="100.2" cy="158.4" rx="49.7" ry="7.7"/>
    <ellipse class="pastis_app_80" cx="100.2" cy="158.4" rx="49.6" ry="7.7"/>
    <ellipse class="pastis_app_81" cx="100.2" cy="158.4" rx="49.5" ry="7.6"/>
    <ellipse class="pastis_app_82" cx="100.2" cy="158.3" rx="49.4" ry="7.6"/>
    <ellipse class="pastis_app_83" cx="100.1" cy="158.3" rx="49.3" ry="7.6"/>
    <ellipse class="pastis_app_84" cx="100.1" cy="158.3" rx="49.2" ry="7.5"/>
    <ellipse class="pastis_app_85" cx="100.1" cy="158.3" rx="49.1" ry="7.5"/>
    <ellipse class="pastis_app_86" cx="100.1" cy="158.3" rx="49" ry="7.5"/>
    <ellipse class="pastis_app_87" cx="100.1" cy="158.3" rx="48.9" ry="7.4"/>
    <ellipse class="pastis_app_88" cx="100.1" cy="158.3" rx="48.8" ry="7.4"/>
    <ellipse class="pastis_app_89" cx="100.1" cy="158.3" rx="48.7" ry="7.4"/>
    <ellipse class="pastis_app_90" cx="100.1" cy="158.3" rx="48.6" ry="7.3"/>
    <ellipse class="pastis_app_91" cx="100.1" cy="158.3" rx="48.5" ry="7.3"/>
    <ellipse class="pastis_app_92" cx="100.1" cy="158.3" rx="48.4" ry="7.3"/>
    <ellipse class="pastis_app_93" cx="100.1" cy="158.3" rx="48.3" ry="7.2"/>
    <ellipse class="pastis_app_94" cx="100.1" cy="158.3" rx="48.2" ry="7.2"/>
    <ellipse class="pastis_app_95" cx="100.1" cy="158.3" rx="48.1" ry="7.2"/>
    <ellipse class="pastis_app_96" cx="100.1" cy="158.3" rx="48" ry="7.1"/>
    <ellipse class="pastis_app_97" cx="100.1" cy="158.3" rx="47.9" ry="7.1"/>
    <ellipse class="pastis_app_98" cx="100.1" cy="158.3" rx="47.8" ry="7.1"/>
    <ellipse class="pastis_app_99" cx="100.1" cy="158.3" rx="47.7" ry="7"/>
    <ellipse class="pastis_app_100" cx="100.1" cy="158.3" rx="47.6" ry="7"/>
    <ellipse class="pastis_app_101" cx="100.1" cy="158.3" rx="47.5" ry="7"/>
    <ellipse class="pastis_app_102" cx="100.1" cy="158.3" rx="47.4" ry="6.9"/>
    <ellipse class="pastis_app_103" cx="100.1" cy="158.2" rx="47.3" ry="6.9"/>
    <ellipse class="pastis_app_104" cx="100.1" cy="158.2" rx="47.1" ry="6.9"/>
    <ellipse class="pastis_app_105" cx="100.1" cy="158.2" rx="47" ry="6.8"/>
    <ellipse class="pastis_app_106" cx="100.1" cy="158.2" rx="46.9" ry="6.8"/>
    <ellipse class="pastis_app_107" cx="100.1" cy="158.2" rx="46.8" ry="6.7"/>
    <ellipse class="pastis_app_108" cx="100.1" cy="158.2" rx="46.7" ry="6.7"/>
    <ellipse class="pastis_app_109" cx="100.1" cy="158.2" rx="46.6" ry="6.7"/>
    <ellipse class="pastis_app_110" cx="100.1" cy="158.2" rx="46.5" ry="6.6"/>
    <ellipse class="pastis_app_111" cx="100.1" cy="158.2" rx="46.4" ry="6.6"/>
    <ellipse class="pastis_app_112" cx="100.1" cy="158.2" rx="46.3" ry="6.6"/>
    <ellipse class="pastis_app_113" cx="100.1" cy="158.2" rx="46.2" ry="6.5"/>
    <ellipse class="pastis_app_114" cx="100.1" cy="158.2" rx="46.1" ry="6.5"/>
    <ellipse class="pastis_app_115" cx="100.1" cy="158.2" rx="46" ry="6.5"/>
    <ellipse class="pastis_app_116" cx="100.1" cy="158.2" rx="45.9" ry="6.4"/>
    <ellipse class="pastis_app_117" cx="100.1" cy="158.2" rx="45.8" ry="6.4"/>
    <ellipse class="pastis_app_118" cx="100.1" cy="158.2" rx="45.7" ry="6.4"/>
    <ellipse class="pastis_app_119" cx="100.1" cy="158.2" rx="45.6" ry="6.3"/>
    <ellipse class="pastis_app_120" cx="100.1" cy="158.2" rx="45.5" ry="6.3"/>
    <ellipse class="pastis_app_121" cx="100.1" cy="158.2" rx="45.4" ry="6.3"/>
    <ellipse class="pastis_app_122" cx="100.1" cy="158.2" rx="45.3" ry="6.2"/>
    <ellipse class="pastis_app_123" cx="100.1" cy="158.1" rx="45.2" ry="6.2"/>
    <ellipse class="pastis_app_124" cx="100.1" cy="158.1" rx="45.1" ry="6.2"/>
    <ellipse class="pastis_app_125" cx="100.1" cy="158.1" rx="45" ry="6.1"/>
    <ellipse class="pastis_app_126" cx="100.1" cy="158.1" rx="44.9" ry="6.1"/>
    <ellipse class="pastis_app_127" cx="100.1" cy="158.1" rx="44.8" ry="6.1"/>
    <ellipse class="pastis_app_128" cx="100.1" cy="158.1" rx="44.7" ry="6"/>
    <ellipse class="pastis_app_129" cx="100.1" cy="158.1" rx="44.6" ry="6"/>
    <ellipse class="pastis_app_130" cx="100.1" cy="158.1" rx="44.5" ry="6"/>
    <ellipse class="pastis_app_131" cx="100.1" cy="158.1" rx="44.4" ry="5.9"/>
    <ellipse class="pastis_app_132" cx="100.1" cy="158.1" rx="44.3" ry="5.9"/>
    <ellipse class="pastis_app_133" cx="100.1" cy="158.1" rx="44.2" ry="5.8"/>
    <ellipse class="pastis_app_134" cx="100.1" cy="158.1" rx="44.1" ry="5.8"/>
    <ellipse class="pastis_app_135" cx="100.1" cy="158.1" rx="44" ry="5.8"/>
    <ellipse class="pastis_app_136" cx="100.1" cy="158.1" rx="43.8" ry="5.7"/>
    <ellipse class="pastis_app_137" cx="100.1" cy="158.1" rx="43.7" ry="5.7"/>
    <ellipse class="pastis_app_138" cx="100.1" cy="158.1" rx="43.6" ry="5.7"/>
    <ellipse class="pastis_app_139" cx="100.1" cy="158.1" rx="43.5" ry="5.6"/>
    <ellipse class="pastis_app_140" cx="100.1" cy="158.1" rx="43.4" ry="5.6"/>
    <ellipse class="pastis_app_141" cx="100.1" cy="158.1" rx="43.3" ry="5.6"/>
    <ellipse class="pastis_app_142" cx="100.1" cy="158.1" rx="43.2" ry="5.5"/>
    <ellipse class="pastis_app_143" cx="100.1" cy="158.1" rx="43.1" ry="5.5"/>
    <ellipse class="pastis_app_143" cx="100.1" cy="158" rx="43" ry="5.5"/>
    <ellipse class="pastis_app_144" cx="100.1" cy="158" rx="42.9" ry="5.4"/>
    <ellipse class="pastis_app_145" cx="100.1" cy="158" rx="42.8" ry="5.4"/>
    <ellipse class="pastis_app_146" cx="100.1" cy="158" rx="42.7" ry="5.4"/>
    <ellipse class="pastis_app_147" cx="100" cy="158" rx="42.6" ry="5.3"/>
    <ellipse class="pastis_app_148" cx="100" cy="158" rx="42.5" ry="5.3"/>
    <ellipse class="pastis_app_149" cx="100" cy="158" rx="42.4" ry="5.3"/>
    <ellipse class="pastis_app_150" cx="100" cy="158" rx="42.3" ry="5.2"/>
    <ellipse class="pastis_app_151" cx="100" cy="158" rx="42.2" ry="5.2"/>
    <ellipse class="pastis_app_151" cx="100" cy="158" rx="42.1" ry="5.2"/>
    <ellipse class="pastis_app_152" cx="100" cy="158" rx="42" ry="5.1"/>
    <ellipse class="pastis_app_152" cx="100" cy="158" rx="41.9" ry="5.1"/>
    <ellipse class="pastis_app_153" cx="100" cy="158" rx="41.8" ry="5.1"/>
    <ellipse class="pastis_app_154" cx="100" cy="158" rx="41.7" ry="5"/>
    <ellipse class="pastis_app_155" cx="100" cy="158" rx="41.6" ry="5"/>
    <ellipse class="pastis_app_156" cx="100" cy="158" rx="41.5" ry="5"/>
    <ellipse class="pastis_app_157" cx="100" cy="158" rx="41.4" ry="4.9"/>
    <ellipse class="pastis_app_158" cx="100" cy="158" rx="41.3" ry="4.9"/>
    <ellipse class="pastis_app_159" cx="100" cy="158" rx="41.2" ry="4.8"/>
    <ellipse class="pastis_app_160" cx="100" cy="158" rx="41.1" ry="4.8"/>
    <ellipse class="pastis_app_160" cx="100" cy="157.9" rx="41" ry="4.8"/>
    <ellipse class="pastis_app_161" cx="100" cy="157.9" rx="40.9" ry="4.7"/>
    <ellipse class="pastis_app_161" cx="100" cy="157.9" rx="40.8" ry="4.7"/>
    <ellipse class="pastis_app_162" cx="100" cy="157.9" rx="40.7" ry="4.7"/>
    <ellipse class="pastis_app_162" cx="100" cy="157.9" rx="40.5" ry="4.6"/>
    <ellipse class="pastis_app_163" cx="100" cy="157.9" rx="40.4" ry="4.6"/>
    <ellipse class="pastis_app_164" cx="100" cy="157.9" rx="40.3" ry="4.6"/>
    <ellipse class="pastis_app_165" cx="100" cy="157.9" rx="40.2" ry="4.5"/>
    <ellipse class="pastis_app_166" cx="100" cy="157.9" rx="40.1" ry="4.5"/>
    <ellipse class="pastis_app_167" cx="100" cy="157.9" rx="40" ry="4.5"/>
    <ellipse class="pastis_app_168" cx="100" cy="157.9" rx="39.9" ry="4.4"/>
    <ellipse class="pastis_app_168" cx="100" cy="157.9" rx="39.8" ry="4.4"/>
    <ellipse class="pastis_app_169" cx="100" cy="157.9" rx="39.7" ry="4.4"/>
    <ellipse class="pastis_app_169" cx="100" cy="157.9" rx="39.6" ry="4.3"/>
    <ellipse class="pastis_app_170" cx="100" cy="157.9" rx="39.5" ry="4.3"/>
    <ellipse class="pastis_app_171" cx="100" cy="157.9" rx="39.4" ry="4.3"/>
    <ellipse class="pastis_app_172" cx="100" cy="157.9" rx="39.3" ry="4.2"/>
    <ellipse class="pastis_app_173" cx="100" cy="157.9" rx="39.2" ry="4.2"/>
    <ellipse class="pastis_app_174" cx="100" cy="157.9" rx="39.1" ry="4.2"/>
    <ellipse class="pastis_app_175" cx="100" cy="157.9" rx="39" ry="4.1"/>
    <ellipse class="pastis_app_175" cx="100" cy="157.8" rx="38.9" ry="4.1"/>
    <ellipse class="pastis_app_176" cx="100" cy="157.8" rx="38.8" ry="4.1"/>
    <ellipse class="pastis_app_176" cx="100" cy="157.8" rx="38.7" ry="4"/>
    <ellipse class="pastis_app_177" cx="100" cy="157.8" rx="38.6" ry="4"/>
    <ellipse class="pastis_app_178" cx="100" cy="157.8" rx="38.5" ry="4"/>
    <ellipse class="pastis_app_179" cx="100" cy="157.8" rx="38.4" ry="3.9"/>
    <ellipse class="pastis_app_180" cx="100" cy="157.8" rx="38.3" ry="3.9"/>
    <ellipse class="pastis_app_181" cx="100" cy="157.8" rx="38.2" ry="3.8"/>
    <ellipse class="pastis_app_182" cx="100" cy="157.8" rx="38.1" ry="3.8"/>
    <ellipse class="pastis_app_183" cx="100" cy="157.8" rx="38" ry="3.8"/>
    <ellipse class="pastis_app_184" cx="100" cy="157.8" rx="37.9" ry="3.7"/>
    <ellipse class="pastis_app_184" cx="100" cy="157.8" rx="37.8" ry="3.7"/>
    <ellipse class="pastis_app_185" cx="100" cy="157.8" rx="37.7" ry="3.7"/>
</g>
  <g>
	<path class="pastis_app_186" d="M57.4,63.4l1,0.1l1-0.1C59.4,63.4,58.5,63.3,57.4,63.4z"/>
    <g>

			<linearGradient id="SVGID_PASTIS_APP_01" gradientUnits="userSpaceOnUse" x1="6003.5117" y1="109.0833" x2="6000.4531" y2="73.2044" gradientTransform="matrix(-1 0 0 1 6103.7666 0)">
			<stop  offset="0" style="stop-color:var(--vitamui-primary-900)"/>
        <stop  offset="3.934753e-02" style="stop-color:var(--vitamui-primary-800)"/>
        <stop  offset="0.1654" style="stop-color:var(--vitamui-primary-700)"/>
        <stop  offset="0.2899" style="stop-color:var(--vitamui-primary-600)"/>
        <stop  offset="0.4107" style="stop-color:var(--vitamui-primary-600)"/>
        <stop  offset="0.5264" style="stop-color:var(--vitamui-primary)"/>
        <stop  offset="0.6312" style="stop-color:var(--vitamui-primary)"/>
        <stop  offset="0.6963" style="stop-color:var(--vitamui-primary)"/>
        <stop  offset="0.7969" style="stop-color:var(--vitamui-primary-400)"/>
        <stop  offset="0.92" style="stop-color:var(--vitamui-primary-200)"/>
        <stop  offset="1" style="stop-color:var(--vitamui-primary-50)"/>
		</linearGradient>
      <polygon class="pastis_app_187" points="141.4,162.8 141.7,67.8 59.4,63.1 58.4,63.3 141.3,67.9 140.9,163 		"/>

      <linearGradient id="SVGID_PASTIS_APP_29" gradientUnits="userSpaceOnUse" x1="5584.9121" y1="-200.9721" x2="5683.0884" y2="-99.5475" gradientTransform="matrix(-1.0991 6.937514e-02 -1.195069e-03 1 6306.5405 -141.8854)">
			<stop  offset="0" style="stop-color:var(--vitamui-primary-900)"/>
        <stop  offset="3.934753e-02" style="stop-color:var(--vitamui-primary-800)"/>
        <stop  offset="0.1654" style="stop-color:var(--vitamui-primary-700)"/>
        <stop  offset="0.2899" style="stop-color:var(--vitamui-primary-600)"/>
        <stop  offset="0.4107" style="stop-color:var(--vitamui-primary-600)"/>
        <stop  offset="0.5264" style="stop-color:var(--vitamui-primary)"/>
        <stop  offset="0.6312" style="stop-color:var(--vitamui-primary)"/>
        <stop  offset="0.6963" style="stop-color:var(--vitamui-primary)"/>
        <stop  offset="0.7969" style="stop-color:var(--vitamui-primary-400)"/>
        <stop  offset="0.92" style="stop-color:var(--vitamui-primary-200)"/>
        <stop  offset="1" style="stop-color:var(--vitamui-primary-50)"/>
		</linearGradient>

      <polygon style="fill-rule:evenodd;clip-rule:evenodd;fill:url(#SVGID_PASTIS_APP_29);" points="
			141,163.1 141.3,67.9 58.9,63.2 59.8,153.4 		"/>
	</g>
    <g>

			<linearGradient id="SVGID_PASTIS_APP_30" gradientUnits="userSpaceOnUse" x1="5494.8911" y1="-102.5269" x2="5593.3521" y2="-0.8078" gradientTransform="matrix(-1.0702 4.431804e-02 -1.197360e-03 1 6045.7871 -94.4147)">
			<stop  offset="0" style="stop-color:#F5F5F5"/>
        <stop  offset="0.7896" style="stop-color:#4C4C4C"/>
		</linearGradient>

      <polygon style="fill-rule:evenodd;clip-rule:evenodd;fill:url(#SVGID_PASTIS_APP_30);" points="
			138.8,164.3 139,69.3 58.3,63.5 59.8,153.5 		"/>

      <linearGradient id="SVGID_PASTIS_APP_31" gradientUnits="userSpaceOnUse" x1="5554.9258" y1="-67.6945" x2="5562.5967" y2="34.9353" gradientTransform="matrix(-1.0702 4.431804e-02 -1.197360e-03 1 6045.7871 -94.4147)">
			<stop  offset="0" style="stop-color:#F5F5F5"/>
        <stop  offset="0.7896" style="stop-color:#9B9A9B"/>
		</linearGradient>

      <polygon style="fill-rule:evenodd;clip-rule:evenodd;fill:url(#SVGID_PASTIS_APP_31);" points="
			139.2,164.2 139.5,69.2 59.3,63.4 58.3,63.5 139,69.3 138.7,164.3 		"/>

      <linearGradient id="SVGID_PASTIS_APP_32" gradientUnits="userSpaceOnUse" x1="5574.7783" y1="-52.983" x2="5673.3721" y2="48.8729" gradientTransform="matrix(-1.046 2.926696e-02 -1.203160e-03 1 5994.4224 -62.3936)">
			<stop  offset="0" style="stop-color:#F5F5F5"/>
        <stop  offset="0.7896" style="stop-color:#4C4C4C"/>
		</linearGradient>

      <polygon style="fill-rule:evenodd;clip-rule:evenodd;fill:url(#SVGID_PASTIS_APP_32);" points="
			136.9,164.9 137.1,70.1 58.3,63.5 59.8,153.5 		"/>

      <linearGradient id="SVGID_PASTIS_APP_33" gradientUnits="userSpaceOnUse" x1="5634.8726" y1="-17.9509" x2="5642.5044" y2="84.1517" gradientTransform="matrix(-1.046 2.926696e-02 -1.203160e-03 1 5994.4224 -62.3936)">
			<stop  offset="0" style="stop-color:#F5F5F5"/>
        <stop  offset="0.7896" style="stop-color:#9B9A9B"/>
		</linearGradient>

      <polygon style="fill-rule:evenodd;clip-rule:evenodd;fill:url(#SVGID_PASTIS_APP_33);" points="
			137.3,164.8 137.6,70 59.2,63.4 58.3,63.5 137.1,70.1 136.8,164.9 		"/>

      <linearGradient id="SVGID_PASTIS_APP_34" gradientUnits="userSpaceOnUse" x1="5656.5068" y1="-2.2833" x2="5755.2285" y2="99.7049" gradientTransform="matrix(-1.0224 1.455498e-02 -1.208830e-03 1 5944.2148 -31.0937)">
			<stop  offset="0" style="stop-color:#F5F5F5"/>
        <stop  offset="0.7896" style="stop-color:#4C4C4C"/>
		</linearGradient>

      <polygon style="fill-rule:evenodd;clip-rule:evenodd;fill:url(#SVGID_PASTIS_APP_34);" points="
			135.1,165.5 135.2,70.8 58.3,63.5 59.8,153.5 		"/>

      <linearGradient id="SVGID_PASTIS_APP_35" gradientUnits="userSpaceOnUse" x1="5716.6592" y1="32.9434" x2="5724.252" y2="134.5306" gradientTransform="matrix(-1.0224 1.455498e-02 -1.208830e-03 1 5944.2148 -31.0937)">
			<stop  offset="0" style="stop-color:#F5F5F5"/>
        <stop  offset="0.7896" style="stop-color:#9B9A9B"/>
		</linearGradient>

      <polygon style="fill-rule:evenodd;clip-rule:evenodd;fill:url(#SVGID_PASTIS_APP_35);" points="
			135.5,165.4 135.7,70.7 59.2,63.4 58.3,63.5 135.2,70.9 135,165.5 		"/>

      <linearGradient id="SVGID_PASTIS_APP_36" gradientUnits="userSpaceOnUse" x1="5741.5229" y1="52.3096" x2="5840.373" y2="154.4308" gradientTransform="matrix(-1 0 0 1 5897.8711 0)">
			<stop  offset="0" style="stop-color:#F5F5F5"/>
        <stop  offset="0.7896" style="stop-color:#4C4C4C"/>
		</linearGradient>

      <polygon style="fill-rule:evenodd;clip-rule:evenodd;fill:url(#SVGID_PASTIS_APP_36);" points="
			133.4,166.1 133.4,71.6 58.3,63.5 59.9,153.5 		"/>

      <linearGradient id="SVGID_PASTIS_APP_37" gradientUnits="userSpaceOnUse" x1="5799.6421" y1="85.5669" x2="5807.1973" y2="186.6541" gradientTransform="matrix(-1 0 0 1 5897.8711 0)">
			<stop  offset="0" style="stop-color:#F5F5F5"/>
        <stop  offset="0.7896" style="stop-color:#9B9A9B"/>
		</linearGradient>

      <polygon style="fill-rule:evenodd;clip-rule:evenodd;fill:url(#SVGID_PASTIS_APP_37);" points="
			133.8,166 133.8,71.5 59.1,63.4 58.3,63.5 133.4,71.6 133.3,166.1 		"/>
	</g>
    <g>

			<linearGradient id="SVGID_PASTIS_APP_38" gradientUnits="userSpaceOnUse" x1="5482.7051" y1="156.9799" x2="5577.7925" y2="255.2138" gradientTransform="matrix(-1.0744 -1.239340e-02 -1.202076e-03 0.9999 6050.1606 -35.4869)">
			<stop  offset="0" style="stop-color:#F5F5F5"/>
        <stop  offset="0.7896" style="stop-color:#4C4C4C"/>
		</linearGradient>

      <polygon style="fill-rule:evenodd;clip-rule:evenodd;fill:url(#SVGID_PASTIS_APP_38);" points="
			131.7,166.7 131.7,72.2 57.4,63.6 59.8,153.8 		"/>

      <linearGradient id="SVGID_PASTIS_APP_39" gradientUnits="userSpaceOnUse" x1="5540.6924" y1="190.0637" x2="5548.2524" y2="291.2122" gradientTransform="matrix(-1.0744 -1.239340e-02 -1.202076e-03 0.9999 6050.1606 -35.4869)">
			<stop  offset="0" style="stop-color:#F5F5F5"/>
        <stop  offset="0.7896" style="stop-color:#9B9A9B"/>
		</linearGradient>

      <polygon style="fill-rule:evenodd;clip-rule:evenodd;fill:url(#SVGID_PASTIS_APP_39);" points="
			132.1,166.6 132.2,72.1 58.3,63.5 57.4,63.6 131.7,72.3 131.6,166.7 		"/>

      <linearGradient id="SVGID_PASTIS_APP_40" gradientUnits="userSpaceOnUse" x1="5562.2246" y1="206.3894" x2="5657.3579" y2="304.6703" gradientTransform="matrix(-1.0502 -2.616579e-02 -1.207899e-03 0.9999 5998.5933 -6.1878)">
			<stop  offset="0" style="stop-color:#F5F5F5"/>
        <stop  offset="0.7896" style="stop-color:#4C4C4C"/>
		</linearGradient>

      <polygon style="fill-rule:evenodd;clip-rule:evenodd;fill:url(#SVGID_PASTIS_APP_40);" points="
			130,167.2 130,73 57.4,63.6 59.8,153.8 		"/>

      <linearGradient id="SVGID_PASTIS_APP_41" gradientUnits="userSpaceOnUse" x1="5620.2168" y1="239.5845" x2="5627.7461" y2="340.3255" gradientTransform="matrix(-1.0502 -2.616579e-02 -1.207899e-03 0.9999 5998.5933 -6.1878)">
			<stop  offset="0" style="stop-color:#F5F5F5"/>
        <stop  offset="0.7896" style="stop-color:#9B9A9B"/>
		</linearGradient>

      <polygon style="fill-rule:evenodd;clip-rule:evenodd;fill:url(#SVGID_PASTIS_APP_41);" points="
			130.4,167.1 130.4,72.9 58.2,63.5 57.4,63.6 130,73 129.9,167.2 		"/>

      <linearGradient id="SVGID_PASTIS_APP_42" gradientUnits="userSpaceOnUse" x1="5643.5752" y1="256.946" x2="5738.7515" y2="355.2713" gradientTransform="matrix(-1.0265 -3.962788e-02 -1.213591e-03 0.9999 5948.188 22.4515)">
			<stop  offset="0" style="stop-color:#F5F5F5"/>
        <stop  offset="0.7896" style="stop-color:#4C4C4C"/>
		</linearGradient>

      <polygon style="fill-rule:evenodd;clip-rule:evenodd;fill:url(#SVGID_PASTIS_APP_42);" points="
			128.3,167.8 128.3,73.7 57.4,63.6 59.8,153.8 		"/>

      <linearGradient id="SVGID_PASTIS_APP_43" gradientUnits="userSpaceOnUse" x1="5701.5708" y1="290.2494" x2="5709.0703" y2="390.5905" gradientTransform="matrix(-1.0265 -3.962788e-02 -1.213591e-03 0.9999 5948.188 22.4515)">
			<stop  offset="0" style="stop-color:#F5F5F5"/>
        <stop  offset="0.7896" style="stop-color:#9B9A9B"/>
		</linearGradient>

      <polygon style="fill-rule:evenodd;clip-rule:evenodd;fill:url(#SVGID_PASTIS_APP_43);" points="
			128.7,167.7 128.7,73.6 58.2,63.5 57.4,63.6 128.3,73.7 128.3,167.8 		"/>

      <linearGradient id="SVGID_PASTIS_APP_44" gradientUnits="userSpaceOnUse" x1="5725.0044" y1="307.7438" x2="5820.23" y2="406.1202" gradientTransform="matrix(-1.0039 -5.299334e-02 0 1 5901.6616 51.0892)">
			<stop  offset="0" style="stop-color:#F5F5F5"/>
        <stop  offset="0.7896" style="stop-color:#4C4C4C"/>
		</linearGradient>

      <polygon style="fill-rule:evenodd;clip-rule:evenodd;fill:url(#SVGID_PASTIS_APP_44);" points="
			126.8,168.4 126.6,74.4 57.4,63.6 59.8,153.9 		"/>

      <linearGradient id="SVGID_PASTIS_APP_45" gradientUnits="userSpaceOnUse" x1="5784.4365" y1="342.6339" x2="5791.9067" y2="442.584" gradientTransform="matrix(-1.0039 -5.299334e-02 0 1 5901.6616 51.0892)">
			<stop  offset="0" style="stop-color:#F5F5F5"/>
        <stop  offset="0.7896" style="stop-color:#9B9A9B"/>
		</linearGradient>

      <polygon style="fill-rule:evenodd;clip-rule:evenodd;fill:url(#SVGID_PASTIS_APP_45);" points="
			127.2,168.3 127,74.3 58.2,63.6 57.4,63.6 126.6,74.4 126.8,168.3 		"/>
	</g>
    <g>

			<linearGradient id="SVGID_PASTIS_APP_46" gradientUnits="userSpaceOnUse" x1="5489.3916" y1="161.5574" x2="5579.4595" y2="254.6052" gradientTransform="matrix(-1.0744 -1.239340e-02 -1.202076e-03 0.9999 6050.1606 -35.4869)">
			<stop  offset="0" style="stop-color:#F5F5F5"/>
        <stop  offset="0.7896" style="stop-color:#4C4C4C"/>
		</linearGradient>

      <polygon style="fill-rule:evenodd;clip-rule:evenodd;fill:url(#SVGID_PASTIS_APP_46);" points="
			125.1,168.9 125,74.8 56.6,63.7 59,154.1 		"/>

      <linearGradient id="SVGID_PASTIS_APP_47" gradientUnits="userSpaceOnUse" x1="5544.082" y1="190.506" x2="5551.8457" y2="294.3774" gradientTransform="matrix(-1.0744 -1.239340e-02 -1.202076e-03 0.9999 6050.1606 -35.4869)">
			<stop  offset="0" style="stop-color:#F5F5F5"/>
        <stop  offset="0.7896" style="stop-color:#9B9A9B"/>
		</linearGradient>

      <polygon style="fill-rule:evenodd;clip-rule:evenodd;fill:url(#SVGID_PASTIS_APP_47);" points="
			125.5,168.9 125.4,74.7 57.4,63.6 56.6,63.7 125,74.8 125,168.9 		"/>

      <linearGradient id="SVGID_PASTIS_APP_48" gradientUnits="userSpaceOnUse" x1="5568.9189" y1="210.9883" x2="5659.0303" y2="304.0816" gradientTransform="matrix(-1.0502 -2.616579e-02 -1.207899e-03 0.9999 5998.5933 -6.1878)">
			<stop  offset="0" style="stop-color:#F5F5F5"/>
        <stop  offset="0.7896" style="stop-color:#4C4C4C"/>
		</linearGradient>

      <polygon style="fill-rule:evenodd;clip-rule:evenodd;fill:url(#SVGID_PASTIS_APP_48);" points="
			123.5,169.4 123.4,75.5 56.6,63.7 59,154.1 		"/>

      <linearGradient id="SVGID_PASTIS_APP_49" gradientUnits="userSpaceOnUse" x1="5623.6143" y1="240.0427" x2="5631.3491" y2="343.5314" gradientTransform="matrix(-1.0502 -2.616579e-02 -1.207899e-03 0.9999 5998.5933 -6.1878)">
			<stop  offset="0" style="stop-color:#F5F5F5"/>
        <stop  offset="0.7896" style="stop-color:#9B9A9B"/>
		</linearGradient>

      <polygon style="fill-rule:evenodd;clip-rule:evenodd;fill:url(#SVGID_PASTIS_APP_49);" points="
			123.9,169.4 123.8,75.4 57.4,63.6 56.6,63.7 123.4,75.5 123.5,169.4 		"/>

      <linearGradient id="SVGID_PASTIS_APP_50" gradientUnits="userSpaceOnUse" x1="5650.2773" y1="261.5662" x2="5740.4307" y2="354.7023" gradientTransform="matrix(-1.0265 -3.962788e-02 -1.213591e-03 0.9999 5948.188 22.4515)">
			<stop  offset="0" style="stop-color:#F5F5F5"/>
        <stop  offset="0.7896" style="stop-color:#4C4C4C"/>
		</linearGradient>

      <polygon style="fill-rule:evenodd;clip-rule:evenodd;fill:url(#SVGID_PASTIS_APP_50);" points="
			122,169.9 121.8,76.1 56.6,63.7 59,154.1 		"/>

      <linearGradient id="SVGID_PASTIS_APP_51" gradientUnits="userSpaceOnUse" x1="5704.9771" y1="290.7236" x2="5712.6841" y2="393.8367" gradientTransform="matrix(-1.0265 -3.962788e-02 -1.213591e-03 0.9999 5948.188 22.4515)">
			<stop  offset="0" style="stop-color:#F5F5F5"/>
        <stop  offset="0.7896" style="stop-color:#9B9A9B"/>
		</linearGradient>

      <polygon style="fill-rule:evenodd;clip-rule:evenodd;fill:url(#SVGID_PASTIS_APP_51);" points="
			122.4,169.9 122.2,76 57.4,63.7 56.6,63.7 121.8,76.1 122,169.9 		"/>

      <linearGradient id="SVGID_PASTIS_APP_52" gradientUnits="userSpaceOnUse" x1="5745.999" y1="327.141" x2="5836.2031" y2="420.3299" gradientTransform="matrix(-1.0039 -5.299334e-02 0 1 5901.6616 51.0892)">
			<stop  offset="0" style="stop-color:#F5F5F5"/>
        <stop  offset="0.7896" style="stop-color:#9B9A9B"/>
		</linearGradient>

      <polygon style="fill-rule:evenodd;clip-rule:evenodd;fill:url(#SVGID_PASTIS_APP_52);" points="
			120.6,170.5 120.3,76.8 56.6,63.7 59.1,154.1 		"/>

      <linearGradient id="SVGID_PASTIS_APP_53" gradientUnits="userSpaceOnUse" x1="5787.854" y1="343.1233" x2="5795.5337" y2="445.876" gradientTransform="matrix(-1.0039 -5.299334e-02 0 1 5901.6616 51.0892)">
			<stop  offset="0" style="stop-color:#F5F5F5"/>
        <stop  offset="0.7896" style="stop-color:#9B9A9B"/>
		</linearGradient>

      <polygon style="fill-rule:evenodd;clip-rule:evenodd;fill:url(#SVGID_PASTIS_APP_53);" points="
			121,170.4 120.6,76.7 57.3,63.7 56.6,63.7 120.3,76.8 120.6,170.5 		"/>
	</g>
    <g>

			<linearGradient id="SVGID_PASTIS_APP_54" gradientUnits="userSpaceOnUse" x1="-1859.5729" y1="248.2332" x2="-1704.2657" y2="58.3261" gradientTransform="matrix(1 0 0 1 1840.2769 0)">
			<stop  offset="0" style="stop-color:var(--vitamui-primary-900)"/>
        <stop  offset="3.934753e-02" style="stop-color:var(--vitamui-primary-800)"/>
        <stop  offset="0.1654" style="stop-color:var(--vitamui-primary-700)"/>
        <stop  offset="0.2899" style="stop-color:var(--vitamui-primary-600)"/>
        <stop  offset="0.4107" style="stop-color:var(--vitamui-primary-600)"/>
        <stop  offset="0.5264" style="stop-color:var(--vitamui-primary)"/>
        <stop  offset="0.6312" style="stop-color:var(--vitamui-primary)"/>
        <stop  offset="0.6963" style="stop-color:var(--vitamui-primary)"/>
        <stop  offset="0.7969" style="stop-color:var(--vitamui-primary-400)"/>
        <stop  offset="0.92" style="stop-color:var(--vitamui-primary-200)"/>
        <stop  offset="1" style="stop-color:var(--vitamui-primary-50)"/>
		</linearGradient>

      <polygon style="fill-rule:evenodd;clip-rule:evenodd;fill:url(#SVGID_PASTIS_APP_54);" points="
			118.5,172.5 118.8,76.9 55.7,63.7 55.6,154.2 		"/>

      <linearGradient id="SVGID_PASTIS_APP_55" gradientUnits="userSpaceOnUse" x1="7521.4185" y1="1076.5621" x2="7518.3604" y2="1040.6877" gradientTransform="matrix(-0.7615 -0.1554 -2.949967e-04 1.0065 5815.6733 197.2003)">
			<stop  offset="0" style="stop-color:var(--vitamui-primary-900)"/>
        <stop  offset="3.934753e-02" style="stop-color:var(--vitamui-primary-800)"/>
        <stop  offset="0.1654" style="stop-color:var(--vitamui-primary-700)"/>
        <stop  offset="0.2899" style="stop-color:var(--vitamui-primary-600)"/>
        <stop  offset="0.4107" style="stop-color:var(--vitamui-primary-600)"/>
        <stop  offset="0.5264" style="stop-color:var(--vitamui-primary)"/>
        <stop  offset="0.6312" style="stop-color:var(--vitamui-primary)"/>
        <stop  offset="0.6963" style="stop-color:var(--vitamui-primary)"/>
        <stop  offset="0.7969" style="stop-color:var(--vitamui-primary-400)"/>
        <stop  offset="0.92" style="stop-color:var(--vitamui-primary-200)"/>
        <stop  offset="1" style="stop-color:var(--vitamui-primary-50)"/>
		</linearGradient>

      <polygon style="fill-rule:evenodd;clip-rule:evenodd;fill:url(#SVGID_PASTIS_APP_55);" points="
			118.9,172.4 119.2,76.8 56.5,63.7 55.7,63.7 118.8,76.9 118.5,172.5 		"/>
	</g>
    <path class="pastis_app_186" d="M59.4,63.1l1,0.1l-3.8,0.7l-0.9-0.2l0.1,0C55.8,63.7,56.6,63.1,59.4,63.1z"/>
    <polygon class="pastis_app_215" points="57.1,63.8 60.1,63.3 60.1,63.4 57.8,64 	"/>
</g>
  <g>
	<path d="M89.5,84.4c1,0.2,1.8,0.7,2.4,1.6c0.6,0.9,0.9,1.9,0.9,3.1c0,1.2-0.3,2.1-0.9,2.7c-0.6,0.6-1.4,0.8-2.4,0.6l-1.6-0.3v3.4
		L85.6,95V83.6L89.5,84.4z M87.9,86.8v2.5l1.4,0.3c0.3,0.1,0.5,0,0.7-0.2c0.2-0.2,0.3-0.5,0.3-0.8c0-0.3-0.1-0.6-0.3-0.9
		c-0.2-0.3-0.4-0.5-0.7-0.5L87.9,86.8z"/>
    <path d="M95.8,94.8l-0.6,2.4l-2.6-0.6l3.4-10.9l2.7,0.6l3.5,12.5l-2.7-0.6l-0.7-2.7L95.8,94.8z M97.2,89.2l-0.8,3.2l1.7,0.4
		L97.2,89.2z"/>
    <path d="M89.5,100c1,0.2,1.8,0.8,2.4,1.7c0.6,0.9,0.9,2,0.9,3.1c0,1.2-0.3,2.1-0.9,2.7c-0.6,0.6-1.4,0.8-2.4,0.6l-1.6-0.4v3.4
		l-2.4-0.6V99.1L89.5,100z M87.9,102.4v2.5l1.4,0.4c0.3,0.1,0.5,0,0.7-0.2c0.2-0.2,0.3-0.5,0.3-0.8c0-0.3-0.1-0.6-0.3-0.9
		c-0.2-0.3-0.4-0.5-0.7-0.5L87.9,102.4z"/>
    <path d="M99.5,111c0.3-0.4,0.5-0.9,0.5-1.5v-6.9l2.5,0.6v6.9c0,1.5-0.4,2.6-1.2,3.4c-0.8,0.8-1.8,1-3,0.7c-1.2-0.3-2.2-1.1-3-2.3
		c-0.8-1.2-1.2-2.5-1.2-4v-6.8l2.4,0.6v6.8c0,0.7,0.2,1.3,0.5,1.8c0.3,0.5,0.7,0.9,1.2,1C98.8,111.5,99.2,111.3,99.5,111z"/>
    <path d="M106.4,113.4l-0.7,2.4l-2.7-0.7l3.5-11l2.8,0.7l3.6,13l-2.8-0.7l-0.7-2.8L106.4,113.4z M108,107.7l-0.9,3.3l1.8,0.4
		L108,107.7z"/>
</g>
  <g>
	<path class="pastis_app_216" d="M88.8,83.7c1,0.2,1.8,0.7,2.4,1.6c0.6,0.9,0.9,1.9,0.9,3.1c0,1.2-0.3,2.1-0.9,2.7c-0.6,0.6-1.4,0.8-2.4,0.6
		l-1.6-0.3v3.4l-2.4-0.5V82.9L88.8,83.7z M87.2,86.1v2.5l1.4,0.3c0.3,0.1,0.5,0,0.7-0.2c0.2-0.2,0.3-0.5,0.3-0.8
		c0-0.3-0.1-0.6-0.3-0.9c-0.2-0.3-0.4-0.5-0.7-0.5L87.2,86.1z"/>
    <path class="pastis_app_216" d="M95,94.1l-0.6,2.4l-2.6-0.6L95.2,85l2.7,0.6l3.5,12.5l-2.7-0.6L98,94.8L95,94.1z M96.5,88.5l-0.8,3.2
		l1.7,0.4L96.5,88.5z"/>
    <path class="pastis_app_216" d="M88.8,99.3c1,0.2,1.8,0.8,2.4,1.7c0.6,0.9,0.9,2,0.9,3.1c0,1.2-0.3,2.1-0.9,2.7c-0.6,0.6-1.4,0.8-2.4,0.6
		l-1.6-0.4v3.4l-2.4-0.6V98.4L88.8,99.3z M87.2,101.7v2.5l1.4,0.4c0.3,0.1,0.5,0,0.7-0.2c0.2-0.2,0.3-0.5,0.3-0.8
		c0-0.3-0.1-0.6-0.3-0.9c-0.2-0.3-0.4-0.5-0.7-0.5L87.2,101.7z"/>
    <path class="pastis_app_216" d="M98.8,110.3c0.3-0.4,0.5-0.9,0.5-1.5v-6.9l2.5,0.6v6.9c0,1.5-0.4,2.6-1.2,3.4c-0.8,0.8-1.8,1-3,0.7
		c-1.2-0.3-2.2-1.1-3-2.3c-0.8-1.2-1.2-2.5-1.2-4v-6.8l2.4,0.6v6.8c0,0.7,0.2,1.3,0.5,1.8c0.3,0.5,0.7,0.9,1.2,1
		C98.1,110.7,98.5,110.6,98.8,110.3z"/>
    <path class="pastis_app_216" d="M105.7,112.7l-0.7,2.4l-2.7-0.7l3.5-11l2.8,0.7l3.6,13l-2.8-0.7l-0.7-2.8L105.7,112.7z M107.3,107l-0.9,3.3
		l1.8,0.4L107.3,107z"/>
</g>
</svg>
