<?xml version="1.0" encoding="utf-8"?>
<!-- Generator: Adobe Illustrator 27.2.0, SVG Export Plug-In . SVG Version: 6.00 Build 0)  -->
<!DOCTYPE svg PUBLIC "-//W3C//DTD SVG 1.1//EN" "http://www.w3.org/Graphics/SVG/1.1/DTD/svg11.dtd" [
	<!ENTITY ns_extend "http://ns.adobe.com/Extensibility/1.0/">
	<!ENTITY ns_ai "http://ns.adobe.com/AdobeIllustrator/10.0/">
	<!ENTITY ns_graphs "http://ns.adobe.com/Graphs/1.0/">
	<!ENTITY ns_vars "http://ns.adobe.com/Variables/1.0/">
	<!ENTITY ns_imrep "http://ns.adobe.com/ImageReplacement/1.0/">
	<!ENTITY ns_sfw "http://ns.adobe.com/SaveForWeb/1.0/">
	<!ENTITY ns_custom "http://ns.adobe.com/GenericCustomNamespace/1.0/">
	<!ENTITY ns_adobe_xpath "http://ns.adobe.com/XPath/1.0/">
]>
<svg version="1.1" id="Calque_1" xmlns:x="&ns_extend;" xmlns:i="&ns_ai;" xmlns:graph="&ns_graphs;"
	 xmlns="http://www.w3.org/2000/svg" xmlns:xlink="http://www.w3.org/1999/xlink" x="0px" y="0px" viewBox="0 0 200 200"
	 style="enable-background:new 0 0 200 200;" xml:space="preserve">
<style type="text/css">
	.Ombre_x0020_portée{fill:none;}
	.Lueur_x0020_externe_x0020_5 pt{fill:none;}
	.Néon_x0020_bleu{fill:none;stroke:#8AACDA;stroke-width:7;stroke-linecap:round;stroke-linejoin:round;}
	.Ton_x0020_clair_x0020_chrome{fill:url(#SVGID_1_);stroke:#FFFFFF;stroke-width:0.3629;stroke-miterlimit:1;}
	.Swing_GS{fill:#FFDD00;}
	.Alysse_GS{fill:#A6D0E4;}
	.print0{fill:#75757C;}
	.print1{fill:#EAEAEC;}
	.print2{fill:#D8D8D8;}
	.print3{fill:none;stroke:#75757C;stroke-width:0.4;stroke-miterlimit:10;}
	.print4{fill:#6DA3BC;}
	.print5{fill:#93BDD3;}
	.print6{fill:#F0F2F7;}
	.print7{fill:#FFFFFF;}
	.print8{fill:#232736;}
	.print9{fill:#A6AAB3;}
	.print10{fill:#787C8E;}
	.print11{fill:#4A4E67;}
	.print12{fill-rule:evenodd;clip-rule:evenodd;fill:#D8D8D8;}
	.print13{fill:#009EE2;}
</style>
<metadata>
	<sfw  xmlns="&ns_sfw;">
		<slices></slices>
		<sliceSourceBounds  bottomLeftOrigin="true" height="127.2" width="109.9" x="45.3" y="-161.7"></sliceSourceBounds>
	</sfw>
</metadata>
<linearGradient id="SVGID_1_" gradientUnits="userSpaceOnUse" x1="0" y1="0" x2="6.123234e-17" y2="-1">
	<stop  offset="0" style="stop-color:#656565"/>
	<stop  offset="0.618" style="stop-color:#1B1B1B"/>
	<stop  offset="0.6292" style="stop-color:#545454"/>
	<stop  offset="0.9831" style="stop-color:#3E3E3E"/>
</linearGradient>
<g>
	<path class="print0" d="M122.8,150.3v-8.1c0-0.4-0.3-0.7-0.7-0.7l-15.9-0.1c-0.2-2.7-2.3-4.9-5-5.2v-13.3c0-0.4-0.3-0.7-0.7-0.7
		s-0.7,0.3-0.7,0.7v13.3c-2.7,0.3-4.8,2.4-5,5.1l-16.6-0.1c-0.2,0-0.3,0.1-0.5,0.2c-0.1,0.1-0.2,0.3-0.2,0.5v8.3
		c-2.8,0.3-5,2.7-5,5.7c0,3.1,2.6,5.7,5.7,5.7c3.1,0,5.7-2.6,5.7-5.7c0-2.9-2.2-5.3-5-5.7v-7.6l16,0.1c0.4,2.8,2.7,4.9,5.6,4.9
		c2.9,0,5.2-2.1,5.6-4.9l15.3,0.1v7.4c-2.8,0.3-5,2.7-5,5.7c0,3.1,2.6,5.7,5.7,5.7c3.1,0,5.7-2.6,5.7-5.7
		C127.9,153.1,125.6,150.7,122.8,150.3z M81.8,156.1c0,1.9-1.6,3.5-3.5,3.5c-1.9,0-3.5-1.6-3.5-3.5c0-1.7,1.2-3.1,2.9-3.4
		c0.2,0,0.4-0.1,0.7-0.1c0.2,0,0.4,0,0.7,0.1C80.6,153,81.8,154.4,81.8,156.1z M100.6,145.7c-1.7,0-3.1-1.2-3.5-2.9
		c0-0.2-0.1-0.4-0.1-0.6c0-0.2,0-0.4,0.1-0.7c0.3-1.4,1.4-2.5,2.8-2.8c0.2,0,0.4-0.1,0.7-0.1c0.2,0,0.4,0,0.7,0.1
		c1.4,0.3,2.5,1.4,2.8,2.8c0,0.2,0.1,0.4,0.1,0.6c0,0.2,0,0.5-0.1,0.7C103.7,144.4,102.3,145.7,100.6,145.7z"/>
	<g>
		<g>
			<g>
				<path class="print1" d="M56.6,65.8h87.3c6.2,0,11.3,4.5,11.3,10.1v18.8L45.3,95V76C45.3,70.4,50.4,65.8,56.6,65.8z"/>
				<path class="print2" d="M56.6,69.1h87.3c6.2,0,11.3,5.1,11.3,11.3v21H45.3v-21C45.3,74.1,50.4,69.1,56.6,69.1z"/>
				<path class="print3" d="M59.1,72h82.2c5.7,0,10.3,4.6,10.3,10.3v19.9H48.8V82.3C48.8,76.6,53.4,72,59.1,72z"/>
				<path class="print0" d="M143.9,120.1H61.1c-6.2,0-11.3-5.1-11.3-11.3l-4.5-7.6h109.9l-4.5,7.6C150.7,115,150.1,120.1,143.9,120.1z"
					/>
				<g>
					<g>
						<circle class="print4" cx="59.4" cy="85.2" r="2.9"/>
					</g>
					<g>
						<circle class="print5" cx="59.4" cy="84.7" r="2"/>
					</g>
					<g>
						<circle class="print6" cx="67.6" cy="85.2" r="2.9"/>
					</g>
					<g>
						<circle class="print7" cx="67.6" cy="84.7" r="2"/>
					</g>
				</g>
				<rect x="68.3" y="97.9" class="print8" width="63.9" height="22.2"/>
				<rect x="68.3" y="44.8" class="print0" width="61.5" height="25.1"/>
				<rect x="68.3" y="44.8" class="print9" width="61.5" height="25.1"/>
				<rect x="68.3" y="63.5" class="print10" width="61.5" height="6.4"/>
				
					<rect x="75.8" y="34.4" transform="matrix(-1 -1.224647e-16 1.224647e-16 -1 196.8297 104.3016)" class="print7" width="45.2" height="35.4"/>
				
					<rect x="75.8" y="63.5" transform="matrix(-1 -1.224647e-16 1.224647e-16 -1 196.8297 133.3804)" class="print6" width="45.2" height="6.4"/>
				<g>
					<path class="print0" d="M139.5,92.4v-3.7h-3.7V86h3.7v-3.7h2.5V86h3.7v2.7H142v3.7H139.5z"/>
				</g>
				<g>
					<path class="print6" d="M139.5,91.6v-3.7h-3.7v-2.7h3.7v-3.7h2.5v3.7h3.7v2.7H142v3.7H139.5z"/>
				</g>
				<rect x="61.1" y="120.1" class="print0" width="81.9" height="2.8"/>
				<rect x="61.1" y="118.6" class="print8" width="81.9" height="1.4"/>
				<g>
					<rect x="75.5" y="110.3" class="print0" width="49.6" height="19.8"/>
					<rect x="77.7" y="103.2" class="print7" width="45.2" height="24.2"/>
				</g>
				<rect x="77.7" y="103.2" class="print6" width="45.2" height="10.1"/>
				<polygon class="print6" points="45.3,101.2 46.2,102.7 68.3,102.7 68.3,101.2 				"/>
				<polygon class="print6" points="155.2,101.2 154.3,102.7 132.2,102.7 132.2,101.2 				"/>
				<rect x="68.3" y="97.9" class="print0" width="63.9" height="3.3"/>
				<polygon class="print6" points="110.7,44.8 121,44.8 110.7,34.4 				"/>
			</g>
			<rect x="68.3" y="69.9" class="print11" width="61.5" height="2.1"/>
			<rect x="68.3" y="44.8" class="print12" width="7.5" height="1"/>
			<rect x="121" y="44.8" class="print12" width="8.8" height="1"/>
		</g>
		<g>
			<path class="print5" d="M95.3,107c-0.6,0.5-1,1-1.7,1.5c-1.4,1-2,2.1-1.7,3.3c0.1,0.5,0,1,0,1.5c-1.6,0.2-5-0.4-6.7-1.6
				c-1.7-1.3-1.4-2.9,0.9-3.9C88.5,106.7,92.2,106.3,95.3,107z"/>
			<path class="print8" d="M93.1,109.8c1.1-1,2.2-2,3.3-3c2.4,0.3,4.7,1.9,4.4,3C98.3,109.8,95.8,109.8,93.1,109.8z"/>
			<path class="print8" d="M91.5,119.9c-1.8,0-3.7,0-5.5,0c-0.6,0-1.1-0.1-1.3-0.4c-0.2-0.3,0.3-0.6,1.2-0.6c1.1,0,2.2,0,3.3,0
				c2.6,0,5.2,0,7.8,0c0.8,0,1.3,0.2,1.3,0.5c0,0.3-0.5,0.5-1.3,0.5C95.2,120,93.4,119.9,91.5,119.9z"/>
			<path class="print8" d="M91.5,123c-1.8,0-3.5,0-5.3,0c-0.3,0-0.5,0-0.8,0c-0.5-0.1-0.8-0.2-0.7-0.4c0.1-0.2,0.4-0.3,0.6-0.4
				c0.2-0.1,0.5-0.1,0.8-0.1c3.6,0,7.2,0,10.8,0c0.4,0,0.9,0.1,1.2,0.2c0.2,0.1,0.3,0.4,0.1,0.5c-0.2,0.1-0.7,0.3-1.1,0.3
				c-1.1,0-2.3,0-3.4,0C93,123,92.3,123,91.5,123z"/>
			<path class="print8" d="M109.5,106.7c1.9,0,3.7,0,5.6,0c0.9,0,1.4,0.3,1.2,0.6c-0.1,0.2-0.4,0.3-0.9,0.4c-0.4,0-0.8,0-1.2,0
				c-3.3,0-6.5,0-9.8,0c-0.2,0-0.5,0-0.7,0c-0.7,0-1.1-0.2-1-0.5c0-0.3,0.5-0.5,1.2-0.5c1.6,0,3.3,0,4.9,0
				C108.9,106.7,109.2,106.7,109.5,106.7z"/>
			<path class="print8" d="M109.5,109.7c1.9,0,3.7,0,5.6,0c0.9,0,1.5,0.3,1.2,0.6c-0.2,0.3-0.6,0.3-1.2,0.3c-1.3,0-2.7,0-4,0
				c-2.3,0-4.6,0-6.9,0c-0.3,0-0.7,0-1-0.1c-0.5-0.1-0.6-0.3-0.4-0.5c0.2-0.2,0.6-0.3,1.2-0.3C105.7,109.7,107.6,109.7,109.5,109.7z
				"/>
			<path class="print8" d="M109.6,113.7c-1.8,0-3.5,0-5.3,0c-0.2,0-0.5,0-0.7,0c-0.6,0-0.9-0.2-0.9-0.4c0-0.2,0.2-0.4,0.7-0.5
				c0.2,0,0.4,0,0.6,0c3.7,0,7.4,0,11,0c0.7,0,1.2,0.1,1.3,0.4c0.2,0.3-0.3,0.6-1.1,0.6C113.3,113.6,111.4,113.6,109.6,113.7
				C109.6,113.6,109.6,113.6,109.6,113.7z"/>
			<path class="print8" d="M91.5,116.9c-1.8,0-3.6,0-5.5,0c-0.8,0-1.4-0.2-1.4-0.5c0-0.3,0.5-0.5,1.3-0.5c3.7,0,7.4,0,11,0
				c0.8,0,1.3,0.2,1.3,0.5c0,0.3-0.5,0.5-1.3,0.5C95.2,116.9,93.4,116.9,91.5,116.9z"/>
			<path class="print13" d="M115.1,116.6c-0.4,0-0.6,0-0.9,0c-4.1,0-8.1,0-12.2,0c-0.2,0-0.5,0-0.7,0c-0.1,0-0.4-0.1-0.3-0.2
				c0-0.1,0.2-0.2,0.3-0.2c0.1,0,0.4,0,0.6,0c4.4,0,8.8,0,13.2,0c0.9,0,0.9,0,0.9,0.4c0,1.9,0,3.7,0,5.6c0,0,0,0,0,0
				c0,0.2,0.1,0.4-0.5,0.4c-0.6,0-0.5-0.2-0.5-0.4c0-1.8,0-3.5,0-5.3C115.1,116.9,115.1,116.8,115.1,116.6z"/>
			<path class="print13" d="M102,121.3c0-1.5,0-3,0-4.5c0.5,0,1.1,0,1.7,0c0,0.1,0,0.2,0,0.3c0,0.9,0,1.8,0,2.7c0,0.2-0.2,0.4-0.4,0.6
				c-0.4,0.3-0.8,0.6-1.2,0.9C102,121.3,102,121.3,102,121.3z"/>
			<path class="print13" d="M114.8,116.8c0.4,0.6-0.4,1-0.9,1.5c-0.8,0.7-0.8,0.7-2.3,0.4c-0.4-0.1-0.9-0.2-1.4-0.2
				c-0.4,0.4-0.8,0.7-1.2,1c-0.5,0.5-0.5,0.5-1.6,0.3c-0.3,0-0.7-0.1-1-0.1c-0.2,0-0.5,0-0.6,0.1c-1,0.7-1.9,1.3-2.8,2
				c-0.1,0.1-0.1,0.1-0.1,0.2c0.1,0,0.1,0,0.2,0c-0.5,0.2-0.9,0.3-1.5,0.5c0.1-0.3,0.2-0.5,0.2-0.7c0.3-0.1,0.5-0.1,0.6-0.2
				c1-0.7,2-1.4,2.9-2.1c0.3-0.2,0.6-0.3,1.1-0.2c0.6,0.1,1.1,0.2,1.7,0.2c0.5-0.4,1-0.8,1.3-1.2c0.3-0.3,0.6-0.3,1.1-0.2
				c0.7,0.1,1.4,0.3,2.2,0.4C113.4,117.9,114.1,117.4,114.8,116.8z"/>
			<path class="print8" d="M100.5,110.3c0.2,1.8-3.7,3.4-7.7,3.3c0-1.1,0-2.2,0-3.3C95.4,110.3,98,110.3,100.5,110.3z M93.3,113.4
				c3.9,0,6.9-1.7,6.7-2.9c-2.2,0-4.5,0-6.7,0C93.3,111.5,93.3,112.5,93.3,113.4z"/>
			<path class="print13" d="M106.4,119.1c-0.9-0.2-1.3,0-1.8,0.3c0-0.4,0-0.9,0-1.3c0-0.4,0-0.9,0-1.3c0.6,0,1.2,0,1.8,0
				C106.4,117.6,106.4,118.3,106.4,119.1z"/>
			<path class="print13" d="M107.3,116.8c0.6,0,1.2,0,1.7,0c0.4,0.8,0,1.6-1,2.3c-0.1,0-0.3,0.1-0.4,0.1c-0.1,0-0.3-0.1-0.3-0.2
				C107.2,118.3,107.3,117.6,107.3,116.8z"/>
			<path class="print13" d="M109.9,116.8c0.6,0,1.2,0,1.7,0c0,0.4,0,0.8,0,1.3c-0.6-0.1-1.2-0.2-1.7-0.3
				C109.9,117.5,109.9,117.2,109.9,116.8z"/>
			<path class="print13" d="M112.6,118.1c0-0.4,0-0.9,0-1.3c0.5,0,1,0,1.6,0C113.7,117.3,113.2,117.7,112.6,118.1
				C112.6,118.1,112.6,118.1,112.6,118.1z"/>
		</g>
	</g>
</g>
</svg>
