<?xml version="1.0" encoding="utf-8"?>
<!-- Generator: Adobe Illustrator 27.2.0, SVG Export Plug-In . SVG Version: 6.00 Build 0)  -->
<!DOCTYPE svg PUBLIC "-//W3C//DTD SVG 1.1//EN" "http://www.w3.org/Graphics/SVG/1.1/DTD/svg11.dtd" [
	<!ENTITY ns_extend "http://ns.adobe.com/Extensibility/1.0/">
	<!ENTITY ns_ai "http://ns.adobe.com/AdobeIllustrator/10.0/">
	<!ENTITY ns_graphs "http://ns.adobe.com/Graphs/1.0/">
	<!ENTITY ns_vars "http://ns.adobe.com/Variables/1.0/">
	<!ENTITY ns_imrep "http://ns.adobe.com/ImageReplacement/1.0/">
	<!ENTITY ns_sfw "http://ns.adobe.com/SaveForWeb/1.0/">
	<!ENTITY ns_custom "http://ns.adobe.com/GenericCustomNamespace/1.0/">
	<!ENTITY ns_adobe_xpath "http://ns.adobe.com/XPath/1.0/">
]>
<svg version="1.1" id="Calque_1" xmlns:x="&ns_extend;" xmlns:i="&ns_ai;" xmlns:graph="&ns_graphs;"
	 xmlns="http://www.w3.org/2000/svg" xmlns:xlink="http://www.w3.org/1999/xlink" x="0px" y="0px" viewBox="0 0 200 200"
	 style="enable-background:new 0 0 200 200;" xml:space="preserve">
<style type="text/css">
	.Ombre_x0020_portée{fill:none;}
	.Lueur_x0020_externe_x0020_5 pt{fill:none;}
	.Néon_x0020_bleu{fill:none;stroke:#8AACDA;stroke-width:7;stroke-linecap:round;stroke-linejoin:round;}
	.Ton_x0020_clair_x0020_chrome{fill:url(#SVGID_1_);stroke:#FFFFFF;stroke-width:0.3629;stroke-miterlimit:1;}
	.Swing_GS{fill:#FFDD00;}
	.Alysse_GS{fill:#A6D0E4;}
	.product0{fill:#4A4E67;}
	.product1{fill:#232736;}
	.product2{fill:#C09A6C;}
	.product3{fill:#1D1D1B;}
	.product4{fill:#F5D2A7;}
	.product5{fill:#E3BE8E;}
	.product6{fill:#FFFFFF;}
	.product7{fill-rule:evenodd;clip-rule:evenodd;fill:#2B4A99;}
	.product8{fill:none;}
	.product9{opacity:0.7;fill:#FFFFFF;}
	.product10{fill:#9B9A9B;}
	.product11{fill:#8D8A9C;}
</style>
<metadata>
	<sfw  xmlns="&ns_sfw;">
		<slices></slices>
		<sliceSourceBounds  bottomLeftOrigin="true" height="143.1" width="134.8" x="28" y="-167.3"></sliceSourceBounds>
	</sfw>
</metadata>
<linearGradient id="SVGID_1_" gradientUnits="userSpaceOnUse" x1="0" y1="0" x2="6.123234e-17" y2="-1">
	<stop  offset="0" style="stop-color:#656565"/>
	<stop  offset="0.618" style="stop-color:#1B1B1B"/>
	<stop  offset="0.6292" style="stop-color:#545454"/>
	<stop  offset="0.9831" style="stop-color:#3E3E3E"/>
</linearGradient>
<g>
	<g>
		<path class="product0" d="M159.5,158c-0.6-1.8-1.8-3.3-3.5-4.1l-32.7-16.7c-2.4-1.3-5.4-1-7.5,0.7l-9-4.6c2.6-5.4,4-11.5,4-17.8
			c0-22.9-18.5-41.4-41.4-41.4S28,92.5,28,115.4c0,22.9,18.5,41.4,41.4,41.4c10.7,0,20.5-4.1,27.9-10.8c2.5-2.1,4.8-4.7,6.6-7.6
			l9.1,4.6c-0.2,2.8,1.3,5.4,3.9,6.7l32.7,16.7c1,0.5,2.1,0.8,3.2,0.8c0.7,0,1.5-0.1,2.2-0.3c1.8-0.6,3.3-1.8,4.1-3.5
			C159.9,161.8,160.1,159.8,159.5,158z M103.3,131.6l-1.1,2.3l-1.6,2.5c-1.6,2.5-3.5,4.8-5.8,6.7l-0.1,0.1
			c-6.9,6.3-15.9,9.8-25.3,9.8c-20.7,0-37.6-16.9-37.6-37.6s16.9-37.6,37.6-37.6c2.7,0,5.3,0.3,7.8,0.8v2.7
			c10.7,2.6,19.4,10.4,23.2,20.5c2.1,4.5,3.3,9.5,3.3,14.8c0,1.7-0.1,3.3-0.3,4.9l2.8,1.6C105.6,126,104.7,128.8,103.3,131.6z"/>
		<path class="product1" d="M102.5,114.5c0,0.3,0,0.6,0,0.9c0,1.8-0.1,3.6-0.4,5.3l1.3,0.7c0.2-1.6,0.3-3.2,0.3-4.9
			c0-5.3-1.2-10.3-3.3-14.8c1.4,3.6,2.1,7.6,2.1,11.7C102.6,113.8,102.5,114.1,102.5,114.5z"/>
		<path class="product1" d="M77.2,83.1L77.2,83.1c14.2,3.5,24.9,16.1,25.3,31.3c0-0.3,0-0.6,0-0.9c0-4.1-0.8-8.1-2.1-11.7
			C96,92.5,87.5,85.5,77.2,83.1z"/>
		<path class="product0" d="M69.4,150.9c-19,0-34.3-15.4-34.3-34.3c0-5.3,1.2-10.3,3.3-14.8c4.7-12.5,16.8-21.4,31-21.4
			c2.7,0,5.3,0.3,7.8,0.9v-2.7c-2.5-0.5-5.2-0.8-7.8-0.8c-20.7,0-37.6,16.9-37.6,37.6S48.7,153,69.4,153c9.4,0,18.4-3.5,25.3-9.8
			l0.1-0.1c2.3-1.9,4.2-4.2,5.8-6.7l1.6-2.5l1.1-2.3c1.3-2.7,2.3-5.6,2.9-8.5l-2.8-1.6C101,138.1,86.7,150.9,69.4,150.9z"/>
		<path class="product1" d="M92.3,139.4c-1,1-2.1,1.9-3.3,2.7c-1.1,0.8-2.3,1.6-3.5,2.3c-4.8,2.6-10.2,4.2-16.1,4.2
			c-18.3,0-33.2-14.8-33.2-33.2c0-0.3,0-0.6,0-0.9c0-0.3,0-0.6,0-0.9c0-4.1,0.8-8.1,2.1-11.7c-2.1,4.5-3.3,9.5-3.3,14.8
			c0,19,15.4,34.3,34.3,34.3c17.3,0,31.6-12.8,34-29.5l-1.3-0.7C100.9,128,97.4,134.5,92.3,139.4z"/>
		<path class="product1" d="M77.2,83.1c-2.5-0.6-5.1-0.9-7.8-0.9C72.1,82.2,74.7,82.6,77.2,83.1L77.2,83.1z"/>
		<path class="product1" d="M36.3,114.5c0.3-9.4,4.4-17.8,10.9-23.7c5.9-5.3,13.7-8.6,22.2-8.6c-13.7,0-25.5,8-31,19.6
			c-1.4,3.6-2.1,7.6-2.1,11.7C36.2,113.8,36.3,114.1,36.3,114.5z"/>
		<path class="product2" d="M102.1,120.7c0.3-1.7,0.4-3.5,0.4-5.3c0-0.3,0-0.6,0-0.9c-0.1,2.1-0.3,4.1-0.7,6.1L102.1,120.7z"/>
		<path class="product2" d="M94.2,116.2l5.5,3.1l2.1,1.2c0.4-2,0.7-4,0.7-6.1c-0.4-15.2-11.1-27.8-25.3-31.3v23.3L94.2,116.2z"/>
		<path class="product2" d="M83.8,143.4l1.7,1c1.2-0.7,2.4-1.4,3.5-2.3l-1.5-0.8C86.3,142.1,85.1,142.8,83.8,143.4z"/>
		<path class="product2" d="M92.3,137.5v1.9c5.1-4.9,8.7-11.4,9.9-18.7l-0.3-0.2C100.4,127.1,97,133,92.3,137.5z"/>
		<path class="product2" d="M47.2,122.5l31.1,17.7l5.6,3.2c1.3-0.6,2.6-1.3,3.8-2.1l-1.1-0.6v-25.1l5.8,3.4v18.7c4.7-4.5,8.1-10.4,9.5-17
			l-2.1-1.2l-5.5-3.1l-17-9.7V83.2c-2.5-0.6-5.1-0.9-7.8-0.9c-8.5,0-16.3,3.2-22.2,8.6V122.5z M79.4,111.5l2.8,1.6v25.1l-2.8-1.6
			V111.5z M75.7,109.3l1,0.6v25.1l-1-0.6V109.3z M71.5,106.9l3.5,2V134l-3.5-2V106.9z M68.1,105l1.8,1v25.1l-1.8-1V105z M57.7,98.9
			l5.8,3.4v25.1l-5.8-3.4V98.9z M55,97.4v25.1l-3-1.7V95.7L55,97.4z"/>
		<polygon class="product3" points="55,122.5 55,97.4 52,95.7 52,120.8 		"/>
		<polygon class="product3" points="63.5,102.3 57.7,98.9 57.7,124.1 63.5,127.4 		"/>
		<path class="product3" d="M87.5,141.3l1.5,0.8c1.1-0.8,2.2-1.8,3.3-2.7v-1.9C90.8,138.9,89.2,140.2,87.5,141.3z"/>
		<path class="product3" d="M92.3,118.9l-5.8-3.4v25.1l1.1,0.6c1.7-1.1,3.3-2.4,4.7-3.7V118.9z"/>
		<polygon class="product3" points="69.9,106 68.1,105 68.1,130.1 69.9,131.1 		"/>
		<polygon class="product3" points="75,108.9 71.5,106.9 71.5,132 75,134 		"/>
		<polygon class="product3" points="76.7,109.9 75.7,109.3 75.7,134.5 76.7,135.1 		"/>
		<polygon class="product3" points="82.2,113.1 79.4,111.5 79.4,136.6 82.2,138.2 		"/>
	</g>
	<polygon class="product1" points="106.8,133.2 103.9,138.4 105.3,139.2 108.4,134 	"/>
	<path class="product1" d="M151.5,167.2c0.4,0.1,0.8,0.1,1.2,0.1c0.7,0,1.5-0.1,2.2-0.3c1.8-0.6,3.3-1.8,4.1-3.5c0.9-1.7,1-3.6,0.4-5.4
		c-0.6-1.8-1.8-3.3-3.5-4.1l-32.7-16.7c-2.4-1.3-5.4-1-7.5,0.7l-7.3-3.7l-1.1,1.6l7.7,3.9c0,0,3.6-1.8,5.4-1.2
		c1.6,0.6,27.4,14.5,33.9,18c1.4,0.7,2.2,2.2,2.1,3.8C156.3,162.1,155.3,164.6,151.5,167.2z"/>
	<g>
		<g>
			<g>
				<path class="product4" d="M143.9,37.3l-5.5-3.2l-17.1-9.9l-44,25.4l17.1,9.9l5.5,3.2l18.9,10.9l44-25.4l0,0L143.9,37.3z"/>
			</g>
			<g>
				<path class="product5" d="M118.7,73.6l-0.1,56.6l44.1-25.2V48.2L118.7,73.6z"/>
			</g>
		</g>
		<polygon class="product6" points="94,59.3 137.2,33.4 143.1,36.8 99.8,62.7 		"/>
		<path class="product7" d="M134.9,80.7c0.1-0.1,0.2-0.1,0.4-0.1c0.1,0,0.2,0,0.3,0.1l14,8.6L155,79l-5.4-3.3l-4.7,8.8l-1.9-1.2l5.9-11.1
			c0.1-0.2,0.2-0.3,0.3-0.4c0.1-0.1,0.2-0.2,0.4-0.3c0.1-0.1,0.2-0.1,0.4-0.1c0.1,0,0.2,0,0.3,0.1l7.9,4.8c0.2,0.1,0.3,0.3,0.3,0.6
			c0,0.3-0.1,0.7-0.3,1l-7.9,14.8c-0.1,0.2-0.2,0.3-0.3,0.4c-0.1,0.1-0.2,0.2-0.4,0.3c-0.1,0.1-0.2,0.1-0.4,0.1
			c-0.1,0-0.2,0-0.3-0.1l-14-8.6l-5.5,10.2l5.5,3.4l4.7-8.7l1.9,1.2l-5.9,11c-0.1,0.2-0.2,0.3-0.3,0.4c-0.1,0.1-0.2,0.2-0.4,0.3
			c-0.1,0.1-0.2,0.1-0.4,0.1c-0.1,0-0.2,0-0.3-0.1l-7.9-4.9c-0.2-0.1-0.3-0.3-0.3-0.6c0-0.3,0.1-0.7,0.3-1l7.9-14.8
			c0.1-0.2,0.2-0.3,0.3-0.4C134.7,80.9,134.8,80.8,134.9,80.7z"/>
	</g>
	<path class="product8" d="M155.9,159.2c-0.1-0.3-0.2-0.5-0.4-0.8c-0.3-0.5-0.7-0.9-1.3-1.2l-32.7-16.7c-1.1-0.6-2.5-0.5-3.5,0.3
		l-1.2,0.9l-0.1,1.5c-0.1,1.3,0.6,2.5,1.8,3.1l32.7,16.7c0.4,0.2,0.8,0.3,1.2,0.3l0.1,0c0.1,0,0.2,0,0.2,0c0.3,0,0.7-0.1,1-0.2
		c0.1,0,0.2-0.1,0.3-0.1c0.2-0.1,0.4-0.2,0.6-0.3c0.1-0.1,0.2-0.2,0.4-0.3c0.1-0.1,0.2-0.2,0.3-0.3c0.1-0.1,0.1-0.2,0.2-0.3
		c0.1-0.1,0.1-0.2,0.2-0.3c0.3-0.5,0.4-1,0.4-1.6c0-0.1,0-0.2,0-0.3C156,159.6,156,159.4,155.9,159.2z"/>
	<path class="product2" d="M99.8,81.9c9.1,8.3,14.8,20.2,14.8,33.5c0,4-0.5,7.8-1.5,11.6l5.6,3.2l0.1-56.6L94,59.3l5.8,3.4V81.9z"/>
	<path class="product2" d="M94,59.3l-16.7-9.7v21.2c6.1,1.1,11.8,3.4,16.7,6.6V59.3z"/>
	<polygon class="product9" points="94,59.3 94,59.3 94,59.3 	"/>
	<path class="product2" d="M99.8,81.9V62.7L94,59.3l0,0v18.1C96,78.8,98,80.3,99.8,81.9z"/>
	<path class="product9" d="M99.8,81.9V62.7L94,59.3l0,0v18.1C96,78.8,98,80.3,99.8,81.9z"/>
	<polygon class="product10" points="97,79.6 96.7,79.4 96.7,60.9 140.4,35.2 140.6,35.5 97,61.1 	"/>
</g>
<path class="product11" d="M100.4,101.8c-3.8-10.1-12.5-17.9-23.2-20.5v1.8C87.5,85.5,96,92.5,100.4,101.8z"/>
<path class="product11" d="M38.4,101.8c5.5-11.6,17.3-19.6,31-19.6c2.7,0,5.3,0.3,7.8,0.9v-1.8c-2.5-0.6-5.1-0.9-7.8-0.9
	C55.2,80.4,43.1,89.3,38.4,101.8z"/>
</svg>
