<?xml version="1.0" encoding="utf-8"?>
<!-- Generator: Adobe Illustrator 27.2.0, SVG Export Plug-In . SVG Version: 6.00 Build 0)  -->
<!DOCTYPE svg PUBLIC "-//W3C//DTD SVG 1.1//EN" "http://www.w3.org/Graphics/SVG/1.1/DTD/svg11.dtd" [
	<!ENTITY ns_extend "http://ns.adobe.com/Extensibility/1.0/">
	<!ENTITY ns_ai "http://ns.adobe.com/AdobeIllustrator/10.0/">
	<!ENTITY ns_graphs "http://ns.adobe.com/Graphs/1.0/">
	<!ENTITY ns_vars "http://ns.adobe.com/Variables/1.0/">
	<!ENTITY ns_imrep "http://ns.adobe.com/ImageReplacement/1.0/">
	<!ENTITY ns_sfw "http://ns.adobe.com/SaveForWeb/1.0/">
	<!ENTITY ns_custom "http://ns.adobe.com/GenericCustomNamespace/1.0/">
	<!ENTITY ns_adobe_xpath "http://ns.adobe.com/XPath/1.0/">
]>
<svg version="1.1" id="Calque_1" xmlns:x="&ns_extend;" xmlns:i="&ns_ai;" xmlns:graph="&ns_graphs;"
	 xmlns="http://www.w3.org/2000/svg" xmlns:xlink="http://www.w3.org/1999/xlink" x="0px" y="0px" viewBox="0 0 200 200"
	 style="enable-background:new 0 0 200 200;" xml:space="preserve">
<style type="text/css">
	.production0{fill:#F0F2F7;}
	.production1{fill:#A6AAB3;}
	.production2{fill:#4A4E67;}
	.production3{fill:#787C8E;}
	.production4{fill:#232736;}
	.production5{fill:#FAFBFD;}
	.production6{fill:#D7D7E5;}
	.production7{fill:#DBDFE6;}
	.production8{fill:#A9B3C2;}
	.production9{fill:#009EE2;}
	.production10{fill:#8D8A9C;}
</style>
<metadata>
	<sfw  xmlns="&ns_sfw;">
		<slices></slices>
		<sliceSourceBounds  bottomLeftOrigin="true" height="121.3" width="146.5" x="33.1" y="44.6"></sliceSourceBounds>
	</sfw>
</metadata>
<g>
	<path class="production0" d="M38.6,120.4h27.2l12.9-10.7H51.4c-2.1,0-3.9-1.7-3.9-3.9v-1.1V69.1v-0.5v-0.7V67v-0.5v-0.7
		c0-2.1,1.7-3.9,3.9-3.9h48c0.5-1.7,1.1-3.4,1.8-5c0.5-1.1,1-2.2,1.6-3.3h-1.2c-0.3,1.9-2,3.4-4,3.4s-3.7-1.5-4-3.4H44.3
		c-1.7,0-3,1.4-3,3.1v57.7c0,0.2,0,0.4,0,0.5c0,0,0,0,0,0h0c0,0,0,0,0,0c-1.6,0-3-1.4-3-3V54.3c0-1.7,1.4-3.1,3-3.1h52.4
		c0.7-1.3,2.1-2.2,3.7-2.2c1.6,0,3,0.9,3.7,2.2h3c0.6-1,1.2-1.9,1.9-2.8H37.8c-1.9,0-3.4,1.5-3.4,3.4v64.4
		C34.4,118.5,36.3,120.4,38.6,120.4z"/>
	<path class="production0" d="M123.3,112.2c-1.7-0.7-3.4-1.6-5-2.5h-12.8c-0.3,1.2-0.9,2.4-1.7,3.4c-0.3,0.4-0.6,0.7-0.9,1
		c-0.2,0.2-0.3,0.3-0.5,0.5l-7,5.8h60.8c2.3,0,4.2-1.9,4.2-4.2v-6.1C149.5,116.3,135.8,117.5,123.3,112.2z"/>
	<path class="production1" d="M84.2,136.3c0-0.1,0-0.1,0-0.2c0.5,5,0,9.6-1.5,15.2c8.9,0,17.9,0,26.8,0c-1.6-5.7-2.1-10.3-1.5-15.3
		c0,0.1,0,0.1,0,0.2H84.2z"/>
	<path class="production1" d="M59.9,154.6c0,0.5,0.4,0.8,0.8,0.8h70.6c0.5,0,0.8-0.4,0.8-0.8v-2H59.9V154.6z"/>
	<path class="production2" d="M131.1,151.4h-70c-0.6,0-1.2,0.5-1.2,1.2h72.3C132.2,151.9,131.7,151.4,131.1,151.4z"/>
	<path class="production3" d="M83.5,132.1c0.3,1.4,0.6,2.7,0.7,4.1C84,134.8,83.8,133.5,83.5,132.1L83.5,132.1z"/>
	<path class="production3" d="M107.9,136.1c0.2-1.3,0.4-2.7,0.7-4.1h-0.1C108.3,133.5,108.1,134.8,107.9,136.1z"/>
	<path class="production3" d="M83.5,132.1c0.3,1.4,0.5,2.7,0.7,4.1c0,0.1,0,0.1,0,0.2h23.7c0-0.1,0-0.1,0-0.2c0.1-1.3,0.4-2.7,0.7-4.1H83.5z
		"/>
	<path class="production4" d="M60,129.6H37c-2.2,0-3.9-1.8-3.9-3.9v2.4c0,2.2,1.7,3.9,3.9,3.9h23.3c-0.1-0.5-0.2-0.9-0.3-1.4
		C60.1,130.4,60,130,60,129.6z"/>
	<path class="production4" d="M81.4,132.1h2c-0.1-0.5-0.2-1-0.3-1.4L81.4,132.1z"/>
	<path class="production4" d="M157.9,129.6h-48.7c-0.2,0.8-0.4,1.6-0.5,2.4h49.3c2.2,0,3.9-1.8,3.9-3.9v-2.4
		C161.8,127.9,160.1,129.6,157.9,129.6z"/>
	<path class="production4" d="M37,129.6h23c0-0.3,0-0.5,0-0.8c0-0.3,0.1-0.5,0.1-0.7c0.1-0.5,0.2-1,0.4-1.4c0.1-0.2,0.2-0.5,0.3-0.7
		c0-0.1,0.1-0.1,0.1-0.2H37c-2.2,0-3.9-1.8-3.9-3.9v3.9C33.1,127.9,34.9,129.6,37,129.6z"/>
	<path class="production4" d="M37.8,48.4H106c0,0,0.1-0.1,0.1-0.1H37.8c-1.9,0-3.4,1.5-3.4,3.4v0.1C34.4,49.9,35.9,48.4,37.8,48.4z"/>
	<path class="production4" d="M157.9,125.7H89l-3.2,2.7c7.9,0,15.8,0,23.7,0c-0.1,0.4-0.2,0.8-0.3,1.2h48.7c2.2,0,3.9-1.8,3.9-3.9v-3.9
		C161.8,124,160.1,125.7,157.9,125.7z"/>
	<path class="production4" d="M109.2,129.6c-0.2,0.8-0.4,1.6-0.6,2.4h0.1C108.8,131.3,109,130.5,109.2,129.6L109.2,129.6z"/>
	<path class="production4" d="M83.2,130.6L83.2,130.6c0.1,0.5,0.2,1,0.3,1.5h0.1C83.4,131.6,83.3,131.1,83.2,130.6z"/>
	<path class="production4" d="M109.2,129.6c0.1-0.4,0.2-0.8,0.3-1.2C109.4,128.8,109.3,129.3,109.2,129.6L109.2,129.6z"/>
	<path class="production4" d="M83.2,130.6c0.1,0.5,0.2,1,0.3,1.5h25.1c0.2-0.8,0.4-1.6,0.6-2.4H84.3L83.2,130.6z"/>
	<path class="production4" d="M109.2,129.6c0.1-0.4,0.2-0.8,0.3-1.2c-7.9,0-15.8,0-23.7,0l-1.5,1.2H109.2z"/>
	<path class="production2" d="M61.2,125.1c0.1-0.2,0.3-0.4,0.4-0.6c0.5-0.8,1.1-1.5,1.9-2.1l2.4-2H38.6c-2.3,0-4.2-1.9-4.2-4.2v5.3
		c0,2.3,1.9,4.2,4.2,4.2h22.3c0.1-0.1,0.1-0.2,0.2-0.4C61.1,125.3,61.2,125.2,61.2,125.1z"/>
	<path class="production2" d="M37,47.2h69.9c0,0,0.1-0.1,0.1-0.1H37c-2.2,0-3.9,1.8-3.9,3.9v0.1C33.1,49,34.9,47.2,37,47.2z"/>
	<path class="production2" d="M156.3,120.4H95.4l-6.3,5.3h67.1c2.3,0,4.2-1.9,4.2-4.2v-5.3C160.5,118.5,158.6,120.4,156.3,120.4z"/>
	<path class="production2" d="M160.5,116.2v5.3c0,2.3-1.9,4.2-4.2,4.2H89.1l-0.1,0.1h68.9c2.2,0,3.9-1.8,3.9-3.9v-12.5
		c-0.4,0.3-0.9,0.5-1.3,0.8V116.2z"/>
	<path class="production2" d="M37,125.7h23.9c0,0,0,0,0-0.1H38.6c-2.3,0-4.2-1.9-4.2-4.2v-5.3V51.8v-0.1c0-1.9,1.5-3.4,3.4-3.4h68.3
		c0.3-0.4,0.6-0.7,0.9-1.1H37c-2.2,0-3.9,1.8-3.9,3.9v70.7C33.1,124,34.9,125.7,37,125.7z"/>
	<path class="production5" d="M101.1,51.2c0.3,0.6,0.4,1.2,0.4,1.8c0,0.2,0,0.5-0.1,0.7h1.2c0.5-0.9,0.9-1.7,1.4-2.5H101.1z"/>
	<path class="production5" d="M93.8,51.2H41.4c-1.7,0-3,1.4-3,3.1V112c0,1.7,1.3,3,3,3c0-0.2,0-0.4,0-0.5V56.8c0-1.7,1.4-3.1,3-3.1h49.1
		c0-0.2-0.1-0.4-0.1-0.7C93.3,52.4,93.5,51.8,93.8,51.2z"/>
	<path class="production5" d="M41.4,115C41.4,115,41.4,115,41.4,115C41.4,115,41.4,115,41.4,115L41.4,115z"/>
	<path class="production0" d="M97.4,55.6c-1.2,0-2.2-0.8-2.5-1.9h-1.5c0.3,1.9,2,3.4,4,3.4s3.7-1.5,4-3.4h-1.5
		C99.6,54.8,98.6,55.6,97.4,55.6z"/>
	<path class="production0" d="M97.4,50.5c0.7,0,1.4,0.3,1.8,0.7h1.8c-0.7-1.3-2.1-2.2-3.7-2.2c-1.6,0-3,0.9-3.7,2.2h1.8
		C96.1,50.7,96.7,50.5,97.4,50.5z"/>
	<path class="production0" d="M94.8,53c0-0.7,0.3-1.4,0.8-1.8h-1.8c-0.3,0.6-0.4,1.2-0.4,1.8c0,0.2,0,0.5,0.1,0.7h1.5
		C94.9,53.5,94.8,53.3,94.8,53z"/>
	<path class="production0" d="M101.1,51.2h-1.8c0.5,0.5,0.8,1.1,0.8,1.8c0,0.2,0,0.5-0.1,0.7h1.5c0-0.2,0.1-0.4,0.1-0.7
		C101.5,52.4,101.4,51.8,101.1,51.2z"/>
	<path class="production2" d="M95.6,51.2h0.5c0.4-0.3,0.8-0.4,1.3-0.4s0.9,0.2,1.3,0.4h0.5c-0.5-0.5-1.1-0.7-1.8-0.7S96.1,50.7,95.6,51.2z"
		/>
	<path class="production2" d="M97.4,55.3c-1,0-1.8-0.6-2.1-1.5h-0.4c0.3,1.1,1.3,1.9,2.5,1.9s2.2-0.8,2.5-1.9h-0.4
		C99.3,54.6,98.4,55.3,97.4,55.3z"/>
	<path class="production2" d="M95.2,53c0-0.7,0.4-1.4,0.9-1.8h-0.5c-0.5,0.5-0.8,1.1-0.8,1.8c0,0.2,0,0.5,0.1,0.7h0.4
		C95.2,53.5,95.2,53.3,95.2,53z"/>
	<path class="production2" d="M99.7,53c0,0.2,0,0.5-0.1,0.7h0.4c0.1-0.2,0.1-0.4,0.1-0.7c0-0.7-0.3-1.4-0.8-1.8h-0.5
		C99.3,51.6,99.7,52.3,99.7,53z"/>
	<path class="production4" d="M97.4,50.8c-0.5,0-0.9,0.2-1.3,0.4h2.6C98.4,50.9,97.9,50.8,97.4,50.8z"/>
	<path class="production4" d="M97.4,54.8c-0.7,0-1.3-0.4-1.6-1.1h-0.5c0.3,0.9,1.1,1.5,2.1,1.5c1,0,1.8-0.6,2.1-1.5H99
		C98.8,54.4,98.2,54.8,97.4,54.8z"/>
	<path class="production4" d="M95.2,53c0,0.2,0,0.5,0.1,0.7h0.5c-0.1-0.2-0.1-0.4-0.1-0.7c0-1,0.8-1.7,1.7-1.7s1.7,0.8,1.7,1.7
		c0,0.2,0,0.5-0.1,0.7h0.5c0.1-0.2,0.1-0.5,0.1-0.7c0-0.7-0.4-1.4-0.9-1.8h-2.6C95.6,51.6,95.2,52.3,95.2,53z"/>
	<path class="production6" d="M97.4,54.8c0.7,0,1.3-0.4,1.6-1.1h-0.5c-0.2,0.5-0.6,0.8-1.1,0.8c-0.5,0-1-0.3-1.1-0.8h-0.4
		C96.1,54.4,96.7,54.8,97.4,54.8z"/>
	<path class="production6" d="M96.2,53.3c0-0.1,0-0.2,0-0.2c0-0.1,0-0.2,0-0.2c0-0.7,0.6-1.2,1.2-1.2c0.7,0,1.2,0.6,1.2,1.2
		c0,0.1,0,0.2,0,0.2c0,0.1,0,0.2,0,0.2c0,0.2,0,0.3-0.1,0.5H99c0.1-0.2,0.1-0.4,0.1-0.7c0-1-0.8-1.7-1.7-1.7s-1.7,0.8-1.7,1.7
		c0,0.2,0,0.5,0.1,0.7h0.4C96.2,53.6,96.2,53.4,96.2,53.3z"/>
	<path class="production5" d="M97.4,52c0.6,0,1.1,0.4,1.2,1c0-0.1,0-0.2,0-0.2c0-0.7-0.6-1.2-1.2-1.2c-0.7,0-1.2,0.6-1.2,1.2
		c0,0.1,0,0.2,0,0.2C96.3,52.5,96.8,52,97.4,52z"/>
	<path class="production6" d="M97.4,54c-0.3,0-0.6-0.1-0.8-0.3h-0.4c0.2,0.5,0.6,0.8,1.1,0.8c0.5,0,1-0.3,1.1-0.8h-0.4
		C98,53.9,97.7,54,97.4,54z"/>
	<path class="production6" d="M98.6,53c-0.1,0.3-0.2,0.5-0.4,0.7h0.4c0.1-0.1,0.1-0.3,0.1-0.5C98.6,53.2,98.6,53.1,98.6,53z"/>
	<path class="production6" d="M96.2,53c0,0.1,0,0.2,0,0.2c0,0.2,0,0.3,0.1,0.5h0.4C96.4,53.5,96.3,53.3,96.2,53z"/>
	<path class="production6" d="M97.4,54c0.3,0,0.6-0.1,0.8-0.3h-1.6C96.8,53.9,97.1,54,97.4,54z"/>
	<path class="production6" d="M96.6,53.7h1.6c0.2-0.2,0.4-0.4,0.4-0.7c-0.1-0.6-0.6-1-1.2-1c-0.6,0-1.1,0.4-1.2,1
		C96.3,53.3,96.4,53.5,96.6,53.7z"/>
	<path class="production7" d="M51.4,108.5c-2.1,0-3.9-1.7-3.9-3.9v1.1c0,2.1,1.7,3.9,3.9,3.9h27.4l1.4-1.1H51.4z"/>
	<path class="production7" d="M105.7,108.5c-0.1,0.4-0.1,0.8-0.2,1.1h12.8c-0.6-0.4-1.2-0.7-1.8-1.1H105.7z"/>
	<path class="production5" d="M110,103.2l-4.2,3.5c0,0.1,0,0.1,0,0.2c0,0.5,0,1-0.1,1.6h10.8C114.2,107,112,105.2,110,103.2z"/>
	<path class="production7" d="M98,68.6H47.5v0.5H98C98,69,98,68.8,98,68.6z"/>
	<path class="production8" d="M98.1,67.9H47.5v0.7H98C98,68.4,98.1,68.2,98.1,67.9z"/>
	<path class="production7" d="M51.4,62.7h47.8c0.1-0.2,0.1-0.5,0.2-0.7h-48c-2.1,0-3.9,1.7-3.9,3.9v0.7C47.5,64.4,49.2,62.7,51.4,62.7z"/>
	<path class="production7" d="M51.4,63.1H99c0-0.2,0.1-0.3,0.1-0.5H51.4c-2.1,0-3.9,1.7-3.9,3.9V67C47.5,64.9,49.2,63.1,51.4,63.1z"/>
	<path class="production7" d="M99,63.1H51.4c-2.1,0-3.9,1.7-3.9,3.9v0.9h50.6C98.3,66.3,98.6,64.7,99,63.1z"/>
	<path class="production5" d="M100.2,87.9c-0.1-0.2-0.1-0.4-0.2-0.6C98,81.4,97.3,75.2,98,69.1H47.5v35.5c0,2.1,1.7,3.9,3.9,3.9h28.7
		l6.9-5.8l1.5-1.2l0.8-0.7l-0.1-0.4L88.9,99l-3.2-14.2l-0.6-2.4l-2.4,0.7l-12,3.6l-1.5,0.5L66.7,88l-1.9-2.1l-1-1.2l-2.9-3.3l-1-1.2
		L58.8,79l-1.6-0.1l-1.5-0.1l-5-0.3l0.1-2l5.1,0.3l1.5,0.1l2.4,0.1l1.6,1.8l1,1.1l2.9,3.2l0.9,1l1.2,1.4l1.6-0.5l1.3-0.4l11.9-3.6
		l4.4-1.3l1,4.5l3.3,14.2l0.2,0.9c0.3-0.2,0.6-0.4,1-0.6c0.4-0.2,0.8-0.4,1.2-0.5c1.8-0.6,3.8-0.7,5.6-0.2l4.4-3.7
		C102,92.4,101,90.2,100.2,87.9z"/>
	<path class="production9" d="M90.8,98.6l-3.3-14.2l-1-4.5l-4.4,1.3l-11.9,3.6L69,85.2l-1.6,0.5l-1.2-1.4l-0.9-1L62.4,80l-1-1.1l-1.6-1.8
		l-2.4-0.1l-1.5-0.1l-5.1-0.3l-0.1,2l5,0.3l1.5,0.1l1.6,0.1l1.1,1.2l1,1.2l2.9,3.3l1,1.2l1.9,2.1l2.5-0.7l1.5-0.5l12-3.6l2.4-0.7
		l0.6,2.4L88.9,99l0.3,1.4l0.1,0.4l1-0.8c0,0,0.1,0,0.1-0.1c0.2-0.2,0.4-0.3,0.7-0.5L90.8,98.6z"/>
</g>
<path class="production2" d="M69.3,136.4c1.8,0.2,3.6-0.4,4.9-1.5l26.8-22.4c2-1.7,2.8-4.3,2.2-6.8l7.4-6.1c3.8,4.3,8.5,7.8,14.1,10.2
	c20,8.5,43.1-0.8,51.7-20.8s-0.8-43.1-20.8-51.7S112.5,38,104,58c-4,9.4-4.1,19.5-0.9,28.4c0.9,3,2.3,5.9,4.2,8.6l-7.4,6.2
	c-2.4-1.2-5.2-0.9-7.3,0.9l-26.8,22.4c-0.8,0.7-1.5,1.6-1.9,2.5c-0.3,0.6-0.4,1.3-0.5,2.1c-0.2,1.8,0.4,3.6,1.5,4.9
	C65.9,135.4,67.5,136.3,69.3,136.4z"/>
<ellipse transform="matrix(2.494998e-02 -0.9997 0.9997 2.494998e-02 64.1567 214.1193)" class="production10" cx="141.8" cy="74.2" rx="31.5" ry="31.5"/>
<ellipse transform="matrix(2.494996e-02 -0.9997 0.9997 2.494996e-02 62.694 210.35)" class="production4" cx="139.2" cy="73" rx="32.7" ry="32.7"/>
<ellipse transform="matrix(2.494997e-02 -0.9997 0.9997 2.494997e-02 63.2675 211.8279)" class="production5" cx="140.2" cy="73.5" rx="31.5" ry="31.5"/>
<polygon class="production4" points="110.7,99.5 107.2,95 106,96 109.4,100.6 "/>
<path class="production4" d="M64.3,126c-0.2,0.3-0.4,0.7-0.6,1c-0.3,0.6-0.4,1.3-0.5,2.1c-0.2,1.8,0.4,3.6,1.5,4.9c1.2,1.4,2.8,2.2,4.6,2.4
	c1.8,0.2,3.6-0.4,4.9-1.5l26.8-22.4c2-1.7,2.8-4.3,2.2-6.8l6-5l-1-1.5l-6.3,5.3c0,0,0.2,3.8-1,5.1c-1.1,1.2-22.9,18.6-28.4,22.9
	c-1.2,0.9-2.8,1.1-4.1,0.4C66.9,132.1,65.1,130.3,64.3,126z"/>
<path class="production9" d="M145.6,61.8l19.2-1.3c-0.6-1.1-1.2-2.1-1.9-3.1l-19.3,1.3l-14.1,26.2l-15.9-3.4c0.4,1.2,0.8,2.4,1.3,3.6
	l16.3,3.4L145.6,61.8z"/>
</svg>
