<?xml version="1.0" encoding="utf-8"?>
<!-- Generator: Adobe Illustrator 25.1.0, SVG Export Plug-In . SVG Version: 6.00 Build 0)  -->
<!DOCTYPE svg PUBLIC "-//W3C//DTD SVG 1.1//EN" "http://www.w3.org/Graphics/SVG/1.1/DTD/svg11.dtd" [
	<!ENTITY ns_extend "http://ns.adobe.com/Extensibility/1.0/">
	<!ENTITY ns_ai "http://ns.adobe.com/AdobeIllustrator/10.0/">
	<!ENTITY ns_graphs "http://ns.adobe.com/Graphs/1.0/">
	<!ENTITY ns_vars "http://ns.adobe.com/Variables/1.0/">
	<!ENTITY ns_imrep "http://ns.adobe.com/ImageReplacement/1.0/">
	<!ENTITY ns_sfw "http://ns.adobe.com/SaveForWeb/1.0/">
	<!ENTITY ns_custom "http://ns.adobe.com/GenericCustomNamespace/1.0/">
	<!ENTITY ns_adobe_xpath "http://ns.adobe.com/XPath/1.0/">
]>
<svg version="1.1" id="Calque_1" xmlns:x="&ns_extend;" xmlns:i="&ns_ai;" xmlns:graph="&ns_graphs;"
	 xmlns="http://www.w3.org/2000/svg" xmlns:xlink="http://www.w3.org/1999/xlink" x="0px" y="0px" viewBox="0 0 200 200"
	 style="enable-background:new 0 0 200 200;" xml:space="preserve">
<style type="text/css">
	.prfl0{fill-rule:evenodd;clip-rule:evenodd;}
	.prfl1{fill-rule:evenodd;clip-rule:evenodd;fill:#BCB9BA;}
	.prfl2{fill-rule:evenodd;clip-rule:evenodd;fill:#F5F5F5;}
	.prfl3{fill-rule:evenodd;clip-rule:evenodd;fill:#E5E4E4;}
	.prfl4{fill:#BCB9BA;}
	.prfl5{fill:#BBB9BA;}
	.prfl6{fill:#BBB8B9;}
	.prfl7{fill:#BAB8B9;}
	.prfl8{fill:#B9B7B8;}
	.prfl9{fill:#B9B7B7;}
	.prfl10{fill:#B8B6B7;}
	.prfl11{fill:#B8B5B6;}
	.prfl12{fill:#B7B5B6;}
	.prfl13{fill:#B7B4B5;}
	.prfl14{fill:#B6B4B5;}
	.prfl15{fill:#B6B3B4;}
	.prfl16{fill:#B5B3B4;}
	.prfl17{fill:#B4B2B3;}
	.prfl18{fill:#B3B1B2;}
	.prfl19{fill:#B3B1B1;}
	.prfl20{fill:#B2B0B1;}
	.prfl21{fill:#B2AFB0;}
	.prfl22{fill:#B1AFB0;}
	.prfl23{fill:#B1AEAF;}
	.prfl24{fill:#B0AEAF;}
	.prfl25{fill:#AFADAE;}
	.prfl26{fill:#AEACAD;}
	.prfl27{fill:#ADABAC;}
	.prfl28{fill:#ADABAB;}
	.prfl29{fill:#ACAAAB;}
	.prfl30{fill:#ACAAAA;}
	.prfl31{fill:#ABA9AA;}
	.prfl32{fill:#AAA8A9;}
	.prfl33{fill:#A9A7A8;}
	.prfl34{fill:#A8A6A7;}
	.prfl35{fill:#A7A5A6;}
	.prfl36{fill:#A7A5A5;}
	.prfl37{fill:#A6A4A5;}
	.prfl38{fill:#A5A4A4;}
	.prfl39{fill:#A5A3A4;}
	.prfl40{fill:#A4A2A3;}
	.prfl41{fill:#A3A1A2;}
	.prfl42{fill:#A2A0A1;}
	.prfl43{fill:#A19FA0;}
	.prfl44{fill:#A09F9F;}
	.prfl45{fill:#A09E9F;}
	.prfl46{fill:#9F9E9E;}
	.prfl47{fill:#9F9D9E;}
	.prfl48{fill:#9E9D9D;}
	.prfl49{fill:#9E9C9D;}
	.prfl50{fill:#9D9B9C;}
	.prfl51{fill:#9C9A9B;}
	.prfl52{fill:#9B9A9B;}
	.prfl53{fill:#9B999A;}
	.prfl54{fill:#9A9999;}
	.prfl55{fill:#9A9899;}
	.prfl56{fill:#999898;}
	.prfl57{fill:#999798;}
	.prfl58{fill:#989797;}
	.prfl59{fill:#989697;}
	.prfl60{fill:#979596;}
	.prfl61{fill:#969596;}
	.prfl62{fill:#969495;}
	.prfl63{fill:#959495;}
	.prfl64{fill:#959394;}
	.prfl65{fill:#949393;}
	.prfl66{fill:#949293;}
	.prfl67{fill:#939292;}
	.prfl68{fill:#939192;}
	.prfl69{fill:#929191;}
	.prfl70{fill:#919091;}
	.prfl71{fill:#919090;}
	.prfl72{fill:#908F90;}
	.prfl73{fill:#908E8F;}
	.prfl74{fill:#8F8E8F;}
	.prfl75{fill:#8F8D8E;}
	.prfl76{fill:#8E8D8D;}
	.prfl77{fill:#8E8C8D;}
	.prfl78{fill:#8D8C8C;}
	.prfl79{fill:#8C8B8C;}
	.prfl80{fill:#8C8B8B;}
	.prfl81{fill:#8B8A8B;}
	.prfl82{fill:#8B8A8A;}
	.prfl83{fill:#8A898A;}
	.prfl84{fill:#8A8889;}
	.prfl85{fill:#898888;}
	.prfl86{fill:#898788;}
	.prfl87{fill:#888787;}
	.prfl88{fill:#878687;}
	.prfl89{fill:#878686;}
	.prfl90{fill:#868586;}
	.prfl91{fill:#868585;}
	.prfl92{fill:#858485;}
	.prfl93{fill:#858484;}
	.prfl94{fill:#848384;}
	.prfl95{fill:#848383;}
	.prfl96{fill:#838282;}
	.prfl97{fill:#828182;}
	.prfl98{fill:#828181;}
	.prfl99{fill:#818081;}
	.prfl100{fill:#818080;}
	.prfl101{fill:#807F80;}
	.prfl102{fill:#807F7F;}
	.prfl103{fill:#7F7E7F;}
	.prfl104{fill:#7F7E7E;}
	.prfl105{fill:#7E7D7E;}
	.prfl106{fill:#7D7D7D;}
	.prfl107{fill:#7D7C7C;}
	.prfl108{fill:#7C7B7C;}
	.prfl109{fill:#7C7B7B;}
	.prfl110{fill:#7B7A7B;}
	.prfl111{fill:#7B7A7A;}
	.prfl112{fill:#7A797A;}
	.prfl113{fill:#7A7979;}
	.prfl114{fill:#797879;}
	.prfl115{fill:#787878;}
	.prfl116{fill:#787778;}
	.prfl117{fill:#777777;}
	.prfl118{fill:#777676;}
	.prfl119{fill:#767676;}
	.prfl120{fill:#767575;}
	.prfl121{fill:#757475;}
	.prfl122{fill:#757474;}
	.prfl123{fill:#747374;}
	.prfl124{fill:#737373;}
	.prfl125{fill:#737273;}
	.prfl126{fill:#727272;}
	.prfl127{fill:#727172;}
	.prfl128{fill:#717171;}
	.prfl129{fill:#717070;}
	.prfl130{fill:#707070;}
	.prfl131{fill:#706F6F;}
	.prfl132{fill:#6F6E6F;}
	.prfl133{fill:#6E6E6E;}
	.prfl134{fill:#6E6D6E;}
	.prfl135{fill:#6D6D6D;}
	.prfl136{fill:#6D6C6D;}
	.prfl137{fill:#6C6C6C;}
	.prfl138{fill:#6C6B6C;}
	.prfl139{fill:#6B6B6B;}
	.prfl140{fill:#6B6A6A;}
	.prfl141{fill:#6A6A6A;}
	.prfl142{fill:#696969;}
	.prfl143{fill:#686868;}
	.prfl144{fill:#686768;}
	.prfl145{fill:#676767;}
	.prfl146{fill:#676667;}
	.prfl147{fill:#666666;}
	.prfl148{fill:#666566;}
	.prfl149{fill:#656565;}
	.prfl150{fill:#646464;}
	.prfl151{fill:#636363;}
	.prfl152{fill:#626262;}
	.prfl153{fill:#626162;}
	.prfl154{fill:#616161;}
	.prfl155{fill:#616061;}
	.prfl156{fill:#606060;}
	.prfl157{fill:#5F5F60;}
	.prfl158{fill:#5F5F5F;}
	.prfl159{fill:#5E5E5E;}
	.prfl160{fill:#5D5D5D;}
	.prfl161{fill:#5C5C5C;}
	.prfl162{fill:#5B5B5B;}
	.prfl163{fill:#5A5A5B;}
	.prfl164{fill:#5A5A5A;}
	.prfl165{fill:#59595A;}
	.prfl166{fill:#595959;}
	.prfl167{fill:#585858;}
	.prfl168{fill:#575757;}
	.prfl169{fill:#565656;}
	.prfl170{fill:#555656;}
	.prfl171{fill:#555555;}
	.prfl172{fill:#545455;}
	.prfl173{fill:#545454;}
	.prfl174{fill:#535353;}
	.prfl175{fill:#525252;}
	.prfl176{fill:#515151;}
	.prfl177{fill:#505151;}
	.prfl178{fill:#505050;}
	.prfl179{fill:#4F5050;}
	.prfl180{fill:#4F4F4F;}
	.prfl181{fill:#4E4F4F;}
	.prfl182{fill:#4E4E4E;}
	.prfl183{fill:#4D4D4D;}
	.prfl184{fill:#4C4C4C;}
	.prfl185{fill-rule:evenodd;clip-rule:evenodd;fill:url(#PRFL_ID_1_);}
	.prfl186{fill-rule:evenodd;clip-rule:evenodd;fill:url(#PRFL_ID_2_);}
	.prfl187{fill-rule:evenodd;clip-rule:evenodd;fill:url(#PRFL_ID_3_);}
	.prfl188{fill-rule:evenodd;clip-rule:evenodd;fill:url(#PRFL_ID_4_);}
	.prfl189{fill-rule:evenodd;clip-rule:evenodd;fill:var(--vitamui-primary-800);}
	.prfl190{fill-rule:evenodd;clip-rule:evenodd;fill:var(--vitamui-primary-700);}
	.prfl191{fill-rule:evenodd;clip-rule:evenodd;fill:var(--vitamui-primary);}
	.prfl192{fill-rule:evenodd;clip-rule:evenodd;fill:var(--vitamui-primary-400);}
	.prfl193{fill:url(#PRFL_ID_5_);}
	.prfl194{fill:url(#PRFL_ID_6_);}
	.prfl195{fill:url(#PRFL_ID_7_);}
	.prfl196{fill:url(#PRFL_ID_8_);}
	.prfl197{fill-rule:evenodd;clip-rule:evenodd;fill:url(#PRFL_ID_9_);}
	.prfl198{fill-rule:evenodd;clip-rule:evenodd;fill:url(#PRFL_ID_10_);}
	.prfl199{fill-rule:evenodd;clip-rule:evenodd;fill:url(#PRFL_ID_11_);}
	.prfl200{opacity:0.75;fill:url(#PRFL_ID_12_);enable-background:new    ;}
	.prfl201{fill-rule:evenodd;clip-rule:evenodd;fill:url(#PRFL_ID_13_);}
	.prfl202{fill-rule:evenodd;clip-rule:evenodd;fill:#FFFFFF;}
	.prfl203{fill-rule:evenodd;clip-rule:evenodd;fill:url(#PRFL_ID_14_);}
	.prfl204{fill-rule:evenodd;clip-rule:evenodd;fill:url(#PRFL_ID_15_);}
	.prfl205{fill-rule:evenodd;clip-rule:evenodd;fill:url(#PRFL_ID_16_);}
	.prfl206{fill-rule:evenodd;clip-rule:evenodd;fill:url(#PRFL_ID_17_);}
	.prfl207{fill-rule:evenodd;clip-rule:evenodd;fill:url(#PRFL_ID_18_);}
	.prfl208{fill-rule:evenodd;clip-rule:evenodd;fill:url(#PRFL_ID_19_);}
	.prfl209{fill-rule:evenodd;clip-rule:evenodd;fill:url(#PRFL_ID_20_);}
	.prfl210{fill-rule:evenodd;clip-rule:evenodd;fill:url(#PRFL_ID_21_);}
	.prfl211{fill-rule:evenodd;clip-rule:evenodd;fill:url(#PRFL_ID_22_);}
	.prfl212{fill-rule:evenodd;clip-rule:evenodd;fill:url(#PRFL_ID_23_);}
	.prfl213{fill-rule:evenodd;clip-rule:evenodd;fill:#9B9A9B;}
	.prfl214{fill-rule:evenodd;clip-rule:evenodd;fill:url(#PRFL_ID_24_);}
	.prfl215{fill-rule:evenodd;clip-rule:evenodd;fill:url(#PRFL_ID_25_);}
	.prfl216{fill-rule:evenodd;clip-rule:evenodd;fill:url(#PRFL_ID_26_);}
</style>
<metadata>
	<sfw  xmlns="&ns_sfw;">
		<slices></slices>
		<sliceSourceBounds  bottomLeftOrigin="true" height="162.1" width="165.1" x="17.6" y="19.5"></sliceSourceBounds>
	</sfw>
</metadata>
<g>
	<g>
		<g>
			<path class="prfl0" d="M100.2,141.3c45.6,0,82.6,8.5,82.6,19c0,10.5-37,20.2-82.6,20.2s-82.6-9.7-82.6-20.2
				C17.5,149.9,54.5,141.3,100.2,141.3z"/>
			<path class="prfl1" d="M100.2,141.7c43.6,0,78.9,8.4,78.9,18.8c0,10.4-35.3,18.8-78.9,18.8s-78.9-8.4-78.9-18.8
				C21.2,150,56.6,141.7,100.2,141.7z"/>
			<path class="prfl2" d="M100.2,139.5c43.6,0,78.9,8.4,78.9,18.8S143.8,177,100.2,177s-78.9-8.4-78.9-18.8
				C21.2,147.8,56.6,139.5,100.2,139.5z"/>
			<path class="prfl1" d="M100.2,138.4c43.6,0,78.9,8.4,78.9,18.8s-35.3,18.8-78.9,18.8s-78.9-8.4-78.9-18.8
				C21.2,146.6,56.6,138.4,100.2,138.4z"/>
			<path class="prfl3" d="M100,138.4c22.9,0,43.4,2.3,57.8,6c-30.2-1.8-112.6,2.6-132.9,18.5c-2.5-1.8-3.8-3.8-3.8-5.7
				C21.1,146.6,56.6,138.4,100,138.4z"/>
			<path class="prfl2" d="M21.2,157c0-10.4,35.3-18.8,78.9-18.8s78.9,8.4,78.9,18.8c0,0.4,0,0.6-0.1,1c-2.2-9.8-36.6-17.7-78.8-17.7
				s-76.6,7.9-78.8,17.7C21.2,157.6,21.2,157.4,21.2,157z"/>
		</g>
		<g>
			<ellipse class="prfl4" cx="100.2" cy="157.6" rx="50.7" ry="9.4"/>
			<ellipse class="prfl5" cx="100.2" cy="157.6" rx="50.5" ry="9.4"/>
			<ellipse class="prfl6" cx="100.2" cy="157.6" rx="50.3" ry="9.4"/>
			<ellipse class="prfl7" cx="100.2" cy="157.6" rx="50.2" ry="9.3"/>
			<ellipse class="prfl8" cx="100.2" cy="157.6" rx="50" ry="9.3"/>
			<ellipse class="prfl9" cx="100.2" cy="157.6" rx="49.8" ry="9.3"/>
			<ellipse class="prfl10" cx="100.2" cy="157.6" rx="49.6" ry="9.2"/>
			<ellipse class="prfl11" cx="100.2" cy="157.6" rx="49.4" ry="9.2"/>
			<ellipse class="prfl12" cx="100.2" cy="157.6" rx="49.3" ry="9.2"/>
			<ellipse class="prfl13" cx="100.2" cy="157.6" rx="49.1" ry="9.1"/>
			<ellipse class="prfl14" cx="100.2" cy="157.6" rx="48.9" ry="9.1"/>
			<ellipse class="prfl15" cx="100.2" cy="157.6" rx="48.7" ry="9.1"/>
			<ellipse class="prfl16" cx="100.2" cy="157.6" rx="48.6" ry="9"/>
			<ellipse class="prfl17" cx="100.2" cy="157.6" rx="48.4" ry="9"/>
			<ellipse class="prfl17" cx="100.2" cy="157.6" rx="48.2" ry="9"/>
			<ellipse class="prfl18" cx="100.2" cy="157.6" rx="48" ry="8.9"/>
			<ellipse class="prfl19" cx="100.2" cy="157.6" rx="47.8" ry="8.9"/>
			<ellipse class="prfl20" cx="100.2" cy="157.6" rx="47.7" ry="8.9"/>
			<ellipse class="prfl21" cx="100.2" cy="157.6" rx="47.5" ry="8.8"/>
			<ellipse class="prfl22" cx="100.2" cy="157.6" rx="47.3" ry="8.8"/>
			<ellipse class="prfl23" cx="100.2" cy="157.6" rx="47.1" ry="8.8"/>
			<ellipse class="prfl24" cx="100.2" cy="157.6" rx="47" ry="8.7"/>
			<ellipse class="prfl25" cx="100.2" cy="157.6" rx="46.8" ry="8.7"/>
			<ellipse class="prfl25" cx="100.2" cy="157.6" rx="46.6" ry="8.7"/>
			<ellipse class="prfl26" cx="100.2" cy="157.6" rx="46.4" ry="8.6"/>
			<ellipse class="prfl26" cx="100.2" cy="157.6" rx="46.2" ry="8.6"/>
			<ellipse class="prfl27" cx="100.2" cy="157.6" rx="46.1" ry="8.6"/>
			<ellipse class="prfl28" cx="100.2" cy="157.6" rx="45.9" ry="8.5"/>
			<ellipse class="prfl29" cx="100.2" cy="157.6" rx="45.7" ry="8.5"/>
			<ellipse class="prfl30" cx="100.2" cy="157.6" rx="45.5" ry="8.5"/>
			<ellipse class="prfl31" cx="100.2" cy="157.6" rx="45.4" ry="8.5"/>
			<ellipse class="prfl32" cx="100.2" cy="157.6" rx="45.2" ry="8.4"/>
			<ellipse class="prfl32" cx="100.2" cy="157.6" rx="45" ry="8.4"/>
			<ellipse class="prfl33" cx="100.2" cy="157.6" rx="44.8" ry="8.4"/>
			<ellipse class="prfl33" cx="100.2" cy="157.6" rx="44.6" ry="8.3"/>
			<ellipse class="prfl34" cx="100.2" cy="157.6" rx="44.5" ry="8.3"/>
			<ellipse class="prfl34" cx="100.2" cy="157.6" rx="44.3" ry="8.3"/>
			<ellipse class="prfl35" cx="100.2" cy="157.6" rx="44.1" ry="8.2"/>
			<ellipse class="prfl36" cx="100.2" cy="157.6" rx="43.9" ry="8.2"/>
			<ellipse class="prfl37" cx="100.2" cy="157.6" rx="43.8" ry="8.2"/>
			<ellipse class="prfl38" cx="100.2" cy="157.6" rx="43.6" ry="8.1"/>
			<ellipse class="prfl39" cx="100.2" cy="157.6" rx="43.4" ry="8.1"/>
			<ellipse class="prfl40" cx="100.2" cy="157.6" rx="43.2" ry="8.1"/>
			<ellipse class="prfl40" cx="100.2" cy="157.6" rx="43" ry="8"/>
			<ellipse class="prfl41" cx="100.2" cy="157.6" rx="42.9" ry="8"/>
			<ellipse class="prfl41" cx="100.2" cy="157.6" rx="42.7" ry="8"/>
			<ellipse class="prfl42" cx="100.2" cy="157.6" rx="42.5" ry="7.9"/>
			<ellipse class="prfl42" cx="100.2" cy="157.6" rx="42.3" ry="7.9"/>
			<ellipse class="prfl43" cx="100.2" cy="157.6" rx="42.2" ry="7.9"/>
			<ellipse class="prfl44" cx="100.2" cy="157.6" rx="42" ry="7.8"/>
			<ellipse class="prfl45" cx="100.2" cy="157.6" rx="41.8" ry="7.8"/>
			<ellipse class="prfl46" cx="100.2" cy="157.6" rx="41.6" ry="7.8"/>
			<ellipse class="prfl47" cx="100.2" cy="157.6" rx="41.4" ry="7.7"/>
			<ellipse class="prfl48" cx="100.2" cy="157.6" rx="41.3" ry="7.7"/>
			<ellipse class="prfl49" cx="100.2" cy="157.6" rx="41.1" ry="7.7"/>
			<ellipse class="prfl50" cx="100.2" cy="157.6" rx="40.9" ry="7.6"/>
			<ellipse class="prfl50" cx="100.2" cy="157.6" rx="40.7" ry="7.6"/>
			<ellipse class="prfl51" cx="100.2" cy="157.6" rx="40.6" ry="7.6"/>
			<ellipse class="prfl52" cx="100.2" cy="157.6" rx="40.4" ry="7.5"/>
			<ellipse class="prfl53" cx="100.2" cy="157.6" rx="40.2" ry="7.5"/>
			<ellipse class="prfl54" cx="100.2" cy="157.6" rx="40" ry="7.5"/>
			<ellipse class="prfl55" cx="100.2" cy="157.6" rx="39.8" ry="7.4"/>
			<ellipse class="prfl56" cx="100.2" cy="157.6" rx="39.7" ry="7.4"/>
			<ellipse class="prfl57" cx="100.2" cy="157.6" rx="39.5" ry="7.4"/>
			<ellipse class="prfl58" cx="100.2" cy="157.6" rx="39.3" ry="7.3"/>
			<ellipse class="prfl59" cx="100.2" cy="157.6" rx="39.1" ry="7.3"/>
			<ellipse class="prfl60" cx="100.2" cy="157.6" rx="38.9" ry="7.3"/>
			<ellipse class="prfl61" cx="100.2" cy="157.6" rx="38.8" ry="7.2"/>
			<ellipse class="prfl62" cx="100.2" cy="157.6" rx="38.6" ry="7.2"/>
			<ellipse class="prfl63" cx="100.2" cy="157.6" rx="38.4" ry="7.2"/>
			<ellipse class="prfl64" cx="100.2" cy="157.6" rx="38.2" ry="7.1"/>
			<ellipse class="prfl65" cx="100.2" cy="157.6" rx="38.1" ry="7.1"/>
			<ellipse class="prfl66" cx="100.2" cy="157.6" rx="37.9" ry="7.1"/>
			<ellipse class="prfl67" cx="100.2" cy="157.6" rx="37.7" ry="7"/>
			<ellipse class="prfl68" cx="100.2" cy="157.6" rx="37.5" ry="7"/>
			<ellipse class="prfl69" cx="100.2" cy="157.6" rx="37.3" ry="7"/>
			<ellipse class="prfl70" cx="100.2" cy="157.6" rx="37.2" ry="6.9"/>
			<ellipse class="prfl71" cx="100.2" cy="157.6" rx="37" ry="6.9"/>
			<ellipse class="prfl72" cx="100.2" cy="157.6" rx="36.8" ry="6.9"/>
			<ellipse class="prfl73" cx="100.2" cy="157.6" rx="36.6" ry="6.8"/>
			<ellipse class="prfl74" cx="100.2" cy="157.6" rx="36.5" ry="6.8"/>
			<ellipse class="prfl75" cx="100.2" cy="157.6" rx="36.3" ry="6.8"/>
			<ellipse class="prfl76" cx="100.2" cy="157.6" rx="36.1" ry="6.7"/>
			<ellipse class="prfl77" cx="100.2" cy="157.6" rx="35.9" ry="6.7"/>
			<ellipse class="prfl78" cx="100.2" cy="157.6" rx="35.7" ry="6.7"/>
			<ellipse class="prfl79" cx="100.2" cy="157.6" rx="35.6" ry="6.6"/>
			<ellipse class="prfl80" cx="100.2" cy="157.6" rx="35.4" ry="6.6"/>
			<ellipse class="prfl81" cx="100.2" cy="157.6" rx="35.2" ry="6.6"/>
			<ellipse class="prfl82" cx="100.2" cy="157.6" rx="35" ry="6.5"/>
			<ellipse class="prfl83" cx="100.2" cy="157.6" rx="34.9" ry="6.5"/>
			<ellipse class="prfl84" cx="100.2" cy="157.6" rx="34.7" ry="6.5"/>
			<ellipse class="prfl85" cx="100.2" cy="157.6" rx="34.5" ry="6.4"/>
			<ellipse class="prfl86" cx="100.2" cy="157.6" rx="34.3" ry="6.4"/>
			<ellipse class="prfl87" cx="100.2" cy="157.6" rx="34.1" ry="6.4"/>
			<ellipse class="prfl88" cx="100.2" cy="157.6" rx="34" ry="6.3"/>
			<ellipse class="prfl89" cx="100.2" cy="157.6" rx="33.8" ry="6.3"/>
			<ellipse class="prfl90" cx="100.2" cy="157.6" rx="33.6" ry="6.3"/>
			<ellipse class="prfl91" cx="100.2" cy="157.6" rx="33.4" ry="6.2"/>
			<ellipse class="prfl92" cx="100.2" cy="157.6" rx="33.3" ry="6.2"/>
			<ellipse class="prfl93" cx="100.2" cy="157.6" rx="33.1" ry="6.2"/>
			<ellipse class="prfl94" cx="100.2" cy="157.6" rx="32.9" ry="6.1"/>
			<ellipse class="prfl95" cx="100.2" cy="157.6" rx="32.7" ry="6.1"/>
			<ellipse class="prfl96" cx="100.2" cy="157.6" rx="32.5" ry="6.1"/>
			<ellipse class="prfl97" cx="100.2" cy="157.6" rx="32.4" ry="6"/>
			<ellipse class="prfl98" cx="100.2" cy="157.6" rx="32.2" ry="6"/>
			<ellipse class="prfl99" cx="100.2" cy="157.6" rx="32" ry="6"/>
			<ellipse class="prfl100" cx="100.2" cy="157.6" rx="31.8" ry="5.9"/>
			<ellipse class="prfl101" cx="100.2" cy="157.6" rx="31.7" ry="5.9"/>
			<ellipse class="prfl102" cx="100.2" cy="157.6" rx="31.5" ry="5.9"/>
			<ellipse class="prfl103" cx="100.2" cy="157.6" rx="31.3" ry="5.8"/>
			<ellipse class="prfl104" cx="100.2" cy="157.6" rx="31.1" ry="5.8"/>
			<ellipse class="prfl105" cx="100.2" cy="157.6" rx="30.9" ry="5.8"/>
			<ellipse class="prfl106" cx="100.2" cy="157.6" rx="30.8" ry="5.7"/>
			<ellipse class="prfl107" cx="100.2" cy="157.6" rx="30.6" ry="5.7"/>
			<ellipse class="prfl108" cx="100.2" cy="157.6" rx="30.4" ry="5.7"/>
			<ellipse class="prfl109" cx="100.2" cy="157.6" rx="30.2" ry="5.6"/>
			<ellipse class="prfl110" cx="100.2" cy="157.6" rx="30.1" ry="5.6"/>
			<ellipse class="prfl111" cx="100.2" cy="157.6" rx="29.9" ry="5.6"/>
			<ellipse class="prfl112" cx="100.2" cy="157.6" rx="29.7" ry="5.5"/>
			<ellipse class="prfl113" cx="100.2" cy="157.6" rx="29.5" ry="5.5"/>
			<ellipse class="prfl114" cx="100.2" cy="157.6" rx="29.3" ry="5.5"/>
			<ellipse class="prfl115" cx="100.2" cy="157.6" rx="29.2" ry="5.4"/>
			<ellipse class="prfl116" cx="100.2" cy="157.6" rx="29" ry="5.4"/>
			<ellipse class="prfl117" cx="100.2" cy="157.6" rx="28.8" ry="5.4"/>
			<ellipse class="prfl118" cx="100.2" cy="157.6" rx="28.6" ry="5.3"/>
			<ellipse class="prfl119" cx="100.2" cy="157.6" rx="28.4" ry="5.3"/>
			<ellipse class="prfl120" cx="100.2" cy="157.6" rx="28.3" ry="5.3"/>
			<ellipse class="prfl121" cx="100.2" cy="157.6" rx="28.1" ry="5.2"/>
			<ellipse class="prfl122" cx="100.2" cy="157.6" rx="27.9" ry="5.2"/>
			<ellipse class="prfl123" cx="100.2" cy="157.6" rx="27.7" ry="5.2"/>
			<ellipse class="prfl124" cx="100.2" cy="157.6" rx="27.6" ry="5.1"/>
			<ellipse class="prfl125" cx="100.2" cy="157.6" rx="27.4" ry="5.1"/>
			<ellipse class="prfl126" cx="100.2" cy="157.6" rx="27.2" ry="5.1"/>
			<ellipse class="prfl127" cx="100.2" cy="157.6" rx="27" ry="5"/>
			<ellipse class="prfl128" cx="100.2" cy="157.6" rx="26.8" ry="5"/>
			<ellipse class="prfl129" cx="100.2" cy="157.6" rx="26.7" ry="5"/>
			<ellipse class="prfl130" cx="100.2" cy="157.6" rx="26.5" ry="4.9"/>
			<ellipse class="prfl131" cx="100.2" cy="157.6" rx="26.3" ry="4.9"/>
			<ellipse class="prfl132" cx="100.2" cy="157.6" rx="26.1" ry="4.9"/>
			<ellipse class="prfl133" cx="100.2" cy="157.6" rx="26" ry="4.8"/>
			<ellipse class="prfl134" cx="100.2" cy="157.6" rx="25.8" ry="4.8"/>
			<ellipse class="prfl135" cx="100.2" cy="157.6" rx="25.6" ry="4.8"/>
			<ellipse class="prfl136" cx="100.2" cy="157.6" rx="25.4" ry="4.7"/>
			<ellipse class="prfl137" cx="100.2" cy="157.6" rx="25.2" ry="4.7"/>
			<ellipse class="prfl138" cx="100.2" cy="157.6" rx="25.1" ry="4.7"/>
			<ellipse class="prfl139" cx="100.2" cy="157.6" rx="24.9" ry="4.6"/>
			<ellipse class="prfl140" cx="100.2" cy="157.6" rx="24.7" ry="4.6"/>
			<ellipse class="prfl141" cx="100.2" cy="157.6" rx="24.5" ry="4.6"/>
			<ellipse class="prfl142" cx="100.2" cy="157.6" rx="24.4" ry="4.5"/>
			<ellipse class="prfl142" cx="100.2" cy="157.6" rx="24.2" ry="4.5"/>
			<ellipse class="prfl143" cx="100.2" cy="157.6" rx="24" ry="4.5"/>
			<ellipse class="prfl144" cx="100.2" cy="157.6" rx="23.8" ry="4.4"/>
			<ellipse class="prfl145" cx="100.2" cy="157.6" rx="23.6" ry="4.4"/>
			<ellipse class="prfl146" cx="100.2" cy="157.6" rx="23.5" ry="4.4"/>
			<ellipse class="prfl147" cx="100.2" cy="157.6" rx="23.3" ry="4.3"/>
			<ellipse class="prfl148" cx="100.2" cy="157.6" rx="23.1" ry="4.3"/>
			<ellipse class="prfl149" cx="100.2" cy="157.6" rx="22.9" ry="4.3"/>
			<ellipse class="prfl150" cx="100.2" cy="157.6" rx="22.8" ry="4.2"/>
			<ellipse class="prfl150" cx="100.2" cy="157.6" rx="22.6" ry="4.2"/>
			<ellipse class="prfl151" cx="100.2" cy="157.6" rx="22.4" ry="4.2"/>
			<ellipse class="prfl151" cx="100.2" cy="157.6" rx="22.2" ry="4.1"/>
			<ellipse class="prfl152" cx="100.2" cy="157.6" rx="22" ry="4.1"/>
			<ellipse class="prfl153" cx="100.2" cy="157.6" rx="21.9" ry="4.1"/>
			<ellipse class="prfl154" cx="100.2" cy="157.6" rx="21.7" ry="4"/>
			<ellipse class="prfl155" cx="100.2" cy="157.6" rx="21.5" ry="4"/>
			<ellipse class="prfl156" cx="100.2" cy="157.6" rx="21.3" ry="4"/>
			<ellipse class="prfl157" cx="100.2" cy="157.6" rx="21.2" ry="3.9"/>
			<ellipse class="prfl158" cx="100.2" cy="157.6" rx="21" ry="3.9"/>
			<ellipse class="prfl159" cx="100.2" cy="157.6" rx="20.8" ry="3.9"/>
			<ellipse class="prfl159" cx="100.2" cy="157.6" rx="20.6" ry="3.8"/>
			<ellipse class="prfl160" cx="100.2" cy="157.6" rx="20.4" ry="3.8"/>
			<ellipse class="prfl160" cx="100.2" cy="157.6" rx="20.3" ry="3.8"/>
			<ellipse class="prfl161" cx="100.2" cy="157.6" rx="20.1" ry="3.7"/>
			<ellipse class="prfl161" cx="100.2" cy="157.6" rx="19.9" ry="3.7"/>
			<ellipse class="prfl162" cx="100.2" cy="157.6" rx="19.7" ry="3.7"/>
			<ellipse class="prfl163" cx="100.2" cy="157.6" rx="19.6" ry="3.6"/>
			<ellipse class="prfl164" cx="100.2" cy="157.6" rx="19.4" ry="3.6"/>
			<ellipse class="prfl165" cx="100.2" cy="157.6" rx="19.2" ry="3.6"/>
			<ellipse class="prfl166" cx="100.2" cy="157.6" rx="19" ry="3.5"/>
			<ellipse class="prfl167" cx="100.2" cy="157.6" rx="18.8" ry="3.5"/>
			<ellipse class="prfl167" cx="100.2" cy="157.6" rx="18.7" ry="3.5"/>
			<ellipse class="prfl168" cx="100.2" cy="157.6" rx="18.5" ry="3.4"/>
			<ellipse class="prfl168" cx="100.2" cy="157.6" rx="18.3" ry="3.4"/>
			<ellipse class="prfl169" cx="100.2" cy="157.6" rx="18.1" ry="3.4"/>
			<ellipse class="prfl170" cx="100.2" cy="157.6" rx="17.9" ry="3.3"/>
			<ellipse class="prfl171" cx="100.2" cy="157.6" rx="17.8" ry="3.3"/>
			<ellipse class="prfl172" cx="100.2" cy="157.6" rx="17.6" ry="3.3"/>
			<ellipse class="prfl173" cx="100.2" cy="157.6" rx="17.4" ry="3.2"/>
			<ellipse class="prfl174" cx="100.2" cy="157.6" rx="17.2" ry="3.2"/>
			<ellipse class="prfl174" cx="100.2" cy="157.6" rx="17.1" ry="3.2"/>
			<ellipse class="prfl175" cx="100.2" cy="157.6" rx="16.9" ry="3.1"/>
			<ellipse class="prfl175" cx="100.2" cy="157.6" rx="16.7" ry="3.1"/>
			<ellipse class="prfl176" cx="100.2" cy="157.6" rx="16.5" ry="3.1"/>
			<ellipse class="prfl177" cx="100.2" cy="157.6" rx="16.3" ry="3"/>
			<ellipse class="prfl178" cx="100.2" cy="157.6" rx="16.2" ry="3"/>
			<ellipse class="prfl179" cx="100.2" cy="157.6" rx="16" ry="3"/>
			<ellipse class="prfl180" cx="100.2" cy="157.6" rx="15.8" ry="2.9"/>
			<ellipse class="prfl181" cx="100.2" cy="157.6" rx="15.6" ry="2.9"/>
			<ellipse class="prfl182" cx="100.2" cy="157.6" rx="15.5" ry="2.9"/>
			<ellipse class="prfl183" cx="100.2" cy="157.6" rx="15.3" ry="2.8"/>
			<ellipse class="prfl183" cx="100.2" cy="157.6" rx="15.1" ry="2.8"/>
			<ellipse class="prfl184" cx="100.2" cy="157.6" rx="14.9" ry="2.8"/>
		</g>
		<linearGradient id="PRFL_ID_1_" gradientUnits="userSpaceOnUse" x1="100.2528" y1="174.0387" x2="100.2528" y2="167.7352">
			<stop  offset="0" style="stop-color:#4C4C4C"/>
			<stop  offset="1" style="stop-color:#000000"/>
		</linearGradient>
		<path class="prfl185" d="M75.4,170.1l-0.2,4.6h50.1l-0.8-5.1c-0.3-1.6-1.6-2.9-3.3-2.9H78.7C76.9,166.9,75.4,168.4,75.4,170.1z"/>
		<linearGradient id="PRFL_ID_2_" gradientUnits="userSpaceOnUse" x1="100.2528" y1="173.6457" x2="100.2528" y2="177.6871">
			<stop  offset="0" style="stop-color:#4C4C4C"/>
			<stop  offset="1" style="stop-color:#000000"/>
		</linearGradient>
		<polygon class="prfl186" points="75.2,174.8 75.7,179 99.2,180.1 124.7,179 125.3,174.8 		"/>
		<linearGradient id="PRFL_ID_3_" gradientUnits="userSpaceOnUse" x1="87.2175" y1="173.5965" x2="87.2175" y2="162.427">
			<stop  offset="0" style="stop-color:#4C4C4C"/>
			<stop  offset="1" style="stop-color:#000000"/>
		</linearGradient>
		<path class="prfl187" d="M75.4,170.2l-0.2,4.6h18.2l5.8-8H78.8C76.9,166.8,75.4,168.4,75.4,170.2z"/>
		
			<linearGradient id="PRFL_ID_4_" gradientUnits="userSpaceOnUse" x1="84.2335" y1="-565.4381" x2="84.2335" y2="-570.2887" gradientTransform="matrix(1 0 0 -1 0 -390.6143)">
			<stop  offset="0" style="stop-color:#4C4C4C"/>
			<stop  offset="1" style="stop-color:#000000"/>
		</linearGradient>
		<polygon class="prfl188" points="75.2,174.8 75.7,179 84.5,179.5 91.5,175.7 93.3,174.8 		"/>
		<path class="prfl0" d="M117.6,168.6c2,0,3.6,0.5,3.6,1.1c0,0.6-1.7,1.1-3.6,1.1s-3.6-0.5-3.6-1.1C114,169.1,115.6,168.6,117.6,168.6
			z"/>
		<path class="prfl189" d="M117.6,168.6c1.9,0,3.3,0.5,3.3,0.9s-1.4,0.9-3.3,0.9c-1.7,0-3.3-0.5-3.3-0.9S115.9,168.6,117.6,168.6z"/>
		<path class="prfl190" d="M117.6,169c1.4,0,2.7,0.3,2.7,0.8s-1.3,0.8-2.7,0.8s-2.7-0.3-2.7-0.8C115.1,169.3,116.2,169,117.6,169z"/>
		<path class="prfl191" d="M117.6,169.1c0.9,0,1.7,0.3,1.7,0.6s-0.8,0.6-1.7,0.6s-1.7-0.3-1.7-0.6S116.7,169.1,117.6,169.1z"/>
		<path class="prfl192" d="M117.6,169.1c0.9,0,1.6,0.2,1.6,0.5s-0.6,0.5-1.6,0.5s-1.6-0.2-1.6-0.5C116,169.3,116.8,169.1,117.6,169.1z
			"/>
		<path class="prfl0" d="M107.9,168.6c2,0,3.6,0.5,3.6,1.1c0,0.6-1.7,1.1-3.6,1.1c-1.9,0-3.6-0.5-3.6-1.1
			C104.3,169.1,105.8,168.6,107.9,168.6z"/>
		<path class="prfl189" d="M107.9,168.6c1.7,0,3.3,0.5,3.3,0.9s-1.4,0.9-3.3,0.9c-1.7,0-3.3-0.5-3.3-0.9
			C104.7,169.1,106.1,168.6,107.9,168.6z"/>
		<path class="prfl190" d="M107.9,169c1.4,0,2.7,0.3,2.7,0.8s-1.3,0.8-2.7,0.8c-1.4,0-2.7-0.3-2.7-0.8
			C105.4,169.3,106.5,169,107.9,169z"/>
		<path class="prfl191" d="M107.9,169.1c0.9,0,1.7,0.3,1.7,0.6s-0.8,0.6-1.7,0.6c-0.9,0-1.7-0.3-1.7-0.6S106.9,169.1,107.9,169.1z"/>
		<path class="prfl192" d="M107.9,169.1c0.9,0,1.6,0.2,1.6,0.5s-0.6,0.5-1.6,0.5c-0.9,0-1.6-0.2-1.6-0.5
			C106.3,169.3,107.1,169.1,107.9,169.1z"/>
		<path class="prfl0" d="M81.6,178.2c2,0,3.6-0.6,3.6-1.4c0-0.8-1.7-1.4-3.6-1.4c-2,0-3.6,0.6-3.6,1.4C78,177.6,79.6,178.2,81.6,178.2
			z"/>
		<path class="prfl189" d="M81.6,178.1c1.9,0,3.3-0.5,3.3-1.3c0-0.6-1.4-1.3-3.3-1.3c-1.7,0-3.3,0.5-3.3,1.3
			C78.3,177.4,79.8,178.1,81.6,178.1z"/>
		<path class="prfl190" d="M81.6,177.8c1.4,0,2.7-0.5,2.7-0.9s-1.3-0.9-2.7-0.9s-2.7,0.5-2.7,0.9S80.2,177.8,81.6,177.8z"/>
		<path class="prfl192" d="M81.6,177.4c0.9,0,1.6-0.3,1.6-0.6c0-0.3-0.6-0.6-1.6-0.6c-0.9,0-1.6,0.3-1.6,0.6
			C80.1,177.3,80.9,177.4,81.6,177.4z"/>
	</g>
	<g>
		<linearGradient id="PRFL_ID_5_" gradientUnits="userSpaceOnUse" x1="100.8019" y1="81.306" x2="100.8019" y2="150.2494">
			<stop  offset="0" style="stop-color:#4C4C4C"/>
			<stop  offset="1" style="stop-color:#000000"/>
		</linearGradient>
		<path class="prfl193" d="M159.9,100.5c-2.3-3.1-6.5-4.3-9.9-5.9c-7-2.8-14-6-20.9-9.8v0c-1.1-0.6-2.2-1.2-3.3-1.8
			c-4.6-2.6-9.9-8.8-11.4-12.1h-13.6H87.2c-1.5,3.3-6.8,9.5-11.4,12.1c-0.8,0.5-1.6,0.9-2.5,1.4l-2,1.1c-6.5,3.5-13.1,6.5-19.7,9.1
			c-3.4,1.6-7.6,2.8-9.9,5.9c-1.8,4-3.2,10.4-3.9,18.4c2.8,10.2,9.9,19.2,19.8,26c0,0,0,0,0,0l1.8-32l0-0.3l1,12.5l0,0.2l0-0.2
			l0,0.5l2.7,22.7c4.6,2.5,9.7,4.6,15.2,6.1c7,1.9,14.5,3,22.3,3c7.8,0,15.3-1.1,22.3-3c5.5-1.5,10.6-3.6,15.2-6.1l2.6-21.8l0-1.4
			l1-12.5l0,0.3l1.8,32.1c0,0,0,0,0,0c10-6.7,17.1-15.8,19.9-26C163,110.9,161.7,104.5,159.9,100.5z"/>
		<linearGradient id="PRFL_ID_6_" gradientUnits="userSpaceOnUse" x1="100.8019" y1="65.4792" x2="100.8019" y2="130.4873">
			<stop  offset="0" style="stop-color:#4C4C4C"/>
			<stop  offset="1" style="stop-color:#000000"/>
		</linearGradient>
		<path class="prfl194" d="M93.5,105.9c4.9,0.7,9.8,0.7,14.7,0c10-2.1,15.3-12.1,20.9-21.1c-1.1-0.6-2.2-1.2-3.3-1.8
			c-4.6-2.6-9.9-8.8-11.4-12.1h-13.6H87.2c-1.5,3.3-6.8,9.5-11.4,12.1c-1.1,0.6-2.2,1.2-3.3,1.8C78.1,93.8,83.4,103.8,93.5,105.9z
			 M87.8,71.7h3c6.8,2.7,13.4,2.5,20.1,0h2.9c0.9,2.1,3.3,5.3,6.1,8.1c-1.6,10.1-7.8,12.1-19.1,21.6c-11.8-9.8-17.2-11.8-18.8-21.6
			C84.6,76.9,86.9,73.7,87.8,71.7z"/>
		<g>
			<path d="M60.6,125.2l0-0.2l-1-12.2l-1.8,32c1.1,0.7,2.3,1.5,3.4,2.2l-0.6-21.5L60.6,125.2z"/>
			<path d="M143.8,144.9l-1.8-32.1l-1,12.2l0,1.4l0.2-1.4l-0.6,22C141.7,146.3,142.8,145.6,143.8,144.9z"/>
		</g>
		<linearGradient id="PRFL_ID_7_" gradientUnits="userSpaceOnUse" x1="99.6686" y1="109.5118" x2="101.592" y2="58.8949">
			<stop  offset="0" style="stop-color:#4C4C4C"/>
			<stop  offset="1" style="stop-color:#000000"/>
		</linearGradient>
		<path class="prfl195" d="M100.7,101.3c-11.8-9.8-17.2-11.8-18.8-21.6c2.7-2.7,5.1-5.9,6-8h3c6.8,2.7,13.4,2.5,20.1,0h2.9
			c0.9,2.1,3.3,5.3,6.1,8.1C118.2,89.8,112,91.8,100.7,101.3z"/>
		<linearGradient id="PRFL_ID_8_" gradientUnits="userSpaceOnUse" x1="100.8019" y1="78.2125" x2="100.8019" y2="93.2002">
			<stop  offset="0" style="stop-color:#4C4C4C"/>
			<stop  offset="0.7896" style="stop-color:#9B9A9B"/>
		</linearGradient>
		<path class="prfl196" d="M118.4,79.9c-2.6-2.5-4.8-5.4-5.6-7.2h-2.7c-6.1,2.2-12.3,2.4-18.6,0h-2.8c-0.8,1.9-3,4.7-5.6,7.2
			c1.5,8.9,6.6,10.6,17.5,19.5C111.2,90.8,116.9,89,118.4,79.9z"/>
		<g>
			<linearGradient id="PRFL_ID_9_" gradientUnits="userSpaceOnUse" x1="74.3046" y1="23.0533" x2="130.2565" y2="80.8564">
				<stop  offset="0" style="stop-color:#F5F5F5"/>
				<stop  offset="0.7896" style="stop-color:#9B9A9B"/>
			</linearGradient>
			<path class="prfl197" d="M125.6,38.2c0-0.4,0-0.7-0.1-1.1c-0.9-10.4-11.6-18.7-24.6-18.7c-12.7,0-23.2,7.8-24.6,17.9
				c-0.1,0.6-0.2,1.2-0.2,1.9c-0.2,11.1-2.1,23.5,2.5,30.4c5.2,7.7,8.7,15.3,17.2,17c3.3,0.5,6.7,0.5,10,0c8.5-1.8,12-9.3,17.2-17
				C127.7,61.7,125.7,49.4,125.6,38.2z"/>
			<g>
				
					<linearGradient id="PRFL_ID_10_" gradientUnits="userSpaceOnUse" x1="-20760.0332" y1="-3493.5173" x2="-20754.7441" y2="-3478.874" gradientTransform="matrix(-1 0 0 -1 -20658 -3455.3984)">
					<stop  offset="0" style="stop-color:#FFFFFF;stop-opacity:0"/>
					<stop  offset="1" style="stop-color:#FFFFFF"/>
				</linearGradient>
				<ellipse class="prfl198" cx="100.8" cy="34.7" rx="19.9" ry="12"/>
				<linearGradient id="PRFL_ID_11_" gradientUnits="userSpaceOnUse" x1="100.0009" y1="47.418" x2="133.5309" y2="56.2633">
					<stop  offset="0" style="stop-color:#FFFFFF;stop-opacity:0"/>
					<stop  offset="1" style="stop-color:#FFFFFF"/>
				</linearGradient>
				<path class="prfl199" d="M117.2,27.9c6.9,5,3.3,19.7-6.7,31c-8.6,9.7-18.8,13.1-23.7,8.8c-4.8-4.2-3.6-15,3.3-25.4
					C97.9,30.4,110.5,23.1,117.2,27.9z"/>
			</g>
		</g>
		<linearGradient id="PRFL_ID_12_" gradientUnits="userSpaceOnUse" x1="100.8568" y1="118.9353" x2="101.698" y2="85.8376">
			<stop  offset="0" style="stop-color:#FFFFFF;stop-opacity:0"/>
			<stop  offset="1" style="stop-color:#FFFFFF"/>
		</linearGradient>
		<path class="prfl200" d="M104.8,112.8c-20.3-0.9-38.5,2.8-37.6,8.2c0.9,5.2,19.3,8.9,38.4,8.5c16.6-0.4,28.7-3.8,28.8-7.8
			C134.6,117.5,122.3,113.6,104.8,112.8z"/>
	</g>
	<g>
		<g>
			<path class="prfl0" d="M157.7,150.2c12.9-0.1,21.3,2.8,21.3,6.3c0,3.5-8.3,7.6-21,9.5c-16.9,2.8-35.5,0.7-35.7-5.1
				C121.9,155.1,140.5,150.3,157.7,150.2z"/>
			
				<linearGradient id="PRFL_ID_13_" gradientUnits="userSpaceOnUse" x1="-482.7606" y1="-1121.1874" x2="-425.7946" y2="-1121.1874" gradientTransform="matrix(0.9993 -3.777127e-02 -3.777058e-02 -0.9993 562.1348 -981.6802)">
				<stop  offset="0" style="stop-color:#F5F5F5"/>
				<stop  offset="0.21" style="stop-color:#9B9A9B"/>
				<stop  offset="0.46" style="stop-color:#F5F5F5"/>
				<stop  offset="0.74" style="stop-color:#BCB9BA"/>
				<stop  offset="1" style="stop-color:#F5F5F5"/>
			</linearGradient>
			<path class="prfl201" d="M122.1,160.3c0-0.1-0.2-5.9-0.2-5.9c-0.2-5.8,18.5-9.8,35.8-9c13,0.7,21.4,3.8,21.4,7.3l0,3.5
				c0,3.4-8.4,7.5-21,9.3C140.8,168,122.4,166.3,122.1,160.3z"/>
			<path class="prfl202" d="M157.6,145.9c13,0.5,21.4,3.8,21.4,7.4c0,3.5-8.4,7.4-21.1,8.8c-17,1.9-35.7-0.6-35.9-6.7
				C121.6,149.3,140.4,145.2,157.6,145.9z"/>
			
				<linearGradient id="PRFL_ID_14_" gradientUnits="userSpaceOnUse" x1="-459.0816" y1="-1108.3292" x2="-449.4464" y2="-1129.074" gradientTransform="matrix(0.9993 -3.777127e-02 -3.777058e-02 -0.9993 562.1348 -981.6802)">
				<stop  offset="0" style="stop-color:#F5F5F5"/>
				<stop  offset="0.21" style="stop-color:#9B9A9B"/>
				<stop  offset="0.46" style="stop-color:#F5F5F5"/>
				<stop  offset="0.74" style="stop-color:#BCB9BA"/>
				<stop  offset="1" style="stop-color:#F5F5F5"/>
			</linearGradient>
			<path class="prfl203" d="M157.7,145.3c13,0.7,21.4,3.8,21.4,7.3c0,3.4-8.4,7.1-21.1,8.4c-17,1.8-35.8-1-36-6.7
				C121.5,148.4,140.3,144.5,157.7,145.3z"/>
			
				<linearGradient id="PRFL_ID_15_" gradientUnits="userSpaceOnUse" x1="-457.1934" y1="-1109.553" x2="-448.6204" y2="-1128.0105" gradientTransform="matrix(0.9993 -3.777127e-02 -3.777058e-02 -0.9993 562.1348 -981.6802)">
				<stop  offset="0" style="stop-color:#F5F5F5"/>
				<stop  offset="0.21" style="stop-color:#9B9A9B"/>
				<stop  offset="0.46" style="stop-color:#F5F5F5"/>
				<stop  offset="0.74" style="stop-color:#BCB9BA"/>
				<stop  offset="1" style="stop-color:#F5F5F5"/>
			</linearGradient>
			<path class="prfl204" d="M126.5,154.3c0.1,5.1,16.1,7.7,31.4,6.2c11.7-1.1,19.4-4.4,19.5-7.7c0-3.1-7.7-6.2-19.5-6.5
				C142.4,145.5,126.2,149.1,126.5,154.3z"/>
			
				<linearGradient id="PRFL_ID_16_" gradientUnits="userSpaceOnUse" x1="-455.4289" y1="-1110.6979" x2="-447.8835" y2="-1126.943" gradientTransform="matrix(0.9993 -3.777127e-02 -3.777058e-02 -0.9993 562.1348 -981.6802)">
				<stop  offset="0" style="stop-color:#F5F5F5"/>
				<stop  offset="0.21" style="stop-color:#9B9A9B"/>
				<stop  offset="0.46" style="stop-color:#F5F5F5"/>
				<stop  offset="0.74" style="stop-color:#BCB9BA"/>
				<stop  offset="1" style="stop-color:#F5F5F5"/>
			</linearGradient>
			<path class="prfl205" d="M130.8,154.1c0.2,4.4,13.6,6.6,27,5.4c10.5-0.9,17.7-3.9,17.7-6.7c0-2.8-7.1-5.6-17.8-5.9
				C144.3,146.5,130.7,149.6,130.8,154.1z"/>
			
				<linearGradient id="PRFL_ID_17_" gradientUnits="userSpaceOnUse" x1="-453.7991" y1="-1111.7795" x2="-447.2507" y2="-1125.8777" gradientTransform="matrix(0.9993 -3.777127e-02 -3.777058e-02 -0.9993 562.1348 -981.6802)">
				<stop  offset="0" style="stop-color:#F5F5F5"/>
				<stop  offset="0.21" style="stop-color:#9B9A9B"/>
				<stop  offset="0.46" style="stop-color:#F5F5F5"/>
				<stop  offset="0.74" style="stop-color:#BCB9BA"/>
				<stop  offset="1" style="stop-color:#F5F5F5"/>
			</linearGradient>
			<path class="prfl206" d="M134.8,153.9c0.1,3.8,11.5,5.8,22.8,4.8c9.4-0.7,15.9-3.3,15.9-6c0-2.6-6.6-4.8-15.8-5.1
				C146,147.5,134.7,150.3,134.8,153.9z"/>
			
				<linearGradient id="PRFL_ID_18_" gradientUnits="userSpaceOnUse" x1="-452.2552" y1="-1112.7897" x2="-446.6793" y2="-1124.7943" gradientTransform="matrix(0.9993 -3.777127e-02 -3.777058e-02 -0.9993 562.1348 -981.6802)">
				<stop  offset="0" style="stop-color:#F5F5F5"/>
				<stop  offset="0.21" style="stop-color:#9B9A9B"/>
				<stop  offset="0.46" style="stop-color:#F5F5F5"/>
				<stop  offset="0.74" style="stop-color:#BCB9BA"/>
				<stop  offset="1" style="stop-color:#F5F5F5"/>
			</linearGradient>
			<path class="prfl207" d="M138.7,153.8c0.1,3.1,9.4,4.8,19.1,4.1c8.1-0.7,13.8-2.9,14-5.2c0-2.3-5.7-4.2-14-4.3
				C147.9,148.2,138.6,150.7,138.7,153.8z"/>
			
				<linearGradient id="PRFL_ID_19_" gradientUnits="userSpaceOnUse" x1="-451.2001" y1="-1113.9189" x2="-446.575" y2="-1123.8765" gradientTransform="matrix(0.9993 -3.777127e-02 -3.777058e-02 -0.9993 562.1348 -981.6802)">
				<stop  offset="0" style="stop-color:#F5F5F5"/>
				<stop  offset="0.21" style="stop-color:#9B9A9B"/>
				<stop  offset="0.46" style="stop-color:#F5F5F5"/>
				<stop  offset="0.74" style="stop-color:#BCB9BA"/>
				<stop  offset="1" style="stop-color:#F5F5F5"/>
			</linearGradient>
			<path class="prfl208" d="M142.2,153.7c0,2.6,7.4,4,15.4,3.5c6.9-0.5,11.8-2.5,11.9-4.2c0-2-4.9-3.6-11.9-3.7
				C149.7,149.3,142.3,151.2,142.2,153.7z"/>
			
				<linearGradient id="PRFL_ID_20_" gradientUnits="userSpaceOnUse" x1="-449.9801" y1="-1114.8768" x2="-446.2888" y2="-1122.8241" gradientTransform="matrix(0.9993 -3.777127e-02 -3.777058e-02 -0.9993 562.1348 -981.6802)">
				<stop  offset="0" style="stop-color:#F5F5F5"/>
				<stop  offset="0.21" style="stop-color:#9B9A9B"/>
				<stop  offset="0.46" style="stop-color:#F5F5F5"/>
				<stop  offset="0.74" style="stop-color:#BCB9BA"/>
				<stop  offset="1" style="stop-color:#F5F5F5"/>
			</linearGradient>
			<path class="prfl209" d="M145.7,153.5c0,2,5.7,3.2,12.1,2.9c5.5-0.4,9.8-1.8,9.7-3.4c-0.1-1.6-4.1-2.9-9.8-2.8
				C151.2,150,145.7,151.8,145.7,153.5z"/>
			
				<linearGradient id="PRFL_ID_21_" gradientUnits="userSpaceOnUse" x1="-448.944" y1="-1115.8302" x2="-446.1725" y2="-1121.7968" gradientTransform="matrix(0.9993 -3.777127e-02 -3.777058e-02 -0.9993 562.1348 -981.6802)">
				<stop  offset="0" style="stop-color:#F5F5F5"/>
				<stop  offset="0.21" style="stop-color:#9B9A9B"/>
				<stop  offset="0.46" style="stop-color:#F5F5F5"/>
				<stop  offset="0.74" style="stop-color:#BCB9BA"/>
				<stop  offset="1" style="stop-color:#F5F5F5"/>
			</linearGradient>
			<path class="prfl210" d="M148.9,153.4c0.1,1.5,4.2,2.4,8.9,2.1c4.3-0.2,7.5-1.4,7.5-2.6c0.1-1.1-3.2-2.2-7.5-2.1
				C153,150.8,148.9,152.1,148.9,153.4z"/>
			
				<linearGradient id="PRFL_ID_22_" gradientUnits="userSpaceOnUse" x1="-448.2304" y1="-1116.8524" x2="-446.3694" y2="-1120.8582" gradientTransform="matrix(0.9993 -3.777127e-02 -3.777058e-02 -0.9993 562.1348 -981.6802)">
				<stop  offset="0" style="stop-color:#F5F5F5"/>
				<stop  offset="0.21" style="stop-color:#9B9A9B"/>
				<stop  offset="0.46" style="stop-color:#F5F5F5"/>
				<stop  offset="0.74" style="stop-color:#BCB9BA"/>
				<stop  offset="1" style="stop-color:#F5F5F5"/>
			</linearGradient>
			<path class="prfl211" d="M151.9,153.3c0.1,0.9,2.6,1.6,5.7,1.5c3-0.1,5.1-0.9,5.2-1.9c0-0.8-2.3-1.6-5.2-1.5
				C154.7,151.7,151.8,152.5,151.9,153.3z"/>
			
				<linearGradient id="PRFL_ID_23_" gradientUnits="userSpaceOnUse" x1="-447.5251" y1="-1117.8025" x2="-446.568" y2="-1119.8634" gradientTransform="matrix(0.9993 -3.777127e-02 -3.777058e-02 -0.9993 562.1348 -981.6802)">
				<stop  offset="0" style="stop-color:#F5F5F5"/>
				<stop  offset="0.21" style="stop-color:#9B9A9B"/>
				<stop  offset="0.46" style="stop-color:#F5F5F5"/>
				<stop  offset="0.74" style="stop-color:#BCB9BA"/>
				<stop  offset="1" style="stop-color:#F5F5F5"/>
			</linearGradient>
			<path class="prfl212" d="M157.7,152.4c1.6-0.1,2.7,0.3,2.8,0.7c0.1,0.4-1.2,0.7-2.7,0.9c-1.6,0.1-2.9-0.3-2.9-0.7
				C154.9,152.8,156.1,152.4,157.7,152.4z"/>
		</g>
		<path class="prfl213" d="M176.4,149.3c-3.4-2-10.1-3.6-18.8-4c-7.9-0.3-16,0.3-22.5,1.6l-3,2.5l4.2,5.5l17.7,2.8
			C154.9,157.3,176.3,149.4,176.4,149.3z"/>
		<g>
			<g>
				<path class="prfl213" d="M138.3,157.7c-13.1-5.8-18.7-27,2.8-39c1.5-0.5,2-1.5,2.6-3.1c1.4-3.6,3.3-3.2,6.6-2.9l18.1-42l1.8-1.7
					l1.5-0.1l1.7-2.1l2.3-0.3l4.1,9.7l-1.8,5.7l0,2.7l-1.4,0.3c-1.2,0.6-1.3,1.7,0.1,3.5l-0.4,0.9c-1,0.4-1.9,1.1-2.5,1.7
					c-0.8,0.8-1.4,1.8-1.8,2.7c-0.2,0.7,0.1,1.1,0.3,1.9c0.1,0.3-0.4,0.6-0.4,0.9c-0.7,0.2-0.8,0.5-1.4,0.9
					c-1.4,0.9-2.2,1.8-2.4,3.1c0.5,0.4,0.4,1.9-0.8,2c-2.6,1.3-3.7,3.3-3,5.2l1.9,4.7l-2.4,5.8l2.3,2.1c-2.2,3.2-2,5.8-0.7,8.8
					C173.3,150.7,152.8,164,138.3,157.7z M152.1,148.4c1.8-4.1-0.2-8.6-4.3-10.2c-4.2-1.7-9,0.2-10.7,4.1c-1.8,4.1,0.2,8.6,4.3,10.2
					C145.5,154.4,150.3,152.5,152.1,148.4z"/>
				<path class="prfl202" d="M137.4,157.6c-13.1-5.8-18.6-27.1,3.1-39.2c1.5-0.5,2-1.5,2.6-3.1c1.4-3.6,3.3-3.2,6.6-2.9l18.3-42.1
					l1.8-1.7l1.5-0.1l1.7-2.1l2.5,0.1l3.9,9.6l-1.6,5.8l0.2,2.3c-1.9,0.4-3,1.6-1.7,3.7l-0.4,0.9c-1,0.4-1.9,1.1-2.5,1.7
					c-0.8,0.8-1.4,1.8-1.8,2.9c-0.2,0.7,0.1,1.1,0.3,1.9c0.1,0.3-0.4,0.6-0.4,0.9c-0.7,0.2-0.8,0.5-1.4,0.9
					c-1.4,0.9-2.2,1.8-2.6,3.1c0.5,0.4,0.4,1.9-0.8,2c-2.6,1.3-3.7,3.3-3,5.2l1.9,4.7l-2.4,5.8l2.3,2.1c-2.2,3.2-2.2,5.8-0.7,8.8
					C172.2,150.5,151.7,163.9,137.4,157.6z M151.2,148.2c1.8-4.1-0.2-8.6-4.3-10.3c-4.2-1.7-9,0.2-10.7,4.1
					c-1.8,4.1,0.2,8.6,4.3,10.3C144.5,154,149.3,152.3,151.2,148.2z"/>
				<linearGradient id="PRFL_ID_24_" gradientUnits="userSpaceOnUse" x1="210.8356" y1="71.5303" x2="97.6746" y2="165.9817">
					<stop  offset="0" style="stop-color:#F5F5F5"/>
					<stop  offset="0.21" style="stop-color:#9B9A9B"/>
					<stop  offset="0.46" style="stop-color:#F5F5F5"/>
					<stop  offset="0.74" style="stop-color:#BCB9BA"/>
					<stop  offset="1" style="stop-color:#F5F5F5"/>
				</linearGradient>
				<path class="prfl214" d="M136.3,157.5c-13.1-5.8-18.6-27.1,3.1-39.2c1.5-0.5,2-1.5,2.6-3.1c1.4-3.6,3.3-3.2,6.6-2.9l18.1-42.2
					l1.8-1.7l1.5-0.1l1.7-2.1l2.3-0.3c2.3,4.3,3.8,7.4,4.3,9.9l-0.2,1.3l-1.6,4.5l0.3,2.3c-2.7,0.3-3.4,1.3-1.7,4.1l-0.4,0.9
					c-1,0.4-1.9,1.1-2.5,1.7c-0.8,0.8-1.4,1.8-1.8,2.9c-0.2,0.7,0.1,1.1,0.3,1.9c0.1,0.3-0.4,0.6-0.4,0.9c-0.7,0.2-0.8,0.5-1.4,0.9
					c-1.4,0.9-2.2,1.8-2.6,3.1c0.5,0.4,0.4,1.9-0.8,2c-2.6,1.3-3.7,3.3-3,5.2l1.9,4.7l-2.4,5.8l2.3,2.1c-2.2,3.2-2.2,5.8-0.7,8.8
					C171.3,150.5,150.8,163.8,136.3,157.5z M150.1,148.2c1.8-4.1-0.2-8.6-4.3-10.3c-4.2-1.7-9,0.2-10.7,4.1
					c-1.8,4.1,0.2,8.6,4.3,10.3C143.5,154,148.3,152.1,150.1,148.2z"/>
				<linearGradient id="PRFL_ID_25_" gradientUnits="userSpaceOnUse" x1="154.9165" y1="86.1967" x2="173.7552" y2="94.4547">
					<stop  offset="0" style="stop-color:#F5F5F5"/>
					<stop  offset="0.21" style="stop-color:#9B9A9B"/>
					<stop  offset="0.46" style="stop-color:#F5F5F5"/>
					<stop  offset="0.74" style="stop-color:#BCB9BA"/>
					<stop  offset="1" style="stop-color:#F5F5F5"/>
				</linearGradient>
				<polygon class="prfl215" points="154.8,114 151.5,113.1 170,68.6 171.7,66.5 173.9,66.2 				"/>
				<linearGradient id="PRFL_ID_26_" gradientUnits="userSpaceOnUse" x1="156.3819" y1="88.274" x2="180.1238" y2="98.5966">
					<stop  offset="0" style="stop-color:#F5F5F5"/>
					<stop  offset="0.21" style="stop-color:#9B9A9B"/>
					<stop  offset="0.46" style="stop-color:#F5F5F5"/>
					<stop  offset="0.74" style="stop-color:#BCB9BA"/>
					<stop  offset="1" style="stop-color:#F5F5F5"/>
				</linearGradient>
				<path class="prfl216" d="M163,119.2l-6.5-4L175,68.4c1.7,3.2,2.8,5.9,3.2,7.8l-0.2,1.3l-1.6,4.5l0.3,2.3c-2.7,0.3-3.4,1.3-1.7,4.1
					l-0.4,0.9c-1,0.4-1.9,1.1-2.5,1.7c-0.8,0.8-1.4,1.8-1.8,2.9c-0.2,0.7,0.1,1.1,0.3,1.9c0.1,0.3-0.4,0.6-0.4,0.9
					c-0.7,0.2-0.8,0.5-1.4,0.9c-1.4,0.9-2.2,1.8-2.6,3.1c0.5,0.4,0.4,1.9-0.8,2c-2.6,1.3-3.7,3.3-3,5.2l1.9,4.7l-2.4,5.8L163,119.2z
					"/>
			</g>
			<path class="prfl1" d="M136.4,145.3c-0.4,0.1-0.6,0.2-0.9,0.6c-0.1-1.5,0.1-2.5,0.5-3.5c0.1,0.4,0.4,0.5,0.8,0.6
				C136.6,143.9,136.5,144.5,136.4,145.3z"/>
		</g>
	</g>
</g>
</svg>
