<?xml version="1.0" encoding="utf-8"?>
<!-- Generator: Adobe Illustrator 27.2.0, SVG Export Plug-In . SVG Version: 6.00 Build 0)  -->
<!DOCTYPE svg PUBLIC "-//W3C//DTD SVG 1.1//EN" "http://www.w3.org/Graphics/SVG/1.1/DTD/svg11.dtd" [
	<!ENTITY ns_extend "http://ns.adobe.com/Extensibility/1.0/">
	<!ENTITY ns_ai "http://ns.adobe.com/AdobeIllustrator/10.0/">
	<!ENTITY ns_graphs "http://ns.adobe.com/Graphs/1.0/">
	<!ENTITY ns_vars "http://ns.adobe.com/Variables/1.0/">
	<!ENTITY ns_imrep "http://ns.adobe.com/ImageReplacement/1.0/">
	<!ENTITY ns_sfw "http://ns.adobe.com/SaveForWeb/1.0/">
	<!ENTITY ns_custom "http://ns.adobe.com/GenericCustomNamespace/1.0/">
	<!ENTITY ns_adobe_xpath "http://ns.adobe.com/XPath/1.0/">
]>
<svg version="1.1" id="Calque_1" xmlns:x="&ns_extend;" xmlns:i="&ns_ai;" xmlns:graph="&ns_graphs;"
	 xmlns="http://www.w3.org/2000/svg" xmlns:xlink="http://www.w3.org/1999/xlink" x="0px" y="0px" viewBox="0 0 200 200"
	 style="enable-background:new 0 0 200 200;" xml:space="preserve">
<style type="text/css">
	.Ombre_x0020_portée{fill:none;}
	.Lueur_x0020_externe_x0020_5 pt{fill:none;}
	.Néon_x0020_bleu{fill:none;stroke:#8AACDA;stroke-width:7;stroke-linecap:round;stroke-linejoin:round;}
	.Ton_x0020_clair_x0020_chrome{fill:url(#SVGID_1_);stroke:#FFFFFF;stroke-width:0.3629;stroke-miterlimit:1;}
	.Swing_GS{fill:#FFDD00;}
	.Alysse_GS{fill:#A6D0E4;}
	.restitution0{fill-rule:evenodd;clip-rule:evenodd;fill:#575756;}
	.restitution1{fill-rule:evenodd;clip-rule:evenodd;fill:#868686;}
	.restitution2{fill:#C6C6C5;}
	.restitution3{fill:#D9D9D9;}
	.restitution4{fill:#B1B1B1;}
	.restitution5{fill:#868686;}
	.restitution6{fill-rule:evenodd;clip-rule:evenodd;fill:#C6C6C5;}
	.restitution7{fill-rule:evenodd;clip-rule:evenodd;fill:#9C9B9B;}
	.restitution8{fill-rule:evenodd;clip-rule:evenodd;fill:#F5F5F5;}
	.restitution9{fill:#ECECEC;}
	.restitution10{fill:#F5D2A7;}
	.restitution11{fill:#C09A6C;}
	.restitution12{fill:#E3BE8E;}
	.restitution13{fill:#FFFFFF;}
	.restitution14{opacity:0.7;fill:#FFFFFF;}
	.restitution15{fill:#9B9A9B;}
	.restitution16{fill-rule:evenodd;clip-rule:evenodd;fill:#F6BF9B;}
	.restitution17{fill-rule:evenodd;clip-rule:evenodd;fill:#E7A376;}
	.restitution18{fill-rule:evenodd;clip-rule:evenodd;fill:#3C3C3B;}
	.restitution19{fill-rule:evenodd;clip-rule:evenodd;fill:#202020;}
	.restitution20{fill-rule:evenodd;clip-rule:evenodd;fill:#1D1D1B;}
	.restitution21{fill-rule:evenodd;clip-rule:evenodd;fill:#DA9569;}
	.restitution22{fill-rule:evenodd;clip-rule:evenodd;fill:#F1B186;}
	.restitution23{fill-rule:evenodd;clip-rule:evenodd;fill:#21150C;}
	.restitution24{fill-rule:evenodd;clip-rule:evenodd;fill:#331F11;}
	.restitution25{fill-rule:evenodd;clip-rule:evenodd;fill:#F5BB94;}
	.restitution26{fill:#575756;}
</style>
<metadata>
	<sfw  xmlns="&ns_sfw;">
		<slices></slices>
		<sliceSourceBounds  bottomLeftOrigin="true" height="159.2" width="95.8" x="46.3" y="-177.6"></sliceSourceBounds>
	</sfw>
</metadata>
<linearGradient id="SVGID_1_" gradientUnits="userSpaceOnUse" x1="0" y1="0" x2="6.123234e-17" y2="-1">
	<stop  offset="0" style="stop-color:#656565"/>
	<stop  offset="0.618" style="stop-color:#1B1B1B"/>
	<stop  offset="0.6292" style="stop-color:#545454"/>
	<stop  offset="0.9831" style="stop-color:#3E3E3E"/>
</linearGradient>
<g>
	<g>
		<g>
			<g>
				<path class="restitution0" d="M74.9,123.8c0.4,1.6,0.6,2.4,1.2,3.3c1.3,1.8,3.2,3.1,6,5.1c1.3,0.9,1.6,1.8,0.3,2.7
					c-1.1,0.6-3.7,0.1-5.3-0.2c-3-0.7-4.3-2.5-5.3-3l-0.8,0.2c-0.6,0-3.2-1-3.7-1.7c-0.1-0.6-0.3-1.6-0.4-2.4
					c-0.1-2.6,0.3-2.3,1-4.3C70.3,123.6,72.6,123.7,74.9,123.8z"/>
				<path class="restitution0" d="M83.3,133.7c0,0.4-0.3,0.8-0.9,1.2c-1.1,0.6-3.7,0.1-5.3-0.2c-3-0.7-4.3-2.5-5.3-3l-0.8,0.2
					c-0.6,0-3.2-1-3.7-1.7c-0.1-0.6-0.3-1.6-0.4-2.4c-0.1-2.6,0.3-2.3,1-4.3c1,0.1,2.1,0.1,3.1,0.2c0.2,1.7-0.1,4.6,1.3,5.7
					c1.6,1.2,2.8,1.5,3.8,2.2C79.5,133.5,81.7,135.1,83.3,133.7z"/>
				<path class="restitution1" d="M75.7,126.7c-0.3,0.5-1,0.8-2.1,1c1.7,2,2,1.8,4.3,3.1c1.2,1.3,1.3,1.6,2.1,2c0.9,0.5,2.2,1,2.7,0.7
					c0.2-0.2-0.1-0.6-1.1-1.3c-1.1-0.8-2.3-1.6-3.3-2.5C77.3,128.8,76.4,127.9,75.7,126.7z"/>
			</g>
			<g>
				<path class="restitution0" d="M61.5,129.8c0.2,2.1,0.2,3.2,0.8,4.5c1.1,2.4,3,4.2,5.7,6.9c1.3,1.3,1.4,2.4-0.2,3.4
					c-1.3,0.7-4-0.1-5.6-0.7c-3.1-1.1-4.1-3.4-5.1-4l-0.8,0.2c-0.7,0-3.1-1.4-3.5-2.2c-0.1-0.7-0.2-1.9-0.1-3c0.2-3.3,0.6-3,1.5-5.6
					C56.6,129.5,59,129.7,61.5,129.8z"/>
				<path class="restitution0" d="M69,143.1c-0.1,0.5-0.5,1-1.2,1.4c-1.3,0.7-4-0.1-5.6-0.7c-3.1-1.1-4.1-3.4-5.1-4l-0.8,0.2
					c-0.7,0-3.1-1.4-3.5-2.2c-0.1-0.7-0.2-1.9-0.1-3c0.2-3.3,0.6-3,1.5-5.6c1.1,0.1,2.1,0.2,3.2,0.3c0,2.3-0.7,6.1,0.6,7.5
					c1.5,1.6,2.9,1.5,3.9,2.3C65.1,142.1,67,144.9,69,143.1z"/>
				<path class="restitution1" d="M61.4,133.5c-0.4,0.6-1.2,1-2.4,1.3c1.6,2.6,1.8,2.4,4.2,4.1c1,1.8,1.2,2.1,1.9,2.7c0.9,0.7,2.2,1.5,2.9,1
					c0.3-0.2,0-0.8-0.9-1.8c-1.1-1.1-2.2-2.2-3.2-3.4C62.8,136.3,62,135.1,61.4,133.5z"/>
			</g>
			<g>
				<path class="restitution2" d="M69.2,42.6c0-3.1,1.2-5.2,2.4-6.3c2.3-1.3,5.5,0.6,6.3,5.1c0.6,3.5,0.4,10.1,1.7,13.7
					C81.9,57.4,90,68.5,90,68.5l-2,4L81.1,68c0,0-5-3.7-6.2-5.2c-1.2-1.4-2.5-3.1-3.1-4.3C69.8,54.9,69.5,49.8,69.2,42.6z"/>
			</g>
			<path class="restitution3" d="M77,124.8c0,0,0.5-7-0.2-16.7c-1-15.9-2.4-37.7-1.9-42.9L77,44.2c0,0,0,0-0.1-0.1c0-0.5,0.1-0.9,0.1-1.4
				c0-4.2-2-7.6-4.4-7.6c-11.5-2.8-20.2,8.5-20.2,8.5l0.1,0c-1.6,1.6-2.6,4.5-2.6,7.9c0,1.8,0.3,3.4,0.8,4.8
				c0.4,1.4,1.5,4.7,2.7,8.6l0,0c0,0,1.1,9.1,0.4,16.4c-0.3,3,0.5,15,0.1,26.6c-0.3,9.1-1.8,17.9-2,22.6l-0.2,3.5l0,0.4
				c0,0.4,0.2,0.8,0.5,1.1l0.5,0.3l2.2,1.6c0,0,3,1.5,5.7-0.2c3.9-2.3,3.3-3.8,3.3-3.8s0-0.1,0-0.2c0-0.1,0-0.1,0-0.1
				s-0.3-10.4,0.2-21.2c0.5-11.4,1.7-23.1,2-23.2l1.3,22.4l-1,15.6l0,0.4c0,0.4,0.2,0.8,0.6,1l0.5,0.3l2.2,1.3c0,0,3.4,1.7,5.5-0.6
				C77.3,126.8,77,124.8,77,124.8z"/>
			<path class="restitution4" d="M76.8,108c-1-15.9-2.4-37.7-1.9-42.9L77,44.2v-1.5c0,0,0-0.5-0.6-1.4c-0.1-1.1-0.4-2.3-0.8-3.4
				c-0.2-0.6-0.5-1.2-0.8-1.7c-0.6-0.6-1.4-1-2.2-1c-0.4-0.1-0.8-0.2-1.1-0.2c1.3,1.4,2.5,3.4,2.8,6h0c-2.2,2.8-6.5,4-8.9,4.5
				c-0.2-0.8-0.4-1.7-0.7-2.4c-1-2.6-2.8-4.6-4.3-5.9c-1,0.5-1.9,1.1-2.7,1.7c1.8,1.3,4.1,3.6,5,7.6c0,0.3,0.3,4.3-0.9,6.2
				c-0.6,1-1.5,1.9-2.7,2c0.3,3.8-6,7.3-6,7.3s-0.1,0.2-0.3,0.6c0.2,0.8,0.5,1.6,0.8,2.5l0,0c0,0,1.1,9.1,0.4,16.4
				c-0.3,3,0.5,15,0.1,26.6c-0.3,9.1-1.8,17.9-2,22.6l-0.2,3.5l0,0.4c0,0.4,0.2,0.8,0.5,1.1l0.5,0.3l2.2,1.6c0,0,3,1.5,5.7-0.2
				c3.9-2.3,3.3-3.8,3.3-3.8s0-0.1,0-0.2c0-0.1,0-0.1,0-0.1s-0.3-10.4,0.2-21.2c0.5-11.4,1.7-23.1,2-23.2l1.3,22.4l-1,15.6l0,0.4
				c0,0.4,0.2,0.8,0.6,1l0.5,0.3l2.2,1.3c0,0,3.4,1.7,5.5-0.6c2.4-2.5,2-4.5,2-4.5S77.4,117.8,76.8,108z"/>
			<path class="restitution5" d="M75,129.2c2.4-2.5,2-4.5,2-4.5s0.5-7-0.2-16.7c-1-15.9-2.4-37.7-1.9-42.9l1.6-15.8l-12.9,7.4l-2.7,4.7
				L53.7,69c0,0.4,0.1,0.8,0.1,1.2l9.7,8.1v3.3l1.5,1.1l0.9,6.1l1.3,22.4l-1,15.6l0,0.4c0,0.4,0.2,0.8,0.6,1l0.5,0.3l2.2,1.3
				C69.4,129.8,72.8,131.5,75,129.2z"/>
			<g>
				<path class="restitution6" d="M59.5,78.4c-2.7-4.4-3.3-8.9-5.8-13.4c0.7-2.2,1.5-5.1,2.4-9c0.4-1.5,0.7-2.7,0.9-3.8
					c0.7-3.8-0.6-6.1-2.4-6.6c-1.2-0.3-2.6-0.2-3.8,1.8c-0.9,1.5-1.3,3.3-1.6,4.5c-1.1,4-1.5,9.3-1.8,13c0,0.3,0,0.6,0,0.9
					c-0.3,1.3,0,2.2,0.4,3.3c2.1,3.7,4.6,6.2,6.4,8.9c0.5,0.8,1.1,1.6,1.5,2.5c0.5,1.1,0.6,2.3,0.9,3.5c0.4,1.3,1.7,3.5,3.1,4
					c2.7,1.1,2.7,0.8,4.7-0.8c0.3-0.3,2.7-1.3,2.4-1.3c-0.9,0-1.5,0.1-1.9,0.1c-0.8-0.1-1.8-0.6-2.2-1.3c-0.2-0.4-0.3-0.8-0.5-1.3
					c0.2,0.1,0.4,0.3,0.5,0.5c0.5,1.1,1.5,1.8,2.3,1.1c-0.4-0.7-0.9-1.7-1.2-2.4c-0.4-0.8-0.7-1.4-1.7-2.1
					C61.4,79.6,60.4,79.3,59.5,78.4z"/>
				<path class="restitution7" d="M49.7,65.9c0.2-2.1,2.6-16.1,5-20.4c-1.2-0.3-2.6-0.2-3.8,1.8c-0.9,1.5-1.3,3.3-1.6,4.5
					c-1.1,4-1.5,9.3-1.8,13c0,0.3,0,0.6,0,0.9c-0.3,1.3,0,2.2,0.4,3.3c2.7,4.9,6.1,7.7,7.9,11.5c0.4,1.1,0.5,2.6,0.7,3.5
					c0.3,1.1,2,3.2,3.2,4.1c1,0.7,2.2,0.8,4,0.3c0.3-0.2,3-2.1,3.3-2.5c-0.3-0.1-3,1-3.3,0.9c-2.1-0.8-3.8-2.4-4.4-3.7
					c-0.6-1.2-1.7-2.5-2.4-3.7C54.1,73.9,51.9,69.2,49.7,65.9z"/>
				<path class="restitution8" d="M60.4,82.6c0.7,1.4,1.2,2.2,2.2,2.8c2.6,1.6,4.2,0.6,4.4,0.3c-0.1-0.2-0.3-0.3-0.4-0.4
					c-0.5-0.2-1.4,0.3-1.7,0.2c-0.8-0.1-1.7-0.5-2-1.2c-0.4-0.7-0.6-1.7-0.8-2.5c0.5,0.4,0.9,0.8,1.1,1.1c0.5,1.1,1.3,2.4,2,1.7
					c-0.4-0.7-0.9-1.7-1.2-2.4c-0.4-0.8-0.7-1.4-1.7-2.1c-0.8-0.6-1.8-1-2.7-1.9c-2.7-4.4-3.3-8.9-5.8-13.4c0.7-2.2,1.5-5.1,2.4-9
					c0.4-1.5,0.7-2.7,0.9-3.8c0.4-2.4,0.1-4.2-0.7-5.3c-1.2,1.9-3.4,13-4.5,18.8c2.4,4.2,3.8,8.2,5.3,11.5
					C58.2,79.2,59.4,80.6,60.4,82.6z"/>
			</g>
			<g>
				<path class="restitution9" d="M55.3,80.5L51.5,75c0,0-3.8-4.9-4.3-6.8c-0.5-1.7-0.6-4.2-0.8-5.5c-0.5-4,1.2-8.9,3.6-15.7
					c1.1-2.9,3.1-4.3,4.5-4.9c2.7-0.4,4.9,2.6,3.9,7.1c-0.7,3.5-3.4,9.5-3.5,13.3c1.4,3,5.1,15.7,5.1,15.7S56.6,78.4,55.3,80.5z"/>
			</g>
			<path class="restitution3" d="M49.7,65.9c0,0-4.2-5.6,0.3-19c-2.4,6.8-4.1,11.7-3.6,15.7c0.2,1.3,0.2,3.8,0.8,5.5c0.6,1.8,4.3,6.8,4.3,6.8
				l3.7,5.6c0.4-0.6,0.9-1,1.4-1.3L49.7,65.9z"/>
			<g>
				<path class="restitution6" d="M69.8,39.3c0.1-0.3,0.2-0.5,0.3-0.8c0.3-0.8,0.3-2.5,0.8-4.3l-7.3-3.2l-1.6-0.8c0.6,2.7,0.2,4.4-0.5,6.3
					c-0.1,2.6,4.9,4.5,7.7,5.1C69.5,41.1,69.5,40.1,69.8,39.3z"/>
				<path class="restitution7" d="M62.2,38.3c2.6-0.9,4.7,0.2,8.1-0.7c0.1-0.9,0.2-2.1,0.6-3.3l-7.3-3.2l-1.6-0.8c0.6,2.7,0.2,4.4-0.5,6.3
					C61.5,37.2,61.8,37.8,62.2,38.3z"/>
			</g>
			<path class="restitution6" d="M70,37.3c-0.9-0.4-3.4-1.5-4.3-2.1c-1.8-1.1-1.4-3-3.4-4.6C60.6,29.9,60.3,29,60,28c-0.7-2.3-0.1-5,1.5-6.7
				c1.4-1.5,3.1-2.1,5.3-2c3.9,0.2,6.2,2.9,6.8,6.1c0,0.2,0.2,0.3,0.3,0.5c0.1,0.3,0.1,0.5,0.1,0.9c-0.1,0.7-0.1,0.4-0.1,0.9
				c0,0.6,0.5,1.1,0.5,1.8c0.1,1.3-0.1,2.1-0.2,3.5c0,0.5-0.2,1.1-0.1,1.7c0,0.9-0.1,1.3-0.2,1.5c-0.2,0.3-0.5,0.5-0.9,0.7
				c-0.6,0.3-1.3,0.6-1.7,0.6C70.7,37.5,70.3,37.4,70,37.3z"/>
			<path class="restitution7" d="M70,37.3c-0.9-0.4-3.4-1.5-4.3-2.1c-1.8-1.1-1.4-3-3.4-4.6C60.6,29.9,60.3,29,60,28c-0.7-2.3-0.1-5,1.5-6.7
				c1.4-1.5,3.1-2.1,5.3-2c0.1,0,0.1,0,0.2,0l0,0c3.4,0.3,5.5,2.1,6.3,4.8c-0.4,0.4-3.9,1.6-6.7,1.9c-1.1,0.9-0.8,1.7,0,2.7
				c0.3,0.4,0.4,0.6,0.3,0.7c-0.2,0.3-0.2,0.2-0.6,0.5c-0.4,0.3-0.2,0.9,0.1,1.3c0.6,0.5,1.7,1,2,1.2c0.9,0.6,1.3,1.8,1.4,2.6
				c0.2,1.1,0.6,2.5,2.4,2.2c-0.4,0.2-0.8,0.2-1.1,0.2C70.7,37.5,70.3,37.4,70,37.3z"/>
			<path class="restitution5" d="M64.7,29.5c-0.6-2,0.4-2.4-0.1-3.6c-0.8-1.7-3.7-2.2-4.1-3c-1.3,1.9-1.2,5.1,0.6,7c0.9,1,1.2,1.4,1.5,2.9
				c0.4-0.8,0.4-1,0.5-1.7c-0.1-0.1-0.2-0.2-0.3-0.4c-0.2-0.4-0.7-0.3-0.9-0.9c-0.2-0.8-0.3-2.1,0.9-1.8c0.5,0.1,0.9,0.6,1,1.1
				c0.1,0.2,0.2,0.5,0.3,0.7C64.2,29.8,64.4,29.6,64.7,29.5z"/>
			<path class="restitution4" d="M66.4,27c0,0,6.3-1.4,6.8-2.8c0-1.3-1.4-4.9-1.4-4.9s-4-1.7-8.6-0.4c-4.5,2.1-3.7,7.2-3.7,7.2
				S64.5,27,66.4,27z"/>
			<path class="restitution4" d="M59.5,26.2c0,0,8.2,2.1,9.1,2.2c1,0.1,8.3-1.9,9.2-2.8c-3.2-1-4.8-1.7-4.8-1.7L59.5,26.2z"/>
			<path class="restitution4" d="M59.5,26.2c0,0,10.2,3.2,11.2,3.3c1,0.1,8-2.2,8.8-3.3c-3.4-1-6.4-2-6.4-2L59.5,26.2z"/>
			<path class="restitution5" d="M71.6,19.5c0,0-2.5,0.8-3.7,1c-1.2,0.2-3.1,3.2-2.9,4.8c0.3,1.6,8-1.3,8-1.3L71.6,19.5z"/>
			<path class="restitution5" d="M59,54.7l-1.8-0.9l-2.3,7.1l0,1.5l0.5,1.3C55.4,63.7,59.7,59.7,59,54.7z"/>
			<path class="restitution5" d="M59,54.7l3.4,4.3l-0.3,4.8c0,0-5,5-5.1,4.5c-0.1-0.5-1.5-4.5-1.5-4.5l1.7-8.1L59,54.7z"/>
			<path class="restitution4" d="M60.2,56.2c0,0-1.7,13.2-1.1,12.8c0.6-0.4,3.3-10.1,3.3-10.1L60.2,56.2z"/>
		</g>
		<g>
			<g>
				<g>
					<path class="restitution10" d="M100.1,53.8l-2.6-1.5l-8.2-4.7L68.1,59.7l8.2,4.7L79,66l9.1,5.2L109.1,59l0,0L100.1,53.8z"/>
				</g>
				<polygon class="restitution11" points="88,71.2 88,98.3 78.9,93.1 76.3,91.6 68.1,87 68.1,59.7 				"/>
				<g>
					<path class="restitution12" d="M88,71.2l0,27.1l21.1-12.1V59L88,71.2z"/>
				</g>
			</g>
			<polygon class="restitution13" points="76.2,64.3 96.9,51.9 99.7,53.6 78.9,66 			"/>
			<polygon class="restitution14" points="78.9,77.7 76.2,76 76.2,64.3 78.9,66 			"/>
			<polygon class="restitution15" points="77.6,76.8 77.5,76.8 77.5,65.1 77.5,65.1 98.4,52.8 98.5,52.9 77.6,65.2 			"/>
		</g>
	</g>
	<g>
		<g>
			<path class="restitution16" d="M138.8,72.4c-1.2-3.1-3.2-4.2-5.2-5.5c-0.7-0.3-2.6-1.6-4.9-2.6c-4.2-1.8-9.3-3.6-10.7-4.4
				c-0.2,1.9,13,9.7,14.2,10.4C132.8,70.8,139.5,74.2,138.8,72.4z"/>
		</g>
		<g>
			<path class="restitution17" d="M129.6,53c-0.6,1.8-0.1,4.1,0.5,6.7c0.1,3.1,0.8,7,1.4,10.8c0.7,4.8,2.7,6.4,4.7,6.5
				c-3.7-6.4-3.8-23-1.4-26.3C132,49.8,130.1,51.3,129.6,53z"/>
		</g>
	</g>
	<g>
		<path class="restitution18" d="M134.4,50.6c5.6,1.4,5.9,8.2,4.9,14c-1,5.6-2.9,10.3-3.4,15.3c-0.3,3.4,0.5,7,1,11.2c0,0.2-0.2,2.8-4.2,5.3
			c-5.8,3.7-17.2,3.2-16.7-2.6c0.3-3.5-0.8-7.2-1.5-10.2c-1.4-5.8-6.2-15.2-4-21c0.5-1.2,1.4-1.7,2.2-2.6c3.9-3.8,16.5-9.4,19-9.7
			C132.9,50.3,133.7,50.4,134.4,50.6z"/>
		<path class="restitution0" d="M134.4,50.6c0.3,0.1,0.6,0.2,0.9,0.3c-1.7,0.5-3.7,1.2-5.8,2c-4.9,2-8.9,4.4-12.6,8.2
			c6.2,5.8,2.7,22,1.9,28.6c-0.3,2.1-0.3,4.9-0.2,7.9c-1.5-0.8-2.6-2-2.6-3.7c0.2-3.5-1-7.2-1.5-10.3c-0.4-1.6-1.1-3.6-1.8-5.6
			c-1.8-5.2-3.8-11.2-2.1-15.3c0.5-1.2,1.4-1.7,2.2-2.6c3.9-3.8,16.5-9.4,19-9.7C132.9,50.3,133.7,50.4,134.4,50.6z"/>
		<path class="restitution0" d="M112.1,75.9c-2.7-8.2-3.6-12.6-0.5-14c2.8-1.2,5.1-0.3,6.2,1.7C120.5,68.8,116.4,76.3,112.1,75.9z"/>
	</g>
	<g>
		<path class="restitution18" d="M132,165.3c0.5,0.5,1.2,0.8,2.4,1.5v1.1c1.3,2.3,2.5,3.3,4.2,2.8c2.3-0.7,3-1.2,3-2.9
			c0.3-2.8,0.3-3.3-0.4-5.4c-2.3-1.5-3.3-1.8-5-2.3c-1.3-0.4-3.3-1.6-5.3-2.1c-1.1-0.3-1.8,0.7-1.9,1.4
			C129,161.2,130.5,163.8,132,165.3z"/>
		<path class="restitution19" d="M132,165.3c0.5,0.5,1.2,0.8,2.4,1.5v1.1c1.3,2.3,2.5,3.3,4.2,2.8c2.3-0.7,3-1.2,3-2.9
			c0.1-1.5,0.2-2.4,0.1-3.2c-3,1.6-5.6,1.4-8.5-1.5c-0.9-0.9-3.4-3.2-3.6-4.9c-0.4,0.3-0.6,0.8-0.6,1.2
			C129,161.2,130.5,163.8,132,165.3z"/>
	</g>
	<g>
		<path class="restitution19" d="M125.1,170.1c-0.6-0.2-2.3-2.7-4.6-2.2c-2.8,0.6-6-1-8.5-1c-0.4,0-1-0.1-1.3,0.1c-1.2,0.9-1.3,1.8-0.3,3
			c0.8,0.9,2.1,2,3.3,2.7c1.2,0.8,2.2,1.5,3.7,2.1c1.1,0.5,1.9,0.4,2.9,0.8l0.1,0.9c0.8,0.7,1.7,1.1,2.3,1.2
			c1.4,0.1,3.1-0.8,4.3-2.1c0.1-1.5,0.7-2.9-0.1-5.1L125.1,170.1z"/>
		<path class="restitution19" d="M110,167.7c-0.5,0.7-0.3,1.4,0.4,2.3c0.8,0.9,2.1,2,3.3,2.7c1.2,0.8,2.2,1.5,3.7,2.1
			c1.1,0.5,1.9,0.4,2.9,0.8l0.1,0.9c0.8,0.7,1.7,1.1,2.3,1.2c1.4,0.1,3.1-0.8,4.3-2.1c0.1-1.1,0.4-2.2,0.3-3.7
			c-3.1,2.4-5,0.8-6.2,0.7c-1.8-0.1-4.3,0.1-8.2-2.8C112,169.2,111,168.5,110,167.7z"/>
		<path class="restitution18" d="M119,170.9c-0.7-1.3-0.7-2.1-0.5-2.6l-4.9-1c-2.4-0.5-2.9,0-2.3,0.5C113.5,169.8,116.3,170.2,119,170.9z"/>
	</g>
	<g>
		<path class="restitution20" d="M139.4,63.6c0,0.3-0.1,0.6-0.2,0.9c-1.1,6.4-3.1,10.4-3.4,16.1c0,0.4-0.2,1.5-0.2,1.9
			c-0.2,7,4.2,14.9-2.6,19c-0.5,0.3-1,0.6-1.6,0.9c1.3,5.8-1.7,11.1-4,13.6c-0.5,6.1-0.3,21.6-0.4,24.8c1.3,3,1.4,5,1.7,8.4
			c0.4,4.1-0.5,15.1-1,22.6c-2.4,2.5-8.6,0.1-9.1-2.4c-0.8-8.7-0.6-20.9-2.1-29.7c-0.8-4.7-2.3-14.7-2.5-24
			c-0.1-5.6,0.6-10.9,1.4-15.1c0.2-1.3,0.2-2.4,0.6-3.5c0.2-2.6,0.1-6.1-0.1-7.9c0.4,0.4,0.8,0.6,1.2,0.6c1.9,0.1,3.7-0.7,4.3-5.7
			c0.5-4.4,0.8-9.2,0.9-10.9c0.2-3.4,0.4-3.9,2-4.4c4.2-1.5,9.1-3.8,12.3-7.2c1.1-1.2,2.6-1.4,2.8,0.8
			C139.4,62.6,139.4,63.1,139.4,63.6z"/>
		<path class="restitution20" d="M124.4,103.1c0.8,5.9,2.2,27.5,4.2,32.4c2.9,7.3,3.8,18.5,5.5,26.6c0.3,0.9,1.1,2.1,2.4,2.8
			c2.1,1,4.9,1.1,5.5-0.4c-0.5-7.4-0.3-16.8-0.6-21c-0.3-4.6-1.4-9.2-3.2-11.9c-0.2-3.3-0.5-15.6,0.1-21.7c0.2-2.2,3-9.9-1.3-14.9
			l-5.4,2L124.4,103.1z"/>
		<path class="restitution20" d="M115.3,99.9c-0.7,3.5-1.3,8-1.3,12.8c0,10.4,1.6,22.1,2.5,27c1.5,8.7,1.3,21,2.1,29.7c0.3,1.2,1.9,2.4,3.8,3
			c0.2-7.5,0.2-18.2,0-23.9c-0.2-6.2-0.8-4.2-1.4-6.9c-0.3-7.3-0.7-23.9-0.8-34.9c0-1.4,0.1-2.7,0.2-4c0.5-2.1,0.2-3.8,0.2-5.9
			c0.1-3.1-0.2-6.4-0.2-8.9c0,0,0,0-0.1,0c-0.8,1.6-2,1.9-3.3,1.8c-0.6,0-1.1-0.4-1.6-1l0,0C116,91.9,115.9,96.7,115.3,99.9z"/>
	</g>
	<g>
		<g>
			<path class="restitution21" d="M121.3,45.2c2-1.8,3.9,4,0.7,3.9C123.2,47.9,122.3,45.8,121.3,45.2z"/>
			<g>
				<path class="restitution17" d="M117.2,50.5c0.7,0.3,4.2-0.2,4.1,0.2c-0.1,2-0.8,3-0.7,6.5c4.1,2.9,9.9-0.5,9.5-2.6c0-1.4-0.7-5.4,0-6.6
					c0.8-1.3,2.5-2.8,3.1-4.8c0.6-2.1,0.7-4.4-0.2-6.4c-0.5-1-1.2-2-2.2-2.8c-4.9-3.6-12.5-1.3-14.3,5.1c-0.3,1.2,0.6,1.9,0.6,3
					c0,0.2-0.3,0.4-0.5,0.9C116.3,43.6,116.3,50.1,117.2,50.5z"/>
				<path class="restitution21" d="M117.2,50.5c0.7,0.3,4.2-0.1,4.1,0.2c-0.1,2-0.8,3-0.7,6.5c2.4-3.6,3.5-5.5,9.2-7.5c0-0.7,0.1-1.3,0.3-1.7
					c0.8-1.3,2.5-2.8,3.1-4.8c0.6-2.1,0.7-4.4-0.2-6.4c-0.5-1-1.1-2-2.2-2.8c-5.1-3.7-12.5-1.3-14.3,5.1c-0.3,1.2,0.6,1.9,0.6,3
					c0,0.2-0.3,0.4-0.5,0.9C116.3,43.6,116.4,50.1,117.2,50.5z"/>
				<path class="restitution17" d="M117.3,50.5c0.4,0.2,1.9,0.1,3-0.4c0.7-0.3,1.2-0.9,1.3-0.9c0.5-0.2,1.5-1.7-0.1-4c-1.6-2.3,8,3.6,8.5,2.8
					c0.8-1.3,2.5-2.8,3.1-4.8c0.6-2.1,0.7-4.5-0.2-6.5c-0.5-1-1.1-1.9-2.2-2.7c-5.4-3.7-12.5-1.3-14.3,5.1c-0.3,1.2,0.6,1.9,0.6,3
					c0,0.2-0.3,0.4-0.5,0.9C116.3,43.6,116.5,50.1,117.3,50.5z"/>
				<path class="restitution22" d="M117.2,50.5c0.1,0.1,1,0.1,1.4-0.1c0.5-0.5,1-1.6,1-2.2c-0.1-2.1-1.1-3.8-1.1-4.6c0-1.8,0.6-0.9-0.1-2.8
					c-0.5-1.5,0.2-1.7,0.5-3c-0.8-0.3-1.1-0.9-1.2-1.2c-0.5,0.8-0.8,1.6-1.1,2.5c-0.3,1.2,0.6,1.9,0.6,3c0,0.2-0.3,0.4-0.5,0.9
					C116.3,43.6,116.4,50,117.2,50.5z"/>
				<path class="restitution23" d="M130.1,49.3c0.3-2.2,2.4-4,3.1-6.4c0.9-3.1,0.6-6.5-2.3-8.7c-4.1-3.3-9.5-1.5-12.2,2.1
					c-0.1,0.2,0.4,1.4,1,1.8c-0.7,2-0.5,2.5-0.2,2.9c1.2,1.7,1.2,1.9,1.1,4.4l0.7,0.5c0.3-2,1.2-1.8,2-1.2c1.5,1.2,0.8,5.3,4.2,5.5
					C128.5,50.3,129.7,50,130.1,49.3z"/>
				<path class="restitution23" d="M130.1,49.3c0.3-2.2,2.4-4,3.1-6.4c0.2-0.8,0.4-1.6,0.4-2.4c-3.1,2.5-8.8,2.5-14.3-0.3
					c0,0.4,0.1,0.7,0.2,0.8c1.2,1.7,1.2,1.9,1.1,4.4l0.7,0.5c0.9,0.2,1.6,2,3.2,3.5C126.1,50.9,129.9,50.7,130.1,49.3z"/>
				<path class="restitution23" d="M130.1,49.3c0.1-0.8,0.5-1.6,0.9-2.3c-1.5,1.4-5.6,1.7-8.4,0.2c0.3,1.3,1.6,2.5,3.1,3.1
					C127,50.8,129.6,50.9,130.1,49.3z"/>
				<path class="restitution24" d="M130.2,39.1c-2.7,0.8-7.5,0-10.2-1.6c-2.4-1.4-2.1-3.1-1.7-3.9c0.5-0.9,2.5-1.6,5-1.6
					c-0.4-0.1-0.7-0.1-1-0.2c3.1-0.6,5-0.3,7.5,1.2c-0.1-0.2-0.2-0.3-0.3-0.4c1.1,0.4,3.8,2.8,3.4,4.3
					C132.8,37.7,131.6,38.6,130.2,39.1z"/>
				<path class="restitution24" d="M119.7,32.6c0.9-0.4,2.2-0.6,3.7-0.6c-0.4-0.1-0.7-0.1-1-0.2c3.1-0.6,5-0.3,7.5,1.2
					c-0.1-0.2-0.2-0.3-0.3-0.4c0.7,0.2,2,1.3,2.8,2.4c-2-1.4-3.8-1.6-7.8-1.7c0.6-0.1,1-0.2,1.3-0.3
					C124.1,33.1,121.5,32.5,119.7,32.6L119.7,32.6z"/>
				<path class="restitution23" d="M130.2,39.1c-2.7,0.8-7.6,0-10.3-1.6c-2.2-1.3-2.7-3.7-0.6-4.6c-0.4,0.9,0.2,2.7,2.3,3.5
					c0.2,0.1,0.1-0.2-0.1-0.7c1.2,0.2,2.6,1.7,3.8,2.1c-0.5-0.3-0.6-0.4-0.9-0.8c2,0.7,3.2,0.3,5.4,0.8c-0.3-0.2-0.6-0.3-0.9-0.5
					c1.7,0.2,3,0,4-0.4c0,0.1,0,0.1,0,0.2C132.8,37.7,131.6,38.6,130.2,39.1z"/>
			</g>
		</g>
		<g>
			<path class="restitution18" d="M129.8,52.4c-0.1,2-5.4,3.5-9.1,2.1l0-0.4c-1,0.3-2.6,1.7-2.7,2.8c2.8,2.9,13,1,12.7-2.8
				C130.7,53.4,130.5,52.6,129.8,52.4z"/>
			<path class="restitution18" d="M129.9,52c-0.1,1.7-4.1,3.4-7.5,3c0.6,0.4,3,0.5,3.9,0.3c1.5-0.2,1.9,1.3,0.8,1.9c-0.8,0.4-2.2,0.9-4.2,1.2
				c3.7,0.3,8.2-1.7,8-4.2C130.9,53.4,130.6,52.2,129.9,52z"/>
		</g>
		<g>
			<path class="restitution22" d="M121.3,46.1c-0.3-0.8,0-1.1,0.3-1c0.4,0.1,1,0.7,1.2,1.5c0.5,1.4-0.2,3.1-1.5,2.4c1.1,0.1,1-1.3,0.7-2.1
				C121.8,46.3,121.4,45.9,121.3,46.1z"/>
		</g>
	</g>
	<path class="restitution18" d="M136.4,87.2l1.6,9.2c0,0-5.5,8.1-17.8,6.9c-4.2-1.1-5.2-2.1-5.2-2.1l0.3-13.4c0,0,4.2-18.3,7.8-18.6l5.3-8.3
		l11.4-1.1c0,0-0.3,8.5-1.8,15.6C136.4,82.6,136.2,85.8,136.4,87.2z"/>
	<path class="restitution18" d="M133.7,51.5"/>
	<path class="restitution0" d="M133.7,51.5c0,0,2.2,0.1,4.4,1.5c-1-1.1-1.4-1.6-3.2-2.3c-1.8-0.7-2.1,0.5-2.1,0.5L133.7,51.5z"/>
	<path class="restitution17" d="M121.2,45.1c0-0.2,0.2-0.4,0.4-0.4c0.2,0,0.4,0,0.6,0.1c0.6,0.3,1.1,0.9,1,1.5c0,0.3-0.2,0.6-0.3,0.9
		c-0.1,0.3-0.3,0.5-0.5,0.7c-0.1,0.1-0.2,0.1-0.3,0.2c-0.3,0-0.5-0.3-0.5-0.6c0-0.3,0.1-0.6,0.1-0.9c0-0.5-0.2-1-0.5-1.3L121.2,45.1
		z"/>
	<g>
		<path class="restitution25" d="M108,85.7l-4.7,3c-1.8,1.2-5.4,3.6-7.5,3.6c-1.6,0-2.4,0.1-3.6,0.4C90.3,93.3,90.4,94,89,94
			c-1.4,0-2,0.2-2.1,0.4c-0.1,0.9,1.6,1.2,2.4,1.2l0.8,0.1l-2,1.1c-0.8,0.5-2.6,0.4-3.6-0.2l1.6,1.6l3.5,1.5c0.8,0.3,3-2.3,6.7-3.7
			c5.7-2.1,13.7-3.4,15.4-4.1c1.6-1.1,2.4-2.3,2.4-3.3c-0.1-1.2-1.2-2.2-2.5-2.8C110.5,85.4,109.5,85.3,108,85.7z"/>
		<path class="restitution16" d="M109.4,88.2c-2.1-0.2-3.1-0.3-4-0.8c-1.1,0.2-3.8,2.5-5.4,3.4c-1.2,0.7-2.4,1.3-3.8,1.5
			c-1.1,0.1-2.4,0-3.8,0.3c-1,0.2-1.7,0.8-2.3,1.1c1.7-0.2,2.3,0.1,4.5-0.2c0.5-0.1,1.1-0.1,1.5-0.2C101.3,92.4,104,90.4,109.4,88.2
			z"/>
		<path class="restitution17" d="M96.4,96.2c-0.9,0.3-1.4,1.4-2.6,2.1c-1.4,0.8-3.6,1.6-4.3,1.3l-3.4-1.4l-0.8-0.9c1.1,0.3,2.3,0.6,3.1,0.2
			c1.2-0.5,2.8-1.6,3.7-1.9l-0.8-0.1c-0.9-0.1-2.1-0.1-3-0.3c-0.6-0.1-1.3-0.4-1.4-0.8c0.5,0.2,0.9,0.4,1.3,0.4c2,0.3,3.5,0.3,4.7,0
			c1.2-0.3,2-1.1,3.6-1c3.4,0.3,16.1-3.5,17.3-6.3c0.2,0.3,0.3,0.6,0.3,0.9c0,0.6-0.2,1.2-0.7,1.9c-0.5,0.6-1,1.1-2.2,1.7
			C104.5,95.6,102,94.3,96.4,96.2z"/>
		<path class="restitution17" d="M86.1,98.3c0,0,1.5,1.3,2.5,1.5c1.1,0.2,2.3-0.2,2.3-0.2l-2-1.9"/>
		<path class="restitution16" d="M87.5,96.9l-0.6,0.9l-1.7-0.4l-0.7-0.8c0-0.1,0-0.1,0-0.2l0.3-0.3c0.2-0.2,0.5-0.2,0.7,0
			C85.9,96.6,86.6,97.1,87.5,96.9z"/>
	</g>
	<path class="restitution26" d="M116,65.6c-1.4-2.3-2.9-3.4-4.4-4.1c-2.4,1.6-3.6,5.7-3.8,8.2c-0.4,4-0.9,10.9-1,14.8
		c-2.9,2.4-6.6,3.9-9.8,5.9c-1.9,1.2-1.8,2-1.3,3.5c0.9,2.6,1,3,2.8,2.6c5.4-1,7-1.2,9.8-2.3c1.9-0.7,5.7-1.9,6.2-2.6
		c0.5-0.8,0.8-1.8,0.9-2.9c0.9-2.2,2.2-7,2.5-8.6C118.7,74.7,119.2,70.8,116,65.6z"/>
	<path class="restitution18" d="M115.4,65.2c0,0,0.5-2.6,1.4-3.9s10.4,0,10.4,0l4.7,3.9c0,0-1.5,8.6-1.9,9.6c-0.4,1-3.9,6.2-3.6,7.1
		c0.3,0.9-1.8,2.9-2.1,3.8s-4,3.5-4.1,2.5c-0.1-1-4.7-2.5-4.7-2.5l1.9-13.2L115.4,65.2z"/>
	<path class="restitution20" d="M115.3,87.9l-0.1,4.4c0.5-0.7,0.7-1.7,0.8-2.7c0.9-2.2,2.2-7,2.5-8.6c0.4-2.2,0.7-4.1,0.7-6
		C117.1,80.4,115.3,87.9,115.3,87.9z"/>
	<path class="restitution18" d="M116,65.6c-0.1-0.2-0.3-0.4-0.4-0.6c-0.5,1.7-0.8,3.9-0.6,6c0.5,5-3.1,16.4-3.1,16.4s-0.4,1.5-4.1,3.2
		c-3,1.3-9.1,4-11.5,5c0.5,1,0.9,1.1,2.1,0.8c5.4-1,7-1.2,9.8-2.3c1.9-0.7,5.7-1.9,6.2-2.6c0.5-0.8,0.8-1.8,0.9-2.9
		c0.9-2.2,2.2-7,2.5-8.6C118.7,74.7,119.2,70.8,116,65.6z"/>
	<path class="restitution18" d="M121.3,56.4l-0.1,4.1c0,0,5.4,1.8,5.7,1.7c0.3-0.2,6.2-1.1,6.4-1.4c0.2-0.3,1.8-3.6,1.8-3.9
		c0-0.3-1.3-1.9-1.3-2.2c0-0.2-3-0.5-3-0.5s-4.4,1.5-4.7,1.6C125.8,55.9,121.3,56.4,121.3,56.4z"/>
</g>
</svg>
