<svg width="23" height="20" viewBox="0 0 23 20" fill="none" xmlns="http://www.w3.org/2000/svg">
  <rect x="11.0264" y="13.1316" width="6.36842" height="6.36842" rx="0.5" stroke="#9D9D9D"/>
  <rect x="0.5" y="0.5" width="10.5789" height="10.5789" rx="0.5" stroke="#9D9D9D"/>
  <rect x="5" y="11" width="1" height="5" fill="#9D9D9D"/>
  <rect x="5" y="11" width="1" height="5" fill="#9D9D9D"/>
  <path d="M11 16L11 17L6 17C5.44772 17 5 16.5523 5 16L11 16Z" fill="#9D9D9D"/>
  <path d="M11 16L11 17L6 17C5.44772 17 5 16.5523 5 16L11 16Z" fill="#9D9D9D"/>
  <path d="M22.5 16C22.7761 16 23 16.2239 23 16.5C23 16.7761 22.7761 17 22.5 17L17 17L17 16L22.5 16Z" fill="#9D9D9D"/>
  <path d="M22.5 16C22.7761 16 23 16.2239 23 16.5C23 16.7761 22.7761 17 22.5 17L17 17L17 16L22.5 16Z" fill="#9D9D9D"/>
</svg>
