<svg width="24" height="24" viewBox="0 0 24 24" fill="none" xmlns="http://www.w3.org/2000/svg">
  <path fill-rule="evenodd" clip-rule="evenodd"
        d="M4.66666 9L1 13H7.5C8.05228 13 8.5 13.4477 8.5 14V16C8.5 16.5523 8.94772 17 9.5 17H14.5C15.0523 17 15.5 16.5523 15.5 16V14C15.5 13.4477 15.9477 13 16.5 13H23L19.3333 9L14.5 9C14.5 9 14 9 14 8.5C14 8 14.5 8 14.5 8H20L24 13V21C24 22.6569 22.6569 24 21 24H3C1.34315 24 0 22.6568 0 21L3.93391e-06 13L4 8H9.5C9.5 8 10 7.99999 10 8.5C10 9.00001 9.5 9 9.5 9L4.66666 9ZM1 14H7.5V16C7.5 17.1046 8.39543 18 9.5 18H12H14.5C15.6046 18 16.5 17.1046 16.5 16V14H23V21C23 22.1046 22.1046 23 21 23H3C1.89543 23 1 22.1046 1 21V14Z"
        fill="white"/>
  <path
    d="M11.9719 14C12.098 13.9952 12.2442 13.9428 12.3359 13.8566L15.3358 11.0331C15.5075 10.8415 15.5785 10.4747 15.38 10.261C15.1842 10.0501 14.8044 10.057 14.6079 10.2666L12.5012 12.2518L12.5 0.5C12.5 0.20773 12.264 0 11.9717 0C11.6794 0 11.5 0.20773 11.5 0.5L11.4424 12.2518L9.33569 10.2666C9.1544 10.086 8.76148 10.0522 8.56364 10.261C8.3658 10.4692 8.42921 10.8497 8.60775 11.0331L11.6077 13.8566C11.7105 13.9531 11.8313 14 11.9719 14Z"
    fill="white"/>
</svg>
