<svg width="24" height="24" viewBox="0 0 24 24" fill="none" xmlns="http://www.w3.org/2000/svg">
  <path
    d="M2 19V4C2 2.89543 2.89543 2 4 2H16.0429C16.1755 2 16.3027 2.05268 16.3964 2.14645L20.8536 6.60355C20.9473 6.69732 21 6.8245 21 6.95711V19C21 20.1046 20.1046 21 19 21H4C2.89543 21 2 20.1046 2 19Z"
    stroke="white" stroke-linejoin="round"/>
  <circle cx="11.8955" cy="15.0625" r="3.5625" stroke="white"/>
  <path
    d="M4.85059 5.35327C4.85059 5.07713 5.07444 4.85327 5.35059 4.85327H14.8006C15.0767 4.85327 15.3006 5.07713 15.3006 5.35327V9.10327C15.3006 9.37941 15.0767 9.60327 14.8006 9.60327H5.35059C5.07444 9.60327 4.85059 9.37941 4.85059 9.10327V5.35327Z"
    stroke="white" stroke-linecap="round" stroke-linejoin="round"/>
</svg>
