<svg width="24" height="24" viewBox="0 0 24 24" fill="none" xmlns="http://www.w3.org/2000/svg">
  <path fill-rule="evenodd" clip-rule="evenodd"
        d="M12.0001 16.2605C9.54907 16.2605 7.55566 14.2671 7.55566 11.816C7.55566 9.36498 9.551 7.37158 12.0001 7.37158C14.4512 7.37158 16.4446 9.36498 16.4446 11.816C16.4465 14.2671 14.4512 16.2605 12.0001 16.2605ZM12.0007 8.86464C10.3718 8.86464 9.04547 10.191 9.04547 11.8198C9.04547 13.4507 10.3718 14.775 12.0007 14.775C13.6295 14.775 14.9559 13.4487 14.9559 11.8198C14.9578 10.189 13.6314 8.86464 12.0007 8.86464Z"
        fill="white"/>
  <path fill-rule="evenodd" clip-rule="evenodd"
        d="M12.0082 22C11.5689 22 11.1236 21.9698 10.6843 21.9113C10.3881 21.871 10.1403 21.6635 10.0496 21.3794C9.838 20.7144 9.34833 20.1805 8.70755 19.9124C8.07078 19.6464 7.33528 19.6787 6.7207 19.993C6.45472 20.13 6.13232 20.0998 5.89452 19.9185C5.1973 19.3824 4.57668 18.7598 4.05077 18.0687C3.86942 17.8309 3.8412 17.5105 3.97823 17.2445C4.30064 16.6199 4.33489 15.8985 4.07495 15.2658C3.81501 14.633 3.28101 14.1474 2.61205 13.9318C2.32794 13.8391 2.1224 13.5933 2.08413 13.2971C1.97129 12.4346 1.97129 11.5561 2.08816 10.6856C2.12847 10.3894 2.33601 10.1415 2.62011 10.0508C3.28509 9.83926 3.81904 9.3496 4.08708 8.7068C4.35508 8.06601 4.32485 7.34062 4.00648 6.71995C3.86946 6.45397 3.89968 6.13157 4.08305 5.89377C4.61907 5.19655 5.2417 4.57794 5.93283 4.05002C6.17061 3.86867 6.49098 3.84046 6.75701 3.97748C7.37561 4.29787 8.10306 4.33616 8.73575 4.0742C9.36849 3.81426 9.85411 3.28026 10.0717 2.61131C10.1644 2.32719 10.4102 2.12165 10.7065 2.08339C11.5649 1.97054 12.4495 1.97256 13.3179 2.08742C13.6141 2.12772 13.862 2.33527 13.9527 2.61936C14.1643 3.28434 14.6539 3.8183 15.2947 4.08633C15.9335 4.35231 16.669 4.32007 17.2816 4.00573C17.5476 3.86871 17.8699 3.89893 18.1078 4.08028C18.805 4.6163 19.4256 5.23893 19.9515 5.93007C20.1329 6.16784 20.1611 6.48822 20.024 6.75424C19.7016 7.37888 19.6674 8.1003 19.9273 8.73299C20.1873 9.36573 20.7213 9.85135 21.3902 10.0669C21.6743 10.1596 21.8799 10.4054 21.9181 10.7017C22.031 11.5641 22.031 12.4427 21.9141 13.3132C21.8738 13.6094 21.6663 13.8572 21.3822 13.9479C20.7172 14.1595 20.1832 14.6492 19.9152 15.292C19.6472 15.9327 19.6774 16.6581 19.9958 17.2788C20.1328 17.5448 20.1026 17.8672 19.9192 18.105C19.3832 18.8022 18.7606 19.4208 18.0694 19.9487C17.8317 20.1301 17.5113 20.1583 17.2453 20.0213C16.6267 19.7029 15.8992 19.6646 15.2665 19.9245C14.6358 20.1845 14.1482 20.7185 13.9306 21.3874C13.8379 21.6716 13.592 21.8771 13.2958 21.9154C12.8706 21.9698 12.4374 22 12.0082 22V22ZM11.1872 20.7497C11.6491 20.7857 12.1109 20.7878 12.5728 20.7518C13.0093 19.8323 13.7635 19.1055 14.7021 18.7179C15.6365 18.3322 16.6895 18.3153 17.6471 18.6606C17.9967 18.3619 18.3251 18.0357 18.6281 17.6818C18.287 16.7263 18.3103 15.6754 18.7065 14.7283C19.1006 13.7813 19.8294 13.0228 20.7489 12.5906C20.7849 12.1287 20.787 11.6647 20.751 11.2049C19.8315 10.7685 19.1048 10.0142 18.7171 9.07352C18.3294 8.13492 18.3145 7.08616 18.6599 6.12852C18.3611 5.77894 18.0349 5.45054 17.681 5.14756C16.7276 5.48655 15.6662 5.46113 14.7276 5.06917C13.7805 4.67509 13.022 3.94627 12.5898 3.02887C12.1279 2.99074 11.6661 2.99074 11.2042 3.02675C10.7677 3.94626 10.0135 4.673 9.07486 5.0607C8.14049 5.44631 7.0875 5.46326 6.12986 5.11791C5.78028 5.41664 5.45188 5.7429 5.1489 6.09675C5.49002 7.05228 5.46671 8.10315 5.07051 9.05021C4.67643 9.99728 3.94761 10.7558 3.0281 11.188C2.99208 11.6499 2.98996 12.1138 3.02598 12.5736C3.94549 13.0101 4.67223 13.7643 5.05993 14.705C5.44765 15.6436 5.46248 16.6924 5.11714 17.65C5.41587 17.9996 5.74213 18.328 6.09598 18.631C7.0515 18.292 8.11084 18.3195 9.04944 18.7094C9.99862 19.1035 10.7529 19.8323 11.1872 20.7497Z"
        fill="white"/>
</svg>
