<svg xmlns="http://www.w3.org/2000/svg" xmlns:xlink="http://www.w3.org/1999/xlink" width="61" height="62" viewBox="0 0 61 62">
    <defs>
        <path id="a" d="M.025.036h23.94V23.6H.026z"/>
        <path id="c" d="M0 .017h38.95v46.915H0z"/>
    </defs>
    <g fill="none" fill-rule="evenodd" opacity=".3">
        <path fill="#485053" d="M44.094 58.437a30.308 30.308 0 0 0 1.66-4.749c.403-1.575 1.202-3.044 2.194-4.037l.1-.094c.613-.595 1.336-1.027 2.04-1.219a43.87 43.87 0 0 0 8.217-3.207 1.18 1.18 0 0 1 .88-.081c.294.088.536.282.68.547.238.436.156.964-.204 1.313-.082.08-.175.146-.277.198a46.028 46.028 0 0 1-8.604 3.365l-.106.036c-.28.097-.425.162-.686.37l-.424.369c-.555.538-1.302 1.814-1.569 2.972a32.569 32.569 0 0 1-1.782 5.104 1.13 1.13 0 0 1-.634.597c-.286.11-.6.105-.883-.014a1.107 1.107 0 0 1-.602-1.47z"/>
        <g transform="translate(37 38)">
            <mask id="b" fill="#fff">
                <use xlink:href="#a"/>
            </mask>
            <path fill="#485053" d="M3.17 14.755c.657-2.607 1.958-4.982 3.665-6.688 1.34-1.323 2.82-2.206 4.45-2.672A36.889 36.889 0 0 0 22.172.24c.25-.173.554-.24.854-.186a1.135 1.135 0 0 1 .452 2.05A39.143 39.143 0 0 1 11.918 7.58c-1.294.376-2.387 1.033-3.44 2.068l-.448.405c-1.191 1.4-2.153 3.27-2.644 5.253a28.126 28.126 0 0 1-3.244 7.747 1.147 1.147 0 0 1-1.567.385 1.136 1.136 0 0 1-.397-1.542 25.84 25.84 0 0 0 2.993-7.14z" mask="url(#b)"/>
        </g>
        <path fill="#485053" d="M50.051 54.579l.023-.07a4.597 4.597 0 0 1 .335-.765 1.04 1.04 0 0 1 .603-.493 32.3 32.3 0 0 0 .552-.177l.068-.022c.269-.088.552-.064.8.07.25.132.433.358.518.635.12.39.021.81-.258 1.098a1.026 1.026 0 0 1-.4.257l-.207.074-.094.203c-.226.485-.77.725-1.267.558-.55-.185-.851-.799-.673-1.368zM31.01 59.01a1.13 1.13 0 0 1 .226-.838 20.406 20.406 0 0 0 3.641-7.533c.903-3.603 2.66-6.793 5.083-9.225 1.944-1.95 4.207-3.305 6.73-4.032a30.99 30.99 0 0 0 11.45-6.115c.233-.196.526-.289.828-.263.301.027.574.169.768.401a1.144 1.144 0 0 1-.14 1.602 33.232 33.232 0 0 1-12.278 6.557c-2.152.622-4.088 1.784-5.757 3.456-2.109 2.114-3.7 5.013-4.487 8.172a22.641 22.641 0 0 1-4.045 8.368 1.132 1.132 0 0 1-2.02-.55zM36.49 39.117c.143.002.295.002.462 0 .017 0 .027.005.036.016a.05.05 0 0 1 .012.028 17.656 17.656 0 0 0-2.31 2.813c-.006.01-.02.033-.056.024-.028-.006-.03-.021-.032-.035a17.642 17.642 0 0 0-.583-2.45.396.396 0 0 1 .062-.361.373.373 0 0 1 .338-.15c.688.068 1.385.107 2.07.115zM54.667 24.018c-2.183 2.276-4.728 4.038-7.564 5.237A21.98 21.98 0 0 1 38.5 31a21.98 21.98 0 0 1-8.604-1.745c-2.836-1.2-5.38-2.961-7.564-5.237a1.22 1.22 0 0 1 .001-1.672 1.102 1.102 0 0 1 1.603 0c3.89 4.054 9.063 6.287 14.565 6.29 5.503-.003 10.675-2.236 14.563-6.29a1.103 1.103 0 0 1 1.605 0c.43.449.442 1.172.035 1.635l-.036.037z"/>
        <path fill="#485053" d="M48.278 33.16a29.162 29.162 0 0 1-10.566 1.838c-7.47-.084-14.495-2.952-19.782-8.075a6.274 6.274 0 0 1-.002-9.052c2.574-2.495 6.763-2.495 9.337 0 2.877 2.782 6.705 4.319 10.78 4.329 4.076-.01 7.902-1.548 10.779-4.33a1.15 1.15 0 0 1 .806-.324c.305 0 .59.116.806.325.433.42.444 1.096.033 1.53-3.342 3.24-7.74 5.007-12.423 5.01-4.686-.004-9.087-1.771-12.392-4.977-1.687-1.628-4.429-1.628-6.113 0a4.115 4.115 0 0 0 0 5.925c4.863 4.713 11.326 7.352 18.198 7.429a26.83 26.83 0 0 0 9.719-1.69 26.101 26.101 0 0 0 8.618-5.294 1.168 1.168 0 0 1 1.613.04c.422.43.414 1.122-.02 1.542a28.419 28.419 0 0 1-9.391 5.774z"/>
        <g>
            <mask id="d" fill="#fff">
                <use xlink:href="#c"/>
            </mask>
            <path fill="#485053" d="M14.096 1.684A22.438 22.438 0 0 1 22.613.017 22.474 22.474 0 0 1 38.62 6.686c.213.213.33.496.33.799 0 .302-.116.586-.328.8-.438.442-1.15.442-1.588 0C29.081.279 16.15.278 8.206 8.283c-3.846 3.875-5.963 9.034-5.965 14.53.003 5.497 2.12 10.656 5.962 14.527L15.807 45a1.139 1.139 0 0 1 0 1.6 1.118 1.118 0 0 1-1.588 0L6.615 38.94c-8.82-8.892-8.82-23.361 0-32.254a22.44 22.44 0 0 1 7.481-5z" mask="url(#d)"/>
        </g>
        <path fill="#485053" d="M16.943 30.799l6.787 6.842a12.002 12.002 0 0 1 3.498 8.503c-.002 3.225-1.243 6.252-3.495 8.521a1.125 1.125 0 0 1-1.598.003 1.148 1.148 0 0 1 0-1.61 9.8 9.8 0 0 0 2.836-6.912 9.778 9.778 0 0 0-2.837-6.896l-7.645-7.707c-4.652-4.694-4.652-12.332 0-17.026 4.656-4.689 12.232-4.69 16.887 0a9.627 9.627 0 0 0 13.697.001 1.124 1.124 0 0 1 1.597 0c.44.444.44 1.166 0 1.61a11.831 11.831 0 0 1-8.45 3.525 11.818 11.818 0 0 1-8.44-3.527 9.593 9.593 0 0 0-6.848-2.853 9.593 9.593 0 0 0-6.848 2.853 9.749 9.749 0 0 0-2.83 6.903 9.744 9.744 0 0 0 2.832 6.904l.857.866z"/>
        <path fill="#485053" d="M19.126 46.946a4.342 4.342 0 0 0-1.27-3.06l-7.6-7.645-.13-.13c-6.835-6.88-6.835-18.074 0-24.953 6.84-6.876 17.968-6.877 24.807-.003a4.295 4.295 0 0 0 3.043 1.278 4.286 4.286 0 0 0 3.075-1.274 1.138 1.138 0 0 1 1.615 0 1.154 1.154 0 0 1 0 1.623 6.562 6.562 0 0 1-4.688 1.947 6.528 6.528 0 0 1-4.659-1.95A15.12 15.12 0 0 0 22.53 8.292a15.133 15.133 0 0 0-10.79 4.488c-2.876 2.894-4.46 6.748-4.461 10.853.002 4.106 1.587 7.961 4.461 10.854l7.73 7.775a6.606 6.606 0 0 1 1.94 4.682 6.643 6.643 0 0 1-1.931 4.714l-.006.007a1.137 1.137 0 0 1-1.614 0 1.153 1.153 0 0 1 0-1.624l.4-.403-.026-.026c.582-.759.889-1.67.893-2.666M26.32 57.046l.39-.408-.008-.007a15.319 15.319 0 0 0 2.817-4.548 15.162 15.162 0 0 0 1.064-5.536v-.091a15.145 15.145 0 0 0-1.635-6.78 1.118 1.118 0 0 1-.057-.89c.105-.295.322-.532.612-.668.599-.282 1.324-.042 1.616.536A17.403 17.403 0 0 1 33 46.437l-.003.017.003.068.001.021c-.012 4.497-1.752 8.787-4.903 12.08a1.238 1.238 0 0 1-1.707.069 1.13 1.13 0 0 1-.07-1.645"/>
    </g>
</svg>
