<svg width="180" height="100" viewBox="0 0 180 100" fill="none" xmlns="http://www.w3.org/2000/svg">
<g clip-path="url(#clip0_17203_8098)">
<path d="M8.90199 49.56C8.15198 48.4028 7.50662 47.1825 6.80893 45.9937C6.33963 45.2891 5.94779 44.5354 5.64031 43.7459V42.5641C5.81555 42.0843 6.06773 41.6365 6.38683 41.2385C6.685 40.9149 7.05398 40.6654 7.4646 40.5097C7.87522 40.3541 8.31622 40.2967 8.75274 40.3419C9.18926 40.3872 9.60932 40.5339 9.97972 40.7704C10.3501 41.007 10.6607 41.3269 10.8869 41.7049C11.8183 43.2724 12.7113 44.861 13.6183 46.446C13.6401 46.496 13.6531 46.5494 13.6567 46.6039C13.4683 46.5758 13.3497 46.425 13.2032 46.3268C12.854 46.0931 12.4573 45.9405 12.0421 45.88C11.6269 45.8196 11.2035 45.8529 10.8026 45.9774C10.4018 46.102 10.0336 46.3148 9.72475 46.6002C9.4159 46.8857 9.17417 47.2367 9.0171 47.6278C8.80386 48.2492 8.76405 48.9175 8.90199 49.56Z" fill="#7199CC"/>
<path d="M35.7599 23C36.485 23.1206 37.1518 23.4737 37.661 24.0064C38.0587 24.4662 38.2987 25.0424 38.3457 25.6498C38.3927 26.2573 38.2441 26.8638 37.9219 27.3799C37.5998 27.896 37.121 28.2942 36.5565 28.5158C35.9919 28.7375 35.3714 28.7708 34.7866 28.6108C34.2205 28.4578 33.7167 28.1296 33.3466 27.6726C32.9766 27.2156 32.7591 26.6531 32.7249 26.0649C32.6587 24.4974 33.5901 23.3612 35.1668 23.0807C35.2017 23.0807 35.2261 23.0351 35.2575 23.0105L35.7599 23Z" fill="#DC515A"/>
<path d="M48.531 49.0235C48.606 50.4643 49.1585 51.8385 50.1005 52.9271C51.0424 54.0157 52.3196 54.7562 53.7287 55.0305C54.3741 55.1603 55.0369 55.0901 55.6717 55.2444C56.2947 55.4094 56.8426 55.784 57.2243 56.3057C57.606 56.8274 57.7983 57.4648 57.7694 58.1117C57.7404 58.7587 57.4919 59.3761 57.0652 59.8613C56.6384 60.3464 56.0592 60.67 55.4241 60.7781C53.7857 60.944 52.1324 60.6869 50.6205 60.0311C46.6891 58.4391 44.1984 55.553 43.1588 51.4221C42.9727 50.7222 42.88 50.0005 42.8832 49.276C42.9286 49.3917 42.9809 49.5039 43.0193 49.6266C43.161 50.0516 43.4008 50.4368 43.7191 50.7507C44.0375 51.0645 44.4253 51.2981 44.8507 51.4322C45.2761 51.5663 45.7272 51.5972 46.1668 51.5223C46.6064 51.4474 47.0221 51.2688 47.3798 51.0013C48.0005 50.5138 48.4123 49.8062 48.531 49.0235Z" fill="#7199CC"/>
<path d="M115.809 48.4414C115.744 46.949 115.166 45.5254 114.175 44.4129C113.183 43.3004 111.839 42.5677 110.37 42.3397C110.024 42.2865 109.674 42.2583 109.324 42.2555C108.954 42.2502 108.59 42.1718 108.251 42.0249C107.912 41.878 107.605 41.6653 107.347 41.3991C106.827 40.8615 106.541 40.1384 106.552 39.3887C106.563 38.6391 106.869 37.9245 107.404 37.402C107.939 36.8795 108.658 36.5919 109.404 36.6026C112.206 36.6046 114.92 37.5891 117.078 39.3865C119.236 41.184 120.703 43.6818 121.226 46.4496C121.341 46.9378 121.395 47.4384 121.387 47.9399L121.128 47.4209C120.941 47.0559 120.677 46.7362 120.354 46.4839C120.031 46.2316 119.658 46.0528 119.26 45.9597C118.862 45.8667 118.449 45.8617 118.048 45.945C117.648 46.0284 117.271 46.1981 116.942 46.4425C116.316 46.932 115.909 47.6507 115.809 48.4414Z" fill="#714189"/>
<path d="M24.89 38.6891C25.5667 37.4933 26.24 36.2975 26.9202 35.1052C27.6598 33.8148 28.3958 32.5173 29.1528 31.2478C29.4266 30.7711 29.8326 30.3848 30.3213 30.1362C30.8099 29.8877 31.36 29.7876 31.9043 29.8482C32.4486 29.9089 32.9636 30.1276 33.3862 30.4776C33.8089 30.8277 34.1209 31.294 34.2843 31.8194C34.4094 32.1544 34.4602 32.5128 34.4331 32.8696C34.406 33.2264 34.3016 33.5729 34.1273 33.8849C32.711 36.3957 31.2598 38.882 29.8226 41.3788C29.8017 41.4139 29.7737 41.4454 29.7493 41.4805C29.7144 41.4857 29.6829 41.5044 29.6614 41.5325C29.64 41.5606 29.6302 41.5961 29.6342 41.6313C29.5819 41.6313 29.5505 41.6664 29.561 41.726C29.3865 41.726 29.2923 41.8592 29.1633 41.9364C28.7707 42.1939 28.3204 42.3491 27.8532 42.3878C27.386 42.4266 26.9166 42.3477 26.4873 42.1584C26.058 41.9691 25.6824 41.6753 25.3944 41.3034C25.1063 40.9316 24.915 40.4935 24.8376 40.0287C24.7929 39.5819 24.8105 39.131 24.89 38.6891Z" fill="#016BB2"/>
<path d="M96.1478 42.2941C94.6527 42.436 93.2545 43.1005 92.1964 44.1718C91.1384 45.2431 90.4875 46.6534 90.357 48.1573C90.3511 48.1989 90.3417 48.24 90.3291 48.2801C90.2908 48.1608 90.2419 48.0451 90.2105 47.9294C89.6803 45.8955 87.1477 45.3555 85.7174 46.5267C85.2814 46.8774 85.0686 47.3753 84.7372 47.7926C84.9849 42.7359 88.8849 38.107 93.8803 36.9358C94.5398 36.769 95.214 36.668 95.8931 36.6342C95.8478 36.8095 95.6734 36.7815 95.5443 36.8411C95.1931 37.0086 94.8796 37.2464 94.623 37.5398C94.3664 37.8333 94.1721 38.1764 94.0519 38.548C93.9318 38.9196 93.8883 39.3119 93.9242 39.701C93.96 40.09 94.0745 40.4677 94.2606 40.8107C94.454 41.1649 94.7207 41.4734 95.0426 41.7153C95.3645 41.9573 95.7342 42.1271 96.1269 42.2134C96.1311 42.241 96.1381 42.268 96.1478 42.2941Z" fill="#77498D"/>
<path d="M147.428 60.7606C146.65 60.7878 145.875 60.6603 145.146 60.3853C140.454 58.8599 137.587 55.6828 136.617 50.812C136.498 50.3665 136.45 49.9049 136.474 49.4443C136.551 49.6232 136.628 49.795 136.711 49.9774C136.891 50.3536 137.151 50.6853 137.473 50.9488C137.795 51.2123 138.171 51.401 138.574 51.5015C138.976 51.602 139.397 51.6118 139.804 51.5302C140.211 51.4486 140.595 51.2776 140.929 51.0294C141.468 50.605 141.861 50.0211 142.052 49.3602C142.162 50.0455 142.35 50.716 142.61 51.359C143.061 52.3997 143.779 53.3012 144.69 53.971C145.602 54.6409 146.674 55.055 147.797 55.1708C147.837 55.1817 147.875 55.1958 147.912 55.2129C147.852 55.2471 147.789 55.2764 147.724 55.3006C146.545 55.6863 145.791 56.4859 145.669 57.7272C145.587 58.3215 145.701 58.9264 145.993 59.4495C146.286 59.9726 146.74 60.3851 147.288 60.6238C147.354 60.6519 147.407 60.6834 147.428 60.7606Z" fill="#8164A2"/>
<path d="M70.6301 36.6412C73.2453 36.8153 75.7322 37.8439 77.7122 39.5703C79.6921 41.2966 81.0565 43.6261 81.5977 46.2041C81.7439 46.7986 81.8212 47.4082 81.8279 48.0206C81.7825 47.9189 81.7337 47.8207 81.6953 47.719C81.5443 47.3056 81.2997 46.933 80.981 46.6308C80.6623 46.3286 80.2781 46.1049 79.8587 45.9774C79.4393 45.8499 78.9961 45.822 78.5642 45.8961C78.1323 45.9701 77.7234 46.144 77.3697 46.404C76.8389 46.8484 76.4436 47.4342 76.229 48.0942C76.1104 47.9364 76.1662 47.7435 76.1313 47.5682C75.8782 46.191 75.1899 44.9325 74.1687 43.9799C73.1474 43.0272 71.8477 42.4311 70.4626 42.28C70.4626 42.1538 70.5812 42.1573 70.6754 42.1257C71.2226 41.9399 71.7019 41.5939 72.0519 41.1321C72.4019 40.6703 72.6065 40.1139 72.6394 39.5343C72.6527 38.9838 72.5082 38.4412 72.223 37.9711C71.9379 37.501 71.5241 37.1233 71.0312 36.8832C70.8987 36.813 70.6998 36.8306 70.6301 36.6412Z" fill="#77498D"/>
<path d="M103.17 48.0206C103.093 47.7015 103.034 47.3753 102.94 47.0597C102.117 44.3175 100.254 42.771 97.4735 42.2871C97.4735 42.1608 97.5956 42.1608 97.6793 42.1223C97.9632 42.0113 98.2317 41.8639 98.4781 41.6839C100.107 40.2812 99.8979 37.9738 98.0421 36.8937C97.9514 36.8411 97.8118 36.8516 97.8084 36.6973C98.9211 36.7102 100.02 36.9487 101.039 37.3987C105.294 39.152 107.834 42.3256 108.664 46.8669C108.752 47.161 108.779 47.47 108.745 47.7751C108.595 47.7751 108.605 47.6208 108.56 47.5261C108.361 47.1107 108.066 46.7493 107.7 46.4726C107.333 46.1959 106.905 46.0119 106.453 45.9362C106.001 45.8606 105.537 45.8954 105.101 46.0379C104.665 46.1803 104.27 46.4262 103.948 46.7547C103.64 47.1443 103.379 47.5693 103.17 48.0206Z" fill="#7B67A7"/>
<path d="M69.0428 60.7816C67.5397 60.7383 66.0638 60.3674 64.7172 59.6945C60.845 57.7939 58.5636 54.6799 57.8589 50.4122C57.7712 50.0451 57.7406 49.6665 57.7682 49.29C57.8932 49.7747 58.1245 50.2252 58.445 50.6086C58.77 50.9724 59.1827 51.246 59.6433 51.403C60.104 51.56 60.5972 51.5951 61.0752 51.5049C61.5533 51.4147 62.0003 51.2022 62.373 50.888C62.7457 50.5738 63.0316 50.1684 63.2032 49.7108C63.2486 49.5881 63.2416 49.4233 63.4021 49.3602C63.7509 51.8955 65.1009 53.6875 67.4486 54.7079C68.0191 54.9192 68.6093 55.072 69.2103 55.1638C69.1515 55.1954 69.0909 55.2235 69.0289 55.248C68.645 55.3566 68.2882 55.5455 67.982 55.8023C67.6757 56.0591 67.4268 56.378 67.2516 56.7381C67.0764 57.0983 66.9789 57.4916 66.9653 57.8923C66.9518 58.293 67.0226 58.692 67.173 59.0633C67.3455 59.4667 67.6015 59.8286 67.9239 60.1249C68.2463 60.4212 68.6277 60.645 69.0428 60.7816Z" fill="#77498D"/>
<path d="M57.8032 47.7786C57.9395 45.3351 58.8516 42.9998 60.4055 41.1158C62.3209 38.694 65.093 37.1097 68.1429 36.6938C68.415 36.6517 68.694 36.6517 68.9696 36.6342C68.9347 36.7745 68.7952 36.7604 68.701 36.799C68.1732 37.0237 67.7248 37.4026 67.4138 37.8866C67.1028 38.3705 66.9436 38.9372 66.9568 39.5132C66.9784 40.1026 67.1817 40.6706 67.5385 41.1386C67.8954 41.6067 68.3882 41.9516 68.9487 42.1258C69.0359 42.1573 69.1091 42.1749 69.1266 42.273C68.5836 42.3482 68.0518 42.4895 67.5428 42.6938C65.1568 43.6757 63.8172 45.4992 63.4195 48.0206C63.2521 47.9715 63.2695 47.8032 63.2207 47.6699C63.0256 47.1612 62.689 46.7196 62.2511 46.398C61.8131 46.0764 61.2923 45.8882 60.7509 45.8561C60.2095 45.8239 59.6703 45.9491 59.1977 46.2166C58.7251 46.4841 58.3391 46.8827 58.0857 47.3648C57.9985 47.5191 57.9811 47.705 57.8032 47.7786Z" fill="#7B67A7"/>
<path d="M160.471 49.7003C160.323 52.2109 159.36 54.6035 157.729 56.5104C155.949 58.6884 153.456 60.1579 150.696 60.6553C150.247 60.7505 149.791 60.8022 149.332 60.8096C149.402 60.6589 149.566 60.6729 149.681 60.6133C150.213 60.3548 150.651 59.9367 150.936 59.4167C151.221 58.8968 151.338 58.3007 151.272 57.7108C151.205 57.121 150.958 56.5665 150.564 56.1241C150.171 55.6816 149.65 55.373 149.074 55.2409C149.074 55.2199 149.074 55.1989 149.074 55.1778C150.544 55.0374 151.921 54.3919 152.972 53.3501C154.024 52.3082 154.686 50.9338 154.847 49.4583C154.861 49.3931 154.884 49.3303 154.917 49.2725C154.987 49.7674 155.196 50.232 155.519 50.612C155.842 50.9921 156.266 51.2718 156.742 51.4186C157.212 51.5968 157.722 51.644 158.217 51.5551C158.712 51.4662 159.173 51.2446 159.553 50.9136C159.9 50.5421 160.207 50.1355 160.471 49.7003Z" fill="#77498D"/>
<path d="M94.7525 67.9066C92.6211 67.9066 90.4861 67.9066 88.3547 67.9066C87.9334 67.9143 87.5233 67.77 87.1988 67.4998C86.8743 67.2297 86.6569 66.8515 86.5861 66.4341C86.5075 66.0184 86.5811 65.5883 86.7933 65.2229C87.0055 64.8576 87.342 64.5817 87.7408 64.4461C87.9506 64.3726 88.1709 64.3335 88.3931 64.3304C92.628 64.3304 96.8641 64.3304 101.101 64.3304C101.452 64.3107 101.801 64.3978 102.101 64.5805C102.402 64.7632 102.641 65.0328 102.786 65.3542C102.941 65.6547 103.003 65.995 102.964 66.3312C102.925 66.6674 102.787 66.9842 102.567 67.2405C102.394 67.4623 102.172 67.6393 101.917 67.7564C101.663 67.8736 101.384 67.9275 101.105 67.9136L94.7525 67.9066Z" fill="#77498D"/>
<path d="M90.3431 48.5291C90.3798 48.8623 90.3798 49.1987 90.3431 49.532C90.3431 52.2719 90.3431 55.0107 90.3431 57.7483C90.3625 58.4779 90.1323 59.1922 89.6908 59.7717C89.3226 60.2123 88.8334 60.5341 88.2843 60.6969C87.7353 60.8597 87.1507 60.8562 86.6035 60.6869C86.0596 60.5069 85.5831 60.1644 85.2378 59.7052C84.8925 59.2459 84.6948 58.6917 84.6709 58.1165C84.6709 55.1708 84.6709 52.2228 84.6709 49.2725C84.6954 49.3391 84.7233 49.3987 84.7407 49.4654C84.9037 50.055 85.2508 50.5763 85.731 50.9525C86.2111 51.3287 86.7988 51.5398 87.4073 51.5547C88.0159 51.5697 88.6131 51.3876 89.1109 51.0354C89.6087 50.6832 89.9808 50.1795 90.1722 49.5986C90.3222 49.2444 90.235 48.8762 90.3431 48.5291Z" fill="#6EAEDD"/>
<path d="M154.914 48.4449C154.813 48.3187 154.865 48.1749 154.865 48.0416C154.865 45.2596 154.865 42.4776 154.865 39.6956C154.843 38.9939 155.064 38.3063 155.489 37.7493C155.799 37.3302 156.221 37.0085 156.706 36.8221C157.191 36.6358 157.719 36.5925 158.228 36.6973C158.719 36.7714 159.181 36.981 159.561 37.303C159.941 37.6249 160.224 38.0465 160.38 38.5208C160.484 38.7939 160.538 39.084 160.537 39.3765C160.537 42.2426 160.537 45.1088 160.537 47.975C160.537 48.0697 160.537 48.1679 160.516 48.2661C160.516 48.2661 160.492 48.2661 160.488 48.2345C160.377 47.5551 160.024 46.9396 159.494 46.5033C158.964 46.067 158.294 45.8398 157.61 45.8643C156.925 45.8888 156.273 46.1633 155.776 46.6364C155.278 47.1095 154.969 47.7487 154.907 48.4344L154.914 48.4449Z" fill="#6EAEDD"/>
<path d="M121.428 49.5215C121.448 49.6304 121.461 49.7405 121.467 49.8511C121.467 52.5466 121.467 55.2456 121.467 57.9481C121.463 58.6881 121.172 59.3974 120.656 59.9251C120.14 60.4528 119.44 60.7573 118.704 60.7737C117.968 60.7902 117.255 60.5173 116.716 60.0132C116.177 59.509 115.855 58.8134 115.819 58.0744C115.767 55.269 115.819 52.4636 115.819 49.6828C115.825 49.6265 115.838 49.5711 115.857 49.5179C116.007 49.5705 115.986 49.7248 116.032 49.8336C116.232 50.2911 116.547 50.6881 116.947 50.9852C117.346 51.2823 117.816 51.4692 118.31 51.5274C118.803 51.5855 119.304 51.5129 119.761 51.3166C120.218 51.1204 120.616 50.8074 120.916 50.4087C121.128 50.1316 121.205 49.7845 121.428 49.5215Z" fill="#7B67A7"/>
<path d="M108.772 49.4478C108.772 50.4542 108.793 51.4607 108.793 52.4671C108.793 54.3011 108.793 56.1316 108.793 57.9657C108.803 58.6355 108.573 59.2866 108.146 59.8012C107.72 60.3157 107.124 60.6597 106.467 60.7711C105.794 60.8863 105.103 60.7536 104.521 60.3973C103.938 60.0409 103.503 59.485 103.296 58.8318C103.223 58.6204 103.18 58.3996 103.17 58.1761C103.17 55.1837 103.17 52.1901 103.17 49.1953C103.191 49.2304 103.226 49.2619 103.233 49.3005C103.32 49.7431 103.512 50.1579 103.793 50.5099C104.074 50.8618 104.435 51.1404 104.846 51.3221C105.257 51.5039 105.705 51.5833 106.153 51.5537C106.601 51.5241 107.035 51.3863 107.419 51.1521C108.04 50.7447 108.515 50.1472 108.772 49.4478Z" fill="#714189"/>
<path d="M172.195 49.6863C172.195 49.823 172.227 49.9633 172.227 50.1001C172.227 52.7722 172.227 55.4432 172.227 58.113C172.235 58.8061 171.991 59.4782 171.54 60.0026C171.089 60.527 170.462 60.8672 169.779 60.9592C169.096 61.0511 168.402 60.8883 167.83 60.5015C167.258 60.1148 166.846 59.5308 166.673 58.8599C166.625 58.6699 166.603 58.4739 166.61 58.2778C166.61 55.5823 166.61 52.8833 166.61 50.1807C166.617 50.0712 166.631 49.9623 166.652 49.8546C166.816 49.8967 166.823 50.058 166.889 50.1737C167.134 50.6449 167.505 51.0381 167.96 51.3088C168.415 51.5796 168.936 51.7173 169.465 51.7064C169.994 51.6954 170.509 51.5363 170.952 51.2469C171.396 50.9576 171.75 50.5494 171.976 50.0685C172.056 49.9353 172.035 49.7529 172.195 49.6863Z" fill="#9C88B9"/>
<path d="M38.3273 49.525C38.3273 50.1807 38.3518 50.8365 38.3518 51.4922C38.3518 53.6173 38.3518 55.7412 38.3518 57.864C38.3702 58.4179 38.2272 58.9652 37.9405 59.4385C37.6537 59.9119 37.2355 60.2907 36.7375 60.5283C36.2394 60.766 35.6831 60.8522 35.1369 60.7763C34.5908 60.7005 34.0786 60.4658 33.6633 60.1013C33.3948 59.897 33.1741 59.636 33.0167 59.3367C32.8594 59.0374 32.7693 58.7071 32.7528 58.3689C32.7249 55.5039 32.7528 52.6389 32.7528 49.7739C32.7566 49.7459 32.7649 49.7187 32.7773 49.6933C32.9935 49.7459 33.004 49.9598 33.0808 50.1106C33.3154 50.5218 33.6481 50.868 34.0488 51.118C34.4496 51.368 34.9058 51.514 35.3766 51.5428C35.8473 51.5717 36.3178 51.4825 36.7458 51.2833C37.1738 51.0841 37.5458 50.7812 37.8285 50.4016C38.0134 50.1176 38.0727 49.7634 38.3273 49.525Z" fill="#9C88B9"/>
<path d="M32.7493 47.7716C32.7493 46.9475 32.7284 46.1234 32.7284 45.2993C32.7284 43.3531 32.7284 41.4104 32.7284 39.4676C32.7195 39.0951 32.7853 38.7246 32.922 38.3783C33.0586 38.0319 33.2633 37.7167 33.5237 37.4516C33.7842 37.1865 34.0951 36.9769 34.438 36.8352C34.7808 36.6936 35.1485 36.6228 35.5192 36.6272C36.2407 36.6006 36.9432 36.8631 37.4724 37.3569C38.0015 37.8507 38.314 38.5354 38.3413 39.2607C38.4006 42.1222 38.3413 44.9907 38.3413 47.8557C38.139 47.8172 38.1669 47.6208 38.1041 47.5051C37.8895 47.0681 37.568 46.693 37.1697 46.4152C36.7714 46.1374 36.3094 45.9659 35.8271 45.9168C35.3447 45.8677 34.8579 45.9427 34.4123 46.1346C33.9667 46.3266 33.5769 46.6292 33.2796 47.0141C33.0807 47.2526 33.0598 47.6103 32.7493 47.7716Z" fill="#7B67A7"/>
<path d="M136.456 48.0241C136.456 47.449 136.436 46.8774 136.436 46.3058C136.436 44.065 136.47 41.8277 136.436 39.5904C136.429 39.2077 136.498 38.8274 136.64 38.4721C136.781 38.1168 136.992 37.7936 137.26 37.5216C137.528 37.2496 137.848 37.0344 138.2 36.8886C138.552 36.7428 138.929 36.6694 139.31 36.6728C139.682 36.6814 140.048 36.7637 140.388 36.915C140.727 37.0663 141.034 37.2835 141.29 37.5543C141.546 37.8251 141.747 38.144 141.88 38.4928C142.013 38.8416 142.076 39.2134 142.066 39.5869C142.066 42.4554 142.066 45.3239 142.066 48.1924C142.048 48.1707 142.033 48.1472 142.021 48.1223C141.903 47.6177 141.651 47.1548 141.291 46.7835C140.932 46.4121 140.478 46.1463 139.979 46.0147C139.481 45.8831 138.956 45.8906 138.461 46.0364C137.966 46.1822 137.521 46.4608 137.172 46.8423C136.883 47.2031 136.642 47.6004 136.456 48.0241Z" fill="#714189"/>
<path d="M166.656 47.9435C166.656 47.691 166.628 47.442 166.628 47.1895C166.628 44.7032 166.659 42.2099 166.61 39.7236C166.595 39.3494 166.655 38.976 166.786 38.6253C166.917 38.2747 167.117 37.954 167.373 37.682C167.629 37.4101 167.937 37.1925 168.278 37.0421C168.619 36.8916 168.987 36.8114 169.359 36.806C169.717 36.7799 170.077 36.8267 170.416 36.9437C170.755 37.0606 171.068 37.2454 171.334 37.4868C171.601 37.7282 171.816 38.0213 171.967 38.3484C172.118 38.6756 172.202 39.03 172.213 39.3905C172.307 42.2695 172.213 45.1521 172.213 48.0311C172.042 48.0101 172.063 47.8488 172.014 47.7436C171.81 47.2892 171.491 46.8961 171.09 46.6031C170.689 46.3101 170.218 46.1274 169.725 46.0729C169.232 46.0184 168.734 46.094 168.279 46.2922C167.824 46.4905 167.428 46.8046 167.13 47.2035C166.963 47.456 166.921 47.7646 166.656 47.9435Z" fill="#8164A2"/>
<path d="M46.4623 36.6377L49.6333 36.6167C51.3566 36.6167 53.0833 36.6167 54.8101 36.6167C55.5483 36.596 56.2658 36.8634 56.8121 37.3629C57.3584 37.8624 57.6911 38.5551 57.7404 39.2958C57.7631 39.6798 57.7079 40.0644 57.5783 40.4264C57.4487 40.7883 57.2473 41.12 56.9864 41.4014C56.7254 41.6827 56.4103 41.9078 56.0602 42.0631C55.7101 42.2184 55.3323 42.3005 54.9496 42.3046C52.8182 42.3291 50.6903 42.3046 48.5589 42.3046C48.5589 41.3999 48.5868 40.4951 48.5589 39.5904C48.51 38.342 47.9833 37.3811 46.8147 36.8446C46.6786 36.792 46.5042 36.8165 46.4623 36.6377Z" fill="#714189"/>
<path d="M129.326 67.9101C127.865 67.9101 126.403 67.9101 124.941 67.9101C124.538 67.9152 124.145 67.7816 123.827 67.5316C123.509 67.2815 123.286 66.9299 123.194 66.5349C123.102 66.1399 123.147 65.7253 123.321 65.3595C123.496 64.9937 123.789 64.6986 124.153 64.5232C124.444 64.3868 124.763 64.3196 125.084 64.3269C127.924 64.3269 130.763 64.3269 133.603 64.3269C133.962 64.2996 134.321 64.3821 134.632 64.5636C134.943 64.7451 135.193 65.017 135.347 65.3437C135.499 65.6371 135.563 65.9688 135.531 66.2982C135.499 66.6275 135.372 66.9404 135.166 67.1984C134.994 67.4289 134.769 67.6134 134.51 67.7357C134.251 67.858 133.966 67.9143 133.68 67.8996L129.326 67.9101Z" fill="#7B67A7"/>
<path d="M168.78 67.7944C167.332 67.7944 165.881 67.7944 164.434 67.7944C164.102 67.8002 163.775 67.7123 163.491 67.5406C163.206 67.3689 162.975 67.1204 162.825 66.8234C162.674 66.5263 162.609 66.1927 162.637 65.8604C162.666 65.5282 162.787 65.2106 162.986 64.944C163.159 64.7057 163.389 64.5148 163.655 64.3886C163.921 64.2625 164.214 64.2051 164.507 64.2217C167.379 64.2217 170.25 64.2217 173.12 64.2217C173.361 64.2114 173.602 64.2498 173.828 64.3347C174.054 64.4196 174.261 64.5493 174.436 64.7161C174.612 64.8828 174.752 65.0832 174.849 65.3055C174.945 65.5277 174.997 65.7672 175 66.0098C175 67.0336 174.194 67.7944 173.088 67.7979L168.78 67.7944Z" fill="#8164A2"/>
<path d="M57.7543 67.9067C56.359 67.9067 54.9392 67.9067 53.5299 67.9067C52.4275 67.9067 51.6496 67.2054 51.6426 66.1536C51.6295 65.9045 51.6694 65.6554 51.7597 65.423C51.85 65.1906 51.9886 64.9803 52.1662 64.806C52.3439 64.6318 52.5565 64.4977 52.7898 64.4126C53.0232 64.3276 53.2719 64.2936 53.5194 64.3129C56.3473 64.3129 59.1753 64.3129 62.0032 64.3129C62.4204 64.2977 62.8302 64.426 63.1651 64.6765C63.5 64.927 63.7398 65.2848 63.8451 65.6908C63.9401 66.0741 63.9065 66.4781 63.7494 66.8402C63.5923 67.2023 63.3206 67.502 62.9765 67.6928C62.6819 67.8514 62.3512 67.93 62.0172 67.9207L57.7543 67.9067Z" fill="#714189"/>
<path d="M24.89 38.6891C24.8126 39.1278 24.7962 39.575 24.8411 40.0182C24.9182 40.4835 25.1096 40.9222 25.3978 41.2945C25.686 41.6668 26.0621 41.9609 26.4919 42.1503C26.9217 42.3397 27.3917 42.4184 27.8593 42.3792C28.327 42.34 28.7776 42.1842 29.1702 41.9259C29.2993 41.8487 29.3935 41.7014 29.5679 41.7155C29.3509 42.2857 29.0638 42.8265 28.7133 43.3251C27.5935 45.3029 26.4493 47.2631 25.333 49.2304C25.2876 49.3146 25.2667 49.4198 25.1516 49.4408C25.204 49.0158 25.204 48.5859 25.1516 48.1609C25.0642 47.7054 24.8674 47.2783 24.5784 46.9168C24.2894 46.5552 23.9168 46.27 23.4932 46.0862C23.0696 45.9023 22.6077 45.8252 22.1477 45.8617C21.6878 45.8981 21.2436 46.0469 20.8539 46.2953C20.6969 46.397 20.5852 46.5898 20.369 46.5898C20.7517 45.8039 21.1768 45.0394 21.6422 44.2999C22.6609 42.508 23.6969 40.7231 24.726 38.9346C24.7764 38.85 24.8311 38.7681 24.89 38.6891Z" fill="#9C88B9"/>
<path d="M143.691 67.9066C142.645 67.9066 141.577 67.9066 140.517 67.9066C140.283 67.9115 140.051 67.87 139.833 67.7846C139.616 67.6992 139.417 67.5716 139.248 67.4089C139.08 67.2463 138.945 67.0519 138.851 66.8368C138.757 66.6217 138.706 66.3901 138.701 66.1553C138.696 65.9205 138.738 65.687 138.823 65.4682C138.908 65.2494 139.035 65.0496 139.196 64.8802C139.358 64.7107 139.552 64.5749 139.766 64.4806C139.98 64.3863 140.21 64.3352 140.444 64.3304C142.616 64.307 144.788 64.307 146.96 64.3304C147.432 64.343 147.88 64.5434 148.204 64.8876C148.529 65.2318 148.705 65.6916 148.692 66.1658C148.68 66.6401 148.48 67.0899 148.138 67.4164C147.795 67.7428 147.338 67.9192 146.866 67.9066C145.809 67.9101 144.752 67.9066 143.691 67.9066Z" fill="#77498D"/>
<path d="M19.8841 58.6214C19.6713 59.3774 19.2055 60.0363 18.5654 60.487C18.2285 60.703 17.8505 60.8461 17.4556 60.9071C17.0606 60.9681 16.6573 60.9458 16.2714 60.8416C15.8855 60.7373 15.5254 60.5535 15.214 60.3016C14.9027 60.0498 14.647 59.7356 14.4631 59.3789C14.3514 59.158 14.2677 58.923 14.17 58.6776C14.0376 57.89 14.2018 57.0811 14.6305 56.4087C15.1084 55.6057 15.5515 54.7851 16.0259 53.989C16.3117 53.4195 16.643 52.8741 17.0166 52.3584C17.6654 53.4771 18.3073 54.5992 18.9666 55.7073C19.5073 56.6296 20.0236 57.5203 19.8841 58.6214Z" fill="#503785"/>
<path d="M19.8841 58.6214C20.0236 57.5203 19.5073 56.6296 18.9771 55.7354C18.3178 54.6273 17.6759 53.5051 17.0271 52.3865V52.2988L19.2841 48.3958C19.3374 48.2527 19.4234 48.1241 19.5352 48.0206C19.598 48.4765 19.4969 48.9358 19.619 49.3987C19.8254 50.1347 20.3109 50.7598 20.9711 51.1395C21.6314 51.5192 22.4135 51.6232 23.1492 51.4291C23.5802 51.2517 23.9957 51.0382 24.3911 50.7909C23.9376 51.7307 23.3725 52.6074 22.8632 53.5121C21.9597 55.1077 21.0353 56.6927 20.1213 58.2813C20.048 58.4005 19.9608 58.5092 19.8841 58.6214Z" fill="#7B67A7"/>
<path d="M17.0236 52.2988V52.3865C16.65 52.9022 16.3187 53.4475 16.0329 54.0171C15.548 54.8131 15.105 55.6337 14.6375 56.4368C14.2063 57.1082 14.0397 57.9172 14.1701 58.7056C13.2038 57.0399 12.227 55.3742 11.2677 53.698C10.7479 52.7968 10.1898 51.9166 9.73629 50.9768C10.0223 50.9136 10.1898 51.1521 10.4061 51.2573C11.0729 51.5844 11.8408 51.6354 12.5447 51.3993C13.2486 51.1632 13.8322 50.659 14.1701 49.9949C14.5189 49.3251 14.477 48.6343 14.4317 47.9294C15.2131 49.262 15.9922 50.5945 16.7689 51.9271C16.8492 52.0568 16.891 52.2111 17.0236 52.2988Z" fill="#77498D"/>
<path d="M76.3824 58.9301C75.6374 59.3489 74.8687 59.7236 74.0801 60.0522C72.952 60.5038 71.7532 60.7507 70.5393 60.7816C70.6266 60.7395 70.7103 60.6974 70.7975 60.6624C71.2232 60.5039 71.6048 60.2447 71.9097 59.9066C72.2147 59.5686 72.4341 59.1616 72.5494 58.7202C72.6648 58.2788 72.6726 57.816 72.5723 57.3709C72.472 56.9258 72.2664 56.5115 71.9731 56.1632C71.558 55.6337 70.9614 55.4093 70.3754 55.1638C70.4345 55.1333 70.4964 55.1086 70.5603 55.0902C71.6716 54.9711 72.7311 54.556 73.6295 53.8877C74.5279 53.2195 75.2326 52.3223 75.6708 51.2889C75.9596 50.5971 76.1419 49.8651 76.2115 49.1182L76.2429 49.6232C76.2429 52.5197 76.2429 55.4151 76.2429 58.3094C76.2355 58.5056 76.2891 58.6993 76.3964 58.8634C76.3961 58.8863 76.3914 58.909 76.3824 58.9301Z" fill="#6EAEDD"/>
<path d="M76.3894 58.8564C76.2821 58.6923 76.2285 58.4986 76.2359 58.3023C76.2359 55.4058 76.2359 52.5104 76.2359 49.6161C76.4138 49.6161 76.3964 49.7845 76.4487 49.8862C76.6688 50.3801 77.0263 50.7995 77.4782 51.0938C77.93 51.3881 78.4569 51.5448 78.9953 51.5448C80.2197 51.5694 81.0674 50.9592 81.6151 49.8826C81.6674 49.7809 81.6535 49.6161 81.8314 49.6161C81.8645 49.8099 81.8645 50.008 81.8314 50.2018C81.7962 50.2431 81.769 50.2907 81.7511 50.342C81.5036 52.3372 80.7465 54.2339 79.5534 55.8476C78.7102 57.0538 77.6342 58.077 76.3894 58.8564Z" fill="#4C4089"/>
<path d="M46.4623 36.6377C46.5042 36.8165 46.6786 36.792 46.8112 36.8446C47.9903 37.3811 48.517 38.342 48.5554 39.5904C48.5868 40.4951 48.5554 41.3998 48.5554 42.3046C48.5499 42.3131 48.5419 42.3197 48.5326 42.3235C48.5232 42.3272 48.5129 42.328 48.5031 42.3256C47.5891 42.3256 46.6716 42.3256 45.7577 42.3256C45.4387 42.3286 45.1214 42.2777 44.8193 42.1748C44.3338 42.0095 43.9 41.7191 43.5609 41.3327C43.2218 40.9463 42.9894 40.4774 42.8867 39.9726C42.7995 38.3069 43.5146 37.1672 44.903 36.7499C45.4101 36.6081 45.9403 36.5699 46.4623 36.6377Z" fill="#503785"/>
<path d="M14.4352 47.9294C14.4805 48.6307 14.5189 49.3321 14.1735 49.9949C13.8356 50.6599 13.2514 51.1648 12.5467 51.4009C11.842 51.6371 11.0733 51.5855 10.4061 51.2573C10.1898 51.1521 10.0223 50.9066 9.73628 50.9768C9.73628 50.8926 9.73628 50.8225 9.63511 50.819C9.63826 50.8077 9.63912 50.7959 9.63765 50.7842C9.63618 50.7726 9.63241 50.7614 9.62656 50.7513C9.6207 50.7411 9.61289 50.7323 9.60357 50.7252C9.59426 50.7182 9.58363 50.7131 9.57232 50.7102C9.30642 50.3536 9.08172 49.9677 8.90255 49.56C8.76591 48.9197 8.80571 48.2541 9.01766 47.6348C9.17473 47.2437 9.41646 46.8927 9.72531 46.6073C10.0342 46.3218 10.4024 46.109 10.8032 45.9845C11.204 45.8599 11.6274 45.8266 12.0427 45.887C12.4579 45.9475 12.8545 46.1001 13.2038 46.3338C13.3503 46.432 13.4689 46.5828 13.6573 46.6109C13.6539 46.6448 13.6621 46.6789 13.6804 46.7075C13.6988 46.7362 13.7263 46.7577 13.7584 46.7687C14.0277 47.1281 14.2548 47.5176 14.4352 47.9294Z" fill="#4C4089"/>
<path d="M70.3754 55.1708C70.9615 55.4163 71.558 55.6407 71.9731 56.1702C72.2665 56.5186 72.472 56.9328 72.5723 57.3779C72.6726 57.823 72.6648 58.2858 72.5495 58.7272C72.4341 59.1686 72.2147 59.5756 71.9097 59.9136C71.6048 60.2517 71.2233 60.5109 70.7975 60.6694C70.7103 60.7044 70.6266 60.7465 70.5394 60.7886C70.0453 60.8868 69.5369 60.8868 69.0428 60.7886C68.628 60.6524 68.2468 60.4291 67.9244 60.1334C67.602 59.8378 67.3459 59.4766 67.173 59.0738C67.0226 58.7025 66.9518 58.3035 66.9653 57.9028C66.9789 57.5021 67.0764 57.1088 67.2516 56.7487C67.4268 56.3885 67.6757 56.0696 67.9819 55.8128C68.2882 55.556 68.645 55.3671 69.0289 55.2585C69.0909 55.234 69.1515 55.2059 69.2103 55.1743L70.3754 55.1708Z" fill="#4C4089"/>
<path d="M48.5309 49.0235C48.4106 49.8037 47.9989 50.5085 47.3798 50.9943C47.022 51.2618 46.6063 51.4404 46.1667 51.5153C45.7271 51.5902 45.2761 51.5593 44.8507 51.4252C44.4252 51.2911 44.0374 51.0575 43.7191 50.7437C43.4008 50.4298 43.1609 50.0446 43.0193 49.6196C42.9809 49.5039 42.9286 49.3917 42.8832 49.269V48.1047C42.9089 48.0734 42.929 48.0378 42.9425 47.9995C43.0449 47.5852 43.2389 47.1995 43.5102 46.8711C43.7815 46.5427 44.123 46.2801 44.5092 46.1028C44.8955 45.9255 45.3166 45.8381 45.7411 45.8471C46.1657 45.8562 46.5827 45.9614 46.9612 46.155C47.7391 46.5337 48.1542 47.207 48.4926 47.9399L48.5449 48.4379C48.5449 48.4379 48.517 48.4589 48.5205 48.4659C48.5283 48.4876 48.5376 48.5087 48.5484 48.529L48.5309 49.0235Z" fill="#4C4089"/>
<path d="M24.3876 50.7909C23.9922 51.0382 23.5767 51.2517 23.1457 51.4291C22.41 51.6232 21.6279 51.5192 20.9676 51.1395C20.3074 50.7598 19.8218 50.1347 19.6155 49.3987C19.4934 48.9358 19.5945 48.4765 19.5317 48.0206C19.7535 47.512 20.0345 47.0317 20.369 46.5898C20.5852 46.5898 20.6969 46.397 20.8538 46.2953C21.2433 46.047 21.6872 45.898 22.147 45.8614C22.6068 45.8247 23.0685 45.9015 23.492 46.085C23.9156 46.2685 24.2881 46.5532 24.5774 46.9144C24.8666 47.2755 25.0637 47.7022 25.1516 48.1573C25.204 48.5824 25.204 49.0123 25.1516 49.4373C24.9602 49.9217 24.7031 50.3773 24.3876 50.7909Z" fill="#604E9A"/>
<path d="M69.1335 42.2871C69.1161 42.1889 69.0428 42.1713 68.9556 42.1398C68.3951 41.9657 67.9023 41.6207 67.5455 41.1526C67.1886 40.6846 66.9853 40.1166 66.9637 39.5273C66.9505 38.9513 67.1097 38.3845 67.4207 37.9006C67.7317 37.4166 68.1802 37.0377 68.7079 36.813C68.8021 36.7745 68.9417 36.7885 68.9765 36.6482C69.4395 36.5915 69.9069 36.581 70.3719 36.6167C70.3963 36.6552 70.4242 36.6658 70.4556 36.6167H70.6196C70.6893 36.806 70.8882 36.7885 71.0277 36.8586C71.521 37.1005 71.9343 37.4803 72.2183 37.9523C72.5023 38.4244 72.6449 38.9688 72.6289 39.5202C72.602 40.102 72.4022 40.6623 72.0552 41.1287C71.7081 41.595 71.2299 41.946 70.6824 42.1363C70.5882 42.1678 70.487 42.1643 70.4696 42.2906L69.1335 42.2871Z" fill="#503785"/>
<path d="M81.8453 49.6162C81.6674 49.6162 81.6814 49.781 81.629 49.8827C81.0814 50.9592 80.2337 51.5694 79.0092 51.5449C78.4708 51.5448 77.944 51.3881 77.4921 51.0938C77.0403 50.7995 76.6828 50.3801 76.4627 49.8862C76.4104 49.7845 76.4278 49.6232 76.2499 49.6162L76.2185 49.1112C76.2185 48.7605 76.2185 48.4414 76.2359 48.1047C76.4468 47.4417 76.8399 46.8521 77.3697 46.404C77.7227 46.1438 78.1309 45.9694 78.5623 45.8947C78.9937 45.82 79.4364 45.8469 79.8557 45.9733C80.2749 46.0998 80.6593 46.3223 80.9785 46.6234C81.2978 46.9245 81.5431 47.2959 81.6953 47.7085C81.7337 47.8102 81.7825 47.9084 81.8279 48.0101C81.9114 48.5417 81.9173 49.0828 81.8453 49.6162Z" fill="#392E7B"/>
<path d="M44.5681 67.9101C43.8705 67.9101 43.1728 67.9101 42.4751 67.9101C42.0328 67.9248 41.6016 67.77 41.2687 67.477C40.9358 67.1841 40.7261 66.7749 40.682 66.3324C40.6018 65.2806 41.1565 64.4777 42.1856 64.39C43.7777 64.2462 45.3795 64.2462 46.9717 64.39C47.9868 64.4812 48.5519 65.3121 48.4647 66.3499C48.4093 66.7827 48.198 67.1801 47.8708 67.4669C47.5436 67.7538 47.1232 67.9102 46.6891 67.9066C45.9879 67.9171 45.2763 67.9101 44.5681 67.9101Z" fill="#7B67A7"/>
<path d="M97.8083 36.6973C97.8083 36.8516 97.9513 36.8411 98.042 36.8937C99.8979 37.9738 100.107 40.2812 98.4781 41.6839C98.2316 41.8639 97.9632 42.0113 97.6793 42.1222C97.5955 42.1608 97.4839 42.1608 97.4734 42.2871H96.3885C96.3145 42.2414 96.2262 42.2251 96.1409 42.2415C95.7482 42.1552 95.3785 41.9853 95.0566 41.7434C94.7347 41.5014 94.468 41.193 94.2746 40.8388C94.0885 40.4957 93.974 40.1181 93.9382 39.729C93.9023 39.34 93.9458 38.9476 94.0659 38.576C94.1861 38.2044 94.3804 37.8614 94.637 37.5679C94.8936 37.2744 95.2071 37.0366 95.5583 36.8692C95.6734 36.8095 95.8478 36.8376 95.9071 36.6623H96.0711C96.1339 36.7289 96.1897 36.7149 96.2385 36.6623C96.7609 36.5999 97.2893 36.6117 97.8083 36.6973Z" fill="#503785"/>
<path d="M32.7494 47.7716C33.0598 47.6103 33.0808 47.2526 33.2726 47.0036C33.57 46.6187 33.9597 46.316 34.4053 46.1241C34.8509 45.9321 35.3378 45.8572 35.8201 45.9063C36.3024 45.9554 36.7644 46.1269 37.1627 46.4047C37.561 46.6825 37.8826 47.0575 38.0971 47.4946C38.1599 47.6208 38.132 47.8172 38.3343 47.8452C38.3343 48.4028 38.3343 48.9569 38.3343 49.5145C38.0797 49.7529 38.0204 50.1071 37.8215 50.3911C37.5389 50.7707 37.1668 51.0736 36.7389 51.2728C36.3109 51.472 35.8404 51.5612 35.3696 51.5323C34.8989 51.5035 34.4426 51.3575 34.0419 51.1075C33.6412 50.8575 33.3085 50.5113 33.0738 50.1001C32.9971 49.9493 32.9866 49.7494 32.7703 49.6828C32.6909 49.0486 32.6839 48.4074 32.7494 47.7716Z" fill="#604E9A"/>
<path d="M121.428 49.5215C121.205 49.7845 121.128 50.1316 120.916 50.4087C120.616 50.8074 120.218 51.1204 119.761 51.3166C119.304 51.5129 118.804 51.5855 118.31 51.5274C117.816 51.4693 117.346 51.2823 116.947 50.9852C116.547 50.6881 116.232 50.2911 116.032 49.8336C115.986 49.7248 116.007 49.5706 115.857 49.518L115.826 49.0305C115.826 49.0305 115.854 49.0095 115.85 49.006C115.843 48.9852 115.834 48.9652 115.823 48.9464C115.823 48.778 115.823 48.5957 115.823 48.4414C115.875 48.048 116.005 47.6689 116.203 47.3259C116.402 46.9829 116.666 46.6827 116.981 46.4425C117.309 46.1981 117.687 46.0284 118.087 45.945C118.487 45.8617 118.9 45.8667 119.299 45.9597C119.697 46.0528 120.07 46.2316 120.392 46.4839C120.715 46.7362 120.979 47.0559 121.167 47.4209L121.425 47.9399C121.501 48.2684 121.523 48.6071 121.491 48.9428C121.491 48.9428 121.463 48.9604 121.467 48.9674C121.472 48.9902 121.479 49.0125 121.488 49.034C121.453 49.2094 121.439 49.3566 121.428 49.5215Z" fill="#392E7B"/>
<path d="M57.8032 47.7786C57.9811 47.705 57.9985 47.5191 58.0683 47.3753C58.3216 46.8932 58.7076 46.4946 59.1802 46.2271C59.6528 45.9596 60.192 45.8344 60.7334 45.8666C61.2748 45.8988 61.7956 46.0869 62.2336 46.4085C62.6715 46.7302 63.0081 47.1717 63.2032 47.6804C63.2521 47.8032 63.2346 47.9715 63.4021 48.0311V49.3672C63.2416 49.4268 63.2486 49.5916 63.2032 49.7178C63.0312 50.1751 62.745 50.5802 62.3721 50.894C61.9992 51.2079 61.5523 51.4199 61.0742 51.5098C60.5962 51.5996 60.1032 51.5642 59.6427 51.407C59.1822 51.2498 58.7697 50.976 58.445 50.6121C58.1256 50.225 57.8967 49.7708 57.7752 49.283C57.7269 48.7821 57.7363 48.2773 57.8032 47.7786Z" fill="#503785"/>
<path d="M90.3431 48.5291C90.235 48.8797 90.3222 49.2304 90.2001 49.5811C90.0087 50.162 89.6366 50.6657 89.1388 51.0179C88.641 51.3701 88.0438 51.5521 87.4353 51.5372C86.8267 51.5223 86.239 51.3112 85.7589 50.935C85.2788 50.5588 84.9316 50.0374 84.7686 49.4478C84.7512 49.3812 84.7233 49.3216 84.6989 49.255V48.1048C84.7351 48.0646 84.759 48.0148 84.7677 47.9612C84.7764 47.9077 84.7694 47.8528 84.7477 47.8032V47.7751C85.0791 47.3578 85.2919 46.8634 85.728 46.5092C87.1582 45.3379 89.6908 45.878 90.221 47.9119C90.2524 48.0311 90.3012 48.1468 90.3396 48.2626L90.3431 48.5291Z" fill="#4C4089"/>
<path d="M166.656 47.9434C166.921 47.7646 166.959 47.4385 167.144 47.2C167.442 46.8011 167.837 46.487 168.293 46.2887C168.748 46.0904 169.246 46.0148 169.739 46.0694C170.232 46.1239 170.703 46.3066 171.104 46.5996C171.505 46.8926 171.824 47.2856 172.028 47.74C172.077 47.8452 172.056 48.0066 172.227 48.0276C172.269 48.5797 172.269 49.1342 172.227 49.6863C172.052 49.7529 172.073 49.9353 172.01 50.0685C171.785 50.5494 171.431 50.9576 170.987 51.2469C170.544 51.5363 170.029 51.6954 169.5 51.7064C168.971 51.7173 168.45 51.5796 167.995 51.3088C167.54 51.038 167.169 50.6449 166.924 50.1737C166.858 50.058 166.851 49.8967 166.687 49.8546C166.631 49.2191 166.621 48.5804 166.656 47.9434Z" fill="#503785"/>
<path d="M149.078 55.2409C149.653 55.373 150.174 55.6816 150.568 56.1241C150.961 56.5665 151.209 57.121 151.275 57.7108C151.342 58.3007 151.225 58.8968 150.94 59.4167C150.655 59.9367 150.216 60.3548 149.685 60.6133C149.566 60.6729 149.402 60.6589 149.336 60.8097C148.699 60.9022 148.052 60.8856 147.421 60.7606C147.421 60.6834 147.358 60.6519 147.292 60.6168C146.744 60.3781 146.289 59.9656 145.997 59.4425C145.705 58.9194 145.591 58.3145 145.673 57.7202C145.795 56.4788 146.548 55.6793 147.728 55.2935C147.793 55.2694 147.856 55.2401 147.916 55.2059H148.069H148.185H148.823L149.078 55.2409Z" fill="#412357"/>
<path d="M108.772 49.4478C108.52 50.146 108.052 50.7445 107.436 51.1556C107.053 51.3898 106.619 51.5276 106.171 51.5572C105.723 51.5868 105.274 51.5074 104.864 51.3257C104.453 51.144 104.092 50.8653 103.811 50.5134C103.53 50.1614 103.338 49.7466 103.25 49.304C103.25 49.2655 103.208 49.2339 103.187 49.1988V48.0206C103.391 47.5701 103.646 47.1452 103.948 46.7546C104.27 46.4262 104.665 46.1803 105.101 46.0379C105.537 45.8954 106.001 45.8606 106.453 45.9362C106.905 46.0119 107.333 46.1958 107.7 46.4726C108.066 46.7493 108.361 47.1106 108.56 47.5261C108.605 47.6208 108.595 47.7611 108.745 47.7751C108.829 48.3289 108.838 48.8915 108.772 49.4478Z" fill="#503785"/>
<path d="M154.914 48.4449C154.976 47.7593 155.285 47.12 155.783 46.6469C156.28 46.1738 156.932 45.8993 157.617 45.8748C158.301 45.8503 158.971 46.0775 159.501 46.5138C160.031 46.9501 160.384 47.5656 160.495 48.245C160.495 48.245 160.513 48.266 160.523 48.2766C160.568 48.751 160.554 49.2294 160.481 49.7003C160.22 50.1351 159.915 50.5417 159.571 50.9136C159.191 51.2446 158.729 51.4662 158.234 51.5551C157.739 51.644 157.23 51.5968 156.759 51.4186C156.284 51.2718 155.86 50.9921 155.537 50.612C155.214 50.232 155.005 49.7674 154.935 49.2725L154.914 48.4449Z" fill="#392E7B"/>
<path d="M136.456 48.0241C136.637 47.6013 136.871 47.2041 137.154 46.8423C137.503 46.4609 137.949 46.1822 138.444 46.0364C138.938 45.8906 139.463 45.8831 139.962 46.0147C140.461 46.1464 140.914 46.4121 141.274 46.7835C141.633 47.1548 141.886 47.6177 142.003 48.1223C142.016 48.1472 142.031 48.1707 142.048 48.1924C142.048 48.5817 142.048 48.9709 142.048 49.3602C141.857 50.0211 141.464 50.605 140.925 51.0294C140.591 51.2776 140.207 51.4486 139.8 51.5302C139.393 51.6118 138.973 51.602 138.57 51.5015C138.167 51.401 137.791 51.2123 137.469 50.9488C137.147 50.6853 136.887 50.3536 136.708 49.9773C136.624 49.802 136.547 49.6267 136.47 49.4443C136.46 48.9709 136.456 48.508 136.456 48.0241Z" fill="#412357"/>
<path d="M166.614 26.0298C166.537 24.557 167.866 23.1998 169.446 23.2244C169.836 23.1936 170.227 23.2445 170.596 23.3739C170.965 23.5032 171.303 23.7082 171.588 23.9758C171.874 24.2433 172.102 24.5677 172.256 24.9282C172.41 25.2888 172.489 25.6777 172.486 26.0702C172.483 26.4628 172.399 26.8505 172.239 27.2087C172.079 27.5669 171.847 27.8878 171.557 28.1511C171.268 28.4143 170.927 28.6142 170.556 28.738C170.186 28.8618 169.793 28.9068 169.405 28.8702C169.035 28.8703 168.669 28.7966 168.329 28.6534C167.988 28.5102 167.678 28.3004 167.419 28.0362C167.159 27.772 166.954 27.4586 166.816 27.1141C166.678 26.7697 166.609 26.4011 166.614 26.0298Z" fill="#DC515A"/>
<path d="M48.4751 47.9399C48.1263 47.1965 47.7216 46.5372 46.9437 46.155C46.566 45.9647 46.1506 45.8621 45.7282 45.8548C45.3058 45.8475 44.8871 45.9356 44.5031 46.1126C44.119 46.2896 43.7794 46.5511 43.5093 46.8777C43.2393 47.2043 43.0456 47.5876 42.9425 47.9995C42.929 48.0378 42.9089 48.0734 42.8832 48.1047V39.9621C42.9859 40.4669 43.2184 40.9358 43.5574 41.3222C43.8965 41.7086 44.3304 41.9989 44.8158 42.1643C45.118 42.2672 45.4352 42.3181 45.7542 42.3151C46.6681 42.3151 47.5856 42.3151 48.4996 42.3151C48.4996 44.0334 48.4996 45.7517 48.4996 47.47C48.4961 47.6348 48.4821 47.7856 48.4751 47.9399Z" fill="#77498D"/>
<path d="M70.658 67.9101H68.9138C68.681 67.9234 68.4479 67.8903 68.2278 67.8129C68.0077 67.7354 67.805 67.6151 67.6313 67.4587C67.4576 67.3024 67.3163 67.1131 67.2155 66.9018C67.1148 66.6905 67.0565 66.4612 67.044 66.2272C67.0243 65.9819 67.0562 65.7352 67.1377 65.5031C67.2192 65.271 67.3483 65.0587 67.5168 64.8801C67.6853 64.7015 67.8893 64.5606 68.1156 64.4665C68.3418 64.3724 68.5853 64.3272 68.83 64.3339C70.0824 64.2989 71.3382 64.3024 72.5906 64.3339C72.8242 64.3394 73.0545 64.3912 73.2682 64.4861C73.4819 64.5811 73.675 64.7174 73.8363 64.8874C73.9976 65.0573 74.1241 65.2576 74.2084 65.4766C74.2927 65.6957 74.3333 65.9293 74.3278 66.1641C74.3223 66.3989 74.2708 66.6303 74.1763 66.8452C74.0819 67.06 73.9462 67.254 73.7771 67.4162C73.608 67.5783 73.4088 67.7054 73.1909 67.7901C72.9729 67.8749 72.7405 67.9157 72.5068 67.9101H70.658Z" fill="#7B67A7"/>
<path d="M76.3895 58.8564C77.6393 58.0785 78.7202 57.0552 79.5674 55.8476C80.7605 54.2339 81.5176 52.3372 81.7651 50.342C81.783 50.2907 81.8102 50.2431 81.8453 50.2018C81.8453 51.7938 81.8628 53.3894 81.8663 54.9814C81.8663 56.0335 81.8663 57.0855 81.8419 58.1375C81.8163 58.7693 81.5791 59.374 81.1687 59.8533C80.7584 60.3326 80.1991 60.6585 79.5814 60.7781C78.9749 60.8911 78.3484 60.8036 77.7956 60.5286C77.2428 60.2536 76.7935 59.8059 76.5151 59.2527C76.4662 59.151 76.4278 59.0458 76.3825 58.9441C76.3922 58.9159 76.3946 58.8857 76.3895 58.8564Z" fill="#714189"/>
<path d="M116.597 67.9101C116.028 67.9101 115.456 67.9347 114.888 67.9101C114.451 67.8968 114.036 67.7194 113.723 67.4129C113.41 67.1065 113.223 66.6934 113.199 66.2553C113.174 66.032 113.193 65.8058 113.256 65.5902C113.319 65.3747 113.425 65.1741 113.567 65.0004C113.709 64.8267 113.884 64.6834 114.082 64.5792C114.28 64.4749 114.497 64.4118 114.72 64.3935C115.995 64.2417 117.283 64.2417 118.557 64.3935C119.579 64.5197 120.099 65.3191 120.002 66.392C119.944 66.8145 119.735 67.2014 119.414 67.4802C119.093 67.759 118.682 67.9106 118.257 67.9066C117.682 67.9171 117.141 67.9101 116.597 67.9101Z" fill="#7199CC"/>
<path d="M155.067 67.9102C154.537 67.8611 153.878 67.9943 153.232 67.8436C152.827 67.7545 152.468 67.519 152.223 67.1817C151.979 66.8444 151.866 66.4286 151.907 66.0134C151.91 65.6178 152.055 65.2366 152.315 64.9397C152.575 64.6428 152.933 64.4502 153.323 64.397C154.54 64.2534 155.769 64.2534 156.986 64.397C157.977 64.5128 158.521 65.2911 158.451 66.3429C158.407 66.7708 158.207 67.1673 157.891 67.4569C157.574 67.7466 157.163 67.9091 156.735 67.9137C156.218 67.9207 155.706 67.9102 155.067 67.9102Z" fill="#6EAEDD"/>
<path d="M80.45 67.9066C80.0209 67.9066 79.5848 67.9277 79.1557 67.9066C78.7294 67.8768 78.3278 67.694 78.0243 67.3915C77.7208 67.0891 77.5355 66.687 77.5022 66.2587C77.4569 65.8148 77.5862 65.3706 77.8627 65.0213C78.1392 64.672 78.5407 64.4454 78.9813 64.39C79.9733 64.255 80.9789 64.255 81.9709 64.39C82.1925 64.4185 82.4063 64.4907 82.6001 64.6024C82.7939 64.7141 82.9639 64.8632 83.1003 65.041C83.2367 65.2188 83.3369 65.4219 83.3951 65.6387C83.4533 65.8555 83.4684 66.0817 83.4395 66.3043C83.3974 66.7412 83.1958 67.1469 82.8738 67.4434C82.5518 67.7399 82.132 67.9061 81.6953 67.9101C81.2767 67.9171 80.8581 67.9066 80.45 67.9066Z" fill="#77498D"/>
<path d="M35.5157 67.9101C34.511 67.9101 33.7715 67.3982 33.5866 66.5813C33.5189 66.3389 33.504 66.0846 33.5429 65.8358C33.5818 65.5871 33.6735 65.3497 33.8119 65.1397C33.9502 64.9298 34.132 64.7523 34.3447 64.6193C34.5575 64.4863 34.7962 64.4009 35.0447 64.369C35.9901 64.1902 36.8587 64.4917 37.2564 65.1614C37.4316 65.4323 37.5288 65.7466 37.5374 66.0695C37.546 66.3925 37.4657 66.7116 37.3052 66.9915C36.9843 67.6086 36.3773 67.9101 35.5157 67.9101Z" fill="#6EAEDD"/>
<path d="M108.249 67.9171C107.3 67.9171 106.655 67.6507 106.296 66.9144C106.136 66.6087 106.071 66.2617 106.11 65.9186C106.148 65.5754 106.288 65.2518 106.512 64.9895C107.081 64.2427 108.507 64.085 109.324 64.6775C109.688 64.9422 109.938 65.3363 110.024 65.7798C110.109 66.2233 110.024 66.6829 109.784 67.0652C109.626 67.3307 109.4 67.5494 109.131 67.6991C108.861 67.8487 108.557 67.924 108.249 67.9171Z" fill="#6EAEDD"/>
<path d="M66.8661 75.3095C65.7742 76.2667 64.6928 76.3228 63.9183 75.5058C63.6102 75.1688 63.4392 74.7277 63.4392 74.2699C63.4392 73.8122 63.6102 73.3711 63.9183 73.034C64.6788 72.2101 65.7707 72.2557 66.88 73.2093V72.7044C66.8791 72.6834 66.8823 72.6625 66.8896 72.6427C66.8968 72.623 66.9079 72.6049 66.9222 72.5896C66.9365 72.5742 66.9538 72.5619 66.9729 72.5533C66.992 72.5447 67.0126 72.5401 67.0335 72.5397C67.0573 72.534 67.0819 72.5336 67.1059 72.5384C67.1298 72.5431 67.1524 72.553 67.1722 72.5672C67.1921 72.5815 67.2086 72.5999 67.2208 72.6212C67.233 72.6424 67.2405 72.666 67.2428 72.6904C67.2463 72.7324 67.2463 72.7746 67.2428 72.8166C67.2428 73.8685 67.2812 74.9414 67.2219 76.0002C67.1521 77.1888 66.116 77.8339 64.8149 77.5674C64.4872 77.5072 64.1729 77.3884 63.8869 77.2168C63.7509 77.1292 63.5381 77.0345 63.6532 76.8452C63.7683 76.6558 63.9393 76.7856 64.0823 76.8732C64.4971 77.1422 64.9845 77.2757 65.4777 77.2554C65.662 77.2592 65.8451 77.2256 66.0161 77.1564C66.1871 77.0873 66.3425 76.9841 66.4728 76.8531C66.6032 76.7221 66.7058 76.566 66.7746 76.3941C66.8433 76.2222 66.8768 76.0382 66.873 75.8529C66.873 75.6741 66.8661 75.5093 66.8661 75.3095ZM66.8661 74.2577C66.8506 73.8549 66.6772 73.4747 66.3837 73.2001C66.0902 72.9255 65.7005 72.7788 65.2998 72.7921C65.1084 72.7893 64.9184 72.8251 64.7411 72.8973C64.5637 72.9696 64.4026 73.077 64.2673 73.213C64.132 73.349 64.0252 73.5109 63.9533 73.6891C63.8813 73.8674 63.8457 74.0583 63.8486 74.2506C63.8467 74.4429 63.8828 74.6336 63.9547 74.8118C64.0267 74.9899 64.133 75.152 64.2676 75.2886C64.4022 75.4252 64.5625 75.5336 64.739 75.6076C64.9156 75.6816 65.105 75.7197 65.2963 75.7197C65.698 75.7369 66.0902 75.5934 66.3869 75.3207C66.6837 75.0481 66.861 74.6684 66.88 74.2647L66.8661 74.2577Z" fill="#666869"/>
<path d="M88.4942 73.055C88.6578 72.815 88.8905 72.6309 89.1611 72.5275C89.4317 72.4241 89.7273 72.4063 90.0082 72.4765C90.1606 72.4996 90.3066 72.5541 90.4369 72.6368C90.5672 72.7195 90.679 72.8285 90.7652 72.9569C90.9152 73.1883 90.9919 73.1742 91.1733 72.9569C91.3279 72.7721 91.5242 72.6274 91.746 72.5347C91.9677 72.4421 92.2083 72.4044 92.4476 72.4246C92.6869 72.4449 92.9178 72.5226 93.121 72.6512C93.3242 72.7798 93.4937 72.9556 93.6153 73.1637C93.7407 73.3986 93.8055 73.6614 93.8036 73.9281C93.8036 74.6293 93.8036 75.3305 93.8036 76.0317C93.8036 76.1755 93.8629 76.3823 93.6327 76.3823C93.4025 76.3823 93.4269 76.1579 93.4269 76.0072C93.4269 75.3375 93.4269 74.6643 93.4269 73.9947C93.4454 73.7692 93.3961 73.5434 93.2853 73.3465C93.1746 73.1496 93.0076 72.9906 92.8059 72.8902C92.611 72.7921 92.3912 72.7547 92.175 72.7828C91.9587 72.8109 91.7557 72.9033 91.592 73.048C91.4482 73.1596 91.3321 73.3032 91.2528 73.4674C91.1736 73.6316 91.1332 73.8121 91.135 73.9947C91.135 74.6503 91.135 75.3095 91.135 75.9651C91.135 76.1299 91.2117 76.3893 90.9326 76.3788C90.6536 76.3683 90.7443 76.1124 90.7408 75.9441C90.7408 75.3024 90.7408 74.6573 90.7408 74.0157C90.7408 73.2794 90.3326 72.8131 89.6943 72.7851C89.3846 72.7786 89.0841 72.8911 88.854 73.0996C88.6239 73.308 88.4815 73.5968 88.4559 73.907C88.3687 74.6082 88.4559 75.3095 88.4175 76.0107C88.4175 76.1579 88.4907 76.3963 88.2221 76.3858C87.9535 76.3753 88.0442 76.1439 88.0442 75.9931C88.0442 75.0114 88.0442 74.0332 88.0442 73.055C88.0442 72.8762 87.8942 72.5677 88.2047 72.5326C88.5152 72.4976 88.3163 72.8727 88.4942 73.055Z" fill="#666869"/>
<path d="M110.349 75.6391C109.219 76.6593 108.256 76.7295 107.457 75.8985C107.099 75.4939 106.904 74.9694 106.911 74.4279C106.917 73.8864 107.125 73.3669 107.492 72.9709C108.26 72.2031 109.296 72.2697 110.349 73.2444V72.7606C110.349 72.6449 110.349 72.5292 110.506 72.5186C110.663 72.5081 110.719 72.6203 110.729 72.7571C110.733 72.826 110.733 72.895 110.729 72.9639V77.1537C110.729 77.2238 110.729 77.2939 110.729 77.3641C110.729 77.4342 110.688 77.5885 110.541 77.592C110.395 77.5955 110.349 77.4693 110.349 77.336V75.6391ZM110.349 74.4715C110.362 74.0421 110.206 73.625 109.913 73.3115C109.621 72.998 109.217 72.8138 108.79 72.7991C107.932 72.7991 107.328 73.5003 107.328 74.4435C107.328 75.3866 107.935 76.0738 108.79 76.0773C109 76.0799 109.209 76.0394 109.403 75.9583C109.597 75.8772 109.773 75.7572 109.919 75.6057C110.066 75.4541 110.18 75.2742 110.255 75.0768C110.33 74.8794 110.365 74.6687 110.356 74.4575L110.349 74.4715Z" fill="#666869"/>
<path d="M35.2401 74.1315C35.282 73.2444 34.7971 72.7816 33.925 72.8377C33.6085 72.853 33.2975 72.9267 33.0075 73.0551C32.8715 73.1217 32.7563 73.1147 32.697 72.9744C32.6377 72.8342 32.7494 72.7641 32.8505 72.722C33.1685 72.5616 33.5168 72.4712 33.8723 72.4566C34.2278 72.4421 34.5823 72.5039 34.9122 72.6379C35.4878 72.9008 35.6587 73.4302 35.6692 74.0193C35.6796 74.6083 35.6692 75.3025 35.6692 75.9476C35.6692 76.1159 35.7389 76.3683 35.4808 76.3824C35.2226 76.3964 35.3029 76.1299 35.268 75.9686C35.268 75.9441 35.2471 75.9266 35.2157 75.874C34.9244 76.1542 34.5625 76.3494 34.1691 76.4385C33.7699 76.512 33.3576 76.4542 32.9936 76.2737C32.7863 76.1856 32.6113 76.0352 32.4926 75.8431C32.3739 75.6509 32.3173 75.4266 32.3308 75.2008C32.3283 74.9729 32.3956 74.7498 32.5235 74.5617C32.6514 74.3736 32.8338 74.2295 33.0459 74.149C33.6892 73.9146 34.3895 73.8888 35.0482 74.0754L35.2401 74.1315ZM34.1936 74.3453C33.864 74.3151 33.5322 74.3669 33.2273 74.4961C33.095 74.5539 32.981 74.647 32.8977 74.7654C32.8144 74.8838 32.765 75.0229 32.755 75.1675C32.7449 75.3121 32.7745 75.4568 32.8406 75.5857C32.9066 75.7146 33.0066 75.8228 33.1296 75.8985C33.4733 76.1001 33.8823 76.1572 34.2677 76.0574C34.6531 75.9576 34.9837 75.709 35.1878 75.3656C35.4738 74.766 35.3029 74.454 34.6645 74.3909L34.1936 74.3453Z" fill="#666869"/>
<path d="M119.789 74.6258C119.398 74.6258 119.007 74.6468 118.62 74.6258C118.233 74.6047 118.25 74.7485 118.327 75.015C118.396 75.2506 118.521 75.466 118.69 75.643C118.86 75.8201 119.069 75.9536 119.301 76.0323C119.532 76.1111 119.779 76.1327 120.021 76.0953C120.262 76.058 120.492 75.9628 120.689 75.8179C120.849 75.7127 121.038 75.3691 121.226 75.639C121.414 75.909 121.048 76.0282 120.877 76.1439C120.574 76.3631 120.213 76.4859 119.84 76.4965C119.467 76.5072 119.099 76.4051 118.784 76.2035C118.432 75.9942 118.155 75.6774 117.993 75.2992C117.832 74.9209 117.795 74.5008 117.888 74.0999C117.913 73.7412 118.045 73.3986 118.268 73.1175C118.491 72.8363 118.794 72.6299 119.137 72.5256C120.406 72.1295 121.418 73.0621 121.432 74.3593C121.432 74.5872 121.275 74.6223 121.083 74.6223L119.789 74.6258ZM119.611 74.2752C119.96 74.2752 120.333 74.2576 120.692 74.2752C120.989 74.2927 121.013 74.149 120.964 73.9246C120.91 73.6058 120.744 73.3171 120.496 73.1102C120.249 72.9033 119.936 72.7917 119.614 72.7956C119.296 72.8258 118.995 72.9595 118.759 73.1765C118.522 73.3934 118.362 73.6818 118.303 73.9982C118.271 74.1945 118.303 74.2857 118.53 74.2787C118.892 74.2647 119.252 74.2717 119.611 74.2717V74.2752Z" fill="#666869"/>
<path d="M97.5431 74.6258C97.1385 74.6258 96.7338 74.6468 96.3327 74.6258C96.0257 74.6083 96.0187 74.7485 96.0745 74.9764C96.1406 75.2202 96.2655 75.4438 96.4382 75.6275C96.6108 75.8111 96.8259 75.9491 97.0643 76.0292C97.3027 76.1093 97.5571 76.129 97.8049 76.0867C98.0528 76.0443 98.2864 75.9411 98.485 75.7863C98.628 75.6811 98.8025 75.4041 98.9594 75.611C99.1164 75.8179 98.8443 75.9932 98.6734 76.1089C98.3592 76.3381 97.9836 76.467 97.5955 76.479C97.2074 76.491 96.8248 76.3854 96.4971 76.1759C96.1695 75.9665 95.9121 75.6629 95.7584 75.3046C95.6046 74.9462 95.5616 74.5497 95.635 74.1665C95.6524 73.7933 95.7846 73.4348 96.0132 73.1403C96.2419 72.8458 96.5558 72.6298 96.9117 72.5221C97.1827 72.4406 97.4692 72.4259 97.7471 72.4792C98.0249 72.5325 98.2859 72.6522 98.5079 72.8283C98.73 73.0044 98.9066 73.2316 99.0228 73.4908C99.1391 73.7499 99.1915 74.0334 99.1757 74.3173C99.1757 74.5592 99.0571 74.6328 98.8269 74.6293C98.3978 74.6223 97.9652 74.6258 97.5431 74.6258ZM97.4106 74.2752C97.7594 74.2752 98.1327 74.2752 98.4955 74.2752C98.6943 74.2752 98.7641 74.2121 98.7397 74.0087C98.701 73.6874 98.5513 73.3899 98.3167 73.1682C98.082 72.9465 97.7774 72.8146 97.4559 72.7956C97.1212 72.8004 96.7987 72.9224 96.5439 73.1407C96.2892 73.359 96.1182 73.6598 96.0606 73.9912C96.0327 74.1875 96.0606 74.2787 96.2838 74.2752C96.6501 74.2647 97.0234 74.2717 97.4001 74.2717L97.4106 74.2752Z" fill="#666869"/>
<path d="M69.4963 74.6468C69.5037 74.9295 69.5909 75.2042 69.7478 75.4388C69.9047 75.6735 70.1248 75.8585 70.3824 75.9721C70.6447 76.0896 70.9343 76.1315 71.2189 76.0931C71.5035 76.0547 71.7719 75.9376 71.994 75.7547L72.0917 75.6706C72.1999 75.5794 72.3324 75.4672 72.4406 75.6075C72.5487 75.7477 72.4406 75.8634 72.3254 75.9581C72.0814 76.183 71.7845 76.3417 71.4626 76.4194C71.1407 76.497 70.8044 76.491 70.4854 76.4019C70.1664 76.3128 69.8753 76.1436 69.6394 75.9101C69.4035 75.6767 69.2306 75.3867 69.137 75.0676C69.0551 74.8109 69.0243 74.5405 69.0464 74.2718C69.0685 74.0032 69.1431 73.7415 69.2658 73.5019C69.3886 73.2622 69.5572 73.0492 69.762 72.8751C69.9667 72.7009 70.2036 72.5691 70.4591 72.4871C70.731 72.4253 71.0135 72.4281 71.2841 72.4955C71.5547 72.5628 71.8059 72.6928 72.0177 72.875C72.2294 73.0572 72.3959 73.2866 72.5039 73.5449C72.6118 73.8032 72.6582 74.0833 72.6394 74.3628C72.6115 74.6363 72.4406 74.6223 72.2557 74.6223H69.7056C69.6359 74.6293 69.58 74.6398 69.4963 74.6468ZM70.8463 74.2717C71.1952 74.2717 71.5685 74.2717 71.9278 74.2717C72.2173 74.2892 72.2522 74.163 72.1929 73.9211C72.1389 73.6026 71.9736 73.3139 71.7268 73.1069C71.48 72.9 71.1678 72.7883 70.8463 72.7921C70.5277 72.8174 70.2261 72.9476 69.9884 73.1624C69.7507 73.3773 69.59 73.6648 69.5312 73.9807C69.4789 74.2226 69.5487 74.2752 69.7684 74.2717C70.1277 74.2647 70.487 74.2717 70.8463 74.2717Z" fill="#666869"/>
<path d="M61.3265 75.8039C61.0844 76.0892 60.7643 76.2968 60.4058 76.4009C60.0473 76.505 59.6664 76.501 59.3102 76.3894C59.0566 76.3343 58.829 76.1951 58.6638 75.9941C58.4986 75.7931 58.4056 75.5421 58.3997 75.2815C58.3863 75.0209 58.4626 74.7636 58.6157 74.5529C58.7688 74.3422 58.9894 74.1909 59.2404 74.1244C59.8244 73.9308 60.4529 73.9186 61.0439 74.0894C61.3928 74.1665 61.3579 74.0333 61.3125 73.7984C61.159 72.992 60.4613 72.6484 59.4846 72.9113C59.3386 72.9526 59.1953 73.003 59.0555 73.0621C58.9404 73.1112 58.8357 73.1392 58.7729 73.006C58.7593 72.9809 58.7515 72.9531 58.75 72.9246C58.7486 72.8961 58.7536 72.8676 58.7647 72.8413C58.7757 72.815 58.7926 72.7915 58.814 72.7727C58.8353 72.7539 58.8607 72.7401 58.8881 72.7325C59.6346 72.4275 60.3881 72.3013 61.1276 72.7325C61.3046 72.8429 61.4494 72.9983 61.5474 73.183C61.6454 73.3677 61.6932 73.5752 61.6858 73.7844C61.6858 74.5241 61.6858 75.2639 61.6858 76.0037C61.6858 76.144 61.7556 76.3543 61.5253 76.3543C61.2951 76.3543 61.3683 76.1229 61.3404 75.9792C61.3369 75.9721 61.3369 75.9301 61.3265 75.8039ZM60.1683 74.3278C59.821 74.3077 59.4752 74.3867 59.1706 74.5557C59.0683 74.6163 58.9813 74.6999 58.9165 74.8C58.8518 74.9001 58.811 75.0139 58.7975 75.1326C58.784 75.2512 58.798 75.3713 58.8386 75.4836C58.8791 75.5958 58.945 75.697 59.0311 75.7793C59.2251 75.9506 59.4637 76.0627 59.7189 76.1025C59.9741 76.1422 60.2353 76.108 60.4718 76.0037C60.7013 75.9424 60.907 75.8128 61.0619 75.632C61.2169 75.4512 61.314 75.2276 61.3404 74.9904C61.3928 74.6398 61.3056 74.426 60.9148 74.4049C60.6532 74.3909 60.3916 74.3523 60.1683 74.3278Z" fill="#666869"/>
<path d="M46.4658 73.1639C46.5935 72.9749 46.7591 72.8149 46.9519 72.6942C47.1448 72.5734 47.3606 72.4945 47.5856 72.4625C48.6321 72.3573 49.3298 72.9184 49.3717 74.016C49.4066 74.6998 49.3717 75.3872 49.3717 76.071C49.3717 76.2253 49.3717 76.4216 49.1519 76.4006C48.9321 76.3796 48.967 76.1937 48.967 76.0499C48.967 75.3907 48.967 74.7349 48.967 74.0756C48.9815 73.9149 48.9626 73.7528 48.9117 73.5997C48.8607 73.4466 48.7787 73.3058 48.6708 73.1862C48.563 73.0666 48.4316 72.9707 48.2851 72.9047C48.1385 72.8387 47.9799 72.804 47.8193 72.8027C47.6484 72.7956 47.4778 72.8225 47.3173 72.8818C47.1567 72.9411 47.0094 73.0317 46.8836 73.1483C46.7579 73.2649 46.6563 73.4053 46.5846 73.5614C46.5129 73.7175 46.4726 73.8863 46.4658 74.0581C46.4484 74.7139 46.4658 75.3731 46.4658 76.0324C46.4658 76.1902 46.5112 76.4076 46.2565 76.4041C46.0019 76.4006 46.0577 76.2077 46.0577 76.0534V71.2176C46.0577 71.0634 46.0577 70.867 46.2565 70.867C46.4554 70.867 46.4658 71.0774 46.4658 71.2422V73.1639Z" fill="#666869"/>
<path d="M115.592 75.8039C115.394 76.0828 115.113 76.2915 114.79 76.3998C114.466 76.5082 114.117 76.5107 113.792 76.4069C113.537 76.3536 113.304 76.2222 113.126 76.0308C112.948 75.8393 112.834 75.5971 112.798 75.3376C112.718 74.4752 112.7 73.608 112.746 72.743C112.746 72.6238 112.791 72.5152 112.931 72.5152C113.07 72.5152 113.122 72.6379 113.119 72.7781C113.119 73.4197 113.119 74.0613 113.119 74.7065C113.119 75.6075 113.548 76.1089 114.312 76.1089C115.076 76.1089 115.624 75.5584 115.634 74.7065C115.634 74.1174 115.634 73.5319 115.634 72.9534C115.634 72.7886 115.55 72.5292 115.836 72.5397C116.123 72.5502 116.021 72.8062 116.025 72.9709C116.025 73.9351 116.025 74.8993 116.025 75.8635C116.025 76.0563 116.161 76.3929 115.819 76.3929C115.477 76.3929 115.683 76.0458 115.592 75.8039Z" fill="#666869"/>
<path d="M77.8511 73.1603C78.0423 72.8658 78.3243 72.6426 78.6538 72.5247C78.9834 72.4069 79.3424 72.4011 79.6756 72.5081C79.9874 72.5886 80.262 72.775 80.4528 73.0357C80.6435 73.2964 80.7387 73.6154 80.7221 73.9386C80.743 74.6398 80.7221 75.3656 80.7221 76.0773C80.7221 76.2176 80.7221 76.3859 80.5372 76.3929C80.3523 76.3999 80.3279 76.2176 80.3279 76.0633C80.3279 75.4077 80.3279 74.752 80.3279 74.0929C80.3105 73.283 79.8814 72.8061 79.1663 72.7921C78.9927 72.7898 78.8203 72.822 78.6592 72.887C78.4981 72.952 78.3514 73.0483 78.2275 73.1705C78.1036 73.2928 78.005 73.4384 77.9374 73.5992C77.8698 73.7599 77.8346 73.9324 77.8337 74.1069C77.8127 74.7345 77.8337 75.3656 77.8337 75.9932C77.8337 76.1475 77.9104 76.3859 77.6627 76.3894C77.4151 76.3929 77.4639 76.1369 77.4639 75.9757C77.4639 74.9694 77.4639 73.9632 77.4639 72.9569C77.4639 72.7991 77.3732 72.5362 77.6558 72.5362C77.9383 72.5362 77.7988 72.8026 77.8372 72.9569C77.8454 73.0244 77.8501 73.0923 77.8511 73.1603Z" fill="#666869"/>
<path d="M85.5744 75.7723C85.3818 76.0437 85.1127 76.2508 84.8018 76.367C84.4909 76.4833 84.1525 76.5033 83.8302 76.4244C83.4978 76.3653 83.198 76.1871 82.9863 75.9228C82.7746 75.6585 82.6655 75.326 82.6791 74.9869C82.6616 74.2857 82.6791 73.56 82.6791 72.8482C82.6791 72.7115 82.6477 72.5362 82.85 72.5257C83.0523 72.5152 83.0523 72.7115 83.0558 72.8587C83.0558 73.56 83.0558 74.2822 83.0942 74.994C83.0909 75.1379 83.1162 75.281 83.1684 75.415C83.2207 75.549 83.2989 75.6713 83.3985 75.7747C83.4981 75.8781 83.6172 75.9605 83.7488 76.0173C83.8804 76.0741 84.0219 76.104 84.1651 76.1054C84.465 76.1357 84.7658 76.0578 85.0137 75.8856C85.2617 75.7135 85.4407 75.4583 85.5186 75.1658C85.6826 74.5031 85.5675 73.8264 85.5989 73.1603C85.5936 73.0622 85.5936 72.9639 85.5989 72.8658C85.5989 72.7325 85.5186 72.5152 85.7698 72.5152C86.021 72.5152 85.9407 72.7255 85.9407 72.8658C85.9407 73.9001 85.9407 74.9343 85.9407 75.9686C85.9407 76.1229 86.0558 76.3964 85.7593 76.3859C85.4628 76.3753 85.6233 76.1334 85.5954 75.9827C85.5884 75.9441 85.5884 75.902 85.5744 75.7723Z" fill="#666869"/>
<path d="M42.8762 72.4485C43.3006 72.4388 43.7143 72.5832 44.0413 72.8552C44.1878 72.9674 44.432 73.1041 44.2611 73.3145C44.0902 73.5249 43.9471 73.29 43.8111 73.1848C43.6043 72.9954 43.3474 72.8701 43.0713 72.8241C42.7953 72.7781 42.5119 72.8132 42.2553 72.9253C41.9822 73.0365 41.7467 73.2241 41.5766 73.4659C41.4066 73.7076 41.3092 73.9934 41.296 74.2892C41.2546 74.6103 41.3107 74.9364 41.457 75.2249C41.6033 75.5133 41.8329 75.7506 42.1157 75.9055C42.3897 76.062 42.7057 76.1276 43.0189 76.093C43.3321 76.0584 43.6264 75.9253 43.8599 75.7127C43.8792 75.6922 43.9002 75.6734 43.9227 75.6566C44.0378 75.5759 44.1564 75.3936 44.303 75.5865C44.4495 75.7793 44.2506 75.867 44.146 75.9581C43.8867 76.2043 43.5636 76.3721 43.2137 76.4422C42.8639 76.5122 42.5015 76.4818 42.1681 76.3543C41.7353 76.192 41.3714 75.8848 41.1375 75.4844C40.9037 75.084 40.8143 74.6149 40.8843 74.156C40.9509 73.6756 41.1904 73.2365 41.5575 72.9218C41.9246 72.6071 42.3938 72.4387 42.8762 72.4485Z" fill="#666869"/>
<path d="M55.2671 75.902C55.731 74.8221 56.1531 73.8229 56.5857 72.8307C56.6485 72.6799 56.6799 72.4135 56.9345 72.5432C57.1892 72.6729 57.0078 72.8342 56.9345 72.9814C56.4694 74.0379 56.0043 75.0898 55.5392 76.1369C55.4834 76.2631 55.4345 76.4034 55.2601 76.4069C55.0857 76.4104 55.0334 76.2807 54.9741 76.1509L53.5369 72.9113C53.4776 72.7711 53.3903 72.6028 53.5927 72.5222C53.795 72.4415 53.8508 72.6063 53.9136 72.7571C54.288 73.6406 54.6624 74.523 55.0369 75.4041C55.0997 75.5479 55.1659 75.6846 55.2671 75.902Z" fill="#666869"/>
<path d="M38.0587 73.3461C38.3775 72.9518 38.8045 72.6604 39.2867 72.5082C39.468 72.4661 39.6774 72.3925 39.7506 72.6168C39.8448 72.8938 39.5797 72.8763 39.4018 72.9184C39.0024 72.9951 38.6444 73.2154 38.3947 73.5379C38.145 73.8605 38.0206 74.2634 38.0448 74.6714C38.0448 75.1307 38.0448 75.5935 38.0448 76.0528C38.0448 76.2036 38.0448 76.4034 37.8285 76.4034C37.6122 76.4034 37.668 76.2106 37.668 76.0809C37.668 75.0057 37.668 73.9293 37.668 72.8517C37.668 72.722 37.6157 72.5432 37.8285 72.5327C38.0413 72.5222 38.0343 72.715 38.0448 72.8588C38.0552 73.0025 38.0587 73.1813 38.0587 73.3461Z" fill="#666869"/>
<path d="M101.332 73.5389C101.472 73.2822 101.662 73.0567 101.891 72.8759C102.12 72.6951 102.383 72.5629 102.664 72.4871C102.832 72.4485 103.013 72.4205 103.069 72.6484C103.125 72.8763 102.919 72.8657 102.772 72.9043C101.782 73.1708 101.377 73.7458 101.335 74.9203C101.335 75.3235 101.335 75.7302 101.335 76.1369C101.335 76.2631 101.335 76.4034 101.15 76.3964C100.965 76.3894 100.986 76.2702 100.986 76.151V72.7535C100.986 72.6343 100.986 72.5257 101.154 72.5186C101.321 72.5116 101.339 72.6414 101.339 72.7746C101.332 72.9814 101.332 73.1918 101.332 73.5389Z" fill="#666869"/>
<path d="M104.681 74.4575V72.8622C104.681 72.715 104.642 72.5116 104.865 72.5116C105.088 72.5116 105.078 72.7185 105.078 72.8868C105.078 73.9386 105.078 74.9554 105.078 75.9897C105.078 76.1439 105.137 76.3789 104.893 76.3824C104.649 76.3859 104.691 76.1369 104.688 75.9721C104.677 75.4743 104.681 74.9729 104.681 74.4575Z" fill="#666869"/>
<path d="M51.7609 74.4856C51.7609 75.029 51.7609 75.576 51.7609 76.1194C51.7609 76.2386 51.7784 76.3964 51.5901 76.3964C51.4019 76.3964 51.3914 76.2702 51.3914 76.1334V72.7781C51.3914 72.6413 51.4159 72.5116 51.5901 72.5256C51.7644 72.5397 51.7609 72.6799 51.7609 72.8061C51.7644 73.3636 51.7609 73.9246 51.7609 74.4856Z" fill="#666869"/>
<path d="M97.4663 71.9328C97.3269 71.9083 97.2781 71.8417 97.3722 71.7084C97.5186 71.4911 97.658 71.2702 97.8114 71.0598C97.8326 71.0229 97.8621 70.9915 97.8977 70.9682C97.9333 70.945 97.9738 70.9306 98.0159 70.9261C98.0581 70.9217 98.1007 70.9273 98.1403 70.9427C98.1799 70.958 98.2153 70.9825 98.2436 71.0142C98.4179 71.179 98.2436 71.2772 98.1286 71.3648L97.543 71.9013C97.5181 71.9133 97.4925 71.9238 97.4663 71.9328Z" fill="#666869"/>
<path d="M51.8166 71.2772C51.834 71.4595 51.7504 71.5858 51.5726 71.5858C51.5381 71.5845 51.5042 71.5761 51.473 71.5611C51.4418 71.546 51.4141 71.5247 51.3915 71.4983C51.3689 71.472 51.352 71.4413 51.3418 71.408C51.3316 71.3748 51.3283 71.3398 51.3322 71.3053C51.3322 71.137 51.3914 70.9932 51.5866 71.0037C51.6208 71.0025 51.6549 71.0091 51.6863 71.023C51.7177 71.037 51.7455 71.0579 51.7676 71.0843C51.7898 71.1106 51.8057 71.1416 51.8142 71.1751C51.8227 71.2085 51.8235 71.2434 51.8166 71.2772Z" fill="#666869"/>
<path d="M104.667 71.3018C104.649 71.144 104.684 71.0143 104.869 71.0143C105.053 71.0143 105.099 71.1265 105.099 71.2912C105.099 71.456 105.053 71.6068 104.862 71.5998C104.67 71.5928 104.646 71.442 104.667 71.3018Z" fill="#666869"/>
<path d="M84.7438 47.8067C84.7654 47.8563 84.7723 47.9112 84.7637 47.9647C84.7551 48.0182 84.7313 48.068 84.6953 48.1082C84.6725 48.0051 84.6899 47.8971 84.7438 47.8067Z" fill="#77498D"/>
<path d="M96.1478 42.2274C96.2331 42.2111 96.3213 42.2274 96.3953 42.273L96.1443 42.2941C96.1437 42.2718 96.1448 42.2495 96.1478 42.2274Z" fill="#7B67A7"/>
<path d="M149.077 55.241L148.806 55.2164C148.886 55.1323 148.987 55.1708 149.081 55.1778C149.081 55.1989 149.077 55.2199 149.077 55.241Z" fill="#8164A2"/>
<path d="M13.7607 46.7375C13.7322 46.7277 13.7079 46.7085 13.6916 46.683C13.6754 46.6574 13.6681 46.6271 13.6711 46.5968C13.7452 46.6218 13.7576 46.6781 13.7607 46.7375Z" fill="#7199CC"/>
<path d="M9.63511 50.8189C9.73085 50.8189 9.73394 50.8846 9.72467 50.9596C9.65982 50.9471 9.63511 50.8752 9.63511 50.8189Z" fill="#77498D"/>
<path d="M96.2054 36.6167C96.1622 36.676 96.1128 36.6885 96.0572 36.6167H96.2054Z" fill="#77498D"/>
<path d="M29.6341 41.6044C29.6305 41.573 29.6392 41.5414 29.6582 41.5163C29.6772 41.4913 29.7051 41.4747 29.736 41.47C29.7236 41.5325 29.7175 41.5981 29.6341 41.6044Z" fill="#9C88B9"/>
<path d="M148.168 55.213H148.066C148.072 55.2053 148.08 55.1991 148.089 55.1948C148.097 55.1905 148.107 55.1883 148.117 55.1883C148.127 55.1883 148.136 55.1905 148.145 55.1948C148.154 55.1991 148.162 55.2053 148.168 55.213Z" fill="#8164A2"/>
<path d="M9.57581 50.7102C9.58583 50.7128 9.59523 50.7173 9.60348 50.7236C9.61173 50.7299 9.61865 50.7377 9.62383 50.7468C9.62901 50.7558 9.63235 50.7658 9.63365 50.7762C9.63496 50.7865 9.63419 50.797 9.6314 50.8071L9.57581 50.7102Z" fill="#77498D"/>
<path d="M70.4565 36.6272C70.4287 36.6612 70.404 36.6519 70.3824 36.6272H70.4565Z" fill="#77498D"/>
<path d="M29.5609 41.7087C29.5609 41.6555 29.5795 41.6337 29.6258 41.6243C29.632 41.6743 29.6196 41.7087 29.5609 41.7087Z" fill="#9C88B9"/>
<path d="M48.5277 48.5191C48.5182 48.501 48.5099 48.4822 48.503 48.4629C48.503 48.4629 48.503 48.4629 48.5246 48.4379L48.5277 48.5191Z" fill="#7199CC"/>
<path d="M115.812 48.9464C115.822 48.9631 115.83 48.9809 115.837 48.9995C115.837 48.9995 115.821 48.9995 115.815 49.0213L115.812 48.9464Z" fill="#714189"/>
<path d="M121.461 49.0241C121.453 49.0049 121.447 48.9851 121.442 48.9647C121.442 48.9647 121.458 48.9647 121.464 48.9428L121.461 49.0241Z" fill="#7B67A7"/>
</g>
<defs>
<clipPath id="clip0_17203_8098">
<rect width="170" height="55" fill="white" transform="translate(5 23)"/>
</clipPath>
</defs>
</svg>
