<svg width="60" height="60" viewBox="0 0 60 60" fill="none" xmlns="http://www.w3.org/2000/svg">
<path fill-rule="evenodd" clip-rule="evenodd" d="M25.0348 54.491L24.6608 59.5088C22.4922 59.115 20.3743 58.485 18.3408 57.6299L19.1705 52.5165C21.0381 53.411 23.0069 54.0776 25.0348 54.491H25.0348Z" fill="#C672D9"/>
<path fill-rule="evenodd" clip-rule="evenodd" d="M32.4969 54.877L33.4588 59.8047C31.4731 60.0326 29.4874 60.0579 27.5186 59.8919L27.8926 54.9023C29.4171 55.0345 30.9584 55.0289 32.4969 54.877L32.4969 54.877Z" fill="#C672D9"/>
<path fill-rule="evenodd" clip-rule="evenodd" d="M54.7698 46.9237L52.0162 41.8217C55.8414 34.6719 56.1339 25.7952 52.005 18.1362C45.46 6.00218 30.2686 1.45733 18.1353 8.00243C6.00134 14.5446 1.45361 29.7388 7.99871 41.8721C10.08 45.7282 13.0361 48.8164 16.4901 51.0273L15.6322 56.3291C10.696 53.6458 6.45179 49.5563 3.5911 44.2491C-4.26158 29.685 1.19475 11.448 15.7611 3.59245C30.3252 -4.26311 48.5622 1.1961 56.4149 15.7596C61.9136 25.9552 60.8785 37.951 54.7695 46.9233L54.7698 46.9237Z" fill="#C672D9"/>
<path fill-rule="evenodd" clip-rule="evenodd" d="M44.248 56.4124C43.8486 56.6317 43.4408 56.8314 43.0357 57.0283L40.6562 52.6153C41.0641 52.4241 41.4691 52.2215 41.8713 52.005L44.248 56.4124Z" fill="#C672D9"/>
<path fill-rule="evenodd" clip-rule="evenodd" d="M40.3688 58.1565C39.0271 58.6515 37.6715 59.0425 36.3017 59.335L35.3398 54.4213C36.2202 54.2272 37.0949 53.9882 37.9612 53.6957L40.3688 58.1565Z" fill="#C672D9"/>
</svg>
